<svg xmlns:svg="http://www.w3.org/2000/svg" xmlns="http://www.w3.org/2000/svg" width="4in" height="4in" version="1"><svg:g><svg:path d="M 179.9824,40.035156 A 138.9825,138.9825 0 0 0 41,179.01758 138.9825,138.9825 0 0 0 179.9824,318 138.9825,138.9825 0 0 0 318.9648,179.01758 138.9825,138.9825 0 0 0 179.9824,40.035156 Z m -9.7109,20.22461 21,0 0,29.447265 -21,0 0,-29.447265 z m -58.3789,22.304687 75.6933,82.671877 40.4004,-20.7461 18.2715,35.58204 -67.5586,34.6914 -96.3086,-105.1875 29.502,-27.011717 z m 159.6601,87.208987 29.4473,0 0,21 -29.4473,0 0,-21 z M 60.5527,170 90,170 l 0,21 -29.4473,0 0,-21 z m 109.0332,100 21,0 0,29.44727 -21,0 0,-29.44727 z" fill="#838383" fill-opacity="1" fill-rule="evenodd" stroke="none" stroke-width="1" stroke-linecap="butt" stroke-linejoin="miter" stroke-opacity="1"/></svg:g></svg>