<svg xmlns:svg="http://www.w3.org/2000/svg" xmlns="http://www.w3.org/2000/svg" width="4in" height="4in" version="1"><svg:g><svg:path d="M 174.92188,43.001953 C 144.15219,43.512356 100.20925,126.57234 85.25,154.50391 70.29075,182.43548 25.5216,265.01828 41.33203,292.43945 57.14246,319.86062 148.37095,317.85806 179.14062,317.34766 209.91031,316.83725 301.154,315.81243 316.1133,287.88086 331.0725,259.94929 283.7889,178.89382 267.97852,151.47266 252.16809,124.05149 205.69155,42.491551 174.92188,43.001953 Z M 150.58594,100 l 52,0 0,131 -52,0 0,-131 z m -0.70703,150 52,0 0,39.02734 -52,0 0,-39.02734 z" fill="#ffb400" fill-opacity="1" stroke="none" stroke-width="50" stroke-linecap="square" stroke-linejoin="miter" stroke-miterlimit="4" stroke-dasharray="none" stroke-opacity="1"/></svg:g></svg>