<?xml version="1.0" encoding="UTF-8" standalone="no"?>
<!DOCTYPE svg PUBLIC "-//W3C//DTD SVG 1.1//EN" "http://www.w3.org/Graphics/SVG/1.1/DTD/svg11.dtd">
<svg width="591px" height="469px" version="1.1" xmlns="http://www.w3.org/2000/svg" xmlns:xlink="http://www.w3.org/1999/xlink" xml:space="preserve" xmlns:serif="http://www.serif.com/" style="fill-rule:evenodd;clip-rule:evenodd;stroke-linejoin:round;stroke-miterlimit:2;">
    <rect id="Artboard1" x="0" y="0" width="590.551" height="468.63" style="fill:none;"/>
    <g id="Artboard11" serif:id="Artboard1">
        <g>
            <path d="M194.29,325.126L211.812,342.648L186.974,367.487L186.974,336.766C186.974,331.643 189.963,327.213 194.29,325.126ZM186.974,371.402L211.812,396.24L186.974,421.078L186.974,371.402ZM186.974,424.993L211.812,449.831L194.29,467.354C189.963,465.266 186.974,460.836 186.974,455.714L186.974,424.993ZM196.647,468.218L213.423,451.442L230.611,468.63L199.89,468.63C198.77,468.63 197.683,468.487 196.647,468.218ZM235.121,468.63L216.323,449.831L240.219,425.935L264.115,449.831L245.317,468.63L235.121,468.63ZM252.405,468.63L267.015,454.02L281.625,468.63L252.405,468.63ZM291.29,468.63C285.648,462.988 272.492,449.831 272.492,449.831L293.811,428.513C293.811,428.513 315.129,449.831 315.129,449.831C315.129,449.831 301.973,462.988 296.331,468.63L291.29,468.63ZM308.574,468.63L320.606,456.597L332.639,468.63L308.574,468.63ZM364.743,468.63L374.198,459.175C374.198,459.175 379.061,464.038 383.653,468.63L364.743,468.63ZM420.912,468.63L427.789,461.752L434.667,468.63L420.912,468.63ZM478.691,468.63C480.234,467.087 481.381,465.94 481.381,465.94C481.381,465.94 482.527,467.087 484.07,468.63L478.691,468.63ZM484.07,323.85L481.381,326.539C481.381,326.539 480.234,325.392 478.691,323.85L484.07,323.85ZM434.667,323.85L427.789,330.728L420.912,323.85L434.667,323.85ZM383.653,323.85C379.061,328.442 374.198,333.305 374.198,333.305C374.198,333.305 369.335,328.442 364.743,323.85L383.653,323.85ZM332.639,323.85L320.606,335.883L308.574,323.85L332.639,323.85ZM296.331,323.85L315.129,342.648C315.129,342.648 293.811,363.967 293.811,363.967C293.811,363.967 272.492,342.648 272.492,342.648C272.492,342.648 285.648,329.492 291.29,323.85L296.331,323.85ZM281.625,323.85L267.015,338.46L252.405,323.85L281.625,323.85ZM245.317,323.85L264.115,342.648L240.219,366.545L216.323,342.648L235.121,323.85L245.317,323.85ZM230.611,323.85L213.423,341.038L196.647,324.261C197.683,323.993 198.77,323.85 199.89,323.85L230.611,323.85ZM508.176,458.585L499.423,449.831L508.176,441.078L516.93,449.831L508.176,458.585ZM328.661,449.831L347.402,431.09L366.143,449.831L347.402,468.572L328.661,449.831ZM188.239,423.036L213.423,397.851L238.608,423.036L213.423,448.22L188.239,423.036ZM400.993,466.639L384.185,449.831L400.993,433.023L417.801,449.831L400.993,466.639ZM534.972,428.89L529.118,423.036L534.972,417.182L540.826,423.036L534.972,428.89ZM320.606,349.414L340.636,369.444L320.606,389.474L300.576,369.444L320.606,349.414ZM293.811,374.921L315.129,396.24C315.129,396.24 293.811,417.558 293.811,417.558C293.811,417.559 272.492,396.24 272.492,396.24C272.492,396.24 293.811,374.921 293.811,374.921ZM213.423,344.259L238.608,369.444L213.423,394.629L188.239,369.444L213.423,344.259ZM267.015,346.837L289.622,369.444L267.015,392.052L244.407,369.444L267.015,346.837ZM356.745,423.036L374.198,405.583C374.198,405.583 391.65,423.036 391.65,423.036C391.65,423.036 374.198,440.488 374.198,440.488C374.198,440.488 356.745,423.036 356.745,423.036ZM240.219,372.344L264.115,396.24L240.219,420.136L216.323,396.24L240.219,372.344ZM374.198,351.992L391.65,369.444C391.65,369.444 374.198,386.897 374.198,386.897C374.198,386.897 356.745,369.444 356.745,369.444C356.745,369.444 374.198,351.992 374.198,351.992ZM588.563,425.023L586.576,423.036L588.563,421.048L590.551,423.036L588.563,425.023ZM454.585,462.773L441.643,449.831L454.585,436.889L467.527,449.831L454.585,462.773ZM540.826,369.444L534.972,375.298L529.118,369.444L534.972,363.59L540.826,369.444ZM427.789,437.911L412.914,423.036L427.789,408.161L442.664,423.036L427.789,437.911ZM561.768,453.752L557.847,449.831L561.768,445.91L565.689,449.831L561.768,453.752ZM565.689,342.648L561.768,346.569L557.847,342.648L561.768,338.728L565.689,342.648ZM347.402,323.907L366.143,342.648L347.402,361.39L328.661,342.648L347.402,323.907ZM467.527,396.24L454.585,409.182L441.643,396.24L454.585,383.298L467.527,396.24ZM442.664,369.444L427.789,384.319L412.914,369.444L427.789,354.569L442.664,369.444ZM516.93,396.24L508.176,404.993L499.423,396.24L508.176,387.486L516.93,396.24ZM300.576,423.036L320.606,403.006L340.636,423.036L320.606,443.065L300.576,423.036ZM516.93,342.648L508.176,351.402L499.423,342.648L508.176,333.895L516.93,342.648ZM244.407,423.036L267.015,400.428L289.622,423.036L267.015,445.643L244.407,423.036ZM481.381,433.722L470.694,423.036C470.694,423.036 481.381,412.349 481.381,412.349C481.381,412.349 492.067,423.036 492.067,423.036C492.067,423.036 481.381,433.722 481.381,433.722ZM400.993,325.84L417.801,342.648L400.993,359.457L384.185,342.648L400.993,325.84ZM590.551,369.444L588.563,371.432L586.576,369.444L588.563,367.456L590.551,369.444ZM492.067,369.444L481.381,380.131C481.381,380.131 470.694,369.444 470.694,369.444C470.694,369.444 481.381,358.758 481.381,358.758C481.381,358.758 492.067,369.444 492.067,369.444ZM347.402,377.499L366.143,396.24L347.402,414.981L328.661,396.24L347.402,377.499ZM400.993,379.432L417.801,396.24L400.993,413.048L384.185,396.24L400.993,379.432ZM467.527,342.648L454.585,355.59L441.643,342.648L454.585,329.707L467.527,342.648ZM565.689,396.24L561.768,400.161L557.847,396.24L561.768,392.319L565.689,396.24Z" style="fill:rgb(35,31,32);fill-opacity:0.5;"/>
            <path d="M418.226,173.733L418.226,294.896C418.226,301.415 412.934,306.708 406.415,306.708L11.811,306.708C5.292,306.708 0,301.415 0,294.896L0,173.733C0,167.214 5.292,161.922 11.811,161.922L406.415,161.922C412.934,161.922 418.226,167.214 418.226,173.733ZM511.717,11.811L511.717,132.974C511.717,139.493 506.425,144.785 499.906,144.785L11.811,144.785C5.292,144.785 0,139.493 0,132.974L0,11.811C0,5.292 5.292,0 11.811,0L499.906,0C506.425,0 511.717,5.292 511.717,11.811Z"/>
        </g>
    </g>
</svg>
