<?xml version="1.0" encoding="UTF-8" standalone="no"?>
<!-- Created with Inkscape (http://www.inkscape.org/) -->
<svg
   xmlns:dc="http://purl.org/dc/elements/1.1/"
   xmlns:cc="http://web.resource.org/cc/"
   xmlns:rdf="http://www.w3.org/1999/02/22-rdf-syntax-ns#"
   xmlns:svg="http://www.w3.org/2000/svg"
   xmlns="http://www.w3.org/2000/svg"
   xmlns:sodipodi="http://inkscape.sourceforge.net/DTD/sodipodi-0.dtd"
   xmlns:inkscape="http://www.inkscape.org/namespaces/inkscape"
   width="24in"
   height="4in"
   id="svg2"
   sodipodi:version="0.32"
   inkscape:version="0.43"
   version="1.0"
   sodipodi:docbase="/Users/james/Desktop"
   sodipodi:docname="galaxy_icons.svg"
   inkscape:export-filename="/Users/james/Desktop/galaxy_icons.png"
   inkscape:export-xdpi="90"
   inkscape:export-ydpi="90">
  <defs
     id="defs4" />
  <sodipodi:namedview
     id="base"
     pagecolor="#ffffff"
     bordercolor="#66f266"
     borderopacity="1"
     inkscape:pageopacity="0.0"
     inkscape:pageshadow="2"
     inkscape:zoom="0.87055056"
     inkscape:cx="1969.2512"
     inkscape:cy="134.59503"
     inkscape:document-units="px"
     inkscape:current-layer="layer1"
     inkscape:showpageshadow="false"
     showgrid="true"
     showguides="false"
     inkscape:guide-bbox="true"
     inkscape:window-width="956"
     inkscape:window-height="784"
     inkscape:window-x="161"
     inkscape:window-y="46"
     inkscape:grid-points="true">
    <sodipodi:guide
       orientation="vertical"
       position="400"
       id="guide2200" />
    <sodipodi:guide
       orientation="horizontal"
       position="320"
       id="guide2204" />
    <sodipodi:guide
       orientation="horizontal"
       position="42"
       id="guide2206" />
    <sodipodi:guide
       orientation="vertical"
       position="41"
       id="guide2208" />
    <sodipodi:guide
       orientation="vertical"
       position="321"
       id="guide2210" />
    <sodipodi:guide
       orientation="vertical"
       position="678"
       id="guide2212" />
    <sodipodi:guide
       orientation="vertical"
       position="759"
       id="guide2214" />
    <sodipodi:guide
       orientation="vertical"
       position="1120"
       id="guide2218" />
    <sodipodi:guide
       orientation="vertical"
       position="1038.0328"
       id="guide2240" />
    <sodipodi:guide
       orientation="horizontal"
       position="179.60512"
       id="guide2274" />
    <sodipodi:guide
       orientation="vertical"
       position="1260.0643"
       id="guide2276" />
    <sodipodi:guide
       orientation="vertical"
       position="1482.0958"
       id="guide2336" />
    <sodipodi:guide
       orientation="vertical"
       position="1759.2817"
       id="guide2340" />
    <sodipodi:guide
       orientation="vertical"
       position="1841.3061"
       id="guide2363" />
  </sodipodi:namedview>
  <metadata
     id="metadata7">
    <rdf:RDF>
      <cc:Work
         rdf:about="">
        <dc:format>image/svg+xml</dc:format>
        <dc:type
           rdf:resource="http://purl.org/dc/dcmitype/StillImage" />
      </cc:Work>
    </rdf:RDF>
  </metadata>
  <g
     inkscape:label="Layer 1"
     inkscape:groupmode="layer"
     id="layer1">
    <path
       sodipodi:type="arc"
       style="fill:#04cd00;fill-opacity:1;fill-rule:evenodd;stroke:none;stroke-width:1px;stroke-linecap:butt;stroke-linejoin:miter;stroke-opacity:1"
       id="path1307"
       sodipodi:cx="205"
       sodipodi:cy="205"
       sodipodi:rx="134.28572"
       sodipodi:ry="134.28572"
       d="M 339.28572 205 A 134.28572 134.28572 0 1 1  70.714279,205 A 134.28572 134.28572 0 1 1  339.28572 205 z"
       transform="matrix(1.034976,0,0,1.034976,-31.24154,-32.6701)" />
    <path
       sodipodi:type="arc"
       style="fill:#838383;fill-opacity:1;fill-rule:evenodd;stroke:none;stroke-width:1px;stroke-linecap:butt;stroke-linejoin:miter;stroke-opacity:1"
       id="path2220"
       sodipodi:cx="205"
       sodipodi:cy="205"
       sodipodi:rx="134.28572"
       sodipodi:ry="134.28572"
       d="M 339.28572 205 A 134.28572 134.28572 0 1 1  70.714279,205 A 134.28572 134.28572 0 1 1  339.28572 205 z"
       transform="matrix(1.034976,0,0,1.034976,1047.812,-33.15258)" />
    <rect
       style="fill:#5050ff;fill-opacity:1;stroke:none;stroke-width:40;stroke-linecap:square;stroke-linejoin:miter;stroke-miterlimit:4;stroke-dasharray:none;stroke-opacity:1"
       id="rect2224"
       width="277"
       height="278"
       x="401"
       y="43"
       ry="103"
       rx="103" />
    <path
       style="fill:none;fill-opacity:0.75;fill-rule:evenodd;stroke:#ffffff;stroke-width:40;stroke-linecap:butt;stroke-linejoin:miter;stroke-miterlimit:4;stroke-dasharray:none;stroke-opacity:1"
       d="M 498.7868,172 L 541.58579,172 L 541.58579,278.00505"
       id="path2230"
       sodipodi:nodetypes="ccc" />
    <path
       sodipodi:type="arc"
       style="fill:#ffffff;fill-opacity:1;stroke:#ffffff;stroke-width:40.00038147;stroke-linecap:square;stroke-linejoin:round;stroke-miterlimit:4;stroke-dasharray:none;stroke-opacity:1"
       id="path2232"
       sodipodi:cx="501.33871"
       sodipodi:cy="84.935463"
       sodipodi:rx="6.3639612"
       sodipodi:ry="6.3639612"
       d="M 507.70268 84.935463 A 6.3639612 6.3639612 0 1 1  494.97475,84.935463 A 6.3639612 6.3639612 0 1 1  507.70268 84.935463 z"
       transform="matrix(1.0731,0,0,0.951722,-0.622656,25.52899)" />
    <path
       sodipodi:type="star"
       style="fill:#ffb400;fill-opacity:1;stroke:none;stroke-width:50;stroke-linecap:square;stroke-linejoin:miter;stroke-miterlimit:4;stroke-dasharray:none;stroke-opacity:1"
       id="path2254"
       sodipodi:sides="3"
       sodipodi:cx="885.29767"
       sodipodi:cy="14.931891"
       sodipodi:r1="517.84943"
       sodipodi:r2="344.36987"
       sodipodi:arg1="0.50762901"
       sodipodi:arg2="1.5548266"
       inkscape:flatsided="false"
       inkscape:rounded="0.22"
       inkscape:randomized="0"
       d="M 1337.846,266.66192 C 1289.0223,354.43494 991.22247,357.65394 890.79693,359.25785 C 790.37139,360.86176 492.62068,367.15437 441.01889,280.98526 C 389.41709,194.81614 535.52926,-64.695565 584.35301,-152.46859 C 633.17675,-240.24161 776.60255,-501.2476 877.02809,-502.8515 C 977.45363,-504.45541 1129.1413,-248.1627 1180.7431,-161.99359 C 1232.3449,-75.824474 1386.6698,178.8889 1337.846,266.66192 z "
       transform="matrix(0.306393,0,0,0.318225,624.2074,203.0224)" />
    <path
       style="fill:none;fill-opacity:0.75;fill-rule:evenodd;stroke:#ffffff;stroke-width:40;stroke-linecap:butt;stroke-linejoin:miter;stroke-miterlimit:4;stroke-dasharray:none;stroke-opacity:1"
       d="M 113.97056,196.98066 L 168.17157,236.85786 L 248.34315,104.65685"
       id="path2270"
       sodipodi:nodetypes="ccc" />
    <path
       style="fill:none;fill-opacity:0.75;fill-rule:evenodd;stroke:#ffffff;stroke-width:40;stroke-linecap:butt;stroke-linejoin:miter;stroke-miterlimit:4;stroke-dasharray:none;stroke-opacity:1"
       d="M 1177.1421,96.07107 L 1263.1421,190 L 1317.1217,162.2807"
       id="path2272"
       sodipodi:nodetypes="ccc" />
    <rect
       style="fill:#ffffff;fill-opacity:1;stroke:none;stroke-width:40;stroke-linecap:square;stroke-linejoin:miter;stroke-miterlimit:4;stroke-dasharray:none;stroke-opacity:1"
       id="rect2280"
       width="29.446899"
       height="21"
       x="1140.5531"
       y="170"
       ry="0" />
    <rect
       style="fill:#ffffff;fill-opacity:1;stroke:none;stroke-width:40;stroke-linecap:square;stroke-linejoin:miter;stroke-miterlimit:4;stroke-dasharray:none;stroke-opacity:1"
       id="rect2326"
       width="29.446899"
       height="21"
       x="1351.5531"
       y="169.77354"
       ry="0" />
    <rect
       style="fill:#ffffff;fill-opacity:1;stroke:none;stroke-width:40;stroke-linecap:square;stroke-linejoin:miter;stroke-miterlimit:4;stroke-dasharray:none;stroke-opacity:1"
       id="rect2328"
       width="29.446899"
       height="21"
       x="60.260208"
       y="-1271.2715"
       ry="0"
       transform="matrix(0,1,-1,0,0,0)" />
    <rect
       style="fill:#ffffff;fill-opacity:1;stroke:none;stroke-width:40;stroke-linecap:square;stroke-linejoin:miter;stroke-miterlimit:4;stroke-dasharray:none;stroke-opacity:1"
       id="rect2330"
       width="29.446899"
       height="21"
       x="270"
       y="-1270.5857"
       ry="0"
       transform="matrix(0,1,-1,0,0,0)" />
    <rect
       style="fill:#ffffff;fill-opacity:1;stroke:none;stroke-width:40;stroke-linecap:square;stroke-linejoin:miter;stroke-miterlimit:4;stroke-dasharray:none;stroke-opacity:1"
       id="rect2332"
       width="131"
       height="52"
       x="100"
       y="-920.58582"
       ry="0"
       transform="matrix(0,1,-1,0,0,0)" />
    <rect
       style="fill:#ffffff;fill-opacity:1;stroke:none;stroke-width:40;stroke-linecap:square;stroke-linejoin:miter;stroke-miterlimit:4;stroke-dasharray:none;stroke-opacity:1"
       id="rect2334"
       width="39.027634"
       height="52"
       x="250"
       y="-919.87872"
       ry="0"
       transform="matrix(0,1,-1,0,0,0)" />
    <path
       sodipodi:type="arc"
       style="fill:#ff4343;fill-opacity:1;fill-rule:evenodd;stroke:none;stroke-width:1px;stroke-linecap:butt;stroke-linejoin:miter;stroke-opacity:1"
       id="path2338"
       sodipodi:cx="205"
       sodipodi:cy="205"
       sodipodi:rx="134.28572"
       sodipodi:ry="134.28572"
       d="M 339.28572 205 A 134.28572 134.28572 0 1 1  70.714279,205 A 134.28572 134.28572 0 1 1  339.28572 205 z"
       transform="matrix(1.034976,0,0,1.034976,1409.347,-33.15258)" />
    <path
       style="fill:none;fill-opacity:0.75;fill-rule:evenodd;stroke:#ffffff;stroke-width:40;stroke-linecap:butt;stroke-linejoin:miter;stroke-miterlimit:4;stroke-dasharray:none;stroke-opacity:1"
       d="M 1552.0629,100.60072 L 1692.5138,254.57128"
       id="path2348"
       sodipodi:nodetypes="cc" />
    <path
       style="fill:none;fill-opacity:0.75;fill-rule:evenodd;stroke:#ffffff;stroke-width:40;stroke-linecap:butt;stroke-linejoin:miter;stroke-miterlimit:4;stroke-dasharray:none;stroke-opacity:1"
       d="M 1692.5138,100.60072 L 1552.0629,254.57128"
       id="path2357"
       sodipodi:nodetypes="cc" />
    <path
       sodipodi:type="arc"
       style="fill:#838383;fill-opacity:1;fill-rule:evenodd;stroke:none;stroke-width:1px;stroke-linecap:butt;stroke-linejoin:miter;stroke-opacity:1"
       id="path2359"
       sodipodi:cx="205"
       sodipodi:cy="205"
       sodipodi:rx="134.28572"
       sodipodi:ry="134.28572"
       d="M 339.28572 205 A 134.28572 134.28572 0 1 1  70.714279,205 A 134.28572 134.28572 0 1 1  339.28572 205 z"
       transform="matrix(1.034976,0,0,1.034976,1768.416,-30.36099)" />
    <g
       id="g2389">
      <path
         sodipodi:nodetypes="ccccc"
         id="path2373"
         d="M 1930,170.49538 L 1860,155 C 1857.0248,172.3719 1855.5,189.5625 1860,206 L 1930,189.58727 C 1929.1741,183.22331 1928.9462,176.85934 1930,170.49538 z "
         style="fill:#ffffff;fill-opacity:1;fill-rule:evenodd;stroke:none;stroke-width:1px;stroke-linecap:butt;stroke-linejoin:miter;stroke-opacity:1" />
      <path
         sodipodi:nodetypes="ccccc"
         id="path2375"
         d="M 1941,146.46593 L 1888.1259,98.046542 C 1875.1851,112.76897 1868.0802,127.49141 1862.6259,142.21384 L 1931.4541,163 C 1933.471,155.74098 1937.1235,150.93552 1941,146.46593 z "
         style="fill:#ffffff;fill-opacity:1;fill-rule:evenodd;stroke:none;stroke-width:1px;stroke-linecap:butt;stroke-linejoin:miter;stroke-opacity:1" />
      <path
         sodipodi:nodetypes="ccccc"
         id="path2377"
         d="M 1963.7479,130.36947 L 1942.1673,62 C 1927,66 1912.7224,73.141087 1898,87.50001 L 1947.2139,139.91545 C 1952.1833,135.10778 1957.8405,132.36324 1963.7479,130.36947 z "
         style="fill:#ffffff;fill-opacity:1;fill-rule:evenodd;stroke:none;stroke-width:1px;stroke-linecap:butt;stroke-linejoin:miter;stroke-opacity:1" />
    </g>
    <g
       id="g2394"
       transform="matrix(0,1,-1,0,2161,-1801.748)">
      <path
         sodipodi:nodetypes="ccccc"
         id="path2396"
         d="M 1930,170.49538 L 1860,155 C 1857.0248,172.3719 1855.5,189.5625 1860,206 L 1930,189.58727 C 1929.1741,183.22331 1928.9462,176.85934 1930,170.49538 z "
         style="fill:#ffffff;fill-opacity:1;fill-rule:evenodd;stroke:none;stroke-width:1px;stroke-linecap:butt;stroke-linejoin:miter;stroke-opacity:1" />
      <path
         sodipodi:nodetypes="ccccc"
         id="path2398"
         d="M 1941,146.46593 L 1888.1259,98.046542 C 1875.1851,112.76897 1868.0802,127.49141 1862.6259,142.21384 L 1931.4541,163 C 1933.471,155.74098 1937.1235,150.93552 1941,146.46593 z "
         style="fill:#ffffff;fill-opacity:1;fill-rule:evenodd;stroke:none;stroke-width:1px;stroke-linecap:butt;stroke-linejoin:miter;stroke-opacity:1" />
      <path
         sodipodi:nodetypes="ccccc"
         id="path2400"
         d="M 1963.7479,130.36947 L 1942.1673,62 C 1927,66 1912.7224,73.141087 1898,87.50001 L 1947.2139,139.91545 C 1952.1833,135.10778 1957.8405,132.36324 1963.7479,130.36947 z "
         style="fill:#ffffff;fill-opacity:1;fill-rule:evenodd;stroke:none;stroke-width:1px;stroke-linecap:butt;stroke-linejoin:miter;stroke-opacity:1" />
    </g>
    <g
       id="g2402"
       transform="matrix(-1,0,0,-1,3962.168,360.1885)">
      <path
         sodipodi:nodetypes="ccccc"
         id="path2404"
         d="M 1930,170.49538 L 1860,155 C 1857.0248,172.3719 1855.5,189.5625 1860,206 L 1930,189.58727 C 1929.1741,183.22331 1928.9462,176.85934 1930,170.49538 z "
         style="fill:#ffffff;fill-opacity:1;fill-rule:evenodd;stroke:none;stroke-width:1px;stroke-linecap:butt;stroke-linejoin:miter;stroke-opacity:1" />
      <path
         sodipodi:nodetypes="ccccc"
         id="path2406"
         d="M 1941,146.46593 L 1888.1259,98.046542 C 1875.1851,112.76897 1868.0802,127.49141 1862.6259,142.21384 L 1931.4541,163 C 1933.471,155.74098 1937.1235,150.93552 1941,146.46593 z "
         style="fill:#ffffff;fill-opacity:1;fill-rule:evenodd;stroke:none;stroke-width:1px;stroke-linecap:butt;stroke-linejoin:miter;stroke-opacity:1" />
      <path
         sodipodi:nodetypes="ccccc"
         id="path2408"
         d="M 1963.7479,130.36947 L 1942.1673,62 C 1927,66 1912.7224,73.141087 1898,87.50001 L 1947.2139,139.91545 C 1952.1833,135.10778 1957.8405,132.36324 1963.7479,130.36947 z "
         style="fill:#ffffff;fill-opacity:1;fill-rule:evenodd;stroke:none;stroke-width:1px;stroke-linecap:butt;stroke-linejoin:miter;stroke-opacity:1" />
    </g>
    <g
       id="g2410"
       transform="matrix(0,-1,1,0,1800.429,2161.522)">
      <path
         sodipodi:nodetypes="ccccc"
         id="path2412"
         d="M 1930,170.49538 L 1860,155 C 1857.0248,172.3719 1855.5,189.5625 1860,206 L 1930,189.58727 C 1929.1741,183.22331 1928.9462,176.85934 1930,170.49538 z "
         style="fill:#ffffff;fill-opacity:1;fill-rule:evenodd;stroke:none;stroke-width:1px;stroke-linecap:butt;stroke-linejoin:miter;stroke-opacity:1" />
      <path
         sodipodi:nodetypes="ccccc"
         id="path2414"
         d="M 1941,146.46593 L 1888.1259,98.046542 C 1875.1851,112.76897 1868.0802,127.49141 1862.6259,142.21384 L 1931.4541,163 C 1933.471,155.74098 1937.1235,150.93552 1941,146.46593 z "
         style="fill:#ffffff;fill-opacity:1;fill-rule:evenodd;stroke:none;stroke-width:1px;stroke-linecap:butt;stroke-linejoin:miter;stroke-opacity:1" />
      <path
         sodipodi:nodetypes="ccccc"
         id="path2416"
         d="M 1963.7479,130.36947 L 1942.1673,62 C 1927,66 1912.7224,73.141087 1898,87.50001 L 1947.2139,139.91545 C 1952.1833,135.10778 1957.8405,132.36324 1963.7479,130.36947 z "
         style="fill:#ffffff;fill-opacity:1;fill-rule:evenodd;stroke:none;stroke-width:1px;stroke-linecap:butt;stroke-linejoin:miter;stroke-opacity:1" />
    </g>
  </g>
</svg>
