<?xml version="1.0" encoding="UTF-8" standalone="no"?>
<svg
   xmlns:svg="http://www.w3.org/2000/svg"
   xmlns="http://www.w3.org/2000/svg"
   version="1.1"
   width="1185"
   height="635"
   id="svg2">
  <path
     d="m 0.2,0 129.5,533 h 19.1 L 19.3,0 Z m 347.1,91 -95,198 5.9,24 106.5,-222 z m 667.6,0 -47.3,70.7 -8.1,45.6 78,-116.3 z M 533.5,209.5 476.4,533 h 18.1 l 57.1,-323.5 z m 243.2,0 -57.1,323.5 h 18 L 794.7,209.5 Z M 925.1,402.4 916,454 959.7,635 h 21.5 z"
     style="fill:#939598"
     id="path4" />
  <path
     d="m 34.1,0 129.5,533 h 137 L 512.7,91 H 384 L 252.2,365.9 163.2,0 Z m 498.6,91 -49.4,103 h 89.1 L 512.6,533 H 628.4 L 688.2,194 H 795.3 L 844.7,91 Z m 332,0 L 815,194.5 755.3,533 h 130.5 l 31.1,-176 h 14.6 l 67.1,278 h 129.1 L 1046.3,297.7 1184.7,91 H 1055.9 L 951.4,247 H 936.3 L 963.8,91 Z"
     style="fill:#064f8d"
     id="path6" />
</svg>
