<?xml version="1.0" encoding="UTF-8"?>
<svg xmlns="http://www.w3.org/2000/svg" viewBox="0 0 620 200" width="620" height="200">
  <defs>
    <filter id="shadow" x="-4%" y="-4%" width="110%" height="110%">
      <feGaussianBlur in="SourceAlpha" stdDeviation="2" result="blur"/>
      <feComponentTransfer in="blur">
        <feFuncA type="linear" slope="0.3"/>
      </feComponentTransfer>
      <feMerge>
        <feMergeNode/>
        <feMergeNode in="SourceGraphic"/>
      </feMerge>
    </filter>
    <marker id="arrowhead" markerWidth="10" markerHeight="7" refX="9" refY="3.5" orient="auto">
      <polygon points="0 0, 10 3.5, 0 7" fill="#555"/>
    </marker>
  </defs>

  <!-- Left: input collection -->
  <rect x="10" y="10" width="170" height="130" rx="8" ry="8" fill="#d9ead3" stroke="#888" stroke-width="1" filter="url(#shadow)"/>
  <text x="95" y="28" text-anchor="middle" font-family="sans-serif" font-size="12" font-weight="bold" fill="#333">List</text>

  <rect x="22" y="38" width="146" height="26" rx="4" ry="4" fill="#fff" stroke="#aaa" stroke-width="0.7"/>
  <text x="95" y="56" text-anchor="middle" font-family="sans-serif" font-size="11" fill="#333">patientA_treat_r1</text>

  <rect x="22" y="70" width="146" height="26" rx="4" ry="4" fill="#fff" stroke="#aaa" stroke-width="0.7"/>
  <text x="95" y="88" text-anchor="middle" font-family="sans-serif" font-size="11" fill="#333">patientA_ctrl_r1</text>

  <rect x="22" y="102" width="146" height="26" rx="4" ry="4" fill="#fff" stroke="#aaa" stroke-width="0.7"/>
  <text x="95" y="120" text-anchor="middle" font-family="sans-serif" font-size="11" fill="#333">patientB_treat_r1</text>

  <!-- Rules box -->
  <rect x="40" y="153" width="110" height="35" rx="6" ry="6" fill="#e8d5f5" stroke="#7b4fa0" stroke-width="1"/>
  <text x="95" y="175" text-anchor="middle" font-family="sans-serif" font-size="10" font-weight="bold" fill="#7b4fa0">Rule Builder</text>

  <!-- Arrow -->
  <line x1="195" y1="80" x2="355" y2="80" stroke="#555" stroke-width="2" marker-end="url(#arrowhead)"/>
  <text x="275" y="70" text-anchor="middle" font-family="sans-serif" font-size="12" font-weight="bold" fill="#555">Apply rules</text>
  <text x="275" y="98" text-anchor="middle" font-family="sans-serif" font-size="9" fill="#888">split, nest, tag</text>

  <!-- Right: reorganized nested collection -->
  <rect x="370" y="10" width="240" height="180" rx="8" ry="8" fill="#d9ead3" stroke="#888" stroke-width="1" filter="url(#shadow)"/>
  <text x="490" y="28" text-anchor="middle" font-family="sans-serif" font-size="12" font-weight="bold" fill="#333">Nested list (re-organized)</text>

  <!-- Inner: patientA -->
  <rect x="382" y="38" width="216" height="62" rx="6" ry="6" fill="#e8f0e3" stroke="#aaa" stroke-width="0.7"/>
  <text x="410" y="53" font-family="sans-serif" font-size="10" font-weight="bold" fill="#555">patientA</text>

  <rect x="394" y="58" width="192" height="16" rx="3" ry="3" fill="#fff" stroke="#aaa" stroke-width="0.5"/>
  <text x="490" y="70" text-anchor="middle" font-family="sans-serif" font-size="9" fill="#333">treat_r1</text>

  <rect x="394" y="78" width="192" height="16" rx="3" ry="3" fill="#fff" stroke="#aaa" stroke-width="0.5"/>
  <text x="490" y="90" text-anchor="middle" font-family="sans-serif" font-size="9" fill="#333">ctrl_r1</text>

  <!-- Inner: patientB -->
  <rect x="382" y="108" width="216" height="50" rx="6" ry="6" fill="#e8f0e3" stroke="#aaa" stroke-width="0.7"/>
  <text x="410" y="123" font-family="sans-serif" font-size="10" font-weight="bold" fill="#555">patientB</text>

  <rect x="394" y="128" width="192" height="16" rx="3" ry="3" fill="#fff" stroke="#aaa" stroke-width="0.5"/>
  <text x="490" y="140" text-anchor="middle" font-family="sans-serif" font-size="9" fill="#333">treat_r1</text>

  <text x="490" y="178" text-anchor="middle" font-family="sans-serif" font-size="10" font-style="italic" fill="#666">split on "_", nest by patient</text>

</svg>
