<?xml version="1.0" encoding="UTF-8"?>
<svg xmlns="http://www.w3.org/2000/svg" viewBox="0 0 620 220" width="620" height="220">
  <defs>
    <filter id="shadow" x="-4%" y="-4%" width="110%" height="110%">
      <feGaussianBlur in="SourceAlpha" stdDeviation="2" result="blur"/>
      <feComponentTransfer in="blur">
        <feFuncA type="linear" slope="0.3"/>
      </feComponentTransfer>
      <feMerge>
        <feMergeNode/>
        <feMergeNode in="SourceGraphic"/>
      </feMerge>
    </filter>
    <marker id="arrowhead" markerWidth="10" markerHeight="7" refX="9" refY="3.5" orient="auto">
      <polygon points="0 0, 10 3.5, 0 7" fill="#555"/>
    </marker>
  </defs>

  <!-- Left: Sample Sheet container -->
  <rect x="10" y="10" width="240" height="195" rx="8" ry="8" fill="#d9ead3" stroke="#888" stroke-width="1" filter="url(#shadow)"/>
  <text x="130" y="32" text-anchor="middle" font-family="sans-serif" font-size="13" font-weight="bold" fill="#333">Sample Sheet: "RNA-seq"</text>

  <!-- Metadata table -->
  <!-- Header row -->
  <rect x="22" y="44" width="80" height="22" fill="#fff" stroke="#aaa" stroke-width="0.5"/>
  <rect x="102" y="44" width="36" height="22" fill="#fce5cd" stroke="#aaa" stroke-width="0.5"/>
  <rect x="138" y="44" width="100" height="22" fill="#fce5cd" stroke="#aaa" stroke-width="0.5"/>
  <text x="62" y="59" text-anchor="middle" font-family="sans-serif" font-size="11" font-weight="bold" fill="#333">Name</text>
  <text x="120" y="59" text-anchor="middle" font-family="sans-serif" font-size="11" font-weight="bold" fill="#b45309">rep</text>
  <text x="188" y="59" text-anchor="middle" font-family="sans-serif" font-size="11" font-weight="bold" fill="#b45309">treatment</text>

  <!-- Row 1 -->
  <rect x="22" y="66" width="80" height="22" fill="#fff" stroke="#aaa" stroke-width="0.5"/>
  <rect x="102" y="66" width="36" height="22" fill="#fff8e1" stroke="#aaa" stroke-width="0.5"/>
  <rect x="138" y="66" width="100" height="22" fill="#fff8e1" stroke="#aaa" stroke-width="0.5"/>
  <text x="62" y="81" text-anchor="middle" font-family="sans-serif" font-size="11" fill="#333">sample1</text>
  <text x="120" y="81" text-anchor="middle" font-family="sans-serif" font-size="11" fill="#b45309">1</text>
  <text x="188" y="81" text-anchor="middle" font-family="sans-serif" font-size="11" fill="#b45309">control</text>

  <!-- Row 2 -->
  <rect x="22" y="88" width="80" height="22" fill="#fff" stroke="#aaa" stroke-width="0.5"/>
  <rect x="102" y="88" width="36" height="22" fill="#fff8e1" stroke="#aaa" stroke-width="0.5"/>
  <rect x="138" y="88" width="100" height="22" fill="#fff8e1" stroke="#aaa" stroke-width="0.5"/>
  <text x="62" y="103" text-anchor="middle" font-family="sans-serif" font-size="11" fill="#333">sample2</text>
  <text x="120" y="103" text-anchor="middle" font-family="sans-serif" font-size="11" fill="#b45309">2</text>
  <text x="188" y="103" text-anchor="middle" font-family="sans-serif" font-size="11" fill="#b45309">treated</text>

  <!-- Row 3 -->
  <rect x="22" y="110" width="80" height="22" fill="#fff" stroke="#aaa" stroke-width="0.5"/>
  <rect x="102" y="110" width="36" height="22" fill="#fff8e1" stroke="#aaa" stroke-width="0.5"/>
  <rect x="138" y="110" width="100" height="22" fill="#fff8e1" stroke="#aaa" stroke-width="0.5"/>
  <text x="62" y="125" text-anchor="middle" font-family="sans-serif" font-size="11" fill="#333">sample3</text>
  <text x="120" y="125" text-anchor="middle" font-family="sans-serif" font-size="11" fill="#b45309">3</text>
  <text x="188" y="125" text-anchor="middle" font-family="sans-serif" font-size="11" fill="#b45309">control</text>

  <!-- Metadata label -->
  <text x="155" y="155" text-anchor="middle" font-family="sans-serif" font-size="10" font-style="italic" fill="#b45309">metadata columns</text>
  <line x1="110" y1="140" x2="110" y2="148" stroke="#b45309" stroke-width="0.8" stroke-dasharray="2,2"/>
  <line x1="110" y1="148" x2="200" y2="148" stroke="#b45309" stroke-width="0.8" stroke-dasharray="2,2"/>
  <line x1="200" y1="140" x2="200" y2="148" stroke="#b45309" stroke-width="0.8" stroke-dasharray="2,2"/>

  <!-- Arrow -->
  <line x1="270" y1="107" x2="360" y2="107" stroke="#555" stroke-width="2" marker-end="url(#arrowhead)"/>
  <text x="315" y="98" text-anchor="middle" font-family="sans-serif" font-size="12" font-weight="bold" fill="#555">Convert</text>

  <!-- Right: List collection container -->
  <rect x="380" y="10" width="220" height="195" rx="8" ry="8" fill="#d9ead3" stroke="#888" stroke-width="1" filter="url(#shadow)"/>
  <text x="490" y="32" text-anchor="middle" font-family="sans-serif" font-size="13" font-weight="bold" fill="#333">List: "RNA-seq"</text>

  <!-- Dataset items -->
  <rect x="400" y="50" width="180" height="28" rx="4" ry="4" fill="#fff" stroke="#aaa" stroke-width="0.7"/>
  <text x="490" y="69" text-anchor="middle" font-family="sans-serif" font-size="12" fill="#333">sample1.fastq</text>

  <rect x="400" y="86" width="180" height="28" rx="4" ry="4" fill="#fff" stroke="#aaa" stroke-width="0.7"/>
  <text x="490" y="105" text-anchor="middle" font-family="sans-serif" font-size="12" fill="#333">sample2.fastq</text>

  <rect x="400" y="122" width="180" height="28" rx="4" ry="4" fill="#fff" stroke="#aaa" stroke-width="0.7"/>
  <text x="490" y="141" text-anchor="middle" font-family="sans-serif" font-size="12" fill="#333">sample3.fastq</text>

  <!-- Subtitle -->
  <text x="490" y="172" text-anchor="middle" font-family="sans-serif" font-size="10" font-style="italic" fill="#666">same datasets, no metadata</text>
</svg>
