<?xml version="1.0" encoding="UTF-8" standalone="no"?>
<svg
   version="1.1"
   viewBox="0 0 530 210"
   fill="none"
   stroke="none"
   stroke-linecap="square"
   stroke-miterlimit="10"
   id="svg2505"
   sodipodi:docname="filter_empty.svg"
   width="530"
   height="210"
   inkscape:version="1.1 (c4e8f9e, 2021-05-24)"
   xmlns:inkscape="http://www.inkscape.org/namespaces/inkscape"
   xmlns:sodipodi="http://sodipodi.sourceforge.net/DTD/sodipodi-0.dtd"
   xmlns:xlink="http://www.w3.org/1999/xlink"
   xmlns="http://www.w3.org/2000/svg"
   xmlns:svg="http://www.w3.org/2000/svg">
  <defs
     id="defs2509" />
  <sodipodi:namedview
     id="namedview2507"
     pagecolor="#ffffff"
     bordercolor="#666666"
     borderopacity="1.0"
     inkscape:pageshadow="2"
     inkscape:pageopacity="0.0"
     inkscape:pagecheckerboard="0"
     showgrid="false"
     fit-margin-left="0"
     fit-margin-top="0"
     fit-margin-right="-430"
     fit-margin-bottom="-390"
     inkscape:zoom="1.02"
     inkscape:cx="272.05882"
     inkscape:cy="284.31373"
     inkscape:window-width="1440"
     inkscape:window-height="900"
     inkscape:window-x="0"
     inkscape:window-y="0"
     inkscape:window-maximized="0"
     inkscape:current-layer="svg2505" />
  <clipPath
     id="p.0">
    <path
       d="M 0,0 H 960 V 600 H 0 Z"
       clip-rule="nonzero"
       id="path2316" />
  </clipPath>
  <g
     clip-path="url(#p.0)"
     id="g2503">
    <path
       fill="#000000"
       fill-opacity="0"
       d="M 0,0 H 960 V 600 H 0 Z"
       fill-rule="evenodd"
       id="path2319" />
    <g
       filter="url(#shadowFilter-p.1)"
       id="g2323">
      <use
         xlink:href="#p.1"
         transform="translate(0,2)"
         id="use2321"
         x="0"
         y="0"
         width="100%"
         height="100%" />
    </g>
    <defs
       id="defs2338">
      <filter
         id="shadowFilter-p.1"
         filterUnits="userSpaceOnUse">
        <feGaussianBlur
           in="SourceAlpha"
           stdDeviation="2.0"
           result="blur"
           id="feGaussianBlur2325" />
        <feComponentTransfer
           in="blur"
           color-interpolation-filters="sRGB"
           id="feComponentTransfer2335">
          <feFuncR
             type="linear"
             slope="0"
             intercept="0.0"
             id="feFuncR2327" />
          <feFuncG
             type="linear"
             slope="0"
             intercept="0.0"
             id="feFuncG2329" />
          <feFuncB
             type="linear"
             slope="0"
             intercept="0.0"
             id="feFuncB2331" />
          <feFuncA
             type="linear"
             slope="0.5"
             intercept="0"
             id="feFuncA2333" />
        </feComponentTransfer>
      </filter>
    </defs>
    <g
       id="p.1">
      <path
         fill="#d9ead3"
         d="m 8,12.944861 v 0 C 8,10.21389 10.21389,7.9999996 12.944861,7.9999996 H 214.11026 c 1.31146,0 2.5692,0.5209751 3.49654,1.4483166 0.92735,0.9273418 1.44832,2.1850868 1.44832,3.4965448 V 196.06302 c 0,2.73097 -2.21389,4.94486 -4.94486,4.94486 H 12.944862 c -2.730972,0 -4.9448619,-2.21389 -4.9448619,-4.94486 z"
         fill-rule="evenodd"
         id="path2340" />
      <path
         stroke="#000000"
         stroke-width="1"
         stroke-linejoin="round"
         stroke-linecap="butt"
         d="m 8,12.944861 v 0 C 8,10.21389 10.21389,7.9999996 12.944861,7.9999996 H 214.11026 c 1.31146,0 2.5692,0.5209751 3.49654,1.4483166 0.92735,0.9273418 1.44832,2.1850868 1.44832,3.4965448 V 196.06302 c 0,2.73097 -2.21389,4.94486 -4.94486,4.94486 H 12.944862 c -2.730972,0 -4.9448619,-2.21389 -4.9448619,-4.94486 z"
         fill-rule="evenodd"
         id="path2342" />
      <path
         fill="#000000"
         d="m 41.48557,39.1783 q -1.3125,0 -2.484375,-0.453125 -1.171875,-0.453125 -2.0625,-1.34375 -0.890625,-0.90625 -1.40625,-2.234375 -0.5,-1.34375 -0.5,-3.09375 0,-1.718748 0.53125,-3.062498 0.53125,-1.359375 1.421875,-2.296875 0.90625,-0.953125 2.09375,-1.4375 1.203125,-0.484375 2.515625,-0.484375 1.34375,0 2.40625,0.546875 1.078125,0.53125 1.78125,1.265625 l -1.671875,2 q -0.53125,-0.484375 -1.125,-0.796875 -0.578125,-0.3125 -1.328125,-0.3125 -0.703125,0 -1.328125,0.3125 -0.625,0.3125 -1.09375,0.890625 -0.453125,0.5625 -0.71875,1.40625 -0.265625,0.828125 -0.265625,1.875 0,2.156248 0.90625,3.343748 0.921875,1.171875 2.46875,1.171875 0.84375,0 1.515625,-0.375 0.671875,-0.375 1.1875,-0.921875 l 1.65625,1.953125 q -1.75,2.046875 -4.5,2.046875 z m 10.8974,0 q -1,0 -1.9375,-0.359375 -0.9375,-0.375 -1.65625,-1.078125 -0.703125,-0.703125 -1.140625,-1.734375 -0.421875,-1.046875 -0.421875,-2.375 0,-1.3125 0.421875,-2.343748 0.4375,-1.046875 1.140625,-1.75 0.71875,-0.703125 1.65625,-1.0625 0.9375,-0.375 1.9375,-0.375 1.015625,0 1.9375,0.375 0.921875,0.359375 1.640625,1.0625 0.71875,0.703125 1.140625,1.75 0.421875,1.031248 0.421875,2.343748 0,1.328125 -0.421875,2.375 -0.421875,1.03125 -1.140625,1.734375 -0.71875,0.703125 -1.640625,1.078125 -0.921875,0.359375 -1.9375,0.359375 z m 0,-2.53125 q 0.96875,0 1.453125,-0.8125 0.5,-0.8125 0.5,-2.203125 0,-1.375 -0.5,-2.187498 -0.484375,-0.8125 -1.453125,-0.8125 -0.96875,0 -1.453125,0.8125 -0.484375,0.812498 -0.484375,2.187498 0,1.390625 0.484375,2.203125 0.484375,0.8125 1.453125,0.8125 z m 10.180908,2.53125 q -0.8125,0 -1.375,-0.25 -0.546875,-0.25 -0.875,-0.703125 -0.328125,-0.46875 -0.484375,-1.109375 -0.140625,-0.65625 -0.140625,-1.46875 V 23.975177 h 3.125 V 35.77205 q 0,0.484375 0.1875,0.6875 0.1875,0.1875 0.375,0.1875 0.109375,0 0.171875,0 0.07813,0 0.203125,-0.04687 l 0.390629,2.328125 q -0.250004,0.109375 -0.656254,0.171875 -0.390625,0.07813 -0.921875,0.07813 z m 6.099873,0 q -0.8125,0 -1.375,-0.25 -0.546875,-0.25 -0.875,-0.703125 -0.328125,-0.46875 -0.484375,-1.109375 -0.140625,-0.65625 -0.140625,-1.46875 V 23.975177 h 3.125 V 35.77205 q 0,0.484375 0.1875,0.6875 0.1875,0.1875 0.375,0.1875 0.109375,0 0.171875,0 0.07813,0 0.203125,-0.04687 l 0.390625,2.328125 q -0.25,0.109375 -0.65625,0.171875 -0.390625,0.07813 -0.921875,0.07813 z m 7.959244,0 q -1.140625,0 -2.125,-0.359375 -0.96875,-0.375 -1.703125,-1.09375 -0.71875,-0.71875 -1.125,-1.734375 -0.40625,-1.03125 -0.40625,-2.359375 0,-1.265625 0.421875,-2.296873 0.4375,-1.046875 1.125,-1.75 0.6875,-0.71875 1.578125,-1.09375 0.90625,-0.390625 1.875,-0.390625 1.125,0 1.96875,0.390625 0.84375,0.375 1.40625,1.0625 0.5625,0.671875 0.84375,1.609375 0.28125,0.921873 0.28125,1.999998 0,0.4375 -0.04687,0.828125 -0.04687,0.375 -0.09375,0.5625 h -6.32813 q 0.21875,1.15625 0.953125,1.703125 0.734375,0.53125 1.796875,0.53125 1.125,0 2.28125,-0.703125 l 1.046875,1.90625 q -0.8125,0.546875 -1.8125,0.875 -0.984375,0.3125 -1.9375,0.3125 z m -2.34375,-6.6875 h 3.8125 q 0,-0.906248 -0.40625,-1.453123 -0.40625,-0.5625 -1.359375,-0.5625 -0.75,0 -1.3125,0.5 -0.5625,0.484375 -0.734375,1.515623 z m 13.266769,6.6875 q -1.109375,0 -2.0625,-0.359375 -0.953125,-0.375 -1.65625,-1.078125 -0.703125,-0.703125 -1.109375,-1.734375 -0.40625,-1.046875 -0.40625,-2.375 0,-1.3125 0.4375,-2.343748 0.453125,-1.046875 1.203125,-1.75 0.765625,-0.703125 1.765625,-1.0625 1.015625,-0.375 2.09375,-0.375 0.984375,0 1.734375,0.328125 0.765625,0.3125 1.359375,0.796875 l -1.46875,2.03125 q -0.75,-0.625 -1.421875,-0.625 -1.15625,0 -1.828125,0.8125 -0.65625,0.812498 -0.65625,2.187498 0,1.390625 0.671875,2.203125 0.671875,0.8125 1.703125,0.8125 0.515625,0 0.984375,-0.21875 0.484375,-0.234375 0.90625,-0.546875 l 1.234375,2.046875 q -0.78125,0.6875 -1.703125,0.96875 -0.90625,0.28125 -1.78125,0.28125 z m 9.200073,0 q -0.96875,0 -1.671875,-0.296875 -0.6875,-0.296875 -1.125,-0.828125 -0.4375,-0.53125 -0.640625,-1.28125 -0.203125,-0.765625 -0.203125,-1.6875 v -4.281248 h -1.453125 v -2.328125 l 1.625,-0.125 0.359375,-2.8125 h 2.609375 v 2.8125 h 2.53125 v 2.453125 h -2.53125 V 35.0533 q 0,0.890625 0.359375,1.28125 0.375,0.390625 1,0.390625 0.25,0 0.515625,-0.0625 0.28125,-0.0625 0.484375,-0.140625 l 0.5,2.28125 q -0.4375,0.125 -1.015625,0.25 -0.5625,0.125 -1.34375,0.125 z m 4.106203,-0.25 V 28.350177 h 3.125 V 38.9283 Z m 1.54687,-12.140623 q -0.78125,0 -1.29687,-0.453125 -0.51563,-0.453125 -0.51563,-1.1875 0,-0.71875 0.51563,-1.171875 0.51562,-0.453125 1.29687,-0.453125 0.8125,0 1.3125,0.453125 0.5,0.453125 0.5,1.171875 0,0.734375 -0.5,1.1875 -0.5,0.453125 -1.3125,0.453125 z m 8.87096,12.390623 q -1,0 -1.9375,-0.359375 -0.9375,-0.375 -1.65625,-1.078125 -0.70313,-0.703125 -1.14063,-1.734375 -0.42187,-1.046875 -0.42187,-2.375 0,-1.3125 0.42187,-2.343748 0.4375,-1.046875 1.14063,-1.75 0.71875,-0.703125 1.65625,-1.0625 0.9375,-0.375 1.9375,-0.375 1.01562,0 1.9375,0.375 0.92187,0.359375 1.64062,1.0625 0.71875,0.703125 1.14063,1.75 0.42187,1.031248 0.42187,2.343748 0,1.328125 -0.42187,2.375 -0.42188,1.03125 -1.14063,1.734375 -0.71875,0.703125 -1.64062,1.078125 -0.92188,0.359375 -1.9375,0.359375 z m 0,-2.53125 q 0.96875,0 1.45312,-0.8125 0.5,-0.8125 0.5,-2.203125 0,-1.375 -0.5,-2.187498 -0.48437,-0.8125 -1.45312,-0.8125 -0.96875,0 -1.45313,0.8125 -0.48437,0.812498 -0.48437,2.187498 0,1.390625 0.48437,2.203125 0.48438,0.8125 1.45313,0.8125 z m 7.30591,2.28125 V 28.350177 h 2.5625 l 0.20312,1.34375 h 0.0937 q 0.67188,-0.640625 1.48438,-1.109375 0.8125,-0.484375 1.90625,-0.484375 1.71875,0 2.5,1.125 0.78124,1.125 0.78124,3.140623 v 6.5625 h -3.14062 v -6.15625 q 0,-1.156248 -0.3125,-1.578123 -0.29687,-0.4375 -0.98437,-0.4375 -0.59375,0 -1.03125,0.265625 -0.42188,0.265625 -0.9375,0.765625 V 38.9283 Z m 19.41851,3.8125 q -1.34377,-2.1875 -2.07814,-4.546875 -0.73438,-2.375 -0.73438,-5.1875 0,-2.828123 0.73438,-5.187498 0.73437,-2.375 2.07814,-4.5625 l 1.96875,0.8125 q -1.17188,2.078125 -1.70313,4.359375 -0.53125,2.28125 -0.53125,4.578123 0,2.28125 0.53125,4.5625 0.53125,2.28125 1.70313,4.359375 z m 7.04001,-3.5625 q -0.71875,0 -1.3125,-0.25 -0.57813,-0.234375 -0.98438,-0.671875 -0.40625,-0.4375 -0.64062,-1.015625 -0.21875,-0.578125 -0.21875,-1.25 0,-1.671875 1.40625,-2.609375 1.42187,-0.9375 4.54687,-1.25 -0.0469,-0.703123 -0.42187,-1.124998 -0.35938,-0.421875 -1.23438,-0.421875 -0.6875,0 -1.35937,0.265625 -0.67188,0.25 -1.4375,0.703125 l -1.125,-2.078125 q 1.01562,-0.609375 2.125,-0.984375 1.125,-0.390625 2.39062,-0.390625 2.04688,0 3.125,1.15625 1.07813,1.15625 1.07813,3.609373 v 6.0625 h -2.5625 l -0.21875,-1.09375 h -0.0781 q -0.6875,0.609375 -1.4375,0.984375 -0.73437,0.359375 -1.64062,0.359375 z m 1.07812,-2.421875 q 0.53125,0 0.90625,-0.234375 0.39063,-0.234375 0.8125,-0.671875 v -1.84375 q -1.65625,0.234375 -2.29687,0.6875 -0.64063,0.4375 -0.64063,1.0625 0,0.5 0.32813,0.75 0.32812,0.25 0.89062,0.25 z m 14.64624,2.421875 q -0.8125,0 -1.375,-0.25 -0.54687,-0.25 -0.875,-0.703125 -0.32812,-0.46875 -0.48437,-1.109375 -0.14063,-0.65625 -0.14063,-1.46875 V 23.975177 h 3.125 V 35.77205 q 0,0.484375 0.1875,0.6875 0.1875,0.1875 0.375,0.1875 0.10938,0 0.17188,0 0.0781,0 0.20312,-0.04687 l 0.39063,2.328125 q -0.25,0.109375 -0.65625,0.171875 -0.39063,0.07813 -0.92188,0.07813 z m 3.22485,-0.25 V 28.350177 h 3.125 V 38.9283 Z m 1.54688,-12.140623 q -0.78125,0 -1.29688,-0.453125 -0.51562,-0.453125 -0.51562,-1.1875 0,-0.71875 0.51562,-1.171875 0.51563,-0.453125 1.29688,-0.453125 0.8125,0 1.3125,0.453125 0.5,0.453125 0.5,1.171875 0,0.734375 -0.5,1.1875 -0.5,0.453125 -1.3125,0.453125 z m 7.4491,12.390623 q -1.04688,0 -2.14063,-0.390625 -1.09375,-0.40625 -1.90625,-1.078125 l 1.40625,-1.953125 q 0.71875,0.546875 1.375,0.828125 0.67188,0.28125 1.34375,0.28125 0.71875,0 1.03125,-0.234375 0.3125,-0.234375 0.3125,-0.671875 0,-0.25 -0.1875,-0.453125 -0.17187,-0.203125 -0.48437,-0.375 -0.29688,-0.171875 -0.6875,-0.3125 -0.375,-0.140625 -0.78125,-0.3125 -0.5,-0.1875 -1,-0.4375 -0.48438,-0.265625 -0.89063,-0.625 -0.39062,-0.375 -0.65625,-0.875 -0.25,-0.515625 -0.25,-1.171873 0,-0.71875 0.28125,-1.328125 0.29688,-0.625 0.82813,-1.046875 0.53125,-0.4375 1.26562,-0.671875 0.75,-0.25 1.67188,-0.25 1.21875,0 2.125,0.421875 0.92187,0.40625 1.60937,0.921875 l -1.40625,1.875 q -0.57812,-0.4375 -1.14062,-0.671875 -0.54688,-0.234375 -1.09375,-0.234375 -1.20313,0 -1.20313,0.84375 0,0.25 0.17188,0.4375 0.17187,0.171875 0.45312,0.328123 0.29688,0.140625 0.67188,0.28125 0.375,0.140625 0.78125,0.296875 0.5,0.1875 1,0.4375 0.5,0.234375 0.92187,0.609375 0.42188,0.359375 0.67188,0.890625 0.25,0.515625 0.25,1.234375 0,0.71875 -0.28125,1.34375 -0.26563,0.625 -0.82813,1.078125 -0.54687,0.453125 -1.35937,0.71875 -0.8125,0.265625 -1.875,0.265625 z m 9.97485,0 q -0.96875,0 -1.67188,-0.296875 -0.6875,-0.296875 -1.125,-0.828125 -0.4375,-0.53125 -0.64062,-1.28125 -0.20313,-0.765625 -0.20313,-1.6875 v -4.281248 h -1.45312 v -2.328125 l 1.625,-0.125 0.35937,-2.8125 h 2.60938 v 2.8125 h 2.53125 v 2.453125 h -2.53125 V 35.0533 q 0,0.890625 0.35937,1.28125 0.375,0.390625 1,0.390625 0.25,0 0.51563,-0.0625 0.28125,-0.0625 0.48437,-0.140625 l 0.5,2.28125 q -0.4375,0.125 -1.01562,0.25 -0.5625,0.125 -1.34375,0.125 z m 5.69995,3.5625 -1.95313,-0.8125 q 1.1875,-2.078125 1.71875,-4.359375 0.53125,-2.28125 0.53125,-4.5625 0,-2.296873 -0.53125,-4.578123 -0.53125,-2.28125 -1.71875,-4.359375 l 1.95313,-0.8125 q 1.34375,2.1875 2.07812,4.5625 0.73438,2.359375 0.73438,5.187498 0,2.8125 -0.73438,5.1875 -0.73437,2.359375 -2.07812,4.546875 z"
         fill-rule="nonzero"
         id="path2344" />
    </g>
    <g
       filter="url(#shadowFilter-p.2)"
       id="g2349">
      <use
         xlink:href="#p.2"
         transform="translate(0,2)"
         id="use2347"
         x="0"
         y="0"
         width="100%"
         height="100%" />
    </g>
    <defs
       id="defs2364">
      <filter
         id="shadowFilter-p.2"
         filterUnits="userSpaceOnUse">
        <feGaussianBlur
           in="SourceAlpha"
           stdDeviation="2.0"
           result="blur"
           id="feGaussianBlur2351" />
        <feComponentTransfer
           in="blur"
           color-interpolation-filters="sRGB"
           id="feComponentTransfer2361">
          <feFuncR
             type="linear"
             slope="0"
             intercept="0.0"
             id="feFuncR2353" />
          <feFuncG
             type="linear"
             slope="0"
             intercept="0.0"
             id="feFuncG2355" />
          <feFuncB
             type="linear"
             slope="0"
             intercept="0.0"
             id="feFuncB2357" />
          <feFuncA
             type="linear"
             slope="0.5"
             intercept="0"
             id="feFuncA2359" />
        </feComponentTransfer>
      </filter>
    </defs>
    <g
       id="p.2">
      <path
         fill="#93c47d"
         d="m 18.377953,64.92142 v 0 c 0,-2.380276 1.929592,-4.309868 4.309866,-4.309868 H 204.36729 c 1.14305,0 2.23929,0.454075 3.04755,1.262329 0.80825,0.808258 1.26232,1.904488 1.26232,3.047539 v 30.183418 c 0,2.380272 -1.92959,4.30986 -4.30987,4.30986 H 22.687819 v 0 c -2.380274,0 -4.309866,-1.929588 -4.309866,-4.30986 z"
         fill-rule="evenodd"
         id="path2366" />
      <path
         fill="#000000"
         d="m 33.749645,87.15187 q -1.234375,0 -2.390625,-0.453125 -1.140625,-0.46875 -2.015625,-1.328125 l 1.28125,-1.484375 q 0.640625,0.625 1.484375,1.015625 0.84375,0.375 1.6875,0.375 1.03125,0 1.578125,-0.421875 0.546875,-0.4375 0.546875,-1.15625 0,-0.359375 -0.140625,-0.625 -0.140625,-0.265625 -0.390625,-0.453125 -0.25,-0.203125 -0.609375,-0.359375 -0.34375,-0.171875 -0.75,-0.34375 L 32.35902,81.18312 q -0.453125,-0.1875 -0.890625,-0.46875 -0.4375,-0.28125 -0.796875,-0.671875 -0.359375,-0.390625 -0.578125,-0.90625 -0.203125,-0.53125 -0.203125,-1.203125 0,-0.71875 0.296875,-1.34375 0.3125,-0.625 0.859375,-1.09375 0.546875,-0.46875 1.296875,-0.71875 0.75,-0.265625 1.65625,-0.265625 1.0625,0 2.046875,0.421875 0.984375,0.421875 1.703125,1.125 l -1.109375,1.375 q -0.59375,-0.484375 -1.234375,-0.765625 -0.625,-0.28125 -1.40625,-0.28125 -0.875,0 -1.40625,0.390625 -0.515625,0.375 -0.515625,1.046875 0,0.359375 0.15625,0.609375 0.15625,0.25 0.421875,0.453125 0.28125,0.1875 0.625,0.359375 0.359375,0.15625 0.734375,0.296875 l 1.65625,0.6875 q 0.546875,0.234375 0.984375,0.53125 0.453125,0.296875 0.78125,0.6875 0.328125,0.390625 0.515625,0.90625 0.1875,0.515625 0.1875,1.1875 0,0.734375 -0.296875,1.390625 -0.296875,0.65625 -0.875,1.15625 -0.5625,0.484375 -1.375,0.78125 -0.8125,0.28125 -1.84375,0.28125 z m 8.636414,0 q -1.203125,0 -1.953125,-0.734375 -0.75,-0.734375 -0.75,-1.953125 0,-0.71875 0.3125,-1.28125 0.3125,-0.578125 0.96875,-0.984375 0.65625,-0.421875 1.671875,-0.6875 1.015625,-0.28125 2.4375,-0.4375 -0.01563,-0.359375 -0.109375,-0.671875 -0.07813,-0.328125 -0.28125,-0.578125 -0.1875,-0.265625 -0.5,-0.40625 -0.3125,-0.140625 -0.78125,-0.140625 -0.671875,0 -1.328125,0.265625 -0.640625,0.265625 -1.25,0.640625 l -0.78125,-1.4375 q 0.765625,-0.484375 1.71875,-0.84375 0.953125,-0.359375 2.046875,-0.359375 1.71875,0 2.5625,1.03125 0.84375,1.015625 0.84375,2.9375 v 5.421875 h -1.765625 l -0.140625,-1 h -0.07813 q -0.625,0.515625 -1.328125,0.875 -0.6875,0.34375 -1.515625,0.34375 z m 0.6875,-1.671875 q 0.5625,0 1.015625,-0.265625 0.46875,-0.265625 0.984375,-0.75 v -2.046875 q -0.9375,0.109375 -1.578125,0.296875 -0.625,0.1875 -1.015625,0.421875 -0.390625,0.234375 -0.5625,0.53125 -0.15625,0.296875 -0.15625,0.640625 0,0.609375 0.359375,0.890625 0.375,0.28125 0.953125,0.28125 z m 6.720383,1.453125 v -9.15625 h 1.78125 l 0.140625,1.25 h 0.07813 q 0.578125,-0.625 1.25,-1.046875 0.6875,-0.4375 1.546875,-0.4375 1,0 1.609375,0.4375 0.609375,0.421875 0.921875,1.203125 0.65625,-0.703125 1.359375,-1.171875 0.71875,-0.46875 1.59375,-0.46875 1.453125,0 2.140625,0.953125 0.703125,0.9375 0.703125,2.6875 v 5.75 h -2.171875 v -5.46875 q 0,-1.140625 -0.34375,-1.59375 -0.34375,-0.46875 -1.0625,-0.46875 -0.84375,0 -1.90625,1.125 v 6.40625 h -2.15625 v -5.46875 q 0,-1.140625 -0.34375,-1.59375 -0.34375,-0.46875 -1.078125,-0.46875 -0.84375,0 -1.921875,1.125 v 6.40625 z m 15.727215,3.625 V 77.77687 h 1.78125 l 0.140625,0.96875 h 0.07813 q 0.578125,-0.484375 1.28125,-0.84375 0.71875,-0.359375 1.484375,-0.359375 0.859375,0 1.515625,0.328125 0.65625,0.328125 1.125,0.953125 0.46875,0.609375 0.703125,1.46875 0.25,0.859375 0.25,1.921875 0,1.171875 -0.328125,2.09375 -0.328125,0.921875 -0.875,1.546875 -0.53125,0.625 -1.25,0.96875 -0.703125,0.328125 -1.46875,0.328125 -0.59375,0 -1.1875,-0.25 -0.59375,-0.265625 -1.15625,-0.75 l 0.04687,1.53125 v 2.875 z m 4,-5.171875 q 0.90625,0 1.515625,-0.796875 0.625,-0.796875 0.625,-2.359375 0,-1.375 -0.46875,-2.140625 -0.46875,-0.765625 -1.515625,-0.765625 -0.96875,0 -2.015625,1.03125 v 4.265625 q 0.515625,0.421875 0.96875,0.59375 0.46875,0.171875 0.890625,0.171875 z m 8.615875,1.765625 q -1.15625,0 -1.625,-0.6875 -0.46875,-0.6875 -0.46875,-1.875 V 73.761245 h 2.140625 v 10.9375 q 0,0.390625 0.15625,0.546875 0.15625,0.15625 0.3125,0.15625 0.07813,0 0.140625,0 0.0625,0 0.203125,-0.03125 l 0.28125,1.59375 q -0.4375,0.1875 -1.140625,0.1875 z m 6.883972,0 q -0.953125,0 -1.78125,-0.3125 -0.8125,-0.328125 -1.4375,-0.9375 -0.609375,-0.625 -0.953125,-1.515625 -0.34375,-0.890625 -0.34375,-2.03125 0,-1.109375 0.34375,-2 0.359375,-0.90625 0.953125,-1.515625 0.59375,-0.625 1.34375,-0.953125 0.765625,-0.34375 1.578125,-0.34375 0.921875,0 1.625,0.328125 0.71875,0.3125 1.1875,0.890625 0.484375,0.578125 0.71875,1.390625 0.25,0.796875 0.25,1.75 0,0.3125 -0.03125,0.59375 -0.01563,0.28125 -0.0625,0.4375 h -5.8125 q 0.140625,1.234375 0.859375,1.90625 0.71875,0.65625 1.84375,0.65625 0.59375,0 1.109375,-0.171875 0.515625,-0.1875 1.015625,-0.5 l 0.71875,1.34375 q -0.640625,0.4375 -1.453125,0.71875 -0.796875,0.265625 -1.671875,0.265625 z m -2.453125,-5.671875 h 4.078125 q 0,-1.0625 -0.46875,-1.65625 -0.453125,-0.609375 -1.40625,-0.609375 -0.8125,0 -1.4375,0.578125 -0.609375,0.578125 -0.765625,1.6875 z m 11.736847,5.453125 v -1.75 h 2.65625 v -7.796875 h -2.1875 v -1.34375 q 0.90625,-0.171875 1.546875,-0.40625 0.640625,-0.234375 1.203125,-0.5625 h 1.59375 V 85.18312 h 2.343754 v 1.75 z m 15.833164,3.328125 q -1.1875,-1.921875 -1.82813,-3.96875 -0.64062,-2.0625 -0.64062,-4.546875 0,-2.484375 0.64062,-4.53125 0.64063,-2.046875 1.82813,-3.96875 l 1.34375,0.59375 q -1.07813,1.8125 -1.57813,3.828125 -0.48437,2.015625 -0.48437,4.078125 0,2.078125 0.48437,4.09375 0.5,2.015625 1.57813,3.8125 z m 3.51338,-3.328125 v -1.75 h 2.65625 v -7.796875 h -2.1875 v -1.34375 q 0.90625,-0.171875 1.54687,-0.40625 0.64063,-0.234375 1.20313,-0.5625 h 1.59375 V 85.18312 h 2.34375 v 1.75 z m 12.97691,0.21875 q -1.875,0 -2.95312,-1.59375 -1.07813,-1.59375 -1.07813,-4.609375 0,-3.03125 1.07813,-4.5625 1.07812,-1.546875 2.95312,-1.546875 1.85938,0 2.93751,1.546875 1.09375,1.546875 1.09375,4.5625 0,3.015625 -1.09375,4.609375 -1.07813,1.59375 -2.93751,1.59375 z m 0,-1.671875 q 0.42188,0 0.78125,-0.234375 0.375,-0.234375 0.62501,-0.765625 0.26562,-0.546875 0.40625,-1.40625 0.15625,-0.859375 0.15625,-2.125 0,-1.25 -0.15625,-2.09375 -0.14063,-0.859375 -0.40625,-1.375 -0.25001,-0.53125 -0.62501,-0.734375 -0.35937,-0.21875 -0.78125,-0.21875 -0.4375,0 -0.79687,0.21875 -0.35938,0.203125 -0.625,0.734375 -0.26563,0.515625 -0.42188,1.375 -0.14062,0.84375 -0.14062,2.09375 0,1.265625 0.14062,2.125 0.15625,0.859375 0.42188,1.40625 0.26562,0.53125 0.625,0.765625 0.35937,0.234375 0.79687,0.234375 z m 9.57067,1.671875 q -1.875,0 -2.95312,-1.59375 -1.07813,-1.59375 -1.07813,-4.609375 0,-3.03125 1.07813,-4.5625 1.07812,-1.546875 2.95312,-1.546875 1.85938,0 2.9375,1.546875 1.09375,1.546875 1.09375,4.5625 0,3.015625 -1.09375,4.609375 -1.07812,1.59375 -2.9375,1.59375 z m 0,-1.671875 q 0.42188,0 0.78125,-0.234375 0.375,-0.234375 0.625,-0.765625 0.26563,-0.546875 0.40625,-1.40625 0.15625,-0.859375 0.15625,-2.125 0,-1.25 -0.15625,-2.09375 -0.14062,-0.859375 -0.40625,-1.375 -0.25,-0.53125 -0.625,-0.734375 -0.35937,-0.21875 -0.78125,-0.21875 -0.4375,0 -0.79687,0.21875 -0.35938,0.203125 -0.625,0.734375 -0.26563,0.515625 -0.42188,1.375 -0.14062,0.84375 -0.14062,2.09375 0,1.265625 0.14062,2.125 0.15625,0.859375 0.42188,1.40625 0.26562,0.53125 0.625,0.765625 0.35937,0.234375 0.79687,0.234375 z m 10.06754,1.453125 V 74.729995 h 2.17187 v 5.546875 h 0.0469 l 4.34375,-5.546875 h 2.40625 l -3.75,4.765625 4.39062,7.4375 h -2.39062 l -3.29688,-5.75 -1.75,2.1875 v 3.5625 z m 15.38778,0.21875 q -0.625,0 -1.28125,-0.296875 -0.64062,-0.3125 -1.21875,-0.890625 h -0.0469 l -0.1875,0.96875 h -1.70313 V 73.761245 h 2.14063 v 3.390625 l -0.0469,1.53125 q 0.57813,-0.5 1.25,-0.8125 0.6875,-0.328125 1.39063,-0.328125 0.85937,0 1.53125,0.328125 0.67187,0.328125 1.14062,0.9375 0.46875,0.609375 0.70313,1.46875 0.25,0.859375 0.25,1.921875 0,1.171875 -0.32813,2.09375 -0.32812,0.921875 -0.875,1.5625 -0.53125,0.625 -1.25,0.96875 -0.70312,0.328125 -1.46875,0.328125 z m -0.4375,-1.765625 q 0.90625,0 1.51563,-0.796875 0.625,-0.796875 0.625,-2.359375 0,-1.375 -0.46875,-2.140625 -0.46875,-0.765625 -1.51563,-0.765625 -0.96875,0 -2.01562,1.03125 v 4.265625 q 0.5,0.421875 0.96875,0.59375 0.46875,0.171875 0.89062,0.171875 z m 7.28472,4.875 -1.34375,-0.609375 q 1.0625,-1.796875 1.5625,-3.8125 0.5,-2.015625 0.5,-4.09375 0,-2.0625 -0.5,-4.078125 -0.5,-2.015625 -1.5625,-3.828125 l 1.34375,-0.59375 q 1.1875,1.921875 1.82812,3.96875 0.64063,2.046875 0.64063,4.53125 0,2.484375 -0.64063,4.546875 -0.64062,2.046875 -1.82812,3.96875 z"
         fill-rule="nonzero"
         id="path2368" />
    </g>
    <g
       filter="url(#shadowFilter-p.3)"
       id="g2373">
      <use
         xlink:href="#p.3"
         transform="translate(0,2)"
         id="use2371"
         x="0"
         y="0"
         width="100%"
         height="100%" />
    </g>
    <defs
       id="defs2388">
      <filter
         id="shadowFilter-p.3"
         filterUnits="userSpaceOnUse">
        <feGaussianBlur
           in="SourceAlpha"
           stdDeviation="2.0"
           result="blur"
           id="feGaussianBlur2375" />
        <feComponentTransfer
           in="blur"
           color-interpolation-filters="sRGB"
           id="feComponentTransfer2385">
          <feFuncR
             type="linear"
             slope="0"
             intercept="0.0"
             id="feFuncR2377" />
          <feFuncG
             type="linear"
             slope="0"
             intercept="0.0"
             id="feFuncG2379" />
          <feFuncB
             type="linear"
             slope="0"
             intercept="0.0"
             id="feFuncB2381" />
          <feFuncA
             type="linear"
             slope="0.5"
             intercept="0"
             id="feFuncA2383" />
        </feComponentTransfer>
      </filter>
    </defs>
    <g
       id="p.3">
      <path
         fill="#93c47d"
         d="m 18.377953,111.55134 v 0 c 0,-2.38027 1.929592,-4.30987 4.309866,-4.30987 H 204.36729 c 1.14305,0 2.23929,0.45407 3.04755,1.26233 0.80825,0.80826 1.26232,1.90449 1.26232,3.04754 v 30.18342 c 0,2.38026 -1.92959,4.30986 -4.30987,4.30986 H 22.687819 v 0 c -2.380274,0 -4.309866,-1.9296 -4.309866,-4.30986 z"
         fill-rule="evenodd"
         id="path2390" />
      <path
         fill="#000000"
         d="m 33.749645,133.7818 q -1.234375,0 -2.390625,-0.45313 -1.140625,-0.46875 -2.015625,-1.32812 l 1.28125,-1.48438 q 0.640625,0.625 1.484375,1.01563 0.84375,0.375 1.6875,0.375 1.03125,0 1.578125,-0.42188 0.546875,-0.4375 0.546875,-1.15625 0,-0.35937 -0.140625,-0.625 -0.140625,-0.26562 -0.390625,-0.45312 -0.25,-0.20313 -0.609375,-0.35938 -0.34375,-0.17187 -0.75,-0.34375 l -1.671875,-0.73438 q -0.453125,-0.1875 -0.890625,-0.46875 -0.4375,-0.28125 -0.796875,-0.67187 -0.359375,-0.39063 -0.578125,-0.90625 -0.203125,-0.53125 -0.203125,-1.20313 0,-0.71875 0.296875,-1.34375 0.3125,-0.625 0.859375,-1.09375 0.546875,-0.46875 1.296875,-0.71875 0.75,-0.26562 1.65625,-0.26562 1.0625,0 2.046875,0.42187 0.984375,0.42188 1.703125,1.125 l -1.109375,1.375 q -0.59375,-0.48437 -1.234375,-0.76562 -0.625,-0.28125 -1.40625,-0.28125 -0.875,0 -1.40625,0.39062 -0.515625,0.375 -0.515625,1.04688 0,0.35937 0.15625,0.60937 0.15625,0.25 0.421875,0.45313 0.28125,0.1875 0.625,0.35937 0.359375,0.15625 0.734375,0.29688 l 1.65625,0.6875 q 0.546875,0.23437 0.984375,0.53125 0.453125,0.29687 0.78125,0.6875 0.328125,0.39063 0.515625,0.90625 0.1875,0.51563 0.1875,1.1875 0,0.73438 -0.296875,1.39063 -0.296875,0.65625 -0.875,1.15625 -0.5625,0.48437 -1.375,0.78125 -0.8125,0.28125 -1.84375,0.28125 z m 8.636414,0 q -1.203125,0 -1.953125,-0.73438 -0.75,-0.73437 -0.75,-1.95312 0,-0.71875 0.3125,-1.28125 0.3125,-0.57813 0.96875,-0.98438 0.65625,-0.42187 1.671875,-0.6875 1.015625,-0.28125 2.4375,-0.4375 -0.01563,-0.35938 -0.109375,-0.67188 -0.07813,-0.32812 -0.28125,-0.57812 -0.1875,-0.26563 -0.5,-0.40625 -0.3125,-0.14063 -0.78125,-0.14063 -0.671875,0 -1.328125,0.26563 -0.640625,0.26562 -1.25,0.64062 l -0.78125,-1.4375 q 0.765625,-0.48437 1.71875,-0.84375 0.953125,-0.35937 2.046875,-0.35937 1.71875,0 2.5625,1.03125 0.84375,1.01562 0.84375,2.9375 v 5.42188 h -1.765625 l -0.140625,-1 h -0.07813 q -0.625,0.51562 -1.328125,0.875 -0.6875,0.34375 -1.515625,0.34375 z m 0.6875,-1.67188 q 0.5625,0 1.015625,-0.26562 0.46875,-0.26563 0.984375,-0.75 v -2.04688 q -0.9375,0.10938 -1.578125,0.29688 -0.625,0.1875 -1.015625,0.42187 -0.390625,0.23438 -0.5625,0.53125 -0.15625,0.29688 -0.15625,0.64063 0,0.60937 0.359375,0.89062 0.375,0.28125 0.953125,0.28125 z m 6.720383,1.45313 v -9.15626 h 1.78125 l 0.140625,1.25 h 0.07813 q 0.578125,-0.625 1.25,-1.04687 0.6875,-0.4375 1.546875,-0.4375 1,0 1.609375,0.4375 0.609375,0.42187 0.921875,1.20312 0.65625,-0.70312 1.359375,-1.17187 0.71875,-0.46875 1.59375,-0.46875 1.453125,0 2.140625,0.95312 0.703125,0.9375 0.703125,2.6875 v 5.75001 h -2.171875 v -5.46875 q 0,-1.14063 -0.34375,-1.59376 -0.34375,-0.46875 -1.0625,-0.46875 -0.84375,0 -1.90625,1.125 v 6.40626 h -2.15625 v -5.46875 q 0,-1.14063 -0.34375,-1.59376 -0.34375,-0.46875 -1.078125,-0.46875 -0.84375,0 -1.921875,1.125 v 6.40626 z m 15.727215,3.625 v -12.78126 h 1.78125 l 0.140625,0.96875 h 0.07813 q 0.578125,-0.48437 1.28125,-0.84375 0.71875,-0.35937 1.484375,-0.35937 0.859375,0 1.515625,0.32812 0.65625,0.32813 1.125,0.95313 0.46875,0.60937 0.703125,1.46875 0.25,0.85937 0.25,1.92188 0,1.17187 -0.328125,2.09375 -0.328125,0.92187 -0.875,1.54687 -0.53125,0.625 -1.25,0.96875 -0.703125,0.32813 -1.46875,0.32813 -0.59375,0 -1.1875,-0.25 -0.59375,-0.26563 -1.15625,-0.75 l 0.04687,1.53125 v 2.875 z m 4,-5.17188 q 0.90625,0 1.515625,-0.79687 0.625,-0.79688 0.625,-2.35938 0,-1.375 -0.46875,-2.14063 -0.46875,-0.76562 -1.515625,-0.76562 -0.96875,0 -2.015625,1.03125 v 4.26563 q 0.515625,0.42187 0.96875,0.59375 0.46875,0.17187 0.890625,0.17187 z m 8.615875,1.76563 q -1.15625,0 -1.625,-0.6875 -0.46875,-0.6875 -0.46875,-1.875 v -10.82813 h 2.140625 v 10.9375 q 0,0.39063 0.15625,0.54688 0.15625,0.15625 0.3125,0.15625 0.07813,0 0.140625,0 0.0625,0 0.203125,-0.0312 l 0.28125,1.59375 q -0.4375,0.1875 -1.140625,0.1875 z m 6.883972,0 q -0.953125,0 -1.78125,-0.3125 -0.8125,-0.32813 -1.4375,-0.9375 -0.609375,-0.625 -0.953125,-1.51563 -0.34375,-0.89062 -0.34375,-2.03125 0,-1.10938 0.34375,-2 0.359375,-0.90625 0.953125,-1.51563 0.59375,-0.625 1.34375,-0.95312 0.765625,-0.34375 1.578125,-0.34375 0.921875,0 1.625,0.32812 0.71875,0.3125 1.1875,0.89063 0.484375,0.57812 0.71875,1.39062 0.25,0.79688 0.25,1.75001 0,0.3125 -0.03125,0.59375 -0.01563,0.28125 -0.0625,0.4375 h -5.8125 q 0.140625,1.23437 0.859375,1.90625 0.71875,0.65625 1.84375,0.65625 0.59375,0 1.109375,-0.17188 0.515625,-0.1875 1.015625,-0.5 l 0.71875,1.34375 q -0.640625,0.4375 -1.453125,0.71875 -0.796875,0.26563 -1.671875,0.26563 z m -2.453125,-5.67188 h 4.078125 q 0,-1.0625 -0.46875,-1.65625 -0.453125,-0.60938 -1.40625,-0.60938 -0.8125,0 -1.4375,0.57813 -0.609375,0.57812 -0.765625,1.6875 z m 11.064972,5.45313 v -1.25 q 1.234375,-1.1875 2.234375,-2.1875 1,-1.01563 1.6875,-1.875 0.703125,-0.85938 1.078125,-1.60938 0.375,-0.75 0.375,-1.42188 0,-0.95312 -0.5,-1.5 -0.5,-0.54687 -1.453125,-0.54687 -0.6875,0 -1.265625,0.39062 -0.5625,0.39063 -1.046875,0.9375 l -1.203125,-1.20312 q 0.828125,-0.875 1.6875,-1.34375 0.875,-0.48438 2.109375,-0.48438 0.859375,0 1.546875,0.26563 0.6875,0.26562 1.171879,0.75 0.48437,0.46875 0.75,1.14062 0.28125,0.67188 0.28125,1.48438 0,0.78125 -0.34375,1.59375 -0.34375,0.8125 -0.937504,1.64063 -0.59375,0.82812 -1.375,1.71875 -0.78125,0.875 -1.65625,1.79687 0.46875,-0.0312 1,-0.0781 0.546875,-0.0469 0.984375,-0.0469 h 2.906249 v 1.82813 z m 16.505039,3.32812 q -1.1875,-1.92187 -1.82813,-3.96875 -0.64062,-2.0625 -0.64062,-4.54687 0,-2.48438 0.64062,-4.53126 0.64063,-2.04687 1.82813,-3.96875 l 1.34375,0.59375 q -1.07813,1.8125 -1.57813,3.82813 -0.48437,2.01562 -0.48437,4.07813 0,2.07812 0.48437,4.09375 0.5,2.01562 1.57813,3.8125 z m 6.91963,-3.10937 q -1.875,0 -2.95313,-1.59375 -1.07812,-1.59375 -1.07812,-4.60938 0,-3.03125 1.07812,-4.5625 1.07813,-1.54688 2.95313,-1.54688 1.85937,0 2.9375,1.54688 1.09375,1.54687 1.09375,4.5625 0,3.01563 -1.09375,4.60938 -1.07813,1.59375 -2.9375,1.59375 z m 0,-1.67188 q 0.42187,0 0.78125,-0.23437 0.375,-0.23438 0.625,-0.76563 0.26562,-0.54687 0.40625,-1.40625 0.15625,-0.85937 0.15625,-2.125 0,-1.25 -0.15625,-2.09375 -0.14063,-0.85938 -0.40625,-1.375 -0.25,-0.53125 -0.625,-0.73438 -0.35938,-0.21875 -0.78125,-0.21875 -0.4375,0 -0.79688,0.21875 -0.35937,0.20313 -0.625,0.73438 -0.26562,0.51562 -0.42187,1.375 -0.14063,0.84375 -0.14063,2.09375 0,1.26563 0.14063,2.125 0.15625,0.85938 0.42187,1.40625 0.26563,0.53125 0.625,0.76563 0.35938,0.23437 0.79688,0.23437 z m 14.31754,1.67188 q -0.625,0 -1.28125,-0.29688 -0.64062,-0.3125 -1.21875,-0.89062 h -0.0469 l -0.1875,0.96875 h -1.70314 v -13.17188 h 2.14064 v 3.39062 l -0.0469,1.53125 q 0.57813,-0.5 1.25,-0.8125 0.6875,-0.32812 1.39063,-0.32812 0.85937,0 1.53125,0.32812 0.67187,0.32813 1.14062,0.9375 0.46875,0.60938 0.70313,1.46875 0.25,0.85938 0.25,1.92188 0,1.17188 -0.32813,2.09375 -0.32812,0.92188 -0.875,1.5625 -0.53125,0.625 -1.25,0.96875 -0.70312,0.32813 -1.46875,0.32813 z m -0.4375,-1.76563 q 0.90625,0 1.51563,-0.79687 0.625,-0.79688 0.625,-2.35938 0,-1.375 -0.46875,-2.14063 -0.46875,-0.76562 -1.51563,-0.76562 -0.96875,0 -2.01562,1.03125 v 4.26563 q 0.5,0.42187 0.96875,0.59375 0.46875,0.17187 0.89062,0.17187 z m 7.01646,5.3125 q -0.375,0 -0.65625,-0.0469 -0.28125,-0.0469 -0.54687,-0.14063 l 0.39062,-1.67187 q 0.14063,0.0312 0.3125,0.0781 0.17188,0.0469 0.34375,0.0469 0.73438,0 1.17188,-0.4375 0.4375,-0.4375 0.65625,-1.125 l 0.17187,-0.57813 -3.60937,-9.04688 h 2.1875 l 1.59375,4.48438 q 0.20312,0.60938 0.39062,1.26563 0.20313,0.65625 0.40625,1.3125 h 0.0781 q 0.15625,-0.625 0.32812,-1.28125 0.1875,-0.67188 0.35938,-1.29688 l 1.375,-4.48438 h 2.07812 l -3.32812,9.56251 q -0.28125,0.78125 -0.625,1.39062 -0.32813,0.625 -0.76563,1.0625 -0.4375,0.4375 -1.01562,0.67188 -0.5625,0.23437 -1.29688,0.23437 z m 11.84423,-3.54687 q -0.8125,0 -1.35938,-0.23438 -0.54687,-0.25 -0.89062,-0.6875 -0.34375,-0.4375 -0.51563,-1.03125 -0.15625,-0.60937 -0.15625,-1.35937 v -4.37501 h -1.29687 v -1.59375 l 1.42187,-0.0937 0.25,-2.5 h 1.79688 v 2.5 h 2.32812 v 1.6875 h -2.32812 v 4.37501 q 0,1.59375 1.28125,1.59375 0.25,0 0.5,-0.0469 0.25,-0.0625 0.45312,-0.15625 l 0.375,1.59375 q -0.375,0.125 -0.85937,0.21875 -0.46875,0.10938 -1,0.10938 z m 7.12375,0 q -0.95313,0 -1.78125,-0.3125 -0.8125,-0.32813 -1.4375,-0.9375 -0.60938,-0.625 -0.95313,-1.51563 -0.34375,-0.89062 -0.34375,-2.03125 0,-1.10938 0.34375,-2 0.35938,-0.90625 0.95313,-1.51563 0.59375,-0.625 1.34375,-0.95312 0.76562,-0.34375 1.57812,-0.34375 0.92188,0 1.625,0.32812 0.71875,0.3125 1.1875,0.89063 0.48438,0.57812 0.71875,1.39062 0.25,0.79688 0.25,1.75001 0,0.3125 -0.0312,0.59375 -0.0156,0.28125 -0.0625,0.4375 h -5.8125 q 0.14063,1.23437 0.85938,1.90625 0.71875,0.65625 1.84375,0.65625 0.59375,0 1.10937,-0.17188 0.51563,-0.1875 1.01563,-0.5 l 0.71875,1.34375 q -0.64063,0.4375 -1.45313,0.71875 -0.79687,0.26563 -1.67187,0.26563 z m -2.45313,-5.67188 h 4.07813 q 0,-1.0625 -0.46875,-1.65625 -0.45313,-0.60938 -1.40625,-0.60938 -0.8125,0 -1.4375,0.57813 -0.60938,0.57812 -0.76563,1.6875 z m 10.55248,5.67188 q -0.95313,0 -1.875,-0.35938 -0.92188,-0.35937 -1.59375,-0.90625 l 1,-1.375 q 0.625,0.48438 1.21875,0.75 0.60937,0.26563 1.32812,0.26563 0.73438,0 1.09375,-0.29688 0.35938,-0.3125 0.35938,-0.79687 0,-0.28125 -0.17188,-0.48438 -0.17187,-0.21875 -0.45312,-0.39062 -0.28125,-0.17188 -0.64063,-0.3125 -0.34375,-0.14063 -0.70312,-0.28125 -0.4375,-0.17188 -0.90625,-0.39063 -0.46875,-0.23437 -0.84375,-0.54687 -0.35938,-0.3125 -0.59375,-0.73438 -0.21875,-0.42188 -0.21875,-1 0,-1.21875 0.89062,-1.98438 0.89063,-0.76562 2.4375,-0.76562 0.95313,0 1.71875,0.34375 0.76563,0.32812 1.32813,0.76562 l -0.98438,1.29688 q -0.48437,-0.34375 -0.98437,-0.5625 -0.5,-0.21875 -1.03125,-0.21875 -0.70313,0 -1.03125,0.29687 -0.3125,0.28125 -0.3125,0.71875 0,0.28125 0.15625,0.48438 0.15625,0.1875 0.40625,0.34375 0.26562,0.14062 0.60937,0.28125 0.35938,0.12501 0.71875,0.25001 0.46875,0.17187 0.9375,0.39062 0.46875,0.20313 0.84375,0.53125 0.39063,0.3125 0.625,0.76563 0.23438,0.45312 0.23438,1.09375 0,0.59375 -0.23438,1.10937 -0.23437,0.51563 -0.6875,0.90625 -0.4375,0.375 -1.10937,0.59375 -0.67188,0.21875 -1.53125,0.21875 z m 6.25959,3.10937 -1.34375,-0.60937 q 1.0625,-1.79688 1.5625,-3.8125 0.5,-2.01563 0.5,-4.09375 0,-2.06251 -0.5,-4.07813 -0.5,-2.01563 -1.5625,-3.82813 l 1.34375,-0.59375 q 1.1875,1.92188 1.82813,3.96875 0.64062,2.04688 0.64062,4.53126 0,2.48437 -0.64062,4.54687 -0.64063,2.04688 -1.82813,3.96875 z"
         fill-rule="nonzero"
         id="path2392" />
    </g>
    <g
       filter="url(#shadowFilter-p.4)"
       id="g2397">
      <use
         xlink:href="#p.4"
         transform="translate(0,2)"
         id="use2395"
         x="0"
         y="0"
         width="100%"
         height="100%" />
    </g>
    <defs
       id="defs2412">
      <filter
         id="shadowFilter-p.4"
         filterUnits="userSpaceOnUse">
        <feGaussianBlur
           in="SourceAlpha"
           stdDeviation="2.0"
           result="blur"
           id="feGaussianBlur2399" />
        <feComponentTransfer
           in="blur"
           color-interpolation-filters="sRGB"
           id="feComponentTransfer2409">
          <feFuncR
             type="linear"
             slope="0"
             intercept="0.0"
             id="feFuncR2401" />
          <feFuncG
             type="linear"
             slope="0"
             intercept="0.0"
             id="feFuncG2403" />
          <feFuncB
             type="linear"
             slope="0"
             intercept="0.0"
             id="feFuncB2405" />
          <feFuncA
             type="linear"
             slope="0.5"
             intercept="0"
             id="feFuncA2407" />
        </feComponentTransfer>
      </filter>
    </defs>
    <g
       id="p.4">
      <path
         fill="#93c47d"
         d="m 18.377953,158.18126 v 0 c 0,-2.38028 1.929592,-4.30988 4.309866,-4.30988 H 204.36729 c 1.14305,0 2.23929,0.45409 3.04755,1.26235 0.80825,0.80824 1.26232,1.90448 1.26232,3.04753 v 30.18341 c 0,2.38028 -1.92959,4.30988 -4.30987,4.30988 H 22.687819 v 0 c -2.380274,0 -4.309866,-1.9296 -4.309866,-4.30988 z"
         fill-rule="evenodd"
         id="path2414" />
      <path
         fill="#000000"
         d="m 33.749645,180.41171 q -1.234375,0 -2.390625,-0.45313 -1.140625,-0.46875 -2.015625,-1.32812 l 1.28125,-1.48438 q 0.640625,0.625 1.484375,1.01563 0.84375,0.375 1.6875,0.375 1.03125,0 1.578125,-0.42188 0.546875,-0.4375 0.546875,-1.15625 0,-0.35937 -0.140625,-0.625 -0.140625,-0.26562 -0.390625,-0.45312 -0.25,-0.20313 -0.609375,-0.35938 -0.34375,-0.17187 -0.75,-0.34375 l -1.671875,-0.73437 q -0.453125,-0.1875 -0.890625,-0.46875 -0.4375,-0.28125 -0.796875,-0.67188 -0.359375,-0.39062 -0.578125,-0.90625 -0.203125,-0.53125 -0.203125,-1.20312 0,-0.71875 0.296875,-1.34375 0.3125,-0.625 0.859375,-1.09375 0.546875,-0.46875 1.296875,-0.71875 0.75,-0.26563 1.65625,-0.26563 1.0625,0 2.046875,0.42188 0.984375,0.42187 1.703125,1.125 l -1.109375,1.375 q -0.59375,-0.48438 -1.234375,-0.76563 -0.625,-0.28125 -1.40625,-0.28125 -0.875,0 -1.40625,0.39063 -0.515625,0.375 -0.515625,1.04687 0,0.35938 0.15625,0.60938 0.15625,0.25 0.421875,0.45312 0.28125,0.1875 0.625,0.35938 0.359375,0.15625 0.734375,0.29687 l 1.65625,0.6875 q 0.546875,0.23438 0.984375,0.53125 0.453125,0.29688 0.78125,0.6875 0.328125,0.39063 0.515625,0.90625 0.1875,0.51563 0.1875,1.1875 0,0.73438 -0.296875,1.39063 -0.296875,0.65625 -0.875,1.15625 -0.5625,0.48437 -1.375,0.78125 -0.8125,0.28125 -1.84375,0.28125 z m 8.636414,0 q -1.203125,0 -1.953125,-0.73438 -0.75,-0.73437 -0.75,-1.95312 0,-0.71875 0.3125,-1.28125 0.3125,-0.57813 0.96875,-0.98438 0.65625,-0.42187 1.671875,-0.6875 1.015625,-0.28125 2.4375,-0.4375 -0.01563,-0.35937 -0.109375,-0.67187 -0.07813,-0.32813 -0.28125,-0.57813 -0.1875,-0.26562 -0.5,-0.40625 -0.3125,-0.14062 -0.78125,-0.14062 -0.671875,0 -1.328125,0.26562 -0.640625,0.26563 -1.25,0.64063 l -0.78125,-1.4375 q 0.765625,-0.48438 1.71875,-0.84375 0.953125,-0.35938 2.046875,-0.35938 1.71875,0 2.5625,1.03125 0.84375,1.01563 0.84375,2.9375 v 5.42188 h -1.765625 l -0.140625,-1 h -0.07813 q -0.625,0.51562 -1.328125,0.875 -0.6875,0.34375 -1.515625,0.34375 z m 0.6875,-1.67188 q 0.5625,0 1.015625,-0.26562 0.46875,-0.26563 0.984375,-0.75 v -2.04688 q -0.9375,0.10938 -1.578125,0.29688 -0.625,0.1875 -1.015625,0.42187 -0.390625,0.23438 -0.5625,0.53125 -0.15625,0.29688 -0.15625,0.64063 0,0.60937 0.359375,0.89062 0.375,0.28125 0.953125,0.28125 z m 6.720383,1.45313 v -9.15625 h 1.78125 l 0.140625,1.25 h 0.07813 q 0.578125,-0.625 1.25,-1.04688 0.6875,-0.4375 1.546875,-0.4375 1,0 1.609375,0.4375 0.609375,0.42188 0.921875,1.20313 0.65625,-0.70313 1.359375,-1.17188 0.71875,-0.46875 1.59375,-0.46875 1.453125,0 2.140625,0.95313 0.703125,0.9375 0.703125,2.6875 v 5.75 h -2.171875 v -5.46875 q 0,-1.14063 -0.34375,-1.59375 -0.34375,-0.46875 -1.0625,-0.46875 -0.84375,0 -1.90625,1.125 v 6.40625 h -2.15625 v -5.46875 q 0,-1.14063 -0.34375,-1.59375 -0.34375,-0.46875 -1.078125,-0.46875 -0.84375,0 -1.921875,1.125 v 6.40625 z m 15.727215,3.625 v -12.78125 h 1.78125 l 0.140625,0.96875 h 0.07813 q 0.578125,-0.48438 1.28125,-0.84375 0.71875,-0.35938 1.484375,-0.35938 0.859375,0 1.515625,0.32813 0.65625,0.32812 1.125,0.95312 0.46875,0.60938 0.703125,1.46875 0.25,0.85938 0.25,1.92188 0,1.17187 -0.328125,2.09375 -0.328125,0.92187 -0.875,1.54687 -0.53125,0.625 -1.25,0.96875 -0.703125,0.32813 -1.46875,0.32813 -0.59375,0 -1.1875,-0.25 -0.59375,-0.26563 -1.15625,-0.75 l 0.04687,1.53125 v 2.875 z m 4,-5.17188 q 0.90625,0 1.515625,-0.79687 0.625,-0.79688 0.625,-2.35938 0,-1.375 -0.46875,-2.14062 -0.46875,-0.76563 -1.515625,-0.76563 -0.96875,0 -2.015625,1.03125 v 4.26563 q 0.515625,0.42187 0.96875,0.59375 0.46875,0.17187 0.890625,0.17187 z m 8.615875,1.76563 q -1.15625,0 -1.625,-0.6875 -0.46875,-0.6875 -0.46875,-1.875 v -10.82813 h 2.140625 v 10.9375 q 0,0.39063 0.15625,0.54688 0.15625,0.15625 0.3125,0.15625 0.07813,0 0.140625,0 0.0625,0 0.203125,-0.0312 l 0.28125,1.59375 q -0.4375,0.1875 -1.140625,0.1875 z m 6.883972,0 q -0.953125,0 -1.78125,-0.3125 -0.8125,-0.32813 -1.4375,-0.9375 -0.609375,-0.625 -0.953125,-1.51563 -0.34375,-0.89062 -0.34375,-2.03125 0,-1.10937 0.34375,-2 0.359375,-0.90625 0.953125,-1.51562 0.59375,-0.625 1.34375,-0.95313 0.765625,-0.34375 1.578125,-0.34375 0.921875,0 1.625,0.32813 0.71875,0.3125 1.1875,0.89062 0.484375,0.57813 0.71875,1.39063 0.25,0.79687 0.25,1.75 0,0.3125 -0.03125,0.59375 -0.01563,0.28125 -0.0625,0.4375 h -5.8125 q 0.140625,1.23437 0.859375,1.90625 0.71875,0.65625 1.84375,0.65625 0.59375,0 1.109375,-0.17188 0.515625,-0.1875 1.015625,-0.5 l 0.71875,1.34375 q -0.640625,0.4375 -1.453125,0.71875 -0.796875,0.26563 -1.671875,0.26563 z m -2.453125,-5.67188 h 4.078125 q 0,-1.0625 -0.46875,-1.65625 -0.453125,-0.60937 -1.40625,-0.60937 -0.8125,0 -1.4375,0.57812 -0.609375,0.57813 -0.765625,1.6875 z m 14.846222,5.67188 q -1.46875,0 -2.4375,-0.48438 -0.96875,-0.48437 -1.59375,-1.1875 l 1.015625,-1.375 q 0.546875,0.53125 1.234375,0.92188 0.6875,0.375 1.59375,0.375 0.96875,0 1.5625,-0.46875 0.609375,-0.48438 0.609375,-1.32813 0,-0.45312 -0.171875,-0.82812 -0.15625,-0.375 -0.5625,-0.64063 -0.40625,-0.26562 -1.078125,-0.39062 -0.65625,-0.14063 -1.671875,-0.14063 v -1.57812 q 0.875,0 1.453125,-0.14063 0.59375,-0.14062 0.953125,-0.39062 0.375,-0.25 0.53125,-0.59375 0.15625,-0.35938 0.15625,-0.78125 0,-0.73438 -0.46875,-1.15625 -0.453125,-0.42188 -1.28125,-0.42188 -0.703125,0 -1.28125,0.3125 -0.5625,0.29688 -1.109375,0.8125 l -1.09375,-1.32812 q 0.765625,-0.67188 1.625,-1.07813 0.875,-0.42187 1.9375,-0.42187 0.859375,0 1.5625,0.21875 0.703125,0.20312 1.203124,0.60937 0.51563,0.39063 0.79688,0.98438 0.28125,0.57812 0.28125,1.32812 0,1 -0.5625,1.67188 -0.54688,0.67187 -1.515629,1.04687 v 0.0781 q 1.062499,0.28125 1.765629,1.03125 0.70312,0.73437 0.70312,1.92187 0,0.8125 -0.32812,1.45313 -0.32813,0.625 -0.90625,1.0625 -0.562504,0.4375 -1.328129,0.67187 -0.75,0.23438 -1.59375,0.23438 z"
         fill-rule="nonzero"
         id="path2416" />
      <path
         fill="#000000"
         d="m 110.04461,183.52109 q -1.1875,-1.92188 -1.82812,-3.96875 -0.64063,-2.0625 -0.64063,-4.54688 0,-2.48437 0.64063,-4.53125 0.64062,-2.04687 1.82812,-3.96875 l 1.34375,0.59375 q -1.07812,1.8125 -1.57812,3.82813 -0.48438,2.01562 -0.48438,4.07812 0,2.07813 0.48438,4.09375 0.5,2.01563 1.57812,3.8125 z m 6.62276,-3.10938 q -1.46875,0 -2.4375,-0.48437 -0.96875,-0.48438 -1.59375,-1.1875 l 1.01562,-1.375 q 0.54688,0.53125 1.23438,0.92187 0.6875,0.375 1.59375,0.375 0.96875,0 1.5625,-0.46875 0.60937,-0.48437 0.60937,-1.32812 0,-0.45313 -0.17187,-0.82813 -0.15625,-0.375 -0.5625,-0.64062 -0.40625,-0.26563 -1.07813,-0.39063 -0.65625,-0.14062 -1.67187,-0.14062 v -1.57813 q 0.875,0 1.45312,-0.14062 0.59375,-0.14063 0.95313,-0.39063 0.375,-0.25 0.53125,-0.59375 0.15625,-0.35937 0.15625,-0.78125 0,-0.73437 -0.46875,-1.15625 -0.45313,-0.42187 -1.28125,-0.42187 -0.70313,0 -1.28125,0.3125 -0.5625,0.29687 -1.10938,0.8125 l -1.09375,-1.32813 q 0.76563,-0.67187 1.625,-1.07812 0.875,-0.42188 1.9375,-0.42188 0.85938,0 1.5625,0.21875 0.70313,0.20313 1.20313,0.60938 0.51562,0.39062 0.79687,0.98437 0.28125,0.57813 0.28125,1.32813 0,1 -0.5625,1.67187 -0.54687,0.67188 -1.51562,1.04688 v 0.0781 q 1.0625,0.28125 1.76562,1.03125 0.70313,0.73438 0.70313,1.92188 0,0.8125 -0.32813,1.45312 -0.32812,0.625 -0.90625,1.0625 -0.5625,0.4375 -1.32812,0.67188 -0.75,0.23437 -1.59375,0.23437 z m 9.86754,0 q -1.875,0 -2.95313,-1.59375 -1.07812,-1.59375 -1.07812,-4.60937 0,-3.03125 1.07812,-4.5625 1.07813,-1.54688 2.95313,-1.54688 1.85938,0 2.9375,1.54688 1.09375,1.54687 1.09375,4.5625 0,3.01562 -1.09375,4.60937 -1.07812,1.59375 -2.9375,1.59375 z m 0,-1.67187 q 0.42187,0 0.78125,-0.23438 0.375,-0.23437 0.625,-0.76562 0.26563,-0.54688 0.40625,-1.40625 0.15625,-0.85938 0.15625,-2.125 0,-1.25 -0.15625,-2.09375 -0.14062,-0.85938 -0.40625,-1.375 -0.25,-0.53125 -0.625,-0.73438 -0.35938,-0.21875 -0.78125,-0.21875 -0.4375,0 -0.79688,0.21875 -0.35937,0.20313 -0.625,0.73438 -0.26562,0.51562 -0.42187,1.375 -0.14063,0.84375 -0.14063,2.09375 0,1.26562 0.14063,2.125 0.15625,0.85937 0.42187,1.40625 0.26563,0.53125 0.625,0.76562 0.35938,0.23438 0.79688,0.23438 z m 9.57067,1.67187 q -1.875,0 -2.95313,-1.59375 -1.07812,-1.59375 -1.07812,-4.60937 0,-3.03125 1.07812,-4.5625 1.07813,-1.54688 2.95313,-1.54688 1.85937,0 2.9375,1.54688 1.09375,1.54687 1.09375,4.5625 0,3.01562 -1.09375,4.60937 -1.07813,1.59375 -2.9375,1.59375 z m 0,-1.67187 q 0.42187,0 0.78125,-0.23438 0.375,-0.23437 0.625,-0.76562 0.26562,-0.54688 0.40625,-1.40625 0.15625,-0.85938 0.15625,-2.125 0,-1.25 -0.15625,-2.09375 -0.14063,-0.85938 -0.40625,-1.375 -0.25,-0.53125 -0.625,-0.73438 -0.35938,-0.21875 -0.78125,-0.21875 -0.4375,0 -0.79688,0.21875 -0.35937,0.20313 -0.625,0.73438 -0.26562,0.51562 -0.42187,1.375 -0.14063,0.84375 -0.14063,2.09375 0,1.26562 0.14063,2.125 0.15625,0.85937 0.42187,1.40625 0.26563,0.53125 0.625,0.76562 0.35938,0.23438 0.79688,0.23438 z m 10.06753,1.45312 v -12.20312 h 2.45313 l 2.15625,5.96875 q 0.20312,0.57812 0.39062,1.1875 0.1875,0.60937 0.39063,1.20312 h 0.0781 q 0.20313,-0.59375 0.375,-1.20312 0.1875,-0.60938 0.39063,-1.1875 l 2.10937,-5.96875 h 2.45313 v 12.20312 h -1.98438 v -5.57812 q 0,-0.42188 0.0156,-0.92188 0.0312,-0.51562 0.0625,-1.03125 0.0469,-0.51562 0.0937,-1 0.0625,-0.5 0.10937,-0.92187 h -0.0781 l -0.98438,2.82812 -2,5.48438 h -1.29687 l -2.01563,-5.48438 -0.96875,-2.82812 h -0.0625 q 0.0312,0.42187 0.0781,0.92187 0.0469,0.48438 0.0937,1 0.0469,0.51563 0.0625,1.03125 0.0312,0.5 0.0312,0.92188 v 5.57812 z m 18.14891,0.21875 q -0.625,0 -1.28125,-0.29687 -0.64062,-0.3125 -1.21875,-0.89063 h -0.0469 l -0.1875,0.96875 h -1.70313 v -13.17187 h 2.14063 v 3.39062 l -0.0469,1.53125 q 0.57813,-0.5 1.25,-0.8125 0.6875,-0.32812 1.39063,-0.32812 0.85937,0 1.53125,0.32812 0.67187,0.32813 1.14062,0.9375 0.46875,0.60938 0.70313,1.46875 0.25,0.85938 0.25,1.92188 0,1.17187 -0.32813,2.09375 -0.32812,0.92187 -0.875,1.5625 -0.53125,0.625 -1.25,0.96875 -0.70312,0.32812 -1.46875,0.32812 z m -0.4375,-1.76562 q 0.90625,0 1.51563,-0.79688 0.625,-0.79687 0.625,-2.35937 0,-1.375 -0.46875,-2.14063 -0.46875,-0.76562 -1.51563,-0.76562 -0.96875,0 -2.01562,1.03125 v 4.26562 q 0.5,0.42188 0.96875,0.59375 0.46875,0.17188 0.89062,0.17188 z m 7.28471,4.875 -1.34375,-0.60938 q 1.0625,-1.79687 1.5625,-3.8125 0.5,-2.01562 0.5,-4.09375 0,-2.0625 -0.5,-4.07812 -0.5,-2.01563 -1.5625,-3.82813 l 1.34375,-0.59375 q 1.1875,1.92188 1.82813,3.96875 0.64062,2.04688 0.64062,4.53125 0,2.48438 -0.64062,4.54688 -0.64063,2.04687 -1.82813,3.96875 z"
         fill-rule="nonzero"
         id="path2418" />
    </g>
    <g
       filter="url(#shadowFilter-p.5)"
       id="g2423">
      <use
         xlink:href="#p.5"
         transform="translate(0,2)"
         id="use2421"
         x="0"
         y="0"
         width="100%"
         height="100%" />
    </g>
    <defs
       id="defs2438">
      <filter
         id="shadowFilter-p.5"
         filterUnits="userSpaceOnUse">
        <feGaussianBlur
           in="SourceAlpha"
           stdDeviation="2.0"
           result="blur"
           id="feGaussianBlur2425" />
        <feComponentTransfer
           in="blur"
           color-interpolation-filters="sRGB"
           id="feComponentTransfer2435">
          <feFuncR
             type="linear"
             slope="0"
             intercept="0.0"
             id="feFuncR2427" />
          <feFuncG
             type="linear"
             slope="0"
             intercept="0.0"
             id="feFuncG2429" />
          <feFuncB
             type="linear"
             slope="0"
             intercept="0.0"
             id="feFuncB2431" />
          <feFuncA
             type="linear"
             slope="0.5"
             intercept="0"
             id="feFuncA2433" />
        </feComponentTransfer>
      </filter>
    </defs>
    <g
       id="p.5">
      <path
         fill="#d9ead3"
         d="m 311.83728,12.944861 v 0 c 0,-2.730971 2.21387,-4.9448614 4.94485,-4.9448614 H 517.9475 c 1.31147,0 2.56922,0.5209751 3.49659,1.4483166 0.9273,0.9273418 1.4483,2.1850868 1.4483,3.4965448 V 196.06302 c 0,2.73097 -2.21387,4.94486 -4.94489,4.94486 H 316.78213 c -2.73098,0 -4.94485,-2.21389 -4.94485,-4.94486 z"
         fill-rule="evenodd"
         id="path2440" />
      <path
         stroke="#000000"
         stroke-width="1"
         stroke-linejoin="round"
         stroke-linecap="butt"
         d="m 311.83728,12.944861 v 0 c 0,-2.730971 2.21387,-4.9448614 4.94485,-4.9448614 H 517.9475 c 1.31147,0 2.56922,0.5209751 3.49659,1.4483166 0.9273,0.9273418 1.4483,2.1850868 1.4483,3.4965448 V 196.06302 c 0,2.73097 -2.21387,4.94486 -4.94489,4.94486 H 316.78213 c -2.73098,0 -4.94485,-2.21389 -4.94485,-4.94486 z"
         fill-rule="evenodd"
         id="path2442" />
      <path
         fill="#000000"
         d="m 345.32285,39.1783 q -1.3125,0 -2.48437,-0.453125 -1.17188,-0.453125 -2.0625,-1.34375 -0.89063,-0.90625 -1.40625,-2.234375 -0.5,-1.34375 -0.5,-3.09375 0,-1.718748 0.53125,-3.062498 0.53125,-1.359375 1.42187,-2.296875 0.90625,-0.953125 2.09375,-1.4375 1.20313,-0.484375 2.51563,-0.484375 1.34375,0 2.40625,0.546875 1.07812,0.53125 1.78125,1.265625 l -1.67188,2 q -0.53125,-0.484375 -1.125,-0.796875 -0.57812,-0.3125 -1.32812,-0.3125 -0.70313,0 -1.32813,0.3125 -0.625,0.3125 -1.09375,0.890625 -0.45312,0.5625 -0.71875,1.40625 -0.26562,0.828125 -0.26562,1.875 0,2.156248 0.90625,3.343748 0.92187,1.171875 2.46875,1.171875 0.84375,0 1.51562,-0.375 0.67188,-0.375 1.1875,-0.921875 l 1.65625,1.953125 q -1.75,2.046875 -4.5,2.046875 z m 10.8974,0 q -1,0 -1.9375,-0.359375 -0.9375,-0.375 -1.65625,-1.078125 -0.70312,-0.703125 -1.14062,-1.734375 -0.42188,-1.046875 -0.42188,-2.375 0,-1.3125 0.42188,-2.343748 0.4375,-1.046875 1.14062,-1.75 0.71875,-0.703125 1.65625,-1.0625 0.9375,-0.375 1.9375,-0.375 1.01563,0 1.9375,0.375 0.92188,0.359375 1.64063,1.0625 0.71875,0.703125 1.14062,1.75 0.42188,1.031248 0.42188,2.343748 0,1.328125 -0.42188,2.375 -0.42187,1.03125 -1.14062,1.734375 -0.71875,0.703125 -1.64063,1.078125 -0.92187,0.359375 -1.9375,0.359375 z m 0,-2.53125 q 0.96875,0 1.45313,-0.8125 0.5,-0.8125 0.5,-2.203125 0,-1.375 -0.5,-2.187498 -0.48438,-0.8125 -1.45313,-0.8125 -0.96875,0 -1.45312,0.8125 -0.48438,0.812498 -0.48438,2.187498 0,1.390625 0.48438,2.203125 0.48437,0.8125 1.45312,0.8125 z m 10.18091,2.53125 q -0.8125,0 -1.375,-0.25 -0.54688,-0.25 -0.875,-0.703125 -0.32813,-0.46875 -0.48438,-1.109375 -0.14062,-0.65625 -0.14062,-1.46875 V 23.975177 h 3.125 V 35.77205 q 0,0.484375 0.1875,0.6875 0.1875,0.1875 0.375,0.1875 0.10937,0 0.17187,0 0.0781,0 0.20313,-0.04687 l 0.39062,2.328125 q -0.25,0.109375 -0.65625,0.171875 -0.39062,0.07813 -0.92187,0.07813 z m 6.09985,0 q -0.8125,0 -1.375,-0.25 -0.54687,-0.25 -0.875,-0.703125 -0.32812,-0.46875 -0.48437,-1.109375 -0.14063,-0.65625 -0.14063,-1.46875 V 23.975177 h 3.125 V 35.77205 q 0,0.484375 0.1875,0.6875 0.1875,0.1875 0.375,0.1875 0.10938,0 0.17188,0 0.0781,0 0.20312,-0.04687 l 0.39063,2.328125 q -0.25,0.109375 -0.65625,0.171875 -0.39063,0.07813 -0.92188,0.07813 z m 7.95926,0 q -1.14062,0 -2.125,-0.359375 -0.96875,-0.375 -1.70312,-1.09375 -0.71875,-0.71875 -1.125,-1.734375 -0.40625,-1.03125 -0.40625,-2.359375 0,-1.265625 0.42187,-2.296873 0.4375,-1.046875 1.125,-1.75 0.6875,-0.71875 1.57813,-1.09375 0.90625,-0.390625 1.875,-0.390625 1.125,0 1.96875,0.390625 0.84375,0.375 1.40625,1.0625 0.5625,0.671875 0.84375,1.609375 0.28125,0.921873 0.28125,1.999998 0,0.4375 -0.0469,0.828125 -0.0469,0.375 -0.0937,0.5625 h -6.32812 q 0.21875,1.15625 0.95312,1.703125 0.73438,0.53125 1.79688,0.53125 1.125,0 2.28125,-0.703125 l 1.04687,1.90625 q -0.8125,0.546875 -1.8125,0.875 -0.98437,0.3125 -1.9375,0.3125 z m -2.34375,-6.6875 h 3.8125 q 0,-0.906248 -0.40625,-1.453123 -0.40625,-0.5625 -1.35937,-0.5625 -0.75,0 -1.3125,0.5 -0.5625,0.484375 -0.73438,1.515623 z m 13.26675,6.6875 q -1.10937,0 -2.0625,-0.359375 -0.95312,-0.375 -1.65625,-1.078125 -0.70312,-0.703125 -1.10937,-1.734375 -0.40625,-1.046875 -0.40625,-2.375 0,-1.3125 0.4375,-2.343748 0.45312,-1.046875 1.20312,-1.75 0.76563,-0.703125 1.76563,-1.0625 1.01562,-0.375 2.09375,-0.375 0.98437,0 1.73437,0.328125 0.76563,0.3125 1.35938,0.796875 l -1.46875,2.03125 q -0.75,-0.625 -1.42188,-0.625 -1.15625,0 -1.82812,0.8125 -0.65625,0.812498 -0.65625,2.187498 0,1.390625 0.67187,2.203125 0.67188,0.8125 1.70313,0.8125 0.51562,0 0.98437,-0.21875 0.48438,-0.234375 0.90625,-0.546875 l 1.23438,2.046875 q -0.78125,0.6875 -1.70313,0.96875 -0.90625,0.28125 -1.78125,0.28125 z m 9.20008,0 q -0.96875,0 -1.67188,-0.296875 -0.6875,-0.296875 -1.125,-0.828125 -0.4375,-0.53125 -0.64062,-1.28125 -0.20313,-0.765625 -0.20313,-1.6875 v -4.281248 h -1.45312 v -2.328125 l 1.625,-0.125 0.35937,-2.8125 h 2.60938 v 2.8125 h 2.53125 v 2.453125 h -2.53125 V 35.0533 q 0,0.890625 0.35937,1.28125 0.375,0.390625 1,0.390625 0.25,0 0.51563,-0.0625 0.28125,-0.0625 0.48437,-0.140625 l 0.5,2.28125 q -0.4375,0.125 -1.01562,0.25 -0.5625,0.125 -1.34375,0.125 z m 4.1062,-0.25 V 28.350177 h 3.125 V 38.9283 Z m 1.54687,-12.140623 q -0.78125,0 -1.29687,-0.453125 -0.51563,-0.453125 -0.51563,-1.1875 0,-0.71875 0.51563,-1.171875 0.51562,-0.453125 1.29687,-0.453125 0.8125,0 1.3125,0.453125 0.5,0.453125 0.5,1.171875 0,0.734375 -0.5,1.1875 -0.5,0.453125 -1.3125,0.453125 z M 415.1074,39.1783 q -1,0 -1.9375,-0.359375 -0.9375,-0.375 -1.65625,-1.078125 -0.70313,-0.703125 -1.14063,-1.734375 -0.42187,-1.046875 -0.42187,-2.375 0,-1.3125 0.42187,-2.343748 0.4375,-1.046875 1.14063,-1.75 0.71875,-0.703125 1.65625,-1.0625 0.9375,-0.375 1.9375,-0.375 1.01562,0 1.9375,0.375 0.92187,0.359375 1.64062,1.0625 0.71875,0.703125 1.14063,1.75 0.42187,1.031248 0.42187,2.343748 0,1.328125 -0.42187,2.375 -0.42188,1.03125 -1.14063,1.734375 -0.71875,0.703125 -1.64062,1.078125 -0.92188,0.359375 -1.9375,0.359375 z m 0,-2.53125 q 0.96875,0 1.45312,-0.8125 0.5,-0.8125 0.5,-2.203125 0,-1.375 -0.5,-2.187498 -0.48437,-0.8125 -1.45312,-0.8125 -0.96875,0 -1.45313,0.8125 -0.48437,0.812498 -0.48437,2.187498 0,1.390625 0.48437,2.203125 0.48438,0.8125 1.45313,0.8125 z m 7.3059,2.28125 V 28.350177 h 2.5625 l 0.20313,1.34375 h 0.0937 q 0.67187,-0.640625 1.48437,-1.109375 0.8125,-0.484375 1.90625,-0.484375 1.71875,0 2.5,1.125 0.78125,1.125 0.78125,3.140623 v 6.5625 h -3.14062 v -6.15625 q 0,-1.156248 -0.3125,-1.578123 -0.29688,-0.4375 -0.98438,-0.4375 -0.59375,0 -1.03125,0.265625 -0.42187,0.265625 -0.9375,0.765625 V 38.9283 Z m 19.41852,3.8125 q -1.34378,-2.1875 -2.07815,-4.546875 -0.73438,-2.375 -0.73438,-5.1875 0,-2.828123 0.73438,-5.187498 0.73437,-2.375 2.07815,-4.5625 l 1.96875,0.8125 q -1.17187,2.078125 -1.70312,4.359375 -0.53125,2.28125 -0.53125,4.578123 0,2.28125 0.53125,4.5625 0.53125,2.28125 1.70312,4.359375 z m 7.04001,-3.5625 q -0.71875,0 -1.3125,-0.25 -0.57813,-0.234375 -0.98438,-0.671875 -0.40625,-0.4375 -0.64062,-1.015625 -0.21875,-0.578125 -0.21875,-1.25 0,-1.671875 1.40625,-2.609375 1.42187,-0.9375 4.54687,-1.25 -0.0469,-0.703123 -0.42187,-1.124998 -0.35938,-0.421875 -1.23438,-0.421875 -0.6875,0 -1.35937,0.265625 -0.67188,0.25 -1.4375,0.703125 l -1.125,-2.078125 q 1.01562,-0.609375 2.125,-0.984375 1.125,-0.390625 2.39062,-0.390625 2.04688,0 3.125,1.15625 1.07813,1.15625 1.07813,3.609373 v 6.0625 h -2.5625 l -0.21875,-1.09375 h -0.0781 q -0.6875,0.609375 -1.4375,0.984375 -0.73437,0.359375 -1.64062,0.359375 z m 1.07812,-2.421875 q 0.53125,0 0.90625,-0.234375 0.39063,-0.234375 0.8125,-0.671875 v -1.84375 q -1.65625,0.234375 -2.29687,0.6875 -0.64063,0.4375 -0.64063,1.0625 0,0.5 0.32813,0.75 0.32812,0.25 0.89062,0.25 z m 14.64624,2.421875 q -0.8125,0 -1.375,-0.25 -0.54687,-0.25 -0.875,-0.703125 -0.32812,-0.46875 -0.48437,-1.109375 -0.14063,-0.65625 -0.14063,-1.46875 V 23.975177 h 3.125 V 35.77205 q 0,0.484375 0.1875,0.6875 0.1875,0.1875 0.375,0.1875 0.10938,0 0.17188,0 0.0781,0 0.20312,-0.04687 l 0.39063,2.328125 q -0.25,0.109375 -0.65625,0.171875 -0.39063,0.07813 -0.92188,0.07813 z m 3.22486,-0.25 V 28.350177 h 3.125 V 38.9283 Z m 1.54687,-12.140623 q -0.78125,0 -1.29687,-0.453125 -0.51563,-0.453125 -0.51563,-1.1875 0,-0.71875 0.51563,-1.171875 0.51562,-0.453125 1.29687,-0.453125 0.8125,0 1.3125,0.453125 0.5,0.453125 0.5,1.171875 0,0.734375 -0.5,1.1875 -0.5,0.453125 -1.3125,0.453125 z m 7.4491,12.390623 q -1.04687,0 -2.14062,-0.390625 -1.09375,-0.40625 -1.90625,-1.078125 l 1.40625,-1.953125 q 0.71875,0.546875 1.375,0.828125 0.67187,0.28125 1.34375,0.28125 0.71875,0 1.03125,-0.234375 0.3125,-0.234375 0.3125,-0.671875 0,-0.25 -0.1875,-0.453125 -0.17188,-0.203125 -0.48438,-0.375 -0.29687,-0.171875 -0.6875,-0.3125 -0.375,-0.140625 -0.78125,-0.3125 -0.5,-0.1875 -1,-0.4375 -0.48437,-0.265625 -0.89062,-0.625 -0.39063,-0.375 -0.65625,-0.875 -0.25,-0.515625 -0.25,-1.171873 0,-0.71875 0.28125,-1.328125 0.29687,-0.625 0.82812,-1.046875 0.53125,-0.4375 1.26563,-0.671875 0.75,-0.25 1.67187,-0.25 1.21875,0 2.125,0.421875 0.92188,0.40625 1.60938,0.921875 l -1.40625,1.875 q -0.57813,-0.4375 -1.14063,-0.671875 -0.54687,-0.234375 -1.09375,-0.234375 -1.20312,0 -1.20312,0.84375 0,0.25 0.17187,0.4375 0.17188,0.171875 0.45313,0.328123 0.29687,0.140625 0.67187,0.28125 0.375,0.140625 0.78125,0.296875 0.5,0.1875 1,0.4375 0.5,0.234375 0.92188,0.609375 0.42187,0.359375 0.67187,0.890625 0.25,0.515625 0.25,1.234375 0,0.71875 -0.28125,1.34375 -0.26562,0.625 -0.82812,1.078125 -0.54688,0.453125 -1.35938,0.71875 -0.8125,0.265625 -1.875,0.265625 z m 9.97485,0 q -0.96875,0 -1.67187,-0.296875 -0.6875,-0.296875 -1.125,-0.828125 -0.4375,-0.53125 -0.64063,-1.28125 -0.20312,-0.765625 -0.20312,-1.6875 v -4.281248 h -1.45313 v -2.328125 l 1.625,-0.125 0.35938,-2.8125 h 2.60937 v 2.8125 h 2.53125 v 2.453125 h -2.53125 V 35.0533 q 0,0.890625 0.35938,1.28125 0.375,0.390625 1,0.390625 0.25,0 0.51562,-0.0625 0.28125,-0.0625 0.48438,-0.140625 l 0.5,2.28125 q -0.4375,0.125 -1.01563,0.25 -0.5625,0.125 -1.34375,0.125 z m 5.69995,3.5625 -1.95312,-0.8125 q 1.1875,-2.078125 1.71875,-4.359375 0.53125,-2.28125 0.53125,-4.5625 0,-2.296873 -0.53125,-4.578123 -0.53125,-2.28125 -1.71875,-4.359375 l 1.95312,-0.8125 q 1.34375,2.1875 2.07813,4.5625 0.73437,2.359375 0.73437,5.187498 0,2.8125 -0.73437,5.1875 -0.73438,2.359375 -2.07813,4.546875 z"
         fill-rule="nonzero"
         id="path2444" />
    </g>
    <g
       filter="url(#shadowFilter-p.6)"
       id="g2449">
      <use
         xlink:href="#p.6"
         transform="translate(0,2)"
         id="use2447"
         x="0"
         y="0"
         width="100%"
         height="100%" />
    </g>
    <defs
       id="defs2464">
      <filter
         id="shadowFilter-p.6"
         filterUnits="userSpaceOnUse">
        <feGaussianBlur
           in="SourceAlpha"
           stdDeviation="2.0"
           result="blur"
           id="feGaussianBlur2451" />
        <feComponentTransfer
           in="blur"
           color-interpolation-filters="sRGB"
           id="feComponentTransfer2461">
          <feFuncR
             type="linear"
             slope="0"
             intercept="0.0"
             id="feFuncR2453" />
          <feFuncG
             type="linear"
             slope="0"
             intercept="0.0"
             id="feFuncG2455" />
          <feFuncB
             type="linear"
             slope="0"
             intercept="0.0"
             id="feFuncB2457" />
          <feFuncA
             type="linear"
             slope="0.5"
             intercept="0"
             id="feFuncA2459" />
        </feComponentTransfer>
      </filter>
    </defs>
    <g
       id="p.6">
      <path
         fill="#93c47d"
         d="m 322.2152,64.92142 v 0 c 0,-2.380276 1.9296,-4.309868 4.30988,-4.309868 h 181.67947 c 1.14306,0 2.23928,0.454075 3.04754,1.262329 0.80826,0.808258 1.26236,1.904488 1.26236,3.047539 v 30.183418 c 0,2.380272 -1.92963,4.30986 -4.3099,4.30986 H 326.52508 v 0 c -2.38028,0 -4.30988,-1.929588 -4.30988,-4.30986 z"
         fill-rule="evenodd"
         id="path2466" />
      <path
         fill="#000000"
         d="m 337.5869,87.15187 q -1.23437,0 -2.39062,-0.453125 -1.14063,-0.46875 -2.01563,-1.328125 l 1.28125,-1.484375 q 0.64063,0.625 1.48438,1.015625 0.84375,0.375 1.6875,0.375 1.03125,0 1.57812,-0.421875 0.54688,-0.4375 0.54688,-1.15625 0,-0.359375 -0.14063,-0.625 -0.14062,-0.265625 -0.39062,-0.453125 -0.25,-0.203125 -0.60938,-0.359375 -0.34375,-0.171875 -0.75,-0.34375 l -1.67187,-0.734375 q -0.45313,-0.1875 -0.89063,-0.46875 -0.4375,-0.28125 -0.79687,-0.671875 -0.35938,-0.390625 -0.57813,-0.90625 -0.20312,-0.53125 -0.20312,-1.203125 0,-0.71875 0.29687,-1.34375 0.3125,-0.625 0.85938,-1.09375 0.54687,-0.46875 1.29687,-0.71875 0.75,-0.265625 1.65625,-0.265625 1.0625,0 2.04688,0.421875 0.98437,0.421875 1.70312,1.125 l -1.10937,1.375 q -0.59375,-0.484375 -1.23438,-0.765625 -0.625,-0.28125 -1.40625,-0.28125 -0.875,0 -1.40625,0.390625 -0.51562,0.375 -0.51562,1.046875 0,0.359375 0.15625,0.609375 0.15625,0.25 0.42187,0.453125 0.28125,0.1875 0.625,0.359375 0.35938,0.15625 0.73438,0.296875 l 1.65625,0.6875 q 0.54687,0.234375 0.98437,0.53125 0.45313,0.296875 0.78125,0.6875 0.32813,0.390625 0.51563,0.90625 0.1875,0.515625 0.1875,1.1875 0,0.734375 -0.29688,1.390625 -0.29687,0.65625 -0.875,1.15625 -0.5625,0.484375 -1.375,0.78125 -0.8125,0.28125 -1.84375,0.28125 z m 8.63641,0 q -1.20312,0 -1.95312,-0.734375 -0.75,-0.734375 -0.75,-1.953125 0,-0.71875 0.3125,-1.28125 0.3125,-0.578125 0.96875,-0.984375 0.65625,-0.421875 1.67187,-0.6875 1.01563,-0.28125 2.4375,-0.4375 -0.0156,-0.359375 -0.10937,-0.671875 -0.0781,-0.328125 -0.28125,-0.578125 -0.1875,-0.265625 -0.5,-0.40625 -0.3125,-0.140625 -0.78125,-0.140625 -0.67188,0 -1.32813,0.265625 -0.64062,0.265625 -1.25,0.640625 l -0.78125,-1.4375 q 0.76563,-0.484375 1.71875,-0.84375 0.95313,-0.359375 2.04688,-0.359375 1.71875,0 2.5625,1.03125 0.84375,1.015625 0.84375,2.9375 v 5.421875 h -1.76563 l -0.14062,-1 h -0.0781 q -0.625,0.515625 -1.32812,0.875 -0.6875,0.34375 -1.51563,0.34375 z m 0.6875,-1.671875 q 0.5625,0 1.01563,-0.265625 0.46875,-0.265625 0.98437,-0.75 v -2.046875 q -0.9375,0.109375 -1.57812,0.296875 -0.625,0.1875 -1.01563,0.421875 -0.39062,0.234375 -0.5625,0.53125 -0.15625,0.296875 -0.15625,0.640625 0,0.609375 0.35938,0.890625 0.375,0.28125 0.95312,0.28125 z m 6.7204,1.453125 v -9.15625 h 1.78125 l 0.14063,1.25 h 0.0781 q 0.57813,-0.625 1.25,-1.046875 0.6875,-0.4375 1.54688,-0.4375 1,0 1.60937,0.4375 0.60938,0.421875 0.92188,1.203125 0.65625,-0.703125 1.35937,-1.171875 0.71875,-0.46875 1.59375,-0.46875 1.45313,0 2.14063,0.953125 0.70312,0.9375 0.70312,2.6875 v 5.75 h -2.17187 v -5.46875 q 0,-1.140625 -0.34375,-1.59375 -0.34375,-0.46875 -1.0625,-0.46875 -0.84375,0 -1.90625,1.125 v 6.40625 h -2.15625 v -5.46875 q 0,-1.140625 -0.34375,-1.59375 -0.34375,-0.46875 -1.07813,-0.46875 -0.84375,0 -1.92187,1.125 v 6.40625 z m 15.7272,3.625 V 77.77687 h 1.78125 l 0.14063,0.96875 h 0.0781 q 0.57813,-0.484375 1.28125,-0.84375 0.71875,-0.359375 1.48438,-0.359375 0.85937,0 1.51562,0.328125 0.65625,0.328125 1.125,0.953125 0.46875,0.609375 0.70313,1.46875 0.25,0.859375 0.25,1.921875 0,1.171875 -0.32813,2.09375 -0.32812,0.921875 -0.875,1.546875 -0.53125,0.625 -1.25,0.96875 -0.70312,0.328125 -1.46875,0.328125 -0.59375,0 -1.1875,-0.25 -0.59375,-0.265625 -1.15625,-0.75 l 0.0469,1.53125 v 2.875 z m 4,-5.171875 q 0.90625,0 1.51563,-0.796875 0.625,-0.796875 0.625,-2.359375 0,-1.375 -0.46875,-2.140625 -0.46875,-0.765625 -1.51563,-0.765625 -0.96875,0 -2.01562,1.03125 v 4.265625 q 0.51562,0.421875 0.96875,0.59375 0.46875,0.171875 0.89062,0.171875 z m 8.61588,1.765625 q -1.15625,0 -1.625,-0.6875 -0.46875,-0.6875 -0.46875,-1.875 V 73.761245 h 2.14062 v 10.9375 q 0,0.390625 0.15625,0.546875 0.15625,0.15625 0.3125,0.15625 0.0781,0 0.14063,0 0.0625,0 0.20312,-0.03125 l 0.28125,1.59375 q -0.4375,0.1875 -1.14062,0.1875 z m 6.88397,0 q -0.95312,0 -1.78125,-0.3125 -0.8125,-0.328125 -1.4375,-0.9375 -0.60937,-0.625 -0.95312,-1.515625 -0.34375,-0.890625 -0.34375,-2.03125 0,-1.109375 0.34375,-2 0.35937,-0.90625 0.95312,-1.515625 0.59375,-0.625 1.34375,-0.953125 0.76563,-0.34375 1.57813,-0.34375 0.92187,0 1.625,0.328125 0.71875,0.3125 1.1875,0.890625 0.48437,0.578125 0.71875,1.390625 0.25,0.796875 0.25,1.75 0,0.3125 -0.0312,0.59375 -0.0156,0.28125 -0.0625,0.4375 h -5.8125 q 0.14062,1.234375 0.85937,1.90625 0.71875,0.65625 1.84375,0.65625 0.59375,0 1.10938,-0.171875 0.51562,-0.1875 1.01562,-0.5 l 0.71875,1.34375 q -0.64062,0.4375 -1.45312,0.71875 -0.79688,0.265625 -1.67188,0.265625 z m -2.45312,-5.671875 h 4.07812 q 0,-1.0625 -0.46875,-1.65625 -0.45312,-0.609375 -1.40625,-0.609375 -0.8125,0 -1.4375,0.578125 -0.60937,0.578125 -0.76562,1.6875 z m 11.73684,5.453125 v -1.75 h 2.65625 v -7.796875 h -2.1875 v -1.34375 q 0.90625,-0.171875 1.54688,-0.40625 0.64062,-0.234375 1.20312,-0.5625 h 1.59375 V 85.18312 h 2.34375 v 1.75 z m 15.83316,3.328125 q -1.1875,-1.921875 -1.82812,-3.96875 -0.64063,-2.0625 -0.64063,-4.546875 0,-2.484375 0.64063,-4.53125 0.64062,-2.046875 1.82812,-3.96875 l 1.34375,0.59375 q -1.07812,1.8125 -1.57812,3.828125 -0.48438,2.015625 -0.48438,4.078125 0,2.078125 0.48438,4.09375 0.5,2.015625 1.57812,3.8125 z m 3.5134,-3.328125 v -1.75 h 2.65625 v -7.796875 h -2.1875 v -1.34375 q 0.90625,-0.171875 1.54688,-0.40625 0.64062,-0.234375 1.20312,-0.5625 h 1.59375 V 85.18312 h 2.34375 v 1.75 z m 12.9769,0.21875 q -1.875,0 -2.95313,-1.59375 -1.07812,-1.59375 -1.07812,-4.609375 0,-3.03125 1.07812,-4.5625 1.07813,-1.546875 2.95313,-1.546875 1.85937,0 2.9375,1.546875 1.09375,1.546875 1.09375,4.5625 0,3.015625 -1.09375,4.609375 -1.07813,1.59375 -2.9375,1.59375 z m 0,-1.671875 q 0.42187,0 0.78125,-0.234375 0.375,-0.234375 0.625,-0.765625 0.26562,-0.546875 0.40625,-1.40625 0.15625,-0.859375 0.15625,-2.125 0,-1.25 -0.15625,-2.09375 -0.14063,-0.859375 -0.40625,-1.375 -0.25,-0.53125 -0.625,-0.734375 -0.35938,-0.21875 -0.78125,-0.21875 -0.4375,0 -0.79688,0.21875 -0.35937,0.203125 -0.625,0.734375 -0.26562,0.515625 -0.42187,1.375 -0.14063,0.84375 -0.14063,2.09375 0,1.265625 0.14063,2.125 0.15625,0.859375 0.42187,1.40625 0.26563,0.53125 0.625,0.765625 0.35938,0.234375 0.79688,0.234375 z m 9.57068,1.671875 q -1.875,0 -2.95313,-1.59375 -1.07812,-1.59375 -1.07812,-4.609375 0,-3.03125 1.07812,-4.5625 1.07813,-1.546875 2.95313,-1.546875 1.85937,0 2.9375,1.546875 1.09375,1.546875 1.09375,4.5625 0,3.015625 -1.09375,4.609375 -1.07813,1.59375 -2.9375,1.59375 z m 0,-1.671875 q 0.42187,0 0.78125,-0.234375 0.375,-0.234375 0.625,-0.765625 0.26562,-0.546875 0.40625,-1.40625 0.15625,-0.859375 0.15625,-2.125 0,-1.25 -0.15625,-2.09375 -0.14063,-0.859375 -0.40625,-1.375 -0.25,-0.53125 -0.625,-0.734375 -0.35938,-0.21875 -0.78125,-0.21875 -0.4375,0 -0.79688,0.21875 -0.35937,0.203125 -0.625,0.734375 -0.26562,0.515625 -0.42187,1.375 -0.14063,0.84375 -0.14063,2.09375 0,1.265625 0.14063,2.125 0.15625,0.859375 0.42187,1.40625 0.26563,0.53125 0.625,0.765625 0.35938,0.234375 0.79688,0.234375 z m 10.06753,1.453125 V 74.729995 h 2.17188 v 5.546875 h 0.0469 l 4.34375,-5.546875 h 2.40625 l -3.75,4.765625 4.39063,7.4375 h -2.39063 l -3.29687,-5.75 -1.75,2.1875 v 3.5625 z m 15.38779,0.21875 q -0.625,0 -1.28125,-0.296875 -0.64062,-0.3125 -1.21875,-0.890625 h -0.0469 l -0.1875,0.96875 h -1.70313 V 73.761245 h 2.14063 v 3.390625 l -0.0469,1.53125 q 0.57813,-0.5 1.25,-0.8125 0.6875,-0.328125 1.39063,-0.328125 0.85937,0 1.53125,0.328125 0.67187,0.328125 1.14062,0.9375 0.46875,0.609375 0.70313,1.46875 0.25,0.859375 0.25,1.921875 0,1.171875 -0.32813,2.09375 -0.32812,0.921875 -0.875,1.5625 -0.53125,0.625 -1.25,0.96875 -0.70312,0.328125 -1.46875,0.328125 z m -0.4375,-1.765625 q 0.90625,0 1.51563,-0.796875 0.625,-0.796875 0.625,-2.359375 0,-1.375 -0.46875,-2.140625 -0.46875,-0.765625 -1.51563,-0.765625 -0.96875,0 -2.01562,1.03125 v 4.265625 q 0.5,0.421875 0.96875,0.59375 0.46875,0.171875 0.89062,0.171875 z m 7.2847,4.875 -1.34375,-0.609375 q 1.0625,-1.796875 1.5625,-3.8125 0.5,-2.015625 0.5,-4.09375 0,-2.0625 -0.5,-4.078125 -0.5,-2.015625 -1.5625,-3.828125 l 1.34375,-0.59375 q 1.1875,1.921875 1.82812,3.96875 0.64063,2.046875 0.64063,4.53125 0,2.484375 -0.64063,4.546875 -0.64062,2.046875 -1.82812,3.96875 z"
         fill-rule="nonzero"
         id="path2468" />
    </g>
    <g
       filter="url(#shadowFilter-p.7)"
       id="g2473">
      <use
         xlink:href="#p.7"
         transform="translate(0,2)"
         id="use2471"
         x="0"
         y="0"
         width="100%"
         height="100%" />
    </g>
    <defs
       id="defs2488">
      <filter
         id="shadowFilter-p.7"
         filterUnits="userSpaceOnUse">
        <feGaussianBlur
           in="SourceAlpha"
           stdDeviation="2.0"
           result="blur"
           id="feGaussianBlur2475" />
        <feComponentTransfer
           in="blur"
           color-interpolation-filters="sRGB"
           id="feComponentTransfer2485">
          <feFuncR
             type="linear"
             slope="0"
             intercept="0.0"
             id="feFuncR2477" />
          <feFuncG
             type="linear"
             slope="0"
             intercept="0.0"
             id="feFuncG2479" />
          <feFuncB
             type="linear"
             slope="0"
             intercept="0.0"
             id="feFuncB2481" />
          <feFuncA
             type="linear"
             slope="0.5"
             intercept="0"
             id="feFuncA2483" />
        </feComponentTransfer>
      </filter>
    </defs>
    <g
       id="p.7">
      <path
         fill="#93c47d"
         d="m 322.2152,158.18126 v 0 c 0,-2.38028 1.9296,-4.30988 4.30988,-4.30988 h 181.67947 c 1.14306,0 2.23928,0.45409 3.04754,1.26235 0.80826,0.80824 1.26236,1.90448 1.26236,3.04753 v 30.18341 c 0,2.38028 -1.92963,4.30988 -4.3099,4.30988 H 326.52508 v 0 c -2.38028,0 -4.30988,-1.9296 -4.30988,-4.30988 z"
         fill-rule="evenodd"
         id="path2490" />
      <path
         fill="#000000"
         d="m 337.5869,180.41171 q -1.23437,0 -2.39062,-0.45313 -1.14063,-0.46875 -2.01563,-1.32812 l 1.28125,-1.48438 q 0.64063,0.625 1.48438,1.01563 0.84375,0.375 1.6875,0.375 1.03125,0 1.57812,-0.42188 0.54688,-0.4375 0.54688,-1.15625 0,-0.35937 -0.14063,-0.625 -0.14062,-0.26562 -0.39062,-0.45312 -0.25,-0.20313 -0.60938,-0.35938 -0.34375,-0.17187 -0.75,-0.34375 l -1.67187,-0.73437 q -0.45313,-0.1875 -0.89063,-0.46875 -0.4375,-0.28125 -0.79687,-0.67188 -0.35938,-0.39062 -0.57813,-0.90625 -0.20312,-0.53125 -0.20312,-1.20312 0,-0.71875 0.29687,-1.34375 0.3125,-0.625 0.85938,-1.09375 0.54687,-0.46875 1.29687,-0.71875 0.75,-0.26563 1.65625,-0.26563 1.0625,0 2.04688,0.42188 0.98437,0.42187 1.70312,1.125 l -1.10937,1.375 q -0.59375,-0.48438 -1.23438,-0.76563 -0.625,-0.28125 -1.40625,-0.28125 -0.875,0 -1.40625,0.39063 -0.51562,0.375 -0.51562,1.04687 0,0.35938 0.15625,0.60938 0.15625,0.25 0.42187,0.45312 0.28125,0.1875 0.625,0.35938 0.35938,0.15625 0.73438,0.29687 l 1.65625,0.6875 q 0.54687,0.23438 0.98437,0.53125 0.45313,0.29688 0.78125,0.6875 0.32813,0.39063 0.51563,0.90625 0.1875,0.51563 0.1875,1.1875 0,0.73438 -0.29688,1.39063 -0.29687,0.65625 -0.875,1.15625 -0.5625,0.48437 -1.375,0.78125 -0.8125,0.28125 -1.84375,0.28125 z m 8.63641,0 q -1.20312,0 -1.95312,-0.73438 -0.75,-0.73437 -0.75,-1.95312 0,-0.71875 0.3125,-1.28125 0.3125,-0.57813 0.96875,-0.98438 0.65625,-0.42187 1.67187,-0.6875 1.01563,-0.28125 2.4375,-0.4375 -0.0156,-0.35937 -0.10937,-0.67187 -0.0781,-0.32813 -0.28125,-0.57813 -0.1875,-0.26562 -0.5,-0.40625 -0.3125,-0.14062 -0.78125,-0.14062 -0.67188,0 -1.32813,0.26562 -0.64062,0.26563 -1.25,0.64063 l -0.78125,-1.4375 q 0.76563,-0.48438 1.71875,-0.84375 0.95313,-0.35938 2.04688,-0.35938 1.71875,0 2.5625,1.03125 0.84375,1.01563 0.84375,2.9375 v 5.42188 h -1.76563 l -0.14062,-1 h -0.0781 q -0.625,0.51562 -1.32812,0.875 -0.6875,0.34375 -1.51563,0.34375 z m 0.6875,-1.67188 q 0.5625,0 1.01563,-0.26562 0.46875,-0.26563 0.98437,-0.75 v -2.04688 q -0.9375,0.10938 -1.57812,0.29688 -0.625,0.1875 -1.01563,0.42187 -0.39062,0.23438 -0.5625,0.53125 -0.15625,0.29688 -0.15625,0.64063 0,0.60937 0.35938,0.89062 0.375,0.28125 0.95312,0.28125 z m 6.7204,1.45313 v -9.15625 h 1.78125 l 0.14063,1.25 h 0.0781 q 0.57813,-0.625 1.25,-1.04688 0.6875,-0.4375 1.54688,-0.4375 1,0 1.60937,0.4375 0.60938,0.42188 0.92188,1.20313 0.65625,-0.70313 1.35937,-1.17188 0.71875,-0.46875 1.59375,-0.46875 1.45313,0 2.14063,0.95313 0.70312,0.9375 0.70312,2.6875 v 5.75 h -2.17187 v -5.46875 q 0,-1.14063 -0.34375,-1.59375 -0.34375,-0.46875 -1.0625,-0.46875 -0.84375,0 -1.90625,1.125 v 6.40625 h -2.15625 v -5.46875 q 0,-1.14063 -0.34375,-1.59375 -0.34375,-0.46875 -1.07813,-0.46875 -0.84375,0 -1.92187,1.125 v 6.40625 z m 15.7272,3.625 v -12.78125 h 1.78125 l 0.14063,0.96875 h 0.0781 q 0.57813,-0.48438 1.28125,-0.84375 0.71875,-0.35938 1.48438,-0.35938 0.85937,0 1.51562,0.32813 0.65625,0.32812 1.125,0.95312 0.46875,0.60938 0.70313,1.46875 0.25,0.85938 0.25,1.92188 0,1.17187 -0.32813,2.09375 -0.32812,0.92187 -0.875,1.54687 -0.53125,0.625 -1.25,0.96875 -0.70312,0.32813 -1.46875,0.32813 -0.59375,0 -1.1875,-0.25 -0.59375,-0.26563 -1.15625,-0.75 l 0.0469,1.53125 v 2.875 z m 4,-5.17188 q 0.90625,0 1.51563,-0.79687 0.625,-0.79688 0.625,-2.35938 0,-1.375 -0.46875,-2.14062 -0.46875,-0.76563 -1.51563,-0.76563 -0.96875,0 -2.01562,1.03125 v 4.26563 q 0.51562,0.42187 0.96875,0.59375 0.46875,0.17187 0.89062,0.17187 z m 8.61588,1.76563 q -1.15625,0 -1.625,-0.6875 -0.46875,-0.6875 -0.46875,-1.875 v -10.82813 h 2.14062 v 10.9375 q 0,0.39063 0.15625,0.54688 0.15625,0.15625 0.3125,0.15625 0.0781,0 0.14063,0 0.0625,0 0.20312,-0.0312 l 0.28125,1.59375 q -0.4375,0.1875 -1.14062,0.1875 z m 6.88397,0 q -0.95312,0 -1.78125,-0.3125 -0.8125,-0.32813 -1.4375,-0.9375 -0.60937,-0.625 -0.95312,-1.51563 -0.34375,-0.89062 -0.34375,-2.03125 0,-1.10937 0.34375,-2 0.35937,-0.90625 0.95312,-1.51562 0.59375,-0.625 1.34375,-0.95313 0.76563,-0.34375 1.57813,-0.34375 0.92187,0 1.625,0.32813 0.71875,0.3125 1.1875,0.89062 0.48437,0.57813 0.71875,1.39063 0.25,0.79687 0.25,1.75 0,0.3125 -0.0312,0.59375 -0.0156,0.28125 -0.0625,0.4375 h -5.8125 q 0.14062,1.23437 0.85937,1.90625 0.71875,0.65625 1.84375,0.65625 0.59375,0 1.10938,-0.17188 0.51562,-0.1875 1.01562,-0.5 l 0.71875,1.34375 q -0.64062,0.4375 -1.45312,0.71875 -0.79688,0.26563 -1.67188,0.26563 z m -2.45312,-5.67188 h 4.07812 q 0,-1.0625 -0.46875,-1.65625 -0.45312,-0.60937 -1.40625,-0.60937 -0.8125,0 -1.4375,0.57812 -0.60937,0.57813 -0.76562,1.6875 z m 14.84622,5.67188 q -1.46875,0 -2.4375,-0.48438 -0.96875,-0.48437 -1.59375,-1.1875 l 1.01562,-1.375 q 0.54688,0.53125 1.23438,0.92188 0.6875,0.375 1.59375,0.375 0.96875,0 1.5625,-0.46875 0.60937,-0.48438 0.60937,-1.32813 0,-0.45312 -0.17187,-0.82812 -0.15625,-0.375 -0.5625,-0.64063 -0.40625,-0.26562 -1.07813,-0.39062 -0.65625,-0.14063 -1.67187,-0.14063 v -1.57812 q 0.875,0 1.45312,-0.14063 0.59375,-0.14062 0.95313,-0.39062 0.375,-0.25 0.53125,-0.59375 0.15625,-0.35938 0.15625,-0.78125 0,-0.73438 -0.46875,-1.15625 -0.45313,-0.42188 -1.28125,-0.42188 -0.70313,0 -1.28125,0.3125 -0.5625,0.29688 -1.10938,0.8125 l -1.09375,-1.32812 q 0.76563,-0.67188 1.625,-1.07813 0.875,-0.42187 1.9375,-0.42187 0.85938,0 1.5625,0.21875 0.70313,0.20312 1.20313,0.60937 0.51562,0.39063 0.79687,0.98438 0.28125,0.57812 0.28125,1.32812 0,1 -0.5625,1.67188 -0.54687,0.67187 -1.51562,1.04687 v 0.0781 q 1.0625,0.28125 1.76562,1.03125 0.70313,0.73437 0.70313,1.92187 0,0.8125 -0.32813,1.45313 -0.32812,0.625 -0.90625,1.0625 -0.5625,0.4375 -1.32812,0.67187 -0.75,0.23438 -1.59375,0.23438 z"
         fill-rule="nonzero"
         id="path2492" />
      <path
         fill="#000000"
         d="m 413.8819,183.52109 q -1.1875,-1.92188 -1.82813,-3.96875 -0.64062,-2.0625 -0.64062,-4.54688 0,-2.48437 0.64062,-4.53125 0.64063,-2.04687 1.82813,-3.96875 l 1.34375,0.59375 q -1.07813,1.8125 -1.57813,3.82813 -0.48437,2.01562 -0.48437,4.07812 0,2.07813 0.48437,4.09375 0.5,2.01563 1.57813,3.8125 z m 6.62274,-3.10938 q -1.46875,0 -2.4375,-0.48437 -0.96875,-0.48438 -1.59375,-1.1875 l 1.01563,-1.375 q 0.54687,0.53125 1.23437,0.92187 0.6875,0.375 1.59375,0.375 0.96875,0 1.5625,-0.46875 0.60938,-0.48437 0.60938,-1.32812 0,-0.45313 -0.17188,-0.82813 -0.15625,-0.375 -0.5625,-0.64062 -0.40625,-0.26563 -1.07812,-0.39063 -0.65625,-0.14062 -1.67188,-0.14062 v -1.57813 q 0.875,0 1.45313,-0.14062 0.59375,-0.14063 0.95312,-0.39063 0.375,-0.25 0.53125,-0.59375 0.15625,-0.35937 0.15625,-0.78125 0,-0.73437 -0.46875,-1.15625 -0.45312,-0.42187 -1.28125,-0.42187 -0.70312,0 -1.28125,0.3125 -0.5625,0.29687 -1.10937,0.8125 l -1.09375,-1.32813 q 0.76562,-0.67187 1.625,-1.07812 0.875,-0.42188 1.9375,-0.42188 0.85937,0 1.5625,0.21875 0.70312,0.20313 1.20312,0.60938 0.51563,0.39062 0.79688,0.98437 0.28125,0.57813 0.28125,1.32813 0,1 -0.5625,1.67187 -0.54688,0.67188 -1.51563,1.04688 v 0.0781 q 1.0625,0.28125 1.76563,1.03125 0.70312,0.73438 0.70312,1.92188 0,0.8125 -0.32812,1.45312 -0.32813,0.625 -0.90625,1.0625 -0.5625,0.4375 -1.32813,0.67188 -0.75,0.23437 -1.59375,0.23437 z m 9.86756,0 q -1.875,0 -2.95313,-1.59375 -1.07812,-1.59375 -1.07812,-4.60937 0,-3.03125 1.07812,-4.5625 1.07813,-1.54688 2.95313,-1.54688 1.85937,0 2.9375,1.54688 1.09375,1.54687 1.09375,4.5625 0,3.01562 -1.09375,4.60937 -1.07813,1.59375 -2.9375,1.59375 z m 0,-1.67187 q 0.42187,0 0.78125,-0.23438 0.375,-0.23437 0.625,-0.76562 0.26562,-0.54688 0.40625,-1.40625 0.15625,-0.85938 0.15625,-2.125 0,-1.25 -0.15625,-2.09375 -0.14063,-0.85938 -0.40625,-1.375 -0.25,-0.53125 -0.625,-0.73438 -0.35938,-0.21875 -0.78125,-0.21875 -0.4375,0 -0.79688,0.21875 -0.35937,0.20313 -0.625,0.73438 -0.26562,0.51562 -0.42187,1.375 -0.14063,0.84375 -0.14063,2.09375 0,1.26562 0.14063,2.125 0.15625,0.85937 0.42187,1.40625 0.26563,0.53125 0.625,0.76562 0.35938,0.23438 0.79688,0.23438 z m 9.57064,1.67187 q -1.875,0 -2.95312,-1.59375 -1.07813,-1.59375 -1.07813,-4.60937 0,-3.03125 1.07813,-4.5625 1.07812,-1.54688 2.95312,-1.54688 1.85938,0 2.9375,1.54688 1.09375,1.54687 1.09375,4.5625 0,3.01562 -1.09375,4.60937 -1.07812,1.59375 -2.9375,1.59375 z m 0,-1.67187 q 0.42188,0 0.78125,-0.23438 0.375,-0.23437 0.625,-0.76562 0.26563,-0.54688 0.40625,-1.40625 0.15625,-0.85938 0.15625,-2.125 0,-1.25 -0.15625,-2.09375 -0.14062,-0.85938 -0.40625,-1.375 -0.25,-0.53125 -0.625,-0.73438 -0.35937,-0.21875 -0.78125,-0.21875 -0.4375,0 -0.79687,0.21875 -0.35938,0.20313 -0.625,0.73438 -0.26563,0.51562 -0.42188,1.375 -0.14062,0.84375 -0.14062,2.09375 0,1.26562 0.14062,2.125 0.15625,0.85937 0.42188,1.40625 0.26562,0.53125 0.625,0.76562 0.35937,0.23438 0.79687,0.23438 z m 10.06754,1.45312 v -12.20312 h 2.45312 l 2.15625,5.96875 q 0.20313,0.57812 0.39063,1.1875 0.1875,0.60937 0.39062,1.20312 h 0.0781 q 0.20312,-0.59375 0.375,-1.20312 0.1875,-0.60938 0.39062,-1.1875 l 2.10938,-5.96875 h 2.45312 v 12.20312 h -1.98437 v -5.57812 q 0,-0.42188 0.0156,-0.92188 0.0312,-0.51562 0.0625,-1.03125 0.0469,-0.51562 0.0937,-1 0.0625,-0.5 0.10938,-0.92187 h -0.0781 l -0.98437,2.82812 -2,5.48438 h -1.29688 l -2.01562,-5.48438 -0.96875,-2.82812 h -0.0625 q 0.0312,0.42187 0.0781,0.92187 0.0469,0.48438 0.0937,1 0.0469,0.51563 0.0625,1.03125 0.0312,0.5 0.0312,0.92188 v 5.57812 z m 18.14892,0.21875 q -0.625,0 -1.28125,-0.29687 -0.64062,-0.3125 -1.21875,-0.89063 h -0.0469 l -0.1875,0.96875 h -1.70313 v -13.17187 h 2.14063 v 3.39062 l -0.0469,1.53125 q 0.57813,-0.5 1.25,-0.8125 0.6875,-0.32812 1.39063,-0.32812 0.85937,0 1.53125,0.32812 0.67187,0.32813 1.14062,0.9375 0.46875,0.60938 0.70313,1.46875 0.25,0.85938 0.25,1.92188 0,1.17187 -0.32813,2.09375 -0.32812,0.92187 -0.875,1.5625 -0.53125,0.625 -1.25,0.96875 -0.70312,0.32812 -1.46875,0.32812 z m -0.4375,-1.76562 q 0.90625,0 1.51563,-0.79688 0.625,-0.79687 0.625,-2.35937 0,-1.375 -0.46875,-2.14063 -0.46875,-0.76562 -1.51563,-0.76562 -0.96875,0 -2.01562,1.03125 v 4.26562 q 0.5,0.42188 0.96875,0.59375 0.46875,0.17188 0.89062,0.17188 z m 7.2847,4.875 -1.34375,-0.60938 q 1.0625,-1.79687 1.5625,-3.8125 0.5,-2.01562 0.5,-4.09375 0,-2.0625 -0.5,-4.07812 -0.5,-2.01563 -1.5625,-3.82813 l 1.34375,-0.59375 q 1.1875,1.92188 1.82813,3.96875 0.64062,2.04688 0.64062,4.53125 0,2.48438 -0.64062,4.54688 -0.64063,2.04687 -1.82813,3.96875 z"
         fill-rule="nonzero"
         id="path2494" />
    </g>
    <path
       fill="#000000"
       fill-opacity="0"
       d="m 219.05511,104.50394 h 92.78742"
       fill-rule="evenodd"
       id="path2497" />
    <path
       stroke="#000000"
       stroke-width="4"
       stroke-linejoin="round"
       stroke-linecap="butt"
       d="m 219.05511,104.50394 h 68.78742"
       fill-rule="evenodd"
       id="path2499" />
    <path
       fill="#000000"
       stroke="#000000"
       stroke-width="4"
       stroke-linecap="butt"
       d="m 287.84253,111.11087 18.15237,-6.60693 -18.15237,-6.60693 z"
       fill-rule="evenodd"
       id="path2501" />
  </g>
</svg>
