<?xml version="1.0" encoding="UTF-8" standalone="no"?>
<svg
   version="1.1"
   viewBox="0 0 530 330"
   fill="none"
   stroke="none"
   stroke-linecap="square"
   stroke-miterlimit="10"
   id="svg347"
   sodipodi:docname="flatten.svg"
   width="530"
   height="330"
   inkscape:version="1.1 (c4e8f9e, 2021-05-24)"
   xmlns:inkscape="http://www.inkscape.org/namespaces/inkscape"
   xmlns:sodipodi="http://sodipodi.sourceforge.net/DTD/sodipodi-0.dtd"
   xmlns:xlink="http://www.w3.org/1999/xlink"
   xmlns="http://www.w3.org/2000/svg"
   xmlns:svg="http://www.w3.org/2000/svg">
  <defs
     id="defs351" />
  <sodipodi:namedview
     id="namedview349"
     pagecolor="#ffffff"
     bordercolor="#666666"
     borderopacity="1.0"
     inkscape:pageshadow="2"
     inkscape:pageopacity="0.0"
     inkscape:pagecheckerboard="0"
     showgrid="false"
     fit-margin-right="-430"
     fit-margin-top="0"
     fit-margin-left="0"
     fit-margin-bottom="-270"
     inkscape:zoom="1.02"
     inkscape:cx="479.90196"
     inkscape:cy="300"
     inkscape:window-width="1296"
     inkscape:window-height="792"
     inkscape:window-x="0"
     inkscape:window-y="25"
     inkscape:window-maximized="0"
     inkscape:current-layer="svg347" />
  <clipPath
     id="p.0">
    <path
       d="M 0,0 H 960 V 600 H 0 Z"
       clip-rule="nonzero"
       id="path2" />
  </clipPath>
  <g
     clip-path="url(#p.0)"
     id="g345">
    <path
       fill="#000000"
       fill-opacity="0"
       d="M 0,0 H 960 V 600 H 0 Z"
       fill-rule="evenodd"
       id="path5" />
    <g
       filter="url(#shadowFilter-p.1)"
       id="g9">
      <use
         xlink:href="#p.1"
         transform="translate(0,2)"
         id="use7"
         x="0"
         y="0"
         width="100%"
         height="100%" />
    </g>
    <defs
       id="defs24">
      <filter
         id="shadowFilter-p.1"
         filterUnits="userSpaceOnUse">
        <feGaussianBlur
           in="SourceAlpha"
           stdDeviation="2.0"
           result="blur"
           id="feGaussianBlur11" />
        <feComponentTransfer
           in="blur"
           color-interpolation-filters="sRGB"
           id="feComponentTransfer21">
          <feFuncR
             type="linear"
             slope="0"
             intercept="0.0"
             id="feFuncR13" />
          <feFuncG
             type="linear"
             slope="0"
             intercept="0.0"
             id="feFuncG15" />
          <feFuncB
             type="linear"
             slope="0"
             intercept="0.0"
             id="feFuncB17" />
          <feFuncA
             type="linear"
             slope="0.5"
             intercept="0"
             id="feFuncA19" />
        </feComponentTransfer>
      </filter>
    </defs>
    <g
       id="p.1">
      <path
         fill="#d9ead3"
         d="m 8,13.407232 v 0 C 8,10.4209 10.4209,7.9999997 13.407232,7.9999997 H 213.64789 c 1.43408,0 2.80944,0.5696888 3.82349,1.5837412 1.01405,1.0140531 1.58374,2.3894031 1.58374,3.8234911 V 319.69513 c 0,2.98633 -2.4209,5.40723 -5.40723,5.40723 H 13.407232 c -2.986332,0 -5.4072321,-2.4209 -5.4072321,-5.40723 z"
         fill-rule="evenodd"
         id="path26" />
      <path
         stroke="#000000"
         stroke-width="1"
         stroke-linejoin="round"
         stroke-linecap="butt"
         d="m 8,13.407232 v 0 C 8,10.4209 10.4209,7.9999997 13.407232,7.9999997 H 213.64789 c 1.43408,0 2.80944,0.5696888 3.82349,1.5837412 1.01405,1.0140531 1.58374,2.3894031 1.58374,3.8234911 V 319.69513 c 0,2.98633 -2.4209,5.40723 -5.40723,5.40723 H 13.407232 c -2.986332,0 -5.4072321,-2.4209 -5.4072321,-5.40723 z"
         fill-rule="evenodd"
         id="path28" />
      <path
         fill="#000000"
         d="m 65.64424,34.063725 v -13.90625 h 4.78125 q 1.15625,0 2.15625,0.234375 1,0.21875 1.734375,0.75 0.75,0.515625 1.1875,1.375 0.4375,0.859375 0.4375,2.125 0,1.203125 -0.4375,2.109375 -0.4375,0.890625 -1.1875,1.46875 -0.734375,0.578125 -1.71875,0.859375 -0.984375,0.265625 -2.09375,0.265625 h -1.71875 v 4.71875 z M 68.784865,26.8606 h 1.53125 q 2.5625,0 2.5625,-2.21875 0,-1.09375 -0.6875,-1.53125 -0.6875,-0.453125 -1.953125,-0.453125 h -1.453125 z m 11.251907,7.453125 q -0.71875,0 -1.3125,-0.25 -0.578125,-0.234375 -0.984375,-0.671875 -0.40625,-0.4375 -0.640625,-1.015625 -0.21875,-0.578125 -0.21875,-1.25 0,-1.671875 1.40625,-2.609375 1.421875,-0.9375 4.546875,-1.25 -0.04687,-0.703125 -0.421875,-1.125 -0.359375,-0.421875 -1.234375,-0.421875 -0.6875,0 -1.359375,0.265625 -0.671875,0.25 -1.4375,0.703125 l -1.125,-2.078125 q 1.015625,-0.609375 2.125,-0.984375 1.125,-0.390625 2.390625,-0.390625 2.046875,0 3.125,1.15625 1.078125,1.15625 1.078125,3.609375 v 6.0625 h -2.5625 l -0.21875,-1.09375 h -0.07813 q -0.6875,0.609375 -1.4375,0.984375 -0.734375,0.359375 -1.640625,0.359375 z m 1.078125,-2.421875 q 0.53125,0 0.90625,-0.234375 0.390625,-0.234375 0.8125,-0.671875 v -1.84375 q -1.65625,0.234375 -2.296875,0.6875 -0.640625,0.4375 -0.640625,1.0625 0,0.5 0.328125,0.75 0.328125,0.25 0.890625,0.25 z m 7.505585,2.171875 V 23.4856 h 3.125 V 34.063725 Z M 90.167357,21.9231 q -0.78125,0 -1.296875,-0.453125 -0.515625,-0.453125 -0.515625,-1.1875 0,-0.71875 0.515625,-1.171875 0.515625,-0.453125 1.296875,-0.453125 0.8125,0 1.3125,0.453125 0.5,0.453125 0.5,1.171875 0,0.734375 -0.5,1.1875 -0.5,0.453125 -1.3125,0.453125 z m 4.339706,12.140625 V 23.4856 h 2.5625 l 0.203125,1.859375 h 0.09375 q 0.5625,-1.09375 1.375,-1.59375 0.8125,-0.515625 1.625002,-0.515625 0.45312,0 0.73437,0.04687 0.29688,0.04687 0.53125,0.15625 l -0.51562,2.71875 q -0.29688,-0.09375 -0.5625,-0.125 -0.25,-0.04687 -0.593752,-0.04687 -0.59375,0 -1.25,0.421875 -0.640625,0.421875 -1.078125,1.515625 v 6.140625 z m 13.009677,0.25 q -1.14063,0 -2.125,-0.359375 -0.96875,-0.375 -1.70313,-1.09375 -0.71875,-0.71875 -1.125,-1.734375 -0.40625,-1.03125 -0.40625,-2.359375 0,-1.265625 0.42188,-2.296875 0.4375,-1.046875 1.125,-1.75 0.6875,-0.71875 1.57812,-1.09375 0.90625,-0.390625 1.875,-0.390625 1.125,0 1.96875,0.390625 0.84375,0.375 1.40625,1.0625 0.5625,0.671875 0.84375,1.609375 0.28125,0.921875 0.28125,2 0,0.4375 -0.0469,0.828125 -0.0469,0.375 -0.0937,0.5625 h -6.32813 q 0.21875,1.15625 0.95313,1.703125 0.73437,0.53125 1.79687,0.53125 1.125,0 2.28125,-0.703125 l 1.04688,1.90625 q -0.8125,0.546875 -1.8125,0.875 -0.98438,0.3125 -1.9375,0.3125 z m -2.34375,-6.6875 h 3.8125 q 0,-0.90625 -0.40625,-1.453125 -0.40625,-0.5625 -1.35938,-0.5625 -0.75,0 -1.3125,0.5 -0.5625,0.484375 -0.73437,1.515625 z m 12.42302,6.6875 q -0.96875,0 -1.78125,-0.375 -0.79688,-0.390625 -1.35938,-1.09375 -0.5625,-0.71875 -0.875,-1.734375 -0.3125,-1.03125 -0.3125,-2.34375 0,-1.296875 0.375,-2.3125 0.375,-1.03125 0.98438,-1.734375 0.60937,-0.71875 1.40625,-1.09375 0.79687,-0.390625 1.625,-0.390625 0.90625,0 1.46875,0.296875 0.57812,0.296875 1.14062,0.8125 l -0.125,-1.625 V 19.1106 h 3.125 v 14.953125 h -2.54687 l -0.21875,-1.046875 h -0.0781 q -0.5625,0.5625 -1.3125,0.9375 -0.75,0.359375 -1.51562,0.359375 z m 0.8125,-2.546875 q 0.51562,0 0.92187,-0.21875 0.42188,-0.21875 0.8125,-0.75 v -4.328125 q -0.4375,-0.390625 -0.89062,-0.53125 -0.4375,-0.15625 -0.85938,-0.15625 -0.75,0 -1.32812,0.71875 -0.57813,0.71875 -0.57813,2.234375 0,1.578125 0.5,2.3125 0.51563,0.71875 1.42188,0.71875 z m 12.15858,2.296875 v -13.90625 h 3.14063 V 31.4231 h 5.5 v 2.640625 z m 10.79802,0 V 23.4856 h 3.125 V 34.063725 Z M 142.91199,21.9231 q -0.78125,0 -1.29688,-0.453125 -0.51562,-0.453125 -0.51562,-1.1875 0,-0.71875 0.51562,-1.171875 0.51563,-0.453125 1.29688,-0.453125 0.8125,0 1.3125,0.453125 0.5,0.453125 0.5,1.171875 0,0.734375 -0.5,1.1875 -0.5,0.453125 -1.3125,0.453125 z m 7.44908,12.390625 q -1.04688,0 -2.14063,-0.390625 -1.09375,-0.40625 -1.90625,-1.078125 l 1.40625,-1.953125 q 0.71875,0.546875 1.375,0.828125 0.67188,0.28125 1.34375,0.28125 0.71875,0 1.03125,-0.234375 0.3125,-0.234375 0.3125,-0.671875 0,-0.25 -0.1875,-0.453125 -0.17187,-0.203125 -0.48437,-0.375 -0.29688,-0.171875 -0.6875,-0.3125 -0.375,-0.140625 -0.78125,-0.3125 -0.5,-0.1875 -1,-0.4375 -0.48438,-0.265625 -0.89063,-0.625 -0.39062,-0.375 -0.65625,-0.875 -0.25,-0.515625 -0.25,-1.171875 0,-0.71875 0.28125,-1.328125 0.29688,-0.625 0.82813,-1.046875 0.53125,-0.4375 1.26562,-0.671875 0.75,-0.25 1.67188,-0.25 1.21875,0 2.125,0.421875 0.92187,0.40625 1.60937,0.921875 l -1.40625,1.875 q -0.57812,-0.4375 -1.14062,-0.671875 -0.54688,-0.234375 -1.09375,-0.234375 -1.20313,0 -1.20313,0.84375 0,0.25 0.17188,0.4375 0.17187,0.171875 0.45312,0.328125 0.29688,0.140625 0.67188,0.28125 0.375,0.140625 0.78125,0.296875 0.5,0.1875 1,0.4375 0.5,0.234375 0.92187,0.609375 0.42188,0.359375 0.67188,0.890625 0.25,0.515625 0.25,1.234375 0,0.71875 -0.28125,1.34375 -0.26563,0.625 -0.82813,1.078125 -0.54687,0.453125 -1.35937,0.71875 -0.8125,0.265625 -1.875,0.265625 z m 9.97485,0 q -0.96875,0 -1.67187,-0.296875 -0.6875,-0.296875 -1.125,-0.828125 -0.4375,-0.53125 -0.64063,-1.28125 -0.20312,-0.765625 -0.20312,-1.6875 v -4.28125 h -1.45313 V 23.6106 l 1.625,-0.125 0.35938,-2.8125 h 2.60937 v 2.8125 h 2.53125 v 2.453125 h -2.53125 v 4.25 q 0,0.890625 0.35938,1.28125 0.375,0.390625 1,0.390625 0.25,0 0.51562,-0.0625 0.28125,-0.0625 0.48438,-0.140625 l 0.5,2.28125 q -0.4375,0.125 -1.01563,0.25 -0.5625,0.125 -1.34375,0.125 z"
         fill-rule="nonzero"
         id="path30" />
      <path
         fill="#000000"
         d="m 73.296524,60.313725 q -1.3125,0 -2.484375,-0.453125 -1.171875,-0.453125 -2.0625,-1.34375 -0.890625,-0.90625 -1.40625,-2.234375 -0.5,-1.34375 -0.5,-3.09375 0,-1.71875 0.53125,-3.0625 0.53125,-1.359375 1.421875,-2.296875 0.90625,-0.953125 2.09375,-1.4375 1.203125,-0.484375 2.515625,-0.484375 1.34375,0 2.40625,0.546875 1.078125,0.53125 1.78125,1.265625 l -1.671875,2 q -0.53125,-0.484375 -1.125,-0.796875 -0.578125,-0.3125 -1.328125,-0.3125 -0.703125,0 -1.328125,0.3125 -0.625,0.3125 -1.09375,0.890625 -0.453125,0.5625 -0.71875,1.40625 -0.265625,0.828125 -0.265625,1.875 0,2.15625 0.90625,3.34375 0.921875,1.171875 2.46875,1.171875 0.84375,0 1.515625,-0.375 0.671875,-0.375 1.1875,-0.921875 l 1.65625,1.953125 q -1.75,2.046875 -4.5,2.046875 z m 10.8974,0 q -1,0 -1.9375,-0.359375 -0.9375,-0.375 -1.65625,-1.078125 -0.703125,-0.703125 -1.140625,-1.734375 -0.421875,-1.046875 -0.421875,-2.375 0,-1.3125 0.421875,-2.34375 0.4375,-1.046875 1.140625,-1.75 0.71875,-0.703125 1.65625,-1.0625 0.9375,-0.375 1.9375,-0.375 1.015625,0 1.9375,0.375 0.921875,0.359375 1.640625,1.0625 0.71875,0.703125 1.140625,1.75 0.421875,1.03125 0.421875,2.34375 0,1.328125 -0.421875,2.375 -0.421875,1.03125 -1.140625,1.734375 -0.71875,0.703125 -1.640625,1.078125 -0.921875,0.359375 -1.9375,0.359375 z m 0,-2.53125 q 0.96875,0 1.453125,-0.8125 0.5,-0.8125 0.5,-2.203125 0,-1.375 -0.5,-2.1875 -0.484375,-0.8125 -1.453125,-0.8125 -0.96875,0 -1.453125,0.8125 -0.484375,0.8125 -0.484375,2.1875 0,1.390625 0.484375,2.203125 0.484375,0.8125 1.453125,0.8125 z m 10.180908,2.53125 q -0.8125,0 -1.375,-0.25 -0.546875,-0.25 -0.875,-0.703125 -0.328125,-0.46875 -0.484375,-1.109375 -0.140625,-0.65625 -0.140625,-1.46875 V 45.1106 h 3.125 v 11.796875 q 0,0.484375 0.1875,0.6875 0.1875,0.1875 0.375,0.1875 0.109375,0 0.171875,0 0.07813,0 0.203125,-0.04687 l 0.390625,2.328125 q -0.25,0.109375 -0.65625,0.171875 -0.390625,0.07813 -0.921875,0.07813 z m 6.099868,0 q -0.812499,0 -1.374999,-0.25 -0.546875,-0.25 -0.875,-0.703125 -0.328125,-0.46875 -0.484375,-1.109375 -0.140625,-0.65625 -0.140625,-1.46875 V 45.1106 h 3.124999 v 11.796875 q 0,0.484375 0.1875,0.6875 0.1875,0.1875 0.375,0.1875 0.10938,0 0.17188,0 0.0781,0 0.20312,-0.04687 l 0.39063,2.328125 q -0.25,0.109375 -0.65625,0.171875 -0.39063,0.07813 -0.92188,0.07813 z m 7.95925,0 q -1.14063,0 -2.125,-0.359375 -0.96875,-0.375 -1.70313,-1.09375 -0.71875,-0.71875 -1.125,-1.734375 -0.40625,-1.03125 -0.40625,-2.359375 0,-1.265625 0.42188,-2.296875 0.4375,-1.046875 1.125,-1.75 0.6875,-0.71875 1.57812,-1.09375 0.90625,-0.390625 1.875,-0.390625 1.125,0 1.96875,0.390625 0.84375,0.375 1.40625,1.0625 0.5625,0.671875 0.84375,1.609375 0.28125,0.921875 0.28125,2 0,0.4375 -0.0469,0.828125 -0.0469,0.375 -0.0937,0.5625 h -6.32813 q 0.21875,1.15625 0.95313,1.703125 0.73437,0.53125 1.79687,0.53125 1.125,0 2.28125,-0.703125 l 1.04688,1.90625 q -0.8125,0.546875 -1.8125,0.875 -0.98438,0.3125 -1.9375,0.3125 z m -2.34375,-6.6875 h 3.8125 q 0,-0.90625 -0.40625,-1.453125 -0.40625,-0.5625 -1.35938,-0.5625 -0.75,0 -1.3125,0.5 -0.5625,0.484375 -0.73437,1.515625 z m 13.26676,6.6875 q -1.10937,0 -2.0625,-0.359375 -0.95312,-0.375 -1.65625,-1.078125 -0.70312,-0.703125 -1.10937,-1.734375 -0.40625,-1.046875 -0.40625,-2.375 0,-1.3125 0.4375,-2.34375 0.45312,-1.046875 1.20312,-1.75 0.76563,-0.703125 1.76563,-1.0625 1.01562,-0.375 2.09375,-0.375 0.98437,0 1.73437,0.328125 0.76563,0.3125 1.35938,0.796875 l -1.46875,2.03125 q -0.75,-0.625 -1.42188,-0.625 -1.15625,0 -1.82812,0.8125 -0.65625,0.8125 -0.65625,2.1875 0,1.390625 0.67187,2.203125 0.67188,0.8125 1.70313,0.8125 0.51562,0 0.98437,-0.21875 0.48438,-0.234375 0.90625,-0.546875 l 1.23438,2.046875 q -0.78125,0.6875 -1.70313,0.96875 -0.90625,0.28125 -1.78125,0.28125 z m 9.20008,0 q -0.96875,0 -1.67188,-0.296875 -0.6875,-0.296875 -1.125,-0.828125 -0.4375,-0.53125 -0.64062,-1.28125 -0.20313,-0.765625 -0.20313,-1.6875 v -4.28125 h -1.45312 V 49.6106 l 1.625,-0.125 0.35937,-2.8125 h 2.60938 v 2.8125 h 2.53125 v 2.453125 h -2.53125 v 4.25 q 0,0.890625 0.35937,1.28125 0.375,0.390625 1,0.390625 0.25,0 0.51563,-0.0625 0.28125,-0.0625 0.48437,-0.140625 l 0.5,2.28125 q -0.4375,0.125 -1.01562,0.25 -0.5625,0.125 -1.34375,0.125 z m 4.1062,-0.25 V 49.4856 h 3.125 V 60.063725 Z M 134.21011,47.9231 q -0.78125,0 -1.29687,-0.453125 -0.51563,-0.453125 -0.51563,-1.1875 0,-0.71875 0.51563,-1.171875 0.51562,-0.453125 1.29687,-0.453125 0.8125,0 1.3125,0.453125 0.5,0.453125 0.5,1.171875 0,0.734375 -0.5,1.1875 -0.5,0.453125 -1.3125,0.453125 z m 8.87096,12.390625 q -1,0 -1.9375,-0.359375 -0.9375,-0.375 -1.65625,-1.078125 -0.70313,-0.703125 -1.14063,-1.734375 -0.42187,-1.046875 -0.42187,-2.375 0,-1.3125 0.42187,-2.34375 0.4375,-1.046875 1.14063,-1.75 0.71875,-0.703125 1.65625,-1.0625 0.9375,-0.375 1.9375,-0.375 1.01562,0 1.9375,0.375 0.92187,0.359375 1.64062,1.0625 0.71875,0.703125 1.14063,1.75 0.42187,1.03125 0.42187,2.34375 0,1.328125 -0.42187,2.375 -0.42188,1.03125 -1.14063,1.734375 -0.71875,0.703125 -1.64062,1.078125 -0.92188,0.359375 -1.9375,0.359375 z m 0,-2.53125 q 0.96875,0 1.45312,-0.8125 0.5,-0.8125 0.5,-2.203125 0,-1.375 -0.5,-2.1875 -0.48437,-0.8125 -1.45312,-0.8125 -0.96875,0 -1.45313,0.8125 -0.48437,0.8125 -0.48437,2.1875 0,1.390625 0.48437,2.203125 0.48438,0.8125 1.45313,0.8125 z m 7.30591,2.28125 V 49.4856 h 2.5625 l 0.20312,1.34375 h 0.0937 q 0.67188,-0.640625 1.48438,-1.109375 0.8125,-0.484375 1.90625,-0.484375 1.71875,0 2.5,1.125 0.78125,1.125 0.78125,3.140625 v 6.5625 h -3.14063 v -6.15625 q 0,-1.15625 -0.3125,-1.578125 -0.29687,-0.4375 -0.98437,-0.4375 -0.59375,0 -1.03125,0.265625 -0.42188,0.265625 -0.9375,0.765625 v 7.140625 z"
         fill-rule="nonzero"
         id="path32" />
    </g>
    <path
       fill="#000000"
       fill-opacity="0"
       d="M 47.984253,213.84782 H 179.07086 V 234.9187 H 47.984253 Z"
       fill-rule="evenodd"
       id="path35" />
    <path
       fill="#000000"
       d="m 108.88758,231.52202 q -0.46875,0 -0.79687,-0.3125 -0.3125,-0.32813 -0.3125,-0.84375 0,-0.53125 0.3125,-0.85938 0.32812,-0.32812 0.79687,-0.32812 0.45313,0 0.78125,0.32812 0.32813,0.32813 0.32813,0.85938 0,0.51562 -0.32813,0.84375 -0.32812,0.3125 -0.78125,0.3125 z m 4.64541,0 q -0.46875,0 -0.79688,-0.3125 -0.3125,-0.32813 -0.3125,-0.84375 0,-0.53125 0.3125,-0.85938 0.32813,-0.32812 0.79688,-0.32812 0.45312,0 0.78125,0.32812 0.32812,0.32813 0.32812,0.85938 0,0.51562 -0.32812,0.84375 -0.32813,0.3125 -0.78125,0.3125 z m 4.6454,0 q -0.46875,0 -0.79688,-0.3125 -0.3125,-0.32813 -0.3125,-0.84375 0,-0.53125 0.3125,-0.85938 0.32813,-0.32812 0.79688,-0.32812 0.45312,0 0.78125,0.32812 0.32812,0.32813 0.32812,0.85938 0,0.51562 -0.32812,0.84375 -0.32813,0.3125 -0.78125,0.3125 z"
       fill-rule="nonzero"
       id="path37" />
    <g
       filter="url(#shadowFilter-p.2)"
       id="g41">
      <use
         xlink:href="#p.2"
         transform="translate(0,2)"
         id="use39"
         x="0"
         y="0"
         width="100%"
         height="100%" />
    </g>
    <defs
       id="defs56">
      <filter
         id="shadowFilter-p.2"
         filterUnits="userSpaceOnUse">
        <feGaussianBlur
           in="SourceAlpha"
           stdDeviation="2.0"
           result="blur"
           id="feGaussianBlur43" />
        <feComponentTransfer
           in="blur"
           color-interpolation-filters="sRGB"
           id="feComponentTransfer53">
          <feFuncR
             type="linear"
             slope="0"
             intercept="0.0"
             id="feFuncR45" />
          <feFuncG
             type="linear"
             slope="0"
             intercept="0.0"
             id="feFuncG47" />
          <feFuncB
             type="linear"
             slope="0"
             intercept="0.0"
             id="feFuncB49" />
          <feFuncA
             type="linear"
             slope="0.5"
             intercept="0"
             id="feFuncA51" />
        </feComponentTransfer>
      </filter>
    </defs>
    <g
       id="p.2">
      <path
         fill="#93c47d"
         d="m 18.377953,79.41723 v 0 c 0,-4.103653 3.326668,-7.430321 7.430321,-7.430321 H 201.24684 c 1.97065,0 3.86058,0.78283 5.25403,2.176285 1.39347,1.393456 2.1763,3.283386 2.1763,5.254036 v 52.037 c 0,4.10365 -3.32667,7.43031 -7.43033,7.43031 H 25.808274 c -4.103653,0 -7.430321,-3.32666 -7.430321,-7.43031 z"
         fill-rule="evenodd"
         id="path58" />
      <path
         fill="#000000"
         d="m 34.663593,112.57447 q -1.234375,0 -2.390625,-0.45312 -1.140623,-0.46875 -2.015623,-1.32813 l 1.28125,-1.48437 q 0.640623,0.625 1.484373,1.01562 0.84375,0.375 1.6875,0.375 1.03125,0 1.578125,-0.42187 0.546875,-0.4375 0.546875,-1.15625 0,-0.35938 -0.140625,-0.625 -0.140625,-0.26563 -0.390625,-0.45313 -0.25,-0.20312 -0.609375,-0.35937 -0.34375,-0.17188 -0.75,-0.34375 l -1.671875,-0.73438 q -0.453125,-0.1875 -0.890625,-0.46875 -0.437498,-0.28125 -0.796873,-0.67187 -0.359375,-0.39063 -0.578125,-0.90625 -0.203125,-0.53125 -0.203125,-1.20313 0,-0.71875 0.296875,-1.34375 0.3125,-0.625 0.859375,-1.09375 0.546873,-0.46875 1.296873,-0.71875 0.75,-0.265625 1.65625,-0.265625 1.0625,0 2.046875,0.421875 0.984375,0.42188 1.703125,1.125 l -1.109375,1.375 q -0.59375,-0.48437 -1.234375,-0.76562 -0.625,-0.28125 -1.40625,-0.28125 -0.875,0 -1.40625,0.39062 -0.515625,0.375 -0.515625,1.04688 0,0.35937 0.15625,0.60937 0.15625,0.25 0.421875,0.45313 0.28125,0.1875 0.625,0.35937 0.359375,0.15625 0.734375,0.29688 l 1.65625,0.6875 q 0.546875,0.23437 0.984375,0.53125 0.453125,0.29687 0.78125,0.6875 0.328125,0.39062 0.515625,0.90625 0.1875,0.51562 0.1875,1.1875 0,0.73437 -0.296875,1.39062 -0.296875,0.65625 -0.875,1.15625 -0.5625,0.48438 -1.375,0.78125 -0.8125,0.28125 -1.84375,0.28125 z m 8.636414,0 q -1.203125,0 -1.953125,-0.73437 -0.75,-0.73438 -0.75,-1.95313 0,-0.71875 0.3125,-1.28125 0.3125,-0.57812 0.96875,-0.98437 0.65625,-0.42188 1.671875,-0.6875 1.015625,-0.28125 2.4375,-0.4375 -0.01563,-0.35938 -0.109375,-0.67188 -0.07813,-0.32812 -0.28125,-0.57812 -0.1875,-0.26563 -0.5,-0.40625 -0.3125,-0.14063 -0.78125,-0.14063 -0.671875,0 -1.328125,0.26563 -0.640625,0.26562 -1.25,0.64062 l -0.78125,-1.4375 q 0.765625,-0.48437 1.71875,-0.84375 0.953125,-0.35937 2.046875,-0.35937 1.71875,0 2.5625,1.03125 0.84375,1.01562 0.84375,2.9375 v 5.42187 h -1.765625 l -0.140625,-1 h -0.07813 q -0.625,0.51563 -1.328125,0.875 -0.6875,0.34375 -1.515625,0.34375 z m 0.6875,-1.67187 q 0.5625,0 1.015625,-0.26563 0.46875,-0.26562 0.984375,-0.75 v -2.04687 q -0.9375,0.10937 -1.578125,0.29687 -0.625,0.1875 -1.015625,0.42188 -0.390625,0.23437 -0.5625,0.53125 -0.15625,0.29687 -0.15625,0.64062 0,0.60938 0.359375,0.89063 0.375,0.28125 0.953125,0.28125 z m 6.720383,1.45312 v -9.15625 h 1.78125 l 0.140625,1.25 h 0.07813 q 0.578125,-0.625 1.25,-1.04687 0.6875,-0.4375 1.546875,-0.4375 1,0 1.609375,0.4375 0.609375,0.42187 0.921875,1.20312 0.65625,-0.70312 1.359375,-1.17187 0.71875,-0.46875 1.59375,-0.46875 1.453125,0 2.140625,0.95312 0.703125,0.9375 0.703125,2.6875 v 5.75 H 61.66102 v -5.46875 q 0,-1.14062 -0.34375,-1.59375 -0.34375,-0.46875 -1.0625,-0.46875 -0.84375,0 -1.90625,1.125 v 6.40625 h -2.15625 v -5.46875 q 0,-1.14062 -0.34375,-1.59375 -0.34375,-0.46875 -1.078125,-0.46875 -0.84375,0 -1.921875,1.125 v 6.40625 z m 15.727222,3.625 v -12.78125 h 1.78125 l 0.140625,0.96875 h 0.07813 q 0.578125,-0.48437 1.28125,-0.84375 0.71875,-0.35937 1.484375,-0.35937 0.859375,0 1.515625,0.32812 0.65625,0.32813 1.125,0.95313 0.46875,0.60937 0.703125,1.46875 0.25,0.85937 0.25,1.92187 0,1.17188 -0.328125,2.09375 -0.328125,0.92188 -0.875,1.54688 -0.53125,0.625 -1.25,0.96875 -0.703125,0.32812 -1.46875,0.32812 -0.59375,0 -1.1875,-0.25 -0.59375,-0.26562 -1.15625,-0.75 l 0.04687,1.53125 v 2.875 z m 4,-5.17187 q 0.90625,0 1.515625,-0.79688 0.625,-0.79687 0.625,-2.35937 0,-1.375 -0.46875,-2.14063 -0.46875,-0.76562 -1.515625,-0.76562 -0.96875,0 -2.015625,1.03125 v 4.26562 q 0.515625,0.42188 0.96875,0.59375 0.46875,0.17188 0.890625,0.17188 z m 8.615875,1.76562 q -1.15625,0 -1.625,-0.6875 -0.46875,-0.6875 -0.46875,-1.875 V 99.183845 h 2.140625 v 10.937505 q 0,0.39062 0.15625,0.54687 0.15625,0.15625 0.3125,0.15625 0.07813,0 0.140625,0 0.0625,0 0.203125,-0.0312 l 0.28125,1.59375 q -0.4375,0.1875 -1.140625,0.1875 z m 6.883972,0 q -0.953125,0 -1.78125,-0.3125 -0.8125,-0.32812 -1.4375,-0.9375 -0.609375,-0.625 -0.953125,-1.51562 -0.34375,-0.89063 -0.34375,-2.03125 0,-1.10938 0.34375,-2 0.359375,-0.90625 0.953125,-1.51563 0.59375,-0.625 1.34375,-0.95312 0.765625,-0.34375 1.578125,-0.34375 0.921875,0 1.625,0.32812 0.71875,0.3125 1.1875,0.89063 0.484375,0.57812 0.71875,1.39062 0.25,0.79688 0.25,1.75 0,0.3125 -0.03125,0.59375 -0.01563,0.28125 -0.0625,0.4375 h -5.8125 q 0.140625,1.23438 0.859375,1.90625 0.71875,0.65625 1.84375,0.65625 0.59375,0 1.109375,-0.17187 0.515625,-0.1875 1.015625,-0.5 l 0.71875,1.34375 q -0.640625,0.4375 -1.453125,0.71875 -0.796875,0.26562 -1.671875,0.26562 z m -2.453125,-5.67187 h 4.078125 q 0,-1.0625 -0.46875,-1.65625 -0.453125,-0.60938 -1.40625,-0.60938 -0.8125,0 -1.4375,0.57813 -0.609375,0.57812 -0.765625,1.6875 z m 11.736847,5.45312 v -1.75 h 2.65625 v -7.79687 h -2.1875 v -1.34375 q 0.90625,-0.17188 1.546875,-0.40625 0.640625,-0.23438 1.203125,-0.5625 h 1.593749 v 10.10937 h 2.34375 v 1.75 z"
         fill-rule="nonzero"
         id="path60" />
    </g>
    <path
       fill="#9fc5e8"
       d="m 200.11548,125.17275 h -65.5748 v 7.55906 l -15.11811,-15.11811 15.11811,-15.11811 v 7.55905 h 65.5748 z"
       fill-rule="evenodd"
       id="path63" />
    <path
       stroke="#000000"
       stroke-width="1"
       stroke-linejoin="round"
       stroke-linecap="butt"
       d="m 200.11548,125.17275 h -65.5748 v 7.55906 l -15.11811,-15.11811 15.11811,-15.11811 v 7.55905 h 65.5748 z"
       fill-rule="evenodd"
       id="path65" />
    <path
       fill="#ea9999"
       d="m 119.42257,85.70818 h 65.57481 v -7.559051 l 15.1181,15.118111 -15.1181,15.11811 v -7.55906 h -65.57481 z"
       fill-rule="evenodd"
       id="path67" />
    <path
       stroke="#000000"
       stroke-width="1"
       stroke-linejoin="round"
       stroke-linecap="butt"
       d="m 119.42257,85.70818 h 65.57481 v -7.559051 l 15.1181,15.118111 -15.1181,15.11811 v -7.55906 h -65.57481 z"
       fill-rule="evenodd"
       id="path69" />
    <g
       filter="url(#shadowFilter-p.3)"
       id="g73">
      <use
         xlink:href="#p.3"
         transform="translate(0,2)"
         id="use71"
         x="0"
         y="0"
         width="100%"
         height="100%" />
    </g>
    <defs
       id="defs88">
      <filter
         id="shadowFilter-p.3"
         filterUnits="userSpaceOnUse">
        <feGaussianBlur
           in="SourceAlpha"
           stdDeviation="2.0"
           result="blur"
           id="feGaussianBlur75" />
        <feComponentTransfer
           in="blur"
           color-interpolation-filters="sRGB"
           id="feComponentTransfer85">
          <feFuncR
             type="linear"
             slope="0"
             intercept="0.0"
             id="feFuncR77" />
          <feFuncG
             type="linear"
             slope="0"
             intercept="0.0"
             id="feFuncG79" />
          <feFuncB
             type="linear"
             slope="0"
             intercept="0.0"
             id="feFuncB81" />
          <feFuncA
             type="linear"
             slope="0.5"
             intercept="0"
             id="feFuncA83" />
        </feComponentTransfer>
      </filter>
    </defs>
    <g
       id="p.3">
      <path
         fill="#93c47d"
         d="m 18.377953,154.38048 v 0 c 0,-4.10365 3.326668,-7.43031 7.430321,-7.43031 H 201.24684 c 1.97065,0 3.86058,0.78283 5.25403,2.17628 1.39347,1.39346 2.1763,3.28339 2.1763,5.25403 v 52.037 c 0,4.10366 -3.32667,7.43032 -7.43033,7.43032 H 25.808274 c -4.103653,0 -7.430321,-3.32666 -7.430321,-7.43032 z"
         fill-rule="evenodd"
         id="path90" />
      <path
         fill="#000000"
         d="m 34.663593,187.53772 q -1.234375,0 -2.390625,-0.45313 -1.140623,-0.46875 -2.015623,-1.32812 l 1.28125,-1.48438 q 0.640623,0.625 1.484373,1.01563 0.84375,0.375 1.6875,0.375 1.03125,0 1.578125,-0.42188 0.546875,-0.4375 0.546875,-1.15625 0,-0.35937 -0.140625,-0.625 -0.140625,-0.26562 -0.390625,-0.45312 -0.25,-0.20313 -0.609375,-0.35938 -0.34375,-0.17187 -0.75,-0.34375 l -1.671875,-0.73437 q -0.453125,-0.1875 -0.890625,-0.46875 -0.437498,-0.28125 -0.796873,-0.67188 -0.359375,-0.39062 -0.578125,-0.90625 -0.203125,-0.53125 -0.203125,-1.20312 0,-0.71875 0.296875,-1.34375 0.3125,-0.625 0.859375,-1.09375 0.546873,-0.46875 1.296873,-0.71875 0.75,-0.26563 1.65625,-0.26563 1.0625,0 2.046875,0.42188 0.984375,0.42187 1.703125,1.125 l -1.109375,1.375 q -0.59375,-0.48438 -1.234375,-0.76563 -0.625,-0.28125 -1.40625,-0.28125 -0.875,0 -1.40625,0.39063 -0.515625,0.375 -0.515625,1.04687 0,0.35938 0.15625,0.60938 0.15625,0.25 0.421875,0.45312 0.28125,0.1875 0.625,0.35938 0.359375,0.15625 0.734375,0.29687 l 1.65625,0.6875 q 0.546875,0.23438 0.984375,0.53125 0.453125,0.29688 0.78125,0.6875 0.328125,0.39063 0.515625,0.90625 0.1875,0.51563 0.1875,1.1875 0,0.73438 -0.296875,1.39063 -0.296875,0.65625 -0.875,1.15625 -0.5625,0.48437 -1.375,0.78125 -0.8125,0.28125 -1.84375,0.28125 z m 8.636414,0 q -1.203125,0 -1.953125,-0.73438 -0.75,-0.73437 -0.75,-1.95312 0,-0.71875 0.3125,-1.28125 0.3125,-0.57813 0.96875,-0.98438 0.65625,-0.42187 1.671875,-0.6875 1.015625,-0.28125 2.4375,-0.4375 -0.01563,-0.35937 -0.109375,-0.67187 -0.07813,-0.32813 -0.28125,-0.57813 -0.1875,-0.26562 -0.5,-0.40625 -0.3125,-0.14062 -0.78125,-0.14062 -0.671875,0 -1.328125,0.26562 -0.640625,0.26563 -1.25,0.64063 l -0.78125,-1.4375 q 0.765625,-0.48438 1.71875,-0.84375 0.953125,-0.35938 2.046875,-0.35938 1.71875,0 2.5625,1.03125 0.84375,1.01563 0.84375,2.9375 v 5.42188 h -1.765625 l -0.140625,-1 h -0.07813 q -0.625,0.51562 -1.328125,0.875 -0.6875,0.34375 -1.515625,0.34375 z m 0.6875,-1.67188 q 0.5625,0 1.015625,-0.26562 0.46875,-0.26563 0.984375,-0.75 v -2.04688 q -0.9375,0.10938 -1.578125,0.29688 -0.625,0.1875 -1.015625,0.42187 -0.390625,0.23438 -0.5625,0.53125 -0.15625,0.29688 -0.15625,0.64063 0,0.60937 0.359375,0.89062 0.375,0.28125 0.953125,0.28125 z m 6.720383,1.45313 v -9.15625 h 1.78125 l 0.140625,1.25 h 0.07813 q 0.578125,-0.625 1.25,-1.04688 0.6875,-0.4375 1.546875,-0.4375 1,0 1.609375,0.4375 0.609375,0.42188 0.921875,1.20313 0.65625,-0.70313 1.359375,-1.17188 0.71875,-0.46875 1.59375,-0.46875 1.453125,0 2.140625,0.95313 0.703125,0.9375 0.703125,2.6875 v 5.75 H 61.66102 v -5.46875 q 0,-1.14063 -0.34375,-1.59375 -0.34375,-0.46875 -1.0625,-0.46875 -0.84375,0 -1.90625,1.125 v 6.40625 h -2.15625 v -5.46875 q 0,-1.14063 -0.34375,-1.59375 -0.34375,-0.46875 -1.078125,-0.46875 -0.84375,0 -1.921875,1.125 v 6.40625 z m 15.727222,3.625 v -12.78125 h 1.78125 l 0.140625,0.96875 h 0.07813 q 0.578125,-0.48438 1.28125,-0.84375 0.71875,-0.35938 1.484375,-0.35938 0.859375,0 1.515625,0.32813 0.65625,0.32812 1.125,0.95312 0.46875,0.60938 0.703125,1.46875 0.25,0.85938 0.25,1.92188 0,1.17187 -0.328125,2.09375 -0.328125,0.92187 -0.875,1.54687 -0.53125,0.625 -1.25,0.96875 -0.703125,0.32813 -1.46875,0.32813 -0.59375,0 -1.1875,-0.25 -0.59375,-0.26563 -1.15625,-0.75 l 0.04687,1.53125 v 2.875 z m 4,-5.17188 q 0.90625,0 1.515625,-0.79687 0.625,-0.79688 0.625,-2.35938 0,-1.375 -0.46875,-2.14062 -0.46875,-0.76563 -1.515625,-0.76563 -0.96875,0 -2.015625,1.03125 v 4.26563 q 0.515625,0.42187 0.96875,0.59375 0.46875,0.17187 0.890625,0.17187 z m 8.615875,1.76563 q -1.15625,0 -1.625,-0.6875 -0.46875,-0.6875 -0.46875,-1.875 v -10.82813 h 2.140625 v 10.9375 q 0,0.39063 0.15625,0.54688 0.15625,0.15625 0.3125,0.15625 0.07813,0 0.140625,0 0.0625,0 0.203125,-0.0312 l 0.28125,1.59375 q -0.4375,0.1875 -1.140625,0.1875 z m 6.883972,0 q -0.953125,0 -1.78125,-0.3125 -0.8125,-0.32813 -1.4375,-0.9375 -0.609375,-0.625 -0.953125,-1.51563 -0.34375,-0.89062 -0.34375,-2.03125 0,-1.10937 0.34375,-2 0.359375,-0.90625 0.953125,-1.51562 0.59375,-0.625 1.34375,-0.95313 0.765625,-0.34375 1.578125,-0.34375 0.921875,0 1.625,0.32813 0.71875,0.3125 1.1875,0.89062 0.484375,0.57813 0.71875,1.39063 0.25,0.79687 0.25,1.75 0,0.3125 -0.03125,0.59375 -0.01563,0.28125 -0.0625,0.4375 h -5.8125 q 0.140625,1.23437 0.859375,1.90625 0.71875,0.65625 1.84375,0.65625 0.59375,0 1.109375,-0.17188 0.515625,-0.1875 1.015625,-0.5 l 0.71875,1.34375 q -0.640625,0.4375 -1.453125,0.71875 -0.796875,0.26563 -1.671875,0.26563 z m -2.453125,-5.67188 h 4.078125 q 0,-1.0625 -0.46875,-1.65625 -0.453125,-0.60937 -1.40625,-0.60937 -0.8125,0 -1.4375,0.57812 -0.609375,0.57813 -0.765625,1.6875 z m 11.064972,5.45313 v -1.25 q 1.234375,-1.1875 2.234375,-2.1875 1,-1.01563 1.6875,-1.875 0.703125,-0.85938 1.078125,-1.60938 0.375,-0.75 0.375,-1.42187 0,-0.95313 -0.5,-1.5 -0.5,-0.54688 -1.453125,-0.54688 -0.6875,0 -1.265625,0.39063 -0.5625,0.39062 -1.046875,0.9375 l -1.203125,-1.20313 q 0.828125,-0.875 1.6875,-1.34375 0.875,-0.48437 2.109375,-0.48437 0.859375,0 1.546875,0.26562 0.687504,0.26563 1.171874,0.75 0.48438,0.46875 0.75,1.14063 0.28125,0.67187 0.28125,1.48437 0,0.78125 -0.34375,1.59375 -0.34375,0.8125 -0.9375,1.64063 -0.59375,0.82812 -1.374999,1.71875 -0.78125,0.875 -1.65625,1.79687 0.46875,-0.0312 1,-0.0781 0.546875,-0.0469 0.984375,-0.0469 h 2.906254 v 1.82813 z"
         fill-rule="nonzero"
         id="path92" />
    </g>
    <path
       fill="#9fc5e8"
       d="m 200.11548,200.136 h -65.5748 v 7.55907 l -15.11811,-15.11812 15.11811,-15.1181 v 7.55905 h 65.5748 z"
       fill-rule="evenodd"
       id="path95" />
    <path
       stroke="#000000"
       stroke-width="1"
       stroke-linejoin="round"
       stroke-linecap="butt"
       d="m 200.11548,200.136 h -65.5748 v 7.55907 l -15.11811,-15.11812 15.11811,-15.1181 v 7.55905 h 65.5748 z"
       fill-rule="evenodd"
       id="path97" />
    <path
       fill="#ea9999"
       d="m 119.42257,160.67145 h 65.57481 v -7.55907 l 15.1181,15.11812 -15.1181,15.1181 v -7.55905 h -65.57481 z"
       fill-rule="evenodd"
       id="path99" />
    <path
       stroke="#000000"
       stroke-width="1"
       stroke-linejoin="round"
       stroke-linecap="butt"
       d="m 119.42257,160.67145 h 65.57481 v -7.55907 l 15.1181,15.11812 -15.1181,15.1181 v -7.55905 h -65.57481 z"
       fill-rule="evenodd"
       id="path101" />
    <g
       filter="url(#shadowFilter-p.4)"
       id="g105">
      <use
         xlink:href="#p.4"
         transform="translate(0,2)"
         id="use103"
         x="0"
         y="0"
         width="100%"
         height="100%" />
    </g>
    <defs
       id="defs120">
      <filter
         id="shadowFilter-p.4"
         filterUnits="userSpaceOnUse">
        <feGaussianBlur
           in="SourceAlpha"
           stdDeviation="2.0"
           result="blur"
           id="feGaussianBlur107" />
        <feComponentTransfer
           in="blur"
           color-interpolation-filters="sRGB"
           id="feComponentTransfer117">
          <feFuncR
             type="linear"
             slope="0"
             intercept="0.0"
             id="feFuncR109" />
          <feFuncG
             type="linear"
             slope="0"
             intercept="0.0"
             id="feFuncG111" />
          <feFuncB
             type="linear"
             slope="0"
             intercept="0.0"
             id="feFuncB113" />
          <feFuncA
             type="linear"
             slope="0.5"
             intercept="0"
             id="feFuncA115" />
        </feComponentTransfer>
      </filter>
    </defs>
    <g
       id="p.4">
      <path
         fill="#93c47d"
         d="m 18.377953,253.3726 v 0 c 0,-4.10365 3.326668,-7.43031 7.430321,-7.43031 H 201.24684 c 1.97065,0 3.86058,0.78283 5.25403,2.17628 1.39347,1.39345 2.1763,3.28339 2.1763,5.25403 v 52.037 c 0,4.10364 -3.32667,7.43033 -7.43033,7.43033 H 25.808274 c -4.103653,0 -7.430321,-3.32669 -7.430321,-7.43033 z"
         fill-rule="evenodd"
         id="path122" />
      <path
         fill="#000000"
         d="m 34.663593,286.52985 q -1.234375,0 -2.390625,-0.45313 -1.140623,-0.46875 -2.015623,-1.32812 l 1.28125,-1.48438 q 0.640623,0.625 1.484373,1.01563 0.84375,0.375 1.6875,0.375 1.03125,0 1.578125,-0.42188 0.546875,-0.4375 0.546875,-1.15625 0,-0.35937 -0.140625,-0.625 -0.140625,-0.26562 -0.390625,-0.45312 -0.25,-0.20313 -0.609375,-0.35938 -0.34375,-0.17187 -0.75,-0.34375 l -1.671875,-0.73437 q -0.453125,-0.1875 -0.890625,-0.46875 -0.437498,-0.28125 -0.796873,-0.67188 -0.359375,-0.39062 -0.578125,-0.90625 -0.203125,-0.53125 -0.203125,-1.20312 0,-0.71875 0.296875,-1.34375 0.3125,-0.625 0.859375,-1.09375 0.546873,-0.46875 1.296873,-0.71875 0.75,-0.26563 1.65625,-0.26563 1.0625,0 2.046875,0.42188 0.984375,0.42187 1.703125,1.125 l -1.109375,1.375 q -0.59375,-0.48438 -1.234375,-0.76563 -0.625,-0.28125 -1.40625,-0.28125 -0.875,0 -1.40625,0.39063 -0.515625,0.375 -0.515625,1.04687 0,0.35938 0.15625,0.60938 0.15625,0.25 0.421875,0.45312 0.28125,0.1875 0.625,0.35938 0.359375,0.15625 0.734375,0.29687 l 1.65625,0.6875 q 0.546875,0.23438 0.984375,0.53125 0.453125,0.29688 0.78125,0.6875 0.328125,0.39063 0.515625,0.90625 0.1875,0.51563 0.1875,1.1875 0,0.73438 -0.296875,1.39063 -0.296875,0.65625 -0.875,1.15625 -0.5625,0.48437 -1.375,0.78125 -0.8125,0.28125 -1.84375,0.28125 z m 8.636414,0 q -1.203125,0 -1.953125,-0.73438 -0.75,-0.73437 -0.75,-1.95312 0,-0.71875 0.3125,-1.28125 0.3125,-0.57813 0.96875,-0.98438 0.65625,-0.42187 1.671875,-0.6875 1.015625,-0.28125 2.4375,-0.4375 -0.01563,-0.35937 -0.109375,-0.67187 -0.07813,-0.32813 -0.28125,-0.57813 -0.1875,-0.26562 -0.5,-0.40625 -0.3125,-0.14062 -0.78125,-0.14062 -0.671875,0 -1.328125,0.26562 -0.640625,0.26563 -1.25,0.64063 l -0.78125,-1.4375 q 0.765625,-0.48438 1.71875,-0.84375 0.953125,-0.35938 2.046875,-0.35938 1.71875,0 2.5625,1.03125 0.84375,1.01563 0.84375,2.9375 v 5.42188 h -1.765625 l -0.140625,-1 h -0.07813 q -0.625,0.51562 -1.328125,0.875 -0.6875,0.34375 -1.515625,0.34375 z m 0.6875,-1.67188 q 0.5625,0 1.015625,-0.26562 0.46875,-0.26563 0.984375,-0.75 v -2.04688 q -0.9375,0.10938 -1.578125,0.29688 -0.625,0.1875 -1.015625,0.42187 -0.390625,0.23438 -0.5625,0.53125 -0.15625,0.29688 -0.15625,0.64063 0,0.60937 0.359375,0.89062 0.375,0.28125 0.953125,0.28125 z m 6.720383,1.45313 v -9.15625 h 1.78125 l 0.140625,1.25 h 0.07813 q 0.578125,-0.625 1.25,-1.04688 0.6875,-0.4375 1.546875,-0.4375 1,0 1.609375,0.4375 0.609375,0.42188 0.921875,1.20313 0.65625,-0.70313 1.359375,-1.17188 0.71875,-0.46875 1.59375,-0.46875 1.453125,0 2.140625,0.95313 0.703125,0.9375 0.703125,2.6875 v 5.75 H 61.66102 v -5.46875 q 0,-1.14063 -0.34375,-1.59375 -0.34375,-0.46875 -1.0625,-0.46875 -0.84375,0 -1.90625,1.125 v 6.40625 h -2.15625 v -5.46875 q 0,-1.14063 -0.34375,-1.59375 -0.34375,-0.46875 -1.078125,-0.46875 -0.84375,0 -1.921875,1.125 v 6.40625 z m 15.727222,3.625 v -12.78125 h 1.78125 l 0.140625,0.96875 h 0.07813 q 0.578125,-0.48438 1.28125,-0.84375 0.71875,-0.35938 1.484375,-0.35938 0.859375,0 1.515625,0.32813 0.65625,0.32812 1.125,0.95312 0.46875,0.60938 0.703125,1.46875 0.25,0.85938 0.25,1.92188 0,1.17187 -0.328125,2.09375 -0.328125,0.92187 -0.875,1.54687 -0.53125,0.625 -1.25,0.96875 -0.703125,0.32813 -1.46875,0.32813 -0.59375,0 -1.1875,-0.25 -0.59375,-0.26563 -1.15625,-0.75 l 0.04687,1.53125 v 2.875 z m 4,-5.17188 q 0.90625,0 1.515625,-0.79687 0.625,-0.79688 0.625,-2.35938 0,-1.375 -0.46875,-2.14062 -0.46875,-0.76563 -1.515625,-0.76563 -0.96875,0 -2.015625,1.03125 v 4.26563 q 0.515625,0.42187 0.96875,0.59375 0.46875,0.17187 0.890625,0.17187 z m 8.615875,1.76563 q -1.15625,0 -1.625,-0.6875 -0.46875,-0.6875 -0.46875,-1.875 v -10.82813 h 2.140625 v 10.9375 q 0,0.39063 0.15625,0.54688 0.15625,0.15625 0.3125,0.15625 0.07813,0 0.140625,0 0.0625,0 0.203125,-0.0312 l 0.28125,1.59375 q -0.4375,0.1875 -1.140625,0.1875 z m 6.883972,0 q -0.953125,0 -1.78125,-0.3125 -0.8125,-0.32813 -1.4375,-0.9375 -0.609375,-0.625 -0.953125,-1.51563 -0.34375,-0.89062 -0.34375,-2.03125 0,-1.10937 0.34375,-2 0.359375,-0.90625 0.953125,-1.51562 0.59375,-0.625 1.34375,-0.95313 0.765625,-0.34375 1.578125,-0.34375 0.921875,0 1.625,0.32813 0.71875,0.3125 1.1875,0.89062 0.484375,0.57813 0.71875,1.39063 0.25,0.79687 0.25,1.75 0,0.3125 -0.03125,0.59375 -0.01563,0.28125 -0.0625,0.4375 h -5.8125 q 0.140625,1.23437 0.859375,1.90625 0.71875,0.65625 1.84375,0.65625 0.59375,0 1.109375,-0.17188 0.515625,-0.1875 1.015625,-0.5 l 0.71875,1.34375 q -0.640625,0.4375 -1.453125,0.71875 -0.796875,0.26563 -1.671875,0.26563 z m -2.453125,-5.67188 h 4.078125 q 0,-1.0625 -0.46875,-1.65625 -0.453125,-0.60937 -1.40625,-0.60937 -0.8125,0 -1.4375,0.57812 -0.609375,0.57813 -0.765625,1.6875 z"
         fill-rule="nonzero"
         id="path124" />
      <path
         fill="#000000"
         d="m 94.43743,286.3111 2.421875,-12.20313 h 1.984375 l 2.39063,7.07813 0.70312,2.625 h 0.0781 q 0.10937,-0.95313 0.21875,-2.04688 0.10937,-1.10937 0.32812,-2.10937 l 1.09375,-5.54688 h 1.9375 l -2.4375,12.20313 h -1.96875 l -2.359375,-7.04688 -0.71875,-2.67187 h -0.0625 q -0.125,0.98437 -0.25,2.04687 -0.125,1.0625 -0.328125,2.07813 l -1.109375,5.59375 z"
         fill-rule="nonzero"
         id="path126" />
    </g>
    <path
       fill="#9fc5e8"
       d="m 200.11548,299.12814 h -65.5748 v 7.55905 l -15.11811,-15.1181 15.11811,-15.11814 v 7.55906 h 65.5748 z"
       fill-rule="evenodd"
       id="path129" />
    <path
       stroke="#000000"
       stroke-width="1"
       stroke-linejoin="round"
       stroke-linecap="butt"
       d="m 200.11548,299.12814 h -65.5748 v 7.55905 l -15.11811,-15.1181 15.11811,-15.11814 v 7.55906 h 65.5748 z"
       fill-rule="evenodd"
       id="path131" />
    <path
       fill="#ea9999"
       d="m 119.42257,259.66357 h 65.57481 v -7.55907 l 15.1181,15.11812 -15.1181,15.1181 v -7.55905 h -65.57481 z"
       fill-rule="evenodd"
       id="path133" />
    <path
       stroke="#000000"
       stroke-width="1"
       stroke-linejoin="round"
       stroke-linecap="butt"
       d="m 119.42257,259.66357 h 65.57481 v -7.55907 l 15.1181,15.11812 -15.1181,15.1181 v -7.55905 h -65.57481 z"
       fill-rule="evenodd"
       id="path135" />
    <g
       filter="url(#shadowFilter-p.5)"
       id="g139">
      <use
         xlink:href="#p.5"
         transform="translate(0,2)"
         id="use137"
         x="0"
         y="0"
         width="100%"
         height="100%" />
    </g>
    <defs
       id="defs154">
      <filter
         id="shadowFilter-p.5"
         filterUnits="userSpaceOnUse">
        <feGaussianBlur
           in="SourceAlpha"
           stdDeviation="2.0"
           result="blur"
           id="feGaussianBlur141" />
        <feComponentTransfer
           in="blur"
           color-interpolation-filters="sRGB"
           id="feComponentTransfer151">
          <feFuncR
             type="linear"
             slope="0"
             intercept="0.0"
             id="feFuncR143" />
          <feFuncG
             type="linear"
             slope="0"
             intercept="0.0"
             id="feFuncG145" />
          <feFuncB
             type="linear"
             slope="0"
             intercept="0.0"
             id="feFuncB147" />
          <feFuncA
             type="linear"
             slope="0.5"
             intercept="0"
             id="feFuncA149" />
        </feComponentTransfer>
      </filter>
    </defs>
    <g
       id="p.5">
      <path
         fill="#d9ead3"
         d="m 312.6483,13.407232 v 0 c 0,-2.986332 2.4209,-5.4072323 5.40723,-5.4072323 h 200.24069 c 1.43408,0 2.80938,0.5696888 3.82348,1.5837412 1.01404,1.0140531 1.58374,2.3894031 1.58374,3.8234911 V 319.69513 c 0,2.98633 -2.4209,5.40723 -5.40722,5.40723 H 318.05553 c -2.98633,0 -5.40723,-2.4209 -5.40723,-5.40723 z"
         fill-rule="evenodd"
         id="path156" />
      <path
         stroke="#000000"
         stroke-width="1"
         stroke-linejoin="round"
         stroke-linecap="butt"
         d="m 312.6483,13.407232 v 0 c 0,-2.986332 2.4209,-5.4072323 5.40723,-5.4072323 h 200.24069 c 1.43408,0 2.80938,0.5696888 3.82348,1.5837412 1.01404,1.0140531 1.58374,2.3894031 1.58374,3.8234911 V 319.69513 c 0,2.98633 -2.4209,5.40723 -5.40722,5.40723 H 318.05553 c -2.98633,0 -5.40723,-2.4209 -5.40723,-5.40723 z"
         fill-rule="evenodd"
         id="path158" />
      <path
         fill="#000000"
         d="m 366.62637,27.032475 -0.34375,1.265625 h 2.96875 l -0.32813,-1.265625 q -0.29687,-1.046875 -0.57812,-2.21875 -0.26563,-1.171875 -0.54688,-2.265625 h -0.0781 q -0.26563,1.109375 -0.53125,2.28125 -0.26563,1.15625 -0.5625,2.203125 z m -5.03125,7.03125 4.34375,-13.90625 h 3.78125 l 4.34375,13.90625 h -3.32813 l -0.84375,-3.3125 h -4.25 l -0.84375,3.3125 z m 21.11172,0.25 q -1.04687,0 -2.14062,-0.390625 -1.09375,-0.40625 -1.90625,-1.078125 l 1.40625,-1.953125 q 0.71875,0.546875 1.375,0.828125 0.67187,0.28125 1.34375,0.28125 0.71875,0 1.03125,-0.234375 0.3125,-0.234375 0.3125,-0.671875 0,-0.25 -0.1875,-0.453125 -0.17188,-0.203125 -0.48438,-0.375 -0.29687,-0.171875 -0.6875,-0.3125 -0.375,-0.140625 -0.78125,-0.3125 -0.5,-0.1875 -1,-0.4375 -0.48437,-0.265625 -0.89062,-0.625 -0.39063,-0.375 -0.65625,-0.875 -0.25,-0.515625 -0.25,-1.171875 0,-0.71875 0.28125,-1.328125 0.29687,-0.625 0.82812,-1.046875 0.53125,-0.4375 1.26563,-0.671875 0.75,-0.25 1.67187,-0.25 1.21875,0 2.125,0.421875 0.92188,0.40625 1.60938,0.921875 l -1.40625,1.875 q -0.57813,-0.4375 -1.14063,-0.671875 -0.54687,-0.234375 -1.09375,-0.234375 -1.20312,0 -1.20312,0.84375 0,0.25 0.17187,0.4375 0.17188,0.171875 0.45313,0.328125 0.29687,0.140625 0.67187,0.28125 0.375,0.140625 0.78125,0.296875 0.5,0.1875 1,0.4375 0.5,0.234375 0.92188,0.609375 0.42187,0.359375 0.67187,0.890625 0.25,0.515625 0.25,1.234375 0,0.71875 -0.28125,1.34375 -0.26562,0.625 -0.82812,1.078125 -0.54688,0.453125 -1.35938,0.71875 -0.8125,0.265625 -1.875,0.265625 z m 6.33902,-0.25 V 23.4856 h 3.125 V 34.063725 Z M 390.59274,21.9231 q -0.78125,0 -1.29688,-0.453125 -0.51562,-0.453125 -0.51562,-1.1875 0,-0.71875 0.51562,-1.171875 0.51563,-0.453125 1.29688,-0.453125 0.8125,0 1.3125,0.453125 0.5,0.453125 0.5,1.171875 0,0.734375 -0.5,1.1875 -0.5,0.453125 -1.3125,0.453125 z m 4.33969,12.140625 V 23.4856 h 2.5625 l 0.20313,1.359375 h 0.0937 q 0.65625,-0.65625 1.40625,-1.125 0.75,-0.484375 1.78125,-0.484375 1.14062,0 1.82812,0.453125 0.6875,0.453125 1.09375,1.3125 0.70313,-0.734375 1.48438,-1.25 0.78125,-0.515625 1.84375,-0.515625 1.71875,0 2.51562,1.140625 0.79688,1.140625 0.79688,3.125 v 6.5625 h -3.14063 v -6.15625 q 0,-1.15625 -0.3125,-1.578125 -0.29687,-0.4375 -0.98437,-0.4375 -0.79688,0 -1.8125,1.03125 v 7.140625 h -3.14063 v -6.15625 q 0,-1.15625 -0.3125,-1.578125 -0.29687,-0.4375 -0.98437,-0.4375 -0.8125,0 -1.79688,1.03125 v 7.140625 z m 18.27829,3.921875 v -14.5 h 2.5625 l 0.20313,1.046875 h 0.0937 q 0.60937,-0.5625 1.39062,-0.921875 0.78125,-0.375 1.60938,-0.375 0.96875,0 1.73437,0.390625 0.76563,0.375 1.29688,1.078125 0.53125,0.703125 0.8125,1.703125 0.29687,0.984375 0.29687,2.203125 0,1.359375 -0.375,2.421875 -0.375,1.046875 -1,1.78125 -0.625,0.734375 -1.4375,1.125 -0.79687,0.375 -1.64062,0.375 -0.6875,0 -1.32813,-0.28125 -0.64062,-0.28125 -1.1875,-0.828125 l 0.0937,1.6875 v 3.09375 z m 4.8125,-6.21875 q 0.8125,0 1.39063,-0.734375 0.57812,-0.75 0.57812,-2.390625 0,-2.859375 -1.84375,-2.859375 -0.90625,0 -1.8125,0.96875 v 4.328125 q 0.4375,0.375 0.85938,0.53125 0.42187,0.15625 0.82812,0.15625 z m 10.28357,2.546875 q -0.8125,0 -1.375,-0.25 -0.54687,-0.25 -0.875,-0.703125 -0.32812,-0.46875 -0.48437,-1.109375 -0.14063,-0.65625 -0.14063,-1.46875 V 19.1106 h 3.125 v 11.796875 q 0,0.484375 0.1875,0.6875 0.1875,0.1875 0.375,0.1875 0.10938,0 0.17188,0 0.0781,0 0.20312,-0.04687 l 0.39063,2.328125 q -0.25,0.109375 -0.65625,0.171875 -0.39063,0.07813 -0.92188,0.07813 z m 7.95923,0 q -1.14063,0 -2.125,-0.359375 -0.96875,-0.375 -1.70313,-1.09375 -0.71875,-0.71875 -1.125,-1.734375 -0.40625,-1.03125 -0.40625,-2.359375 0,-1.265625 0.42188,-2.296875 0.4375,-1.046875 1.125,-1.75 0.6875,-0.71875 1.57812,-1.09375 0.90625,-0.390625 1.875,-0.390625 1.125,0 1.96875,0.390625 0.84375,0.375 1.40625,1.0625 0.5625,0.671875 0.84375,1.609375 0.28125,0.921875 0.28125,2 0,0.4375 -0.0469,0.828125 -0.0469,0.375 -0.0937,0.5625 h -6.32813 q 0.21875,1.15625 0.95313,1.703125 0.73437,0.53125 1.79687,0.53125 1.125,0 2.28125,-0.703125 l 1.04688,1.90625 q -0.8125,0.546875 -1.8125,0.875 -0.98438,0.3125 -1.9375,0.3125 z m -2.34375,-6.6875 h 3.8125 q 0,-0.90625 -0.40625,-1.453125 -0.40625,-0.5625 -1.35938,-0.5625 -0.75,0 -1.3125,0.5 -0.5625,0.484375 -0.73437,1.515625 z m 15.79803,6.6875 q -0.8125,0 -1.375,-0.25 -0.54687,-0.25 -0.875,-0.703125 -0.32812,-0.46875 -0.48437,-1.109375 -0.14063,-0.65625 -0.14063,-1.46875 V 19.1106 h 3.125 v 11.796875 q 0,0.484375 0.1875,0.6875 0.1875,0.1875 0.375,0.1875 0.10938,0 0.17188,0 0.0781,0 0.20312,-0.04687 l 0.39063,2.328125 q -0.25,0.109375 -0.65625,0.171875 -0.39063,0.07813 -0.92188,0.07813 z m 3.22489,-0.25 V 23.4856 h 3.125 V 34.063725 Z M 454.49206,21.9231 q -0.78125,0 -1.29687,-0.453125 -0.51563,-0.453125 -0.51563,-1.1875 0,-0.71875 0.51563,-1.171875 0.51562,-0.453125 1.29687,-0.453125 0.8125,0 1.3125,0.453125 0.5,0.453125 0.5,1.171875 0,0.734375 -0.5,1.1875 -0.5,0.453125 -1.3125,0.453125 z m 7.44907,12.390625 q -1.04688,0 -2.14063,-0.390625 -1.09375,-0.40625 -1.90625,-1.078125 l 1.40625,-1.953125 q 0.71875,0.546875 1.375,0.828125 0.67188,0.28125 1.34375,0.28125 0.71875,0 1.03125,-0.234375 0.3125,-0.234375 0.3125,-0.671875 0,-0.25 -0.1875,-0.453125 -0.17187,-0.203125 -0.48437,-0.375 -0.29688,-0.171875 -0.6875,-0.3125 -0.375,-0.140625 -0.78125,-0.3125 -0.5,-0.1875 -1,-0.4375 -0.48438,-0.265625 -0.89063,-0.625 -0.39062,-0.375 -0.65625,-0.875 -0.25,-0.515625 -0.25,-1.171875 0,-0.71875 0.28125,-1.328125 0.29688,-0.625 0.82813,-1.046875 0.53125,-0.4375 1.26562,-0.671875 0.75,-0.25 1.67188,-0.25 1.21875,0 2.125,0.421875 0.92187,0.40625 1.60937,0.921875 l -1.40625,1.875 q -0.57812,-0.4375 -1.14062,-0.671875 -0.54688,-0.234375 -1.09375,-0.234375 -1.20313,0 -1.20313,0.84375 0,0.25 0.17188,0.4375 0.17187,0.171875 0.45312,0.328125 0.29688,0.140625 0.67188,0.28125 0.375,0.140625 0.78125,0.296875 0.5,0.1875 1,0.4375 0.5,0.234375 0.92187,0.609375 0.42188,0.359375 0.67188,0.890625 0.25,0.515625 0.25,1.234375 0,0.71875 -0.28125,1.34375 -0.26563,0.625 -0.82813,1.078125 -0.54687,0.453125 -1.35937,0.71875 -0.8125,0.265625 -1.875,0.265625 z m 9.97485,0 q -0.96875,0 -1.67187,-0.296875 -0.6875,-0.296875 -1.125,-0.828125 -0.4375,-0.53125 -0.64063,-1.28125 -0.20312,-0.765625 -0.20312,-1.6875 v -4.28125 h -1.45313 V 23.6106 l 1.625,-0.125 0.35938,-2.8125 h 2.60937 v 2.8125 h 2.53125 v 2.453125 h -2.53125 v 4.25 q 0,0.890625 0.35938,1.28125 0.375,0.390625 1,0.390625 0.25,0 0.51562,-0.0625 0.28125,-0.0625 0.48438,-0.140625 l 0.5,2.28125 q -0.4375,0.125 -1.01563,0.25 -0.5625,0.125 -1.34375,0.125 z"
         fill-rule="nonzero"
         id="path160" />
    </g>
    <path
       fill="#000000"
       fill-opacity="0"
       d="M 352.63254,213.84782 H 483.71915 V 234.9187 H 352.63254 Z"
       fill-rule="evenodd"
       id="path163" />
    <path
       fill="#000000"
       d="m 413.5359,231.52202 q -0.46875,0 -0.79687,-0.3125 -0.3125,-0.32813 -0.3125,-0.84375 0,-0.53125 0.3125,-0.85938 0.32812,-0.32812 0.79687,-0.32812 0.45313,0 0.78125,0.32812 0.32813,0.32813 0.32813,0.85938 0,0.51562 -0.32813,0.84375 -0.32812,0.3125 -0.78125,0.3125 z m 4.64539,0 q -0.46875,0 -0.79688,-0.3125 -0.3125,-0.32813 -0.3125,-0.84375 0,-0.53125 0.3125,-0.85938 0.32813,-0.32812 0.79688,-0.32812 0.45312,0 0.78125,0.32812 0.32812,0.32813 0.32812,0.85938 0,0.51562 -0.32812,0.84375 -0.32813,0.3125 -0.78125,0.3125 z m 4.64541,0 q -0.46875,0 -0.79687,-0.3125 -0.3125,-0.32813 -0.3125,-0.84375 0,-0.53125 0.3125,-0.85938 0.32812,-0.32812 0.79687,-0.32812 0.45313,0 0.78125,0.32812 0.32813,0.32813 0.32813,0.85938 0,0.51562 -0.32813,0.84375 -0.32812,0.3125 -0.78125,0.3125 z"
       fill-rule="nonzero"
       id="path165" />
    <g
       filter="url(#shadowFilter-p.6)"
       id="g169">
      <use
         xlink:href="#p.6"
         transform="translate(0,2)"
         id="use167"
         x="0"
         y="0"
         width="100%"
         height="100%" />
    </g>
    <defs
       id="defs184">
      <filter
         id="shadowFilter-p.6"
         filterUnits="userSpaceOnUse">
        <feGaussianBlur
           in="SourceAlpha"
           stdDeviation="2.0"
           result="blur"
           id="feGaussianBlur171" />
        <feComponentTransfer
           in="blur"
           color-interpolation-filters="sRGB"
           id="feComponentTransfer181">
          <feFuncR
             type="linear"
             slope="0"
             intercept="0.0"
             id="feFuncR173" />
          <feFuncG
             type="linear"
             slope="0"
             intercept="0.0"
             id="feFuncG175" />
          <feFuncB
             type="linear"
             slope="0"
             intercept="0.0"
             id="feFuncB177" />
          <feFuncA
             type="linear"
             slope="0.5"
             intercept="0"
             id="feFuncA179" />
        </feComponentTransfer>
      </filter>
    </defs>
    <g
       id="p.6">
      <path
         fill="#93c47d"
         d="m 323.02625,75.34523 v 0 c 0,-1.854759 1.50357,-3.358337 3.35834,-3.358337 h 183.58255 c 0.89068,0 1.74487,0.35382 2.37466,0.983635 0.62982,0.629806 0.98364,1.484016 0.98364,2.374702 v 23.519547 c 0,1.854763 -1.50357,3.358333 -3.3583,3.358333 H 326.38459 c -1.85477,0 -3.35834,-1.50357 -3.35834,-3.358333 z"
         fill-rule="evenodd"
         id="path186" />
      <path
         fill="#000000"
         d="m 338.11923,94.24375 q -1.23437,0 -2.39062,-0.453125 -1.14063,-0.46875 -2.01563,-1.328125 l 1.28125,-1.484375 q 0.64063,0.625 1.48438,1.015625 0.84375,0.375 1.6875,0.375 1.03125,0 1.57812,-0.421875 0.54688,-0.4375 0.54688,-1.15625 0,-0.359375 -0.14063,-0.625 Q 340.00986,89.9 339.75986,89.7125 q -0.25,-0.203125 -0.60938,-0.359375 -0.34375,-0.171875 -0.75,-0.34375 L 336.72861,88.275 q -0.45313,-0.1875 -0.89063,-0.46875 -0.4375,-0.28125 -0.79687,-0.671875 -0.35938,-0.390625 -0.57813,-0.90625 -0.20312,-0.53125 -0.20312,-1.203125 0,-0.71875 0.29687,-1.34375 0.3125,-0.625 0.85938,-1.09375 0.54687,-0.46875 1.29687,-0.71875 0.75,-0.265625 1.65625,-0.265625 1.0625,0 2.04688,0.421875 0.98437,0.421875 1.70312,1.125 l -1.10937,1.375 q -0.59375,-0.484375 -1.23438,-0.765625 -0.625,-0.28125 -1.40625,-0.28125 -0.875,0 -1.40625,0.390625 -0.51562,0.375 -0.51562,1.046875 0,0.359375 0.15625,0.609375 0.15625,0.25 0.42187,0.453125 0.28125,0.1875 0.625,0.359375 0.35938,0.15625 0.73438,0.296875 l 1.65625,0.6875 q 0.54687,0.234375 0.98437,0.53125 0.45313,0.296875 0.78125,0.6875 0.32813,0.390625 0.51563,0.90625 0.1875,0.515625 0.1875,1.1875 0,0.734375 -0.29688,1.390625 -0.29687,0.65625 -0.875,1.15625 -0.5625,0.484375 -1.375,0.78125 -0.8125,0.28125 -1.84375,0.28125 z m 8.63641,0 q -1.20312,0 -1.95312,-0.734375 -0.75,-0.734375 -0.75,-1.953125 0,-0.71875 0.3125,-1.28125 0.3125,-0.578125 0.96875,-0.984375 0.65625,-0.421875 1.67187,-0.6875 1.01563,-0.28125 2.4375,-0.4375 -0.0156,-0.359375 -0.10937,-0.671875 -0.0781,-0.328125 -0.28125,-0.578125 -0.1875,-0.265625 -0.5,-0.40625 -0.3125,-0.140625 -0.78125,-0.140625 -0.67188,0 -1.32813,0.265625 -0.64062,0.265625 -1.25,0.640625 l -0.78125,-1.4375 q 0.76563,-0.484375 1.71875,-0.84375 0.95313,-0.359375 2.04688,-0.359375 1.71875,0 2.5625,1.03125 0.84375,1.015625 0.84375,2.9375 V 94.025 h -1.76563 l -0.14062,-1 h -0.0781 q -0.625,0.515625 -1.32812,0.875 -0.6875,0.34375 -1.51563,0.34375 z m 0.6875,-1.671875 q 0.5625,0 1.01563,-0.265625 0.46875,-0.265625 0.98437,-0.75 v -2.046875 q -0.9375,0.109375 -1.57812,0.296875 -0.625,0.1875 -1.01563,0.421875 -0.39062,0.234375 -0.5625,0.53125 -0.15625,0.296875 -0.15625,0.640625 0,0.609375 0.35938,0.890625 0.375,0.28125 0.95312,0.28125 z m 6.7204,1.453125 v -9.15625 h 1.78125 l 0.14063,1.25 h 0.0781 q 0.57813,-0.625 1.25,-1.046875 0.6875,-0.4375 1.54688,-0.4375 1,0 1.60937,0.4375 0.60938,0.421875 0.92188,1.203125 0.65625,-0.703125 1.35937,-1.171875 0.71875,-0.46875 1.59375,-0.46875 1.45313,0 2.14063,0.953125 0.70312,0.9375 0.70312,2.6875 v 5.75 h -2.17187 v -5.46875 q 0,-1.140625 -0.34375,-1.59375 -0.34375,-0.46875 -1.0625,-0.46875 -0.84375,0 -1.90625,1.125 V 94.025 h -2.15625 v -5.46875 q 0,-1.140625 -0.34375,-1.59375 -0.34375,-0.46875 -1.07813,-0.46875 -0.84375,0 -1.92187,1.125 V 94.025 Z m 15.7272,3.625 V 84.86875 h 1.78125 l 0.14063,0.96875 h 0.0781 q 0.57813,-0.484375 1.28125,-0.84375 0.71875,-0.359375 1.48438,-0.359375 0.85937,0 1.51562,0.328125 0.65625,0.328125 1.125,0.953125 0.46875,0.609375 0.70313,1.46875 0.25,0.859375 0.25,1.921875 0,1.171875 -0.32813,2.09375 -0.32812,0.921875 -0.875,1.546875 -0.53125,0.625 -1.25,0.96875 -0.70312,0.328125 -1.46875,0.328125 -0.59375,0 -1.1875,-0.25 -0.59375,-0.265625 -1.15625,-0.75 l 0.0469,1.53125 v 2.875 z m 4,-5.171875 q 0.90625,0 1.51563,-0.796875 0.625,-0.796875 0.625,-2.359375 0,-1.375 -0.46875,-2.140625 -0.46875,-0.765625 -1.51563,-0.765625 -0.96875,0 -2.01562,1.03125 V 91.7125 q 0.51562,0.421875 0.96875,0.59375 0.46875,0.171875 0.89062,0.171875 z m 8.61588,1.765625 q -1.15625,0 -1.625,-0.6875 -0.46875,-0.6875 -0.46875,-1.875 V 80.853125 h 2.14062 v 10.9375 q 0,0.390625 0.15625,0.546875 0.15625,0.15625 0.3125,0.15625 0.0781,0 0.14063,0 0.0625,0 0.20312,-0.03125 l 0.28125,1.59375 q -0.4375,0.1875 -1.14062,0.1875 z m 6.88397,0 q -0.95312,0 -1.78125,-0.3125 -0.8125,-0.328125 -1.4375,-0.9375 -0.60937,-0.625 -0.95312,-1.515625 -0.34375,-0.890625 -0.34375,-2.03125 0,-1.109375 0.34375,-2 0.35937,-0.90625 0.95312,-1.515625 0.59375,-0.625 1.34375,-0.953125 0.76563,-0.34375 1.57813,-0.34375 0.92187,0 1.625,0.328125 0.71875,0.3125 1.1875,0.890625 0.48437,0.578125 0.71875,1.390625 0.25,0.796875 0.25,1.75 0,0.3125 -0.0312,0.59375 -0.0156,0.28125 -0.0625,0.4375 h -5.8125 q 0.14062,1.234375 0.85937,1.90625 0.71875,0.65625 1.84375,0.65625 0.59375,0 1.10938,-0.171875 0.51562,-0.1875 1.01562,-0.5 l 0.71875,1.34375 q -0.64062,0.4375 -1.45312,0.71875 -0.79688,0.265625 -1.67188,0.265625 z m -2.45312,-5.671875 h 4.07812 q 0,-1.0625 -0.46875,-1.65625 -0.45312,-0.609375 -1.40625,-0.609375 -0.8125,0 -1.4375,0.578125 -0.60937,0.578125 -0.76562,1.6875 z M 398.67431,94.025 v -1.75 h 2.65625 v -7.796875 h -2.1875 v -1.34375 q 0.90625,-0.171875 1.54688,-0.40625 0.64062,-0.234375 1.20312,-0.5625 h 1.59375 V 92.275 h 2.34375 v 1.75 z"
         fill-rule="nonzero"
         id="path188" />
    </g>
    <path
       fill="#ea9999"
       d="m 424.6614,79.545456 h 65.5748 v -7.559051 l 15.11813,15.118111 -15.11813,15.118114 v -7.559063 h -65.5748 z"
       fill-rule="evenodd"
       id="path191" />
    <path
       stroke="#000000"
       stroke-width="1"
       stroke-linejoin="round"
       stroke-linecap="butt"
       d="m 424.6614,79.545456 h 65.5748 v -7.559051 l 15.11813,15.118111 -15.11813,15.118114 v -7.559063 h -65.5748 z"
       fill-rule="evenodd"
       id="path193" />
    <g
       filter="url(#shadowFilter-p.7)"
       id="g197">
      <use
         xlink:href="#p.7"
         transform="translate(0,2)"
         id="use195"
         x="0"
         y="0"
         width="100%"
         height="100%" />
    </g>
    <defs
       id="defs212">
      <filter
         id="shadowFilter-p.7"
         filterUnits="userSpaceOnUse">
        <feGaussianBlur
           in="SourceAlpha"
           stdDeviation="2.0"
           result="blur"
           id="feGaussianBlur199" />
        <feComponentTransfer
           in="blur"
           color-interpolation-filters="sRGB"
           id="feComponentTransfer209">
          <feFuncR
             type="linear"
             slope="0"
             intercept="0.0"
             id="feFuncR201" />
          <feFuncG
             type="linear"
             slope="0"
             intercept="0.0"
             id="feFuncG203" />
          <feFuncB
             type="linear"
             slope="0"
             intercept="0.0"
             id="feFuncB205" />
          <feFuncA
             type="linear"
             slope="0.5"
             intercept="0"
             id="feFuncA207" />
        </feComponentTransfer>
      </filter>
    </defs>
    <g
       id="p.7">
      <path
         fill="#93c47d"
         d="m 323.02625,112.00665 v 0 c 0,-1.85476 1.50357,-3.35834 3.35834,-3.35834 h 183.58255 c 0.89068,0 1.74487,0.35383 2.37466,0.98363 0.62982,0.62982 0.98364,1.48402 0.98364,2.37471 v 23.51955 c 0,1.85475 -1.50357,3.35834 -3.3583,3.35834 H 326.38459 c -1.85477,0 -3.35834,-1.50359 -3.35834,-3.35834 z"
         fill-rule="evenodd"
         id="path214" />
      <path
         fill="#000000"
         d="m 338.11923,130.90517 q -1.23437,0 -2.39062,-0.45313 -1.14063,-0.46875 -2.01563,-1.32812 l 1.28125,-1.48438 q 0.64063,0.625 1.48438,1.01563 0.84375,0.375 1.6875,0.375 1.03125,0 1.57812,-0.42188 0.54688,-0.4375 0.54688,-1.15625 0,-0.35937 -0.14063,-0.625 -0.14062,-0.26562 -0.39062,-0.45312 -0.25,-0.20313 -0.60938,-0.35938 -0.34375,-0.17187 -0.75,-0.34375 l -1.67187,-0.73437 q -0.45313,-0.1875 -0.89063,-0.46875 -0.4375,-0.28125 -0.79687,-0.67188 -0.35938,-0.39062 -0.57813,-0.90625 -0.20312,-0.53125 -0.20312,-1.20312 0,-0.71875 0.29687,-1.34375 0.3125,-0.625 0.85938,-1.09375 0.54687,-0.46875 1.29687,-0.71875 0.75,-0.26563 1.65625,-0.26563 1.0625,0 2.04688,0.42188 0.98437,0.42187 1.70312,1.125 l -1.10937,1.375 q -0.59375,-0.48438 -1.23438,-0.76563 -0.625,-0.28125 -1.40625,-0.28125 -0.875,0 -1.40625,0.39063 -0.51562,0.375 -0.51562,1.04687 0,0.35938 0.15625,0.60938 0.15625,0.25 0.42187,0.45312 0.28125,0.1875 0.625,0.35938 0.35938,0.15625 0.73438,0.29687 l 1.65625,0.6875 q 0.54687,0.23438 0.98437,0.53125 0.45313,0.29688 0.78125,0.6875 0.32813,0.39063 0.51563,0.90625 0.1875,0.51563 0.1875,1.1875 0,0.73438 -0.29688,1.39063 -0.29687,0.65625 -0.875,1.15625 -0.5625,0.48437 -1.375,0.78125 -0.8125,0.28125 -1.84375,0.28125 z m 8.63641,0 q -1.20312,0 -1.95312,-0.73438 -0.75,-0.73437 -0.75,-1.95312 0,-0.71875 0.3125,-1.28125 0.3125,-0.57813 0.96875,-0.98438 0.65625,-0.42187 1.67187,-0.6875 1.01563,-0.28125 2.4375,-0.4375 -0.0156,-0.35937 -0.10937,-0.67187 -0.0781,-0.32813 -0.28125,-0.57813 -0.1875,-0.26562 -0.5,-0.40625 -0.3125,-0.14062 -0.78125,-0.14062 -0.67188,0 -1.32813,0.26562 -0.64062,0.26563 -1.25,0.64063 l -0.78125,-1.4375 q 0.76563,-0.48438 1.71875,-0.84375 0.95313,-0.35938 2.04688,-0.35938 1.71875,0 2.5625,1.03125 0.84375,1.01563 0.84375,2.9375 v 5.42188 h -1.76563 l -0.14062,-1 h -0.0781 q -0.625,0.51562 -1.32812,0.875 -0.6875,0.34375 -1.51563,0.34375 z m 0.6875,-1.67188 q 0.5625,0 1.01563,-0.26562 0.46875,-0.26563 0.98437,-0.75 v -2.04688 q -0.9375,0.10938 -1.57812,0.29688 -0.625,0.1875 -1.01563,0.42187 -0.39062,0.23438 -0.5625,0.53125 -0.15625,0.29688 -0.15625,0.64063 0,0.60937 0.35938,0.89062 0.375,0.28125 0.95312,0.28125 z m 6.7204,1.45313 v -9.15625 h 1.78125 l 0.14063,1.25 h 0.0781 q 0.57813,-0.625 1.25,-1.04688 0.6875,-0.4375 1.54688,-0.4375 1,0 1.60937,0.4375 0.60938,0.42188 0.92188,1.20313 0.65625,-0.70313 1.35937,-1.17188 0.71875,-0.46875 1.59375,-0.46875 1.45313,0 2.14063,0.95313 0.70312,0.9375 0.70312,2.6875 v 5.75 h -2.17187 v -5.46875 q 0,-1.14063 -0.34375,-1.59375 -0.34375,-0.46875 -1.0625,-0.46875 -0.84375,0 -1.90625,1.125 v 6.40625 h -2.15625 v -5.46875 q 0,-1.14063 -0.34375,-1.59375 -0.34375,-0.46875 -1.07813,-0.46875 -0.84375,0 -1.92187,1.125 v 6.40625 z m 15.7272,3.625 v -12.78125 h 1.78125 l 0.14063,0.96875 h 0.0781 q 0.57813,-0.48438 1.28125,-0.84375 0.71875,-0.35938 1.48438,-0.35938 0.85937,0 1.51562,0.32813 0.65625,0.32812 1.125,0.95312 0.46875,0.60938 0.70313,1.46875 0.25,0.85938 0.25,1.92188 0,1.17187 -0.32813,2.09375 -0.32812,0.92187 -0.875,1.54687 -0.53125,0.625 -1.25,0.96875 -0.70312,0.32813 -1.46875,0.32813 -0.59375,0 -1.1875,-0.25 -0.59375,-0.26563 -1.15625,-0.75 l 0.0469,1.53125 v 2.875 z m 4,-5.17188 q 0.90625,0 1.51563,-0.79687 0.625,-0.79688 0.625,-2.35938 0,-1.375 -0.46875,-2.14062 -0.46875,-0.76563 -1.51563,-0.76563 -0.96875,0 -2.01562,1.03125 v 4.26563 q 0.51562,0.42187 0.96875,0.59375 0.46875,0.17187 0.89062,0.17187 z m 8.61588,1.76563 q -1.15625,0 -1.625,-0.6875 -0.46875,-0.6875 -0.46875,-1.875 v -10.82813 h 2.14062 v 10.9375 q 0,0.39063 0.15625,0.54688 0.15625,0.15625 0.3125,0.15625 0.0781,0 0.14063,0 0.0625,0 0.20312,-0.0312 l 0.28125,1.59375 q -0.4375,0.1875 -1.14062,0.1875 z m 6.88397,0 q -0.95312,0 -1.78125,-0.3125 -0.8125,-0.32813 -1.4375,-0.9375 -0.60937,-0.625 -0.95312,-1.51563 -0.34375,-0.89062 -0.34375,-2.03125 0,-1.10937 0.34375,-2 0.35937,-0.90625 0.95312,-1.51562 0.59375,-0.625 1.34375,-0.95313 0.76563,-0.34375 1.57813,-0.34375 0.92187,0 1.625,0.32813 0.71875,0.3125 1.1875,0.89062 0.48437,0.57813 0.71875,1.39063 0.25,0.79687 0.25,1.75 0,0.3125 -0.0312,0.59375 -0.0156,0.28125 -0.0625,0.4375 h -5.8125 q 0.14062,1.23437 0.85937,1.90625 0.71875,0.65625 1.84375,0.65625 0.59375,0 1.10938,-0.17188 0.51562,-0.1875 1.01562,-0.5 l 0.71875,1.34375 q -0.64062,0.4375 -1.45312,0.71875 -0.79688,0.26563 -1.67188,0.26563 z m -2.45312,-5.67188 h 4.07812 q 0,-1.0625 -0.46875,-1.65625 -0.45312,-0.60937 -1.40625,-0.60937 -0.8125,0 -1.4375,0.57812 -0.60937,0.57813 -0.76562,1.6875 z m 11.73684,5.45313 v -1.75 h 2.65625 v -7.79688 h -2.1875 v -1.34375 q 0.90625,-0.17187 1.54688,-0.40625 0.64062,-0.23437 1.20312,-0.5625 h 1.59375 v 10.10938 h 2.34375 v 1.75 z"
         fill-rule="nonzero"
         id="path216" />
    </g>
    <path
       fill="#a4c2f4"
       d="m 505.35434,131.32498 h -65.5748 v 7.55905 l -15.11813,-15.1181 15.11813,-15.11811 v 7.55905 h 65.5748 z"
       fill-rule="evenodd"
       id="path219" />
    <path
       stroke="#000000"
       stroke-width="1"
       stroke-linejoin="round"
       stroke-linecap="butt"
       d="m 505.35434,131.32498 h -65.5748 v 7.55905 l -15.11813,-15.1181 15.11813,-15.11811 v 7.55905 h 65.5748 z"
       fill-rule="evenodd"
       id="path221" />
    <g
       filter="url(#shadowFilter-p.8)"
       id="g225">
      <use
         xlink:href="#p.8"
         transform="translate(0,2)"
         id="use223"
         x="0"
         y="0"
         width="100%"
         height="100%" />
    </g>
    <defs
       id="defs240">
      <filter
         id="shadowFilter-p.8"
         filterUnits="userSpaceOnUse">
        <feGaussianBlur
           in="SourceAlpha"
           stdDeviation="2.0"
           result="blur"
           id="feGaussianBlur227" />
        <feComponentTransfer
           in="blur"
           color-interpolation-filters="sRGB"
           id="feComponentTransfer237">
          <feFuncR
             type="linear"
             slope="0"
             intercept="0.0"
             id="feFuncR229" />
          <feFuncG
             type="linear"
             slope="0"
             intercept="0.0"
             id="feFuncG231" />
          <feFuncB
             type="linear"
             slope="0"
             intercept="0.0"
             id="feFuncB233" />
          <feFuncA
             type="linear"
             slope="0.5"
             intercept="0"
             id="feFuncA235" />
        </feComponentTransfer>
      </filter>
    </defs>
    <g
       id="p.8">
      <path
         fill="#93c47d"
         d="m 323.02625,148.66806 v 0 c 0,-1.85475 1.50357,-3.35834 3.35834,-3.35834 h 183.58255 c 0.89068,0 1.74487,0.35382 2.37466,0.98365 0.62982,0.6298 0.98364,1.484 0.98364,2.37469 v 23.51955 c 0,1.85476 -1.50357,3.35833 -3.3583,3.35833 H 326.38459 c -1.85477,0 -3.35834,-1.50357 -3.35834,-3.35833 z"
         fill-rule="evenodd"
         id="path242" />
      <path
         fill="#000000"
         d="m 338.11923,167.56659 q -1.23437,0 -2.39062,-0.45313 -1.14063,-0.46875 -2.01563,-1.32812 l 1.28125,-1.48438 q 0.64063,0.625 1.48438,1.01563 0.84375,0.375 1.6875,0.375 1.03125,0 1.57812,-0.42188 0.54688,-0.4375 0.54688,-1.15625 0,-0.35937 -0.14063,-0.625 -0.14062,-0.26562 -0.39062,-0.45312 -0.25,-0.20313 -0.60938,-0.35938 -0.34375,-0.17187 -0.75,-0.34375 l -1.67187,-0.73437 q -0.45313,-0.1875 -0.89063,-0.46875 -0.4375,-0.28125 -0.79687,-0.67188 -0.35938,-0.39062 -0.57813,-0.90625 -0.20312,-0.53125 -0.20312,-1.20312 0,-0.71875 0.29687,-1.34375 0.3125,-0.625 0.85938,-1.09375 0.54687,-0.46875 1.29687,-0.71875 0.75,-0.26563 1.65625,-0.26563 1.0625,0 2.04688,0.42188 0.98437,0.42187 1.70312,1.125 l -1.10937,1.375 q -0.59375,-0.48438 -1.23438,-0.76563 -0.625,-0.28125 -1.40625,-0.28125 -0.875,0 -1.40625,0.39063 -0.51562,0.375 -0.51562,1.04687 0,0.35938 0.15625,0.60938 0.15625,0.25 0.42187,0.45312 0.28125,0.1875 0.625,0.35938 0.35938,0.15625 0.73438,0.29687 l 1.65625,0.6875 q 0.54687,0.23438 0.98437,0.53125 0.45313,0.29688 0.78125,0.6875 0.32813,0.39063 0.51563,0.90625 0.1875,0.51563 0.1875,1.1875 0,0.73438 -0.29688,1.39063 -0.29687,0.65625 -0.875,1.15625 -0.5625,0.48437 -1.375,0.78125 -0.8125,0.28125 -1.84375,0.28125 z m 8.63641,0 q -1.20312,0 -1.95312,-0.73438 -0.75,-0.73437 -0.75,-1.95312 0,-0.71875 0.3125,-1.28125 0.3125,-0.57813 0.96875,-0.98438 0.65625,-0.42187 1.67187,-0.6875 1.01563,-0.28125 2.4375,-0.4375 -0.0156,-0.35937 -0.10937,-0.67187 -0.0781,-0.32813 -0.28125,-0.57813 -0.1875,-0.26562 -0.5,-0.40625 -0.3125,-0.14062 -0.78125,-0.14062 -0.67188,0 -1.32813,0.26562 -0.64062,0.26563 -1.25,0.64063 l -0.78125,-1.4375 q 0.76563,-0.48438 1.71875,-0.84375 0.95313,-0.35938 2.04688,-0.35938 1.71875,0 2.5625,1.03125 0.84375,1.01563 0.84375,2.9375 v 5.42188 h -1.76563 l -0.14062,-1 h -0.0781 q -0.625,0.51562 -1.32812,0.875 -0.6875,0.34375 -1.51563,0.34375 z m 0.6875,-1.67188 q 0.5625,0 1.01563,-0.26562 0.46875,-0.26563 0.98437,-0.75 v -2.04688 q -0.9375,0.10938 -1.57812,0.29688 -0.625,0.1875 -1.01563,0.42187 -0.39062,0.23438 -0.5625,0.53125 -0.15625,0.29688 -0.15625,0.64063 0,0.60937 0.35938,0.89062 0.375,0.28125 0.95312,0.28125 z m 6.7204,1.45313 v -9.15625 h 1.78125 l 0.14063,1.25 h 0.0781 q 0.57813,-0.625 1.25,-1.04688 0.6875,-0.4375 1.54688,-0.4375 1,0 1.60937,0.4375 0.60938,0.42188 0.92188,1.20313 0.65625,-0.70313 1.35937,-1.17188 0.71875,-0.46875 1.59375,-0.46875 1.45313,0 2.14063,0.95313 0.70312,0.9375 0.70312,2.6875 v 5.75 h -2.17187 v -5.46875 q 0,-1.14063 -0.34375,-1.59375 -0.34375,-0.46875 -1.0625,-0.46875 -0.84375,0 -1.90625,1.125 v 6.40625 h -2.15625 v -5.46875 q 0,-1.14063 -0.34375,-1.59375 -0.34375,-0.46875 -1.07813,-0.46875 -0.84375,0 -1.92187,1.125 v 6.40625 z m 15.7272,3.625 v -12.78125 h 1.78125 l 0.14063,0.96875 h 0.0781 q 0.57813,-0.48438 1.28125,-0.84375 0.71875,-0.35938 1.48438,-0.35938 0.85937,0 1.51562,0.32813 0.65625,0.32812 1.125,0.95312 0.46875,0.60938 0.70313,1.46875 0.25,0.85938 0.25,1.92188 0,1.17187 -0.32813,2.09375 -0.32812,0.92187 -0.875,1.54687 -0.53125,0.625 -1.25,0.96875 -0.70312,0.32813 -1.46875,0.32813 -0.59375,0 -1.1875,-0.25 -0.59375,-0.26563 -1.15625,-0.75 l 0.0469,1.53125 v 2.875 z m 4,-5.17188 q 0.90625,0 1.51563,-0.79687 0.625,-0.79688 0.625,-2.35938 0,-1.375 -0.46875,-2.14062 -0.46875,-0.76563 -1.51563,-0.76563 -0.96875,0 -2.01562,1.03125 v 4.26563 q 0.51562,0.42187 0.96875,0.59375 0.46875,0.17187 0.89062,0.17187 z m 8.61588,1.76563 q -1.15625,0 -1.625,-0.6875 -0.46875,-0.6875 -0.46875,-1.875 v -10.82813 h 2.14062 v 10.9375 q 0,0.39063 0.15625,0.54688 0.15625,0.15625 0.3125,0.15625 0.0781,0 0.14063,0 0.0625,0 0.20312,-0.0312 l 0.28125,1.59375 q -0.4375,0.1875 -1.14062,0.1875 z m 6.88397,0 q -0.95312,0 -1.78125,-0.3125 -0.8125,-0.32813 -1.4375,-0.9375 -0.60937,-0.625 -0.95312,-1.51563 -0.34375,-0.89062 -0.34375,-2.03125 0,-1.10937 0.34375,-2 0.35937,-0.90625 0.95312,-1.51562 0.59375,-0.625 1.34375,-0.95313 0.76563,-0.34375 1.57813,-0.34375 0.92187,0 1.625,0.32813 0.71875,0.3125 1.1875,0.89062 0.48437,0.57813 0.71875,1.39063 0.25,0.79687 0.25,1.75 0,0.3125 -0.0312,0.59375 -0.0156,0.28125 -0.0625,0.4375 h -5.8125 q 0.14062,1.23437 0.85937,1.90625 0.71875,0.65625 1.84375,0.65625 0.59375,0 1.10938,-0.17188 0.51562,-0.1875 1.01562,-0.5 l 0.71875,1.34375 q -0.64062,0.4375 -1.45312,0.71875 -0.79688,0.26563 -1.67188,0.26563 z m -2.45312,-5.67188 h 4.07812 q 0,-1.0625 -0.46875,-1.65625 -0.45312,-0.60937 -1.40625,-0.60937 -0.8125,0 -1.4375,0.57812 -0.60937,0.57813 -0.76562,1.6875 z m 11.06497,5.45313 v -1.25 q 1.23437,-1.1875 2.23437,-2.1875 1,-1.01563 1.6875,-1.875 0.70313,-0.85938 1.07813,-1.60938 0.375,-0.75 0.375,-1.42187 0,-0.95313 -0.5,-1.5 -0.5,-0.54688 -1.45313,-0.54688 -0.6875,0 -1.26562,0.39063 -0.5625,0.39062 -1.04688,0.9375 l -1.20312,-1.20313 q 0.82812,-0.875 1.6875,-1.34375 0.875,-0.48437 2.10937,-0.48437 0.85938,0 1.54688,0.26562 0.6875,0.26563 1.17187,0.75 0.48438,0.46875 0.75,1.14063 0.28125,0.67187 0.28125,1.48437 0,0.78125 -0.34375,1.59375 -0.34375,0.8125 -0.9375,1.64063 -0.59375,0.82812 -1.375,1.71875 -0.78125,0.875 -1.65625,1.79687 0.46875,-0.0312 1,-0.0781 0.54688,-0.0469 0.98438,-0.0469 h 2.90625 v 1.82813 z"
         fill-rule="nonzero"
         id="path244" />
    </g>
    <path
       fill="#ea9999"
       d="m 424.6614,152.86829 h 65.5748 v -7.55905 l 15.11813,15.11812 -15.11813,15.1181 v -7.55905 h -65.5748 z"
       fill-rule="evenodd"
       id="path247" />
    <path
       stroke="#000000"
       stroke-width="1"
       stroke-linejoin="round"
       stroke-linecap="butt"
       d="m 424.6614,152.86829 h 65.5748 v -7.55905 l 15.11813,15.11812 -15.11813,15.1181 v -7.55905 h -65.5748 z"
       fill-rule="evenodd"
       id="path249" />
    <g
       filter="url(#shadowFilter-p.9)"
       id="g253">
      <use
         xlink:href="#p.9"
         transform="translate(0,2)"
         id="use251"
         x="0"
         y="0"
         width="100%"
         height="100%" />
    </g>
    <defs
       id="defs268">
      <filter
         id="shadowFilter-p.9"
         filterUnits="userSpaceOnUse">
        <feGaussianBlur
           in="SourceAlpha"
           stdDeviation="2.0"
           result="blur"
           id="feGaussianBlur255" />
        <feComponentTransfer
           in="blur"
           color-interpolation-filters="sRGB"
           id="feComponentTransfer265">
          <feFuncR
             type="linear"
             slope="0"
             intercept="0.0"
             id="feFuncR257" />
          <feFuncG
             type="linear"
             slope="0"
             intercept="0.0"
             id="feFuncG259" />
          <feFuncB
             type="linear"
             slope="0"
             intercept="0.0"
             id="feFuncB261" />
          <feFuncA
             type="linear"
             slope="0.5"
             intercept="0"
             id="feFuncA263" />
        </feComponentTransfer>
      </filter>
    </defs>
    <g
       id="p.9">
      <path
         fill="#93c47d"
         d="m 323.02625,249.30061 v 0 c 0,-1.85477 1.50357,-3.35834 3.35834,-3.35834 h 183.58255 c 0.89068,0 1.74487,0.35382 2.37466,0.98363 0.62982,0.62981 0.98364,1.48402 0.98364,2.37471 v 23.51955 c 0,1.85476 -1.50357,3.35833 -3.3583,3.35833 H 326.38459 c -1.85477,0 -3.35834,-1.50357 -3.35834,-3.35833 z"
         fill-rule="evenodd"
         id="path270" />
      <path
         fill="#000000"
         d="m 338.11923,268.19913 q -1.23437,0 -2.39062,-0.45312 -1.14063,-0.46875 -2.01563,-1.32813 l 1.28125,-1.48437 q 0.64063,0.625 1.48438,1.01562 0.84375,0.375 1.6875,0.375 1.03125,0 1.57812,-0.42187 0.54688,-0.4375 0.54688,-1.15625 0,-0.35938 -0.14063,-0.625 -0.14062,-0.26563 -0.39062,-0.45313 -0.25,-0.20312 -0.60938,-0.35937 -0.34375,-0.17188 -0.75,-0.34375 l -1.67187,-0.73438 q -0.45313,-0.1875 -0.89063,-0.46875 -0.4375,-0.28125 -0.79687,-0.67187 -0.35938,-0.39063 -0.57813,-0.90625 -0.20312,-0.53125 -0.20312,-1.20313 0,-0.71875 0.29687,-1.34375 0.3125,-0.625 0.85938,-1.09375 0.54687,-0.46875 1.29687,-0.71875 0.75,-0.26562 1.65625,-0.26562 1.0625,0 2.04688,0.42187 0.98437,0.42188 1.70312,1.125 l -1.10937,1.375 q -0.59375,-0.48437 -1.23438,-0.76562 -0.625,-0.28125 -1.40625,-0.28125 -0.875,0 -1.40625,0.39062 -0.51562,0.375 -0.51562,1.04688 0,0.35937 0.15625,0.60937 0.15625,0.25 0.42187,0.45313 0.28125,0.1875 0.625,0.35937 0.35938,0.15625 0.73438,0.29688 l 1.65625,0.6875 q 0.54687,0.23437 0.98437,0.53125 0.45313,0.29687 0.78125,0.6875 0.32813,0.39062 0.51563,0.90625 0.1875,0.51562 0.1875,1.1875 0,0.73437 -0.29688,1.39062 -0.29687,0.65625 -0.875,1.15625 -0.5625,0.48438 -1.375,0.78125 -0.8125,0.28125 -1.84375,0.28125 z m 8.63641,0 q -1.20312,0 -1.95312,-0.73437 -0.75,-0.73438 -0.75,-1.95313 0,-0.71875 0.3125,-1.28125 0.3125,-0.57812 0.96875,-0.98437 0.65625,-0.42188 1.67187,-0.6875 1.01563,-0.28125 2.4375,-0.4375 -0.0156,-0.35938 -0.10937,-0.67188 -0.0781,-0.32812 -0.28125,-0.57812 -0.1875,-0.26563 -0.5,-0.40625 -0.3125,-0.14063 -0.78125,-0.14063 -0.67188,0 -1.32813,0.26563 -0.64062,0.26562 -1.25,0.64062 l -0.78125,-1.4375 q 0.76563,-0.48437 1.71875,-0.84375 0.95313,-0.35937 2.04688,-0.35937 1.71875,0 2.5625,1.03125 0.84375,1.01562 0.84375,2.9375 v 5.42187 h -1.76563 l -0.14062,-1 h -0.0781 q -0.625,0.51563 -1.32812,0.875 -0.6875,0.34375 -1.51563,0.34375 z m 0.6875,-1.67187 q 0.5625,0 1.01563,-0.26563 0.46875,-0.26562 0.98437,-0.75 v -2.04687 q -0.9375,0.10937 -1.57812,0.29687 -0.625,0.1875 -1.01563,0.42188 -0.39062,0.23437 -0.5625,0.53125 -0.15625,0.29687 -0.15625,0.64062 0,0.60938 0.35938,0.89063 0.375,0.28125 0.95312,0.28125 z m 6.7204,1.45312 v -9.15625 h 1.78125 l 0.14063,1.25 h 0.0781 q 0.57813,-0.625 1.25,-1.04687 0.6875,-0.4375 1.54688,-0.4375 1,0 1.60937,0.4375 0.60938,0.42187 0.92188,1.20312 0.65625,-0.70312 1.35937,-1.17187 0.71875,-0.46875 1.59375,-0.46875 1.45313,0 2.14063,0.95312 0.70312,0.9375 0.70312,2.6875 v 5.75 h -2.17187 v -5.46875 q 0,-1.14062 -0.34375,-1.59375 -0.34375,-0.46875 -1.0625,-0.46875 -0.84375,0 -1.90625,1.125 v 6.40625 h -2.15625 v -5.46875 q 0,-1.14062 -0.34375,-1.59375 -0.34375,-0.46875 -1.07813,-0.46875 -0.84375,0 -1.92187,1.125 v 6.40625 z m 15.7272,3.625 v -12.78125 h 1.78125 l 0.14063,0.96875 h 0.0781 q 0.57813,-0.48437 1.28125,-0.84375 0.71875,-0.35937 1.48438,-0.35937 0.85937,0 1.51562,0.32812 0.65625,0.32813 1.125,0.95313 0.46875,0.60937 0.70313,1.46875 0.25,0.85937 0.25,1.92187 0,1.17188 -0.32813,2.09375 -0.32812,0.92188 -0.875,1.54688 -0.53125,0.625 -1.25,0.96875 -0.70312,0.32812 -1.46875,0.32812 -0.59375,0 -1.1875,-0.25 -0.59375,-0.26562 -1.15625,-0.75 l 0.0469,1.53125 v 2.875 z m 4,-5.17187 q 0.90625,0 1.51563,-0.79688 0.625,-0.79687 0.625,-2.35937 0,-1.375 -0.46875,-2.14063 -0.46875,-0.76562 -1.51563,-0.76562 -0.96875,0 -2.01562,1.03125 v 4.26562 q 0.51562,0.42188 0.96875,0.59375 0.46875,0.17188 0.89062,0.17188 z m 8.61588,1.76562 q -1.15625,0 -1.625,-0.6875 -0.46875,-0.6875 -0.46875,-1.875 v -10.82812 h 2.14062 v 10.9375 q 0,0.39062 0.15625,0.54687 0.15625,0.15625 0.3125,0.15625 0.0781,0 0.14063,0 0.0625,0 0.20312,-0.0312 l 0.28125,1.59375 q -0.4375,0.1875 -1.14062,0.1875 z m 6.88397,0 q -0.95312,0 -1.78125,-0.3125 -0.8125,-0.32812 -1.4375,-0.9375 -0.60937,-0.625 -0.95312,-1.51562 -0.34375,-0.89063 -0.34375,-2.03125 0,-1.10938 0.34375,-2 0.35937,-0.90625 0.95312,-1.51563 0.59375,-0.625 1.34375,-0.95312 0.76563,-0.34375 1.57813,-0.34375 0.92187,0 1.625,0.32812 0.71875,0.3125 1.1875,0.89063 0.48437,0.57812 0.71875,1.39062 0.25,0.79688 0.25,1.75 0,0.3125 -0.0312,0.59375 -0.0156,0.28125 -0.0625,0.4375 h -5.8125 q 0.14062,1.23438 0.85937,1.90625 0.71875,0.65625 1.84375,0.65625 0.59375,0 1.10938,-0.17187 0.51562,-0.1875 1.01562,-0.5 l 0.71875,1.34375 q -0.64062,0.4375 -1.45312,0.71875 -0.79688,0.26562 -1.67188,0.26562 z m -2.45312,-5.67187 h 4.07812 q 0,-1.0625 -0.46875,-1.65625 -0.45312,-0.60938 -1.40625,-0.60938 -0.8125,0 -1.4375,0.57813 -0.60937,0.57812 -0.76562,1.6875 z"
         fill-rule="nonzero"
         id="path272" />
      <path
         fill="#000000"
         d="m 397.89307,267.98038 2.42188,-12.20312 h 1.98437 l 2.39063,7.07812 0.70312,2.625 h 0.0781 q 0.10937,-0.95312 0.21875,-2.04687 0.10937,-1.10938 0.32812,-2.10938 l 1.09375,-5.54687 h 1.9375 l -2.4375,12.20312 h -1.96875 l -2.35937,-7.04687 -0.71875,-2.67188 h -0.0625 q -0.125,0.98438 -0.25,2.04688 -0.125,1.0625 -0.32813,2.07812 l -1.10937,5.59375 z"
         fill-rule="nonzero"
         id="path274" />
    </g>
    <path
       fill="#ea9999"
       d="m 424.6614,253.50084 h 65.5748 v -7.55905 l 15.11813,15.11812 -15.11813,15.1181 v -7.55905 h -65.5748 z"
       fill-rule="evenodd"
       id="path277" />
    <path
       stroke="#000000"
       stroke-width="1"
       stroke-linejoin="round"
       stroke-linecap="butt"
       d="m 424.6614,253.50084 h 65.5748 v -7.55905 l 15.11813,15.11812 -15.11813,15.1181 v -7.55905 h -65.5748 z"
       fill-rule="evenodd"
       id="path279" />
    <g
       filter="url(#shadowFilter-p.10)"
       id="g283">
      <use
         xlink:href="#p.10"
         transform="translate(0,2)"
         id="use281"
         x="0"
         y="0"
         width="100%"
         height="100%" />
    </g>
    <defs
       id="defs298">
      <filter
         id="shadowFilter-p.10"
         filterUnits="userSpaceOnUse">
        <feGaussianBlur
           in="SourceAlpha"
           stdDeviation="2.0"
           result="blur"
           id="feGaussianBlur285" />
        <feComponentTransfer
           in="blur"
           color-interpolation-filters="sRGB"
           id="feComponentTransfer295">
          <feFuncR
             type="linear"
             slope="0"
             intercept="0.0"
             id="feFuncR287" />
          <feFuncG
             type="linear"
             slope="0"
             intercept="0.0"
             id="feFuncG289" />
          <feFuncB
             type="linear"
             slope="0"
             intercept="0.0"
             id="feFuncB291" />
          <feFuncA
             type="linear"
             slope="0.5"
             intercept="0"
             id="feFuncA293" />
        </feComponentTransfer>
      </filter>
    </defs>
    <g
       id="p.10">
      <path
         fill="#93c47d"
         d="m 323.02625,285.96204 v 0 c 0,-1.85477 1.50357,-3.35834 3.35834,-3.35834 h 183.58255 c 0.89068,0 1.74487,0.35382 2.37466,0.98361 0.62982,0.62983 0.98364,1.48404 0.98364,2.37473 v 23.51953 c 0,1.85477 -1.50357,3.35834 -3.3583,3.35834 H 326.38459 c -1.85477,0 -3.35834,-1.50357 -3.35834,-3.35834 z"
         fill-rule="evenodd"
         id="path300" />
      <path
         fill="#000000"
         d="m 338.11923,304.86053 q -1.23437,0 -2.39062,-0.45313 -1.14063,-0.46875 -2.01563,-1.32812 l 1.28125,-1.48438 q 0.64063,0.625 1.48438,1.01563 0.84375,0.375 1.6875,0.375 1.03125,0 1.57812,-0.42188 0.54688,-0.4375 0.54688,-1.15625 0,-0.35937 -0.14063,-0.625 -0.14062,-0.26562 -0.39062,-0.45312 -0.25,-0.20313 -0.60938,-0.35938 -0.34375,-0.17187 -0.75,-0.34375 l -1.67187,-0.73437 q -0.45313,-0.1875 -0.89063,-0.46875 -0.4375,-0.28125 -0.79687,-0.67188 -0.35938,-0.39062 -0.57813,-0.90625 -0.20312,-0.53125 -0.20312,-1.20312 0,-0.71875 0.29687,-1.34375 0.3125,-0.625 0.85938,-1.09375 0.54687,-0.46875 1.29687,-0.71875 0.75,-0.26563 1.65625,-0.26563 1.0625,0 2.04688,0.42188 0.98437,0.42187 1.70312,1.125 l -1.10937,1.375 q -0.59375,-0.48438 -1.23438,-0.76563 -0.625,-0.28125 -1.40625,-0.28125 -0.875,0 -1.40625,0.39063 -0.51562,0.375 -0.51562,1.04687 0,0.35938 0.15625,0.60938 0.15625,0.25 0.42187,0.45312 0.28125,0.1875 0.625,0.35938 0.35938,0.15625 0.73438,0.29687 l 1.65625,0.6875 q 0.54687,0.23438 0.98437,0.53125 0.45313,0.29688 0.78125,0.6875 0.32813,0.39063 0.51563,0.90625 0.1875,0.51563 0.1875,1.1875 0,0.73438 -0.29688,1.39063 -0.29687,0.65625 -0.875,1.15625 -0.5625,0.48437 -1.375,0.78125 -0.8125,0.28125 -1.84375,0.28125 z m 8.63641,0 q -1.20312,0 -1.95312,-0.73438 -0.75,-0.73437 -0.75,-1.95312 0,-0.71875 0.3125,-1.28125 0.3125,-0.57813 0.96875,-0.98438 0.65625,-0.42187 1.67187,-0.6875 1.01563,-0.28125 2.4375,-0.4375 -0.0156,-0.35937 -0.10937,-0.67187 -0.0781,-0.32813 -0.28125,-0.57813 -0.1875,-0.26562 -0.5,-0.40625 -0.3125,-0.14062 -0.78125,-0.14062 -0.67188,0 -1.32813,0.26562 -0.64062,0.26563 -1.25,0.64063 l -0.78125,-1.4375 q 0.76563,-0.48438 1.71875,-0.84375 0.95313,-0.35938 2.04688,-0.35938 1.71875,0 2.5625,1.03125 0.84375,1.01563 0.84375,2.9375 v 5.42188 h -1.76563 l -0.14062,-1 h -0.0781 q -0.625,0.51562 -1.32812,0.875 -0.6875,0.34375 -1.51563,0.34375 z m 0.6875,-1.67188 q 0.5625,0 1.01563,-0.26562 0.46875,-0.26563 0.98437,-0.75 v -2.04688 q -0.9375,0.10938 -1.57812,0.29688 -0.625,0.1875 -1.01563,0.42187 -0.39062,0.23438 -0.5625,0.53125 -0.15625,0.29688 -0.15625,0.64063 0,0.60937 0.35938,0.89062 0.375,0.28125 0.95312,0.28125 z m 6.7204,1.45313 v -9.15625 h 1.78125 l 0.14063,1.25 h 0.0781 q 0.57813,-0.625 1.25,-1.04688 0.6875,-0.4375 1.54688,-0.4375 1,0 1.60937,0.4375 0.60938,0.42188 0.92188,1.20313 0.65625,-0.70313 1.35937,-1.17188 0.71875,-0.46875 1.59375,-0.46875 1.45313,0 2.14063,0.95313 0.70312,0.9375 0.70312,2.6875 v 5.75 h -2.17187 v -5.46875 q 0,-1.14063 -0.34375,-1.59375 -0.34375,-0.46875 -1.0625,-0.46875 -0.84375,0 -1.90625,1.125 v 6.40625 h -2.15625 v -5.46875 q 0,-1.14063 -0.34375,-1.59375 -0.34375,-0.46875 -1.07813,-0.46875 -0.84375,0 -1.92187,1.125 v 6.40625 z m 15.7272,3.625 v -12.78125 h 1.78125 l 0.14063,0.96875 h 0.0781 q 0.57813,-0.48438 1.28125,-0.84375 0.71875,-0.35938 1.48438,-0.35938 0.85937,0 1.51562,0.32813 0.65625,0.32812 1.125,0.95312 0.46875,0.60938 0.70313,1.46875 0.25,0.85938 0.25,1.92188 0,1.17187 -0.32813,2.09375 -0.32812,0.92187 -0.875,1.54687 -0.53125,0.625 -1.25,0.96875 -0.70312,0.32813 -1.46875,0.32813 -0.59375,0 -1.1875,-0.25 -0.59375,-0.26563 -1.15625,-0.75 l 0.0469,1.53125 v 2.875 z m 4,-5.17188 q 0.90625,0 1.51563,-0.79687 0.625,-0.79688 0.625,-2.35938 0,-1.375 -0.46875,-2.14062 -0.46875,-0.76563 -1.51563,-0.76563 -0.96875,0 -2.01562,1.03125 v 4.26563 q 0.51562,0.42187 0.96875,0.59375 0.46875,0.17187 0.89062,0.17187 z m 8.61588,1.76563 q -1.15625,0 -1.625,-0.6875 -0.46875,-0.6875 -0.46875,-1.875 V 291.4699 h 2.14062 v 10.9375 q 0,0.39063 0.15625,0.54688 0.15625,0.15625 0.3125,0.15625 0.0781,0 0.14063,0 0.0625,0 0.20312,-0.0312 l 0.28125,1.59375 q -0.4375,0.1875 -1.14062,0.1875 z m 6.88397,0 q -0.95312,0 -1.78125,-0.3125 -0.8125,-0.32813 -1.4375,-0.9375 -0.60937,-0.625 -0.95312,-1.51563 -0.34375,-0.89062 -0.34375,-2.03125 0,-1.10937 0.34375,-2 0.35937,-0.90625 0.95312,-1.51562 0.59375,-0.625 1.34375,-0.95313 0.76563,-0.34375 1.57813,-0.34375 0.92187,0 1.625,0.32813 0.71875,0.3125 1.1875,0.89062 0.48437,0.57813 0.71875,1.39063 0.25,0.79687 0.25,1.75 0,0.3125 -0.0312,0.59375 -0.0156,0.28125 -0.0625,0.4375 h -5.8125 q 0.14062,1.23437 0.85937,1.90625 0.71875,0.65625 1.84375,0.65625 0.59375,0 1.10938,-0.17188 0.51562,-0.1875 1.01562,-0.5 l 0.71875,1.34375 q -0.64062,0.4375 -1.45312,0.71875 -0.79688,0.26563 -1.67188,0.26563 z m -2.45312,-5.67188 h 4.07812 q 0,-1.0625 -0.46875,-1.65625 -0.45312,-0.60937 -1.40625,-0.60937 -0.8125,0 -1.4375,0.57812 -0.60937,0.57813 -0.76562,1.6875 z"
         fill-rule="nonzero"
         id="path302" />
      <path
         fill="#000000"
         d="m 397.89307,304.64178 2.42188,-12.20313 h 1.98437 l 2.39063,7.07813 0.70312,2.625 h 0.0781 q 0.10937,-0.95313 0.21875,-2.04688 0.10937,-1.10937 0.32812,-2.10937 l 1.09375,-5.54688 h 1.9375 l -2.4375,12.20313 h -1.96875 l -2.35937,-7.04688 -0.71875,-2.67187 h -0.0625 q -0.125,0.98437 -0.25,2.04687 -0.125,1.0625 -0.32813,2.07813 l -1.10937,5.59375 z"
         fill-rule="nonzero"
         id="path304" />
    </g>
    <path
       fill="#a4c2f4"
       d="m 505.35434,305.28036 h -65.5748 v 7.55905 l -15.11813,-15.1181 15.11813,-15.1181 v 7.55905 h 65.5748 z"
       fill-rule="evenodd"
       id="path307" />
    <path
       stroke="#000000"
       stroke-width="1"
       stroke-linejoin="round"
       stroke-linecap="butt"
       d="m 505.35434,305.28036 h -65.5748 v 7.55905 l -15.11813,-15.1181 15.11813,-15.1181 v 7.55905 h 65.5748 z"
       fill-rule="evenodd"
       id="path309" />
    <g
       filter="url(#shadowFilter-p.11)"
       id="g313">
      <use
         xlink:href="#p.11"
         transform="translate(0,2)"
         id="use311"
         x="0"
         y="0"
         width="100%"
         height="100%" />
    </g>
    <defs
       id="defs328">
      <filter
         id="shadowFilter-p.11"
         filterUnits="userSpaceOnUse">
        <feGaussianBlur
           in="SourceAlpha"
           stdDeviation="2.0"
           result="blur"
           id="feGaussianBlur315" />
        <feComponentTransfer
           in="blur"
           color-interpolation-filters="sRGB"
           id="feComponentTransfer325">
          <feFuncR
             type="linear"
             slope="0"
             intercept="0.0"
             id="feFuncR317" />
          <feFuncG
             type="linear"
             slope="0"
             intercept="0.0"
             id="feFuncG319" />
          <feFuncB
             type="linear"
             slope="0"
             intercept="0.0"
             id="feFuncB321" />
          <feFuncA
             type="linear"
             slope="0.5"
             intercept="0"
             id="feFuncA323" />
        </feComponentTransfer>
      </filter>
    </defs>
    <g
       id="p.11">
      <path
         fill="#93c47d"
         d="m 323.02625,185.3308 v 0 c 0,-1.85477 1.50357,-3.35834 3.35834,-3.35834 h 183.58255 c 0.89068,0 1.74487,0.35382 2.37466,0.98363 0.62982,0.62982 0.98364,1.48402 0.98364,2.37471 v 23.51955 c 0,1.85475 -1.50357,3.35833 -3.3583,3.35833 H 326.38459 c -1.85477,0 -3.35834,-1.50358 -3.35834,-3.35833 z"
         fill-rule="evenodd"
         id="path330" />
      <path
         fill="#000000"
         d="m 338.11923,204.22931 q -1.23437,0 -2.39062,-0.45313 -1.14063,-0.46875 -2.01563,-1.32812 l 1.28125,-1.48438 q 0.64063,0.625 1.48438,1.01563 0.84375,0.375 1.6875,0.375 1.03125,0 1.57812,-0.42188 0.54688,-0.4375 0.54688,-1.15625 0,-0.35937 -0.14063,-0.625 -0.14062,-0.26562 -0.39062,-0.45312 -0.25,-0.20313 -0.60938,-0.35938 -0.34375,-0.17187 -0.75,-0.34375 l -1.67187,-0.73437 q -0.45313,-0.1875 -0.89063,-0.46875 -0.4375,-0.28125 -0.79687,-0.67188 -0.35938,-0.39062 -0.57813,-0.90625 -0.20312,-0.53125 -0.20312,-1.20312 0,-0.71875 0.29687,-1.34375 0.3125,-0.625 0.85938,-1.09375 0.54687,-0.46875 1.29687,-0.71875 0.75,-0.26563 1.65625,-0.26563 1.0625,0 2.04688,0.42188 0.98437,0.42187 1.70312,1.125 l -1.10937,1.375 q -0.59375,-0.48438 -1.23438,-0.76563 -0.625,-0.28125 -1.40625,-0.28125 -0.875,0 -1.40625,0.39063 -0.51562,0.375 -0.51562,1.04687 0,0.35938 0.15625,0.60938 0.15625,0.25 0.42187,0.45312 0.28125,0.1875 0.625,0.35938 0.35938,0.15625 0.73438,0.29687 l 1.65625,0.6875 q 0.54687,0.23438 0.98437,0.53125 0.45313,0.29688 0.78125,0.6875 0.32813,0.39063 0.51563,0.90625 0.1875,0.51563 0.1875,1.1875 0,0.73438 -0.29688,1.39063 -0.29687,0.65625 -0.875,1.15625 -0.5625,0.48437 -1.375,0.78125 -0.8125,0.28125 -1.84375,0.28125 z m 8.63641,0 q -1.20312,0 -1.95312,-0.73438 -0.75,-0.73437 -0.75,-1.95312 0,-0.71875 0.3125,-1.28125 0.3125,-0.57813 0.96875,-0.98438 0.65625,-0.42187 1.67187,-0.6875 1.01563,-0.28125 2.4375,-0.4375 -0.0156,-0.35937 -0.10937,-0.67187 -0.0781,-0.32813 -0.28125,-0.57813 -0.1875,-0.26562 -0.5,-0.40625 -0.3125,-0.14062 -0.78125,-0.14062 -0.67188,0 -1.32813,0.26562 -0.64062,0.26563 -1.25,0.64063 l -0.78125,-1.4375 q 0.76563,-0.48438 1.71875,-0.84375 0.95313,-0.35938 2.04688,-0.35938 1.71875,0 2.5625,1.03125 0.84375,1.01563 0.84375,2.9375 v 5.42188 h -1.76563 l -0.14062,-1 h -0.0781 q -0.625,0.51562 -1.32812,0.875 -0.6875,0.34375 -1.51563,0.34375 z m 0.6875,-1.67188 q 0.5625,0 1.01563,-0.26562 0.46875,-0.26563 0.98437,-0.75 v -2.04688 q -0.9375,0.10938 -1.57812,0.29688 -0.625,0.1875 -1.01563,0.42187 -0.39062,0.23438 -0.5625,0.53125 -0.15625,0.29688 -0.15625,0.64063 0,0.60937 0.35938,0.89062 0.375,0.28125 0.95312,0.28125 z m 6.7204,1.45313 v -9.15625 h 1.78125 l 0.14063,1.25 h 0.0781 q 0.57813,-0.625 1.25,-1.04688 0.6875,-0.4375 1.54688,-0.4375 1,0 1.60937,0.4375 0.60938,0.42188 0.92188,1.20313 0.65625,-0.70313 1.35937,-1.17188 0.71875,-0.46875 1.59375,-0.46875 1.45313,0 2.14063,0.95313 0.70312,0.9375 0.70312,2.6875 v 5.75 h -2.17187 v -5.46875 q 0,-1.14063 -0.34375,-1.59375 -0.34375,-0.46875 -1.0625,-0.46875 -0.84375,0 -1.90625,1.125 v 6.40625 h -2.15625 v -5.46875 q 0,-1.14063 -0.34375,-1.59375 -0.34375,-0.46875 -1.07813,-0.46875 -0.84375,0 -1.92187,1.125 v 6.40625 z m 15.7272,3.625 v -12.78125 h 1.78125 l 0.14063,0.96875 h 0.0781 q 0.57813,-0.48438 1.28125,-0.84375 0.71875,-0.35938 1.48438,-0.35938 0.85937,0 1.51562,0.32813 0.65625,0.32812 1.125,0.95312 0.46875,0.60938 0.70313,1.46875 0.25,0.85938 0.25,1.92188 0,1.17187 -0.32813,2.09375 -0.32812,0.92187 -0.875,1.54687 -0.53125,0.625 -1.25,0.96875 -0.70312,0.32813 -1.46875,0.32813 -0.59375,0 -1.1875,-0.25 -0.59375,-0.26563 -1.15625,-0.75 l 0.0469,1.53125 v 2.875 z m 4,-5.17188 q 0.90625,0 1.51563,-0.79687 0.625,-0.79688 0.625,-2.35938 0,-1.375 -0.46875,-2.14062 -0.46875,-0.76563 -1.51563,-0.76563 -0.96875,0 -2.01562,1.03125 v 4.26563 q 0.51562,0.42187 0.96875,0.59375 0.46875,0.17187 0.89062,0.17187 z m 8.61588,1.76563 q -1.15625,0 -1.625,-0.6875 -0.46875,-0.6875 -0.46875,-1.875 v -10.82813 h 2.14062 v 10.9375 q 0,0.39063 0.15625,0.54688 0.15625,0.15625 0.3125,0.15625 0.0781,0 0.14063,0 0.0625,0 0.20312,-0.0312 l 0.28125,1.59375 q -0.4375,0.1875 -1.14062,0.1875 z m 6.88397,0 q -0.95312,0 -1.78125,-0.3125 -0.8125,-0.32813 -1.4375,-0.9375 -0.60937,-0.625 -0.95312,-1.51563 -0.34375,-0.89062 -0.34375,-2.03125 0,-1.10937 0.34375,-2 0.35937,-0.90625 0.95312,-1.51562 0.59375,-0.625 1.34375,-0.95313 0.76563,-0.34375 1.57813,-0.34375 0.92187,0 1.625,0.32813 0.71875,0.3125 1.1875,0.89062 0.48437,0.57813 0.71875,1.39063 0.25,0.79687 0.25,1.75 0,0.3125 -0.0312,0.59375 -0.0156,0.28125 -0.0625,0.4375 h -5.8125 q 0.14062,1.23437 0.85937,1.90625 0.71875,0.65625 1.84375,0.65625 0.59375,0 1.10938,-0.17188 0.51562,-0.1875 1.01562,-0.5 l 0.71875,1.34375 q -0.64062,0.4375 -1.45312,0.71875 -0.79688,0.26563 -1.67188,0.26563 z m -2.45312,-5.67188 h 4.07812 q 0,-1.0625 -0.46875,-1.65625 -0.45312,-0.60937 -1.40625,-0.60937 -0.8125,0 -1.4375,0.57812 -0.60937,0.57813 -0.76562,1.6875 z m 11.06497,5.45313 v -1.25 q 1.23437,-1.1875 2.23437,-2.1875 1,-1.01563 1.6875,-1.875 0.70313,-0.85938 1.07813,-1.60938 0.375,-0.75 0.375,-1.42187 0,-0.95313 -0.5,-1.5 -0.5,-0.54688 -1.45313,-0.54688 -0.6875,0 -1.26562,0.39063 -0.5625,0.39062 -1.04688,0.9375 l -1.20312,-1.20313 q 0.82812,-0.875 1.6875,-1.34375 0.875,-0.48437 2.10937,-0.48437 0.85938,0 1.54688,0.26562 0.6875,0.26563 1.17187,0.75 0.48438,0.46875 0.75,1.14063 0.28125,0.67187 0.28125,1.48437 0,0.78125 -0.34375,1.59375 -0.34375,0.8125 -0.9375,1.64063 -0.59375,0.82812 -1.375,1.71875 -0.78125,0.875 -1.65625,1.79687 0.46875,-0.0312 1,-0.0781 0.54688,-0.0469 0.98438,-0.0469 h 2.90625 v 1.82813 z"
         fill-rule="nonzero"
         id="path332" />
    </g>
    <path
       fill="#a4c2f4"
       d="m 505.35434,204.64912 h -65.5748 v 7.55907 l -15.11813,-15.11812 15.11813,-15.1181 v 7.55905 h 65.5748 z"
       fill-rule="evenodd"
       id="path335" />
    <path
       stroke="#000000"
       stroke-width="1"
       stroke-linejoin="round"
       stroke-linecap="butt"
       d="m 505.35434,204.64912 h -65.5748 v 7.55907 l -15.11813,-15.11812 15.11813,-15.1181 v 7.55905 h 65.5748 z"
       fill-rule="evenodd"
       id="path337" />
    <path
       fill="#000000"
       fill-opacity="0"
       d="m 219.04199,166.55118 h 93.60629"
       fill-rule="evenodd"
       id="path339" />
    <path
       stroke="#000000"
       stroke-width="4"
       stroke-linejoin="round"
       stroke-linecap="butt"
       d="m 219.04199,166.55118 h 69.60629"
       fill-rule="evenodd"
       id="path341" />
    <path
       fill="#000000"
       stroke="#000000"
       stroke-width="4"
       stroke-linecap="butt"
       d="m 288.6483,173.15811 18.1524,-6.60693 -18.1524,-6.60694 z"
       fill-rule="evenodd"
       id="path343" />
  </g>
</svg>
