<?xml version="1.0" encoding="UTF-8" standalone="no"?>
<svg
   version="1.1"
   viewBox="0 0 216.4902 173.05882"
   fill="none"
   stroke="none"
   stroke-linecap="square"
   stroke-miterlimit="10"
   id="svg347"
   sodipodi:docname="nest.svg"
   width="216.4902"
   height="173.05882"
   inkscape:version="1.2.2 (b0a8486541, 2022-12-01)"
   xmlns:inkscape="http://www.inkscape.org/namespaces/inkscape"
   xmlns:sodipodi="http://sodipodi.sourceforge.net/DTD/sodipodi-0.dtd"
   xmlns="http://www.w3.org/2000/svg"
   xmlns:svg="http://www.w3.org/2000/svg">
  <defs
     id="defs351">
    <marker
       style="overflow:visible"
       id="RoundedArrow"
       refX="0"
       refY="0"
       orient="auto-start-reverse"
       inkscape:stockid="Rounded arrow"
       markerWidth="1"
       markerHeight="1"
       viewBox="0 0 1 1"
       inkscape:isstock="true"
       inkscape:collect="always"
       preserveAspectRatio="xMidYMid">
      <path
         transform="scale(0.7)"
         d="m -0.21114562,-4.1055728 6.42229122,3.21114561 a 1,1 90 0 1 0,1.78885438 L -0.21114562,4.1055728 A 1.236068,1.236068 31.717474 0 1 -2,3 v -6 a 1.236068,1.236068 148.28253 0 1 1.78885438,-1.1055728 z"
         style="fill:context-stroke;fill-rule:evenodd;stroke:none"
         id="path71" />
    </marker>
    <defs
       id="defs24">
      <filter
         id="shadowFilter-p.1"
         filterUnits="userSpaceOnUse">
        <feGaussianBlur
           in="SourceAlpha"
           stdDeviation="2.0"
           result="blur"
           id="feGaussianBlur11" />
        <feComponentTransfer
           in="blur"
           color-interpolation-filters="sRGB"
           id="feComponentTransfer21">
          <feFuncR
             type="linear"
             slope="0"
             intercept="0.0"
             id="feFuncR13" />
          <feFuncG
             type="linear"
             slope="0"
             intercept="0.0"
             id="feFuncG15" />
          <feFuncB
             type="linear"
             slope="0"
             intercept="0.0"
             id="feFuncB17" />
          <feFuncA
             type="linear"
             slope="0.5"
             intercept="0"
             id="feFuncA19" />
        </feComponentTransfer>
      </filter>
    </defs>
    <defs
       id="defs56">
      <filter
         id="shadowFilter-p.2"
         filterUnits="userSpaceOnUse">
        <feGaussianBlur
           in="SourceAlpha"
           stdDeviation="2.0"
           result="blur"
           id="feGaussianBlur43" />
        <feComponentTransfer
           in="blur"
           color-interpolation-filters="sRGB"
           id="feComponentTransfer53">
          <feFuncR
             type="linear"
             slope="0"
             intercept="0.0"
             id="feFuncR45" />
          <feFuncG
             type="linear"
             slope="0"
             intercept="0.0"
             id="feFuncG47" />
          <feFuncB
             type="linear"
             slope="0"
             intercept="0.0"
             id="feFuncB49" />
          <feFuncA
             type="linear"
             slope="0.5"
             intercept="0"
             id="feFuncA51" />
        </feComponentTransfer>
      </filter>
    </defs>
    <defs
       id="defs88">
      <filter
         id="shadowFilter-p.3"
         filterUnits="userSpaceOnUse">
        <feGaussianBlur
           in="SourceAlpha"
           stdDeviation="2.0"
           result="blur"
           id="feGaussianBlur75" />
        <feComponentTransfer
           in="blur"
           color-interpolation-filters="sRGB"
           id="feComponentTransfer85">
          <feFuncR
             type="linear"
             slope="0"
             intercept="0.0"
             id="feFuncR77" />
          <feFuncG
             type="linear"
             slope="0"
             intercept="0.0"
             id="feFuncG79" />
          <feFuncB
             type="linear"
             slope="0"
             intercept="0.0"
             id="feFuncB81" />
          <feFuncA
             type="linear"
             slope="0.5"
             intercept="0"
             id="feFuncA83" />
        </feComponentTransfer>
      </filter>
    </defs>
    <defs
       id="defs120">
      <filter
         id="shadowFilter-p.4"
         filterUnits="userSpaceOnUse">
        <feGaussianBlur
           in="SourceAlpha"
           stdDeviation="2.0"
           result="blur"
           id="feGaussianBlur107" />
        <feComponentTransfer
           in="blur"
           color-interpolation-filters="sRGB"
           id="feComponentTransfer117">
          <feFuncR
             type="linear"
             slope="0"
             intercept="0.0"
             id="feFuncR109" />
          <feFuncG
             type="linear"
             slope="0"
             intercept="0.0"
             id="feFuncG111" />
          <feFuncB
             type="linear"
             slope="0"
             intercept="0.0"
             id="feFuncB113" />
          <feFuncA
             type="linear"
             slope="0.5"
             intercept="0"
             id="feFuncA115" />
        </feComponentTransfer>
      </filter>
    </defs>
    <defs
       id="defs154">
      <filter
         id="shadowFilter-p.5"
         filterUnits="userSpaceOnUse">
        <feGaussianBlur
           in="SourceAlpha"
           stdDeviation="2.0"
           result="blur"
           id="feGaussianBlur141" />
        <feComponentTransfer
           in="blur"
           color-interpolation-filters="sRGB"
           id="feComponentTransfer151">
          <feFuncR
             type="linear"
             slope="0"
             intercept="0.0"
             id="feFuncR143" />
          <feFuncG
             type="linear"
             slope="0"
             intercept="0.0"
             id="feFuncG145" />
          <feFuncB
             type="linear"
             slope="0"
             intercept="0.0"
             id="feFuncB147" />
          <feFuncA
             type="linear"
             slope="0.5"
             intercept="0"
             id="feFuncA149" />
        </feComponentTransfer>
      </filter>
    </defs>
    <defs
       id="defs184">
      <filter
         id="shadowFilter-p.6"
         filterUnits="userSpaceOnUse">
        <feGaussianBlur
           in="SourceAlpha"
           stdDeviation="2.0"
           result="blur"
           id="feGaussianBlur171" />
        <feComponentTransfer
           in="blur"
           color-interpolation-filters="sRGB"
           id="feComponentTransfer181">
          <feFuncR
             type="linear"
             slope="0"
             intercept="0.0"
             id="feFuncR173" />
          <feFuncG
             type="linear"
             slope="0"
             intercept="0.0"
             id="feFuncG175" />
          <feFuncB
             type="linear"
             slope="0"
             intercept="0.0"
             id="feFuncB177" />
          <feFuncA
             type="linear"
             slope="0.5"
             intercept="0"
             id="feFuncA179" />
        </feComponentTransfer>
      </filter>
    </defs>
    <defs
       id="defs212">
      <filter
         id="shadowFilter-p.7"
         filterUnits="userSpaceOnUse">
        <feGaussianBlur
           in="SourceAlpha"
           stdDeviation="2.0"
           result="blur"
           id="feGaussianBlur199" />
        <feComponentTransfer
           in="blur"
           color-interpolation-filters="sRGB"
           id="feComponentTransfer209">
          <feFuncR
             type="linear"
             slope="0"
             intercept="0.0"
             id="feFuncR201" />
          <feFuncG
             type="linear"
             slope="0"
             intercept="0.0"
             id="feFuncG203" />
          <feFuncB
             type="linear"
             slope="0"
             intercept="0.0"
             id="feFuncB205" />
          <feFuncA
             type="linear"
             slope="0.5"
             intercept="0"
             id="feFuncA207" />
        </feComponentTransfer>
      </filter>
    </defs>
    <defs
       id="defs240">
      <filter
         id="shadowFilter-p.8"
         filterUnits="userSpaceOnUse">
        <feGaussianBlur
           in="SourceAlpha"
           stdDeviation="2.0"
           result="blur"
           id="feGaussianBlur227" />
        <feComponentTransfer
           in="blur"
           color-interpolation-filters="sRGB"
           id="feComponentTransfer237">
          <feFuncR
             type="linear"
             slope="0"
             intercept="0.0"
             id="feFuncR229" />
          <feFuncG
             type="linear"
             slope="0"
             intercept="0.0"
             id="feFuncG231" />
          <feFuncB
             type="linear"
             slope="0"
             intercept="0.0"
             id="feFuncB233" />
          <feFuncA
             type="linear"
             slope="0.5"
             intercept="0"
             id="feFuncA235" />
        </feComponentTransfer>
      </filter>
    </defs>
    <defs
       id="defs268">
      <filter
         id="shadowFilter-p.9"
         filterUnits="userSpaceOnUse">
        <feGaussianBlur
           in="SourceAlpha"
           stdDeviation="2.0"
           result="blur"
           id="feGaussianBlur255" />
        <feComponentTransfer
           in="blur"
           color-interpolation-filters="sRGB"
           id="feComponentTransfer265">
          <feFuncR
             type="linear"
             slope="0"
             intercept="0.0"
             id="feFuncR257" />
          <feFuncG
             type="linear"
             slope="0"
             intercept="0.0"
             id="feFuncG259" />
          <feFuncB
             type="linear"
             slope="0"
             intercept="0.0"
             id="feFuncB261" />
          <feFuncA
             type="linear"
             slope="0.5"
             intercept="0"
             id="feFuncA263" />
        </feComponentTransfer>
      </filter>
    </defs>
    <defs
       id="defs298">
      <filter
         id="shadowFilter-p.10"
         filterUnits="userSpaceOnUse">
        <feGaussianBlur
           in="SourceAlpha"
           stdDeviation="2.0"
           result="blur"
           id="feGaussianBlur285" />
        <feComponentTransfer
           in="blur"
           color-interpolation-filters="sRGB"
           id="feComponentTransfer295">
          <feFuncR
             type="linear"
             slope="0"
             intercept="0.0"
             id="feFuncR287" />
          <feFuncG
             type="linear"
             slope="0"
             intercept="0.0"
             id="feFuncG289" />
          <feFuncB
             type="linear"
             slope="0"
             intercept="0.0"
             id="feFuncB291" />
          <feFuncA
             type="linear"
             slope="0.5"
             intercept="0"
             id="feFuncA293" />
        </feComponentTransfer>
      </filter>
    </defs>
    <defs
       id="defs328">
      <filter
         id="shadowFilter-p.11"
         filterUnits="userSpaceOnUse">
        <feGaussianBlur
           in="SourceAlpha"
           stdDeviation="2.0"
           result="blur"
           id="feGaussianBlur315" />
        <feComponentTransfer
           in="blur"
           color-interpolation-filters="sRGB"
           id="feComponentTransfer325">
          <feFuncR
             type="linear"
             slope="0"
             intercept="0.0"
             id="feFuncR317" />
          <feFuncG
             type="linear"
             slope="0"
             intercept="0.0"
             id="feFuncG319" />
          <feFuncB
             type="linear"
             slope="0"
             intercept="0.0"
             id="feFuncB321" />
          <feFuncA
             type="linear"
             slope="0.5"
             intercept="0"
             id="feFuncA323" />
        </feComponentTransfer>
      </filter>
    </defs>
    <clipPath
       clipPathUnits="userSpaceOnUse"
       id="clipPath1">
      <path
         d="M 0,0 H 960 V 600 H 0 Z"
         clip-rule="nonzero"
         id="path1" />
    </clipPath>
    <clipPath
       clipPathUnits="userSpaceOnUse"
       id="clipPath2">
      <path
         d="M 0,0 H 960 V 600 H 0 Z"
         clip-rule="nonzero"
         id="path3" />
    </clipPath>
    <clipPath
       clipPathUnits="userSpaceOnUse"
       id="clipPath3">
      <path
         d="M 0,0 H 960 V 600 H 0 Z"
         clip-rule="nonzero"
         id="path4" />
    </clipPath>
    <clipPath
       clipPathUnits="userSpaceOnUse"
       id="clipPath4">
      <path
         d="M 0,0 H 960 V 600 H 0 Z"
         clip-rule="nonzero"
         id="path6" />
    </clipPath>
    <clipPath
       clipPathUnits="userSpaceOnUse"
       id="clipPath6">
      <path
         d="M 0,0 H 960 V 600 H 0 Z"
         clip-rule="nonzero"
         id="path7" />
    </clipPath>
    <clipPath
       clipPathUnits="userSpaceOnUse"
       id="clipPath7">
      <path
         d="M 0,0 H 960 V 600 H 0 Z"
         clip-rule="nonzero"
         id="path8" />
    </clipPath>
    <clipPath
       clipPathUnits="userSpaceOnUse"
       id="clipPath8">
      <path
         d="M 0,0 H 960 V 600 H 0 Z"
         clip-rule="nonzero"
         id="path9" />
    </clipPath>
    <clipPath
       clipPathUnits="userSpaceOnUse"
       id="clipPath9">
      <path
         d="M 0,0 H 960 V 600 H 0 Z"
         clip-rule="nonzero"
         id="path10" />
    </clipPath>
    <clipPath
       clipPathUnits="userSpaceOnUse"
       id="clipPath10">
      <path
         d="M 0,0 H 960 V 600 H 0 Z"
         clip-rule="nonzero"
         id="path11" />
    </clipPath>
    <clipPath
       clipPathUnits="userSpaceOnUse"
       id="clipPath11">
      <path
         d="M 0,0 H 960 V 600 H 0 Z"
         clip-rule="nonzero"
         id="path12" />
    </clipPath>
    <clipPath
       clipPathUnits="userSpaceOnUse"
       id="clipPath12">
      <path
         d="M 0,0 H 960 V 600 H 0 Z"
         clip-rule="nonzero"
         id="path13" />
    </clipPath>
  </defs>
  <sodipodi:namedview
     id="namedview349"
     pagecolor="#ffffff"
     bordercolor="#666666"
     borderopacity="1.0"
     inkscape:pageshadow="2"
     inkscape:pageopacity="0.0"
     inkscape:pagecheckerboard="0"
     showgrid="false"
     fit-margin-right="-430"
     fit-margin-top="0"
     fit-margin-left="0"
     fit-margin-bottom="-270"
     inkscape:zoom="2.04"
     inkscape:cx="468.62745"
     inkscape:cy="171.81373"
     inkscape:window-width="3440"
     inkscape:window-height="1371"
     inkscape:window-x="0"
     inkscape:window-y="0"
     inkscape:window-maximized="1"
     inkscape:current-layer="svg347"
     inkscape:showpageshadow="2"
     inkscape:deskcolor="#d1d1d1" />
  <path
     fill="#000000"
     fill-opacity="0"
     d="M -4.1078775,-6.3627408 H 955.89212 V 593.63726 H -4.1078775 Z"
     fill-rule="evenodd"
     id="path5" />
  <rect
     style="fill:#d9ead3;fill-opacity:1;stroke:#000000;stroke-width:0.877829;stroke-opacity:1"
     id="rect51"
     width="75.612366"
     height="172.181"
     x="140.43892"
     y="0.43891451"
     ry="7.9576182" />
  <rect
     style="fill:#acd09f;fill-opacity:1;stroke:#000000;stroke-width:0.38131;stroke-opacity:1"
     id="rect52"
     width="60.912807"
     height="40.327896"
     x="146.46516"
     y="25.0926"
     ry="5.6640306" />
  <g
     aria-label="Sample 1"
     id="text52"
     style="fill:#000000">
    <path
       d="m 156.32797,34.972721 q 0,1.14 -0.828,1.776 -0.828,0.636 -2.232,0.636 -0.72,0 -1.332,-0.108 -0.612,-0.108 -1.02,-0.3 v -1.032 q 0.432,0.192 1.068,0.348 0.648,0.156 1.332,0.156 0.96,0 1.44,-0.372 0.492,-0.372 0.492,-1.008 0,-0.42 -0.18,-0.708 -0.18,-0.288 -0.624,-0.528 -0.432,-0.252 -1.212,-0.528 -1.092,-0.396 -1.656,-0.972 -0.552,-0.576 -0.552,-1.572 0,-0.684 0.348,-1.164 0.348,-0.492 0.96,-0.756 0.624,-0.264 1.428,-0.264 0.708,0 1.296,0.132 0.588,0.132 1.068,0.348 l -0.336,0.924 q -0.444,-0.192 -0.972,-0.324 -0.516,-0.132 -1.08,-0.132 -0.804,0 -1.212,0.348 -0.408,0.336 -0.408,0.9 0,0.432 0.18,0.72 0.18,0.288 0.588,0.516 0.408,0.228 1.104,0.492 0.756,0.276 1.272,0.6 0.528,0.312 0.792,0.756 0.276,0.444 0.276,1.116 z"
       id="path518" />
    <path
       d="m 160.34797,30.724721 q 1.176,0 1.74,0.516 0.564,0.516 0.564,1.644 v 4.38 h -0.768 l -0.204,-0.912 h -0.048 q -0.42,0.528 -0.888,0.78 -0.456,0.252 -1.272,0.252 -0.876,0 -1.452,-0.456 -0.576,-0.468 -0.576,-1.452 0,-0.96 0.756,-1.476 0.756,-0.528 2.328,-0.576 l 1.092,-0.036 v -0.384 q 0,-0.804 -0.348,-1.116 -0.348,-0.312 -0.984,-0.312 -0.504,0 -0.96,0.156 -0.456,0.144 -0.852,0.336 l -0.324,-0.792 q 0.42,-0.228 0.996,-0.384 0.576,-0.168 1.2,-0.168 z m 0.312,3.432 q -1.2,0.048 -1.668,0.384 -0.456,0.336 -0.456,0.948 0,0.54 0.324,0.792 0.336,0.252 0.852,0.252 0.816,0 1.356,-0.444 0.54,-0.456 0.54,-1.392 v -0.576 z"
       id="path520" />
    <path
       d="m 171.69998,30.712721 q 1.092,0 1.632,0.564 0.54,0.552 0.54,1.8 v 4.188 h -1.044 v -4.14 q 0,-1.524 -1.308,-1.524 -0.936,0 -1.344,0.54 -0.396,0.54 -0.396,1.572 v 3.552 h -1.044 v -4.14 q 0,-1.524 -1.32,-1.524 -0.972,0 -1.344,0.6 -0.372,0.6 -0.372,1.728 v 3.336 h -1.056 v -6.432 h 0.852 l 0.156,0.876 h 0.06 q 0.3,-0.504 0.804,-0.744 0.516,-0.252 1.092,-0.252 1.512,0 1.968,1.08 h 0.06 q 0.324,-0.552 0.876,-0.816 0.564,-0.264 1.188,-0.264 z"
       id="path522" />
    <path
       d="m 178.92397,30.712721 q 1.188,0 1.908,0.828 0.732,0.828 0.732,2.496 0,1.644 -0.732,2.496 -0.72,0.852 -1.92,0.852 -0.744,0 -1.236,-0.276 -0.48,-0.288 -0.756,-0.66 h -0.072 q 0.024,0.204 0.048,0.516 0.024,0.312 0.024,0.54 v 2.64 h -1.056 v -9.312 h 0.864 l 0.144,0.876 h 0.048 q 0.288,-0.42 0.756,-0.708 0.468,-0.288 1.248,-0.288 z m -0.192,0.888 q -0.984,0 -1.392,0.552 -0.396,0.552 -0.42,1.68 v 0.204 q 0,1.188 0.384,1.836 0.396,0.636 1.452,0.636 0.588,0 0.96,-0.324 0.384,-0.324 0.564,-0.876 0.192,-0.564 0.192,-1.284 0,-1.104 -0.432,-1.764 -0.42,-0.66 -1.308,-0.66 z"
       id="path524" />
    <path
       d="m 184.29997,37.264721 h -1.056 v -9.12 h 1.056 z"
       id="path526" />
    <path
       d="m 188.82396,30.712721 q 0.828,0 1.416,0.36 0.6,0.36 0.912,1.02 0.324,0.648 0.324,1.524 v 0.636 h -4.404 q 0.024,1.092 0.552,1.668 0.54,0.564 1.5,0.564 0.612,0 1.08,-0.108 0.48,-0.12 0.984,-0.336 v 0.924 q -0.492,0.216 -0.972,0.312 -0.48,0.108 -1.14,0.108 -0.912,0 -1.62,-0.372 -0.696,-0.372 -1.092,-1.104 -0.384,-0.744 -0.384,-1.812 0,-1.056 0.348,-1.812 0.36,-0.756 0.996,-1.164 0.648,-0.408 1.5,-0.408 z m -0.012,0.864 q -0.756,0 -1.2,0.492 -0.432,0.48 -0.516,1.344 h 3.276 q -0.012,-0.816 -0.384,-1.32 -0.372,-0.516 -1.176,-0.516 z"
       id="path528" />
    <path
       d="m 199.46795,37.264721 h -1.032 v -5.988 q 0,-0.516 0.012,-0.828 0.012,-0.312 0.036,-0.648 -0.192,0.192 -0.348,0.324 -0.156,0.132 -0.396,0.336 l -0.912,0.744 -0.552,-0.708 2.316,-1.8 h 0.876 z"
       id="path530" />
  </g>
  <rect
     style="fill:none;fill-opacity:1;stroke:#000000;stroke-width:0.332916;stroke-opacity:1"
     id="rect53"
     width="53.118061"
     height="17.345798"
     x="150.9507"
     y="42.323284"
     ry="0" />
  <g
     aria-label="Sample 1"
     id="text53"
     style="fill:#000000">
    <path
       d="m 156.81808,52.443271 q 0,1.14 -0.828,1.776 -0.828,0.636 -2.232,0.636 -0.72,0 -1.332,-0.108 -0.612,-0.108 -1.02,-0.3 v -1.032 q 0.432,0.192 1.068,0.348 0.648,0.156 1.332,0.156 0.96,0 1.44,-0.372 0.492,-0.372 0.492,-1.008 0,-0.42 -0.18,-0.708 -0.18,-0.288 -0.624,-0.528 -0.432,-0.252 -1.212,-0.528 -1.092,-0.396 -1.656,-0.972 -0.552,-0.576 -0.552,-1.572 0,-0.684 0.348,-1.164 0.348,-0.492 0.96,-0.756 0.624,-0.264 1.428,-0.264 0.708,0 1.296,0.132 0.588,0.132 1.068,0.348 l -0.336,0.924 q -0.444,-0.192 -0.972,-0.324 -0.516,-0.132 -1.08,-0.132 -0.804,0 -1.212,0.348 -0.408,0.336 -0.408,0.9 0,0.432 0.18,0.72 0.18,0.288 0.588,0.516 0.408,0.228 1.104,0.492 0.756,0.276 1.272,0.6 0.528,0.312 0.792,0.756 0.276,0.444 0.276,1.116 z"
       id="path533" />
    <path
       d="m 160.83808,48.195271 q 1.176,0 1.74,0.516 0.564,0.516 0.564,1.644 v 4.38 h -0.768 l -0.204,-0.912 h -0.048 q -0.42,0.528 -0.888,0.78 -0.456,0.252 -1.272,0.252 -0.876,0 -1.452,-0.456 -0.576,-0.468 -0.576,-1.452 0,-0.96 0.756,-1.476 0.756,-0.528 2.328,-0.576 l 1.092,-0.036 v -0.384 q 0,-0.804 -0.348,-1.116 -0.348,-0.312 -0.984,-0.312 -0.504,0 -0.96,0.156 -0.456,0.144 -0.852,0.336 l -0.324,-0.792 q 0.42,-0.228 0.996,-0.384 0.576,-0.168 1.2,-0.168 z m 0.312,3.432 q -1.2,0.048 -1.668,0.384 -0.456,0.336 -0.456,0.948 0,0.54 0.324,0.792 0.336,0.252 0.852,0.252 0.816,0 1.356,-0.444 0.54,-0.456 0.54,-1.392 v -0.576 z"
       id="path535" />
    <path
       d="m 172.19009,48.183271 q 1.092,0 1.632,0.564 0.54,0.552 0.54,1.8 v 4.188 h -1.044 v -4.14 q 0,-1.524 -1.308,-1.524 -0.936,0 -1.344,0.54 -0.396,0.54 -0.396,1.572 v 3.552 h -1.044 v -4.14 q 0,-1.524 -1.32,-1.524 -0.972,0 -1.344,0.6 -0.372,0.6 -0.372,1.728 v 3.336 h -1.056 v -6.432 h 0.852 l 0.156,0.876 h 0.06 q 0.3,-0.504 0.804,-0.744 0.516,-0.252 1.092,-0.252 1.512,0 1.968,1.08 h 0.06 q 0.324,-0.552 0.876,-0.816 0.564,-0.264 1.188,-0.264 z"
       id="path537" />
    <path
       d="m 179.41408,48.183271 q 1.188,0 1.908,0.828 0.732,0.828 0.732,2.496 0,1.644 -0.732,2.496 -0.72,0.852 -1.92,0.852 -0.744,0 -1.236,-0.276 -0.48,-0.288 -0.756,-0.66 h -0.072 q 0.024,0.204 0.048,0.516 0.024,0.312 0.024,0.54 v 2.64 h -1.056 v -9.312 h 0.864 l 0.144,0.876 h 0.048 q 0.288,-0.42 0.756,-0.708 0.468,-0.288 1.248,-0.288 z m -0.192,0.888 q -0.984,0 -1.392,0.552 -0.396,0.552 -0.42,1.68 v 0.204 q 0,1.188 0.384,1.836 0.396,0.636 1.452,0.636 0.588,0 0.96,-0.324 0.384,-0.324 0.564,-0.876 0.192,-0.564 0.192,-1.284 0,-1.104 -0.432,-1.764 -0.42,-0.66 -1.308,-0.66 z"
       id="path539" />
    <path
       d="m 184.79008,54.735271 h -1.056 v -9.12 h 1.056 z"
       id="path541" />
    <path
       d="m 189.31407,48.183271 q 0.828,0 1.416,0.36 0.6,0.36 0.912,1.02 0.324,0.648 0.324,1.524 v 0.636 h -4.404 q 0.024,1.092 0.552,1.668 0.54,0.564 1.5,0.564 0.612,0 1.08,-0.108 0.48,-0.12 0.984,-0.336 v 0.924 q -0.492,0.216 -0.972,0.312 -0.48,0.108 -1.14,0.108 -0.912,0 -1.62,-0.372 -0.696,-0.372 -1.092,-1.104 -0.384,-0.744 -0.384,-1.812 0,-1.056 0.348,-1.812 0.36,-0.756 0.996,-1.164 0.648,-0.408 1.5,-0.408 z m -0.012,0.864 q -0.756,0 -1.2,0.492 -0.432,0.48 -0.516,1.344 h 3.276 q -0.012,-0.816 -0.384,-1.32 -0.372,-0.516 -1.176,-0.516 z"
       id="path543" />
    <path
       d="m 199.95807,54.735271 h -1.032 v -5.988 q 0,-0.516 0.012,-0.828 0.012,-0.312 0.036,-0.648 -0.192,0.192 -0.348,0.324 -0.156,0.132 -0.396,0.336 l -0.912,0.744 -0.552,-0.708 2.316,-1.8 h 0.876 z"
       id="path545" />
  </g>
  <rect
     style="fill:#acd09f;fill-opacity:1;stroke:#000000;stroke-width:0.38131;stroke-opacity:1"
     id="rect54"
     width="60.912807"
     height="40.327896"
     x="146.46516"
     y="71.09111"
     ry="5.6640306" />
  <g
     aria-label="Sample 2"
     id="text54"
     style="fill:#000000">
    <path
       d="m 156.32797,80.972725 q 0,1.14 -0.828,1.776 -0.828,0.636 -2.232,0.636 -0.72,0 -1.332,-0.108 -0.612,-0.108 -1.02,-0.3 v -1.032 q 0.432,0.192 1.068,0.348 0.648,0.156 1.332,0.156 0.96,0 1.44,-0.372 0.492,-0.372 0.492,-1.008 0,-0.42 -0.18,-0.708 -0.18,-0.288 -0.624,-0.528 -0.432,-0.252 -1.212,-0.528 -1.092,-0.396 -1.656,-0.972 -0.552,-0.576 -0.552,-1.572 0,-0.684 0.348,-1.164 0.348,-0.492 0.96,-0.756 0.624,-0.264 1.428,-0.264 0.708,0 1.296,0.132 0.588,0.132 1.068,0.348 l -0.336,0.924 q -0.444,-0.192 -0.972,-0.324 -0.516,-0.132 -1.08,-0.132 -0.804,0 -1.212,0.348 -0.408,0.336 -0.408,0.9 0,0.432 0.18,0.72 0.18,0.288 0.588,0.516 0.408,0.228 1.104,0.492 0.756,0.276 1.272,0.6 0.528,0.312 0.792,0.756 0.276,0.444 0.276,1.116 z"
       id="path548" />
    <path
       d="m 160.34797,76.724725 q 1.176,0 1.74,0.516 0.564,0.516 0.564,1.644 v 4.38 h -0.768 l -0.204,-0.912 h -0.048 q -0.42,0.528 -0.888,0.78 -0.456,0.252 -1.272,0.252 -0.876,0 -1.452,-0.456 -0.576,-0.468 -0.576,-1.452 0,-0.96 0.756,-1.476 0.756,-0.528 2.328,-0.576 l 1.092,-0.036 v -0.384 q 0,-0.804 -0.348,-1.116 -0.348,-0.312 -0.984,-0.312 -0.504,0 -0.96,0.156 -0.456,0.144 -0.852,0.336 l -0.324,-0.792 q 0.42,-0.228 0.996,-0.384 0.576,-0.168 1.2,-0.168 z m 0.312,3.432 q -1.2,0.048 -1.668,0.384 -0.456,0.336 -0.456,0.948 0,0.54 0.324,0.792 0.336,0.252 0.852,0.252 0.816,0 1.356,-0.444 0.54,-0.456 0.54,-1.392 v -0.576 z"
       id="path550" />
    <path
       d="m 171.69998,76.712725 q 1.092,0 1.632,0.564 0.54,0.552 0.54,1.8 v 4.188 h -1.044 v -4.14 q 0,-1.524 -1.308,-1.524 -0.936,0 -1.344,0.54 -0.396,0.54 -0.396,1.572 v 3.552 h -1.044 v -4.14 q 0,-1.524 -1.32,-1.524 -0.972,0 -1.344,0.6 -0.372,0.6 -0.372,1.728 v 3.336 h -1.056 v -6.432 h 0.852 l 0.156,0.876 h 0.06 q 0.3,-0.504 0.804,-0.744 0.516,-0.252 1.092,-0.252 1.512,0 1.968,1.08 h 0.06 q 0.324,-0.552 0.876,-0.816 0.564,-0.264 1.188,-0.264 z"
       id="path552" />
    <path
       d="m 178.92397,76.712725 q 1.188,0 1.908,0.828 0.732,0.828 0.732,2.496 0,1.644 -0.732,2.496 -0.72,0.852 -1.92,0.852 -0.744,0 -1.236,-0.276 -0.48,-0.288 -0.756,-0.66 h -0.072 q 0.024,0.204 0.048,0.516 0.024,0.312 0.024,0.54 v 2.64 h -1.056 v -9.312 h 0.864 l 0.144,0.876 h 0.048 q 0.288,-0.42 0.756,-0.708 0.468,-0.288 1.248,-0.288 z m -0.192,0.888 q -0.984,0 -1.392,0.552 -0.396,0.552 -0.42,1.68 v 0.204 q 0,1.188 0.384,1.836 0.396,0.636 1.452,0.636 0.588,0 0.96,-0.324 0.384,-0.324 0.564,-0.876 0.192,-0.564 0.192,-1.284 0,-1.104 -0.432,-1.764 -0.42,-0.66 -1.308,-0.66 z"
       id="path554" />
    <path
       d="m 184.29997,83.264725 h -1.056 v -9.12 h 1.056 z"
       id="path556" />
    <path
       d="m 188.82396,76.712725 q 0.828,0 1.416,0.36 0.6,0.36 0.912,1.02 0.324,0.648 0.324,1.524 v 0.636 h -4.404 q 0.024,1.092 0.552,1.668 0.54,0.564 1.5,0.564 0.612,0 1.08,-0.108 0.48,-0.12 0.984,-0.336 v 0.924 q -0.492,0.216 -0.972,0.312 -0.48,0.108 -1.14,0.108 -0.912,0 -1.62,-0.372 -0.696,-0.372 -1.092,-1.104 -0.384,-0.744 -0.384,-1.812 0,-1.056 0.348,-1.812 0.36,-0.756 0.996,-1.164 0.648,-0.408 1.5,-0.408 z m -0.012,0.864 q -0.756,0 -1.2,0.492 -0.432,0.48 -0.516,1.344 h 3.276 q -0.012,-0.816 -0.384,-1.32 -0.372,-0.516 -1.176,-0.516 z"
       id="path558" />
    <path
       d="m 201.44795,83.264725 h -5.664 v -0.876 l 2.244,-2.268 q 0.648,-0.648 1.092,-1.152 0.444,-0.504 0.672,-0.984 0.228,-0.492 0.228,-1.068 0,-0.708 -0.42,-1.068 -0.42,-0.372 -1.092,-0.372 -0.624,0 -1.104,0.216 -0.468,0.216 -0.96,0.6 l -0.564,-0.708 q 0.504,-0.42 1.152,-0.708 0.66,-0.3 1.476,-0.3 1.2,0 1.896,0.612 0.696,0.6 0.696,1.668 0,0.672 -0.276,1.26 -0.276,0.588 -0.768,1.164 -0.492,0.564 -1.152,1.212 l -1.788,1.764 v 0.048 h 4.332 z"
       id="path560" />
  </g>
  <rect
     style="fill:none;fill-opacity:1;stroke:#000000;stroke-width:0.332916;stroke-opacity:1"
     id="rect55"
     width="53.118061"
     height="17.345798"
     x="150.9507"
     y="88.317978"
     ry="0" />
  <g
     aria-label="Sample 2"
     id="text55"
     style="fill:#000000">
    <path
       d="m 156.81808,98.443268 q 0,1.14 -0.828,1.776002 -0.828,0.636 -2.232,0.636 -0.72,0 -1.332,-0.108 -0.612,-0.108 -1.02,-0.3 v -1.032002 q 0.432,0.192 1.068,0.348 0.648,0.156 1.332,0.156 0.96,0 1.44,-0.372 0.492,-0.372 0.492,-1.008 0,-0.42 -0.18,-0.708 -0.18,-0.288 -0.624,-0.528 -0.432,-0.252 -1.212,-0.528 -1.092,-0.396 -1.656,-0.972 -0.552,-0.576 -0.552,-1.572 0,-0.684 0.348,-1.164 0.348,-0.492 0.96,-0.756 0.624,-0.264 1.428,-0.264 0.708,0 1.296,0.132 0.588,0.132 1.068,0.348 l -0.336,0.924 q -0.444,-0.192 -0.972,-0.324 -0.516,-0.132 -1.08,-0.132 -0.804,0 -1.212,0.348 -0.408,0.336 -0.408,0.9 0,0.432 0.18,0.72 0.18,0.288 0.588,0.516 0.408,0.228 1.104,0.492 0.756,0.276 1.272,0.6 0.528,0.312 0.792,0.756 0.276,0.444 0.276,1.116 z"
       id="path563" />
    <path
       d="m 160.83808,94.195268 q 1.176,0 1.74,0.516 0.564,0.516 0.564,1.644 v 4.380002 h -0.768 l -0.204,-0.912002 h -0.048 q -0.42,0.528002 -0.888,0.780002 -0.456,0.252 -1.272,0.252 -0.876,0 -1.452,-0.456 -0.576,-0.468002 -0.576,-1.452002 0,-0.96 0.756,-1.476 0.756,-0.528 2.328,-0.576 l 1.092,-0.036 v -0.384 q 0,-0.804 -0.348,-1.116 -0.348,-0.312 -0.984,-0.312 -0.504,0 -0.96,0.156 -0.456,0.144 -0.852,0.336 l -0.324,-0.792 q 0.42,-0.228 0.996,-0.384 0.576,-0.168 1.2,-0.168 z m 0.312,3.432 q -1.2,0.048 -1.668,0.384 -0.456,0.336 -0.456,0.948 0,0.54 0.324,0.792 0.336,0.252002 0.852,0.252002 0.816,0 1.356,-0.444002 0.54,-0.456 0.54,-1.392 v -0.576 z"
       id="path565" />
    <path
       d="m 172.19009,94.183268 q 1.092,0 1.632,0.564 0.54,0.552 0.54,1.8 v 4.188002 h -1.044 v -4.140002 q 0,-1.524 -1.308,-1.524 -0.936,0 -1.344,0.54 -0.396,0.54 -0.396,1.572 v 3.552002 h -1.044 v -4.140002 q 0,-1.524 -1.32,-1.524 -0.972,0 -1.344,0.6 -0.372,0.6 -0.372,1.728 v 3.336002 h -1.056 v -6.432002 h 0.852 l 0.156,0.876 h 0.06 q 0.3,-0.504 0.804,-0.744 0.516,-0.252 1.092,-0.252 1.512,0 1.968,1.08 h 0.06 q 0.324,-0.552 0.876,-0.816 0.564,-0.264 1.188,-0.264 z"
       id="path567" />
    <path
       d="m 179.41408,94.183268 q 1.188,0 1.908,0.828 0.732,0.828 0.732,2.496 0,1.644 -0.732,2.496002 -0.72,0.852 -1.92,0.852 -0.744,0 -1.236,-0.276 -0.48,-0.288 -0.756,-0.660002 h -0.072 q 0.024,0.204002 0.048,0.516002 0.024,0.312 0.024,0.54 v 2.64 h -1.056 v -9.312002 h 0.864 l 0.144,0.876 h 0.048 q 0.288,-0.42 0.756,-0.708 0.468,-0.288 1.248,-0.288 z m -0.192,0.888 q -0.984,0 -1.392,0.552 -0.396,0.552 -0.42,1.68 v 0.204 q 0,1.188 0.384,1.836 0.396,0.636 1.452,0.636 0.588,0 0.96,-0.324 0.384,-0.324 0.564,-0.876 0.192,-0.564 0.192,-1.284 0,-1.104 -0.432,-1.764 -0.42,-0.66 -1.308,-0.66 z"
       id="path569" />
    <path
       d="m 184.79008,100.73527 h -1.056 v -9.120002 h 1.056 z"
       id="path571" />
    <path
       d="m 189.31407,94.183268 q 0.828,0 1.416,0.36 0.6,0.36 0.912,1.02 0.324,0.648 0.324,1.524 v 0.636 h -4.404 q 0.024,1.092 0.552,1.668 0.54,0.564 1.5,0.564 0.612,0 1.08,-0.108 0.48,-0.12 0.984,-0.336 v 0.924002 q -0.492,0.216 -0.972,0.312 -0.48,0.108 -1.14,0.108 -0.912,0 -1.62,-0.372 -0.696,-0.372 -1.092,-1.104002 -0.384,-0.744 -0.384,-1.812 0,-1.056 0.348,-1.812 0.36,-0.756 0.996,-1.164 0.648,-0.408 1.5,-0.408 z m -0.012,0.864 q -0.756,0 -1.2,0.492 -0.432,0.48 -0.516,1.344 h 3.276 q -0.012,-0.816 -0.384,-1.32 -0.372,-0.516 -1.176,-0.516 z"
       id="path573" />
    <path
       d="m 201.93807,100.73527 h -5.664 v -0.876002 l 2.244,-2.268 q 0.648,-0.648 1.092,-1.152 0.444,-0.504 0.672,-0.984 0.228,-0.492 0.228,-1.068 0,-0.708 -0.42,-1.068 -0.42,-0.372 -1.092,-0.372 -0.624,0 -1.104,0.216 -0.468,0.216 -0.96,0.6 l -0.564,-0.708 q 0.504,-0.42 1.152,-0.708 0.66,-0.3 1.476,-0.3 1.2,0 1.896,0.612 0.696,0.6 0.696,1.668 0,0.672 -0.276,1.26 -0.276,0.588 -0.768,1.164 -0.492,0.564 -1.152,1.212 l -1.788,1.764 v 0.048 h 4.332 z"
       id="path575" />
  </g>
  <rect
     style="fill:#acd09f;fill-opacity:1;stroke:#000000;stroke-width:0.38131;stroke-opacity:1"
     id="rect56"
     width="60.912807"
     height="40.327896"
     x="146.46516"
     y="129.08926"
     ry="5.6640306" />
  <g
     aria-label="Sample N"
     id="text56"
     style="fill:#000000">
    <path
       d="m 156.32797,138.97271 q 0,1.14 -0.828,1.776 -0.828,0.636 -2.232,0.636 -0.72,0 -1.332,-0.108 -0.612,-0.108 -1.02,-0.3 v -1.032 q 0.432,0.192 1.068,0.348 0.648,0.156 1.332,0.156 0.96,0 1.44,-0.372 0.492,-0.372 0.492,-1.008 0,-0.42 -0.18,-0.708 -0.18,-0.288 -0.624,-0.528 -0.432,-0.252 -1.212,-0.528 -1.092,-0.396 -1.656,-0.972 -0.552,-0.576 -0.552,-1.572 0,-0.684 0.348,-1.164 0.348,-0.492 0.96,-0.756 0.624,-0.264 1.428,-0.264 0.708,0 1.296,0.132 0.588,0.132 1.068,0.348 l -0.336,0.924 q -0.444,-0.192 -0.972,-0.324 -0.516,-0.132 -1.08,-0.132 -0.804,0 -1.212,0.348 -0.408,0.336 -0.408,0.9 0,0.432 0.18,0.72 0.18,0.288 0.588,0.516 0.408,0.228 1.104,0.492 0.756,0.276 1.272,0.6 0.528,0.312 0.792,0.756 0.276,0.444 0.276,1.116 z"
       id="path578" />
    <path
       d="m 160.34797,134.72471 q 1.176,0 1.74,0.516 0.564,0.516 0.564,1.644 v 4.38 h -0.768 l -0.204,-0.912 h -0.048 q -0.42,0.528 -0.888,0.78 -0.456,0.252 -1.272,0.252 -0.876,0 -1.452,-0.456 -0.576,-0.468 -0.576,-1.452 0,-0.96 0.756,-1.476 0.756,-0.528 2.328,-0.576 l 1.092,-0.036 v -0.384 q 0,-0.804 -0.348,-1.116 -0.348,-0.312 -0.984,-0.312 -0.504,0 -0.96,0.156 -0.456,0.144 -0.852,0.336 l -0.324,-0.792 q 0.42,-0.228 0.996,-0.384 0.576,-0.168 1.2,-0.168 z m 0.312,3.432 q -1.2,0.048 -1.668,0.384 -0.456,0.336 -0.456,0.948 0,0.54 0.324,0.792 0.336,0.252 0.852,0.252 0.816,0 1.356,-0.444 0.54,-0.456 0.54,-1.392 v -0.576 z"
       id="path580" />
    <path
       d="m 171.69998,134.71271 q 1.092,0 1.632,0.564 0.54,0.552 0.54,1.8 v 4.188 h -1.044 v -4.14 q 0,-1.524 -1.308,-1.524 -0.936,0 -1.344,0.54 -0.396,0.54 -0.396,1.572 v 3.552 h -1.044 v -4.14 q 0,-1.524 -1.32,-1.524 -0.972,0 -1.344,0.6 -0.372,0.6 -0.372,1.728 v 3.336 h -1.056 v -6.432 h 0.852 l 0.156,0.876 h 0.06 q 0.3,-0.504 0.804,-0.744 0.516,-0.252 1.092,-0.252 1.512,0 1.968,1.08 h 0.06 q 0.324,-0.552 0.876,-0.816 0.564,-0.264 1.188,-0.264 z"
       id="path582" />
    <path
       d="m 178.92397,134.71271 q 1.188,0 1.908,0.828 0.732,0.828 0.732,2.496 0,1.644 -0.732,2.496 -0.72,0.852 -1.92,0.852 -0.744,0 -1.236,-0.276 -0.48,-0.288 -0.756,-0.66 h -0.072 q 0.024,0.204 0.048,0.516 0.024,0.312 0.024,0.54 v 2.64 h -1.056 v -9.312 h 0.864 l 0.144,0.876 h 0.048 q 0.288,-0.42 0.756,-0.708 0.468,-0.288 1.248,-0.288 z m -0.192,0.888 q -0.984,0 -1.392,0.552 -0.396,0.552 -0.42,1.68 v 0.204 q 0,1.188 0.384,1.836 0.396,0.636 1.452,0.636 0.588,0 0.96,-0.324 0.384,-0.324 0.564,-0.876 0.192,-0.564 0.192,-1.284 0,-1.104 -0.432,-1.764 -0.42,-0.66 -1.308,-0.66 z"
       id="path584" />
    <path
       d="m 184.29997,141.26471 h -1.056 v -9.12 h 1.056 z"
       id="path586" />
    <path
       d="m 188.82396,134.71271 q 0.828,0 1.416,0.36 0.6,0.36 0.912,1.02 0.324,0.648 0.324,1.524 v 0.636 h -4.404 q 0.024,1.092 0.552,1.668 0.54,0.564 1.5,0.564 0.612,0 1.08,-0.108 0.48,-0.12 0.984,-0.336 v 0.924 q -0.492,0.216 -0.972,0.312 -0.48,0.108 -1.14,0.108 -0.912,0 -1.62,-0.372 -0.696,-0.372 -1.092,-1.104 -0.384,-0.744 -0.384,-1.812 0,-1.056 0.348,-1.812 0.36,-0.756 0.996,-1.164 0.648,-0.408 1.5,-0.408 z m -0.012,0.864 q -0.756,0 -1.2,0.492 -0.432,0.48 -0.516,1.344 h 3.276 q -0.012,-0.816 -0.384,-1.32 -0.372,-0.516 -1.176,-0.516 z"
       id="path588" />
    <path
       d="m 203.16395,141.26471 h -1.26 l -4.584,-7.116 h -0.048 q 0.024,0.42 0.06,1.044 0.036,0.624 0.036,1.284 v 4.788 h -0.996 v -8.568 h 1.248 l 4.572,7.092 h 0.048 q -0.012,-0.192 -0.036,-0.576 -0.012,-0.384 -0.036,-0.84 -0.012,-0.456 -0.012,-0.84 v -4.836 h 1.008 z"
       id="path590" />
  </g>
  <rect
     style="fill:none;fill-opacity:1;stroke:#000000;stroke-width:0.332916;stroke-opacity:1"
     id="rect57"
     width="53.118061"
     height="17.345798"
     x="150.9507"
     y="146.31122"
     ry="0" />
  <g
     aria-label="Sample N"
     id="text57"
     style="fill:#000000">
    <path
       d="m 156.81808,156.44326 q 0,1.14 -0.828,1.776 -0.828,0.636 -2.232,0.636 -0.72,0 -1.332,-0.108 -0.612,-0.108 -1.02,-0.3 v -1.032 q 0.432,0.192 1.068,0.348 0.648,0.156 1.332,0.156 0.96,0 1.44,-0.372 0.492,-0.372 0.492,-1.008 0,-0.42 -0.18,-0.708 -0.18,-0.288 -0.624,-0.528 -0.432,-0.252 -1.212,-0.528 -1.092,-0.396 -1.656,-0.972 -0.552,-0.576 -0.552,-1.572 0,-0.684 0.348,-1.164 0.348,-0.492 0.96,-0.756 0.624,-0.264 1.428,-0.264 0.708,0 1.296,0.132 0.588,0.132 1.068,0.348 l -0.336,0.924 q -0.444,-0.192 -0.972,-0.324 -0.516,-0.132 -1.08,-0.132 -0.804,0 -1.212,0.348 -0.408,0.336 -0.408,0.9 0,0.432 0.18,0.72 0.18,0.288 0.588,0.516 0.408,0.228 1.104,0.492 0.756,0.276 1.272,0.6 0.528,0.312 0.792,0.756 0.276,0.444 0.276,1.116 z"
       id="path593" />
    <path
       d="m 160.83808,152.19526 q 1.176,0 1.74,0.516 0.564,0.516 0.564,1.644 v 4.38 h -0.768 l -0.204,-0.912 h -0.048 q -0.42,0.528 -0.888,0.78 -0.456,0.252 -1.272,0.252 -0.876,0 -1.452,-0.456 -0.576,-0.468 -0.576,-1.452 0,-0.96 0.756,-1.476 0.756,-0.528 2.328,-0.576 l 1.092,-0.036 v -0.384 q 0,-0.804 -0.348,-1.116 -0.348,-0.312 -0.984,-0.312 -0.504,0 -0.96,0.156 -0.456,0.144 -0.852,0.336 l -0.324,-0.792 q 0.42,-0.228 0.996,-0.384 0.576,-0.168 1.2,-0.168 z m 0.312,3.432 q -1.2,0.048 -1.668,0.384 -0.456,0.336 -0.456,0.948 0,0.54 0.324,0.792 0.336,0.252 0.852,0.252 0.816,0 1.356,-0.444 0.54,-0.456 0.54,-1.392 v -0.576 z"
       id="path595" />
    <path
       d="m 172.19009,152.18326 q 1.092,0 1.632,0.564 0.54,0.552 0.54,1.8 v 4.188 h -1.044 v -4.14 q 0,-1.524 -1.308,-1.524 -0.936,0 -1.344,0.54 -0.396,0.54 -0.396,1.572 v 3.552 h -1.044 v -4.14 q 0,-1.524 -1.32,-1.524 -0.972,0 -1.344,0.6 -0.372,0.6 -0.372,1.728 v 3.336 h -1.056 v -6.432 h 0.852 l 0.156,0.876 h 0.06 q 0.3,-0.504 0.804,-0.744 0.516,-0.252 1.092,-0.252 1.512,0 1.968,1.08 h 0.06 q 0.324,-0.552 0.876,-0.816 0.564,-0.264 1.188,-0.264 z"
       id="path597" />
    <path
       d="m 179.41408,152.18326 q 1.188,0 1.908,0.828 0.732,0.828 0.732,2.496 0,1.644 -0.732,2.496 -0.72,0.852 -1.92,0.852 -0.744,0 -1.236,-0.276 -0.48,-0.288 -0.756,-0.66 h -0.072 q 0.024,0.204 0.048,0.516 0.024,0.312 0.024,0.54 v 2.64 h -1.056 v -9.312 h 0.864 l 0.144,0.876 h 0.048 q 0.288,-0.42 0.756,-0.708 0.468,-0.288 1.248,-0.288 z m -0.192,0.888 q -0.984,0 -1.392,0.552 -0.396,0.552 -0.42,1.68 v 0.204 q 0,1.188 0.384,1.836 0.396,0.636 1.452,0.636 0.588,0 0.96,-0.324 0.384,-0.324 0.564,-0.876 0.192,-0.564 0.192,-1.284 0,-1.104 -0.432,-1.764 -0.42,-0.66 -1.308,-0.66 z"
       id="path599" />
    <path
       d="m 184.79008,158.73526 h -1.056 v -9.12 h 1.056 z"
       id="path601" />
    <path
       d="m 189.31407,152.18326 q 0.828,0 1.416,0.36 0.6,0.36 0.912,1.02 0.324,0.648 0.324,1.524 v 0.636 h -4.404 q 0.024,1.092 0.552,1.668 0.54,0.564 1.5,0.564 0.612,0 1.08,-0.108 0.48,-0.12 0.984,-0.336 v 0.924 q -0.492,0.216 -0.972,0.312 -0.48,0.108 -1.14,0.108 -0.912,0 -1.62,-0.372 -0.696,-0.372 -1.092,-1.104 -0.384,-0.744 -0.384,-1.812 0,-1.056 0.348,-1.812 0.36,-0.756 0.996,-1.164 0.648,-0.408 1.5,-0.408 z m -0.012,0.864 q -0.756,0 -1.2,0.492 -0.432,0.48 -0.516,1.344 h 3.276 q -0.012,-0.816 -0.384,-1.32 -0.372,-0.516 -1.176,-0.516 z"
       id="path603" />
    <path
       d="m 203.65407,158.73526 h -1.26 l -4.584,-7.116 h -0.048 q 0.024,0.42 0.06,1.044 0.036,0.624 0.036,1.284 v 4.788 h -0.996 v -8.568 h 1.248 l 4.572,7.092 h 0.048 q -0.012,-0.192 -0.036,-0.576 -0.012,-0.384 -0.036,-0.84 -0.012,-0.456 -0.012,-0.84 v -4.836 h 1.008 z"
       id="path605" />
  </g>
  <g
     aria-label="Nested list"
     id="text58"
     style="fill:#000000">
    <path
       d="m 156.75014,17.264719 h -1.26 l -4.584,-7.116 h -0.048 q 0.024,0.42 0.06,1.044 0.036,0.624 0.036,1.284 v 4.788 h -0.996 v -8.568 h 1.248 l 4.572,7.092 h 0.048 q -0.012,-0.192 -0.036,-0.576 -0.012,-0.384 -0.036,-0.84 -0.012,-0.456 -0.012,-0.84 v -4.836 h 1.008 z"
       id="path497" />
    <path
       d="m 161.41815,10.712719 q 0.828,0 1.416,0.36 0.6,0.36 0.912,1.02 0.324,0.648 0.324,1.524 v 0.636 h -4.404 q 0.024,1.092 0.552,1.668 0.54,0.564 1.5,0.564 0.612,0 1.08,-0.108 0.48,-0.12 0.984,-0.336 v 0.924 q -0.492,0.216 -0.972,0.312 -0.48,0.108 -1.14,0.108 -0.912,0 -1.62,-0.372 -0.696,-0.372 -1.092,-1.104 -0.384,-0.744 -0.384,-1.812 0,-1.056 0.348,-1.812 0.36,-0.756 0.996,-1.164 0.648,-0.408 1.5,-0.408 z m -0.012,0.864 q -0.756,0 -1.2,0.492 -0.432,0.48 -0.516,1.344 h 3.276 q -0.012,-0.816 -0.384,-1.32 -0.372,-0.516 -1.176,-0.516 z"
       id="path499" />
    <path
       d="m 169.89014,15.488719 q 0,0.936 -0.696,1.416 -0.696,0.48 -1.872,0.48 -0.672,0 -1.164,-0.108 -0.48,-0.108 -0.852,-0.3 v -0.96 q 0.384,0.192 0.924,0.36 0.552,0.156 1.116,0.156 0.804,0 1.164,-0.252 0.36,-0.264 0.36,-0.696 0,-0.24 -0.132,-0.432 -0.132,-0.192 -0.48,-0.384 -0.336,-0.192 -0.972,-0.432 -0.624,-0.24 -1.068,-0.48 -0.444,-0.24 -0.684,-0.576 -0.24,-0.336 -0.24,-0.864 0,-0.816 0.66,-1.26 0.672,-0.444 1.752,-0.444 0.588,0 1.092,0.12 0.516,0.108 0.96,0.312 l -0.36,0.84 q -0.408,-0.168 -0.852,-0.288 -0.444,-0.12 -0.912,-0.12 -0.648,0 -0.996,0.216 -0.336,0.204 -0.336,0.564 0,0.264 0.156,0.456 0.156,0.18 0.516,0.36 0.372,0.168 0.984,0.408 0.612,0.228 1.044,0.468 0.432,0.24 0.66,0.588 0.228,0.336 0.228,0.852 z"
       id="path501" />
    <path
       d="m 173.59814,16.520719 q 0.24,0 0.492,-0.036 0.252,-0.048 0.408,-0.096 v 0.804 q -0.168,0.084 -0.48,0.132 -0.312,0.06 -0.6,0.06 -0.504,0 -0.936,-0.168 -0.42,-0.18 -0.684,-0.612 -0.264,-0.432 -0.264,-1.212 v -3.744 h -0.912 v -0.504 l 0.924,-0.42 0.42,-1.368 h 0.624 v 1.476 h 1.86 v 0.816 h -1.86 v 3.72 q 0,0.588 0.276,0.876 0.288,0.276 0.732,0.276 z"
       id="path503" />
    <path
       d="m 178.26614,10.712719 q 0.828,0 1.416,0.36 0.6,0.36 0.912,1.02 0.324,0.648 0.324,1.524 v 0.636 h -4.404 q 0.024,1.092 0.552,1.668 0.54,0.564 1.5,0.564 0.612,0 1.08,-0.108 0.48,-0.12 0.984,-0.336 v 0.924 q -0.492,0.216 -0.972,0.312 -0.48,0.108 -1.14,0.108 -0.912,0 -1.62,-0.372 -0.696,-0.372 -1.092,-1.104 -0.384,-0.744 -0.384,-1.812 0,-1.056 0.348,-1.812 0.36,-0.756 0.996,-1.164 0.648,-0.408 1.5,-0.408 z m -0.012,0.864 q -0.756,0 -1.2,0.492 -0.432,0.48 -0.516,1.344 h 3.276 q -0.012,-0.816 -0.384,-1.32 -0.372,-0.516 -1.176,-0.516 z"
       id="path505" />
    <path
       d="m 184.83013,17.384719 q -1.2,0 -1.92,-0.828 -0.72,-0.84 -0.72,-2.496 0,-1.656 0.72,-2.496 0.732,-0.852 1.932,-0.852 0.744,0 1.212,0.276 0.48,0.276 0.78,0.672 h 0.072 q -0.012,-0.156 -0.048,-0.456 -0.024,-0.312 -0.024,-0.492 v -2.568 h 1.056 v 9.12 h -0.852 l -0.156,-0.864 h -0.048 q -0.288,0.408 -0.768,0.696 -0.48,0.288 -1.236,0.288 z m 0.168,-0.876 q 1.02,0 1.428,-0.552 0.42,-0.564 0.42,-1.692 v -0.192 q 0,-1.2 -0.396,-1.836 -0.396,-0.648 -1.464,-0.648 -0.852,0 -1.284,0.684 -0.42,0.672 -0.42,1.812 0,1.152 0.42,1.788 0.432,0.636 1.296,0.636 z"
       id="path507" />
    <path
       d="m 194.10613,17.264719 h -1.056 v -9.12 h 1.056 z"
       id="path509" />
    <path
       d="m 196.68612,8.420719 q 0.24,0 0.42,0.168 0.192,0.156 0.192,0.504 0,0.336 -0.192,0.504 -0.18,0.168 -0.42,0.168 -0.264,0 -0.444,-0.168 -0.18,-0.168 -0.18,-0.504 0,-0.348 0.18,-0.504 0.18,-0.168 0.444,-0.168 z m 0.516,2.412 v 6.432 h -1.056 v -6.432 z"
       id="path511" />
    <path
       d="m 203.43011,15.488719 q 0,0.936 -0.696,1.416 -0.696,0.48 -1.872,0.48 -0.672,0 -1.164,-0.108 -0.48,-0.108 -0.852,-0.3 v -0.96 q 0.384,0.192 0.924,0.36 0.552,0.156 1.116,0.156 0.804,0 1.164,-0.252 0.36,-0.264 0.36,-0.696 0,-0.24 -0.132,-0.432 -0.132,-0.192 -0.48,-0.384 -0.336,-0.192 -0.972,-0.432 -0.624,-0.24 -1.068,-0.48 -0.444,-0.24 -0.684,-0.576 -0.24,-0.336 -0.24,-0.864 0,-0.816 0.66,-1.26 0.672,-0.444 1.752,-0.444 0.588,0 1.092,0.12 0.516,0.108 0.96,0.312 l -0.36,0.84 q -0.408,-0.168 -0.852,-0.288 -0.444,-0.12 -0.912,-0.12 -0.648,0 -0.996,0.216 -0.336,0.204 -0.336,0.564 0,0.264 0.156,0.456 0.156,0.18 0.516,0.36 0.372,0.168 0.984,0.408 0.612,0.228 1.044,0.468 0.432,0.24 0.66,0.588 0.228,0.336 0.228,0.852 z"
       id="path513" />
    <path
       d="m 207.13812,16.520719 q 0.24,0 0.492,-0.036 0.252,-0.048 0.408,-0.096 v 0.804 q -0.168,0.084 -0.48,0.132 -0.312,0.06 -0.6,0.06 -0.504,0 -0.936,-0.168 -0.42,-0.18 -0.684,-0.612 -0.264,-0.432 -0.264,-1.212 v -3.744 h -0.912 v -0.504 l 0.924,-0.42 0.42,-1.368 h 0.624 v 1.476 h 1.86 v 0.816 h -1.86 v 3.72 q 0,0.588 0.276,0.876 0.288,0.276 0.732,0.276 z"
       id="path515" />
  </g>
  <text
     xml:space="preserve"
     style="text-align:start;writing-mode:lr-tb;direction:ltr;text-anchor:start;fill:none;fill-opacity:1;stroke:#000000;stroke-opacity:1"
     x="170.48036"
     y="122.40195"
     id="text59"><tspan
       sodipodi:role="line"
       id="tspan59"
       x="170.48036"
       y="122.40195">...</tspan></text>
  <rect
     style="fill:#d9ead3;fill-opacity:1;stroke:#000000;stroke-width:0.877829;stroke-opacity:1"
     id="rect59"
     width="75.612366"
     height="172.181"
     x="0.43891451"
     y="0.43891451"
     ry="7.9576182" />
  <g
     aria-label="List"
     id="text66"
     style="fill:#000000">
    <path
       d="m 27.95814,17.264719 v -8.568 h 1.08 v 7.608 h 3.744 v 0.96 z"
       id="path488" />
    <path
       d="m 34.642142,8.420719 q 0.24,0 0.42,0.168 0.192,0.156 0.192,0.504 0,0.336 -0.192,0.504 -0.18,0.168 -0.42,0.168 -0.264,0 -0.444,-0.168 -0.18,-0.168 -0.18,-0.504 0,-0.348 0.18,-0.504 0.18,-0.168 0.444,-0.168 z m 0.516,2.412 v 6.432 h -1.056 v -6.432 z"
       id="path490" />
    <path
       d="m 41.386135,15.488719 q 0,0.936 -0.696,1.416 -0.696,0.48 -1.872,0.48 -0.672,0 -1.164,-0.108 -0.48,-0.108 -0.852,-0.3 v -0.96 q 0.384,0.192 0.924,0.36 0.552,0.156 1.116,0.156 0.804,0 1.164,-0.252 0.36,-0.264 0.36,-0.696 0,-0.24 -0.132,-0.432 -0.132,-0.192 -0.48,-0.384 -0.336,-0.192 -0.972,-0.432 -0.624,-0.24 -1.068,-0.48 -0.444,-0.24 -0.684,-0.576 -0.24,-0.336 -0.24,-0.864 0,-0.816 0.66,-1.26 0.672,-0.444 1.752,-0.444 0.588,0 1.092,0.12 0.516,0.108 0.96,0.312 l -0.36,0.84 q -0.408,-0.168 -0.852,-0.288 -0.444,-0.12 -0.912,-0.12 -0.648,0 -0.996,0.216 -0.336,0.204 -0.336,0.564 0,0.264 0.156,0.456 0.156,0.18 0.516,0.36 0.372,0.168 0.984,0.408 0.612,0.228 1.044,0.468 0.432,0.24 0.66,0.588 0.228,0.336 0.228,0.852 z"
       id="path492" />
    <path
       d="m 45.094136,16.520719 q 0.24,0 0.492,-0.036 0.252,-0.048 0.408,-0.096 v 0.804 q -0.168,0.084 -0.48,0.132 -0.312,0.06 -0.6,0.06 -0.504,0 -0.936,-0.168 -0.42,-0.18 -0.684,-0.612 -0.264,-0.432 -0.264,-1.212 v -3.744 h -0.912 v -0.504 l 0.924,-0.42 0.42,-1.368 h 0.624 v 1.476 h 1.86 v 0.816 h -1.86 v 3.72 q 0,0.588 0.276,0.876 0.288,0.276 0.732,0.276 z"
       id="path494" />
  </g>
  <rect
     style="fill:none;fill-opacity:1;stroke:#000000;stroke-width:0.332916;stroke-opacity:1"
     id="rect67"
     width="53.118061"
     height="17.345798"
     x="12.950695"
     y="42.323284"
     ry="0" />
  <g
     aria-label="Sample 1"
     id="text67"
     style="fill:#000000">
    <path
       d="m 18.818079,52.443271 q 0,1.14 -0.828,1.776 -0.828,0.636 -2.232,0.636 -0.72,0 -1.332,-0.108 -0.612,-0.108 -1.02,-0.3 v -1.032 q 0.432,0.192 1.068,0.348 0.648,0.156 1.332,0.156 0.96,0 1.44,-0.372 0.492,-0.372 0.492,-1.008 0,-0.42 -0.18,-0.708 -0.18,-0.288 -0.624,-0.528 -0.432,-0.252 -1.212,-0.528 -1.092,-0.396 -1.656,-0.972 -0.552,-0.576 -0.552,-1.572 0,-0.684 0.348,-1.164 0.348,-0.492 0.96,-0.756 0.624,-0.264 1.428,-0.264 0.708,0 1.296,0.132 0.588,0.132 1.068,0.348 l -0.336,0.924 q -0.444,-0.192 -0.972,-0.324 -0.516,-0.132 -1.08,-0.132 -0.804,0 -1.212,0.348 -0.408,0.336 -0.408,0.9 0,0.432 0.18,0.72 0.18,0.288 0.588,0.516 0.408,0.228 1.104,0.492 0.756,0.276 1.272,0.6 0.528,0.312 0.792,0.756 0.276,0.444 0.276,1.116 z"
       id="path473" />
    <path
       d="m 22.838076,48.195271 q 1.176,0 1.74,0.516 0.564,0.516 0.564,1.644 v 4.38 h -0.768 l -0.204,-0.912 h -0.048 q -0.42,0.528 -0.888,0.78 -0.456,0.252 -1.272,0.252 -0.876,0 -1.452,-0.456 -0.576,-0.468 -0.576,-1.452 0,-0.96 0.756,-1.476 0.756,-0.528 2.328,-0.576 l 1.092,-0.036 v -0.384 q 0,-0.804 -0.348,-1.116 -0.348,-0.312 -0.984,-0.312 -0.504,0 -0.96,0.156 -0.456,0.144 -0.852,0.336 l -0.324,-0.792 q 0.42,-0.228 0.996,-0.384 0.576,-0.168 1.2,-0.168 z m 0.312,3.432 q -1.2,0.048 -1.668,0.384 -0.456,0.336 -0.456,0.948 0,0.54 0.324,0.792 0.336,0.252 0.852,0.252 0.816,0 1.356,-0.444 0.54,-0.456 0.54,-1.392 v -0.576 z"
       id="path475" />
    <path
       d="m 34.190086,48.183271 q 1.092,0 1.632,0.564 0.54,0.552 0.54,1.8 v 4.188 h -1.044 v -4.14 q 0,-1.524 -1.308,-1.524 -0.936,0 -1.344,0.54 -0.396,0.54 -0.396,1.572 v 3.552 h -1.044 v -4.14 q 0,-1.524 -1.32,-1.524 -0.972,0 -1.344,0.6 -0.372,0.6 -0.372,1.728 v 3.336 h -1.056 v -6.432 h 0.852 l 0.156,0.876 h 0.06 q 0.3,-0.504 0.804,-0.744 0.516,-0.252 1.092,-0.252 1.512,0 1.968,1.08 h 0.06 q 0.324,-0.552 0.876,-0.816 0.564,-0.264 1.188,-0.264 z"
       id="path477" />
    <path
       d="m 41.41408,48.183271 q 1.188,0 1.908,0.828 0.732,0.828 0.732,2.496 0,1.644 -0.732,2.496 -0.72,0.852 -1.92,0.852 -0.744,0 -1.236,-0.276 -0.48,-0.288 -0.756,-0.66 h -0.072 q 0.024,0.204 0.048,0.516 0.024,0.312 0.024,0.54 v 2.64 h -1.056 v -9.312 h 0.864 l 0.144,0.876 h 0.048 q 0.288,-0.42 0.756,-0.708 0.468,-0.288 1.248,-0.288 z m -0.192,0.888 q -0.984,0 -1.392,0.552 -0.396,0.552 -0.42,1.68 v 0.204 q 0,1.188 0.384,1.836 0.396,0.636 1.452,0.636 0.588,0 0.96,-0.324 0.384,-0.324 0.564,-0.876 0.192,-0.564 0.192,-1.284 0,-1.104 -0.432,-1.764 -0.42,-0.66 -1.308,-0.66 z"
       id="path479" />
    <path
       d="m 46.790077,54.735271 h -1.056 v -9.12 h 1.056 z"
       id="path481" />
    <path
       d="m 51.31407,48.183271 q 0.828,0 1.416,0.36 0.6,0.36 0.912,1.02 0.324,0.648 0.324,1.524 v 0.636 h -4.404 q 0.024,1.092 0.552,1.668 0.54,0.564 1.5,0.564 0.612,0 1.08,-0.108 0.48,-0.12 0.984,-0.336 v 0.924 q -0.492,0.216 -0.972,0.312 -0.48,0.108 -1.14,0.108 -0.912,0 -1.62,-0.372 -0.696,-0.372 -1.092,-1.104 -0.384,-0.744 -0.384,-1.812 0,-1.056 0.348,-1.812 0.36,-0.756 0.996,-1.164 0.648,-0.408 1.5,-0.408 z m -0.012,0.864 q -0.756,0 -1.2,0.492 -0.432,0.48 -0.516,1.344 h 3.276 q -0.012,-0.816 -0.384,-1.32 -0.372,-0.516 -1.176,-0.516 z"
       id="path483" />
    <path
       d="m 61.958063,54.735271 h -1.032 v -5.988 q 0,-0.516 0.012,-0.828 0.012,-0.312 0.036,-0.648 -0.192,0.192 -0.348,0.324 -0.156,0.132 -0.396,0.336 l -0.912,0.744 -0.552,-0.708 2.316,-1.8 h 0.876 z"
       id="path485" />
  </g>
  <rect
     style="fill:none;fill-opacity:1;stroke:#000000;stroke-width:0.332916;stroke-opacity:1"
     id="rect68"
     width="53.118061"
     height="17.345798"
     x="12.950695"
     y="88.317978"
     ry="0" />
  <g
     aria-label="Sample 2"
     id="text68"
     style="fill:#000000">
    <path
       d="m 18.818079,98.443268 q 0,1.14 -0.828,1.776002 -0.828,0.636 -2.232,0.636 -0.72,0 -1.332,-0.108 -0.612,-0.108 -1.02,-0.3 v -1.032002 q 0.432,0.192 1.068,0.348 0.648,0.156 1.332,0.156 0.96,0 1.44,-0.372 0.492,-0.372 0.492,-1.008 0,-0.42 -0.18,-0.708 -0.18,-0.288 -0.624,-0.528 -0.432,-0.252 -1.212,-0.528 -1.092,-0.396 -1.656,-0.972 -0.552,-0.576 -0.552,-1.572 0,-0.684 0.348,-1.164 0.348,-0.492 0.96,-0.756 0.624,-0.264 1.428,-0.264 0.708,0 1.296,0.132 0.588,0.132 1.068,0.348 l -0.336,0.924 q -0.444,-0.192 -0.972,-0.324 -0.516,-0.132 -1.08,-0.132 -0.804,0 -1.212,0.348 -0.408,0.336 -0.408,0.9 0,0.432 0.18,0.72 0.18,0.288 0.588,0.516 0.408,0.228 1.104,0.492 0.756,0.276 1.272,0.6 0.528,0.312 0.792,0.756 0.276,0.444 0.276,1.116 z"
       id="path458" />
    <path
       d="m 22.838076,94.195268 q 1.176,0 1.74,0.516 0.564,0.516 0.564,1.644 v 4.380002 h -0.768 l -0.204,-0.912002 h -0.048 q -0.42,0.528002 -0.888,0.780002 -0.456,0.252 -1.272,0.252 -0.876,0 -1.452,-0.456 -0.576,-0.468002 -0.576,-1.452002 0,-0.96 0.756,-1.476 0.756,-0.528 2.328,-0.576 l 1.092,-0.036 v -0.384 q 0,-0.804 -0.348,-1.116 -0.348,-0.312 -0.984,-0.312 -0.504,0 -0.96,0.156 -0.456,0.144 -0.852,0.336 l -0.324,-0.792 q 0.42,-0.228 0.996,-0.384 0.576,-0.168 1.2,-0.168 z m 0.312,3.432 q -1.2,0.048 -1.668,0.384 -0.456,0.336 -0.456,0.948 0,0.54 0.324,0.792 0.336,0.252002 0.852,0.252002 0.816,0 1.356,-0.444002 0.54,-0.456 0.54,-1.392 v -0.576 z"
       id="path460" />
    <path
       d="m 34.190086,94.183268 q 1.092,0 1.632,0.564 0.54,0.552 0.54,1.8 v 4.188002 h -1.044 v -4.140002 q 0,-1.524 -1.308,-1.524 -0.936,0 -1.344,0.54 -0.396,0.54 -0.396,1.572 v 3.552002 h -1.044 v -4.140002 q 0,-1.524 -1.32,-1.524 -0.972,0 -1.344,0.6 -0.372,0.6 -0.372,1.728 v 3.336002 h -1.056 v -6.432002 h 0.852 l 0.156,0.876 h 0.06 q 0.3,-0.504 0.804,-0.744 0.516,-0.252 1.092,-0.252 1.512,0 1.968,1.08 h 0.06 q 0.324,-0.552 0.876,-0.816 0.564,-0.264 1.188,-0.264 z"
       id="path462" />
    <path
       d="m 41.41408,94.183268 q 1.188,0 1.908,0.828 0.732,0.828 0.732,2.496 0,1.644 -0.732,2.496002 -0.72,0.852 -1.92,0.852 -0.744,0 -1.236,-0.276 -0.48,-0.288 -0.756,-0.660002 h -0.072 q 0.024,0.204002 0.048,0.516002 0.024,0.312 0.024,0.54 v 2.64 h -1.056 v -9.312002 h 0.864 l 0.144,0.876 h 0.048 q 0.288,-0.42 0.756,-0.708 0.468,-0.288 1.248,-0.288 z m -0.192,0.888 q -0.984,0 -1.392,0.552 -0.396,0.552 -0.42,1.68 v 0.204 q 0,1.188 0.384,1.836 0.396,0.636 1.452,0.636 0.588,0 0.96,-0.324 0.384,-0.324 0.564,-0.876 0.192,-0.564 0.192,-1.284 0,-1.104 -0.432,-1.764 -0.42,-0.66 -1.308,-0.66 z"
       id="path464" />
    <path
       d="m 46.790077,100.73527 h -1.056 v -9.120002 h 1.056 z"
       id="path466" />
    <path
       d="m 51.31407,94.183268 q 0.828,0 1.416,0.36 0.6,0.36 0.912,1.02 0.324,0.648 0.324,1.524 v 0.636 h -4.404 q 0.024,1.092 0.552,1.668 0.54,0.564 1.5,0.564 0.612,0 1.08,-0.108 0.48,-0.12 0.984,-0.336 v 0.924002 q -0.492,0.216 -0.972,0.312 -0.48,0.108 -1.14,0.108 -0.912,0 -1.62,-0.372 -0.696,-0.372 -1.092,-1.104002 -0.384,-0.744 -0.384,-1.812 0,-1.056 0.348,-1.812 0.36,-0.756 0.996,-1.164 0.648,-0.408 1.5,-0.408 z m -0.012,0.864 q -0.756,0 -1.2,0.492 -0.432,0.48 -0.516,1.344 h 3.276 q -0.012,-0.816 -0.384,-1.32 -0.372,-0.516 -1.176,-0.516 z"
       id="path468" />
    <path
       d="m 63.938063,100.73527 h -5.664 v -0.876002 l 2.244,-2.268 q 0.648,-0.648 1.092,-1.152 0.444,-0.504 0.672,-0.984 0.228,-0.492 0.228,-1.068 0,-0.708 -0.42,-1.068 -0.42,-0.372 -1.092,-0.372 -0.624,0 -1.104,0.216 -0.468,0.216 -0.96,0.6 l -0.564,-0.708 q 0.504,-0.42 1.152,-0.708 0.66,-0.3 1.476,-0.3 1.2,0 1.896,0.612 0.696,0.6 0.696,1.668 0,0.672 -0.276,1.26 -0.276,0.588 -0.768,1.164 -0.492,0.564 -1.152,1.212 l -1.788,1.764 v 0.048 h 4.332 z"
       id="path470" />
  </g>
  <rect
     style="fill:none;fill-opacity:1;stroke:#000000;stroke-width:0.332916;stroke-opacity:1"
     id="rect69"
     width="53.118061"
     height="17.345798"
     x="12.950695"
     y="146.31122"
     ry="0" />
  <g
     aria-label="Sample N"
     id="text69"
     style="fill:#000000">
    <path
       d="m 18.818079,156.44326 q 0,1.14 -0.828,1.776 -0.828,0.636 -2.232,0.636 -0.72,0 -1.332,-0.108 -0.612,-0.108 -1.02,-0.3 v -1.032 q 0.432,0.192 1.068,0.348 0.648,0.156 1.332,0.156 0.96,0 1.44,-0.372 0.492,-0.372 0.492,-1.008 0,-0.42 -0.18,-0.708 -0.18,-0.288 -0.624,-0.528 -0.432,-0.252 -1.212,-0.528 -1.092,-0.396 -1.656,-0.972 -0.552,-0.576 -0.552,-1.572 0,-0.684 0.348,-1.164 0.348,-0.492 0.96,-0.756 0.624,-0.264 1.428,-0.264 0.708,0 1.296,0.132 0.588,0.132 1.068,0.348 l -0.336,0.924 q -0.444,-0.192 -0.972,-0.324 -0.516,-0.132 -1.08,-0.132 -0.804,0 -1.212,0.348 -0.408,0.336 -0.408,0.9 0,0.432 0.18,0.72 0.18,0.288 0.588,0.516 0.408,0.228 1.104,0.492 0.756,0.276 1.272,0.6 0.528,0.312 0.792,0.756 0.276,0.444 0.276,1.116 z"
       id="path443" />
    <path
       d="m 22.838076,152.19526 q 1.176,0 1.74,0.516 0.564,0.516 0.564,1.644 v 4.38 h -0.768 l -0.204,-0.912 h -0.048 q -0.42,0.528 -0.888,0.78 -0.456,0.252 -1.272,0.252 -0.876,0 -1.452,-0.456 -0.576,-0.468 -0.576,-1.452 0,-0.96 0.756,-1.476 0.756,-0.528 2.328,-0.576 l 1.092,-0.036 v -0.384 q 0,-0.804 -0.348,-1.116 -0.348,-0.312 -0.984,-0.312 -0.504,0 -0.96,0.156 -0.456,0.144 -0.852,0.336 l -0.324,-0.792 q 0.42,-0.228 0.996,-0.384 0.576,-0.168 1.2,-0.168 z m 0.312,3.432 q -1.2,0.048 -1.668,0.384 -0.456,0.336 -0.456,0.948 0,0.54 0.324,0.792 0.336,0.252 0.852,0.252 0.816,0 1.356,-0.444 0.54,-0.456 0.54,-1.392 v -0.576 z"
       id="path445" />
    <path
       d="m 34.190086,152.18326 q 1.092,0 1.632,0.564 0.54,0.552 0.54,1.8 v 4.188 h -1.044 v -4.14 q 0,-1.524 -1.308,-1.524 -0.936,0 -1.344,0.54 -0.396,0.54 -0.396,1.572 v 3.552 h -1.044 v -4.14 q 0,-1.524 -1.32,-1.524 -0.972,0 -1.344,0.6 -0.372,0.6 -0.372,1.728 v 3.336 h -1.056 v -6.432 h 0.852 l 0.156,0.876 h 0.06 q 0.3,-0.504 0.804,-0.744 0.516,-0.252 1.092,-0.252 1.512,0 1.968,1.08 h 0.06 q 0.324,-0.552 0.876,-0.816 0.564,-0.264 1.188,-0.264 z"
       id="path447" />
    <path
       d="m 41.41408,152.18326 q 1.188,0 1.908,0.828 0.732,0.828 0.732,2.496 0,1.644 -0.732,2.496 -0.72,0.852 -1.92,0.852 -0.744,0 -1.236,-0.276 -0.48,-0.288 -0.756,-0.66 h -0.072 q 0.024,0.204 0.048,0.516 0.024,0.312 0.024,0.54 v 2.64 h -1.056 v -9.312 h 0.864 l 0.144,0.876 h 0.048 q 0.288,-0.42 0.756,-0.708 0.468,-0.288 1.248,-0.288 z m -0.192,0.888 q -0.984,0 -1.392,0.552 -0.396,0.552 -0.42,1.68 v 0.204 q 0,1.188 0.384,1.836 0.396,0.636 1.452,0.636 0.588,0 0.96,-0.324 0.384,-0.324 0.564,-0.876 0.192,-0.564 0.192,-1.284 0,-1.104 -0.432,-1.764 -0.42,-0.66 -1.308,-0.66 z"
       id="path449" />
    <path
       d="m 46.790077,158.73526 h -1.056 v -9.12 h 1.056 z"
       id="path451" />
    <path
       d="m 51.31407,152.18326 q 0.828,0 1.416,0.36 0.6,0.36 0.912,1.02 0.324,0.648 0.324,1.524 v 0.636 h -4.404 q 0.024,1.092 0.552,1.668 0.54,0.564 1.5,0.564 0.612,0 1.08,-0.108 0.48,-0.12 0.984,-0.336 v 0.924 q -0.492,0.216 -0.972,0.312 -0.48,0.108 -1.14,0.108 -0.912,0 -1.62,-0.372 -0.696,-0.372 -1.092,-1.104 -0.384,-0.744 -0.384,-1.812 0,-1.056 0.348,-1.812 0.36,-0.756 0.996,-1.164 0.648,-0.408 1.5,-0.408 z m -0.012,0.864 q -0.756,0 -1.2,0.492 -0.432,0.48 -0.516,1.344 h 3.276 q -0.012,-0.816 -0.384,-1.32 -0.372,-0.516 -1.176,-0.516 z"
       id="path453" />
    <path
       d="m 65.654063,158.73526 h -1.26 l -4.584,-7.116 h -0.048 q 0.024,0.42 0.06,1.044 0.036,0.624 0.036,1.284 v 4.788 h -0.996 v -8.568 h 1.248 l 4.572,7.092 h 0.048 q -0.012,-0.192 -0.036,-0.576 -0.012,-0.384 -0.036,-0.84 -0.012,-0.456 -0.012,-0.84 v -4.836 h 1.008 z"
       id="path455" />
  </g>
  <text
     xml:space="preserve"
     style="text-align:start;writing-mode:lr-tb;direction:ltr;text-anchor:start;fill:none;fill-opacity:1;stroke:#000000;stroke-opacity:1"
     x="34.480358"
     y="122.40195"
     id="text70"><tspan
       sodipodi:role="line"
       id="tspan70"
       x="34.480358"
       y="122.40195">...</tspan></text>
  <path
     style="fill:none;fill-opacity:1;stroke:#000000;stroke-width:0.994107;stroke-opacity:1;marker-end:url(#RoundedArrow)"
     d="M 76.401967,95.082019 135.741,95.598269"
     id="path70" />
</svg>
