<?xml version="1.0" encoding="utf-8"?><!-- Uploaded to: SVG Repo, www.svgrepo.com, Generator: SVG Repo Mixer Tools -->
<svg width="800px" height="800px" viewBox="0 0 36 36" xmlns="http://www.w3.org/2000/svg" xmlns:xlink="http://www.w3.org/1999/xlink" aria-hidden="true" role="img" class="iconify iconify--twemoji" preserveAspectRatio="xMidYMid meet"><path fill="#77B255" d="M3.019 26.246l3.432 3.432l-.923.922l-3.432-3.431z"></path><path fill="#FFD983" d="M6.362 29.587l3.431 3.432l-.923.923l-3.43-3.432z"></path><path fill="#FFAC33" d="M6.273 24.237l3.432 3.432l-.923.923L5.35 25.16z"></path><path fill="#EA596E" d="M8.998 26.962l3.432 3.432l-.923.923l-3.431-3.432zm3.909-9.359l3.431 3.432l-.923.923l-3.431-3.432z"></path><path fill="#FFAC33" d="M15.631 20.329l3.432 3.431l-.923.923l-3.432-3.431z"></path><path fill="#77B255" d="M14.97 14.377l3.432 3.432l-.922.923l-3.432-3.432z"></path><path fill="#FFD983" d="M18.277 17.683l3.432 3.432l-.923.923l-3.432-3.432z"></path><path fill="#FFAC33" d="M17.616 11.731l3.432 3.432l-.923.922l-3.432-3.431z"></path><path fill="#EA596E" d="M20.923 15.038l3.432 3.431l-.923.923l-3.431-3.432zM24.387 4.96l3.432 3.432l-.923.922l-3.432-3.431z"></path><path fill="#FFAC33" d="M27.694 8.267l3.432 3.431l-.923.923l-3.432-3.432z"></path><path fill="#77B255" d="M27.013 2.252l3.432 3.432l-.923.923l-3.432-3.432z"></path><path fill="#FFD983" d="M30.36 5.6l3.432 3.431l-.923.923l-3.432-3.431z"></path><path fill="#9266CC" d="M24.922.812c-2.52 2.52-2.601 6.145-2.396 9.806c.501.028 1.002.061 1.502.094c.39.026.775.051 1.159.074c-.198-3.286-.199-6.299 1.606-8.104c.727-.703.955-1.653.447-2.166c-.535-.54-1.542-.497-2.318.296z"></path><path fill="#3B88C3" d="M13.146 25.65l-.153-2.66c-.026-.445-.058-.899-.074-1.332c-.296-.296-2.466-.349-2.653-.162c.013.44.047.884.071 1.327c.028.502.126 2.275.149 2.66c.054.91.096 1.806.086 2.656c.259.259 2.371.437 2.645.162a36.931 36.931 0 0 0-.071-2.651z"></path><path fill="#55ACEE" d="M13.22 28.3l-2.649-.162c-.026 2.209-.384 4.145-1.687 5.448a1.322 1.322 0 1 0 1.87 1.871c2.423-2.422 2.467-7.174 2.466-7.157z"></path><path fill="#9266CC" d="M25.354 13.447c-.501-.028-1.003-.061-1.503-.094c-.389-.026-.775-.051-1.158-.074c.198 3.285.199 6.299-1.607 8.104c-1.804 1.804-4.813 1.805-8.094 1.607c-.386-.023-2.159-.14-2.656-.168c-3.667-.206-7.297-.126-9.82 2.397a1.322 1.322 0 0 0 1.871 1.87c1.805-1.804 4.815-1.806 8.098-1.608c.385.023 2.161.14 2.66.168c3.662.205 7.289.125 9.811-2.396c2.521-2.52 2.603-6.145 2.398-9.806z"></path><path fill="#744EAA" d="M25.354 13.447c-.028-.501-.145-2.277-.168-2.66a51.95 51.95 0 0 1-.064-1.332c-.336-.021-2.1-.133-2.653-.163c.013.44.032.883.056 1.326c.028.501.145 2.277.168 2.661c.055.914.091 1.804.081 2.656c.333.021 2.094.132 2.645.162a36.316 36.316 0 0 0-.065-2.65z"></path><path fill="#55ACEE" d="M35.581 8.827c-.42-.436-1.385-.601-2.291.353c-1.805 1.805-4.817 1.806-8.104 1.607c-.384-.023-2.16-.141-2.661-.169c-3.66-.205-7.286-.123-9.806 2.397c-2.215 2.215-2.545 5.284-2.453 8.48c.553.03 2.319.142 2.653.162c-.098-2.755.113-5.214 1.671-6.772c1.805-1.805 4.818-1.805 8.104-1.607c.383.023 2.16.14 2.661.168c3.661.205 7.286.124 9.806-2.396c.886-.869.84-1.787.42-2.223z"></path></svg>