<?xml version="1.0" standalone="yes"?>

<svg version="1.1" viewBox="0.0 0.0 960.0 540.0" fill="none" stroke="none" stroke-linecap="square" stroke-miterlimit="10" xmlns="http://www.w3.org/2000/svg" xmlns:xlink="http://www.w3.org/1999/xlink"><clipPath id="ga2f5d01c8_1_29.0"><path d="m0 0l960.0 0l0 540.0l-960.0 0l0 -540.0z" clip-rule="nonzero"></path></clipPath><g clip-path="url(#ga2f5d01c8_1_29.0)"><path fill="#000000" d="m0 0l960.0 0l0 540.0l-960.0 0z" fill-rule="nonzero"></path><path fill="#000000" fill-opacity="0.0" d="m372.0 164.09795l0 0c0 -7.456299 6.044525 -13.500839 13.500824 -13.500839l188.99832 0c3.5806885 0 7.0146484 1.422409 9.54657 3.9543152c2.5318604 2.5318909 3.9542847 5.9658813 3.9542847 9.546524l0 19.801483l0 0c0 7.456299 -6.0445557 13.500839 -13.5008545 13.500839l-188.99832 0l0 0c-7.456299 0 -13.500824 -6.0445404 -13.500824 -13.500839z" fill-rule="nonzero"></path><path stroke="#ffffff" stroke-width="2.6666666666666665" stroke-miterlimit="8.0" stroke-linecap="butt" d="m372.0 164.09795l0 0c0 -7.456299 6.044525 -13.500839 13.500824 -13.500839l188.99832 0c3.5806885 0 7.0146484 1.422409 9.54657 3.9543152c2.5318604 2.5318909 3.9542847 5.9658813 3.9542847 9.546524l0 19.801483l0 0c0 7.456299 -6.0445557 13.500839 -13.5008545 13.500839l-188.99832 0l0 0c-7.456299 0 -13.500824 -6.0445404 -13.500824 -13.500839z" fill-rule="nonzero"></path><path fill="#ffffff" d="m440.92874 165.8187q0.46875 -0.078125 1.0625 -0.109375q0.59375 -0.046875 1.21875 -0.046875q0.640625 -0.015625 1.25 -0.03125q0.625 -0.015625 1.140625 -0.015625q2.109375 0 3.640625 0.65625q1.53125 0.640625 2.53125 1.8125q1.0 1.15625 1.484375 2.78125q0.5 1.625 0.5 3.578125q0 1.78125 -0.46875 3.421875q-0.453125 1.625 -1.453125 2.890625q-1.0 1.265625 -2.609375 2.03125q-1.59375 0.75 -3.875 0.75q-0.390625 0 -1.03125 -0.015625q-0.640625 0 -1.3125 -0.046875q-0.671875 -0.03125 -1.25 -0.0625q-0.578125 -0.015625 -0.828125 -0.0625l0 -17.53125zm4.71875 1.65625q-0.3125 0 -0.703125 0q-0.390625 0 -0.765625 0.03125q-0.375 0.015625 -0.6875 0.046875q-0.3125 0.015625 -0.484375 0.046875l0 14.0q0.125 0.015625 0.46875 0.03125q0.359375 0.015625 0.734375 0.03125q0.375 0 0.71875 0.015625q0.34375 0.015625 0.46875 0.015625q1.75 0 2.9375 -0.59375q1.1875 -0.609375 1.90625 -1.609375q0.71875 -1.015625 1.015625 -2.328125q0.296875 -1.3125 0.296875 -2.71875q0 -1.21875 -0.28125 -2.453125q-0.265625 -1.25 -0.953125 -2.25q-0.671875 -1.0 -1.8125 -1.625q-1.125 -0.640625 -2.859375 -0.640625zm11.439606 4.265625q0.953125 -0.578125 2.21875 -0.84375q1.265625 -0.28125 2.640625 -0.28125q1.296875 0 2.078125 0.359375q0.796875 0.34375 1.203125 0.90625q0.421875 0.5625 0.546875 1.234375q0.140625 0.671875 0.140625 1.359375q0 1.5 -0.078125 2.921875q-0.0625 1.421875 -0.0625 2.703125q0 0.921875 0.0625 1.75q0.078125 0.8125 0.28125 1.515625l-1.46875 0l-0.53125 -1.75l-0.125 0q-0.21875 0.359375 -0.5625 0.703125q-0.34375 0.328125 -0.8125 0.59375q-0.46875 0.25 -1.09375 0.421875q-0.625 0.1875 -1.4375 0.1875q-0.796875 0 -1.484375 -0.25q-0.6875 -0.25 -1.1875 -0.703125q-0.5 -0.46875 -0.796875 -1.125q-0.28125 -0.65625 -0.28125 -1.46875q0 -1.109375 0.453125 -1.84375q0.453125 -0.734375 1.265625 -1.171875q0.8125 -0.4375 1.953125 -0.625q1.140625 -0.1875 2.515625 -0.1875q0.34375 0 0.671875 0q0.34375 0 0.703125 0.046875q0.0625 -0.75 0.0625 -1.34375q0 -1.375 -0.546875 -1.921875q-0.546875 -0.5625 -2.0 -0.5625q-0.421875 0 -0.90625 0.0625q-0.484375 0.0625 -1.0 0.1875q-0.515625 0.109375 -0.984375 0.265625q-0.453125 0.15625 -0.8125 0.359375l-0.625 -1.5zm3.5625 10.03125q0.6875 0 1.234375 -0.1875q0.5625 -0.1875 0.953125 -0.46875q0.40625 -0.296875 0.671875 -0.640625q0.265625 -0.359375 0.390625 -0.6875l0 -2.0625q-0.359375 -0.03125 -0.71875 -0.046875q-0.359375 -0.015625 -0.71875 -0.015625q-0.765625 0 -1.515625 0.09375q-0.734375 0.09375 -1.296875 0.328125q-0.5625 0.234375 -0.90625 0.65625q-0.328125 0.40625 -0.328125 1.03125q0 0.875 0.625 1.4375q0.625 0.5625 1.609375 0.5625zm7.5627747 -10.953125l1.9375 0l0 -2.46875l2.0 -0.578125l0 3.046875l3.40625 0l0 1.75l-3.40625 0l0 6.921875q0 1.296875 0.328125 1.84375q0.328125 0.53125 1.109375 0.53125q0.640625 0 1.09375 -0.125q0.453125 -0.140625 1.0 -0.375l0.453125 1.53125q-0.671875 0.328125 -1.484375 0.515625q-0.796875 0.203125 -1.71875 0.203125q-1.53125 0 -2.15625 -0.859375q-0.625 -0.859375 -0.625 -2.890625l0 -7.296875l-1.9375 0l0 -1.75zm10.023743 0.921875q0.953125 -0.578125 2.21875 -0.84375q1.265625 -0.28125 2.640625 -0.28125q1.296875 0 2.078125 0.359375q0.796875 0.34375 1.203125 0.90625q0.421875 0.5625 0.546875 1.234375q0.140625 0.671875 0.140625 1.359375q0 1.5 -0.078125 2.921875q-0.0625 1.421875 -0.0625 2.703125q0 0.921875 0.0625 1.75q0.078125 0.8125 0.28125 1.515625l-1.46875 0l-0.53125 -1.75l-0.125 0q-0.21875 0.359375 -0.5625 0.703125q-0.34375 0.328125 -0.8125 0.59375q-0.46875 0.25 -1.09375 0.421875q-0.625 0.1875 -1.4375 0.1875q-0.796875 0 -1.484375 -0.25q-0.6875 -0.25 -1.1875 -0.703125q-0.5 -0.46875 -0.796875 -1.125q-0.28125 -0.65625 -0.28125 -1.46875q0 -1.109375 0.453125 -1.84375q0.453125 -0.734375 1.265625 -1.171875q0.8125 -0.4375 1.953125 -0.625q1.140625 -0.1875 2.515625 -0.1875q0.34375 0 0.671875 0q0.34375 0 0.703125 0.046875q0.0625 -0.75 0.0625 -1.34375q0 -1.375 -0.546875 -1.921875q-0.546875 -0.5625 -2.0 -0.5625q-0.421875 0 -0.90625 0.0625q-0.484375 0.0625 -1.0 0.1875q-0.515625 0.109375 -0.984375 0.265625q-0.453125 0.15625 -0.8125 0.359375l-0.625 -1.5zm3.5625 10.03125q0.6875 0 1.234375 -0.1875q0.5625 -0.1875 0.953125 -0.46875q0.40625 -0.296875 0.671875 -0.640625q0.265625 -0.359375 0.390625 -0.6875l0 -2.0625q-0.359375 -0.03125 -0.71875 -0.046875q-0.359375 -0.015625 -0.71875 -0.015625q-0.765625 0 -1.515625 0.09375q-0.734375 0.09375 -1.296875 0.328125q-0.5625 0.234375 -0.90625 0.65625q-0.328125 0.40625 -0.328125 1.03125q0 0.875 0.625 1.4375q0.625 0.5625 1.609375 0.5625zm14.7034 -1.859375q0 -0.75 -0.453125 -1.171875q-0.4375 -0.421875 -1.109375 -0.703125q-0.65625 -0.296875 -1.453125 -0.546875q-0.78125 -0.265625 -1.453125 -0.671875q-0.65625 -0.421875 -1.109375 -1.0625q-0.4375 -0.65625 -0.4375 -1.765625q0 -1.796875 1.015625 -2.625q1.03125 -0.84375 2.859375 -0.84375q1.34375 0 2.25 0.234375q0.921875 0.234375 1.59375 0.5625l-0.46875 1.65625q-0.578125 -0.28125 -1.390625 -0.484375q-0.8125 -0.21875 -1.734375 -0.21875q-1.109375 0 -1.625 0.375q-0.5 0.375 -0.5 1.296875q0 0.65625 0.4375 1.015625q0.453125 0.359375 1.109375 0.65625q0.671875 0.28125 1.453125 0.5625q0.796875 0.265625 1.453125 0.71875q0.671875 0.453125 1.109375 1.140625q0.453125 0.6875 0.453125 1.8125q0 0.796875 -0.265625 1.5q-0.25 0.6875 -0.8125 1.1875q-0.546875 0.5 -1.359375 0.78125q-0.8125 0.296875 -1.90625 0.296875q-1.421875 0 -2.421875 -0.28125q-1.0 -0.265625 -1.6875 -0.640625l0.609375 -1.703125q0.578125 0.328125 1.5 0.609375q0.921875 0.265625 1.875 0.265625q1.078125 0 1.765625 -0.421875q0.703125 -0.421875 0.703125 -1.53125zm14.2881775 2.40625q-0.75 0.59375 -1.890625 0.953125q-1.125 0.34375 -2.40625 0.34375q-1.421875 0 -2.484375 -0.453125q-1.046875 -0.46875 -1.71875 -1.328125q-0.671875 -0.859375 -1.0 -2.0625q-0.328125 -1.203125 -0.328125 -2.703125q0 -3.203125 1.421875 -4.875q1.4375 -1.671875 4.078125 -1.671875q0.859375 0 1.703125 0.1875q0.859375 0.1875 1.53125 0.71875q0.671875 0.515625 1.09375 1.484375q0.421875 0.953125 0.421875 2.53125q0 0.828125 -0.140625 1.828125l-8.03125 0q0 1.09375 0.21875 1.953125q0.234375 0.84375 0.703125 1.4375q0.484375 0.578125 1.234375 0.890625q0.765625 0.3125 1.875 0.3125q0.84375 0 1.6875 -0.296875q0.859375 -0.296875 1.28125 -0.703125l0.75 1.453125zm-4.296875 -10.046875q-1.46875 0 -2.359375 0.78125q-0.890625 0.765625 -1.0625 2.640625l6.203125 0q0 -1.90625 -0.734375 -2.65625q-0.71875 -0.765625 -2.046875 -0.765625zm6.3979797 -1.453125l1.9375 0l0 -2.46875l2.0 -0.578125l0 3.046875l3.40625 0l0 1.75l-3.40625 0l0 6.921875q0 1.296875 0.328125 1.84375q0.328125 0.53125 1.109375 0.53125q0.640625 0 1.09375 -0.125q0.453125 -0.140625 1.0 -0.375l0.453125 1.53125q-0.671875 0.328125 -1.484375 0.515625q-0.796875 0.203125 -1.71875 0.203125q-1.53125 0 -2.15625 -0.859375q-0.625 -0.859375 -0.625 -2.890625l0 -7.296875l-1.9375 0l0 -1.75z" fill-rule="nonzero"></path><path fill="#000000" fill-opacity="0.0" d="m44.0 164.09795l0 0c0 -7.456299 6.044529 -13.500839 13.500835 -13.500839l188.99832 0c3.5806427 0 7.014633 1.422409 9.546524 3.9543152c2.5319214 2.5318909 3.9543152 5.9658813 3.9543152 9.546524l0 19.801483l0 0c0 7.456299 -6.044525 13.500839 -13.500839 13.500839l-188.99832 0l0 0c-7.4563065 0 -13.500835 -6.0445404 -13.500835 -13.500839z" fill-rule="nonzero"></path><path stroke="#ffffff" stroke-width="2.6666666666666665" stroke-miterlimit="8.0" stroke-linecap="butt" d="m44.0 164.09795l0 0c0 -7.456299 6.044529 -13.500839 13.500835 -13.500839l188.99832 0c3.5806427 0 7.014633 1.422409 9.546524 3.9543152c2.5319214 2.5318909 3.9543152 5.9658813 3.9543152 9.546524l0 19.801483l0 0c0 7.456299 -6.044525 13.500839 -13.500839 13.500839l-188.99832 0l0 0c-7.4563065 0 -13.500835 -6.0445404 -13.500835 -13.500839z" fill-rule="nonzero"></path><path fill="#ffffff" d="m126.06962 175.28745l-8.390625 0l0 8.03125l-2.078125 0l0 -17.5l2.078125 0l0 7.625l8.390625 0l0 -7.625l2.0781174 0l0 17.5l-2.0781174 0l0 -8.03125zm6.7705154 -4.46875l2.0 0l0 12.5l-2.0 0l0 -12.5zm-0.421875 -3.796875q0 -0.578125 0.390625 -0.984375q0.390625 -0.421875 0.984375 -0.421875q0.609375 0 1.03125 0.421875q0.421875 0.40625 0.421875 0.984375q0 0.578125 -0.421875 0.953125q-0.421875 0.375 -1.03125 0.375q-0.59375 0 -0.984375 -0.375q-0.390625 -0.375 -0.390625 -0.953125zm12.287949 12.890625q0 -0.75 -0.453125 -1.171875q-0.4375 -0.421875 -1.109375 -0.703125q-0.65625 -0.296875 -1.453125 -0.546875q-0.78125 -0.265625 -1.453125 -0.671875q-0.65625 -0.421875 -1.109375 -1.0625q-0.4375 -0.65625 -0.4375 -1.765625q0 -1.796875 1.015625 -2.625q1.03125 -0.84375 2.859375 -0.84375q1.34375 0 2.25 0.234375q0.921875 0.234375 1.59375 0.5625l-0.46875 1.65625q-0.578125 -0.28125 -1.390625 -0.484375q-0.8125 -0.21875 -1.734375 -0.21875q-1.109375 0 -1.625 0.375q-0.5 0.375 -0.5 1.296875q0 0.65625 0.4375 1.015625q0.453125 0.359375 1.109375 0.65625q0.671875 0.28125 1.453125 0.5625q0.796875 0.265625 1.453125 0.71875q0.671875 0.453125 1.109375 1.140625q0.453125 0.6875 0.453125 1.8125q0 0.796875 -0.265625 1.5q-0.25 0.6875 -0.8125 1.1875q-0.546875 0.5 -1.359375 0.78125q-0.8125 0.296875 -1.90625 0.296875q-1.421875 0 -2.421875 -0.28125q-1.0 -0.265625 -1.6875 -0.640625l0.609375 -1.703125q0.578125 0.328125 1.5 0.609375q0.921875 0.265625 1.875 0.265625q1.078125 0 1.765625 -0.421875q0.703125 -0.421875 0.703125 -1.53125zm3.5225372 -9.09375l1.9375 0l0 -2.46875l2.0 -0.578125l0 3.046875l3.40625 0l0 1.75l-3.40625 0l0 6.921875q0 1.296875 0.328125 1.84375q0.328125 0.53125 1.109375 0.53125q0.640625 0 1.09375 -0.125q0.453125 -0.140625 1.0 -0.375l0.453125 1.53125q-0.671875 0.328125 -1.484375 0.515625q-0.796875 0.203125 -1.71875 0.203125q-1.53125 0 -2.15625 -0.859375q-0.625 -0.859375 -0.625 -2.890625l0 -7.296875l-1.9375 0l0 -1.75zm9.523743 6.25q0 -3.171875 1.40625 -4.859375q1.421875 -1.6875 4.078125 -1.6875q1.390625 0 2.421875 0.46875q1.046875 0.453125 1.71875 1.3125q0.6875 0.859375 1.0 2.078125q0.328125 1.21875 0.328125 2.6875q0 3.171875 -1.421875 4.859375q-1.40625 1.6875 -4.046875 1.6875q-1.40625 0 -2.453125 -0.453125q-1.03125 -0.46875 -1.703125 -1.328125q-0.671875 -0.859375 -1.0 -2.078125q-0.328125 -1.21875 -0.328125 -2.6875zm2.078125 0q0 0.953125 0.1875 1.828125q0.1875 0.875 0.578125 1.53125q0.40625 0.640625 1.0625 1.046875q0.65625 0.390625 1.578125 0.390625q3.390625 0.03125 3.390625 -4.796875q0 -0.96875 -0.1875 -1.84375q-0.1875 -0.875 -0.59375 -1.53125q-0.390625 -0.65625 -1.046875 -1.03125q-0.640625 -0.390625 -1.5625 -0.390625q-3.40625 -0.03125 -3.40625 4.796875zm18.107147 -4.328125q-0.75 -0.25 -1.421875 -0.25q-1.078125 0 -1.703125 0.59375q-0.625 0.578125 -0.78125 1.484375l0 8.75l-2.0 0l0 -12.5l1.40625 0l0.375 1.53125l0.09375 0q0.484375 -0.859375 1.140625 -1.3125q0.65625 -0.46875 1.6875 -0.46875q0.71875 0 1.625 0.25l-0.421875 1.921875zm6.3771973 6.171875l0.703125 2.40625l0.125 0l0.546875 -2.421875l2.4375 -8.078125l2.015625 0l-3.703125 11.21875q-0.421875 1.234375 -0.84375 2.375q-0.40625 1.15625 -0.90625 2.046875q-0.5 0.90625 -1.125 1.4375q-0.625 0.546875 -1.4375 0.546875q-0.90625 0 -1.484375 -0.25l0.359375 -1.71875q0.3125 0.125 0.625 0.125q0.6875 0 1.34375 -0.75q0.65625 -0.734375 1.078125 -2.53125l-5.03125 -12.5l2.296875 0l3.0 8.09375z" fill-rule="nonzero"></path><path fill="#000000" fill-opacity="0.0" d="m260.0 173.99869l0 0" fill-rule="nonzero"></path><path stroke="#4c4c4c" stroke-width="2.0" stroke-linejoin="round" stroke-linecap="butt" d="m260.0 173.99869l0 0" fill-rule="nonzero"></path><path fill="#000000" fill-opacity="0.0" d="m260.0 173.99869l112.0 0" fill-rule="nonzero"></path><path stroke="#ffffff" stroke-width="3.0" stroke-linejoin="round" stroke-linecap="butt" d="m276.88483 173.99869l77.11517 0" fill-rule="evenodd"></path><path fill="#ffffff" stroke="#ffffff" stroke-width="3.0" stroke-linecap="butt" d="m276.88483 173.99869l-7.1348267 -4.995865l-7.1348267 4.995865l7.1348267 4.995865z" fill-rule="evenodd"></path><path fill="#ffffff" stroke="#ffffff" stroke-width="3.0" stroke-linecap="butt" d="m354.0 178.95389l13.614288 -4.9552l-13.614288 -4.9552z" fill-rule="evenodd"></path><path fill="#000000" fill-opacity="0.0" d="m149.90141 284.09927l0 0c0 -7.4563293 6.044525 -13.5008545 13.500839 -13.5008545l298.22665 0c3.580658 0 7.0146484 1.4224243 9.546539 3.9543152c2.5319214 2.5318909 3.9543152 5.9658813 3.9543152 9.546539l0 19.801453c0 7.4563293 -6.044525 13.5008545 -13.5008545 13.5008545l-298.22665 0c-7.456314 0 -13.500839 -6.044525 -13.500839 -13.5008545z" fill-rule="nonzero"></path><path stroke="#ffffff" stroke-width="2.6666666666666665" stroke-miterlimit="8.0" stroke-linecap="butt" d="m149.90141 284.09927l0 0c0 -7.4563293 6.044525 -13.5008545 13.500839 -13.5008545l298.22665 0c3.580658 0 7.0146484 1.4224243 9.546539 3.9543152c2.5319214 2.5318909 3.9543152 5.9658813 3.9543152 9.546539l0 19.801453c0 7.4563293 -6.044525 13.5008545 -13.5008545 13.5008545l-298.22665 0c-7.456314 0 -13.500839 -6.044525 -13.500839 -13.5008545z" fill-rule="nonzero"></path><path fill="#ffffff" d="m176.97755 295.28876l-8.390625 0l0 8.03125l-2.078125 0l0 -17.5l2.078125 0l0 7.625l8.390625 0l0 -7.625l2.078125 0l0 17.5l-2.078125 0l0 -8.03125zm6.770523 -4.46875l2.0 0l0 12.5l-2.0 0l0 -12.5zm-0.421875 -3.796875q0 -0.578125 0.390625 -0.984375q0.390625 -0.421875 0.984375 -0.421875q0.609375 0 1.03125 0.421875q0.421875 0.40625 0.421875 0.984375q0 0.578125 -0.421875 0.953125q-0.421875 0.375 -1.03125 0.375q-0.59375 0 -0.984375 -0.375q-0.390625 -0.375 -0.390625 -0.953125zm12.287949 12.890625q0 -0.75 -0.453125 -1.171875q-0.4375 -0.421875 -1.109375 -0.703125q-0.65625 -0.296875 -1.453125 -0.546875q-0.78125 -0.265625 -1.453125 -0.671875q-0.65625 -0.421875 -1.109375 -1.0625q-0.4375 -0.65625 -0.4375 -1.765625q0 -1.796875 1.015625 -2.625q1.03125 -0.84375 2.859375 -0.84375q1.34375 0 2.25 0.234375q0.921875 0.234375 1.59375 0.5625l-0.46875 1.65625q-0.578125 -0.28125 -1.390625 -0.484375q-0.8125 -0.21875 -1.734375 -0.21875q-1.109375 0 -1.625 0.375q-0.5 0.375 -0.5 1.296875q0 0.65625 0.4375 1.015625q0.453125 0.359375 1.109375 0.65625q0.671875 0.28125 1.453125 0.5625q0.796875 0.265625 1.453125 0.71875q0.671875 0.453125 1.109375 1.140625q0.453125 0.6875 0.453125 1.8125q0 0.796875 -0.265625 1.5q-0.25 0.6875 -0.8125 1.1875q-0.546875 0.5 -1.359375 0.78125q-0.8125 0.296875 -1.90625 0.296875q-1.421875 0 -2.421875 -0.28125q-1.0 -0.265625 -1.6875 -0.640625l0.609375 -1.703125q0.578125 0.328125 1.5 0.609375q0.921875 0.265625 1.875 0.265625q1.078125 0 1.765625 -0.421875q0.703125 -0.421875 0.703125 -1.53125zm3.5225372 -9.09375l1.9375 0l0 -2.46875l2.0 -0.578125l0 3.046875l3.40625 0l0 1.75l-3.40625 0l0 6.921875q0 1.296875 0.328125 1.84375q0.328125 0.53125 1.109375 0.53125q0.640625 0 1.09375 -0.125q0.453125 -0.140625 1.0 -0.375l0.453125 1.53125q-0.671875 0.328125 -1.484375 0.515625q-0.796875 0.203125 -1.71875 0.203125q-1.53125 0 -2.15625 -0.859375q-0.625 -0.859375 -0.625 -2.890625l0 -7.296875l-1.9375 0l0 -1.75zm9.523743 6.25q0 -3.171875 1.40625 -4.859375q1.421875 -1.6875 4.078125 -1.6875q1.390625 0 2.421875 0.46875q1.046875 0.453125 1.71875 1.3125q0.6875 0.859375 1.0 2.078125q0.328125 1.21875 0.328125 2.6875q0 3.171875 -1.421875 4.859375q-1.40625 1.6875 -4.046875 1.6875q-1.40625 0 -2.453125 -0.453125q-1.03125 -0.46875 -1.703125 -1.328125q-0.671875 -0.859375 -1.0 -2.078125q-0.328125 -1.21875 -0.328125 -2.6875zm2.078125 0q0 0.953125 0.1875 1.828125q0.1875 0.875 0.578125 1.53125q0.40625 0.640625 1.0625 1.046875q0.65625 0.390625 1.578125 0.390625q3.390625 0.03125 3.390625 -4.796875q0 -0.96875 -0.1875 -1.84375q-0.1875 -0.875 -0.59375 -1.53125q-0.390625 -0.65625 -1.046875 -1.03125q-0.640625 -0.390625 -1.5625 -0.390625q-3.40625 -0.03125 -3.40625 4.796875zm18.107147 -4.328125q-0.75 -0.25 -1.421875 -0.25q-1.078125 0 -1.703125 0.59375q-0.625 0.578125 -0.78125 1.484375l0 8.75l-2.0 0l0 -12.5l1.40625 0l0.375 1.53125l0.09375 0q0.484375 -0.859375 1.140625 -1.3125q0.65625 -0.46875 1.6875 -0.46875q0.71875 0 1.625 0.25l-0.421875 1.921875zm6.3771973 6.171875l0.703125 2.40625l0.125 0l0.546875 -2.421875l2.4375 -8.078125l2.015625 0l-3.703125 11.21875q-0.421875 1.234375 -0.84375 2.375q-0.40625 1.15625 -0.90625 2.046875q-0.5 0.90625 -1.125 1.4375q-0.625 0.546875 -1.4375 0.546875q-0.90625 0 -1.484375 -0.25l0.359375 -1.71875q0.3125 0.125 0.625 0.125q0.6875 0 1.34375 -0.75q0.65625 -0.734375 1.078125 -2.53125l-5.03125 -12.5l2.296875 0l3.0 8.09375zm15.0967865 -13.09375q0.46875 -0.078125 1.0625 -0.109375q0.59375 -0.046875 1.21875 -0.046875q0.640625 -0.015625 1.25 -0.03125q0.625 -0.015625 1.140625 -0.015625q2.1093903 0 3.6406403 0.65625q1.53125 0.640625 2.53125 1.8125q1.0 1.15625 1.484375 2.78125q0.5 1.625 0.5 3.578125q0 1.78125 -0.46875 3.421875q-0.453125 1.625 -1.453125 2.890625q-1.0 1.265625 -2.609375 2.03125q-1.59375 0.75 -3.8750153 0.75q-0.390625 0 -1.03125 -0.015625q-0.640625 0 -1.3125 -0.046875q-0.671875 -0.03125 -1.25 -0.0625q-0.578125 -0.015625 -0.828125 -0.0625l0 -17.53125zm4.71875 1.65625q-0.3125 0 -0.703125 0q-0.390625 0 -0.765625 0.03125q-0.375 0.015625 -0.6875 0.046875q-0.3125 0.015625 -0.484375 0.046875l0 14.0q0.125 0.015625 0.46875 0.03125q0.359375 0.015625 0.734375 0.03125q0.375 0 0.71875 0.015625q0.34375 0.015625 0.46875 0.015625q1.7500153 0 2.9375153 -0.59375q1.1875 -0.609375 1.90625 -1.609375q0.71875 -1.015625 1.015625 -2.328125q0.296875 -1.3125 0.296875 -2.71875q0 -1.21875 -0.28125 -2.453125q-0.265625 -1.25 -0.953125 -2.25q-0.671875 -1.0 -1.8125 -1.625q-1.125 -0.640625 -2.8593903 -0.640625zm11.439621 4.265625q0.953125 -0.578125 2.21875 -0.84375q1.265625 -0.28125 2.640625 -0.28125q1.296875 0 2.078125 0.359375q0.796875 0.34375 1.203125 0.90625q0.421875 0.5625 0.546875 1.234375q0.140625 0.671875 0.140625 1.359375q0 1.5 -0.078125 2.921875q-0.0625 1.421875 -0.0625 2.703125q0 0.921875 0.0625 1.75q0.078125 0.8125 0.28125 1.515625l-1.46875 0l-0.53125 -1.75l-0.125 0q-0.21875 0.359375 -0.5625 0.703125q-0.34375 0.328125 -0.8125 0.59375q-0.46875 0.25 -1.09375 0.421875q-0.625 0.1875 -1.4375 0.1875q-0.796875 0 -1.484375 -0.25q-0.6875 -0.25 -1.1875 -0.703125q-0.5 -0.46875 -0.796875 -1.125q-0.28125 -0.65625 -0.28125 -1.46875q0 -1.109375 0.453125 -1.84375q0.453125 -0.734375 1.265625 -1.171875q0.8125 -0.4375 1.953125 -0.625q1.140625 -0.1875 2.515625 -0.1875q0.34375 0 0.671875 0q0.34375 0 0.703125 0.046875q0.0625 -0.75 0.0625 -1.34375q0 -1.375 -0.546875 -1.921875q-0.546875 -0.5625 -2.0 -0.5625q-0.421875 0 -0.90625 0.0625q-0.484375 0.0625 -1.0 0.1875q-0.515625 0.109375 -0.984375 0.265625q-0.453125 0.15625 -0.8125 0.359375l-0.625 -1.5zm3.5625 10.03125q0.6875 0 1.234375 -0.1875q0.5625 -0.1875 0.953125 -0.46875q0.40625 -0.296875 0.671875 -0.640625q0.265625 -0.359375 0.390625 -0.6875l0 -2.0625q-0.359375 -0.03125 -0.71875 -0.046875q-0.359375 -0.015625 -0.71875 -0.015625q-0.765625 0 -1.515625 0.09375q-0.734375 0.09375 -1.296875 0.328125q-0.5625 0.234375 -0.90625 0.65625q-0.328125 0.40625 -0.328125 1.03125q0 0.875 0.625 1.4375q0.625 0.5625 1.609375 0.5625zm7.5627747 -10.953125l1.9375 0l0 -2.46875l2.0 -0.578125l0 3.046875l3.40625 0l0 1.75l-3.40625 0l0 6.921875q0 1.296875 0.328125 1.84375q0.328125 0.53125 1.109375 0.53125q0.640625 0 1.09375 -0.125q0.453125 -0.140625 1.0 -0.375l0.453125 1.53125q-0.671875 0.328125 -1.484375 0.515625q-0.796875 0.203125 -1.71875 0.203125q-1.53125 0 -2.15625 -0.859375q-0.625 -0.859375 -0.625 -2.890625l0 -7.296875l-1.9375 0l0 -1.75zm10.023743 0.921875q0.953125 -0.578125 2.21875 -0.84375q1.265625 -0.28125 2.640625 -0.28125q1.296875 0 2.078125 0.359375q0.796875 0.34375 1.203125 0.90625q0.421875 0.5625 0.546875 1.234375q0.140625 0.671875 0.140625 1.359375q0 1.5 -0.078125 2.921875q-0.0625 1.421875 -0.0625 2.703125q0 0.921875 0.0625 1.75q0.078125 0.8125 0.28125 1.515625l-1.46875 0l-0.53125 -1.75l-0.125 0q-0.21875 0.359375 -0.5625 0.703125q-0.34375 0.328125 -0.8125 0.59375q-0.46875 0.25 -1.09375 0.421875q-0.625 0.1875 -1.4375 0.1875q-0.796875 0 -1.484375 -0.25q-0.6875 -0.25 -1.1875 -0.703125q-0.5 -0.46875 -0.796875 -1.125q-0.28125 -0.65625 -0.28125 -1.46875q0 -1.109375 0.453125 -1.84375q0.453125 -0.734375 1.265625 -1.171875q0.8125 -0.4375 1.953125 -0.625q1.140625 -0.1875 2.515625 -0.1875q0.34375 0 0.671875 0q0.34375 0 0.703125 0.046875q0.0625 -0.75 0.0625 -1.34375q0 -1.375 -0.546875 -1.921875q-0.546875 -0.5625 -2.0 -0.5625q-0.421875 0 -0.90625 0.0625q-0.484375 0.0625 -1.0 0.1875q-0.515625 0.109375 -0.984375 0.265625q-0.453125 0.15625 -0.8125 0.359375l-0.625 -1.5zm3.5625 10.03125q0.6875 0 1.234375 -0.1875q0.5625 -0.1875 0.953125 -0.46875q0.40625 -0.296875 0.671875 -0.640625q0.265625 -0.359375 0.390625 -0.6875l0 -2.0625q-0.359375 -0.03125 -0.71875 -0.046875q-0.359375 -0.015625 -0.71875 -0.015625q-0.765625 0 -1.515625 0.09375q-0.734375 0.09375 -1.296875 0.328125q-0.5625 0.234375 -0.90625 0.65625q-0.328125 0.40625 -0.328125 1.03125q0 0.875 0.625 1.4375q0.625 0.5625 1.609375 0.5625zm14.7034 -1.859375q0 -0.75 -0.453125 -1.171875q-0.4375 -0.421875 -1.109375 -0.703125q-0.65625 -0.296875 -1.453125 -0.546875q-0.78125 -0.265625 -1.453125 -0.671875q-0.65625 -0.421875 -1.109375 -1.0625q-0.4375 -0.65625 -0.4375 -1.765625q0 -1.796875 1.015625 -2.625q1.03125 -0.84375 2.859375 -0.84375q1.34375 0 2.25 0.234375q0.921875 0.234375 1.59375 0.5625l-0.46875 1.65625q-0.578125 -0.28125 -1.390625 -0.484375q-0.8125 -0.21875 -1.734375 -0.21875q-1.109375 0 -1.625 0.375q-0.5 0.375 -0.5 1.296875q0 0.65625 0.4375 1.015625q0.453125 0.359375 1.109375 0.65625q0.671875 0.28125 1.453125 0.5625q0.796875 0.265625 1.453125 0.71875q0.671875 0.453125 1.109375 1.140625q0.453125 0.6875 0.453125 1.8125q0 0.796875 -0.265625 1.5q-0.25 0.6875 -0.8125 1.1875q-0.546875 0.5 -1.359375 0.78125q-0.8125 0.296875 -1.90625 0.296875q-1.421875 0 -2.421875 -0.28125q-1.0 -0.265625 -1.6875 -0.640625l0.609375 -1.703125q0.578125 0.328125 1.5 0.609375q0.921875 0.265625 1.875 0.265625q1.078125 0 1.765625 -0.421875q0.703125 -0.421875 0.703125 -1.53125zm14.2881775 2.40625q-0.75 0.59375 -1.890625 0.953125q-1.125 0.34375 -2.40625 0.34375q-1.421875 0 -2.484375 -0.453125q-1.046875 -0.46875 -1.71875 -1.328125q-0.671875 -0.859375 -1.0 -2.0625q-0.328125 -1.203125 -0.328125 -2.703125q0 -3.203125 1.421875 -4.875q1.4375 -1.671875 4.078125 -1.671875q0.859375 0 1.703125 0.1875q0.859375 0.1875 1.53125 0.71875q0.671875 0.515625 1.09375 1.484375q0.421875 0.953125 0.421875 2.53125q0 0.828125 -0.140625 1.828125l-8.03125 0q0 1.09375 0.21875 1.953125q0.234375 0.84375 0.703125 1.4375q0.484375 0.578125 1.234375 0.890625q0.765625 0.3125 1.875 0.3125q0.84375 0 1.6875 -0.296875q0.859375 -0.296875 1.28125 -0.703125l0.75 1.453125zm-4.296875 -10.046875q-1.46875 0 -2.359375 0.78125q-0.890625 0.765625 -1.0625 2.640625l6.203125 0q0 -1.90625 -0.734375 -2.65625q-0.71875 -0.765625 -2.046875 -0.765625zm6.397949 -1.453125l1.9375 0l0 -2.46875l2.0 -0.578125l0 3.046875l3.40625 0l0 1.75l-3.40625 0l0 6.921875q0 1.296875 0.328125 1.84375q0.328125 0.53125 1.109375 0.53125q0.640625 0 1.09375 -0.125q0.453125 -0.140625 1.0 -0.375l0.453125 1.53125q-0.671875 0.328125 -1.484375 0.515625q-0.796875 0.203125 -1.71875 0.203125q-1.53125 0 -2.15625 -0.859375q-0.625 -0.859375 -0.625 -2.890625l0 -7.296875l-1.9375 0l0 -1.75zm25.520721 7.65625l-6.453125 0l-1.75 4.84375l-2.046875 0l6.625 -17.78125l0.953125 0l6.640625 17.78125l-2.171875 0l-1.796875 -4.84375zm-5.78125 -1.8125l5.15625 0l-1.953125 -5.3125l-0.625 -2.65625l-0.03125 0l-0.625 2.703125l-1.921875 5.265625zm17.566986 3.25q0 -0.75 -0.453125 -1.171875q-0.4375 -0.421875 -1.109375 -0.703125q-0.65625 -0.296875 -1.453125 -0.546875q-0.78125 -0.265625 -1.453125 -0.671875q-0.65625 -0.421875 -1.109375 -1.0625q-0.4375 -0.65625 -0.4375 -1.765625q0 -1.796875 1.015625 -2.625q1.03125 -0.84375 2.859375 -0.84375q1.34375 0 2.25 0.234375q0.921875 0.234375 1.59375 0.5625l-0.46875 1.65625q-0.578125 -0.28125 -1.390625 -0.484375q-0.8125 -0.21875 -1.734375 -0.21875q-1.109375 0 -1.625 0.375q-0.5 0.375 -0.5 1.296875q0 0.65625 0.4375 1.015625q0.453125 0.359375 1.109375 0.65625q0.671875 0.28125 1.453125 0.5625q0.796875 0.265625 1.453125 0.71875q0.671875 0.453125 1.109375 1.140625q0.453125 0.6875 0.453125 1.8125q0 0.796875 -0.265625 1.5q-0.25 0.6875 -0.8125 1.1875q-0.546875 0.5 -1.359375 0.78125q-0.8125 0.296875 -1.90625 0.296875q-1.421875 0 -2.421875 -0.28125q-1.0 -0.265625 -1.6875 -0.640625l0.609375 -1.703125q0.578125 0.328125 1.5 0.609375q0.921875 0.265625 1.875 0.265625q1.078125 0 1.765625 -0.421875q0.703125 -0.421875 0.703125 -1.53125zm10.663147 0q0 -0.75 -0.453125 -1.171875q-0.4375 -0.421875 -1.109375 -0.703125q-0.65625 -0.296875 -1.453125 -0.546875q-0.78125 -0.265625 -1.453125 -0.671875q-0.65625 -0.421875 -1.109375 -1.0625q-0.4375 -0.65625 -0.4375 -1.765625q0 -1.796875 1.015625 -2.625q1.03125 -0.84375 2.859375 -0.84375q1.34375 0 2.25 0.234375q0.921875 0.234375 1.59375 0.5625l-0.46875 1.65625q-0.578125 -0.28125 -1.390625 -0.484375q-0.8125 -0.21875 -1.734375 -0.21875q-1.109375 0 -1.625 0.375q-0.5 0.375 -0.5 1.296875q0 0.65625 0.4375 1.015625q0.453125 0.359375 1.109375 0.65625q0.671875 0.28125 1.453125 0.5625q0.796875 0.265625 1.453125 0.71875q0.671875 0.453125 1.109375 1.140625q0.453125 0.6875 0.453125 1.8125q0 0.796875 -0.265625 1.5q-0.25 0.6875 -0.8125 1.1875q-0.546875 0.5 -1.359375 0.78125q-0.8125 0.296875 -1.90625 0.296875q-1.421875 0 -2.421875 -0.28125q-1.0 -0.265625 -1.6875 -0.640625l0.609375 -1.703125q0.578125 0.328125 1.5 0.609375q0.921875 0.265625 1.875 0.265625q1.078125 0 1.765625 -0.421875q0.703125 -0.421875 0.703125 -1.53125zm4.4600525 -2.84375q0 -3.171875 1.40625 -4.859375q1.421875 -1.6875 4.078125 -1.6875q1.390625 0 2.421875 0.46875q1.046875 0.453125 1.71875 1.3125q0.6875 0.859375 1.0 2.078125q0.328125 1.21875 0.328125 2.6875q0 3.171875 -1.421875 4.859375q-1.40625 1.6875 -4.046875 1.6875q-1.40625 0 -2.453125 -0.453125q-1.03125 -0.46875 -1.703125 -1.328125q-0.671875 -0.859375 -1.0 -2.078125q-0.328125 -1.21875 -0.328125 -2.6875zm2.078125 0q0 0.953125 0.1875 1.828125q0.1875 0.875 0.578125 1.53125q0.40625 0.640625 1.0625 1.046875q0.65625 0.390625 1.578125 0.390625q3.390625 0.03125 3.390625 -4.796875q0 -0.96875 -0.1875 -1.84375q-0.1875 -0.875 -0.59375 -1.53125q-0.390625 -0.65625 -1.046875 -1.03125q-0.640625 -0.390625 -1.5625 -0.390625q-3.40625 -0.03125 -3.40625 4.796875zm20.732147 5.421875q-0.75 0.546875 -1.78125 0.828125q-1.015625 0.296875 -2.140625 0.296875q-1.453125 0 -2.453125 -0.453125q-1.0 -0.46875 -1.640625 -1.328125q-0.640625 -0.859375 -0.9375 -2.078125q-0.28125 -1.21875 -0.28125 -2.6875q0 -3.171875 1.40625 -4.859375q1.40625 -1.6875 4.03125 -1.6875q1.1875 0 2.03125 0.1875q0.84375 0.1875 1.515625 0.53125l-0.578125 1.734375q-0.578125 -0.328125 -1.28125 -0.515625q-0.6875 -0.1875 -1.5 -0.1875q-3.546875 0 -3.546875 4.796875q0 0.953125 0.1875 1.8125q0.1875 0.859375 0.625 1.53125q0.4375 0.65625 1.140625 1.0625q0.71875 0.390625 1.78125 0.390625q0.890625 0 1.59375 -0.265625q0.71875 -0.28125 1.171875 -0.625l0.65625 1.515625zm3.3136292 -11.671875l2.0 0l0 12.5l-2.0 0l0 -12.5zm-0.421875 -3.796875q0 -0.578125 0.390625 -0.984375q0.390625 -0.421875 0.984375 -0.421875q0.609375 0 1.03125 0.421875q0.421875 0.40625 0.421875 0.984375q0 0.578125 -0.421875 0.953125q-0.421875 0.375 -1.03125 0.375q-0.59375 0 -0.984375 -0.375q-0.390625 -0.375 -0.390625 -0.953125zm6.5848083 4.71875q0.953125 -0.578125 2.21875 -0.84375q1.2656555 -0.28125 2.6406555 -0.28125q1.296875 0 2.078125 0.359375q0.796875 0.34375 1.203125 0.90625q0.421875 0.5625 0.546875 1.234375q0.140625 0.671875 0.140625 1.359375q0 1.5 -0.078125 2.921875q-0.0625 1.421875 -0.0625 2.703125q0 0.921875 0.0625 1.75q0.078125 0.8125 0.28125 1.515625l-1.46875 0l-0.53125 -1.75l-0.125 0q-0.21875 0.359375 -0.5625 0.703125q-0.34375 0.328125 -0.8125 0.59375q-0.46875 0.25 -1.09375 0.421875q-0.625 0.1875 -1.4375 0.1875q-0.7969055 0 -1.4844055 -0.25q-0.6875 -0.25 -1.1875 -0.703125q-0.5 -0.46875 -0.796875 -1.125q-0.28125 -0.65625 -0.28125 -1.46875q0 -1.109375 0.453125 -1.84375q0.453125 -0.734375 1.265625 -1.171875q0.8125 -0.4375 1.9531555 -0.625q1.140625 -0.1875 2.515625 -0.1875q0.34375 0 0.671875 0q0.34375 0 0.703125 0.046875q0.0625 -0.75 0.0625 -1.34375q0 -1.375 -0.546875 -1.921875q-0.546875 -0.5625 -2.0 -0.5625q-0.421875 0 -0.90625 0.0625q-0.484375 0.0625 -1.0000305 0.1875q-0.515625 0.109375 -0.984375 0.265625q-0.453125 0.15625 -0.8125 0.359375l-0.625 -1.5zm3.5625305 10.03125q0.6875 0 1.234375 -0.1875q0.5625 -0.1875 0.953125 -0.46875q0.40625 -0.296875 0.671875 -0.640625q0.265625 -0.359375 0.390625 -0.6875l0 -2.0625q-0.359375 -0.03125 -0.71875 -0.046875q-0.359375 -0.015625 -0.71875 -0.015625q-0.765625 0 -1.515625 0.09375q-0.734375 0.09375 -1.2969055 0.328125q-0.5625 0.234375 -0.90625 0.65625q-0.328125 0.40625 -0.328125 1.03125q0 0.875 0.625 1.4375q0.625 0.5625 1.6094055 0.5625zm7.562744 -10.953125l1.9375 0l0 -2.46875l2.0 -0.578125l0 3.046875l3.40625 0l0 1.75l-3.40625 0l0 6.921875q0 1.296875 0.328125 1.84375q0.328125 0.53125 1.109375 0.53125q0.640625 0 1.09375 -0.125q0.453125 -0.140625 1.0 -0.375l0.453125 1.53125q-0.671875 0.328125 -1.484375 0.515625q-0.796875 0.203125 -1.71875 0.203125q-1.53125 0 -2.15625 -0.859375q-0.625 -0.859375 -0.625 -2.890625l0 -7.296875l-1.9375 0l0 -1.75zm10.648743 0l2.0 0l0 12.5l-2.0 0l0 -12.5zm-0.421875 -3.796875q0 -0.578125 0.390625 -0.984375q0.390625 -0.421875 0.984375 -0.421875q0.609375 0 1.03125 0.421875q0.421875 0.40625 0.421875 0.984375q0 0.578125 -0.421875 0.953125q-0.421875 0.375 -1.03125 0.375q-0.59375 0 -0.984375 -0.375q-0.390625 -0.375 -0.390625 -0.953125zm6.084839 10.046875q0 -3.171875 1.40625 -4.859375q1.421875 -1.6875 4.078125 -1.6875q1.390625 0 2.421875 0.46875q1.046875 0.453125 1.71875 1.3125q0.6875 0.859375 1.0 2.078125q0.328125 1.21875 0.328125 2.6875q0 3.171875 -1.421875 4.859375q-1.40625 1.6875 -4.046875 1.6875q-1.40625 0 -2.453125 -0.453125q-1.03125 -0.46875 -1.703125 -1.328125q-0.671875 -0.859375 -1.0 -2.078125q-0.328125 -1.21875 -0.328125 -2.6875zm2.078125 0q0 0.953125 0.1875 1.828125q0.1875 0.875 0.578125 1.53125q0.40625 0.640625 1.0625 1.046875q0.65625 0.390625 1.578125 0.390625q3.390625 0.03125 3.390625 -4.796875q0 -0.96875 -0.1875 -1.84375q-0.1875 -0.875 -0.59375 -1.53125q-0.390625 -0.65625 -1.046875 -1.03125q-0.640625 -0.390625 -1.5625 -0.390625q-3.40625 -0.03125 -3.40625 4.796875zm20.232147 6.25l0 -7.125q0 -1.953125 -0.5625 -2.9375q-0.5625 -0.984375 -2.0625 -0.984375q-1.328125 0 -2.1875 0.71875q-0.859375 0.703125 -1.21875 1.78125l0 8.546875l-2.0 0l0 -12.5l1.40625 0l0.375 1.53125l0.09375 0q0.609375 -0.8125 1.609375 -1.3125q1.015625 -0.515625 2.421875 -0.515625q1.015625 0 1.796875 0.234375q0.78125 0.234375 1.28125 0.84375q0.515625 0.59375 0.78125 1.609375q0.265625 1.015625 0.265625 2.5625l0 7.546875l-2.0 0z" fill-rule="nonzero"></path><path fill="#000000" fill-opacity="0.0" d="m312.5156 270.59842l0 -95.33858" fill-rule="nonzero"></path><path stroke="#ffffff" stroke-width="3.0" stroke-linejoin="round" stroke-linecap="butt" stroke-dasharray="3.0,9.0" d="m312.5156 270.59842l0 -95.33858" fill-rule="nonzero"></path><path fill="#000000" fill-opacity="0.0" d="m204.0 373.99936l0 0c0 -7.456299 6.044525 -13.500824 13.500839 -13.500824l188.99834 0c3.5806274 0 7.014618 1.4223938 9.546509 3.9542847c2.5319214 2.5318909 3.9543152 5.9658813 3.9543152 9.546539l0 19.801483l0 0c0 7.456299 -6.044525 13.500824 -13.500824 13.500824l-188.99834 0l0 0c-7.456314 0 -13.500839 -6.044525 -13.500839 -13.500824z" fill-rule="nonzero"></path><path stroke="#ffffff" stroke-width="2.6666666666666665" stroke-miterlimit="8.0" stroke-linecap="butt" stroke-dasharray="2.6666666666666665,8.0" d="m204.0 373.99936l0 0c0 -7.456299 6.044525 -13.500824 13.500839 -13.500824l188.99834 0c3.5806274 0 7.014618 1.4223938 9.546509 3.9542847c2.5319214 2.5318909 3.9543152 5.9658813 3.9543152 9.546539l0 19.801483l0 0c0 7.456299 -6.044525 13.500824 -13.500824 13.500824l-188.99834 0l0 0c-7.456314 0 -13.500839 -6.044525 -13.500839 -13.500824z" fill-rule="nonzero"></path><path fill="#ffffff" d="m276.8838 381.4701l0.25 -2.625l-0.125 0l-0.953125 2.40625l-4.546875 7.890625l-0.625 0l-4.828125 -7.921875l-0.90625 -2.375l-0.125 0l0.359375 2.59375l0 11.78125l-1.953125 0l0 -17.5l1.546875 0l5.484375 8.953125l0.8125 1.953125l0.0625 0l0.765625 -2.0l5.234375 -8.90625l1.625 0l0 17.5l-2.078125 0l0 -11.75zm15.503326 10.75q-0.75 0.59375 -1.890625 0.953125q-1.125 0.34375 -2.40625 0.34375q-1.421875 0 -2.484375 -0.453125q-1.046875 -0.46875 -1.71875 -1.328125q-0.671875 -0.859375 -1.0 -2.0625q-0.328125 -1.203125 -0.328125 -2.703125q0 -3.203125 1.421875 -4.875q1.4375 -1.671875 4.078125 -1.671875q0.859375 0 1.703125 0.1875q0.859375 0.1875 1.53125 0.71875q0.671875 0.515625 1.09375 1.484375q0.421875 0.953125 0.421875 2.53125q0 0.828125 -0.140625 1.828125l-8.03125 0q0 1.09375 0.21875 1.953125q0.234375 0.84375 0.703125 1.4375q0.484375 0.578125 1.234375 0.890625q0.765625 0.3125 1.875 0.3125q0.84375 0 1.6875 -0.296875q0.859375 -0.296875 1.28125 -0.703125l0.75 1.453125zm-4.296875 -10.046875q-1.46875 0 -2.359375 0.78125q-0.890625 0.765625 -1.0625 2.640625l6.203125 0q0 -1.90625 -0.734375 -2.65625q-0.71875 -0.765625 -2.046875 -0.765625zm6.397949 -1.453125l1.9375 0l0 -2.46875l2.0 -0.578125l0 3.046875l3.40625 0l0 1.75l-3.40625 0l0 6.921875q0 1.296875 0.328125 1.84375q0.328125 0.53125 1.109375 0.53125q0.640625 0 1.09375 -0.125q0.453125 -0.140625 1.0 -0.375l0.453125 1.53125q-0.671875 0.328125 -1.484375 0.515625q-0.796875 0.203125 -1.71875 0.203125q-1.53125 0 -2.15625 -0.859375q-0.625 -0.859375 -0.625 -2.890625l0 -7.296875l-1.9375 0l0 -1.75zm10.023743 0.921875q0.953125 -0.578125 2.21875 -0.84375q1.265625 -0.28125 2.640625 -0.28125q1.296875 0 2.078125 0.359375q0.796875 0.34375 1.203125 0.90625q0.421875 0.5625 0.546875 1.234375q0.140625 0.671875 0.140625 1.359375q0 1.5 -0.078125 2.921875q-0.0625 1.421875 -0.0625 2.703125q0 0.921875 0.0625 1.75q0.078125 0.8125 0.28125 1.515625l-1.46875 0l-0.53125 -1.75l-0.125 0q-0.21875 0.359375 -0.5625 0.703125q-0.34375 0.328125 -0.8125 0.59375q-0.46875 0.25 -1.09375 0.421875q-0.625 0.1875 -1.4375 0.1875q-0.796875 0 -1.484375 -0.25q-0.6875 -0.25 -1.1875 -0.703125q-0.5 -0.46875 -0.796875 -1.125q-0.28125 -0.65625 -0.28125 -1.46875q0 -1.109375 0.453125 -1.84375q0.453125 -0.734375 1.265625 -1.171875q0.8125 -0.4375 1.953125 -0.625q1.140625 -0.1875 2.515625 -0.1875q0.34375 0 0.671875 0q0.34375 0 0.703125 0.046875q0.0625 -0.75 0.0625 -1.34375q0 -1.375 -0.546875 -1.921875q-0.546875 -0.5625 -2.0 -0.5625q-0.421875 0 -0.90625 0.0625q-0.484375 0.0625 -1.0 0.1875q-0.515625 0.109375 -0.984375 0.265625q-0.453125 0.15625 -0.8125 0.359375l-0.625 -1.5zm3.5625 10.03125q0.6875 0 1.234375 -0.1875q0.5625 -0.1875 0.953125 -0.46875q0.40625 -0.296875 0.671875 -0.640625q0.265625 -0.359375 0.390625 -0.6875l0 -2.0625q-0.359375 -0.03125 -0.71875 -0.046875q-0.359375 -0.015625 -0.71875 -0.015625q-0.765625 0 -1.515625 0.09375q-0.734375 0.09375 -1.296875 0.328125q-0.5625 0.234375 -0.90625 0.65625q-0.328125 0.40625 -0.328125 1.03125q0 0.875 0.625 1.4375q0.625 0.5625 1.609375 0.5625zm18.812775 -2.75q0 1.265625 0.015625 2.3125q0.03125 1.03125 0.234375 2.03125l-1.359375 0l-0.5 -1.765625l-0.09375 0q-0.5 0.875 -1.453125 1.453125q-0.953125 0.5625 -2.21875 0.5625q-2.5 0 -3.71875 -1.5625q-1.21875 -1.578125 -1.21875 -4.9375q0 -3.203125 1.515625 -4.859375q1.515625 -1.65625 4.171875 -1.65625q0.921875 0 1.453125 0.09375q0.546875 0.09375 1.171875 0.328125l0 -5.203125l2.0 0l0 13.203125zm-5.0625 2.84375q1.28125 0 2.03125 -0.65625q0.75 -0.671875 1.03125 -2.015625l0 -6.203125q-0.453125 -0.34375 -1.03125 -0.484375q-0.578125 -0.15625 -1.53125 -0.15625q-1.71875 0 -2.703125 1.140625q-0.96875 1.125 -0.96875 3.625q0 1.03125 0.15625 1.90625q0.171875 0.875 0.546875 1.5q0.375 0.625 0.984375 0.984375q0.609375 0.359375 1.484375 0.359375zm8.876556 -10.125q0.953125 -0.578125 2.21875 -0.84375q1.265625 -0.28125 2.640625 -0.28125q1.296875 0 2.078125 0.359375q0.796875 0.34375 1.203125 0.90625q0.421875 0.5625 0.546875 1.234375q0.140625 0.671875 0.140625 1.359375q0 1.5 -0.078125 2.921875q-0.0625 1.421875 -0.0625 2.703125q0 0.921875 0.0625 1.75q0.078125 0.8125 0.28125 1.515625l-1.46875 0l-0.53125 -1.75l-0.125 0q-0.21875 0.359375 -0.5625 0.703125q-0.34375 0.328125 -0.8125 0.59375q-0.46875 0.25 -1.09375 0.421875q-0.625 0.1875 -1.4375 0.1875q-0.796875 0 -1.484375 -0.25q-0.6875 -0.25 -1.1875 -0.703125q-0.5 -0.46875 -0.796875 -1.125q-0.28125 -0.65625 -0.28125 -1.46875q0 -1.109375 0.453125 -1.84375q0.453125 -0.734375 1.265625 -1.171875q0.8125 -0.4375 1.953125 -0.625q1.140625 -0.1875 2.515625 -0.1875q0.34375 0 0.671875 0q0.34375 0 0.703125 0.046875q0.0625 -0.75 0.0625 -1.34375q0 -1.375 -0.546875 -1.921875q-0.546875 -0.5625 -2.0 -0.5625q-0.421875 0 -0.90625 0.0625q-0.484375 0.0625 -1.0 0.1875q-0.515625 0.109375 -0.984375 0.265625q-0.453125 0.15625 -0.8125 0.359375l-0.625 -1.5zm3.5625 10.03125q0.6875 0 1.234375 -0.1875q0.5625 -0.1875 0.953125 -0.46875q0.40625 -0.296875 0.671875 -0.640625q0.265625 -0.359375 0.390625 -0.6875l0 -2.0625q-0.359375 -0.03125 -0.71875 -0.046875q-0.359375 -0.015625 -0.71875 -0.015625q-0.765625 0 -1.515625 0.09375q-0.734375 0.09375 -1.296875 0.328125q-0.5625 0.234375 -0.90625 0.65625q-0.328125 0.40625 -0.328125 1.03125q0 0.875 0.625 1.4375q0.625 0.5625 1.609375 0.5625zm7.5627747 -10.953125l1.9375 0l0 -2.46875l2.0 -0.578125l0 3.046875l3.40625 0l0 1.75l-3.40625 0l0 6.921875q0 1.296875 0.328125 1.84375q0.328125 0.53125 1.109375 0.53125q0.640625 0 1.09375 -0.125q0.453125 -0.140625 1.0 -0.375l0.453125 1.53125q-0.671875 0.328125 -1.484375 0.515625q-0.796875 0.203125 -1.71875 0.203125q-1.53125 0 -2.15625 -0.859375q-0.625 -0.859375 -0.625 -2.890625l0 -7.296875l-1.9375 0l0 -1.75zm10.023743 0.921875q0.953125 -0.578125 2.21875 -0.84375q1.265625 -0.28125 2.640625 -0.28125q1.296875 0 2.078125 0.359375q0.796875 0.34375 1.203125 0.90625q0.421875 0.5625 0.546875 1.234375q0.140625 0.671875 0.140625 1.359375q0 1.5 -0.078125 2.921875q-0.0625 1.421875 -0.0625 2.703125q0 0.921875 0.0625 1.75q0.078125 0.8125 0.28125 1.515625l-1.46875 0l-0.53125 -1.75l-0.125 0q-0.21875 0.359375 -0.5625 0.703125q-0.34375 0.328125 -0.8125 0.59375q-0.46875 0.25 -1.09375 0.421875q-0.625 0.1875 -1.4375 0.1875q-0.796875 0 -1.484375 -0.25q-0.6875 -0.25 -1.1875 -0.703125q-0.5 -0.46875 -0.796875 -1.125q-0.28125 -0.65625 -0.28125 -1.46875q0 -1.109375 0.453125 -1.84375q0.453125 -0.734375 1.265625 -1.171875q0.8125 -0.4375 1.953125 -0.625q1.140625 -0.1875 2.515625 -0.1875q0.34375 0 0.671875 0q0.34375 0 0.703125 0.046875q0.0625 -0.75 0.0625 -1.34375q0 -1.375 -0.546875 -1.921875q-0.546875 -0.5625 -2.0 -0.5625q-0.421875 0 -0.90625 0.0625q-0.484375 0.0625 -1.0 0.1875q-0.515625 0.109375 -0.984375 0.265625q-0.453125 0.15625 -0.8125 0.359375l-0.625 -1.5zm3.5625 10.03125q0.6875 0 1.234375 -0.1875q0.5625 -0.1875 0.953125 -0.46875q0.40625 -0.296875 0.671875 -0.640625q0.265625 -0.359375 0.390625 -0.6875l0 -2.0625q-0.359375 -0.03125 -0.71875 -0.046875q-0.359375 -0.015625 -0.71875 -0.015625q-0.765625 0 -1.515625 0.09375q-0.734375 0.09375 -1.296875 0.328125q-0.5625 0.234375 -0.90625 0.65625q-0.328125 0.40625 -0.328125 1.03125q0 0.875 0.625 1.4375q0.625 0.5625 1.609375 0.5625z" fill-rule="nonzero"></path><path fill="#000000" fill-opacity="0.0" d="m312.5156 317.40158l-0.50393677 43.08661" fill-rule="nonzero"></path><path stroke="#ffffff" stroke-width="3.0" stroke-linejoin="round" stroke-linecap="butt" d="m312.5156 317.40158l-0.2934265 25.08783" fill-rule="evenodd"></path><path fill="#ffffff" stroke="#ffffff" stroke-width="3.0" stroke-linecap="butt" d="m307.2673 342.43146l4.795624 13.671326l5.114105 -13.55542z" fill-rule="evenodd"></path><path fill="#000000" fill-opacity="0.0" d="m700.0 270.5971l0 0c0 -9.765625E-4 7.9345703E-4 -0.0018005371 0.0017700195 -0.0018005371l215.99823 0.0018005371c4.8828125E-4 0 9.1552734E-4 1.8310547E-4 0.0012817383 5.187988E-4c3.0517578E-4 3.6621094E-4 4.8828125E-4 8.239746E-4 4.8828125E-4 0.0012817383l-0.0017700195 46.80136c0 9.765625E-4 -7.9345703E-4 0.0018005371 -0.0017700195 0.0018005371l-215.99823 -0.0018005371l0 0c-9.765625E-4 0 -0.0017700195 -8.239746E-4 -0.0017700195 -0.0018005371z" fill-rule="nonzero"></path><path stroke="#ffffff" stroke-width="2.6666666666666665" stroke-miterlimit="8.0" stroke-linecap="butt" d="m700.0 270.5971l0 0c0 -9.765625E-4 7.9345703E-4 -0.0018005371 0.0017700195 -0.0018005371l215.99823 0.0018005371c4.8828125E-4 0 9.1552734E-4 1.8310547E-4 0.0012817383 5.187988E-4c3.0517578E-4 3.6621094E-4 4.8828125E-4 8.239746E-4 4.8828125E-4 0.0012817383l-0.0017700195 46.80136c0 9.765625E-4 -7.9345703E-4 0.0018005371 -0.0017700195 0.0018005371l-215.99823 -0.0018005371l0 0c-9.765625E-4 0 -0.0017700195 -8.239746E-4 -0.0017700195 -0.0018005371z" fill-rule="nonzero"></path><path fill="#ffffff" d="m797.1195 287.66245l-5.453125 0l0 15.65625l-2.0625 0l0 -15.65625l-5.453125 0l0 -1.84375l12.96875 0l0 1.84375zm1.8540039 9.40625q0 -3.171875 1.40625 -4.859375q1.421875 -1.6875 4.078125 -1.6875q1.390625 0 2.421875 0.46875q1.046875 0.453125 1.71875 1.3125q0.6875 0.859375 1.0 2.078125q0.328125 1.21875 0.328125 2.6875q0 3.171875 -1.421875 4.859375q-1.40625 1.6875 -4.046875 1.6875q-1.40625 0 -2.453125 -0.453125q-1.03125 -0.46875 -1.703125 -1.328125q-0.671875 -0.859375 -1.0 -2.078125q-0.328125 -1.21875 -0.328125 -2.6875zm2.078125 0q0 0.953125 0.1875 1.828125q0.1875 0.875 0.578125 1.53125q0.40625 0.640625 1.0625 1.046875q0.65625 0.390625 1.578125 0.390625q3.390625 0.03125 3.390625 -4.796875q0 -0.96875 -0.1875 -1.84375q-0.1875 -0.875 -0.59375 -1.53125q-0.390625 -0.65625 -1.046875 -1.03125q-0.640625 -0.390625 -1.5625 -0.390625q-3.40625 -0.03125 -3.40625 4.796875zm11.497742 0q0 -3.171875 1.40625 -4.859375q1.421875 -1.6875 4.078125 -1.6875q1.390625 0 2.421875 0.46875q1.046875 0.453125 1.71875 1.3125q0.6875 0.859375 1.0 2.078125q0.328125 1.21875 0.328125 2.6875q0 3.171875 -1.421875 4.859375q-1.40625 1.6875 -4.046875 1.6875q-1.40625 0 -2.453125 -0.453125q-1.03125 -0.46875 -1.703125 -1.328125q-0.671875 -0.859375 -1.0 -2.078125q-0.328125 -1.21875 -0.328125 -2.6875zm2.078125 0q0 0.953125 0.1875 1.828125q0.1875 0.875 0.578125 1.53125q0.40625 0.640625 1.0625 1.046875q0.65625 0.390625 1.578125 0.390625q3.390625 0.03125 3.390625 -4.796875q0 -0.96875 -0.1875 -1.84375q-0.1875 -0.875 -0.59375 -1.53125q-0.390625 -0.65625 -1.046875 -1.03125q-0.640625 -0.390625 -1.5625 -0.390625q-3.40625 -0.03125 -3.40625 4.796875zm14.435303 3.171875q0 0.875 0.296875 1.25q0.296875 0.375 0.84375 0.375q0.328125 0 0.703125 -0.046875q0.375 -0.046875 0.84375 -0.21875l0.234375 1.5625q-0.40625 0.203125 -1.125 0.328125q-0.703125 0.125 -1.234375 0.125q-1.125 0 -1.84375 -0.625q-0.71875 -0.640625 -0.71875 -2.171875l0 -15.0l2.0 0l0 14.421875z" fill-rule="nonzero"></path><path fill="#000000" fill-opacity="0.0" d="m808.0 197.40027l0 73.19684" fill-rule="nonzero"></path><path stroke="#ffffff" stroke-width="3.0" stroke-linejoin="round" stroke-linecap="butt" stroke-dasharray="3.0,9.0" d="m808.0 197.40027l0 55.19684" fill-rule="evenodd"></path><path fill="#ffffff" stroke="#ffffff" stroke-width="3.0" stroke-linecap="butt" d="m803.0448 252.5971l4.9552 13.614288l4.9552 -13.614288z" fill-rule="evenodd"></path><path fill="#000000" fill-opacity="0.0" d="m700.0 164.09795l0 0c0 -7.456299 6.0445557 -13.500839 13.5008545 -13.500839l188.99829 0c3.5806885 0 7.0146484 1.422409 9.54657 3.9543152c2.5318604 2.5318909 3.9542847 5.9658813 3.9542847 9.546524l0 19.801483l0 0c0 7.456299 -6.0445557 13.500839 -13.5008545 13.500839l-188.99829 0l0 0c-7.456299 0 -13.5008545 -6.0445404 -13.5008545 -13.500839z" fill-rule="nonzero"></path><path stroke="#ffffff" stroke-width="2.6666666666666665" stroke-miterlimit="8.0" stroke-linecap="butt" d="m700.0 164.09795l0 0c0 -7.456299 6.0445557 -13.500839 13.5008545 -13.500839l188.99829 0c3.5806885 0 7.0146484 1.422409 9.54657 3.9543152c2.5318604 2.5318909 3.9542847 5.9658813 3.9542847 9.546524l0 19.801483l0 0c0 7.456299 -6.0445557 13.500839 -13.5008545 13.500839l-188.99829 0l0 0c-7.456299 0 -13.5008545 -6.0445404 -13.5008545 -13.500839z" fill-rule="nonzero"></path><path fill="#ffffff" d="m793.48505 165.8187l2.078125 0l0 13.65625q0 2.0 -0.890625 3.046875q-0.890625 1.046875 -2.6875 1.046875q-0.203125 0 -0.5 -0.03125q-0.296875 -0.015625 -0.59375 -0.078125q-0.296875 -0.046875 -0.578125 -0.125q-0.296875 -0.0625 -0.46875 -0.171875l0.390625 -1.765625q0.703125 0.328125 1.53125 0.328125q1.046875 0 1.375 -0.734375q0.34375 -0.75 0.34375 -2.015625l0 -13.15625zm5.7924194 11.25q0 -3.171875 1.40625 -4.859375q1.421875 -1.6875 4.078125 -1.6875q1.390625 0 2.421875 0.46875q1.046875 0.453125 1.71875 1.3125q0.6875 0.859375 1.0 2.078125q0.328125 1.21875 0.328125 2.6875q0 3.171875 -1.421875 4.859375q-1.40625 1.6875 -4.046875 1.6875q-1.40625 0 -2.453125 -0.453125q-1.03125 -0.46875 -1.703125 -1.328125q-0.671875 -0.859375 -1.0 -2.078125q-0.328125 -1.21875 -0.328125 -2.6875zm2.078125 0q0 0.953125 0.1875 1.828125q0.1875 0.875 0.578125 1.53125q0.40625 0.640625 1.0625 1.046875q0.65625 0.390625 1.578125 0.390625q3.390625 0.03125 3.390625 -4.796875q0 -0.96875 -0.1875 -1.84375q-0.1875 -0.875 -0.59375 -1.53125q-0.390625 -0.65625 -1.046875 -1.03125q-0.640625 -0.390625 -1.5625 -0.390625q-3.40625 -0.03125 -3.40625 4.796875zm12.200867 -11.25l2.0 0l0 6.21875l0.109375 0q0.5625 -0.71875 1.453125 -1.109375q0.890625 -0.40625 1.9375 -0.40625q2.421875 0 3.640625 1.546875q1.21875 1.546875 1.21875 4.796875q0 3.28125 -1.609375 4.984375q-1.59375 1.6875 -4.5 1.6875q-1.390625 0 -2.53125 -0.296875q-1.140625 -0.296875 -1.71875 -0.640625l0 -16.78125zm5.15625 6.453125q-1.25 0 -2.03125 0.703125q-0.765625 0.6875 -1.125 1.96875l0 6.296875q0.484375 0.28125 1.15625 0.421875q0.671875 0.125 1.390625 0.125q1.703125 0 2.71875 -1.1875q1.015625 -1.203125 1.015625 -3.75q0 -0.984375 -0.1875 -1.828125q-0.171875 -0.859375 -0.546875 -1.453125q-0.375 -0.59375 -0.96875 -0.9375q-0.578125 -0.359375 -1.421875 -0.359375z" fill-rule="nonzero"></path><path fill="#000000" fill-opacity="0.0" d="m588.0 173.99869l112.0 0" fill-rule="nonzero"></path><path stroke="#ffffff" stroke-width="3.0" stroke-linejoin="round" stroke-linecap="butt" d="m588.0 173.99869l95.11517 0" fill-rule="evenodd"></path><path fill="#ffffff" stroke="#ffffff" stroke-width="3.0" stroke-linecap="butt" d="m683.1152 173.99869l7.1348267 4.995865l7.1348267 -4.995865l-7.1348267 -4.995865z" fill-rule="evenodd"></path></g></svg>

