<?xml version="1.0" encoding="UTF-8" standalone="yes"?><svg xmlns="http://www.w3.org/2000/svg" xmlns:xlink="http://www.w3.org/1999/xlink" height="142px" style="width:401px;height:142px;" version="1.1" viewBox="0 0 401 142" width="401px"><defs><filter height="300%" id="f1" width="300%" x="-1" y="-1"><feGaussianBlur result="blurOut" stdDeviation="2.0"/><feColorMatrix in="blurOut" result="blurOut2" type="matrix" values="0 0 0 0 0 0 0 0 0 0 0 0 0 0 0 0 0 0 .4 0"/><feOffset dx="4.0" dy="4.0" in="blurOut2" result="blurOut3"/><feBlend in="SourceGraphic" in2="blurOut3" mode="normal"/></filter></defs><g><polygon fill="#FFEFD5" filter="url(#f1)" points="6,8.5,6,9.1144,15.85,7.7675,25.7,8.5353,35.55,8.1282,45.4,7.8888,55.25,8.093,65.1,7.8425,74.95,8.0746,84.8,8.0534,94.65,8.2825,104.5,8.4292,114.35,8.562,124.2,8.4275,134.05,8.5053,143.9,9.012,153.75,8.511,163.6,8.6362,173.45,9.2427,183.3,8.4818,193.15,8.5747,203,8.5,203.3552,8.5,203.6055,18.9023,202.2847,29.3047,202.6042,39.707,203.1282,50.1094,202.8968,60.5117,203.7447,70.9141,202.9683,81.3164,203.1218,91.7188,202.5938,102.1211,202.831,112.5234,203.2137,122.9258,203,133.3281,203,133.2143,193.15,133.5847,183.3,133.5713,173.45,133.4428,163.6,132.6775,153.75,133.6113,143.9,133.0877,134.05,132.8767,124.2,132.7132,114.35,132.7509,104.5,133.8997,94.65,132.6787,84.8,132.686,74.95,133.3544,65.1,132.6308,55.25,133.1782,45.4,132.8972,35.55,132.9897,25.7,133.4253,15.85,132.9877,6,133.3281,5.4966,133.3281,5.4447,122.9258,6.0447,112.5234,5.4918,102.1211,6.1467,91.7188,6.2423,81.3164,5.2983,70.9141,6.3105,60.5117,6.214,50.1094,5.2826,39.707,6.0326,29.3047,5.9766,18.9023,6,8.5" style="stroke: #FF8C00; stroke-width: 1.5;"/><polygon fill="#ADD1B2" points="31.1897,26.5122,30.6119,29.382,28.7783,32.4926,26.941,33.281,24.8459,35.2248,22.5166,35.3078,20.0492,35.9095,17.5873,35.5841,15.2939,33.2266,11.8463,31.4193,10.5115,29.6393,10.7131,27.3197,10.5242,25.259,9.7856,22.5629,10.9233,19.3033,13.4103,17.3969,15.1817,14.8618,17.423,14.0332,19.3018,13.1495,22.4134,13.573,25.8534,13.9691,28.357,16.6442,29.7275,18.2987,30.9691,21.2572,32.5779,24.231,31.7095,27.168" style="stroke: #FF8C00; stroke-width: 1.0;"/><path d="M23.9688,30.1406 Q23.3906,30.4375 22.75,30.5859 Q22.1094,30.7344 21.4063,30.7344 Q18.9063,30.7344 17.5859,29.0859 Q16.2656,27.4375 16.2656,24.3125 Q16.2656,21.1875 17.5859,19.5313 Q18.9063,17.875 21.4063,17.875 Q22.1094,17.875 22.7578,18.0313 Q23.4063,18.1875 23.9688,18.4844 L23.9688,21.2031 Q23.3438,20.625 22.75,20.3516 Q22.1563,20.0781 21.5313,20.0781 Q20.1875,20.0781 19.5,21.1484 Q18.8125,22.2188 18.8125,24.3125 Q18.8125,26.4063 19.5,27.4766 Q20.1875,28.5469 21.5313,28.5469 Q22.1563,28.5469 22.75,28.2734 Q23.3438,28 23.9688,27.4219 L23.9688,30.1406 Z "/><text fill="#000000" font-family="sans-serif" font-size="12" lengthAdjust="spacingAndGlyphs" textLength="165" x="35" y="28.6543">HistoryDatasetAssociation</text><path d="M7,40.5 L7,41.2996 L16.75,41.2862 L26.5,39.5266 L36.25,39.5883 L46,40.8218 L55.75,41.4331 L65.5,40.8638 L75.25,39.6371 L85,41.3802 L94.75,39.9638 L104.5,41.3905 L114.25,40.7805 L124,41.3161 L133.75,40.5527 L143.5,40.0798 L153.25,41.16 L163,41.149 L172.75,41.3459 L182.5,40.4738 L192.25,39.8499 L202,40.5 " fill="#FFEFD5" style="stroke: #FF8C00; stroke-width: 1.5;"/><text fill="#000000" font-family="sans-serif" font-size="11" lengthAdjust="spacingAndGlyphs" textLength="65" x="12" y="54.7104">hid: integer</text><text fill="#000000" font-family="sans-serif" font-size="11" lengthAdjust="spacingAndGlyphs" textLength="103" x="12" y="67.5151">history_id: integer</text><text fill="#000000" font-family="sans-serif" font-size="11" lengthAdjust="spacingAndGlyphs" textLength="107" x="12" y="80.3198">dataset_id: integer</text><text fill="#000000" font-family="sans-serif" font-size="11" lengthAdjust="spacingAndGlyphs" textLength="70" x="12" y="93.1245">state: string</text><text fill="#000000" font-family="sans-serif" font-size="11" lengthAdjust="spacingAndGlyphs" textLength="73" x="12" y="105.9292">name: string</text><text fill="#000000" font-family="sans-serif" font-size="11" lengthAdjust="spacingAndGlyphs" textLength="62" x="12" y="118.7339">info: string</text><path d="M7,125.3281 L7,124.7498 L16.75,124.4056 L26.5,125.6411 L36.25,125.9915 L46,124.7637 L55.75,124.3896 L65.5,125.4302 L75.25,124.7506 L85,125.0971 L94.75,124.3446 L104.5,125.3615 L114.25,125.1546 L124,126.0912 L133.75,124.9732 L143.5,124.5332 L153.25,125.3161 L163,124.7253 L172.75,125.6208 L182.5,124.8468 L192.25,125.408 L202,125.3281 " fill="#FFEFD5" style="stroke: #FF8C00; stroke-width: 1.5;"/><polygon fill="#FFEFD5" filter="url(#f1)" points="238.25,15,238.25,14.3539,248.5167,15.643,258.7833,15.0247,269.05,15.2593,279.3167,14.5999,289.5833,14.5467,299.85,14.9058,310.1167,14.9825,320.3833,14.857,330.65,15.4424,340.9167,14.3031,351.1833,14.2797,361.45,15.0895,371.7167,15.6727,381.9833,15.2795,392.25,15,391.7014,15,392.0459,25.1839,392.4648,35.3679,392.0767,45.5518,391.9414,55.7358,391.8624,65.9197,392.2574,76.1037,392.983,86.2876,392.8058,96.4716,391.8491,106.6555,392.8564,116.8395,392.25,127.0234,392.25,126.802,381.9833,127.2602,371.7167,126.879,361.45,127.2999,351.1833,127.7156,340.9167,127.6713,330.65,126.513,320.3833,127.5315,310.1167,127.6199,299.85,126.7109,289.5833,126.8171,279.3167,126.4335,269.05,127.1842,258.7833,127.2556,248.5167,127.289,238.25,127.0234,238.7138,127.0234,237.632,116.8395,237.6758,106.6555,237.5999,96.4716,237.9909,86.2876,238.5608,76.1037,238.9224,65.9197,238.7136,55.7358,238.1312,45.5518,238.898,35.3679,238.6622,25.1839,238.25,15" style="stroke: #FF8C00; stroke-width: 1.5;"/><polygon fill="#ADD1B2" points="297.3155,33.3176,296.7004,35.6842,294.2188,37.2458,293.1033,38.9233,290.6513,41.556,287.5368,42.5477,285.4776,41.8824,283.1005,41.7869,279.7138,40.4034,278.2444,38.7992,276.3713,36.3546,276.041,34.211,274.8988,31.2259,275.0423,28.2419,276.3913,24.4932,278.8522,21.8671,282.2868,19.9274,285.1552,20.0935,288.1482,19.6493,290.0263,21.447,292.9633,21.7574,295.2256,24.6146,296.8314,27.5259,296.7973,31.3368" style="stroke: #FF8C00; stroke-width: 1.0;"/><path d="M288.9688,36.6406 Q288.3906,36.9375 287.75,37.0859 Q287.1094,37.2344 286.4063,37.2344 Q283.9063,37.2344 282.5859,35.5859 Q281.2656,33.9375 281.2656,30.8125 Q281.2656,27.6875 282.5859,26.0313 Q283.9063,24.375 286.4063,24.375 Q287.1094,24.375 287.7578,24.5313 Q288.4063,24.6875 288.9688,24.9844 L288.9688,27.7031 Q288.3438,27.125 287.75,26.8516 Q287.1563,26.5781 286.5313,26.5781 Q285.1875,26.5781 284.5,27.6484 Q283.8125,28.7188 283.8125,30.8125 Q283.8125,32.9063 284.5,33.9766 Q285.1875,35.0469 286.5313,35.0469 Q287.1563,35.0469 287.75,34.7734 Q288.3438,34.5 288.9688,33.9219 L288.9688,36.6406 Z "/><text fill="#000000" font-family="sans-serif" font-size="12" lengthAdjust="spacingAndGlyphs" textLength="50" x="306.5" y="35.1543">Dataset</text><path d="M239.25,47 L239.25,47.5547 L249.3833,47.5585 L259.5167,47.2359 L269.65,46.6478 L279.7833,46.6843 L289.9167,46.2412 L300.05,47.1933 L310.1833,46.4709 L320.3167,47.5403 L330.45,47.9324 L340.5833,47.9832 L350.7167,47.8028 L360.85,46.05 L370.9833,46.6221 L381.1167,46.5906 L391.25,47 " fill="#FFEFD5" style="stroke: #FF8C00; stroke-width: 1.5;"/><text fill="#000000" font-family="sans-serif" font-size="11" lengthAdjust="spacingAndGlyphs" textLength="127" x="244.25" y="61.2104">object_store_id: string</text><text fill="#000000" font-family="sans-serif" font-size="11" lengthAdjust="spacingAndGlyphs" textLength="142" x="244.25" y="74.0151">external_filename: string</text><text fill="#000000" font-family="sans-serif" font-size="11" lengthAdjust="spacingAndGlyphs" textLength="137" x="244.25" y="86.8198">_extra_files_path: string</text><text fill="#000000" font-family="sans-serif" font-size="11" lengthAdjust="spacingAndGlyphs" textLength="93" x="244.25" y="99.6245">file_size: integer</text><text fill="#000000" font-family="sans-serif" font-size="11" lengthAdjust="spacingAndGlyphs" textLength="101" x="244.25" y="112.4292">total_size: integer</text><path d="M239.25,119.0234 L239.25,118.8755 L249.3833,118.1566 L259.5167,119.6522 L269.65,118.3996 L279.7833,119.6996 L289.9167,119.9766 L300.05,118.1289 L310.1833,118.9649 L320.3167,118.7607 L330.45,119.2033 L340.5833,119.0691 L350.7167,119.7889 L360.85,118.2302 L370.9833,119.3125 L381.1167,118.9203 L391.25,119.0234 " fill="#FFEFD5" style="stroke: #FF8C00; stroke-width: 1.5;"/><path d="M202.744,71 L202.744,71.2752 L208.7318,71.0702 L214.7196,70.8441 L220.7074,70.8885 L226.6952,71.0816 L232.683,71 " fill="none" style="stroke: #FFA500; stroke-width: 1.0;"/><polygon fill="#FFA500" points="237.902,71,237.8973,70.9893,236.0773,70.1444,234.3645,69.5406,232.5793,68.7739,230.6864,67.765,228.902,67,228.8551,66.9531,229.7583,67.8563,230.4196,68.5176,231.1938,69.2918,231.9404,70.0384,232.902,71,233.0613,71.1593,231.9988,71.6968,231.4076,72.7056,230.5423,73.4403,229.8551,74.3531,228.902,75,228.9451,75.097,230.7348,74.2738,232.4098,73.1925,234.3871,72.7916,236.0643,71.7153,237.902,71" style="stroke: #FFA500; stroke-width: 1.0;"/><text fill="#FF8C00" font-family="sans-serif" font-size="13" lengthAdjust="spacingAndGlyphs" textLength="7" x="210.8517" y="66.4017">*</text><text fill="#FF8C00" font-family="sans-serif" font-size="13" lengthAdjust="spacingAndGlyphs" textLength="8" x="222.3399" y="66.3939">1</text></g></svg>