<?xml version="1.0" encoding="UTF-8" standalone="yes"?><svg xmlns="http://www.w3.org/2000/svg" xmlns:xlink="http://www.w3.org/1999/xlink" height="454px" style="width:502px;height:454px;" version="1.1" viewBox="0 0 502 454" width="502px"><defs><filter height="300%" id="f1" width="300%" x="-1" y="-1"><feGaussianBlur result="blurOut" stdDeviation="2.0"/><feColorMatrix in="blurOut" result="blurOut2" type="matrix" values="0 0 0 0 0 0 0 0 0 0 0 0 0 0 0 0 0 0 .4 0"/><feOffset dx="4.0" dy="4.0" in="blurOut2" result="blurOut3"/><feBlend in="SourceGraphic" in2="blurOut3" mode="normal"/></filter></defs><g><polygon fill="#FFEFD5" filter="url(#f1)" points="195.75,8,195.75,8.4865,205.125,8.4224,214.5,7.9821,223.875,8.1153,233.25,7.2707,242.625,7.8451,252,7.7284,261.375,8.2653,270.75,8,270.4198,8,270.46,17.6,270.8879,27.2,270.4304,36.8,270.0674,46.4,270.75,56,270.75,55.5089,261.375,55.6154,252,55.3586,242.625,56.3641,233.25,55.4609,223.875,55.9265,214.5,56.3634,205.125,56.4309,195.75,56,195.7629,56,195.7645,46.4,195.9777,36.8,195.5897,27.2,196.2684,17.6,195.75,8" style="stroke: #FF8C00; stroke-width: 1.5;"/><polygon fill="#ADD1B2" points="221.507,26.3143,220.1556,28.2782,219.2698,30.6271,217.1138,32.6689,214.5715,34.8362,212.0957,35.5621,209.9723,35.257,207.3156,34.9373,204.279,33.205,202.297,30.5244,200.0592,27.9391,199.7342,25.7887,199.8414,22.9616,199.6813,20.7636,201.019,18.6488,203.0395,15.2554,205.5912,14.6772,208.7549,13.6537,211.4457,13.2502,213.679,13.8929,216.5214,14.4864,218.8212,17.3561,220.2821,19.0682,221.7169,20.8187,222.0399,23.2402,221.393,25.5968" style="stroke: #FF8C00; stroke-width: 1.0;"/><path d="M213.7188,29.6406 Q213.1406,29.9375 212.5,30.0859 Q211.8594,30.2344 211.1563,30.2344 Q208.6563,30.2344 207.3359,28.5859 Q206.0156,26.9375 206.0156,23.8125 Q206.0156,20.6875 207.3359,19.0313 Q208.6563,17.375 211.1563,17.375 Q211.8594,17.375 212.5078,17.5313 Q213.1563,17.6875 213.7188,17.9844 L213.7188,20.7031 Q213.0938,20.125 212.5,19.8516 Q211.9063,19.5781 211.2813,19.5781 Q209.9375,19.5781 209.25,20.6484 Q208.5625,21.7188 208.5625,23.8125 Q208.5625,25.9063 209.25,26.9766 Q209.9375,28.0469 211.2813,28.0469 Q211.9063,28.0469 212.5,27.7734 Q213.0938,27.5 213.7188,26.9219 L213.7188,29.6406 Z "/><text fill="#000000" font-family="sans-serif" font-size="12" lengthAdjust="spacingAndGlyphs" textLength="43" x="224.75" y="28.1543">History</text><path d="M196.75,40 L196.75,39.1934 L207.1786,40.5922 L217.6071,39.329 L228.0357,40.2944 L238.4643,39.2079 L248.8929,39.7592 L259.3214,40.0563 L269.75,40 " fill="#FFEFD5" style="stroke: #FF8C00; stroke-width: 1.5;"/><path d="M196.75,48 L196.75,47.9763 L207.1786,48.7685 L217.6071,48.2094 L228.0357,47.3636 L238.4643,48.854 L248.8929,48.7542 L259.3214,48.9064 L269.75,48 " fill="#FFEFD5" style="stroke: #FF8C00; stroke-width: 1.5;"/><polygon fill="#FFEFD5" filter="url(#f1)" points="31.75,116,31.75,115.7254,41.6,116.0489,51.45,115.7014,61.3,115.2948,71.15,116.7405,81,116.3838,90.85,115.6978,100.7,116.7029,110.55,115.3869,120.4,116.4084,130.25,116.4717,140.1,116.5194,149.95,115.6496,159.8,115.4888,169.65,115.4232,179.5,116.512,189.35,115.787,199.2,115.5733,209.05,115.9624,218.9,115.638,228.75,116,228.4046,116,228.7097,126.5156,229.2996,137.0313,228.5843,147.5469,228.2579,158.0625,228.9887,168.5781,228.8413,179.0938,228.75,189.6094,228.75,189.6079,218.9,190.2041,209.05,188.9306,199.2,189.2848,189.35,188.884,179.5,189.8281,169.65,190.0357,159.8,188.9685,149.95,189.2577,140.1,189.769,130.25,189.4441,120.4,189.1317,110.55,190.0513,100.7,189.9721,90.85,189.1939,81,189.2929,71.15,189.7004,61.3,190.2808,51.45,189.2318,41.6,190.242,31.75,189.6094,32.3293,189.6094,32.3095,179.0938,32.4527,168.5781,31.5243,158.0625,31.3576,147.5469,31.0858,137.0313,32.3162,126.5156,31.75,116" style="stroke: #FF8C00; stroke-width: 1.5;"/><polygon fill="#ADD1B2" points="57.2906,135.236,56.4622,137.8712,54.6571,140.003,51.8543,141.7671,49.0453,143.196,45.9084,142.6612,42.447,141.5629,40.4938,140.8715,38.8607,139.5397,37.2096,137.0045,35.3874,134.3745,36.3201,131.1871,35.917,128.4396,37.4785,125.913,39.5428,123.8156,41.2874,122.585,43.6839,121.5972,47.2455,120.8968,50.2388,121.7387,52.0505,122.569,53.7076,123.8505,55.7623,125.1935,57.075,127.1602,57.994,130.3811,57.2866,133.5322" style="stroke: #FF8C00; stroke-width: 1.0;"/><path d="M49.7188,137.6406 Q49.1406,137.9375 48.5,138.0859 Q47.8594,138.2344 47.1563,138.2344 Q44.6563,138.2344 43.3359,136.5859 Q42.0156,134.9375 42.0156,131.8125 Q42.0156,128.6875 43.3359,127.0313 Q44.6563,125.375 47.1563,125.375 Q47.8594,125.375 48.5078,125.5313 Q49.1563,125.6875 49.7188,125.9844 L49.7188,128.7031 Q49.0938,128.125 48.5,127.8516 Q47.9063,127.5781 47.2813,127.5781 Q45.9375,127.5781 45.25,128.6484 Q44.5625,129.7188 44.5625,131.8125 Q44.5625,133.9063 45.25,134.9766 Q45.9375,136.0469 47.2813,136.0469 Q47.9063,136.0469 48.5,135.7734 Q49.0938,135.5 49.7188,134.9219 L49.7188,137.6406 Z "/><text fill="#000000" font-family="sans-serif" font-size="12" lengthAdjust="spacingAndGlyphs" textLength="165" x="60.75" y="136.1543">HistoryDatasetAssociation</text><path d="M32.75,148 L32.75,147.1893 L42.5,147.3857 L52.25,148.3181 L62,147.5533 L71.75,148.0194 L81.5,147.5988 L91.25,147.567 L101,147.1601 L110.75,148.9027 L120.5,147.5466 L130.25,148.2824 L140,147.0571 L149.75,148.455 L159.5,147.0128 L169.25,148.3039 L179,148.4977 L188.75,148.4149 L198.5,148.1765 L208.25,147.4847 L218,147.9709 L227.75,148 " fill="#FFEFD5" style="stroke: #FF8C00; stroke-width: 1.5;"/><text fill="#000000" font-family="sans-serif" font-size="11" lengthAdjust="spacingAndGlyphs" textLength="183" x="37.75" y="162.2104">history_content_type = 'dataset'</text><text fill="#000000" font-family="sans-serif" font-size="11" lengthAdjust="spacingAndGlyphs" textLength="17" x="37.75" y="175.0151">hid</text><path d="M32.75,181.6094 L32.75,182.4998 L42.5,181.7904 L52.25,181.2711 L62,181.0246 L71.75,182.6042 L81.5,181.3378 L91.25,181.9365 L101,180.7995 L110.75,181.3627 L120.5,182.5398 L130.25,181.2492 L140,181.6111 L149.75,181.6465 L159.5,180.9274 L169.25,182.3691 L179,182.4833 L188.75,182.1988 L198.5,182.127 L208.25,180.8726 L218,181.6846 L227.75,181.6094 " fill="#FFEFD5" style="stroke: #FF8C00; stroke-width: 1.5;"/><polygon fill="#FFEFD5" filter="url(#f1)" points="235,250,235,249.9688,244.9231,249.7353,254.8462,250.4629,264.7692,250.5117,274.6923,249.5019,284.6154,250.727,294.5385,249.5076,304.4615,250.1173,314.3846,250.693,324.3077,250.5683,334.2308,249.6973,344.1538,249.9644,354.0769,250.3856,364,249.7661,373.9231,250.3043,383.8462,250.565,393.7692,249.5936,403.6923,250.273,413.6154,249.8532,423.5385,249.5762,433.4615,250.111,443.3846,250.6135,453.3077,250.348,463.2308,249.4943,473.1538,250.3716,483.0769,249.9989,493,250,492.4789,250,492.776,260.5156,493.5323,271.0313,493.2699,281.5469,493.618,292.0625,492.8452,302.5781,492.943,313.0938,493,323.6094,493,323.3994,483.0769,324.0583,473.1538,324.2443,463.2308,324.2853,453.3077,323.2571,443.3846,323.3032,433.4615,324.3296,423.5385,323.7441,413.6154,323.3263,403.6923,323.2005,393.7692,323.3085,383.8462,324.039,373.9231,323.8768,364,323.6624,354.0769,323.3952,344.1538,324.3154,334.2308,323.5247,324.3077,322.8901,314.3846,323.2015,304.4615,324.0489,294.5385,324.3572,284.6154,324.1513,274.6923,323.8944,264.7692,323.9745,254.8462,324.0751,244.9231,323.4331,235,323.6094,235.725,323.6094,235.6926,313.0938,234.8373,302.5781,235.6575,292.0625,234.3108,281.5469,235.5689,271.0313,235.1683,260.5156,235,250" style="stroke: #FF8C00; stroke-width: 1.5;"/><polygon fill="#ADD1B2" points="260.2734,268.0274,259.5202,270.8304,258.3584,273.6823,256.2394,274.6154,254.4975,276.4071,251.933,276.3371,249.8745,277.1306,247.0349,276.2785,243.8277,274.89,241.3272,273.6763,240.1634,270.2587,238.7084,267.8538,239.3935,265.2304,240.0206,262.0237,241.248,260.4111,242.1674,257.3772,245.8778,256.2111,248.1203,255.0358,251.9886,254.5311,254.259,256.1159,256.3758,256.9004,258.7793,258.3205,259.6761,260.1888,260.3554,262.6722,261.1435,266.1788" style="stroke: #FF8C00; stroke-width: 1.0;"/><path d="M252.9688,271.6406 Q252.3906,271.9375 251.75,272.0859 Q251.1094,272.2344 250.4063,272.2344 Q247.9063,272.2344 246.5859,270.5859 Q245.2656,268.9375 245.2656,265.8125 Q245.2656,262.6875 246.5859,261.0313 Q247.9063,259.375 250.4063,259.375 Q251.1094,259.375 251.7578,259.5313 Q252.4063,259.6875 252.9688,259.9844 L252.9688,262.7031 Q252.3438,262.125 251.75,261.8516 Q251.1563,261.5781 250.5313,261.5781 Q249.1875,261.5781 248.5,262.6484 Q247.8125,263.7188 247.8125,265.8125 Q247.8125,267.9063 248.5,268.9766 Q249.1875,270.0469 250.5313,270.0469 Q251.1563,270.0469 251.75,269.7734 Q252.3438,269.5 252.9688,268.9219 L252.9688,271.6406 Z "/><text fill="#000000" font-family="sans-serif" font-size="12" lengthAdjust="spacingAndGlyphs" textLength="226" x="264" y="270.1543">HistoryDatasetCollectionAssociation</text><path d="M236,282 L236,281.7986 L245.8462,282.5183 L255.6923,281.0831 L265.5385,281.6905 L275.3846,281.9858 L285.2308,282.505 L295.0769,281.65 L304.9231,281.3117 L314.7692,282.2803 L324.6154,281.2426 L334.4615,282.0251 L344.3077,282.9474 L354.1538,282.435 L364,281.5762 L373.8462,281.1715 L383.6923,282.1753 L393.5385,281.952 L403.3846,281.3137 L413.2308,281.3216 L423.0769,281.2267 L432.9231,281.851 L442.7692,281.9694 L452.6154,282.3766 L462.4615,282.1684 L472.3077,282.4732 L482.1538,281.7824 L492,282 " fill="#FFEFD5" style="stroke: #FF8C00; stroke-width: 1.5;"/><text fill="#000000" font-family="sans-serif" font-size="11" lengthAdjust="spacingAndGlyphs" textLength="242" x="241" y="296.2104">history_content_type = 'dataset_collection'</text><text fill="#000000" font-family="sans-serif" font-size="11" lengthAdjust="spacingAndGlyphs" textLength="17" x="241" y="309.0151">hid</text><path d="M236,315.6094 L236,316.1244 L245.8462,316.5348 L255.6923,315.053 L265.5385,314.6635 L275.3846,314.7786 L285.2308,315.3009 L295.0769,316.4514 L304.9231,314.6939 L314.7692,316.5393 L324.6154,316.3322 L334.4615,315.6216 L344.3077,314.7635 L354.1538,316.3904 L364,316.5078 L373.8462,315.8558 L383.6923,314.7176 L393.5385,315.9577 L403.3846,315.3694 L413.2308,315.4404 L423.0769,315.7527 L432.9231,315.1686 L442.7692,315.6142 L452.6154,316.2334 L462.4615,314.9883 L472.3077,315.877 L482.1538,316.2161 L492,315.6094 " fill="#FFEFD5" style="stroke: #FF8C00; stroke-width: 1.5;"/><polygon fill="#FFEFD5" filter="url(#f1)" points="31.75,384.5,31.75,384.8449,41.9643,385.0384,52.1786,384.4917,62.3929,385.161,72.6071,383.9267,82.8214,384.016,93.0357,385.1893,103.25,385.1631,113.4643,384.8988,123.6786,384.5659,133.8929,384.409,144.1071,384.1604,154.3214,383.7923,164.5357,384.7429,174.75,384.5,175.2961,384.5,175.4321,394.6341,174.0557,404.7682,174.247,414.9023,174.8551,425.0365,175.2624,435.1706,174.75,445.3047,174.75,445.5235,164.5357,445.2279,154.3214,445.6019,144.1071,445.4774,133.8929,444.8693,123.6786,444.6592,113.4643,444.6231,103.25,445.8887,93.0357,445.1683,82.8214,444.9962,72.6071,444.7661,62.3929,444.8665,52.1786,445.4955,41.9643,445.483,31.75,445.3047,32.2834,445.3047,31.775,435.1706,32.394,425.0365,31.3525,414.9023,31.1977,404.7682,32.4785,394.6341,31.75,384.5" style="stroke: #FF8C00; stroke-width: 1.5;"/><polygon fill="#ADD1B2" points="57.2397,403.4385,55.7373,406.061,55.0569,408.3221,52.8451,409.0354,49.9133,411.2865,47.3073,411.1554,44.1689,411.3108,41.0288,409.3355,38.6285,408.4188,36.3103,405.5816,36.5027,403.071,35.3298,401.2064,35.8096,398.8621,36.8812,395.2305,38.6615,393.0473,41.1783,390.9968,43.2819,390.2501,46.8814,388.9094,48.9926,390.3659,52.7972,390.9013,54.9297,393.652,56.1943,395.7896,57.4862,398.1886,58.1151,400.2012,56.9379,402.9821" style="stroke: #FF8C00; stroke-width: 1.0;"/><path d="M49.7188,406.1406 Q49.1406,406.4375 48.5,406.5859 Q47.8594,406.7344 47.1563,406.7344 Q44.6563,406.7344 43.3359,405.0859 Q42.0156,403.4375 42.0156,400.3125 Q42.0156,397.1875 43.3359,395.5313 Q44.6563,393.875 47.1563,393.875 Q47.8594,393.875 48.5078,394.0313 Q49.1563,394.1875 49.7188,394.4844 L49.7188,397.2031 Q49.0938,396.625 48.5,396.3516 Q47.9063,396.0781 47.2813,396.0781 Q45.9375,396.0781 45.25,397.1484 Q44.5625,398.2188 44.5625,400.3125 Q44.5625,402.4063 45.25,403.4766 Q45.9375,404.5469 47.2813,404.5469 Q47.9063,404.5469 48.5,404.2734 Q49.0938,404 49.7188,403.4219 L49.7188,406.1406 Z "/><text fill="#000000" font-family="sans-serif" font-size="12" lengthAdjust="spacingAndGlyphs" textLength="111" x="60.75" y="404.6543">DatasetCollection</text><path d="M32.75,416.5 L32.75,417.1957 L42.8214,416.9917 L52.8929,416.1022 L62.9643,416.2845 L73.0357,416.305 L83.1071,415.5652 L93.1786,416.2833 L103.25,416.2508 L113.3214,417.4184 L123.3929,416.4856 L133.4643,416.2552 L143.5357,415.8221 L153.6071,416.3708 L163.6786,416.7772 L173.75,416.5 " fill="#FFEFD5" style="stroke: #FF8C00; stroke-width: 1.5;"/><text fill="#000000" font-family="sans-serif" font-size="11" lengthAdjust="spacingAndGlyphs" textLength="83" x="37.75" y="430.7104">collection_type</text><path d="M32.75,437.3047 L32.75,437.9845 L42.8214,436.6267 L52.8929,437.1788 L62.9643,438.2822 L73.0357,437.2354 L83.1071,437.3351 L93.1786,437.4335 L103.25,437.709 L113.3214,436.9735 L123.3929,437.9038 L133.4643,436.4261 L143.5357,437.023 L153.6071,438.1762 L163.6786,437.8716 L173.75,437.3047 " fill="#FFEFD5" style="stroke: #FF8C00; stroke-width: 1.5;"/><polygon fill="#FFEFD5" filter="url(#f1)" points="6.5,250,6.5,250.1739,16.7105,250.6995,26.9211,250.1759,37.1316,250.3845,47.3421,249.988,57.5526,249.8339,67.7632,250.0443,77.9737,249.9001,88.1842,249.5733,98.3947,249.2815,108.6053,250.2649,118.8158,250.6164,129.0263,250.569,139.2368,250.0928,149.4474,249.956,159.6579,250.1043,169.8684,250.163,180.0789,249.7361,190.2895,249.5297,200.5,250,200.0835,250,201.2211,260.5156,200.4745,271.0313,201.1402,281.5469,200.0054,292.0625,199.9601,302.5781,200.0065,313.0938,200.5,323.6094,200.5,323.0858,190.2895,323.1022,180.0789,322.8912,169.8684,323.2407,159.6579,323.5623,149.4474,323.6987,139.2368,323.5807,129.0263,322.9303,118.8158,323.279,108.6053,323.2871,98.3947,323.2345,88.1842,323.01,77.9737,324.2558,67.7632,323.3992,57.5526,323.5248,47.3421,323.6788,37.1316,323.4177,26.9211,322.956,16.7105,324.2257,6.5,323.6094,6.2171,323.6094,6.9903,313.0938,7.1321,302.5781,7.2121,292.0625,6.9298,281.5469,6.8563,271.0313,7.0283,260.5156,6.5,250" style="stroke: #FF8C00; stroke-width: 1.5;"/><polygon fill="#ADD1B2" points="32.1476,269.6838,29.7738,272.2127,28.9619,274.9733,25.9254,275.9245,23.575,276.9743,21.021,277.6712,18.9985,276.2721,16.8691,275.6992,14.0023,274.1845,12.7073,272.4173,10.5988,269.6907,9.9076,267.3262,11.0486,263.93,11.8467,261.2407,12.812,258.2386,15.1634,256.529,18.4899,255.671,21.7179,255.1785,23.6326,255.6888,25.5762,255.8668,28.4403,257.6704,30.4307,259.3684,32.002,261.5775,32.9814,263.9989,32.0146,266.2021" style="stroke: #FF8C00; stroke-width: 1.0;"/><path d="M24.4688,271.6406 Q23.8906,271.9375 23.25,272.0859 Q22.6094,272.2344 21.9063,272.2344 Q19.4063,272.2344 18.0859,270.5859 Q16.7656,268.9375 16.7656,265.8125 Q16.7656,262.6875 18.0859,261.0313 Q19.4063,259.375 21.9063,259.375 Q22.6094,259.375 23.2578,259.5313 Q23.9063,259.6875 24.4688,259.9844 L24.4688,262.7031 Q23.8438,262.125 23.25,261.8516 Q22.6563,261.5781 22.0313,261.5781 Q20.6875,261.5781 20,262.6484 Q19.3125,263.7188 19.3125,265.8125 Q19.3125,267.9063 20,268.9766 Q20.6875,270.0469 22.0313,270.0469 Q22.6563,270.0469 23.25,269.7734 Q23.8438,269.5 24.4688,268.9219 L24.4688,271.6406 Z "/><text fill="#000000" font-family="sans-serif" font-size="12" lengthAdjust="spacingAndGlyphs" textLength="162" x="35.5" y="270.1543">DatasetCollectionElement</text><path d="M7.5,282 L7.5,281.9986 L17.6053,281.4814 L27.7105,281.8981 L37.8158,281.2602 L47.9211,282.3151 L58.0263,282.1318 L68.1316,281.0822 L78.2368,281.1953 L88.3421,281.8183 L98.4474,282.4217 L108.5526,281.2901 L118.6579,282.9254 L128.7632,282.4091 L138.8684,281.9581 L148.9737,282.8319 L159.0789,282.2959 L169.1842,282.2978 L179.2895,281.1516 L189.3947,281.1454 L199.5,282 " fill="#FFEFD5" style="stroke: #FF8C00; stroke-width: 1.5;"/><text fill="#000000" font-family="sans-serif" font-size="11" lengthAdjust="spacingAndGlyphs" textLength="82" x="12.5" y="296.2104">element_index</text><text fill="#000000" font-family="sans-serif" font-size="11" lengthAdjust="spacingAndGlyphs" textLength="102" x="12.5" y="309.0151">element_identifier</text><path d="M7.5,315.6094 L7.5,314.8665 L17.6053,315.395 L27.7105,315.6111 L37.8158,316.206 L47.9211,315.9773 L58.0263,315.6835 L68.1316,315.0902 L78.2368,315.4909 L88.3421,316.3206 L98.4474,315.0719 L108.5526,316.6008 L118.6579,314.9146 L128.7632,314.6802 L138.8684,315.59 L148.9737,315.9644 L159.0789,315.9752 L169.1842,315.0302 L179.2895,316.2344 L189.3947,315.3193 L199.5,315.6094 " fill="#FFEFD5" style="stroke: #FF8C00; stroke-width: 1.5;"/><path d="M212.896,56.227 L212.6412,56.0065 L206.3976,63.609 L200.7264,71.707 L193.2505,78.2428 L187.2881,86.0888 L180.4567,93.1825 L174.731,101.2333 L167.8147,108.2535 L161.407,115.714 " fill="none" style="stroke: #FFA500; stroke-width: 1.0;"/><text fill="#FF8C00" font-family="sans-serif" font-size="13" lengthAdjust="spacingAndGlyphs" textLength="8" x="197.716" y="76.0435">1</text><text fill="#FF8C00" font-family="sans-serif" font-size="13" lengthAdjust="spacingAndGlyphs" textLength="7" x="157.4889" y="104.81">*</text><path d="M245.089,56.348 L244.609,56.0995 L249.1847,64.9051 L253.6284,73.6424 L259.4082,83.0715 L263.374,91.5613 L267.9172,100.3501 L272.4976,109.1582 L277.8123,118.3465 L280.8227,126.3416 L286.4144,135.6733 L290.2399,144.0905 L295.9415,153.4791 L300.4554,162.2527 L304.7691,170.9227 L309.5787,179.8495 L313.2426,188.1829 L318.0526,197.1099 L323.0711,206.1448 L326.7809,214.5021 L331.9274,223.6033 L336.1743,232.2386 L340.8126,241.0767 L345.266,249.819 " fill="none" style="stroke: #FFA500; stroke-width: 1.0;"/><text fill="#FF8C00" font-family="sans-serif" font-size="13" lengthAdjust="spacingAndGlyphs" textLength="8" x="237.756" y="76.194">1</text><text fill="#FF8C00" font-family="sans-serif" font-size="13" lengthAdjust="spacingAndGlyphs" textLength="7" x="333.7083" y="238.9311">*</text><path d="M289.208,324.107 L289.2,324.0905 L280.5366,328.9558 L271.188,332.402 L262.2174,336.631 L253.3645,341.104 L244.6717,345.9085 L235.7526,350.2441 L226.5509,353.9945 L217.5973,358.2588 L208.4751,362.1739 L199.8016,367.0185 L190.8067,371.1971 L181.7083,375.1615 L172.9167,379.7613 L164.176,384.4667 " fill="none" style="stroke: #FFA500; stroke-width: 1.0;"/><text fill="#FF8C00" font-family="sans-serif" font-size="13" lengthAdjust="spacingAndGlyphs" textLength="8" x="266.9925" y="343.6053">1</text><text fill="#FF8C00" font-family="sans-serif" font-size="13" lengthAdjust="spacingAndGlyphs" textLength="8" x="165.4874" y="373.3671">1</text><path d="M114.665,384.2607 L114.4248,384.2393 L114.5947,381.3682 L115.4013,378.5539 L115.3977,375.6673 L115.8253,372.8192 L115.942,369.9434 L115.9129,369.9423 L116.1513,366.8733 L116.1103,363.7944 L116.1588,360.7186 L116.6768,357.6593 L116.4805,354.575 L116.6136,354.5767 L116.4387,351.4622 L116.2753,348.3478 L116.6844,345.2408 L116.3847,342.1247 L116.2802,339.0111 L116.2568,339.0096 L115.836,336.0141 L116.1334,333.0639 L115.7048,330.0679 L115.7264,327.1003 L115.341,324.107 " fill="none" style="stroke: #FFA500; stroke-width: 1.0;"/><text fill="#FF8C00" font-family="sans-serif" font-size="13" lengthAdjust="spacingAndGlyphs" textLength="8" x="106.8078" y="373.3673">1</text><text fill="#FF8C00" font-family="sans-serif" font-size="13" lengthAdjust="spacingAndGlyphs" textLength="24" x="90.1494" y="343.6053">0..1</text><path d="M91.3443,324.107 L91.4686,324.1144 L91.1609,327.0875 L91.1139,330.076 L90.8095,333.0493 L90.4536,336.0195 L90.4574,339.0111 L90.1783,339.0077 L90.504,342.1249 L90.2919,345.2356 L90.5593,348.3521 L90.092,351.4596 L90.2683,354.575 L90.0893,354.5691 L90.1356,357.6409 L90.5262,360.7242 L90.6636,363.799 L90.4528,366.8623 L90.7768,369.9434 L91.0216,369.964 L90.7845,372.7872 L91.2922,375.6731 L91.3352,378.5198 L91.7409,381.3972 L91.9829,384.2607 " fill="none" style="stroke: #FFA500; stroke-width: 1.0;"/><text fill="#FF8C00" font-family="sans-serif" font-size="13" lengthAdjust="spacingAndGlyphs" textLength="7" x="80.5857" y="343.6053">*</text><text fill="#FF8C00" font-family="sans-serif" font-size="13" lengthAdjust="spacingAndGlyphs" textLength="8" x="80.0853" y="373.3673">1</text><path d="M122.622,190.07 L122.322,190.0086 L120.8488,200.109 L119.243,210.1823 L117.2021,220.1665 L114.094,229.9325 L112.8594,240.0817 L110.369,249.974 " fill="none" style="stroke: #FFA500; stroke-width: 1.0;"/><text fill="#FF8C00" font-family="sans-serif" font-size="13" lengthAdjust="spacingAndGlyphs" textLength="8" x="111.5305" y="209.5621">1</text><text fill="#FF8C00" font-family="sans-serif" font-size="13" lengthAdjust="spacingAndGlyphs" textLength="24" x="84.3918" y="238.8269">0..1</text></g></svg>