<?xml version="1.0" encoding="UTF-8" standalone="yes"?><svg xmlns="http://www.w3.org/2000/svg" xmlns:xlink="http://www.w3.org/1999/xlink" height="142px" style="width:401px;height:142px;" version="1.1" viewBox="0 0 401 142" width="401px"><defs><filter height="300%" id="f1" width="300%" x="-1" y="-1"><feGaussianBlur result="blurOut" stdDeviation="2.0"/><feColorMatrix in="blurOut" result="blurOut2" type="matrix" values="0 0 0 0 0 0 0 0 0 0 0 0 0 0 0 0 0 0 .4 0"/><feOffset dx="4.0" dy="4.0" in="blurOut2" result="blurOut3"/><feBlend in="SourceGraphic" in2="blurOut3" mode="normal"/></filter></defs><g><polygon fill="#FFEFD5" filter="url(#f1)" points="6,8.5,6,8.13,15.85,8.1621,25.7,8.2895,35.55,9.2078,45.4,9.0319,55.25,8.2215,65.1,8.8374,74.95,8.3259,84.8,8.6045,94.65,8.8325,104.5,8.2725,114.35,8.3626,124.2,9.1187,134.05,9.1982,143.9,9.0839,153.75,8.8878,163.6,8.0829,173.45,9.1749,183.3,9.143,193.15,8.1139,203,8.5,203.2314,8.5,202.4085,18.9023,203.2078,29.3047,202.5648,39.707,203.5934,50.1094,202.9073,60.5117,202.7295,70.9141,203.0089,81.3164,202.2838,91.7188,203.0532,102.1211,202.9212,112.5234,202.8489,122.9258,203,133.3281,203,133.2563,193.15,133.2977,183.3,133.9789,173.45,133.0442,163.6,133.0119,153.75,132.8089,143.9,133.6594,134.05,133.5399,124.2,133.4495,114.35,133.4301,104.5,133.44,94.65,133.404,84.8,132.6429,74.95,133.4173,65.1,132.6477,55.25,132.8671,45.4,133.6449,35.55,133.3962,25.7,132.5864,15.85,133.5616,6,133.3281,6.3143,133.3281,6.6326,122.9258,6.6531,112.5234,6.2949,102.1211,6.6213,91.7188,5.572,81.3164,5.7155,70.9141,5.6858,60.5117,6.3075,50.1094,5.5424,39.707,6.5153,29.3047,5.3142,18.9023,6,8.5" style="stroke: #FF8C00; stroke-width: 1.5;"/><polygon fill="#ADD1B2" points="31.0305,27.6117,29.8498,30.726,27.4238,33.4286,23.9521,34.8726,22.0266,34.9109,18.7866,35.1295,15.5338,34.4395,13.7693,31.8943,11.1333,29.3014,9.8748,26.8215,9.8119,23.5987,10.5489,21.7694,11.1322,18.8449,13.5684,17.3071,15.0681,15.1771,17.7955,14.1633,20.6784,13.407,23.0591,13.9435,26.6149,14.9446,29.3653,17.0858,30.9752,19.968,31.7934,22.6601,32.5389,26.2401" style="stroke: #FF8C00; stroke-width: 1.0;"/><path d="M23.9688,30.1406 Q23.3906,30.4375 22.75,30.5859 Q22.1094,30.7344 21.4063,30.7344 Q18.9063,30.7344 17.5859,29.0859 Q16.2656,27.4375 16.2656,24.3125 Q16.2656,21.1875 17.5859,19.5313 Q18.9063,17.875 21.4063,17.875 Q22.1094,17.875 22.7578,18.0313 Q23.4063,18.1875 23.9688,18.4844 L23.9688,21.2031 Q23.3438,20.625 22.75,20.3516 Q22.1563,20.0781 21.5313,20.0781 Q20.1875,20.0781 19.5,21.1484 Q18.8125,22.2188 18.8125,24.3125 Q18.8125,26.4063 19.5,27.4766 Q20.1875,28.5469 21.5313,28.5469 Q22.1563,28.5469 22.75,28.2734 Q23.3438,28 23.9688,27.4219 L23.9688,30.1406 Z "/><text fill="#000000" font-family="sans-serif" font-size="12" lengthAdjust="spacingAndGlyphs" textLength="165" x="35" y="28.6543">HistoryDatasetAssociation</text><path d="M7,40.5 L7,40.1973 L16.75,40.7399 L26.5,41.3805 L36.25,40.2474 L46,39.5109 L55.75,39.9785 L65.5,41.2369 L75.25,40.6361 L85,39.8202 L94.75,40.6054 L104.5,41.4897 L114.25,40.9059 L124,40.551 L133.75,39.7089 L143.5,40.1652 L153.25,41.0148 L163,40.9676 L172.75,40.2633 L182.5,39.8127 L192.25,39.8354 L202,40.5 " fill="#FFEFD5" style="stroke: #FF8C00; stroke-width: 1.5;"/><text fill="#000000" font-family="sans-serif" font-size="11" lengthAdjust="spacingAndGlyphs" textLength="65" x="12" y="54.7104">hid: integer</text><text fill="#000000" font-family="sans-serif" font-size="11" lengthAdjust="spacingAndGlyphs" textLength="103" x="12" y="67.5151">history_id: integer</text><text fill="#000000" font-family="sans-serif" font-size="11" lengthAdjust="spacingAndGlyphs" textLength="107" x="12" y="80.3198">dataset_id: integer</text><text fill="#000000" font-family="sans-serif" font-size="11" lengthAdjust="spacingAndGlyphs" textLength="70" x="12" y="93.1245">state: string</text><text fill="#000000" font-family="sans-serif" font-size="11" lengthAdjust="spacingAndGlyphs" textLength="73" x="12" y="105.9292">name: string</text><text fill="#000000" font-family="sans-serif" font-size="11" lengthAdjust="spacingAndGlyphs" textLength="62" x="12" y="118.7339">info: string</text><path d="M7,125.3281 L7,125.8636 L16.75,126.1633 L26.5,125.2618 L36.25,126.126 L46,124.3552 L55.75,125.3201 L65.5,124.7684 L75.25,124.3498 L85,126.3252 L94.75,125.9609 L104.5,124.7342 L114.25,125.7393 L124,124.7793 L133.75,126.0943 L143.5,125.4892 L153.25,125.1642 L163,124.7382 L172.75,125.0791 L182.5,124.5847 L192.25,125.6802 L202,125.3281 " fill="#FFEFD5" style="stroke: #FF8C00; stroke-width: 1.5;"/><polygon fill="#FFEFD5" filter="url(#f1)" points="238.25,15,238.25,15.4803,248.5167,14.7688,258.7833,15.7418,269.05,14.5789,279.3167,15.059,289.5833,15.4095,299.85,15.0148,310.1167,14.5791,320.3833,15.3151,330.65,15.417,340.9167,14.3737,351.1833,14.8392,361.45,14.6042,371.7167,15.2647,381.9833,15.1182,392.25,15,392.0077,15,392.0205,25.1839,392.2612,35.3679,392.6927,45.5518,392.356,55.7358,392.8834,65.9197,391.8525,76.1037,392.5142,86.2876,392.1668,96.4716,392.8968,106.6555,392.2069,116.8395,392.25,127.0234,392.25,127.5165,381.9833,127.0162,371.7167,127.7527,361.45,126.7451,351.1833,127.2015,340.9167,127.219,330.65,127.4664,320.3833,127.3728,310.1167,127.3494,299.85,126.4614,289.5833,126.9107,279.3167,127.5664,269.05,126.8572,258.7833,126.9827,248.5167,127.4079,238.25,127.0234,238.4045,127.0234,237.6266,116.8395,238.7638,106.6555,238.0047,96.4716,237.5553,86.2876,237.5086,76.1037,237.7867,65.9197,238.9679,55.7358,238.0656,45.5518,237.9236,35.3679,238.9329,25.1839,238.25,15" style="stroke: #FF8C00; stroke-width: 1.5;"/><polygon fill="#ADD1B2" points="296.8324,32.955,295.3869,36.0876,294.2192,38.4135,291.8606,40.3885,288.2355,41.1229,284.6866,42.4402,281.7766,41.4233,279.3585,39.4303,277.864,37.3823,275.4052,35.5171,275.5354,33.0359,275.0418,30.6162,275.2303,28.6303,275.4498,26.1443,277.6504,22.9449,280.094,22.4547,281.6488,20.9522,283.7104,20.0262,286.561,19.9066,289.0405,20.2226,291.208,21.2646,294.4756,23.2434,295.7337,25.8083,297.4447,28.8933,297.3605,32.4525" style="stroke: #FF8C00; stroke-width: 1.0;"/><path d="M288.9688,36.6406 Q288.3906,36.9375 287.75,37.0859 Q287.1094,37.2344 286.4063,37.2344 Q283.9063,37.2344 282.5859,35.5859 Q281.2656,33.9375 281.2656,30.8125 Q281.2656,27.6875 282.5859,26.0313 Q283.9063,24.375 286.4063,24.375 Q287.1094,24.375 287.7578,24.5313 Q288.4063,24.6875 288.9688,24.9844 L288.9688,27.7031 Q288.3438,27.125 287.75,26.8516 Q287.1563,26.5781 286.5313,26.5781 Q285.1875,26.5781 284.5,27.6484 Q283.8125,28.7188 283.8125,30.8125 Q283.8125,32.9063 284.5,33.9766 Q285.1875,35.0469 286.5313,35.0469 Q287.1563,35.0469 287.75,34.7734 Q288.3438,34.5 288.9688,33.9219 L288.9688,36.6406 Z "/><text fill="#000000" font-family="sans-serif" font-size="12" lengthAdjust="spacingAndGlyphs" textLength="50" x="306.5" y="35.1543">Dataset</text><path d="M239.25,47 L239.25,46.6436 L249.3833,46.0274 L259.5167,46.7219 L269.65,47.5097 L279.7833,46.7292 L289.9167,46.6351 L300.05,47.6761 L310.1833,46.5602 L320.3167,46.2536 L330.45,47.2511 L340.5833,46.8628 L350.7167,47.4873 L360.85,46.0852 L370.9833,47.2857 L381.1167,47.4127 L391.25,47 " fill="#FFEFD5" style="stroke: #FF8C00; stroke-width: 1.5;"/><text fill="#000000" font-family="sans-serif" font-size="11" lengthAdjust="spacingAndGlyphs" textLength="127" x="244.25" y="61.2104">object_store_id: string</text><text fill="#000000" font-family="sans-serif" font-size="11" lengthAdjust="spacingAndGlyphs" textLength="142" x="244.25" y="74.0151">external_filename: string</text><text fill="#000000" font-family="sans-serif" font-size="11" lengthAdjust="spacingAndGlyphs" textLength="137" x="244.25" y="86.8198">_extra_files_path: string</text><text fill="#000000" font-family="sans-serif" font-size="11" lengthAdjust="spacingAndGlyphs" textLength="93" x="244.25" y="99.6245">file_size: integer</text><text fill="#000000" font-family="sans-serif" font-size="11" lengthAdjust="spacingAndGlyphs" textLength="101" x="244.25" y="112.4292">total_size: integer</text><path d="M239.25,119.0234 L239.25,119.2702 L249.3833,118.7101 L259.5167,119.9143 L269.65,118.4586 L279.7833,118.9239 L289.9167,118.975 L300.05,118.9789 L310.1833,119.4122 L320.3167,118.0652 L330.45,119.8619 L340.5833,118.5769 L350.7167,119.9142 L360.85,119.9058 L370.9833,118.7022 L381.1167,119.5319 L391.25,119.0234 " fill="#FFEFD5" style="stroke: #FF8C00; stroke-width: 1.5;"/><path d="M202.744,71 L202.744,71.0594 L208.7318,70.9148 L214.7196,71.1278 L220.7074,70.8159 L226.6952,70.9603 L232.683,71 " fill="none" style="stroke: #FFA500; stroke-width: 1.0;"/><polygon fill="#FFA500" points="237.902,71,237.8265,70.8302,236.0829,70.1569,234.263,69.3124,232.4911,68.5754,230.7318,67.8671,228.902,67,228.7756,66.8736,229.6673,67.7653,230.4929,68.5909,231.4119,69.5099,232.2177,70.3157,232.902,71,232.9037,71.0017,231.9294,71.6274,231.1847,72.4827,230.5739,73.4719,229.6897,74.1877,228.902,75,228.9889,75.1956,230.7499,74.3078,232.4114,73.1961,234.2009,72.3725,236.1815,71.9788,237.902,71" style="stroke: #FFA500; stroke-width: 1.0;"/><text fill="#FFEFD5" font-family="sans-serif" font-size="13" lengthAdjust="spacingAndGlyphs" textLength="7" x="210.8517" y="66.4017">*</text><text fill="#FFEFD5" font-family="sans-serif" font-size="13" lengthAdjust="spacingAndGlyphs" textLength="8" x="222.3399" y="66.3939">1</text></g></svg>