<?xml version="1.0" standalone="yes"?>

<svg version="1.1" viewBox="0.0 0.0 960.0 540.0" fill="none" stroke="none" stroke-linecap="square" stroke-miterlimit="10" xmlns="http://www.w3.org/2000/svg" xmlns:xlink="http://www.w3.org/1999/xlink"><clipPath id="ga2f5d01c8_1_103.0"><path d="m0 0l960.0 0l0 540.0l-960.0 0l0 -540.0z" clip-rule="nonzero"></path></clipPath><g clip-path="url(#ga2f5d01c8_1_103.0)"><path fill="#000000" d="m0 0l960.0 0l0 540.0l-960.0 0z" fill-rule="nonzero"></path><path fill="#000000" fill-opacity="0.0" d="m372.0 332.09796l0 0c0 -7.4563293 6.044525 -13.5008545 13.500824 -13.5008545l188.99832 0c3.5806885 0 7.0146484 1.4224243 9.54657 3.9543152c2.5318604 2.5318909 3.9542847 5.9658813 3.9542847 9.546539l0 19.801453l0 0c0 7.4563293 -6.0445557 13.5008545 -13.5008545 13.5008545l-188.99832 0l0 0c-7.456299 0 -13.500824 -6.044525 -13.500824 -13.5008545z" fill-rule="nonzero"></path><path stroke="#ffffff" stroke-width="2.6666666666666665" stroke-miterlimit="8.0" stroke-linecap="butt" d="m372.0 332.09796l0 0c0 -7.4563293 6.044525 -13.5008545 13.500824 -13.5008545l188.99832 0c3.5806885 0 7.0146484 1.4224243 9.54657 3.9543152c2.5318604 2.5318909 3.9542847 5.9658813 3.9542847 9.546539l0 19.801453l0 0c0 7.4563293 -6.0445557 13.5008545 -13.5008545 13.5008545l-188.99832 0l0 0c-7.456299 0 -13.500824 -6.044525 -13.500824 -13.5008545z" fill-rule="nonzero"></path><path fill="#ffffff" d="m413.69818 351.3187l-10.34375 0l0 -17.5l2.078125 0l0 15.65625l8.265625 0l0 1.84375zm2.9696655 -12.5l2.0 0l0 12.5l-2.0 0l0 -12.5zm-0.421875 -3.796875q0 -0.578125 0.390625 -0.984375q0.390625 -0.421875 0.984375 -0.421875q0.609375 0 1.03125 0.421875q0.421875 0.40625 0.421875 0.984375q0 0.578125 -0.421875 0.953125q-0.421875 0.375 -1.03125 0.375q-0.59375 0 -0.984375 -0.375q-0.390625 -0.375 -0.390625 -0.953125zm6.7879333 -1.203125l2.0 0l0 6.21875l0.109375 0q0.5625 -0.71875 1.453125 -1.109375q0.890625 -0.40625 1.9375 -0.40625q2.421875 0 3.640625 1.546875q1.21875 1.546875 1.21875 4.796875q0 3.28125 -1.609375 4.984375q-1.59375 1.6875 -4.5 1.6875q-1.390625 0 -2.53125 -0.296875q-1.140625 -0.296875 -1.71875 -0.640625l0 -16.78125zm5.15625 6.453125q-1.25 0 -2.03125 0.703125q-0.765625 0.6875 -1.125 1.96875l0 6.296875q0.484375 0.28125 1.15625 0.421875q0.671875 0.125 1.390625 0.125q1.703125 0 2.71875 -1.1875q1.015625 -1.203125 1.015625 -3.75q0 -0.984375 -0.1875 -1.828125q-0.171875 -0.859375 -0.546875 -1.453125q-0.375 -0.59375 -0.96875 -0.9375q-0.578125 -0.359375 -1.421875 -0.359375zm14.427216 0.46875q-0.75 -0.25 -1.421875 -0.25q-1.078125 0 -1.703125 0.59375q-0.625 0.578125 -0.78125 1.484375l0 8.75l-2.0 0l0 -12.5l1.40625 0l0.375 1.53125l0.09375 0q0.484375 -0.859375 1.140625 -1.3125q0.65625 -0.46875 1.6875 -0.46875q0.71875 0 1.625 0.25l-0.421875 1.921875zm2.5021973 -1.0q0.953125 -0.578125 2.21875 -0.84375q1.265625 -0.28125 2.640625 -0.28125q1.296875 0 2.078125 0.359375q0.796875 0.34375 1.203125 0.90625q0.421875 0.5625 0.546875 1.234375q0.140625 0.671875 0.140625 1.359375q0 1.5 -0.078125 2.921875q-0.0625 1.421875 -0.0625 2.703125q0 0.921875 0.0625 1.75q0.078125 0.8125 0.28125 1.515625l-1.46875 0l-0.53125 -1.75l-0.125 0q-0.21875 0.359375 -0.5625 0.703125q-0.34375 0.328125 -0.8125 0.59375q-0.46875 0.25 -1.09375 0.421875q-0.625 0.1875 -1.4375 0.1875q-0.796875 0 -1.484375 -0.25q-0.6875 -0.25 -1.1875 -0.703125q-0.5 -0.46875 -0.796875 -1.125q-0.28125 -0.65625 -0.28125 -1.46875q0 -1.109375 0.453125 -1.84375q0.453125 -0.734375 1.265625 -1.171875q0.8125 -0.4375 1.953125 -0.625q1.140625 -0.1875 2.515625 -0.1875q0.34375 0 0.671875 0q0.34375 0 0.703125 0.046875q0.0625 -0.75 0.0625 -1.34375q0 -1.375 -0.546875 -1.921875q-0.546875 -0.5625 -2.0 -0.5625q-0.421875 0 -0.90625 0.0625q-0.484375 0.0625 -1.0 0.1875q-0.515625 0.109375 -0.984375 0.265625q-0.453125 0.15625 -0.8125 0.359375l-0.625 -1.5zm3.5625 10.03125q0.6875 0 1.234375 -0.1875q0.5625 -0.1875 0.953125 -0.46875q0.40625 -0.296875 0.671875 -0.640625q0.265625 -0.359375 0.390625 -0.6875l0 -2.0625q-0.359375 -0.03125 -0.71875 -0.046875q-0.359375 -0.015625 -0.71875 -0.015625q-0.765625 0 -1.515625 0.09375q-0.734375 0.09375 -1.296875 0.328125q-0.5625 0.234375 -0.90625 0.65625q-0.328125 0.40625 -0.328125 1.03125q0 0.875 0.625 1.4375q0.625 0.5625 1.609375 0.5625zm15.10965 -9.03125q-0.75 -0.25 -1.421875 -0.25q-1.078125 0 -1.703125 0.59375q-0.625 0.578125 -0.78125 1.484375l0 8.75l-2.0 0l0 -12.5l1.40625 0l0.375 1.53125l0.09375 0q0.484375 -0.859375 1.140625 -1.3125q0.65625 -0.46875 1.6875 -0.46875q0.71875 0 1.625 0.25l-0.421875 1.921875zm6.3771973 6.171875l0.703125 2.40625l0.125 0l0.546875 -2.421875l2.4375 -8.078125l2.015625 0l-3.703125 11.21875q-0.421875 1.234375 -0.84375 2.375q-0.40625 1.15625 -0.90625 2.046875q-0.5 0.90625 -1.125 1.4375q-0.625 0.546875 -1.4375 0.546875q-0.90625 0 -1.484375 -0.25l0.359375 -1.71875q0.3125 0.125 0.625 0.125q0.6875 0 1.34375 -0.75q0.65625 -0.734375 1.078125 -2.53125l-5.03125 -12.5l2.296875 0l3.0 8.09375zm8.3341675 -13.09375q0.46875 -0.078125 1.0625 -0.109375q0.59375 -0.046875 1.21875 -0.046875q0.640625 -0.015625 1.25 -0.03125q0.625 -0.015625 1.140625 -0.015625q2.109375 0 3.640625 0.65625q1.53125 0.640625 2.53125 1.8125q1.0 1.15625 1.484375 2.78125q0.5 1.625 0.5 3.578125q0 1.78125 -0.46875 3.421875q-0.453125 1.625 -1.453125 2.890625q-1.0 1.265625 -2.609375 2.03125q-1.59375 0.75 -3.875 0.75q-0.390625 0 -1.03125 -0.015625q-0.640625 0 -1.3125 -0.046875q-0.671875 -0.03125 -1.25 -0.0625q-0.578125 -0.015625 -0.828125 -0.0625l0 -17.53125zm4.71875 1.65625q-0.3125 0 -0.703125 0q-0.390625 0 -0.765625 0.03125q-0.375 0.015625 -0.6875 0.046875q-0.3125 0.015625 -0.484375 0.046875l0 14.0q0.125 0.015625 0.46875 0.03125q0.359375 0.015625 0.734375 0.03125q0.375 0 0.71875 0.015625q0.34375 0.015625 0.46875 0.015625q1.75 0 2.9375 -0.59375q1.1875 -0.609375 1.90625 -1.609375q0.71875 -1.015625 1.015625 -2.328125q0.296875 -1.3125 0.296875 -2.71875q0 -1.21875 -0.28125 -2.453125q-0.265625 -1.25 -0.953125 -2.25q-0.671875 -1.0 -1.8125 -1.625q-1.125 -0.640625 -2.859375 -0.640625zm11.439606 4.265625q0.953125 -0.578125 2.21875 -0.84375q1.265625 -0.28125 2.640625 -0.28125q1.296875 0 2.078125 0.359375q0.796875 0.34375 1.203125 0.90625q0.421875 0.5625 0.546875 1.234375q0.140625 0.671875 0.140625 1.359375q0 1.5 -0.078125 2.921875q-0.0625 1.421875 -0.0625 2.703125q0 0.921875 0.0625 1.75q0.078125 0.8125 0.28125 1.515625l-1.46875 0l-0.53125 -1.75l-0.125 0q-0.21875 0.359375 -0.5625 0.703125q-0.34375 0.328125 -0.8125 0.59375q-0.46875 0.25 -1.09375 0.421875q-0.625 0.1875 -1.4375 0.1875q-0.796875 0 -1.484375 -0.25q-0.6875 -0.25 -1.1875 -0.703125q-0.5 -0.46875 -0.796875 -1.125q-0.28125 -0.65625 -0.28125 -1.46875q0 -1.109375 0.453125 -1.84375q0.453125 -0.734375 1.265625 -1.171875q0.8125 -0.4375 1.953125 -0.625q1.140625 -0.1875 2.515625 -0.1875q0.34375 0 0.671875 0q0.34375 0 0.703125 0.046875q0.0625 -0.75 0.0625 -1.34375q0 -1.375 -0.546875 -1.921875q-0.546875 -0.5625 -2.0 -0.5625q-0.421875 0 -0.90625 0.0625q-0.484375 0.0625 -1.0 0.1875q-0.515625 0.109375 -0.984375 0.265625q-0.453125 0.15625 -0.8125 0.359375l-0.625 -1.5zm3.5625 10.03125q0.6875 0 1.234375 -0.1875q0.5625 -0.1875 0.953125 -0.46875q0.40625 -0.296875 0.671875 -0.640625q0.265625 -0.359375 0.390625 -0.6875l0 -2.0625q-0.359375 -0.03125 -0.71875 -0.046875q-0.359375 -0.015625 -0.71875 -0.015625q-0.765625 0 -1.515625 0.09375q-0.734375 0.09375 -1.296875 0.328125q-0.5625 0.234375 -0.90625 0.65625q-0.328125 0.40625 -0.328125 1.03125q0 0.875 0.625 1.4375q0.625 0.5625 1.609375 0.5625zm7.5627747 -10.953125l1.9375 0l0 -2.46875l2.0 -0.578125l0 3.046875l3.4062805 0l0 1.75l-3.4062805 0l0 6.921875q0 1.296875 0.328125 1.84375q0.328125 0.53125 1.109375 0.53125q0.640625 0 1.0937805 -0.125q0.453125 -0.140625 1.0 -0.375l0.453125 1.53125q-0.671875 0.328125 -1.484375 0.515625q-0.7969055 0.203125 -1.7187805 0.203125q-1.53125 0 -2.15625 -0.859375q-0.625 -0.859375 -0.625 -2.890625l0 -7.296875l-1.9375 0l0 -1.75zm10.023773 0.921875q0.953125 -0.578125 2.21875 -0.84375q1.265625 -0.28125 2.640625 -0.28125q1.296875 0 2.078125 0.359375q0.796875 0.34375 1.203125 0.90625q0.421875 0.5625 0.546875 1.234375q0.140625 0.671875 0.140625 1.359375q0 1.5 -0.078125 2.921875q-0.0625 1.421875 -0.0625 2.703125q0 0.921875 0.0625 1.75q0.078125 0.8125 0.28125 1.515625l-1.46875 0l-0.53125 -1.75l-0.125 0q-0.21875 0.359375 -0.5625 0.703125q-0.34375 0.328125 -0.8125 0.59375q-0.46875 0.25 -1.09375 0.421875q-0.625 0.1875 -1.4375 0.1875q-0.796875 0 -1.484375 -0.25q-0.6875 -0.25 -1.1875 -0.703125q-0.5 -0.46875 -0.796875 -1.125q-0.28125 -0.65625 -0.28125 -1.46875q0 -1.109375 0.453125 -1.84375q0.453125 -0.734375 1.265625 -1.171875q0.8125 -0.4375 1.953125 -0.625q1.140625 -0.1875 2.515625 -0.1875q0.34375 0 0.671875 0q0.34375 0 0.703125 0.046875q0.0625 -0.75 0.0625 -1.34375q0 -1.375 -0.546875 -1.921875q-0.546875 -0.5625 -2.0 -0.5625q-0.421875 0 -0.90625 0.0625q-0.484375 0.0625 -1.0 0.1875q-0.515625 0.109375 -0.984375 0.265625q-0.453125 0.15625 -0.8125 0.359375l-0.625 -1.5zm3.5625 10.03125q0.6875 0 1.234375 -0.1875q0.5625 -0.1875 0.953125 -0.46875q0.40625 -0.296875 0.671875 -0.640625q0.265625 -0.359375 0.390625 -0.6875l0 -2.0625q-0.359375 -0.03125 -0.71875 -0.046875q-0.359375 -0.015625 -0.71875 -0.015625q-0.765625 0 -1.515625 0.09375q-0.734375 0.09375 -1.296875 0.328125q-0.5625 0.234375 -0.90625 0.65625q-0.328125 0.40625 -0.328125 1.03125q0 0.875 0.625 1.4375q0.625 0.5625 1.609375 0.5625zm14.703369 -1.859375q0 -0.75 -0.453125 -1.171875q-0.4375 -0.421875 -1.109375 -0.703125q-0.65625 -0.296875 -1.453125 -0.546875q-0.78125 -0.265625 -1.453125 -0.671875q-0.65625 -0.421875 -1.109375 -1.0625q-0.4375 -0.65625 -0.4375 -1.765625q0 -1.796875 1.015625 -2.625q1.03125 -0.84375 2.859375 -0.84375q1.34375 0 2.25 0.234375q0.921875 0.234375 1.59375 0.5625l-0.46875 1.65625q-0.578125 -0.28125 -1.390625 -0.484375q-0.8125 -0.21875 -1.734375 -0.21875q-1.109375 0 -1.625 0.375q-0.5 0.375 -0.5 1.296875q0 0.65625 0.4375 1.015625q0.453125 0.359375 1.109375 0.65625q0.671875 0.28125 1.453125 0.5625q0.796875 0.265625 1.453125 0.71875q0.671875 0.453125 1.109375 1.140625q0.453125 0.6875 0.453125 1.8125q0 0.796875 -0.265625 1.5q-0.25 0.6875 -0.8125 1.1875q-0.546875 0.5 -1.359375 0.78125q-0.8125 0.296875 -1.90625 0.296875q-1.421875 0 -2.421875 -0.28125q-1.0 -0.265625 -1.6875 -0.640625l0.609375 -1.703125q0.578125 0.328125 1.5 0.609375q0.921875 0.265625 1.875 0.265625q1.078125 0 1.765625 -0.421875q0.703125 -0.421875 0.703125 -1.53125zm14.288147 2.40625q-0.75 0.59375 -1.890625 0.953125q-1.125 0.34375 -2.40625 0.34375q-1.421875 0 -2.484375 -0.453125q-1.046875 -0.46875 -1.71875 -1.328125q-0.671875 -0.859375 -1.0 -2.0625q-0.328125 -1.203125 -0.328125 -2.703125q0 -3.203125 1.421875 -4.875q1.4375 -1.671875 4.078125 -1.671875q0.859375 0 1.703125 0.1875q0.859375 0.1875 1.53125 0.71875q0.671875 0.515625 1.09375 1.484375q0.421875 0.953125 0.421875 2.53125q0 0.828125 -0.140625 1.828125l-8.03125 0q0 1.09375 0.21875 1.953125q0.234375 0.84375 0.703125 1.4375q0.484375 0.578125 1.234375 0.890625q0.765625 0.3125 1.875 0.3125q0.84375 0 1.6875 -0.296875q0.859375 -0.296875 1.28125 -0.703125l0.75 1.453125zm-4.296875 -10.046875q-1.46875 0 -2.359375 0.78125q-0.890625 0.765625 -1.0625 2.640625l6.203125 0q0 -1.90625 -0.734375 -2.65625q-0.71875 -0.765625 -2.046875 -0.765625zm6.397949 -1.453125l1.9375 0l0 -2.46875l2.0 -0.578125l0 3.046875l3.40625 0l0 1.75l-3.40625 0l0 6.921875q0 1.296875 0.328125 1.84375q0.328125 0.53125 1.109375 0.53125q0.640625 0 1.09375 -0.125q0.453125 -0.140625 1.0 -0.375l0.453125 1.53125q-0.671875 0.328125 -1.484375 0.515625q-0.796875 0.203125 -1.71875 0.203125q-1.53125 0 -2.15625 -0.859375q-0.625 -0.859375 -0.625 -2.890625l0 -7.296875l-1.9375 0l0 -1.75z" fill-rule="nonzero"></path><path fill="#000000" fill-opacity="0.0" d="m68.0 332.09796l0 0c0 -7.4563293 6.044533 -13.5008545 13.500839 -13.5008545l188.99834 0c3.5806274 0 7.014618 1.4224243 9.546539 3.9543152c2.5318909 2.5318909 3.9542847 5.9658813 3.9542847 9.546539l0 19.801453l0 0c0 7.4563293 -6.044525 13.5008545 -13.500824 13.5008545l-188.99834 0l0 0c-7.4563065 0 -13.500839 -6.044525 -13.500839 -13.5008545z" fill-rule="nonzero"></path><path stroke="#ffffff" stroke-width="2.6666666666666665" stroke-miterlimit="8.0" stroke-linecap="butt" d="m68.0 332.09796l0 0c0 -7.4563293 6.044533 -13.5008545 13.500839 -13.5008545l188.99834 0c3.5806274 0 7.014618 1.4224243 9.546539 3.9543152c2.5318909 2.5318909 3.9542847 5.9658813 3.9542847 9.546539l0 19.801453l0 0c0 7.4563293 -6.044525 13.5008545 -13.500824 13.5008545l-188.99834 0l0 0c-7.4563065 0 -13.500839 -6.044525 -13.500839 -13.5008545z" fill-rule="nonzero"></path><path fill="#ffffff" d="m116.30882 351.3187l-10.34375 0l0 -17.5l2.078125 0l0 15.65625l8.265625 0l0 1.84375zm2.9696655 -12.5l2.0 0l0 12.5l-2.0 0l0 -12.5zm-0.421875 -3.796875q0 -0.578125 0.390625 -0.984375q0.390625 -0.421875 0.984375 -0.421875q0.609375 0 1.03125 0.421875q0.421875 0.40625 0.421875 0.984375q0 0.578125 -0.421875 0.953125q-0.421875 0.375 -1.03125 0.375q-0.59375 0 -0.984375 -0.375q-0.390625 -0.375 -0.390625 -0.953125zm6.7879486 -1.203125l2.0 0l0 6.21875l0.109375 0q0.5625 -0.71875 1.453125 -1.109375q0.890625 -0.40625 1.9375 -0.40625q2.421875 0 3.640625 1.546875q1.21875 1.546875 1.21875 4.796875q0 3.28125 -1.609375 4.984375q-1.59375 1.6875 -4.5 1.6875q-1.390625 0 -2.53125 -0.296875q-1.140625 -0.296875 -1.71875 -0.640625l0 -16.78125zm5.15625 6.453125q-1.25 0 -2.03125 0.703125q-0.765625 0.6875 -1.125 1.96875l0 6.296875q0.484375 0.28125 1.15625 0.421875q0.671875 0.125 1.390625 0.125q1.703125 0 2.71875 -1.1875q1.015625 -1.203125 1.015625 -3.75q0 -0.984375 -0.1875 -1.828125q-0.171875 -0.859375 -0.546875 -1.453125q-0.375 -0.59375 -0.96875 -0.9375q-0.578125 -0.359375 -1.421875 -0.359375zm14.4272 0.46875q-0.75 -0.25 -1.421875 -0.25q-1.078125 0 -1.703125 0.59375q-0.625 0.578125 -0.78125 1.484375l0 8.75l-2.0 0l0 -12.5l1.40625 0l0.375 1.53125l0.09375 0q0.484375 -0.859375 1.140625 -1.3125q0.65625 -0.46875 1.6875 -0.46875q0.71875 0 1.625 0.25l-0.421875 1.921875zm2.5021973 -1.0q0.953125 -0.578125 2.21875 -0.84375q1.265625 -0.28125 2.640625 -0.28125q1.296875 0 2.078125 0.359375q0.796875 0.34375 1.203125 0.90625q0.421875 0.5625 0.546875 1.234375q0.140625 0.671875 0.140625 1.359375q0 1.5 -0.078125 2.921875q-0.0625 1.421875 -0.0625 2.703125q0 0.921875 0.0625 1.75q0.078125 0.8125 0.28125 1.515625l-1.46875 0l-0.53125 -1.75l-0.125 0q-0.21875 0.359375 -0.5625 0.703125q-0.34375 0.328125 -0.8125 0.59375q-0.46875 0.25 -1.09375 0.421875q-0.625 0.1875 -1.4375 0.1875q-0.796875 0 -1.484375 -0.25q-0.6875 -0.25 -1.1875 -0.703125q-0.5 -0.46875 -0.796875 -1.125q-0.28125 -0.65625 -0.28125 -1.46875q0 -1.109375 0.453125 -1.84375q0.453125 -0.734375 1.265625 -1.171875q0.8125 -0.4375 1.953125 -0.625q1.140625 -0.1875 2.515625 -0.1875q0.34375 0 0.671875 0q0.34375 0 0.703125 0.046875q0.0625 -0.75 0.0625 -1.34375q0 -1.375 -0.546875 -1.921875q-0.546875 -0.5625 -2.0 -0.5625q-0.421875 0 -0.90625 0.0625q-0.484375 0.0625 -1.0 0.1875q-0.515625 0.109375 -0.984375 0.265625q-0.453125 0.15625 -0.8125 0.359375l-0.625 -1.5zm3.5625 10.03125q0.6875 0 1.234375 -0.1875q0.5625 -0.1875 0.953125 -0.46875q0.40625 -0.296875 0.671875 -0.640625q0.265625 -0.359375 0.390625 -0.6875l0 -2.0625q-0.359375 -0.03125 -0.71875 -0.046875q-0.359375 -0.015625 -0.71875 -0.015625q-0.765625 0 -1.515625 0.09375q-0.734375 0.09375 -1.296875 0.328125q-0.5625 0.234375 -0.90625 0.65625q-0.328125 0.40625 -0.328125 1.03125q0 0.875 0.625 1.4375q0.625 0.5625 1.609375 0.5625zm15.10965 -9.03125q-0.75 -0.25 -1.421875 -0.25q-1.078125 0 -1.703125 0.59375q-0.625 0.578125 -0.78125 1.484375l0 8.75l-2.0 0l0 -12.5l1.40625 0l0.375 1.53125l0.09375 0q0.484375 -0.859375 1.140625 -1.3125q0.65625 -0.46875 1.6875 -0.46875q0.71875 0 1.625 0.25l-0.421875 1.921875zm6.3771973 6.171875l0.703125 2.40625l0.125 0l0.546875 -2.421875l2.4375 -8.078125l2.015625 0l-3.703125 11.21875q-0.421875 1.234375 -0.84375 2.375q-0.40625 1.15625 -0.90625 2.046875q-0.5 0.90625 -1.125 1.4375q-0.625 0.546875 -1.4375 0.546875q-0.90625 0 -1.484375 -0.25l0.359375 -1.71875q0.3125 0.125 0.625 0.125q0.6875 0 1.34375 -0.75q0.65625 -0.734375 1.078125 -2.53125l-5.03125 -12.5l2.296875 0l3.0 8.09375zm8.3341675 -13.09375l9.53125 0l0 1.84375l-7.453125 0l0 5.984375l6.953125 0l0 1.84375l-6.953125 0l0 7.828125l-2.078125 0l0 -17.5zm12.188416 11.25q0 -3.171875 1.40625 -4.859375q1.421875 -1.6875 4.078125 -1.6875q1.3906097 0 2.4218597 0.46875q1.046875 0.453125 1.71875 1.3125q0.6875 0.859375 1.0 2.078125q0.328125 1.21875 0.328125 2.6875q0 3.171875 -1.421875 4.859375q-1.40625 1.6875 -4.0468597 1.6875q-1.40625 0 -2.453125 -0.453125q-1.03125 -0.46875 -1.703125 -1.328125q-0.671875 -0.859375 -1.0 -2.078125q-0.328125 -1.21875 -0.328125 -2.6875zm2.078125 0q0 0.953125 0.1875 1.828125q0.1875 0.875 0.578125 1.53125q0.40625 0.640625 1.0625 1.046875q0.65625 0.390625 1.578125 0.390625q3.3906097 0.03125 3.3906097 -4.796875q0 -0.96875 -0.1875 -1.84375q-0.1875 -0.875 -0.59375 -1.53125q-0.390625 -0.65625 -1.046875 -1.03125q-0.64060974 -0.390625 -1.5624847 -0.390625q-3.40625 -0.03125 -3.40625 4.796875zm14.435257 3.171875q0 0.875 0.296875 1.25q0.296875 0.375 0.84375 0.375q0.328125 0 0.703125 -0.046875q0.375 -0.046875 0.84375 -0.21875l0.234375 1.5625q-0.40625 0.203125 -1.125 0.328125q-0.703125 0.125 -1.234375 0.125q-1.125 0 -1.84375 -0.625q-0.71875 -0.640625 -0.71875 -2.171875l0 -15.0l2.0 0l0 14.421875zm14.7708435 -1.21875q0 1.265625 0.015625 2.3125q0.03125 1.03125 0.234375 2.03125l-1.359375 0l-0.5 -1.765625l-0.09375 0q-0.5 0.875 -1.453125 1.453125q-0.953125 0.5625 -2.21875 0.5625q-2.5 0 -3.71875 -1.5625q-1.21875 -1.578125 -1.21875 -4.9375q0 -3.203125 1.515625 -4.859375q1.515625 -1.65625 4.171875 -1.65625q0.921875 0 1.453125 0.09375q0.546875 0.09375 1.171875 0.328125l0 -5.203125l2.0 0l0 13.203125zm-5.0625 2.84375q1.28125 0 2.03125 -0.65625q0.75 -0.671875 1.03125 -2.015625l0 -6.203125q-0.453125 -0.34375 -1.03125 -0.484375q-0.578125 -0.15625 -1.53125 -0.15625q-1.71875 0 -2.703125 1.140625q-0.96875 1.125 -0.96875 3.625q0 1.03125 0.15625 1.90625q0.171875 0.875 0.546875 1.5q0.375 0.625 0.984375 0.984375q0.609375 0.359375 1.484375 0.359375zm18.204681 0.453125q-0.75 0.59375 -1.890625 0.953125q-1.125 0.34375 -2.40625 0.34375q-1.421875 0 -2.484375 -0.453125q-1.046875 -0.46875 -1.71875 -1.328125q-0.671875 -0.859375 -1.0 -2.0625q-0.328125 -1.203125 -0.328125 -2.703125q0 -3.203125 1.421875 -4.875q1.4375 -1.671875 4.078125 -1.671875q0.859375 0 1.703125 0.1875q0.859375 0.1875 1.53125 0.71875q0.671875 0.515625 1.09375 1.484375q0.421875 0.953125 0.421875 2.53125q0 0.828125 -0.140625 1.828125l-8.03125 0q0 1.09375 0.21875 1.953125q0.234375 0.84375 0.703125 1.4375q0.484375 0.578125 1.234375 0.890625q0.765625 0.3125 1.875 0.3125q0.84375 0 1.6875 -0.296875q0.859375 -0.296875 1.28125 -0.703125l0.75 1.453125zm-4.296875 -10.046875q-1.46875 0 -2.359375 0.78125q-0.890625 0.765625 -1.0625 2.640625l6.203125 0q0 -1.90625 -0.734375 -2.65625q-0.71875 -0.765625 -2.046875 -0.765625zm13.944824 0.46875q-0.75 -0.25 -1.421875 -0.25q-1.078125 0 -1.703125 0.59375q-0.625 0.578125 -0.78125 1.484375l0 8.75l-2.0 0l0 -12.5l1.40625 0l0.375 1.53125l0.09375 0q0.484375 -0.859375 1.140625 -1.3125q0.65625 -0.46875 1.6875 -0.46875q0.71875 0 1.625 0.25l-0.421875 1.921875z" fill-rule="nonzero"></path><path fill="#000000" fill-opacity="0.0" d="m284.0 341.9987l0 0" fill-rule="nonzero"></path><path stroke="#4c4c4c" stroke-width="2.0" stroke-linejoin="round" stroke-linecap="butt" d="m284.0 341.9987l0 0" fill-rule="nonzero"></path><path fill="#000000" fill-opacity="0.0" d="m68.0 212.09795l0 0c0 -7.456299 6.044533 -13.500839 13.500839 -13.500839l188.99834 0c3.5806274 0 7.014618 1.422409 9.546539 3.9543152c2.5318909 2.5318909 3.9542847 5.9658813 3.9542847 9.546524l0 19.801483l0 0c0 7.456299 -6.044525 13.500839 -13.500824 13.500839l-188.99834 0l0 0c-7.4563065 0 -13.500839 -6.0445404 -13.500839 -13.500839z" fill-rule="nonzero"></path><path stroke="#ffffff" stroke-width="2.6666666666666665" stroke-miterlimit="8.0" stroke-linecap="butt" d="m68.0 212.09795l0 0c0 -7.456299 6.044533 -13.500839 13.500839 -13.500839l188.99834 0c3.5806274 0 7.014618 1.422409 9.546539 3.9543152c2.5318909 2.5318909 3.9542847 5.9658813 3.9542847 9.546524l0 19.801483l0 0c0 7.456299 -6.044525 13.500839 -13.500824 13.500839l-188.99834 0l0 0c-7.4563065 0 -13.500839 -6.0445404 -13.500839 -13.500839z" fill-rule="nonzero"></path><path fill="#ffffff" d="m150.89442 231.3187l-10.34375 0l0 -17.5l2.078125 0l0 15.65625l8.265625 0l0 1.84375zm2.9696655 -12.5l2.0 0l0 12.5l-2.0 0l0 -12.5zm-0.421875 -3.796875q0 -0.578125 0.390625 -0.984375q0.390625 -0.421875 0.984375 -0.421875q0.609375 0 1.03125 0.421875q0.421875 0.40625 0.421875 0.984375q0 0.578125 -0.421875 0.953125q-0.421875 0.375 -1.03125 0.375q-0.59375 0 -0.984375 -0.375q-0.390625 -0.375 -0.390625 -0.953125zm6.7879486 -1.203125l2.0 0l0 6.21875l0.109375 0q0.5625 -0.71875 1.453125 -1.109375q0.890625 -0.40625 1.9375 -0.40625q2.421875 0 3.640625 1.546875q1.21875 1.546875 1.21875 4.796875q0 3.28125 -1.609375 4.984375q-1.59375 1.6875 -4.5 1.6875q-1.390625 0 -2.53125 -0.296875q-1.140625 -0.296875 -1.71875 -0.640625l0 -16.78125zm5.15625 6.453125q-1.25 0 -2.03125 0.703125q-0.765625 0.6875 -1.125 1.96875l0 6.296875q0.484375 0.28125 1.15625 0.421875q0.671875 0.125 1.390625 0.125q1.703125 0 2.71875 -1.1875q1.015625 -1.203125 1.015625 -3.75q0 -0.984375 -0.1875 -1.828125q-0.171875 -0.859375 -0.546875 -1.453125q-0.375 -0.59375 -0.96875 -0.9375q-0.578125 -0.359375 -1.421875 -0.359375zm14.4272 0.46875q-0.75 -0.25 -1.421875 -0.25q-1.078125 0 -1.703125 0.59375q-0.625 0.578125 -0.78125 1.484375l0 8.75l-2.0 0l0 -12.5l1.40625 0l0.375 1.53125l0.09375 0q0.484375 -0.859375 1.140625 -1.3125q0.65625 -0.46875 1.6875 -0.46875q0.71875 0 1.625 0.25l-0.421875 1.921875zm2.5021973 -1.0q0.953125 -0.578125 2.21875 -0.84375q1.265625 -0.28125 2.640625 -0.28125q1.296875 0 2.078125 0.359375q0.796875 0.34375 1.203125 0.90625q0.421875 0.5625 0.546875 1.234375q0.140625 0.671875 0.140625 1.359375q0 1.5 -0.078125 2.921875q-0.0625 1.421875 -0.0625 2.703125q0 0.921875 0.0625 1.75q0.078125 0.8125 0.28125 1.515625l-1.46875 0l-0.53125 -1.75l-0.125 0q-0.21875 0.359375 -0.5625 0.703125q-0.34375 0.328125 -0.8125 0.59375q-0.46875 0.25 -1.09375 0.421875q-0.625 0.1875 -1.4375 0.1875q-0.796875 0 -1.484375 -0.25q-0.6875 -0.25 -1.1875 -0.703125q-0.5 -0.46875 -0.796875 -1.125q-0.28125 -0.65625 -0.28125 -1.46875q0 -1.109375 0.453125 -1.84375q0.453125 -0.734375 1.265625 -1.171875q0.8125 -0.4375 1.953125 -0.625q1.140625 -0.1875 2.515625 -0.1875q0.34375 0 0.671875 0q0.34375 0 0.703125 0.046875q0.0625 -0.75 0.0625 -1.34375q0 -1.375 -0.546875 -1.921875q-0.546875 -0.5625 -2.0 -0.5625q-0.421875 0 -0.90625 0.0625q-0.484375 0.0625 -1.0 0.1875q-0.515625 0.109375 -0.984375 0.265625q-0.453125 0.15625 -0.8125 0.359375l-0.625 -1.5zm3.5625 10.03125q0.6875 0 1.234375 -0.1875q0.5625 -0.1875 0.953125 -0.46875q0.40625 -0.296875 0.671875 -0.640625q0.265625 -0.359375 0.390625 -0.6875l0 -2.0625q-0.359375 -0.03125 -0.71875 -0.046875q-0.359375 -0.015625 -0.71875 -0.015625q-0.765625 0 -1.515625 0.09375q-0.734375 0.09375 -1.296875 0.328125q-0.5625 0.234375 -0.90625 0.65625q-0.328125 0.40625 -0.328125 1.03125q0 0.875 0.625 1.4375q0.625 0.5625 1.609375 0.5625zm15.10965 -9.03125q-0.75 -0.25 -1.421875 -0.25q-1.078125 0 -1.703125 0.59375q-0.625 0.578125 -0.78125 1.484375l0 8.75l-2.0 0l0 -12.5l1.40625 0l0.375 1.53125l0.09375 0q0.484375 -0.859375 1.140625 -1.3125q0.65625 -0.46875 1.6875 -0.46875q0.71875 0 1.625 0.25l-0.421875 1.921875zm6.3771973 6.171875l0.703125 2.40625l0.125 0l0.546875 -2.421875l2.4375 -8.078125l2.015625 0l-3.703125 11.21875q-0.421875 1.234375 -0.84375 2.375q-0.40625 1.15625 -0.90625 2.046875q-0.5 0.90625 -1.125 1.4375q-0.625 0.546875 -1.4375 0.546875q-0.90625 0 -1.484375 -0.25l0.359375 -1.71875q0.3125 0.125 0.625 0.125q0.6875 0 1.34375 -0.75q0.65625 -0.734375 1.078125 -2.53125l-5.03125 -12.5l2.296875 0l3.0 8.09375z" fill-rule="nonzero"></path><path fill="#000000" fill-opacity="0.0" d="m67.8189 342.00076l-46.26772 0l0 -58.31311l86.19685 0l0 35.517365" fill-rule="nonzero"></path><path stroke="#ffffff" stroke-width="2.0" stroke-linejoin="round" stroke-linecap="butt" d="m67.8189 342.00076l-46.26772 0l0 -58.31311l86.19685 0l0 23.517365" fill-rule="evenodd"></path><path fill="#ffffff" stroke="#ffffff" stroke-width="2.0" stroke-linecap="butt" d="m104.444565 307.20505l3.3034668 9.076172l3.3034668 -9.076172z" fill-rule="evenodd"></path><path fill="#000000" fill-opacity="0.0" d="m176.0 245.40027l0 73.19684" fill-rule="nonzero"></path><path stroke="#ffffff" stroke-width="2.0" stroke-linejoin="round" stroke-linecap="butt" d="m176.0 245.40027l0 61.19684" fill-rule="evenodd"></path><path fill="#ffffff" stroke="#ffffff" stroke-width="2.0" stroke-linecap="butt" d="m172.69653 306.5971l3.3034668 9.076202l3.3034668 -9.076202z" fill-rule="evenodd"></path><path fill="#000000" fill-opacity="0.0" d="m284.0 341.9987l88.0 0" fill-rule="nonzero"></path><path stroke="#ffffff" stroke-width="2.0" stroke-linejoin="round" stroke-linecap="butt" d="m284.0 341.9987l76.0 0" fill-rule="evenodd"></path><path fill="#ffffff" stroke="#ffffff" stroke-width="2.0" stroke-linecap="butt" d="m360.0 345.30215l9.076202 -3.3034668l-9.076202 -3.3034668z" fill-rule="evenodd"></path><path fill="#000000" fill-opacity="0.0" d="m676.0 332.09796l0 0c0 -7.4563293 6.0445557 -13.5008545 13.5008545 -13.5008545l188.99829 0c3.5806885 0 7.0146484 1.4224243 9.54657 3.9543152c2.5318604 2.5318909 3.9542847 5.9658813 3.9542847 9.546539l0 19.801453l0 0c0 7.4563293 -6.0445557 13.5008545 -13.5008545 13.5008545l-188.99829 0l0 0c-7.456299 0 -13.5008545 -6.044525 -13.5008545 -13.5008545z" fill-rule="nonzero"></path><path stroke="#ffffff" stroke-width="2.6666666666666665" stroke-miterlimit="8.0" stroke-linecap="butt" d="m676.0 332.09796l0 0c0 -7.4563293 6.0445557 -13.5008545 13.5008545 -13.5008545l188.99829 0c3.5806885 0 7.0146484 1.4224243 9.54657 3.9543152c2.5318604 2.5318909 3.9542847 5.9658813 3.9542847 9.546539l0 19.801453l0 0c0 7.4563293 -6.0445557 13.5008545 -13.5008545 13.5008545l-188.99829 0l0 0c-7.456299 0 -13.5008545 -6.044525 -13.5008545 -13.5008545z" fill-rule="nonzero"></path><path fill="#ffffff" d="m765.9483 351.3187l-10.34375 0l0 -17.5l2.078125 0l0 15.65625l8.265625 0l0 1.84375zm2.7509155 -17.5q0.46875 -0.078125 1.0625 -0.109375q0.59375 -0.046875 1.21875 -0.046875q0.640625 -0.015625 1.25 -0.03125q0.625 -0.015625 1.140625 -0.015625q2.109375 0 3.640625 0.65625q1.53125 0.640625 2.53125 1.8125q1.0 1.15625 1.484375 2.78125q0.5 1.625 0.5 3.578125q0 1.78125 -0.46875 3.421875q-0.453125 1.625 -1.453125 2.890625q-1.0 1.265625 -2.609375 2.03125q-1.59375 0.75 -3.875 0.75q-0.390625 0 -1.03125 -0.015625q-0.640625 0 -1.3125 -0.046875q-0.671875 -0.03125 -1.25 -0.0625q-0.578125 -0.015625 -0.828125 -0.0625l0 -17.53125zm4.71875 1.65625q-0.3125 0 -0.703125 0q-0.390625 0 -0.765625 0.03125q-0.375 0.015625 -0.6875 0.046875q-0.3125 0.015625 -0.484375 0.046875l0 14.0q0.125 0.015625 0.46875 0.03125q0.359375 0.015625 0.734375 0.03125q0.375 0 0.71875 0.015625q0.34375 0.015625 0.46875 0.015625q1.75 0 2.9375 -0.59375q1.1875 -0.609375 1.90625 -1.609375q0.71875 -1.015625 1.015625 -2.328125q0.296875 -1.3125 0.296875 -2.71875q0 -1.21875 -0.28125 -2.453125q-0.265625 -1.25 -0.953125 -2.25q-0.671875 -1.0 -1.8125 -1.625q-1.125 -0.640625 -2.859375 -0.640625zm11.845886 -1.65625q0.46875 -0.078125 1.0625 -0.109375q0.59375 -0.046875 1.21875 -0.046875q0.640625 -0.015625 1.25 -0.03125q0.625 -0.015625 1.140625 -0.015625q2.109375 0 3.640625 0.65625q1.53125 0.640625 2.53125 1.8125q1.0 1.15625 1.484375 2.78125q0.5 1.625 0.5 3.578125q0 1.78125 -0.46875 3.421875q-0.453125 1.625 -1.453125 2.890625q-1.0 1.265625 -2.609375 2.03125q-1.59375 0.75 -3.875 0.75q-0.390625 0 -1.03125 -0.015625q-0.640625 0 -1.3125 -0.046875q-0.671875 -0.03125 -1.25 -0.0625q-0.578125 -0.015625 -0.828125 -0.0625l0 -17.53125zm4.71875 1.65625q-0.3125 0 -0.703125 0q-0.390625 0 -0.765625 0.03125q-0.375 0.015625 -0.6875 0.046875q-0.3125 0.015625 -0.484375 0.046875l0 14.0q0.125 0.015625 0.46875 0.03125q0.359375 0.015625 0.734375 0.03125q0.375 0 0.71875 0.015625q0.34375 0.015625 0.46875 0.015625q1.75 0 2.9375 -0.59375q1.1875 -0.609375 1.90625 -1.609375q0.71875 -1.015625 1.015625 -2.328125q0.296875 -1.3125 0.296875 -2.71875q0 -1.21875 -0.28125 -2.453125q-0.265625 -1.25 -0.953125 -2.25q-0.671875 -1.0 -1.8125 -1.625q-1.125 -0.640625 -2.859375 -0.640625zm20.174011 11.0l-6.453125 0l-1.75 4.84375l-2.046875 0l6.625 -17.78125l0.953125 0l6.640625 17.78125l-2.171875 0l-1.796875 -4.84375zm-5.78125 -1.8125l5.15625 0l-1.953125 -5.3125l-0.625 -2.65625l-0.03125 0l-0.625 2.703125l-1.921875 5.265625z" fill-rule="nonzero"></path><path fill="#000000" fill-opacity="0.0" d="m588.0 341.9987l88.0 0" fill-rule="nonzero"></path><path stroke="#ffffff" stroke-width="2.0" stroke-linejoin="round" stroke-linecap="butt" d="m588.0 341.9987l76.0 0" fill-rule="evenodd"></path><path fill="#ffffff" stroke="#ffffff" stroke-width="2.0" stroke-linecap="butt" d="m664.0 345.30215l9.076172 -3.3034668l-9.076172 -3.3034668z" fill-rule="evenodd"></path><path fill="#000000" fill-opacity="0.0" d="m676.0 444.09796l0 0c0 -7.4563293 6.0445557 -13.5008545 13.5008545 -13.5008545l188.99829 0c3.5806885 0 7.0146484 1.4224243 9.54657 3.9543152c2.5318604 2.5318909 3.9542847 5.9658813 3.9542847 9.546539l0 19.801453l0 0c0 7.4563293 -6.0445557 13.5008545 -13.5008545 13.5008545l-188.99829 0l0 0c-7.456299 0 -13.5008545 -6.044525 -13.5008545 -13.5008545z" fill-rule="nonzero"></path><path stroke="#ffffff" stroke-width="2.6666666666666665" stroke-miterlimit="8.0" stroke-linecap="butt" d="m676.0 444.09796l0 0c0 -7.4563293 6.0445557 -13.5008545 13.5008545 -13.5008545l188.99829 0c3.5806885 0 7.0146484 1.4224243 9.54657 3.9543152c2.5318604 2.5318909 3.9542847 5.9658813 3.9542847 9.546539l0 19.801453l0 0c0 7.4563293 -6.0445557 13.5008545 -13.5008545 13.5008545l-188.99829 0l0 0c-7.456299 0 -13.5008545 -6.044525 -13.5008545 -13.5008545z" fill-rule="nonzero"></path><path fill="#ffffff" d="m744.9288 445.8187q0.46875 -0.078125 1.0625 -0.109375q0.59375 -0.046875 1.21875 -0.046875q0.640625 -0.015625 1.25 -0.03125q0.625 -0.015625 1.140625 -0.015625q2.109375 0 3.640625 0.65625q1.53125 0.640625 2.53125 1.8125q1.0 1.15625 1.484375 2.78125q0.5 1.625 0.5 3.578125q0 1.78125 -0.46875 3.421875q-0.453125 1.625 -1.453125 2.890625q-1.0 1.265625 -2.609375 2.03125q-1.59375 0.75 -3.875 0.75q-0.390625 0 -1.03125 -0.015625q-0.640625 0 -1.3125 -0.046875q-0.671875 -0.03125 -1.25 -0.0625q-0.578125 -0.015625 -0.828125 -0.0625l0 -17.53125zm4.71875 1.65625q-0.3125 0 -0.703125 0q-0.390625 0 -0.765625 0.03125q-0.375 0.015625 -0.6875 0.046875q-0.3125 0.015625 -0.484375 0.046875l0 14.0q0.125 0.015625 0.46875 0.03125q0.359375 0.015625 0.734375 0.03125q0.375 0 0.71875 0.015625q0.34375 0.015625 0.46875 0.015625q1.75 0 2.9375 -0.59375q1.1875 -0.609375 1.90625 -1.609375q0.71875 -1.015625 1.015625 -2.328125q0.296875 -1.3125 0.296875 -2.71875q0 -1.21875 -0.28125 -2.453125q-0.265625 -1.25 -0.953125 -2.25q-0.671875 -1.0 -1.8125 -1.625q-1.125 -0.640625 -2.859375 -0.640625zm11.439575 4.265625q0.953125 -0.578125 2.21875 -0.84375q1.265625 -0.28125 2.640625 -0.28125q1.296875 0 2.078125 0.359375q0.796875 0.34375 1.203125 0.90625q0.421875 0.5625 0.546875 1.234375q0.140625 0.671875 0.140625 1.359375q0 1.5 -0.078125 2.921875q-0.0625 1.421875 -0.0625 2.703125q0 0.921875 0.0625 1.75q0.078125 0.8125 0.28125 1.515625l-1.46875 0l-0.53125 -1.75l-0.125 0q-0.21875 0.359375 -0.5625 0.703125q-0.34375 0.328125 -0.8125 0.59375q-0.46875 0.25 -1.09375 0.421875q-0.625 0.1875 -1.4375 0.1875q-0.796875 0 -1.484375 -0.25q-0.6875 -0.25 -1.1875 -0.703125q-0.5 -0.46875 -0.796875 -1.125q-0.28125 -0.65625 -0.28125 -1.46875q0 -1.109375 0.453125 -1.84375q0.453125 -0.734375 1.265625 -1.171875q0.8125 -0.4375 1.953125 -0.625q1.140625 -0.1875 2.515625 -0.1875q0.34375 0 0.671875 0q0.34375 0 0.703125 0.046875q0.0625 -0.75 0.0625 -1.34375q0 -1.375 -0.546875 -1.921875q-0.546875 -0.5625 -2.0 -0.5625q-0.421875 0 -0.90625 0.0625q-0.484375 0.0625 -1.0 0.1875q-0.515625 0.109375 -0.984375 0.265625q-0.453125 0.15625 -0.8125 0.359375l-0.625 -1.5zm3.5625 10.03125q0.6875 0 1.234375 -0.1875q0.5625 -0.1875 0.953125 -0.46875q0.40625 -0.296875 0.671875 -0.640625q0.265625 -0.359375 0.390625 -0.6875l0 -2.0625q-0.359375 -0.03125 -0.71875 -0.046875q-0.359375 -0.015625 -0.71875 -0.015625q-0.765625 0 -1.515625 0.09375q-0.734375 0.09375 -1.296875 0.328125q-0.5625 0.234375 -0.90625 0.65625q-0.328125 0.40625 -0.328125 1.03125q0 0.875 0.625 1.4375q0.625 0.5625 1.609375 0.5625zm7.562805 -10.953125l1.9375 0l0 -2.46875l2.0 -0.578125l0 3.046875l3.40625 0l0 1.75l-3.40625 0l0 6.921875q0 1.296875 0.328125 1.84375q0.328125 0.53125 1.109375 0.53125q0.640625 0 1.09375 -0.125q0.453125 -0.140625 1.0 -0.375l0.453125 1.53125q-0.671875 0.328125 -1.484375 0.515625q-0.796875 0.203125 -1.71875 0.203125q-1.53125 0 -2.15625 -0.859375q-0.625 -0.859375 -0.625 -2.890625l0 -7.296875l-1.9375 0l0 -1.75zm10.023743 0.921875q0.953125 -0.578125 2.21875 -0.84375q1.265625 -0.28125 2.640625 -0.28125q1.296875 0 2.078125 0.359375q0.796875 0.34375 1.203125 0.90625q0.421875 0.5625 0.546875 1.234375q0.140625 0.671875 0.140625 1.359375q0 1.5 -0.078125 2.921875q-0.0625 1.421875 -0.0625 2.703125q0 0.921875 0.0625 1.75q0.078125 0.8125 0.28125 1.515625l-1.46875 0l-0.53125 -1.75l-0.125 0q-0.21875 0.359375 -0.5625 0.703125q-0.34375 0.328125 -0.8125 0.59375q-0.46875 0.25 -1.09375 0.421875q-0.625 0.1875 -1.4375 0.1875q-0.796875 0 -1.484375 -0.25q-0.6875 -0.25 -1.1875 -0.703125q-0.5 -0.46875 -0.796875 -1.125q-0.28125 -0.65625 -0.28125 -1.46875q0 -1.109375 0.453125 -1.84375q0.453125 -0.734375 1.265625 -1.171875q0.8125 -0.4375 1.953125 -0.625q1.140625 -0.1875 2.515625 -0.1875q0.34375 0 0.671875 0q0.34375 0 0.703125 0.046875q0.0625 -0.75 0.0625 -1.34375q0 -1.375 -0.546875 -1.921875q-0.546875 -0.5625 -2.0 -0.5625q-0.421875 0 -0.90625 0.0625q-0.484375 0.0625 -1.0 0.1875q-0.515625 0.109375 -0.984375 0.265625q-0.453125 0.15625 -0.8125 0.359375l-0.625 -1.5zm3.5625 10.03125q0.6875 0 1.234375 -0.1875q0.5625 -0.1875 0.953125 -0.46875q0.40625 -0.296875 0.671875 -0.640625q0.265625 -0.359375 0.390625 -0.6875l0 -2.0625q-0.359375 -0.03125 -0.71875 -0.046875q-0.359375 -0.015625 -0.71875 -0.015625q-0.765625 0 -1.515625 0.09375q-0.734375 0.09375 -1.296875 0.328125q-0.5625 0.234375 -0.90625 0.65625q-0.328125 0.40625 -0.328125 1.03125q0 0.875 0.625 1.4375q0.625 0.5625 1.609375 0.5625zm14.703369 -1.859375q0 -0.75 -0.453125 -1.171875q-0.4375 -0.421875 -1.109375 -0.703125q-0.65625 -0.296875 -1.453125 -0.546875q-0.78125 -0.265625 -1.453125 -0.671875q-0.65625 -0.421875 -1.109375 -1.0625q-0.4375 -0.65625 -0.4375 -1.765625q0 -1.796875 1.015625 -2.625q1.03125 -0.84375 2.859375 -0.84375q1.34375 0 2.25 0.234375q0.921875 0.234375 1.59375 0.5625l-0.46875 1.65625q-0.578125 -0.28125 -1.390625 -0.484375q-0.8125 -0.21875 -1.734375 -0.21875q-1.109375 0 -1.625 0.375q-0.5 0.375 -0.5 1.296875q0 0.65625 0.4375 1.015625q0.453125 0.359375 1.109375 0.65625q0.671875 0.28125 1.453125 0.5625q0.796875 0.265625 1.453125 0.71875q0.671875 0.453125 1.109375 1.140625q0.453125 0.6875 0.453125 1.8125q0 0.796875 -0.265625 1.5q-0.25 0.6875 -0.8125 1.1875q-0.546875 0.5 -1.359375 0.78125q-0.8125 0.296875 -1.90625 0.296875q-1.421875 0 -2.421875 -0.28125q-1.0 -0.265625 -1.6875 -0.640625l0.609375 -1.703125q0.578125 0.328125 1.5 0.609375q0.921875 0.265625 1.875 0.265625q1.078125 0 1.765625 -0.421875q0.703125 -0.421875 0.703125 -1.53125zm14.288208 2.40625q-0.75 0.59375 -1.890625 0.953125q-1.125 0.34375 -2.40625 0.34375q-1.421875 0 -2.484375 -0.453125q-1.046875 -0.46875 -1.71875 -1.328125q-0.671875 -0.859375 -1.0 -2.0625q-0.328125 -1.203125 -0.328125 -2.703125q0 -3.203125 1.421875 -4.875q1.4375 -1.671875 4.078125 -1.671875q0.859375 0 1.703125 0.1875q0.859375 0.1875 1.53125 0.71875q0.671875 0.515625 1.09375 1.484375q0.421875 0.953125 0.421875 2.53125q0 0.828125 -0.140625 1.828125l-8.03125 0q0 1.09375 0.21875 1.953125q0.234375 0.84375 0.703125 1.4375q0.484375 0.578125 1.234375 0.890625q0.765625 0.3125 1.875 0.3125q0.84375 0 1.6875 -0.296875q0.859375 -0.296875 1.28125 -0.703125l0.75 1.453125zm-4.296875 -10.046875q-1.46875 0 -2.359375 0.78125q-0.890625 0.765625 -1.0625 2.640625l6.203125 0q0 -1.90625 -0.734375 -2.65625q-0.71875 -0.765625 -2.046875 -0.765625zm6.397949 -1.453125l1.9375 0l0 -2.46875l2.0 -0.578125l0 3.046875l3.40625 0l0 1.75l-3.40625 0l0 6.921875q0 1.296875 0.328125 1.84375q0.328125 0.53125 1.109375 0.53125q0.640625 0 1.09375 -0.125q0.453125 -0.140625 1.0 -0.375l0.453125 1.53125q-0.671875 0.328125 -1.484375 0.515625q-0.796875 0.203125 -1.71875 0.203125q-1.53125 0 -2.15625 -0.859375q-0.625 -0.859375 -0.625 -2.890625l0 -7.296875l-1.9375 0l0 -1.75z" fill-rule="nonzero"></path><path fill="#000000" fill-opacity="0.0" d="m784.0 365.40027l0 65.19684" fill-rule="nonzero"></path><path stroke="#ffffff" stroke-width="2.0" stroke-linejoin="round" stroke-linecap="butt" d="m784.0 365.40027l0 53.19684" fill-rule="evenodd"></path><path fill="#ffffff" stroke="#ffffff" stroke-width="2.0" stroke-linecap="butt" d="m780.69653 418.5971l3.3034668 9.076202l3.3034668 -9.076202z" fill-rule="evenodd"></path></g></svg>

