<?xml version="1.0" standalone="yes"?>

<svg version="1.1" viewBox="0.0 0.0 960.0 540.0" fill="none" stroke="none" stroke-linecap="square" stroke-miterlimit="10" xmlns="http://www.w3.org/2000/svg" xmlns:xlink="http://www.w3.org/1999/xlink"><clipPath id="ga2f5d01c8_5_78.0"><path d="m0 0l960.0 0l0 540.0l-960.0 0l0 -540.0z" clip-rule="nonzero"></path></clipPath><g clip-path="url(#ga2f5d01c8_5_78.0)"><path fill="#000000" d="m0 0l960.0 0l0 540.0l-960.0 0z" fill-rule="nonzero"></path><path fill="#000000" fill-opacity="0.0" d="m176.01575 276.58383l0 0c0 -26.282715 21.306366 -47.58908 47.58908 -47.58908l164.69586 0l0 0c12.621399 0 24.72586 5.0138397 33.650543 13.938522c8.924683 8.924683 13.938538 21.02916 13.938538 33.65056l0 69.79822c0 26.282715 -21.306366 47.58908 -47.58908 47.58908l-164.69586 0c-26.282715 0 -47.58908 -21.306366 -47.58908 -47.58908z" fill-rule="nonzero"></path><path stroke="#ffffff" stroke-width="2.6666666666666665" stroke-miterlimit="8.0" stroke-linecap="butt" d="m176.01575 276.58383l0 0c0 -26.282715 21.306366 -47.58908 47.58908 -47.58908l164.69586 0l0 0c12.621399 0 24.72586 5.0138397 33.650543 13.938522c8.924683 8.924683 13.938538 21.02916 13.938538 33.65056l0 69.79822c0 26.282715 -21.306366 47.58908 -47.58908 47.58908l-164.69586 0c-26.282715 0 -47.58908 -21.306366 -47.58908 -47.58908z" fill-rule="nonzero"></path><path fill="#ffffff" d="m241.48026 258.8l-1.359375 -2.515625l-0.09375 0l0.25 2.515625l0 11.453125l-1.953125 0l0 -17.78125l1.09375 0l8.375 11.6875l1.3125 2.390625l0.125 0l-0.28125 -2.390625l0 -11.40625l1.953125 0l0 17.78125l-1.109375 0l-8.3125 -11.734375zm22.811493 10.453125q-0.75 0.59375 -1.890625 0.953125q-1.125 0.34375 -2.40625 0.34375q-1.421875 0 -2.484375 -0.453125q-1.046875 -0.46875 -1.7187653 -1.328125q-0.671875 -0.859375 -1.0 -2.0625q-0.328125 -1.203125 -0.328125 -2.703125q0 -3.203125 1.421875 -4.875q1.4375153 -1.671875 4.0781403 -1.671875q0.859375 0 1.703125 0.1875q0.859375 0.1875 1.53125 0.71875q0.671875 0.515625 1.09375 1.484375q0.421875 0.953125 0.421875 2.53125q0 0.828125 -0.140625 1.828125l-8.03125 0q0 1.09375 0.21875 1.953125q0.234375 0.84375 0.703125 1.4375q0.484375 0.578125 1.234375 0.890625q0.765625 0.3125 1.875 0.3125q0.84375 0 1.6875 -0.296875q0.859375 -0.296875 1.28125 -0.703125l0.75 1.453125zm-4.296875 -10.046875q-1.46875 0 -2.359375 0.78125q-0.890625 0.765625 -1.0625 2.640625l6.203125 0q0 -1.90625 -0.734375 -2.65625q-0.71875 -0.765625 -2.046875 -0.765625zm13.538574 7.640625q0 -0.75 -0.453125 -1.171875q-0.4375 -0.421875 -1.109375 -0.703125q-0.65625 -0.296875 -1.453125 -0.546875q-0.78125 -0.265625 -1.453125 -0.671875q-0.65625 -0.421875 -1.109375 -1.0625q-0.4375 -0.65625 -0.4375 -1.765625q0 -1.796875 1.015625 -2.625q1.03125 -0.84375 2.859375 -0.84375q1.34375 0 2.25 0.234375q0.921875 0.234375 1.59375 0.5625l-0.46875 1.65625q-0.578125 -0.28125 -1.390625 -0.484375q-0.8125 -0.21875 -1.734375 -0.21875q-1.109375 0 -1.625 0.375q-0.5 0.375 -0.5 1.296875q0 0.65625 0.4375 1.015625q0.453125 0.359375 1.109375 0.65625q0.671875 0.28125 1.453125 0.5625q0.796875 0.265625 1.453125 0.71875q0.671875 0.453125 1.109375 1.140625q0.453125 0.6875 0.453125 1.8125q0 0.796875 -0.265625 1.5q-0.25 0.6875 -0.8125 1.1875q-0.546875 0.5 -1.359375 0.78125q-0.8125 0.296875 -1.90625 0.296875q-1.421875 0 -2.421875 -0.28125q-1.0 -0.265625 -1.6875 -0.640625l0.609375 -1.703125q0.578125 0.328125 1.5 0.609375q0.921875 0.265625 1.875 0.265625q1.078125 0 1.765625 -0.421875q0.703125 -0.421875 0.703125 -1.53125zm3.522522 -9.09375l1.9375 0l0 -2.46875l2.0 -0.578125l0 3.046875l3.40625 0l0 1.75l-3.40625 0l0 6.921875q0 1.296875 0.328125 1.84375q0.328125 0.53125 1.109375 0.53125q0.640625 0 1.09375 -0.125q0.453125 -0.140625 1.0 -0.375l0.453125 1.53125q-0.671875 0.328125 -1.484375 0.515625q-0.796875 0.203125 -1.71875 0.203125q-1.53125 0 -2.15625 -0.859375q-0.625 -0.859375 -0.625 -2.890625l0 -7.296875l-1.9375 0l0 -1.75zm19.351868 11.5q-0.75 0.59375 -1.890625 0.953125q-1.125 0.34375 -2.40625 0.34375q-1.421875 0 -2.484375 -0.453125q-1.046875 -0.46875 -1.71875 -1.328125q-0.671875 -0.859375 -1.0 -2.0625q-0.328125 -1.203125 -0.328125 -2.703125q0 -3.203125 1.421875 -4.875q1.4375 -1.671875 4.078125 -1.671875q0.859375 0 1.703125 0.1875q0.859375 0.1875 1.53125 0.71875q0.671875 0.515625 1.09375 1.484375q0.421875 0.953125 0.421875 2.53125q0 0.828125 -0.140625 1.828125l-8.03125 0q0 1.09375 0.21875 1.953125q0.234375 0.84375 0.703125 1.4375q0.484375 0.578125 1.234375 0.890625q0.765625 0.3125 1.875 0.3125q0.84375 0 1.6875 -0.296875q0.859375 -0.296875 1.28125 -0.703125l0.75 1.453125zm-4.296875 -10.046875q-1.46875 0 -2.359375 0.78125q-0.890625 0.765625 -1.0625 2.640625l6.203125 0q0 -1.90625 -0.734375 -2.65625q-0.71875 -0.765625 -2.046875 -0.765625zm17.64795 6.75q0 1.265625 0.015625 2.3125q0.03125 1.03125 0.234375 2.03125l-1.359375 0l-0.5 -1.765625l-0.09375 0q-0.5 0.875 -1.453125 1.453125q-0.953125 0.5625 -2.21875 0.5625q-2.5 0 -3.71875 -1.5625q-1.21875 -1.578125 -1.21875 -4.9375q0 -3.203125 1.515625 -4.859375q1.515625 -1.65625 4.171875 -1.65625q0.921875 0 1.453125 0.09375q0.546875 0.09375 1.171875 0.328125l0 -5.203125l2.0 0l0 13.203125zm-5.0625 2.84375q1.28125 0 2.03125 -0.65625q0.75 -0.671875 1.03125 -2.015625l0 -6.203125q-0.453125 -0.34375 -1.03125 -0.484375q-0.578125 -0.15625 -1.53125 -0.15625q-1.71875 0 -2.703125 1.140625q-0.96875 1.125 -0.96875 3.625q0 1.03125 0.15625 1.90625q0.171875 0.875 0.546875 1.5q0.375 0.625 0.984375 0.984375q0.609375 0.359375 1.484375 0.359375zm23.95166 -3.0q0 -1.046875 -0.625 -1.703125q-0.625 -0.671875 -1.5625 -1.171875q-0.9375 -0.515625 -2.046875 -0.96875q-1.09375 -0.453125 -2.03125 -1.09375q-0.9375 -0.640625 -1.5625 -1.578125q-0.625 -0.9375 -0.625 -2.375q0 -2.0625 1.421875 -3.25q1.421875 -1.203125 4.046875 -1.203125q1.53125 0 2.78125 0.234375q1.25 0.21875 1.953125 0.5625l-0.625 1.828125q-0.578125 -0.28125 -1.703125 -0.53125q-1.109375 -0.25 -2.5 -0.25q-1.65625 0 -2.484375 0.75q-0.8125 0.734375 -0.8125 1.734375q0 0.96875 0.625 1.625q0.625 0.640625 1.5625 1.15625q0.9375 0.515625 2.03125 1.015625q1.09375 0.5 2.03125 1.171875q0.9375 0.65625 1.5625 1.578125q0.625 0.921875 0.625 2.296875q0 1.125 -0.40625 2.03125q-0.390625 0.890625 -1.171875 1.546875q-0.765625 0.640625 -1.875 1.0q-1.09375 0.34375 -2.484375 0.34375q-1.875 0 -3.109375 -0.296875q-1.21875 -0.28125 -1.890625 -0.625l0.6875 -1.875q0.578125 0.328125 1.703125 0.640625q1.125 0.3125 2.53125 0.3125q0.828125 0 1.546875 -0.15625q0.71875 -0.171875 1.25 -0.53125q0.53125 -0.359375 0.84375 -0.90625q0.3125 -0.5625 0.3125 -1.3125zm3.6992493 -8.046875l1.9375 0l0 -2.46875l2.0 -0.578125l0 3.046875l3.40625 0l0 1.75l-3.40625 0l0 6.921875q0 1.296875 0.328125 1.84375q0.328125 0.53125 1.109375 0.53125q0.640625 0 1.09375 -0.125q0.453125 -0.140625 1.0 -0.375l0.453125 1.53125q-0.671875 0.328125 -1.484375 0.515625q-0.796875 0.203125 -1.71875 0.203125q-1.53125 0 -2.15625 -0.859375q-0.625 -0.859375 -0.625 -2.890625l0 -7.296875l-1.9375 0l0 -1.75zm9.523743 6.25q0 -3.171875 1.40625 -4.859375q1.421875 -1.6875 4.078125 -1.6875q1.390625 0 2.421875 0.46875q1.046875 0.453125 1.71875 1.3125q0.6875 0.859375 1.0 2.078125q0.328125 1.21875 0.328125 2.6875q0 3.171875 -1.421875 4.859375q-1.40625 1.6875 -4.046875 1.6875q-1.40625 0 -2.453125 -0.453125q-1.03125 -0.46875 -1.703125 -1.328125q-0.671875 -0.859375 -1.0 -2.078125q-0.328125 -1.21875 -0.328125 -2.6875zm2.078125 0q0 0.953125 0.1875 1.828125q0.1875 0.875 0.578125 1.53125q0.40625 0.640625 1.0625 1.046875q0.65625 0.390625 1.578125 0.390625q3.390625 0.03125 3.390625 -4.796875q0 -0.96875 -0.1875 -1.84375q-0.1875 -0.875 -0.59375 -1.53125q-0.390625 -0.65625 -1.046875 -1.03125q-0.640625 -0.390625 -1.5625 -0.390625q-3.40625 -0.03125 -3.40625 4.796875zm18.107147 -4.328125q-0.75 -0.25 -1.421875 -0.25q-1.078125 0 -1.703125 0.59375q-0.625 0.578125 -0.78125 1.484375l0 8.75l-2.0 0l0 -12.5l1.40625 0l0.375 1.53125l0.09375 0q0.484375 -0.859375 1.140625 -1.3125q0.65625 -0.46875 1.6875 -0.46875q0.71875 0 1.625 0.25l-0.421875 1.921875zm11.830322 9.578125q-0.75 0.59375 -1.890625 0.953125q-1.125 0.34375 -2.40625 0.34375q-1.421875 0 -2.484375 -0.453125q-1.046875 -0.46875 -1.71875 -1.328125q-0.671875 -0.859375 -1.0 -2.0625q-0.328125 -1.203125 -0.328125 -2.703125q0 -3.203125 1.421875 -4.875q1.4375 -1.671875 4.078125 -1.671875q0.859375 0 1.703125 0.1875q0.859375 0.1875 1.53125 0.71875q0.671875 0.515625 1.09375 1.484375q0.421875 0.953125 0.421875 2.53125q0 0.828125 -0.140625 1.828125l-8.03125 0q0 1.09375 0.21875 1.953125q0.234375 0.84375 0.703125 1.4375q0.484375 0.578125 1.234375 0.890625q0.765625 0.3125 1.875 0.3125q0.84375 0 1.6875 -0.296875q0.859375 -0.296875 1.28125 -0.703125l0.75 1.453125zm-4.296875 -10.046875q-1.46875 0 -2.359375 0.78125q-0.890625 0.765625 -1.0625 2.640625l6.203125 0q0 -1.90625 -0.734375 -2.65625q-0.71875 -0.765625 -2.046875 -0.765625z" fill-rule="nonzero"></path><path fill="#000000" fill-opacity="0.0" d="m674.063 447.43915l0 0c0 -7.456299 6.0445557 -13.500824 13.5008545 -13.500824l188.99829 0c3.5806885 0 7.0146484 1.4223938 9.54657 3.9542847c2.5318604 2.5319214 3.9542847 5.965912 3.9542847 9.546539l0 19.801483l0 0c0 7.456299 -6.0444946 13.500824 -13.5008545 13.500824l-188.99829 0l0 0c-7.456299 0 -13.5008545 -6.044525 -13.5008545 -13.500824z" fill-rule="nonzero"></path><path stroke="#ffffff" stroke-width="2.6666666666666665" stroke-miterlimit="8.0" stroke-linecap="butt" d="m674.063 447.43915l0 0c0 -7.456299 6.0445557 -13.500824 13.5008545 -13.500824l188.99829 0c3.5806885 0 7.0146484 1.4223938 9.54657 3.9542847c2.5318604 2.5319214 3.9542847 5.965912 3.9542847 9.546539l0 19.801483l0 0c0 7.456299 -6.0444946 13.500824 -13.5008545 13.500824l-188.99829 0l0 0c-7.456299 0 -13.5008545 -6.044525 -13.5008545 -13.500824z" fill-rule="nonzero"></path><path fill="#ffffff" d="m729.1879 449.15988q0.46875 -0.078125 1.0625 -0.109375q0.59375 -0.046875 1.21875 -0.046875q0.640625 -0.015625 1.25 -0.03125q0.625 -0.015625 1.140625 -0.015625q2.109375 0 3.640625 0.65625q1.53125 0.640625 2.53125 1.8125q1.0 1.15625 1.484375 2.78125q0.5 1.625 0.5 3.578125q0 1.78125 -0.46875 3.421875q-0.453125 1.625 -1.453125 2.890625q-1.0 1.265625 -2.609375 2.03125q-1.59375 0.75 -3.875 0.75q-0.390625 0 -1.03125 -0.015625q-0.640625 0 -1.3125 -0.046875q-0.671875 -0.03125 -1.25 -0.0625q-0.578125 -0.015625 -0.828125 -0.0625l0 -17.53125zm4.71875 1.65625q-0.3125 0 -0.703125 0q-0.390625 0 -0.765625 0.03125q-0.375 0.015625 -0.6875 0.046875q-0.3125 0.015625 -0.484375 0.046875l0 14.0q0.125 0.015625 0.46875 0.03125q0.359375 0.015625 0.734375 0.03125q0.375 0 0.71875 0.015625q0.34375 0.015625 0.46875 0.015625q1.75 0 2.9375 -0.59375q1.1875 -0.609375 1.90625 -1.609375q0.71875 -1.015625 1.015625 -2.328125q0.296875 -1.3125 0.296875 -2.71875q0 -1.21875 -0.28125 -2.453125q-0.265625 -1.25 -0.953125 -2.25q-0.671875 -1.0 -1.8125 -1.625q-1.125 -0.640625 -2.859375 -0.640625zm12.064575 3.34375l2.0 0l0 12.5l-2.0 0l0 -12.5zm-0.421875 -3.796875q0 -0.578125 0.390625 -0.984375q0.390625 -0.421875 0.984375 -0.421875q0.609375 0 1.03125 0.421875q0.421875 0.40625 0.421875 0.984375q0 0.578125 -0.421875 0.953125q-0.421875 0.375 -1.03125 0.375q-0.59375 0 -0.984375 -0.375q-0.390625 -0.375 -0.390625 -0.953125zm12.287964 12.890625q0 -0.75 -0.453125 -1.171875q-0.4375 -0.421875 -1.109375 -0.703125q-0.65625 -0.296875 -1.453125 -0.546875q-0.78125 -0.265625 -1.453125 -0.671875q-0.65625 -0.421875 -1.109375 -1.0625q-0.4375 -0.65625 -0.4375 -1.765625q0 -1.796875 1.015625 -2.625q1.03125 -0.84375 2.859375 -0.84375q1.34375 0 2.25 0.234375q0.921875 0.234375 1.59375 0.5625l-0.46875 1.65625q-0.578125 -0.28125 -1.390625 -0.484375q-0.8125 -0.21875 -1.734375 -0.21875q-1.109375 0 -1.625 0.375q-0.5 0.375 -0.5 1.296875q0 0.65625 0.4375 1.015625q0.453125 0.359375 1.109375 0.65625q0.671875 0.28125 1.453125 0.5625q0.796875 0.265625 1.453125 0.71875q0.671875 0.453125 1.109375 1.140625q0.453125 0.6875 0.453125 1.8125q0 0.796875 -0.265625 1.5q-0.25 0.6875 -0.8125 1.1875q-0.546875 0.5 -1.359375 0.78125q-0.8125 0.296875 -1.90625 0.296875q-1.421875 0 -2.421875 -0.28125q-1.0 -0.265625 -1.6875 -0.640625l0.609375 -1.703125q0.578125 0.328125 1.5 0.609375q0.921875 0.265625 1.875 0.265625q1.078125 0 1.765625 -0.421875q0.703125 -0.421875 0.703125 -1.53125zm8.319397 -2.21875l-1.15625 0l0 5.625l-2.0 0l0 -17.5l2.0 0l0 10.65625l1.03125 -0.359375l3.875 -5.296875l2.328125 0l-3.828125 5.03125l-1.03125 0.8125l1.25 1.0l4.171875 5.65625l-2.46875 0l-4.171875 -5.625zm23.847961 1.171875q0 -1.046875 -0.625 -1.703125q-0.625 -0.671875 -1.5625 -1.171875q-0.9375 -0.515625 -2.046875 -0.96875q-1.09375 -0.453125 -2.03125 -1.09375q-0.9375 -0.640625 -1.5625 -1.578125q-0.625 -0.9375 -0.625 -2.375q0 -2.0625 1.421875 -3.25q1.421875 -1.203125 4.046875 -1.203125q1.53125 0 2.78125 0.234375q1.25 0.21875 1.953125 0.5625l-0.625 1.828125q-0.578125 -0.28125 -1.703125 -0.53125q-1.109375 -0.25 -2.5 -0.25q-1.65625 0 -2.484375 0.75q-0.8125 0.734375 -0.8125 1.734375q0 0.96875 0.625 1.625q0.625 0.640625 1.5625 1.15625q0.9375 0.515625 2.03125 1.015625q1.09375 0.5 2.03125 1.171875q0.9375 0.65625 1.5625 1.578125q0.625 0.921875 0.625 2.296875q0 1.125 -0.40625 2.03125q-0.390625 0.890625 -1.171875 1.546875q-0.765625 0.640625 -1.875 1.0q-1.09375 0.34375 -2.484375 0.34375q-1.875 0 -3.109375 -0.296875q-1.21875 -0.28125 -1.890625 -0.625l0.6875 -1.875q0.578125 0.328125 1.703125 0.640625q1.125 0.3125 2.53125 0.3125q0.828125 0 1.546875 -0.15625q0.71875 -0.171875 1.25 -0.53125q0.53125 -0.359375 0.84375 -0.90625q0.3125 -0.5625 0.3125 -1.3125zm3.6992188 -8.046875l1.9375 0l0 -2.46875l2.0 -0.578125l0 3.046875l3.40625 0l0 1.75l-3.40625 0l0 6.921875q0 1.296875 0.328125 1.84375q0.328125 0.53125 1.109375 0.53125q0.640625 0 1.09375 -0.125q0.453125 -0.140625 1.0 -0.375l0.453125 1.53125q-0.671875 0.328125 -1.484375 0.515625q-0.796875 0.203125 -1.71875 0.203125q-1.53125 0 -2.15625 -0.859375q-0.625 -0.859375 -0.625 -2.890625l0 -7.296875l-1.9375 0l0 -1.75zm9.523743 6.25q0 -3.171875 1.40625 -4.859375q1.421875 -1.6875 4.078125 -1.6875q1.390625 0 2.421875 0.46875q1.046875 0.453125 1.71875 1.3125q0.6875 0.859375 1.0 2.078125q0.328125 1.21875 0.328125 2.6875q0 3.171875 -1.421875 4.859375q-1.40625 1.6875 -4.046875 1.6875q-1.40625 0 -2.453125 -0.453125q-1.03125 -0.46875 -1.703125 -1.328125q-0.671875 -0.859375 -1.0 -2.078125q-0.328125 -1.21875 -0.328125 -2.6875zm2.078125 0q0 0.953125 0.1875 1.828125q0.1875 0.875 0.578125 1.53125q0.40625 0.640625 1.0625 1.046875q0.65625 0.390625 1.578125 0.390625q3.390625 0.03125 3.390625 -4.796875q0 -0.96875 -0.1875 -1.84375q-0.1875 -0.875 -0.59375 -1.53125q-0.390625 -0.65625 -1.046875 -1.03125q-0.640625 -0.390625 -1.5625 -0.390625q-3.40625 -0.03125 -3.40625 4.796875zm18.107178 -4.328125q-0.75 -0.25 -1.421875 -0.25q-1.078125 0 -1.703125 0.59375q-0.625 0.578125 -0.78125 1.484375l0 8.75l-2.0 0l0 -12.5l1.40625 0l0.375 1.53125l0.09375 0q0.484375 -0.859375 1.140625 -1.3125q0.65625 -0.46875 1.6875 -0.46875q0.71875 0 1.625 0.25l-0.421875 1.921875zm11.830322 9.578125q-0.75 0.59375 -1.890625 0.953125q-1.125 0.34375 -2.40625 0.34375q-1.421875 0 -2.484375 -0.453125q-1.046875 -0.46875 -1.71875 -1.328125q-0.671875 -0.859375 -1.0 -2.0625q-0.328125 -1.203125 -0.328125 -2.703125q0 -3.203125 1.421875 -4.875q1.4375 -1.671875 4.078125 -1.671875q0.859375 0 1.703125 0.1875q0.859375 0.1875 1.53125 0.71875q0.671875 0.515625 1.09375 1.484375q0.421875 0.953125 0.421875 2.53125q0 0.828125 -0.140625 1.828125l-8.03125 0q0 1.09375 0.21875 1.953125q0.234375 0.84375 0.703125 1.4375q0.484375 0.578125 1.234375 0.890625q0.765625 0.3125 1.875 0.3125q0.84375 0 1.6875 -0.296875q0.859375 -0.296875 1.28125 -0.703125l0.75 1.453125zm-4.296875 -10.046875q-1.46875 0 -2.359375 0.78125q-0.890625 0.765625 -1.0625 2.640625l6.203125 0q0 -1.90625 -0.734375 -2.65625q-0.71875 -0.765625 -2.046875 -0.765625z" fill-rule="nonzero"></path><path fill="#000000" fill-opacity="0.0" d="m890.063 457.3399l0 0" fill-rule="nonzero"></path><path stroke="#4c4c4c" stroke-width="2.0" stroke-linejoin="round" stroke-linecap="butt" d="m890.063 457.3399l0 0" fill-rule="nonzero"></path><path fill="#000000" fill-opacity="0.0" d="m68.0 111.63911l0 0c0 -9.918213E-4 8.087158E-4 -0.0018005371 0.0018005371 -0.0018005371l215.9982 0.0018005371c4.8828125E-4 0 9.460449E-4 1.9073486E-4 0.0012817383 5.264282E-4c3.3569336E-4 3.3569336E-4 5.187988E-4 7.9345703E-4 5.187988E-4 0.0012741089l-0.0018005371 46.801353c0 9.918213E-4 -7.9345703E-4 0.0018005371 -0.0018005371 0.0018005371l-215.9982 -0.0018005371l0 0c-9.918213E-4 0 -0.0018005371 -8.087158E-4 -0.0018005371 -0.0018005371z" fill-rule="nonzero"></path><path stroke="#ffffff" stroke-width="2.6666666666666665" stroke-miterlimit="8.0" stroke-linecap="butt" d="m68.0 111.63911l0 0c0 -9.918213E-4 8.087158E-4 -0.0018005371 0.0018005371 -0.0018005371l215.9982 0.0018005371c4.8828125E-4 0 9.460449E-4 1.9073486E-4 0.0012817383 5.264282E-4c3.3569336E-4 3.3569336E-4 5.187988E-4 7.9345703E-4 5.187988E-4 0.0012741089l-0.0018005371 46.801353c0 9.918213E-4 -7.9345703E-4 0.0018005371 -0.0018005371 0.0018005371l-215.9982 -0.0018005371l0 0c-9.918213E-4 0 -0.0018005371 -8.087158E-4 -0.0018005371 -0.0018005371z" fill-rule="nonzero"></path><path fill="#ffffff" d="m95.47921 126.86068q0.46875 -0.078125 1.0625 -0.109375q0.59375 -0.046875 1.21875 -0.046875q0.640625 -0.015625 1.25 -0.03125q0.625 -0.015625 1.140625 -0.015625q2.109375 0 3.640625 0.65625q1.53125 0.640625 2.53125 1.8125076q1.0 1.15625 1.484375 2.78125q0.5 1.625 0.5 3.578125q0 1.78125 -0.46875 3.421875q-0.453125 1.625 -1.453125 2.890625q-1.0 1.265625 -2.609375 2.03125q-1.59375 0.75 -3.875 0.75q-0.390625 0 -1.03125 -0.015625q-0.640625 0 -1.3125 -0.046875q-0.671875 -0.03125 -1.25 -0.0625q-0.578125 -0.015625 -0.828125 -0.0625l0 -17.531258zm4.71875 1.6562576q-0.3125 0 -0.703125 0q-0.390625 0 -0.765625 0.03125q-0.375 0.015625 -0.6875 0.046875q-0.3125 0.015625 -0.484375 0.046875l0 14.0q0.125 0.015625 0.46875 0.03125q0.359375 0.015625 0.734375 0.03125q0.375 0 0.71875 0.015625q0.34375 0.015625 0.46875 0.015625q1.75 0 2.9375 -0.59375q1.1875 -0.609375 1.90625 -1.609375q0.71875 -1.015625 1.015625 -2.328125q0.296875 -1.3125 0.296875 -2.71875q0 -1.21875 -0.28125 -2.453125q-0.265625 -1.25 -0.953125 -2.25q-0.671875 -1.0 -1.8125 -1.625q-1.125 -0.640625 -2.859375 -0.640625zm11.439621 4.265625q0.953125 -0.578125 2.21875 -0.84375q1.265625 -0.28125 2.640625 -0.28125q1.296875 0 2.078125 0.359375q0.796875 0.34375 1.203125 0.90625q0.421875 0.5625 0.546875 1.234375q0.140625 0.671875 0.140625 1.359375q0 1.5 -0.078125 2.921875q-0.0625 1.421875 -0.0625 2.703125q0 0.921875 0.0625 1.75q0.078125 0.8125 0.28125 1.515625l-1.46875 0l-0.53125 -1.75l-0.125 0q-0.21875 0.359375 -0.5625 0.703125q-0.34375 0.328125 -0.8125 0.59375q-0.46875 0.25 -1.09375 0.421875q-0.625 0.1875 -1.4375 0.1875q-0.796875 0 -1.484375 -0.25q-0.6875 -0.25 -1.1875 -0.703125q-0.5 -0.46875 -0.796875 -1.125q-0.28125 -0.65625 -0.28125 -1.46875q0 -1.109375 0.453125 -1.84375q0.453125 -0.734375 1.265625 -1.171875q0.8125 -0.4375 1.953125 -0.625q1.140625 -0.1875 2.515625 -0.1875q0.34375 0 0.671875 0q0.34375 0 0.703125 0.046875q0.0625 -0.75 0.0625 -1.34375q0 -1.375 -0.546875 -1.921875q-0.546875 -0.5625 -2.0 -0.5625q-0.421875 0 -0.90625 0.0625q-0.484375 0.0625 -1.0 0.1875q-0.515625 0.109375 -0.984375 0.265625q-0.453125 0.15625 -0.8125 0.359375l-0.625 -1.5zm3.5625 10.03125q0.6875 0 1.234375 -0.1875q0.5625 -0.1875 0.953125 -0.46875q0.40625 -0.296875 0.671875 -0.640625q0.265625 -0.359375 0.390625 -0.6875l0 -2.0625q-0.359375 -0.03125 -0.71875 -0.046875q-0.359375 -0.015625 -0.71875 -0.015625q-0.765625 0 -1.515625 0.09375q-0.734375 0.09375 -1.296875 0.328125q-0.5625 0.234375 -0.90625 0.65625q-0.328125 0.40625 -0.328125 1.03125q0 0.875 0.625 1.4375q0.625 0.5625 1.609375 0.5625zm7.5627747 -10.953125l1.9375 0l0 -2.46875l2.0 -0.578125l0 3.046875l3.4062424 0l0 1.75l-3.4062424 0l0 6.921875q0 1.296875 0.328125 1.84375q0.328125 0.53125 1.1093674 0.53125q0.640625 0 1.09375 -0.125q0.453125 -0.140625 1.0 -0.375l0.453125 1.53125q-0.671875 0.328125 -1.484375 0.515625q-0.796875 0.203125 -1.7187424 0.203125q-1.53125 0 -2.15625 -0.859375q-0.625 -0.859375 -0.625 -2.890625l0 -7.296875l-1.9375 0l0 -1.75zm10.023735 0.921875q0.953125 -0.578125 2.21875 -0.84375q1.265625 -0.28125 2.640625 -0.28125q1.296875 0 2.078125 0.359375q0.796875 0.34375 1.203125 0.90625q0.421875 0.5625 0.546875 1.234375q0.140625 0.671875 0.140625 1.359375q0 1.5 -0.078125 2.921875q-0.0625 1.421875 -0.0625 2.703125q0 0.921875 0.0625 1.75q0.078125 0.8125 0.28125 1.515625l-1.46875 0l-0.53125 -1.75l-0.125 0q-0.21875 0.359375 -0.5625 0.703125q-0.34375 0.328125 -0.8125 0.59375q-0.46875 0.25 -1.09375 0.421875q-0.625 0.1875 -1.4375 0.1875q-0.796875 0 -1.484375 -0.25q-0.6875 -0.25 -1.1875 -0.703125q-0.5 -0.46875 -0.796875 -1.125q-0.28125 -0.65625 -0.28125 -1.46875q0 -1.109375 0.453125 -1.84375q0.453125 -0.734375 1.265625 -1.171875q0.8125 -0.4375 1.953125 -0.625q1.140625 -0.1875 2.515625 -0.1875q0.34375 0 0.671875 0q0.34375 0 0.703125 0.046875q0.0625 -0.75 0.0625 -1.34375q0 -1.375 -0.546875 -1.921875q-0.546875 -0.5625 -2.0 -0.5625q-0.421875 0 -0.90625 0.0625q-0.484375 0.0625 -1.0 0.1875q-0.515625 0.109375 -0.984375 0.265625q-0.453125 0.15625 -0.8125 0.359375l-0.625 -1.5zm3.5625 10.03125q0.6875 0 1.234375 -0.1875q0.5625 -0.1875 0.953125 -0.46875q0.40625 -0.296875 0.671875 -0.640625q0.265625 -0.359375 0.390625 -0.6875l0 -2.0625q-0.359375 -0.03125 -0.71875 -0.046875q-0.359375 -0.015625 -0.71875 -0.015625q-0.765625 0 -1.515625 0.09375q-0.734375 0.09375 -1.296875 0.328125q-0.5625 0.234375 -0.90625 0.65625q-0.328125 0.40625 -0.328125 1.03125q0 0.875 0.625 1.4375q0.625 0.5625 1.609375 0.5625zm27.372284 0.828125q-0.75 0.5625 -1.90625 0.78125q-1.140625 0.234375 -2.453125 0.234375q-1.5625 0 -2.9375 -0.53125q-1.375 -0.546875 -2.40625 -1.640625q-1.03125 -1.09375 -1.625 -2.8125q-0.59375 -1.71875 -0.59375 -4.0625q0 -2.453125 0.65625 -4.15625q0.65625 -1.71875 1.75 -2.796875q1.09375 -1.0937576 2.4375 -1.5937576q1.34375 -0.5 2.75 -0.5q1.5 0 2.453125 0.171875q0.953125 0.15625 1.625 0.421875l-0.5 1.8281326q-1.203125 -0.578125 -3.421875 -0.578125q-1.03125 0 -2.03125 0.375q-1.0 0.375 -1.796875 1.234375q-0.78125 0.84375 -1.265625 2.21875q-0.46875 1.375 -0.46875 3.375q0 1.796875 0.453125 3.15625q0.453125 1.34375 1.234375 2.25q0.796875 0.890625 1.859375 1.34375q1.0625 0.453125 2.3125 0.453125q1.125 0 1.953125 -0.21875q0.84375 -0.234375 1.421875 -0.578125l0.5 1.625zm2.3529968 -5.53125q0 -3.171875 1.40625 -4.859375q1.421875 -1.6875 4.078125 -1.6875q1.390625 0 2.421875 0.46875q1.046875 0.453125 1.71875 1.3125q0.6875 0.859375 1.0 2.078125q0.328125 1.21875 0.328125 2.6875q0 3.171875 -1.421875 4.859375q-1.40625 1.6875 -4.046875 1.6875q-1.40625 0 -2.453125 -0.453125q-1.03125 -0.46875 -1.703125 -1.328125q-0.671875 -0.859375 -1.0 -2.078125q-0.328125 -1.21875 -0.328125 -2.6875zm2.078125 0q0 0.953125 0.1875 1.828125q0.1875 0.875 0.578125 1.53125q0.40625 0.640625 1.0625 1.046875q0.65625 0.390625 1.578125 0.390625q3.390625 0.03125 3.390625 -4.796875q0 -0.96875 -0.1875 -1.84375q-0.1875 -0.875 -0.59375 -1.53125q-0.390625 -0.65625 -1.046875 -1.03125q-0.640625 -0.390625 -1.5625 -0.390625q-3.40625 -0.03125 -3.40625 4.796875zm20.232147 6.25l0 -7.125q0 -1.953125 -0.5625 -2.9375q-0.5625 -0.984375 -2.0625 -0.984375q-1.328125 0 -2.1875 0.71875q-0.859375 0.703125 -1.21875 1.78125l0 8.546875l-2.0 0l0 -12.5l1.40625 0l0.375 1.53125l0.09375 0q0.609375 -0.8125 1.609375 -1.3125q1.015625 -0.515625 2.421875 -0.515625q1.015625 0 1.796875 0.234375q0.78125 0.234375 1.28125 0.84375q0.515625 0.59375 0.78125 1.609375q0.265625 1.015625 0.265625 2.5625l0 7.546875l-2.0 0zm11.323242 -3.40625q0 -0.75 -0.453125 -1.171875q-0.4375 -0.421875 -1.109375 -0.703125q-0.65625 -0.296875 -1.453125 -0.546875q-0.78125 -0.265625 -1.453125 -0.671875q-0.65625 -0.421875 -1.109375 -1.0625q-0.4375 -0.65625 -0.4375 -1.765625q0 -1.796875 1.015625 -2.625q1.03125 -0.84375 2.859375 -0.84375q1.34375 0 2.25 0.234375q0.921875 0.234375 1.59375 0.5625l-0.46875 1.65625q-0.578125 -0.28125 -1.390625 -0.484375q-0.8125 -0.21875 -1.734375 -0.21875q-1.109375 0 -1.625 0.375q-0.5 0.375 -0.5 1.296875q0 0.65625 0.4375 1.015625q0.453125 0.359375 1.109375 0.65625q0.671875 0.28125 1.453125 0.5625q0.796875 0.265625 1.453125 0.71875q0.671875 0.453125 1.109375 1.140625q0.453125 0.6875 0.453125 1.8125q0 0.796875 -0.265625 1.5q-0.25 0.6875 -0.8125 1.1875q-0.546875 0.5 -1.359375 0.78125q-0.8125 0.296875 -1.90625 0.296875q-1.421875 0 -2.421875 -0.28125q-1.0 -0.265625 -1.6875 -0.640625l0.609375 -1.703125q0.578125 0.328125 1.5 0.609375q0.921875 0.265625 1.875 0.265625q1.078125 0 1.765625 -0.421875q0.703125 -0.421875 0.703125 -1.53125zm6.9600525 -9.09375l0 7.125q0 0.96875 0.109375 1.71875q0.125 0.734375 0.390625 1.21875q0.28125 0.484375 0.75 0.734375q0.484375 0.25 1.203125 0.25q0.671875 0 1.203125 -0.203125q0.53125 -0.21875 0.9375 -0.59375q0.40625 -0.375 0.71875 -0.859375q0.3125 -0.484375 0.515625 -1.046875l0 -8.34375l2.0 0l0 8.953125q0 0.890625 0.0625 1.859375q0.0625 0.96875 0.21875 1.6875l-1.375 0l-0.5 -1.96875l-0.125 0q-0.578125 0.96875 -1.5625 1.625q-0.96875 0.640625 -2.46875 0.640625q-1.0 0 -1.765625 -0.234375q-0.75 -0.234375 -1.265625 -0.828125q-0.515625 -0.609375 -0.78125 -1.625q-0.265625 -1.015625 -0.265625 -2.5625l0 -7.546875l2.0 0zm19.183105 12.5l0 -7.078125q0 -1.0 -0.09375 -1.734375q-0.078125 -0.734375 -0.328125 -1.234375q-0.25 -0.5 -0.71875 -0.75q-0.453125 -0.25 -1.203125 -0.25q-1.15625 0 -1.921875 0.703125q-0.765625 0.6875 -1.0625 1.75l0 8.59375l-2.0 0l0 -12.5l1.40625 0l0.375 1.53125l0.09375 0q0.671875 -0.8125 1.5625 -1.3125q0.890625 -0.515625 2.3125 -0.515625q1.203125 0 1.96875 0.46875q0.765625 0.453125 1.1875 1.609375q0.578125 -0.984375 1.578125 -1.53125q1.015625 -0.546875 2.296875 -0.546875q1.046875 0 1.765625 0.234375q0.734375 0.234375 1.203125 0.84375q0.484375 0.59375 0.6875 1.625q0.21875 1.015625 0.21875 2.59375l0 7.5l-2.0 0l0 -7.53125q0 -0.890625 -0.09375 -1.546875q-0.078125 -0.671875 -0.34375 -1.109375q-0.265625 -0.4375 -0.734375 -0.640625q-0.453125 -0.21875 -1.203125 -0.21875q-1.25 0 -1.953125 0.703125q-0.703125 0.6875 -1.0 2.0l0 8.34375l-2.0 0zm22.363342 -1.0q-0.75 0.59375 -1.890625 0.953125q-1.125 0.34375 -2.40625 0.34375q-1.421875 0 -2.484375 -0.453125q-1.046875 -0.46875 -1.71875 -1.328125q-0.671875 -0.859375 -1.0 -2.0625q-0.328125 -1.203125 -0.328125 -2.703125q0 -3.203125 1.421875 -4.875q1.4375 -1.671875 4.078125 -1.671875q0.859375 0 1.703125 0.1875q0.859375 0.1875 1.53125 0.71875q0.671875 0.515625 1.09375 1.484375q0.421875 0.953125 0.421875 2.53125q0 0.828125 -0.140625 1.828125l-8.03125 0q0 1.09375 0.21875 1.953125q0.234375 0.84375 0.703125 1.4375q0.484375 0.578125 1.234375 0.890625q0.765625 0.3125 1.875 0.3125q0.84375 0 1.6875 -0.296875q0.859375 -0.296875 1.28125 -0.703125l0.75 1.453125zm-4.296875 -10.046875q-1.46875 0 -2.359375 0.78125q-0.890625 0.765625 -1.0625 2.640625l6.203125 0q0 -1.90625 -0.734375 -2.65625q-0.71875 -0.765625 -2.046875 -0.765625zm13.944824 0.46875q-0.75 -0.25 -1.421875 -0.25q-1.078125 0 -1.703125 0.59375q-0.625 0.578125 -0.78125 1.484375l0 8.75l-2.0 0l0 -12.5l1.40625 0l0.375 1.53125l0.09375 0q0.484375 -0.859375 1.140625 -1.3125q0.65625 -0.46875 1.6875 -0.46875q0.71875 0 1.625 0.25l-0.421875 1.921875z" fill-rule="nonzero"></path><path fill="#000000" fill-opacity="0.0" d="m372.0 111.64042l0 0c0 -9.918213E-4 7.9345703E-4 -0.0018005371 0.0018005371 -0.0018005371l215.9982 0.0018005371c4.8828125E-4 0 9.1552734E-4 1.9073486E-4 0.0012817383 5.264282E-4c3.0517578E-4 3.3569336E-4 5.493164E-4 7.9345703E-4 5.493164E-4 0.0012741089l-0.0018310547 46.801353c0 9.918213E-4 -7.9345703E-4 0.0018005371 -0.0017700195 0.0018005371l-215.99823 -0.0018005371l0 0c-0.0010070801 0 -0.0018005371 -8.087158E-4 -0.0018005371 -0.0018005371z" fill-rule="nonzero"></path><path stroke="#ffffff" stroke-width="2.6666666666666665" stroke-miterlimit="8.0" stroke-linecap="butt" d="m372.0 111.64042l0 0c0 -9.918213E-4 7.9345703E-4 -0.0018005371 0.0018005371 -0.0018005371l215.9982 0.0018005371c4.8828125E-4 0 9.1552734E-4 1.9073486E-4 0.0012817383 5.264282E-4c3.0517578E-4 3.3569336E-4 5.493164E-4 7.9345703E-4 5.493164E-4 0.0012741089l-0.0018310547 46.801353c0 9.918213E-4 -7.9345703E-4 0.0018005371 -0.0017700195 0.0018005371l-215.99823 -0.0018005371l0 0c-0.0010070801 0 -0.0018005371 -8.087158E-4 -0.0018005371 -0.0018005371z" fill-rule="nonzero"></path><path fill="#ffffff" d="m414.16 135.612q0 -4.375 1.84375 -6.703125q1.84375 -2.3437576 5.28125 -2.3437576q1.84375 0 3.1875 0.65625q1.359375 0.640625 2.234375 1.8281326q0.890625 1.1875 1.3125 2.859375q0.4375 1.65625 0.4375 3.703125q0 4.375 -1.875 6.71875q-1.859375 2.328125 -5.296875 2.328125q-1.828125 0 -3.171875 -0.640625q-1.328125 -0.65625 -2.21875 -1.84375q-0.890625 -1.1875 -1.3125 -2.84375q-0.421875 -1.671875 -0.421875 -3.71875zm2.1875 0q0 1.453125 0.28125 2.75q0.296875 1.296875 0.890625 2.296875q0.609375 0.984375 1.546875 1.578125q0.9375 0.578125 2.21875 0.578125q2.3125 0 3.640625 -1.765625q1.328125 -1.765625 1.328125 -5.4375q0 -1.421875 -0.296875 -2.734375q-0.28125 -1.3125 -0.890625 -2.296875q-0.609375 -1.0 -1.546875 -1.578125q-0.9375 -0.59375 -2.234375 -0.59375q-2.3125 0 -3.625 1.765625q-1.3125 1.765625 -1.3125 5.4375zm15.652588 -8.750008l2.0 0l0 6.2187576l0.109375 0q0.5625 -0.71875 1.453125 -1.109375q0.890625 -0.40625 1.9375 -0.40625q2.421875 0 3.640625 1.546875q1.21875 1.546875 1.21875 4.796875q0 3.28125 -1.609375 4.984375q-1.59375 1.6875 -4.5 1.6875q-1.390625 0 -2.53125 -0.296875q-1.140625 -0.296875 -1.71875 -0.640625l0 -16.781258zm5.15625 6.4531326q-1.25 0 -2.03125 0.703125q-0.765625 0.6875 -1.125 1.96875l0 6.296875q0.484375 0.28125 1.15625 0.421875q0.671875 0.125 1.390625 0.125q1.703125 0 2.71875 -1.1875q1.015625 -1.203125 1.015625 -3.75q0 -0.984375 -0.1875 -1.828125q-0.171875 -0.859375 -0.546875 -1.453125q-0.375 -0.59375 -0.96875 -0.9375q-0.578125 -0.359375 -1.421875 -0.359375zm8.927185 -1.453125l2.0 0l0 13.171875q0 2.328125 -0.8125 3.46875q-0.796875 1.15625 -2.546875 1.15625q-0.1875 0 -0.375 -0.015625q-0.171875 0 -0.375 -0.03125l0 -1.703125q0.703125 0 1.109375 -0.21875q0.421875 -0.203125 0.640625 -0.65625q0.234375 -0.453125 0.296875 -1.140625q0.0625 -0.6875 0.0625 -1.609375l0 -12.421875zm-0.421875 -3.796875q0 -0.5781326 0.375 -0.9843826q0.390625 -0.421875 1.0 -0.421875q0.59375 0 1.015625 0.421875q0.421875 0.40625 0.421875 0.9843826q0 0.578125 -0.421875 0.953125q-0.421875 0.375 -1.015625 0.375q-0.609375 0 -1.0 -0.375q-0.375 -0.375 -0.375 -0.953125zm15.903259 15.296875q-0.75 0.59375 -1.890625 0.953125q-1.125 0.34375 -2.40625 0.34375q-1.421875 0 -2.484375 -0.453125q-1.046875 -0.46875 -1.71875 -1.328125q-0.671875 -0.859375 -1.0 -2.0625q-0.328125 -1.203125 -0.328125 -2.703125q0 -3.203125 1.421875 -4.875q1.4375 -1.671875 4.078125 -1.671875q0.859375 0 1.703125 0.1875q0.859375 0.1875 1.53125 0.71875q0.671875 0.515625 1.09375 1.484375q0.421875 0.953125 0.421875 2.53125q0 0.828125 -0.140625 1.828125l-8.03125 0q0 1.09375 0.21875 1.953125q0.234375 0.84375 0.703125 1.4375q0.484375 0.578125 1.234375 0.890625q0.765625 0.3125 1.875 0.3125q0.84375 0 1.6875 -0.296875q0.859375 -0.296875 1.28125 -0.703125l0.75 1.453125zm-4.296875 -10.046875q-1.46875 0 -2.359375 0.78125q-0.890625 0.765625 -1.0625 2.640625l6.203125 0q0 -1.90625 -0.734375 -2.65625q-0.71875 -0.765625 -2.046875 -0.765625zm16.569824 10.21875q-0.75 0.546875 -1.78125 0.828125q-1.015625 0.296875 -2.140625 0.296875q-1.453125 0 -2.453125 -0.453125q-1.0 -0.46875 -1.640625 -1.328125q-0.640625 -0.859375 -0.9375 -2.078125q-0.28125 -1.21875 -0.28125 -2.6875q0 -3.171875 1.40625 -4.859375q1.40625 -1.6875 4.03125 -1.6875q1.1875 0 2.03125 0.1875q0.84375 0.1875 1.515625 0.53125l-0.578125 1.734375q-0.578125 -0.328125 -1.28125 -0.515625q-0.6875 -0.1875 -1.5 -0.1875q-3.546875 0 -3.546875 4.796875q0 0.953125 0.1875 1.8125q0.1875 0.859375 0.625 1.53125q0.4375 0.65625 1.140625 1.0625q0.71875 0.390625 1.78125 0.390625q0.890625 0 1.59375 -0.265625q0.71875 -0.28125 1.171875 -0.625l0.65625 1.515625zm1.2511292 -11.671875l1.9375 0l0 -2.46875l2.0 -0.578125l0 3.046875l3.40625 0l0 1.75l-3.40625 0l0 6.921875q0 1.296875 0.328125 1.84375q0.328125 0.53125 1.109375 0.53125q0.640625 0 1.09375 -0.125q0.453125 -0.140625 1.0 -0.375l0.453125 1.53125q-0.671875 0.328125 -1.484375 0.515625q-0.796875 0.203125 -1.71875 0.203125q-1.53125 0 -2.15625 -0.859375q-0.625 -0.859375 -0.625 -2.890625l0 -7.296875l-1.9375 0l0 -1.75zm25.098846 8.046875q0 -1.046875 -0.625 -1.703125q-0.625 -0.671875 -1.5625 -1.171875q-0.9375 -0.515625 -2.046875 -0.96875q-1.09375 -0.453125 -2.03125 -1.09375q-0.9375 -0.640625 -1.5625 -1.578125q-0.625 -0.9375 -0.625 -2.375q0 -2.0625 1.421875 -3.2500076q1.421875 -1.203125 4.046875 -1.203125q1.53125 0 2.78125 0.234375q1.25 0.21875 1.953125 0.5625l-0.625 1.8281326q-0.578125 -0.28125 -1.703125 -0.53125q-1.109375 -0.25 -2.5 -0.25q-1.65625 0 -2.484375 0.75q-0.8125 0.734375 -0.8125 1.734375q0 0.96875 0.625 1.625q0.625 0.640625 1.5625 1.15625q0.9375 0.515625 2.03125 1.015625q1.09375 0.5 2.03125 1.171875q0.9375 0.65625 1.5625 1.578125q0.625 0.921875 0.625 2.296875q0 1.125 -0.40625 2.03125q-0.390625 0.890625 -1.171875 1.546875q-0.765625 0.640625 -1.875 1.0q-1.09375 0.34375 -2.484375 0.34375q-1.875 0 -3.109375 -0.296875q-1.21875 -0.28125 -1.890625 -0.625l0.6875 -1.875q0.578125 0.328125 1.703125 0.640625q1.125 0.3125 2.53125 0.3125q0.828125 0 1.546875 -0.15625q0.71875 -0.171875 1.25 -0.53125q0.53125 -0.359375 0.84375 -0.90625q0.3125 -0.5625 0.3125 -1.3125zm3.6992493 -8.046875l1.9375 0l0 -2.46875l2.0 -0.578125l0 3.046875l3.40625 0l0 1.75l-3.40625 0l0 6.921875q0 1.296875 0.328125 1.84375q0.328125 0.53125 1.109375 0.53125q0.640625 0 1.09375 -0.125q0.453125 -0.140625 1.0 -0.375l0.453125 1.53125q-0.671875 0.328125 -1.484375 0.515625q-0.796875 0.203125 -1.71875 0.203125q-1.53125 0 -2.15625 -0.859375q-0.625 -0.859375 -0.625 -2.890625l0 -7.296875l-1.9375 0l0 -1.75zm9.523743 6.25q0 -3.171875 1.40625 -4.859375q1.421875 -1.6875 4.078125 -1.6875q1.390625 0 2.421875 0.46875q1.046875 0.453125 1.71875 1.3125q0.6875 0.859375 1.0 2.078125q0.328125 1.21875 0.328125 2.6875q0 3.171875 -1.421875 4.859375q-1.40625 1.6875 -4.046875 1.6875q-1.40625 0 -2.453125 -0.453125q-1.03125 -0.46875 -1.703125 -1.328125q-0.671875 -0.859375 -1.0 -2.078125q-0.328125 -1.21875 -0.328125 -2.6875zm2.078125 0q0 0.953125 0.1875 1.828125q0.1875 0.875 0.578125 1.53125q0.40625 0.640625 1.0625 1.046875q0.65625 0.390625 1.578125 0.390625q3.390625 0.03125 3.390625 -4.796875q0 -0.96875 -0.1875 -1.84375q-0.1875 -0.875 -0.59375 -1.53125q-0.390625 -0.65625 -1.046875 -1.03125q-0.640625 -0.390625 -1.5625 -0.390625q-3.40625 -0.03125 -3.40625 4.796875zm18.107117 -4.328125q-0.75 -0.25 -1.421875 -0.25q-1.078125 0 -1.703125 0.59375q-0.625 0.578125 -0.78125 1.484375l0 8.75l-2.0 0l0 -12.5l1.40625 0l0.375 1.53125l0.09375 0q0.484375 -0.859375 1.140625 -1.3125q0.65625 -0.46875 1.6875 -0.46875q0.71875 0 1.625 0.25l-0.421875 1.921875zm11.830322 9.578125q-0.75 0.59375 -1.890625 0.953125q-1.125 0.34375 -2.40625 0.34375q-1.421875 0 -2.484375 -0.453125q-1.046875 -0.46875 -1.71875 -1.328125q-0.671875 -0.859375 -1.0 -2.0625q-0.328125 -1.203125 -0.328125 -2.703125q0 -3.203125 1.421875 -4.875q1.4375 -1.671875 4.078125 -1.671875q0.859375 0 1.703125 0.1875q0.859375 0.1875 1.53125 0.71875q0.671875 0.515625 1.09375 1.484375q0.421875 0.953125 0.421875 2.53125q0 0.828125 -0.140625 1.828125l-8.03125 0q0 1.09375 0.21875 1.953125q0.234375 0.84375 0.703125 1.4375q0.484375 0.578125 1.234375 0.890625q0.765625 0.3125 1.875 0.3125q0.84375 0 1.6875 -0.296875q0.859375 -0.296875 1.28125 -0.703125l0.75 1.453125zm-4.296875 -10.046875q-1.46875 0 -2.359375 0.78125q-0.890625 0.765625 -1.0625 2.640625l6.203125 0q0 -1.90625 -0.734375 -2.65625q-0.71875 -0.765625 -2.046875 -0.765625z" fill-rule="nonzero"></path><path fill="#000000" fill-opacity="0.0" d="m284.0 135.04068l88.0 0" fill-rule="nonzero"></path><path stroke="#ffffff" stroke-width="4.0" stroke-linejoin="round" stroke-linecap="butt" stroke-dasharray="4.0,12.0" d="m284.0 135.04068l88.0 0" fill-rule="nonzero"></path><path fill="#000000" fill-opacity="0.0" d="m197.95276 297.29742l0 0c0 -7.456299 6.044525 -13.500824 13.500839 -13.500824l188.99834 0c3.5806274 0 7.014618 1.4223938 9.546509 3.9542847c2.5319214 2.5318909 3.9543152 5.9658813 3.9543152 9.546539l0 19.801483l0 0c0 7.456299 -6.044525 13.500824 -13.500824 13.500824l-188.99834 0l0 0c-7.456314 0 -13.500839 -6.044525 -13.500839 -13.500824z" fill-rule="nonzero"></path><path stroke="#ffffff" stroke-width="2.6666666666666665" stroke-miterlimit="8.0" stroke-linecap="butt" d="m197.95276 297.29742l0 0c0 -7.456299 6.044525 -13.500824 13.500839 -13.500824l188.99834 0c3.5806274 0 7.014618 1.4223938 9.546509 3.9542847c2.5319214 2.5318909 3.9543152 5.9658813 3.9543152 9.546539l0 19.801483l0 0c0 7.456299 -6.044525 13.500824 -13.500824 13.500824l-188.99834 0l0 0c-7.456314 0 -13.500839 -6.044525 -13.500839 -13.500824z" fill-rule="nonzero"></path><path fill="#ffffff" d="m247.87273 299.01816q0.46875 -0.078125 1.0625 -0.109375q0.59375 -0.046875 1.21875 -0.046875q0.640625 -0.015625 1.25 -0.03125q0.625 -0.015625 1.140625 -0.015625q2.109375 0 3.6406403 0.65625q1.53125 0.640625 2.53125 1.8125q1.0 1.15625 1.484375 2.78125q0.5 1.625 0.5 3.578125q0 1.78125 -0.46875 3.421875q-0.453125 1.625 -1.453125 2.890625q-1.0 1.265625 -2.609375 2.03125q-1.5937653 0.75 -3.8750153 0.75q-0.390625 0 -1.03125 -0.015625q-0.640625 0 -1.3125 -0.046875q-0.671875 -0.03125 -1.25 -0.0625q-0.578125 -0.015625 -0.828125 -0.0625l0 -17.53125zm4.71875 1.65625q-0.3125 0 -0.703125 0q-0.390625 0 -0.765625 0.03125q-0.375 0.015625 -0.6875 0.046875q-0.3125 0.015625 -0.484375 0.046875l0 14.0q0.125 0.015625 0.46875 0.03125q0.359375 0.015625 0.734375 0.03125q0.375 0 0.71875 0.015625q0.34375 0.015625 0.46875 0.015625q1.75 0 2.9375 -0.59375q1.1875153 -0.609375 1.9062653 -1.609375q0.71875 -1.015625 1.015625 -2.328125q0.296875 -1.3125 0.296875 -2.71875q0 -1.21875 -0.28125 -2.453125q-0.265625 -1.25 -0.953125 -2.25q-0.671875 -1.0 -1.8125153 -1.625q-1.125 -0.640625 -2.859375 -0.640625zm12.064621 3.34375l2.0 0l0 12.5l-2.0 0l0 -12.5zm-0.421875 -3.796875q0 -0.578125 0.390625 -0.984375q0.390625 -0.421875 0.984375 -0.421875q0.609375 0 1.03125 0.421875q0.421875 0.40625 0.421875 0.984375q0 0.578125 -0.421875 0.953125q-0.421875 0.375 -1.03125 0.375q-0.59375 0 -0.984375 -0.375q-0.390625 -0.375 -0.390625 -0.953125zm12.287964 12.890625q0 -0.75 -0.453125 -1.171875q-0.4375 -0.421875 -1.109375 -0.703125q-0.65625 -0.296875 -1.453125 -0.546875q-0.78125 -0.265625 -1.453125 -0.671875q-0.65625 -0.421875 -1.109375 -1.0625q-0.4375 -0.65625 -0.4375 -1.765625q0 -1.796875 1.015625 -2.625q1.03125 -0.84375 2.859375 -0.84375q1.34375 0 2.25 0.234375q0.921875 0.234375 1.59375 0.5625l-0.46875 1.65625q-0.578125 -0.28125 -1.390625 -0.484375q-0.8125 -0.21875 -1.734375 -0.21875q-1.109375 0 -1.625 0.375q-0.5 0.375 -0.5 1.296875q0 0.65625 0.4375 1.015625q0.453125 0.359375 1.109375 0.65625q0.671875 0.28125 1.453125 0.5625q0.796875 0.265625 1.453125 0.71875q0.671875 0.453125 1.109375 1.140625q0.453125 0.6875 0.453125 1.8125q0 0.796875 -0.265625 1.5q-0.25 0.6875 -0.8125 1.1875q-0.546875 0.5 -1.359375 0.78125q-0.8125 0.296875 -1.90625 0.296875q-1.421875 0 -2.421875 -0.28125q-1.0 -0.265625 -1.6875 -0.640625l0.609375 -1.703125q0.578125 0.328125 1.5 0.609375q0.921875 0.265625 1.875 0.265625q1.078125 0 1.765625 -0.421875q0.703125 -0.421875 0.703125 -1.53125zm3.522522 -9.09375l1.9375 0l0 -2.46875l2.0 -0.578125l0 3.046875l3.40625 0l0 1.75l-3.40625 0l0 6.921875q0 1.296875 0.328125 1.84375q0.328125 0.53125 1.109375 0.53125q0.640625 0 1.09375 -0.125q0.453125 -0.140625 1.0 -0.375l0.453125 1.53125q-0.671875 0.328125 -1.484375 0.515625q-0.796875 0.203125 -1.71875 0.203125q-1.53125 0 -2.15625 -0.859375q-0.625 -0.859375 -0.625 -2.890625l0 -7.296875l-1.9375 0l0 -1.75zm16.133118 1.921875q-0.75 -0.25 -1.421875 -0.25q-1.078125 0 -1.703125 0.59375q-0.625 0.578125 -0.78125 1.484375l0 8.75l-2.0 0l0 -12.5l1.40625 0l0.375 1.53125l0.09375 0q0.484375 -0.859375 1.140625 -1.3125q0.65625 -0.46875 1.6875 -0.46875q0.71875 0 1.625 0.25l-0.421875 1.921875zm3.1271973 -1.921875l2.0 0l0 12.5l-2.0 0l0 -12.5zm-0.421875 -3.796875q0 -0.578125 0.390625 -0.984375q0.390625 -0.421875 0.984375 -0.421875q0.609375 0 1.03125 0.421875q0.421875 0.40625 0.421875 0.984375q0 0.578125 -0.421875 0.953125q-0.421875 0.375 -1.03125 0.375q-0.59375 0 -0.984375 -0.375q-0.390625 -0.375 -0.390625 -0.953125zm6.787964 -1.203125l2.0 0l0 6.21875l0.109375 0q0.5625 -0.71875 1.453125 -1.109375q0.890625 -0.40625 1.9375 -0.40625q2.421875 0 3.640625 1.546875q1.21875 1.546875 1.21875 4.796875q0 3.28125 -1.609375 4.984375q-1.59375 1.6875 -4.5 1.6875q-1.390625 0 -2.53125 -0.296875q-1.140625 -0.296875 -1.71875 -0.640625l0 -16.78125zm5.15625 6.453125q-1.25 0 -2.03125 0.703125q-0.765625 0.6875 -1.125 1.96875l0 6.296875q0.484375 0.28125 1.15625 0.421875q0.671875 0.125 1.390625 0.125q1.703125 0 2.71875 -1.1875q1.015625 -1.203125 1.015625 -3.75q0 -0.984375 -0.1875 -1.828125q-0.171875 -0.859375 -0.546875 -1.453125q-0.375 -0.59375 -0.96875 -0.9375q-0.578125 -0.359375 -1.421875 -0.359375zm10.31781 -1.453125l0 7.125q0 0.96875 0.109375 1.71875q0.125 0.734375 0.390625 1.21875q0.28125 0.484375 0.75 0.734375q0.484375 0.25 1.203125 0.25q0.671875 0 1.203125 -0.203125q0.53125 -0.21875 0.9375 -0.59375q0.40625 -0.375 0.71875 -0.859375q0.3125 -0.484375 0.515625 -1.046875l0 -8.34375l2.0 0l0 8.953125q0 0.890625 0.0625 1.859375q0.0625 0.96875 0.21875 1.6875l-1.375 0l-0.5 -1.96875l-0.125 0q-0.578125 0.96875 -1.5625 1.625q-0.96875 0.640625 -2.46875 0.640625q-1.0 0 -1.765625 -0.234375q-0.75 -0.234375 -1.265625 -0.828125q-0.515625 -0.609375 -0.78125 -1.625q-0.265625 -1.015625 -0.265625 -2.5625l0 -7.546875l2.0 0zm10.214386 0l1.9375 0l0 -2.46875l2.0 -0.578125l0 3.046875l3.40625 0l0 1.75l-3.40625 0l0 6.921875q0 1.296875 0.328125 1.84375q0.328125 0.53125 1.109375 0.53125q0.640625 0 1.09375 -0.125q0.453125 -0.140625 1.0 -0.375l0.453125 1.53125q-0.671875 0.328125 -1.484375 0.515625q-0.796875 0.203125 -1.71875 0.203125q-1.53125 0 -2.15625 -0.859375q-0.625 -0.859375 -0.625 -2.890625l0 -7.296875l-1.9375 0l0 -1.75zm19.351868 11.5q-0.75 0.59375 -1.890625 0.953125q-1.125 0.34375 -2.40625 0.34375q-1.421875 0 -2.484375 -0.453125q-1.046875 -0.46875 -1.71875 -1.328125q-0.671875 -0.859375 -1.0 -2.0625q-0.328125 -1.203125 -0.328125 -2.703125q0 -3.203125 1.421875 -4.875q1.4375 -1.671875 4.078125 -1.671875q0.859375 0 1.703125 0.1875q0.859375 0.1875 1.53125 0.71875q0.671875 0.515625 1.09375 1.484375q0.421875 0.953125 0.421875 2.53125q0 0.828125 -0.140625 1.828125l-8.03125 0q0 1.09375 0.21875 1.953125q0.234375 0.84375 0.703125 1.4375q0.484375 0.578125 1.234375 0.890625q0.765625 0.3125 1.875 0.3125q0.84375 0 1.6875 -0.296875q0.859375 -0.296875 1.28125 -0.703125l0.75 1.453125zm-4.296875 -10.046875q-1.46875 0 -2.359375 0.78125q-0.890625 0.765625 -1.0625 2.640625l6.203125 0q0 -1.90625 -0.734375 -2.65625q-0.71875 -0.765625 -2.046875 -0.765625zm17.64795 6.75q0 1.265625 0.015625 2.3125q0.03125 1.03125 0.234375 2.03125l-1.359375 0l-0.5 -1.765625l-0.09375 0q-0.5 0.875 -1.453125 1.453125q-0.953125 0.5625 -2.21875 0.5625q-2.5 0 -3.71875 -1.5625q-1.21875 -1.578125 -1.21875 -4.9375q0 -3.203125 1.515625 -4.859375q1.515625 -1.65625 4.171875 -1.65625q0.921875 0 1.453125 0.09375q0.546875 0.09375 1.171875 0.328125l0 -5.203125l2.0 0l0 13.203125zm-5.0625 2.84375q1.28125 0 2.03125 -0.65625q0.75 -0.671875 1.03125 -2.015625l0 -6.203125q-0.453125 -0.34375 -1.03125 -0.484375q-0.578125 -0.15625 -1.53125 -0.15625q-1.71875 0 -2.703125 1.140625q-0.96875 1.125 -0.96875 3.625q0 1.03125 0.15625 1.90625q0.171875 0.875 0.546875 1.5q0.375 0.625 0.984375 0.984375q0.609375 0.359375 1.484375 0.359375z" fill-rule="nonzero"></path><path fill="#000000" fill-opacity="0.0" d="m197.95276 344.1006l0 0c0 -7.4563293 6.044525 -13.5008545 13.500839 -13.5008545l188.99834 0c3.5806274 0 7.014618 1.4224243 9.546509 3.9543152c2.5319214 2.5318909 3.9543152 5.9658813 3.9543152 9.546539l0 19.801453l0 0c0 7.4563293 -6.044525 13.5008545 -13.500824 13.5008545l-188.99834 0l0 0c-7.456314 0 -13.500839 -6.044525 -13.500839 -13.5008545z" fill-rule="nonzero"></path><path stroke="#ffffff" stroke-width="2.6666666666666665" stroke-miterlimit="8.0" stroke-linecap="butt" d="m197.95276 344.1006l0 0c0 -7.4563293 6.044525 -13.5008545 13.500839 -13.5008545l188.99834 0c3.5806274 0 7.014618 1.4224243 9.546509 3.9543152c2.5319214 2.5318909 3.9543152 5.9658813 3.9543152 9.546539l0 19.801453l0 0c0 7.4563293 -6.044525 13.5008545 -13.500824 13.5008545l-188.99834 0l0 0c-7.456314 0 -13.500839 -6.044525 -13.500839 -13.5008545z" fill-rule="nonzero"></path><path fill="#ffffff" d="m253.59244 355.29007l-8.390625 0l0 8.03125l-2.078125 0l0 -17.5l2.078125 0l0 7.625l8.390625 0l0 -7.625l2.078125 0l0 17.5l-2.078125 0l0 -8.03125zm6.770508 -4.46875l2.0 0l0 12.5l-2.0 0l0 -12.5zm-0.421875 -3.796875q0 -0.578125 0.390625 -0.984375q0.390625 -0.421875 0.984375 -0.421875q0.609375 0 1.03125 0.421875q0.421875 0.40625 0.421875 0.984375q0 0.578125 -0.421875 0.953125q-0.421875 0.375 -1.03125 0.375q-0.59375 0 -0.984375 -0.375q-0.390625 -0.375 -0.390625 -0.953125zm15.912964 15.296875q-0.75 0.59375 -1.890625 0.953125q-1.125 0.34375 -2.40625 0.34375q-1.421875 0 -2.484375 -0.453125q-1.046875 -0.46875 -1.71875 -1.328125q-0.671875 -0.859375 -1.0 -2.0625q-0.328125 -1.203125 -0.328125 -2.703125q0 -3.203125 1.421875 -4.875q1.4375 -1.671875 4.078125 -1.671875q0.859375 0 1.703125 0.1875q0.859375 0.1875 1.53125 0.71875q0.671875 0.515625 1.09375 1.484375q0.421875 0.953125 0.421875 2.53125q0 0.828125 -0.140625 1.828125l-8.03125 0q0 1.09375 0.21875 1.953125q0.234375 0.84375 0.703125 1.4375q0.484375 0.578125 1.234375 0.890625q0.765625 0.3125 1.875 0.3125q0.84375 0 1.6875 -0.296875q0.859375 -0.296875 1.28125 -0.703125l0.75 1.453125zm-4.296875 -10.046875q-1.46875 0 -2.359375 0.78125q-0.890625 0.765625 -1.0625 2.640625l6.203125 0q0 -1.90625 -0.734375 -2.65625q-0.71875 -0.765625 -2.046875 -0.765625zm13.944824 0.46875q-0.75 -0.25 -1.421875 -0.25q-1.078125 0 -1.703125 0.59375q-0.625 0.578125 -0.78125 1.484375l0 8.75l-2.0 0l0 -12.5l1.40625 0l0.375 1.53125l0.09375 0q0.484375 -0.859375 1.140625 -1.3125q0.65625 -0.46875 1.6875 -0.46875q0.71875 0 1.625 0.25l-0.421875 1.921875zm2.5021973 -1.0q0.953125 -0.578125 2.21875 -0.84375q1.265625 -0.28125 2.640625 -0.28125q1.296875 0 2.078125 0.359375q0.796875 0.34375 1.203125 0.90625q0.421875 0.5625 0.546875 1.234375q0.140625 0.671875 0.140625 1.359375q0 1.5 -0.078125 2.921875q-0.0625 1.421875 -0.0625 2.703125q0 0.921875 0.0625 1.75q0.078125 0.8125 0.28125 1.515625l-1.46875 0l-0.53125 -1.75l-0.125 0q-0.21875 0.359375 -0.5625 0.703125q-0.34375 0.328125 -0.8125 0.59375q-0.46875 0.25 -1.09375 0.421875q-0.625 0.1875 -1.4375 0.1875q-0.796875 0 -1.484375 -0.25q-0.6875 -0.25 -1.1875 -0.703125q-0.5 -0.46875 -0.796875 -1.125q-0.28125 -0.65625 -0.28125 -1.46875q0 -1.109375 0.453125 -1.84375q0.453125 -0.734375 1.265625 -1.171875q0.8125 -0.4375 1.953125 -0.625q1.140625 -0.1875 2.515625 -0.1875q0.34375 0 0.671875 0q0.34375 0 0.703125 0.046875q0.0625 -0.75 0.0625 -1.34375q0 -1.375 -0.546875 -1.921875q-0.546875 -0.5625 -2.0 -0.5625q-0.421875 0 -0.90625 0.0625q-0.484375 0.0625 -1.0 0.1875q-0.515625 0.109375 -0.984375 0.265625q-0.453125 0.15625 -0.8125 0.359375l-0.625 -1.5zm3.5625 10.03125q0.6875 0 1.234375 -0.1875q0.5625 -0.1875 0.953125 -0.46875q0.40625 -0.296875 0.671875 -0.640625q0.265625 -0.359375 0.390625 -0.6875l0 -2.0625q-0.359375 -0.03125 -0.71875 -0.046875q-0.359375 -0.015625 -0.71875 -0.015625q-0.765625 0 -1.515625 0.09375q-0.734375 0.09375 -1.296875 0.328125q-0.5625 0.234375 -0.90625 0.65625q-0.328125 0.40625 -0.328125 1.03125q0 0.875 0.625 1.4375q0.625 0.5625 1.609375 0.5625zm15.10965 -9.03125q-0.75 -0.25 -1.421875 -0.25q-1.078125 0 -1.703125 0.59375q-0.625 0.578125 -0.78125 1.484375l0 8.75l-2.0 0l0 -12.5l1.40625 0l0.375 1.53125l0.09375 0q0.484375 -0.859375 1.140625 -1.3125q0.65625 -0.46875 1.6875 -0.46875q0.71875 0 1.625 0.25l-0.421875 1.921875zm11.236572 9.75q-0.75 0.546875 -1.78125 0.828125q-1.015625 0.296875 -2.140625 0.296875q-1.453125 0 -2.453125 -0.453125q-1.0 -0.46875 -1.640625 -1.328125q-0.640625 -0.859375 -0.9375 -2.078125q-0.28125 -1.21875 -0.28125 -2.6875q0 -3.171875 1.40625 -4.859375q1.40625 -1.6875 4.03125 -1.6875q1.1875 0 2.03125 0.1875q0.84375 0.1875 1.515625 0.53125l-0.578125 1.734375q-0.578125 -0.328125 -1.28125 -0.515625q-0.6875 -0.1875 -1.5 -0.1875q-3.546875 0 -3.546875 4.796875q0 0.953125 0.1875 1.8125q0.1875 0.859375 0.625 1.53125q0.4375 0.65625 1.140625 1.0625q0.71875 0.390625 1.78125 0.390625q0.890625 0 1.59375 -0.265625q0.71875 -0.28125 1.171875 -0.625l0.65625 1.515625zm10.923004 0.828125l0 -7.125q0 -0.96875 -0.125 -1.703125q-0.109375 -0.75 -0.40625 -1.234375q-0.296875 -0.484375 -0.8125 -0.734375q-0.515625 -0.25 -1.328125 -0.25q-1.1875 0 -2.140625 0.765625q-0.9375 0.75 -1.21875 1.953125l0 8.328125l-2.0 0l0 -17.5l2.0 0l0 6.40625l0.109375 0q0.640625 -0.78125 1.546875 -1.234375q0.921875 -0.46875 2.265625 -0.46875q1.0625 0 1.828125 0.234375q0.78125 0.234375 1.28125 0.84375q0.515625 0.59375 0.75 1.609375q0.25 1.015625 0.25 2.5625l0 7.546875l-2.0 0zm6.245117 -12.5l2.0 0l0 12.5l-2.0 0l0 -12.5zm-0.421875 -3.796875q0 -0.578125 0.390625 -0.984375q0.390625 -0.421875 0.984375 -0.421875q0.609375 0 1.03125 0.421875q0.421875 0.40625 0.421875 0.984375q0 0.578125 -0.421875 0.953125q-0.421875 0.375 -1.03125 0.375q-0.59375 0 -0.984375 -0.375q-0.390625 -0.375 -0.390625 -0.953125zm15.319214 15.46875q-0.75 0.546875 -1.78125 0.828125q-1.015625 0.296875 -2.140625 0.296875q-1.453125 0 -2.453125 -0.453125q-1.0 -0.46875 -1.640625 -1.328125q-0.640625 -0.859375 -0.9375 -2.078125q-0.28125 -1.21875 -0.28125 -2.6875q0 -3.171875 1.40625 -4.859375q1.40625 -1.6875 4.03125 -1.6875q1.1875 0 2.03125 0.1875q0.84375 0.1875 1.515625 0.53125l-0.578125 1.734375q-0.578125 -0.328125 -1.28125 -0.515625q-0.6875 -0.1875 -1.5 -0.1875q-3.546875 0 -3.546875 4.796875q0 0.953125 0.1875 1.8125q0.1875 0.859375 0.625 1.53125q0.4375 0.65625 1.140625 1.0625q0.71875 0.390625 1.78125 0.390625q0.890625 0 1.59375 -0.265625q0.71875 -0.28125 1.171875 -0.625l0.65625 1.515625zm2.6886292 -10.75q0.953125 -0.578125 2.21875 -0.84375q1.265625 -0.28125 2.640625 -0.28125q1.296875 0 2.078125 0.359375q0.796875 0.34375 1.203125 0.90625q0.421875 0.5625 0.546875 1.234375q0.140625 0.671875 0.140625 1.359375q0 1.5 -0.078125 2.921875q-0.0625 1.421875 -0.0625 2.703125q0 0.921875 0.0625 1.75q0.078125 0.8125 0.28125 1.515625l-1.46875 0l-0.53125 -1.75l-0.125 0q-0.21875 0.359375 -0.5625 0.703125q-0.34375 0.328125 -0.8125 0.59375q-0.46875 0.25 -1.09375 0.421875q-0.625 0.1875 -1.4375 0.1875q-0.796875 0 -1.484375 -0.25q-0.6875 -0.25 -1.1875 -0.703125q-0.5 -0.46875 -0.796875 -1.125q-0.28125 -0.65625 -0.28125 -1.46875q0 -1.109375 0.453125 -1.84375q0.453125 -0.734375 1.265625 -1.171875q0.8125 -0.4375 1.953125 -0.625q1.140625 -0.1875 2.515625 -0.1875q0.34375 0 0.671875 0q0.34375 0 0.703125 0.046875q0.0625 -0.75 0.0625 -1.34375q0 -1.375 -0.546875 -1.921875q-0.546875 -0.5625 -2.0 -0.5625q-0.421875 0 -0.90625 0.0625q-0.484375 0.0625 -1.0 0.1875q-0.515625 0.109375 -0.984375 0.265625q-0.453125 0.15625 -0.8125 0.359375l-0.625 -1.5zm3.5625 10.03125q0.6875 0 1.234375 -0.1875q0.5625 -0.1875 0.953125 -0.46875q0.40625 -0.296875 0.671875 -0.640625q0.265625 -0.359375 0.390625 -0.6875l0 -2.0625q-0.359375 -0.03125 -0.71875 -0.046875q-0.359375 -0.015625 -0.71875 -0.015625q-0.765625 0 -1.515625 0.09375q-0.734375 0.09375 -1.296875 0.328125q-0.5625 0.234375 -0.90625 0.65625q-0.328125 0.40625 -0.328125 1.03125q0 0.875 0.625 1.4375q0.625 0.5625 1.609375 0.5625zm11.437775 -1.53125q0 0.875 0.296875 1.25q0.296875 0.375 0.84375 0.375q0.328125 0 0.703125 -0.046875q0.375 -0.046875 0.84375 -0.21875l0.234375 1.5625q-0.40625 0.203125 -1.125 0.328125q-0.703125 0.125 -1.234375 0.125q-1.125 0 -1.84375 -0.625q-0.71875 -0.640625 -0.71875 -2.171875l0 -15.0l2.0 0l0 14.421875z" fill-rule="nonzero"></path><path fill="#000000" fill-opacity="0.0" d="m652.126 293.15076l0 0c0 -26.282715 21.306396 -47.58908 47.58911 -47.58908l164.6958 0l0 0c12.62146 0 24.725891 5.0138397 33.650574 13.938538c8.924683 8.924683 13.938538 21.029144 13.938538 33.650543l0 69.79822c0 26.282715 -21.306335 47.58908 -47.58911 47.58908l-164.6958 0c-26.282715 0 -47.58911 -21.306366 -47.58911 -47.58908z" fill-rule="nonzero"></path><path stroke="#ffffff" stroke-width="2.6666666666666665" stroke-miterlimit="8.0" stroke-linecap="butt" d="m652.126 293.15076l0 0c0 -26.282715 21.306396 -47.58908 47.58911 -47.58908l164.6958 0l0 0c12.62146 0 24.725891 5.0138397 33.650574 13.938538c8.924683 8.924683 13.938538 21.029144 13.938538 33.650543l0 69.79822c0 26.282715 -21.306335 47.58908 -47.58911 47.58908l-164.6958 0c-26.282715 0 -47.58911 -21.306366 -47.58911 -47.58908z" fill-rule="nonzero"></path><path fill="#ffffff" d="m720.19183 286.1013q-0.75 0.5625 -1.90625 0.78125q-1.140625 0.234375 -2.453125 0.234375q-1.5625 0 -2.9375 -0.53125q-1.375 -0.546875 -2.40625 -1.640625q-1.03125 -1.09375 -1.625 -2.8125q-0.59375 -1.71875 -0.59375 -4.0625q0 -2.453125 0.65625 -4.15625q0.65625 -1.71875 1.75 -2.796875q1.09375 -1.09375 2.4375 -1.59375q1.34375 -0.5 2.75 -0.5q1.5 0 2.453125 0.171875q0.953125 0.15625 1.625 0.421875l-0.5 1.828125q-1.203125 -0.578125 -3.421875 -0.578125q-1.03125 0 -2.03125 0.375q-1.0 0.375 -1.796875 1.234375q-0.78125 0.84375 -1.265625 2.21875q-0.46875 1.375 -0.46875 3.375q0 1.796875 0.453125 3.15625q0.453125 1.34375 1.234375 2.25q0.796875 0.890625 1.859375 1.34375q1.0625 0.453125 2.3125 0.453125q1.125 0 1.953125 -0.21875q0.84375 -0.234375 1.421875 -0.578125l0.5 1.625zm2.8529663 -10.859375q0.953125 -0.578125 2.21875 -0.84375q1.265625 -0.28125 2.640625 -0.28125q1.296875 0 2.078125 0.359375q0.796875 0.34375 1.203125 0.90625q0.421875 0.5625 0.546875 1.234375q0.140625 0.671875 0.140625 1.359375q0 1.5 -0.078125 2.921875q-0.0625 1.421875 -0.0625 2.703125q0 0.921875 0.0625 1.75q0.078125 0.8125 0.28125 1.515625l-1.46875 0l-0.53125 -1.75l-0.125 0q-0.21875 0.359375 -0.5625 0.703125q-0.34375 0.328125 -0.8125 0.59375q-0.46875 0.25 -1.09375 0.421875q-0.625 0.1875 -1.4375 0.1875q-0.796875 0 -1.484375 -0.25q-0.6875 -0.25 -1.1875 -0.703125q-0.5 -0.46875 -0.796875 -1.125q-0.28125 -0.65625 -0.28125 -1.46875q0 -1.109375 0.453125 -1.84375q0.453125 -0.734375 1.265625 -1.171875q0.8125 -0.4375 1.953125 -0.625q1.140625 -0.1875 2.515625 -0.1875q0.34375 0 0.671875 0q0.34375 0 0.703125 0.046875q0.0625 -0.75 0.0625 -1.34375q0 -1.375 -0.546875 -1.921875q-0.546875 -0.5625 -2.0 -0.5625q-0.421875 0 -0.90625 0.0625q-0.484375 0.0625 -1.0 0.1875q-0.515625 0.109375 -0.984375 0.265625q-0.453125 0.15625 -0.8125 0.359375l-0.625 -1.5zm3.5625 10.03125q0.6875 0 1.234375 -0.1875q0.5625 -0.1875 0.953125 -0.46875q0.40625 -0.296875 0.671875 -0.640625q0.265625 -0.359375 0.390625 -0.6875l0 -2.0625q-0.359375 -0.03125 -0.71875 -0.046875q-0.359375 -0.015625 -0.71875 -0.015625q-0.765625 0 -1.515625 0.09375q-0.734375 0.09375 -1.296875 0.328125q-0.5625 0.234375 -0.90625 0.65625q-0.328125 0.40625 -0.328125 1.03125q0 0.875 0.625 1.4375q0.625 0.5625 1.609375 0.5625zm17.73468 0.71875q-0.75 0.546875 -1.78125 0.828125q-1.015625 0.296875 -2.140625 0.296875q-1.453125 0 -2.453125 -0.453125q-1.0 -0.46875 -1.640625 -1.328125q-0.640625 -0.859375 -0.9375 -2.078125q-0.28125 -1.21875 -0.28125 -2.6875q0 -3.171875 1.40625 -4.859375q1.40625 -1.6875 4.03125 -1.6875q1.1875 0 2.03125 0.1875q0.84375 0.1875 1.515625 0.53125l-0.578125 1.734375q-0.578125 -0.328125 -1.28125 -0.515625q-0.6875 -0.1875 -1.5 -0.1875q-3.546875 0 -3.546875 4.796875q0 0.953125 0.1875 1.8125q0.1875 0.859375 0.625 1.53125q0.4375 0.65625 1.140625 1.0625q0.71875 0.390625 1.78125 0.390625q0.890625 0 1.59375 -0.265625q0.71875 -0.28125 1.171875 -0.625l0.65625 1.515625zm10.922974 0.828125l0 -7.125q0 -0.96875 -0.125 -1.703125q-0.109375 -0.75 -0.40625 -1.234375q-0.296875 -0.484375 -0.8125 -0.734375q-0.515625 -0.25 -1.328125 -0.25q-1.1875 0 -2.140625 0.765625q-0.9375 0.75 -1.21875 1.953125l0 8.328125l-2.0 0l0 -17.5l2.0 0l0 6.40625l0.109375 0q0.640625 -0.78125 1.546875 -1.234375q0.921875 -0.46875 2.265625 -0.46875q1.0625 0 1.828125 0.234375q0.78125 0.234375 1.28125 0.84375q0.515625 0.59375 0.75 1.609375q0.25 1.015625 0.25 2.5625l0 7.546875l-2.0 0zm6.245117 -12.5l2.0 0l0 12.5l-2.0 0l0 -12.5zm-0.421875 -3.796875q0 -0.578125 0.390625 -0.984375q0.390625 -0.421875 0.984375 -0.421875q0.609375 0 1.03125 0.421875q0.421875 0.40625 0.421875 0.984375q0 0.578125 -0.421875 0.953125q-0.421875 0.375 -1.03125 0.375q-0.59375 0 -0.984375 -0.375q-0.390625 -0.375 -0.390625 -0.953125zm14.819214 16.296875l0 -7.125q0 -1.953125 -0.5625 -2.9375q-0.5625 -0.984375 -2.0625 -0.984375q-1.328125 0 -2.1875 0.71875q-0.859375 0.703125 -1.21875 1.78125l0 8.546875l-2.0 0l0 -12.5l1.40625 0l0.375 1.53125l0.09375 0q0.609375 -0.8125 1.609375 -1.3125q1.015625 -0.515625 2.421875 -0.515625q1.015625 0 1.796875 0.234375q0.78125 0.234375 1.28125 0.84375q0.515625 0.59375 0.78125 1.609375q0.265625 1.015625 0.265625 2.5625l0 7.546875l-2.0 0zm15.401367 0.578125q0 2.421875 -1.296875 3.5625q-1.28125 1.15625 -3.796875 1.15625q-1.5 0 -2.421875 -0.1875q-0.90625 -0.1875 -1.5625 -0.484375l0.53125 -1.703125q0.578125 0.234375 1.265625 0.421875q0.703125 0.203125 1.828125 0.203125q1.046875 0 1.703125 -0.1875q0.671875 -0.1875 1.0625 -0.625q0.40625 -0.4375 0.5625 -1.125q0.15625 -0.6875 0.15625 -1.640625l0 -1.1875l-0.109375 0q-0.5 0.71875 -1.28125 1.109375q-0.765625 0.390625 -2.015625 0.390625q-2.53125 0 -3.71875 -1.578125q-1.1875 -1.578125 -1.1875 -4.90625q0 -3.203125 1.53125 -4.859375q1.53125 -1.65625 4.5 -1.65625q1.421875 0 2.4375 0.21875q1.015625 0.21875 1.8125 0.53125l0 12.546875zm-5.03125 -2.046875q1.28125 0 2.0 -0.640625q0.734375 -0.640625 1.03125 -1.984375l0 -6.40625q-1.0 -0.46875 -2.546875 -0.46875q-1.703125 0 -2.6875 1.15625q-0.96875 1.140625 -0.96875 3.59375q0 1.046875 0.171875 1.921875q0.1875 0.875 0.5625 1.5q0.375 0.625 0.96875 0.984375q0.59375 0.34375 1.46875 0.34375zm23.926392 -2.984375q0 -1.046875 -0.625 -1.703125q-0.625 -0.671875 -1.5625 -1.171875q-0.9375 -0.515625 -2.046875 -0.96875q-1.09375 -0.453125 -2.03125 -1.09375q-0.9375 -0.640625 -1.5625 -1.578125q-0.625 -0.9375 -0.625 -2.375q0 -2.0625 1.421875 -3.25q1.421875 -1.203125 4.046875 -1.203125q1.53125 0 2.78125 0.234375q1.25 0.21875 1.953125 0.5625l-0.625 1.828125q-0.578125 -0.28125 -1.703125 -0.53125q-1.109375 -0.25 -2.5 -0.25q-1.65625 0 -2.484375 0.75q-0.8125 0.734375 -0.8125 1.734375q0 0.96875 0.625 1.625q0.625 0.640625 1.5625 1.15625q0.9375 0.515625 2.03125 1.015625q1.09375 0.5 2.03125 1.171875q0.9375 0.65625 1.5625 1.578125q0.625 0.921875 0.625 2.296875q0 1.125 -0.40625 2.03125q-0.390625 0.890625 -1.171875 1.546875q-0.765625 0.640625 -1.875 1.0q-1.09375 0.34375 -2.484375 0.34375q-1.875 0 -3.109375 -0.296875q-1.21875 -0.28125 -1.890625 -0.625l0.6875 -1.875q0.578125 0.328125 1.703125 0.640625q1.125 0.3125 2.53125 0.3125q0.828125 0 1.546875 -0.15625q0.71875 -0.171875 1.25 -0.53125q0.53125 -0.359375 0.84375 -0.90625q0.3125 -0.5625 0.3125 -1.3125zm3.6992188 -8.046875l1.9375 0l0 -2.46875l2.0 -0.578125l0 3.046875l3.40625 0l0 1.75l-3.40625 0l0 6.921875q0 1.296875 0.328125 1.84375q0.328125 0.53125 1.109375 0.53125q0.640625 0 1.09375 -0.125q0.453125 -0.140625 1.0 -0.375l0.453125 1.53125q-0.671875 0.328125 -1.484375 0.515625q-0.796875 0.203125 -1.71875 0.203125q-1.53125 0 -2.15625 -0.859375q-0.625 -0.859375 -0.625 -2.890625l0 -7.296875l-1.9375 0l0 -1.75zm9.523743 6.25q0 -3.171875 1.40625 -4.859375q1.421875 -1.6875 4.078125 -1.6875q1.390625 0 2.421875 0.46875q1.046875 0.453125 1.71875 1.3125q0.6875 0.859375 1.0 2.078125q0.328125 1.21875 0.328125 2.6875q0 3.171875 -1.421875 4.859375q-1.40625 1.6875 -4.046875 1.6875q-1.40625 0 -2.453125 -0.453125q-1.03125 -0.46875 -1.703125 -1.328125q-0.671875 -0.859375 -1.0 -2.078125q-0.328125 -1.21875 -0.328125 -2.6875zm2.078125 0q0 0.953125 0.1875 1.828125q0.1875 0.875 0.578125 1.53125q0.40625 0.640625 1.0625 1.046875q0.65625 0.390625 1.578125 0.390625q3.390625 0.03125 3.390625 -4.796875q0 -0.96875 -0.1875 -1.84375q-0.1875 -0.875 -0.59375 -1.53125q-0.390625 -0.65625 -1.046875 -1.03125q-0.640625 -0.390625 -1.5625 -0.390625q-3.40625 -0.03125 -3.40625 4.796875zm18.107178 -4.328125q-0.75 -0.25 -1.421875 -0.25q-1.078125 0 -1.703125 0.59375q-0.625 0.578125 -0.78125 1.484375l0 8.75l-2.0 0l0 -12.5l1.40625 0l0.375 1.53125l0.09375 0q0.484375 -0.859375 1.140625 -1.3125q0.65625 -0.46875 1.6875 -0.46875q0.71875 0 1.625 0.25l-0.421875 1.921875zm11.830322 9.578125q-0.75 0.59375 -1.890625 0.953125q-1.125 0.34375 -2.40625 0.34375q-1.421875 0 -2.484375 -0.453125q-1.046875 -0.46875 -1.71875 -1.328125q-0.671875 -0.859375 -1.0 -2.0625q-0.328125 -1.203125 -0.328125 -2.703125q0 -3.203125 1.421875 -4.875q1.4375 -1.671875 4.078125 -1.671875q0.859375 0 1.703125 0.1875q0.859375 0.1875 1.53125 0.71875q0.671875 0.515625 1.09375 1.484375q0.421875 0.953125 0.421875 2.53125q0 0.828125 -0.140625 1.828125l-8.03125 0q0 1.09375 0.21875 1.953125q0.234375 0.84375 0.703125 1.4375q0.484375 0.578125 1.234375 0.890625q0.765625 0.3125 1.875 0.3125q0.84375 0 1.6875 -0.296875q0.859375 -0.296875 1.28125 -0.703125l0.75 1.453125zm-4.296875 -10.046875q-1.46875 0 -2.359375 0.78125q-0.890625 0.765625 -1.0625 2.640625l6.203125 0q0 -1.90625 -0.734375 -2.65625q-0.71875 -0.765625 -2.046875 -0.765625z" fill-rule="nonzero"></path><path fill="#000000" fill-opacity="0.0" d="m674.063 313.86435l0 0c0 -7.456299 6.0445557 -13.500824 13.5008545 -13.500824l188.99829 0c3.5806885 0 7.0146484 1.4223938 9.54657 3.9542847c2.5318604 2.5319214 3.9542847 5.965912 3.9542847 9.546539l0 19.801483l0 0c0 7.456299 -6.0444946 13.500824 -13.5008545 13.500824l-188.99829 0l0 0c-7.456299 0 -13.5008545 -6.044525 -13.5008545 -13.500824z" fill-rule="nonzero"></path><path stroke="#ffffff" stroke-width="2.6666666666666665" stroke-miterlimit="8.0" stroke-linecap="butt" d="m674.063 313.86435l0 0c0 -7.456299 6.0445557 -13.500824 13.5008545 -13.500824l188.99829 0c3.5806885 0 7.0146484 1.4223938 9.54657 3.9542847c2.5318604 2.5319214 3.9542847 5.965912 3.9542847 9.546539l0 19.801483l0 0c0 7.456299 -6.0444946 13.500824 -13.5008545 13.500824l-188.99829 0l0 0c-7.456299 0 -13.5008545 -6.044525 -13.5008545 -13.500824z" fill-rule="nonzero"></path><path fill="#ffffff" d="m746.225 328.63196q0 -1.046875 -0.625 -1.703125q-0.625 -0.671875 -1.5625 -1.171875q-0.9375 -0.515625 -2.046875 -0.96875q-1.09375 -0.453125 -2.03125 -1.09375q-0.9375 -0.640625 -1.5625 -1.578125q-0.625 -0.9375 -0.625 -2.375q0 -2.0625 1.421875 -3.25q1.421875 -1.203125 4.046875 -1.203125q1.53125 0 2.78125 0.234375q1.25 0.21875 1.953125 0.5625l-0.625 1.828125q-0.578125 -0.28125 -1.703125 -0.53125q-1.109375 -0.25 -2.5 -0.25q-1.65625 0 -2.484375 0.75q-0.8125 0.734375 -0.8125 1.734375q0 0.96875 0.625 1.625q0.625 0.640625 1.5625 1.15625q0.9375 0.515625 2.03125 1.015625q1.09375 0.5 2.03125 1.171875q0.9375 0.65625 1.5625 1.578125q0.625 0.921875 0.625 2.296875q0 1.125 -0.40625 2.03125q-0.390625 0.890625 -1.171875 1.546875q-0.765625 0.640625 -1.875 1.0q-1.09375 0.34375 -2.484375 0.34375q-1.875 0 -3.109375 -0.296875q-1.21875 -0.28125 -1.890625 -0.625l0.6875 -1.875q0.578125 0.328125 1.703125 0.640625q1.125 0.3125 2.53125 0.3125q0.828125 0 1.546875 -0.15625q0.71875 -0.171875 1.25 -0.53125q0.53125 -0.359375 0.84375 -0.90625q0.3125 -0.5625 0.3125 -1.3125zm9.261719 3.0q0.859375 0 1.578125 -0.25q0.734375 -0.25 1.25 -0.734375q0.53125 -0.484375 0.828125 -1.15625q0.296875 -0.6875 0.296875 -1.484375q0 -1.75 -1.046875 -2.59375q-1.03125 -0.859375 -2.84375 -0.859375l-1.859375 0l0 -0.71875l3.609375 -5.546875l1.140625 -1.109375l-1.625 0.25l-4.953125 0l0 -1.84375l8.9375 0l0 0.71875l-3.984375 5.984375l-0.875 0.71875l0 0.046875l0.859375 -0.171875q1.0 0.03125 1.84375 0.375q0.84375 0.328125 1.46875 0.96875q0.625 0.640625 0.96875 1.53125q0.359375 0.875 0.359375 2.0q0 1.359375 -0.484375 2.40625q-0.46875 1.046875 -1.28125 1.765625q-0.8125 0.703125 -1.90625 1.078125q-1.09375 0.375 -2.328125 0.375q-1.125 0 -2.03125 -0.171875q-0.890625 -0.171875 -1.5625 -0.453125l0.515625 -1.765625q0.578125 0.265625 1.359375 0.453125q0.796875 0.1875 1.765625 0.1875zm16.163208 -16.34375l1.578125 0.703125l-9.125 20.59375l-1.578125 -0.703125l9.125 -20.59375zm10.794312 13.34375q0 -1.046875 -0.625 -1.703125q-0.625 -0.671875 -1.5625 -1.171875q-0.9375 -0.515625 -2.046875 -0.96875q-1.09375 -0.453125 -2.03125 -1.09375q-0.9375 -0.640625 -1.5625 -1.578125q-0.625 -0.9375 -0.625 -2.375q0 -2.0625 1.421875 -3.25q1.421875 -1.203125 4.046875 -1.203125q1.53125 0 2.78125 0.234375q1.25 0.21875 1.953125 0.5625l-0.625 1.828125q-0.578125 -0.28125 -1.703125 -0.53125q-1.109375 -0.25 -2.5 -0.25q-1.65625 0 -2.484375 0.75q-0.8125 0.734375 -0.8125 1.734375q0 0.96875 0.625 1.625q0.625 0.640625 1.5625 1.15625q0.9375 0.515625 2.03125 1.015625q1.09375 0.5 2.03125 1.171875q0.9375 0.65625 1.5625 1.578125q0.625 0.921875 0.625 2.296875q0 1.125 -0.40625 2.03125q-0.390625 0.890625 -1.171875 1.546875q-0.765625 0.640625 -1.875 1.0q-1.09375 0.34375 -2.484375 0.34375q-1.875 0 -3.109375 -0.296875q-1.21875 -0.28125 -1.890625 -0.625l0.6875 -1.875q0.578125 0.328125 1.703125 0.640625q1.125 0.3125 2.53125 0.3125q0.828125 0 1.546875 -0.15625q0.71875 -0.171875 1.25 -0.53125q0.53125 -0.359375 0.84375 -0.90625q0.3125 -0.5625 0.3125 -1.3125zm13.44928 -8.046875l2.875 7.296875l0.625 2.40625l0.046875 0l0.46875 -2.453125l2.234375 -7.25l1.890625 0l-4.203125 12.78125l-0.96875 0l-3.28125 -8.25l-0.46875 -2.0625l-0.078125 0l-0.5 2.078125l-3.140625 8.234375l-0.984375 0l-4.34375 -12.78125l2.171875 0l2.46875 7.28125l0.4375 2.421875l0.015625 0l0.609375 -2.484375l2.671875 -7.21875l1.453125 0zm10.92865 0l2.0 0l0 12.5l-2.0 0l0 -12.5zm-0.421875 -3.796875q0 -0.578125 0.390625 -0.984375q0.390625 -0.421875 0.984375 -0.421875q0.609375 0 1.03125 0.421875q0.421875 0.40625 0.421875 0.984375q0 0.578125 -0.421875 0.953125q-0.421875 0.375 -1.03125 0.375q-0.59375 0 -0.984375 -0.375q-0.390625 -0.375 -0.390625 -0.953125zm5.412964 3.796875l1.953125 0l0 -0.703125q0 -1.140625 0.1875 -1.984375q0.1875 -0.859375 0.609375 -1.390625q0.421875 -0.546875 1.09375 -0.8125q0.6875 -0.265625 1.6875 -0.265625q0.796875 0 1.40625 0.109375q0.609375 0.09375 1.296875 0.375l-0.453125 1.671875q-0.578125 -0.25 -1.09375 -0.328125q-0.515625 -0.078125 -0.953125 -0.078125q-0.65625 0 -1.015625 0.203125q-0.359375 0.203125 -0.53125 0.59375q-0.15625 0.390625 -0.203125 0.953125q-0.03125 0.5625 -0.03125 1.3125l0 0.34375l3.328125 0l0 1.75l-3.328125 0l0 10.75l-2.0 0l0 -10.75l-1.953125 0l0 -1.75zm7.814087 0l1.9375 0l0 -2.46875l2.0 -0.578125l0 3.046875l3.40625 0l0 1.75l-3.40625 0l0 6.921875q0 1.296875 0.328125 1.84375q0.328125 0.53125 1.109375 0.53125q0.640625 0 1.09375 -0.125q0.453125 -0.140625 1.0 -0.375l0.453125 1.53125q-0.671875 0.328125 -1.484375 0.515625q-0.796875 0.203125 -1.71875 0.203125q-1.53125 0 -2.15625 -0.859375q-0.625 -0.859375 -0.625 -2.890625l0 -7.296875l-1.9375 0l0 -1.75z" fill-rule="nonzero"></path><path fill="#000000" fill-opacity="0.0" d="m674.063 360.6675l0 0c0 -7.456299 6.0445557 -13.5008545 13.5008545 -13.5008545l188.99829 0c3.5806885 0 7.0146484 1.4224243 9.54657 3.9543152c2.5318604 2.5318909 3.9542847 5.9658813 3.9542847 9.546539l0 19.801483l0 0c0 7.456299 -6.0444946 13.500824 -13.5008545 13.500824l-188.99829 0l0 0c-7.456299 0 -13.5008545 -6.044525 -13.5008545 -13.500824z" fill-rule="nonzero"></path><path stroke="#ffffff" stroke-width="2.6666666666666665" stroke-miterlimit="8.0" stroke-linecap="butt" d="m674.063 360.6675l0 0c0 -7.456299 6.0445557 -13.5008545 13.5008545 -13.5008545l188.99829 0c3.5806885 0 7.0146484 1.4224243 9.54657 3.9543152c2.5318604 2.5318909 3.9542847 5.9658813 3.9542847 9.546539l0 19.801483l0 0c0 7.456299 -6.0444946 13.500824 -13.5008545 13.500824l-188.99829 0l0 0c-7.456299 0 -13.5008545 -6.044525 -13.5008545 -13.500824z" fill-rule="nonzero"></path><path fill="#ffffff" d="m749.7672 362.38824l2.078125 0l0 17.5l-2.078125 0l0 -17.5zm6.9017334 0.171875q0.953125 -0.171875 2.1875 -0.265625q1.234375 -0.109375 2.265625 -0.109375q1.140625 0 2.171875 0.25q1.046875 0.25 1.828125 0.828125q0.796875 0.578125 1.265625 1.5q0.484375 0.921875 0.484375 2.25q0 2.046875 -1.125 3.328125q-1.125 1.265625 -2.859375 1.703125l1.203125 0.921875l4.359375 6.921875l-2.4375 0l-4.8125 -7.546875l-2.453125 -0.375l0 7.921875l-2.078125 0l0 -17.328125zm4.5 1.421875q-0.328125 0 -0.6875 0q-0.34375 0 -0.671875 0.03125q-0.3125 0.03125 -0.609375 0.0625q-0.28125 0.015625 -0.453125 0.0625l0 6.453125l1.953125 0q1.71875 0 2.84375 -0.84375q1.125 -0.859375 1.125 -2.65625q0 -1.359375 -0.921875 -2.234375q-0.921875 -0.875 -2.578125 -0.875zm9.851501 7.15625q0 -4.375 1.84375 -6.703125q1.84375 -2.34375 5.28125 -2.34375q1.84375 0 3.1875 0.65625q1.359375 0.640625 2.234375 1.828125q0.890625 1.1875 1.3125 2.859375q0.4375 1.65625 0.4375 3.703125q0 4.375 -1.875 6.71875q-1.859375 2.328125 -5.296875 2.328125q-1.828125 0 -3.171875 -0.640625q-1.328125 -0.65625 -2.21875 -1.84375q-0.890625 -1.1875 -1.3125 -2.84375q-0.421875 -1.671875 -0.421875 -3.71875zm2.1875 0q0 1.453125 0.28125 2.75q0.296875 1.296875 0.890625 2.296875q0.609375 0.984375 1.546875 1.578125q0.9375 0.578125 2.21875 0.578125q2.3125 0 3.640625 -1.765625q1.328125 -1.765625 1.328125 -5.4375q0 -1.421875 -0.296875 -2.734375q-0.28125 -1.3125 -0.890625 -2.296875q-0.609375 -1.0 -1.546875 -1.578125q-0.9375 -0.59375 -2.234375 -0.59375q-2.3125 0 -3.625 1.765625q-1.3125 1.765625 -1.3125 5.4375zm15.855713 -8.75q0.46875 -0.078125 1.0625 -0.109375q0.59375 -0.046875 1.21875 -0.046875q0.640625 -0.015625 1.25 -0.03125q0.625 -0.015625 1.140625 -0.015625q2.109375 0 3.640625 0.65625q1.53125 0.640625 2.53125 1.8125q1.0 1.15625 1.484375 2.78125q0.5 1.625 0.5 3.578125q0 1.78125 -0.46875 3.421875q-0.453125 1.625 -1.453125 2.890625q-1.0 1.265625 -2.609375 2.03125q-1.59375 0.75 -3.875 0.75q-0.390625 0 -1.03125 -0.015625q-0.640625 0 -1.3125 -0.046875q-0.671875 -0.03125 -1.25 -0.0625q-0.578125 -0.015625 -0.828125 -0.0625l0 -17.53125zm4.71875 1.65625q-0.3125 0 -0.703125 0q-0.390625 0 -0.765625 0.03125q-0.375 0.015625 -0.6875 0.046875q-0.3125 0.015625 -0.484375 0.046875l0 14.0q0.125 0.015625 0.46875 0.03125q0.359375 0.015625 0.734375 0.03125q0.375 0 0.71875 0.015625q0.34375 0.015625 0.46875 0.015625q1.75 0 2.9375 -0.59375q1.1875 -0.609375 1.90625 -1.609375q0.71875 -1.015625 1.015625 -2.328125q0.296875 -1.3125 0.296875 -2.71875q0 -1.21875 -0.28125 -2.453125q-0.265625 -1.25 -0.953125 -2.25q-0.671875 -1.0 -1.8125 -1.625q-1.125 -0.640625 -2.859375 -0.640625zm19.752136 11.390625q0 -1.046875 -0.625 -1.703125q-0.625 -0.671875 -1.5625 -1.171875q-0.9375 -0.515625 -2.046875 -0.96875q-1.09375 -0.453125 -2.03125 -1.09375q-0.9375 -0.640625 -1.5625 -1.578125q-0.625 -0.9375 -0.625 -2.375q0 -2.0625 1.421875 -3.25q1.421875 -1.203125 4.046875 -1.203125q1.53125 0 2.78125 0.234375q1.25 0.21875 1.953125 0.5625l-0.625 1.828125q-0.578125 -0.28125 -1.703125 -0.53125q-1.109375 -0.25 -2.5 -0.25q-1.65625 0 -2.484375 0.75q-0.8125 0.734375 -0.8125 1.734375q0 0.96875 0.625 1.625q0.625 0.640625 1.5625 1.15625q0.9375 0.515625 2.03125 1.015625q1.09375 0.5 2.03125 1.171875q0.9375 0.65625 1.5625 1.578125q0.625 0.921875 0.625 2.296875q0 1.125 -0.40625 2.03125q-0.390625 0.890625 -1.171875 1.546875q-0.765625 0.640625 -1.875 1.0q-1.09375 0.34375 -2.484375 0.34375q-1.875 0 -3.109375 -0.296875q-1.21875 -0.28125 -1.890625 -0.625l0.6875 -1.875q0.578125 0.328125 1.703125 0.640625q1.125 0.3125 2.53125 0.3125q0.828125 0 1.546875 -0.15625q0.71875 -0.171875 1.25 -0.53125q0.53125 -0.359375 0.84375 -0.90625q0.3125 -0.5625 0.3125 -1.3125z" fill-rule="nonzero"></path><path fill="#000000" fill-opacity="0.0" d="m480.0 158.44357l-174.04724 70.55118" fill-rule="nonzero"></path><path stroke="#ffffff" stroke-width="2.0" stroke-linejoin="round" stroke-linecap="butt" d="m480.0 158.44357l-162.92618 66.04318" fill-rule="evenodd"></path><path fill="#ffffff" stroke="#ffffff" stroke-width="2.0" stroke-linecap="butt" d="m315.83282 221.42525l-7.17041 6.4711304l9.652405 -0.348114z" fill-rule="evenodd"></path><path fill="#000000" fill-opacity="0.0" d="m305.95276 377.4029l0 24.999908l-132.99985 0l0 -48.40149l24.999847 0" fill-rule="nonzero"></path><path stroke="#ffffff" stroke-width="2.0" stroke-linejoin="round" stroke-linecap="butt" d="m305.95276 377.4029l0 24.999908l-132.99983 0l0 -48.40149l12.999832 0" fill-rule="evenodd"></path><path fill="#ffffff" stroke="#ffffff" stroke-width="2.0" stroke-linecap="butt" d="m185.95276 357.30478l9.076187 -3.3034668l-9.076187 -3.3034668z" fill-rule="evenodd"></path><path fill="#000000" fill-opacity="0.0" d="m435.88977 311.48294l216.22046 16.566925" fill-rule="nonzero"></path><path stroke="#ffffff" stroke-width="2.0" stroke-linejoin="round" stroke-linecap="butt" d="m435.88977 311.48294l204.25555 15.6501465" fill-rule="evenodd"></path><path fill="#ffffff" stroke="#ffffff" stroke-width="2.0" stroke-linecap="butt" d="m639.89294 330.4269l9.302002 -2.6004028l-8.797241 -3.9872131z" fill-rule="evenodd"></path><path fill="#000000" fill-opacity="0.0" d="m435.88977 311.48294l238.17322 145.85828" fill-rule="nonzero"></path><path stroke="#ffffff" stroke-width="2.0" stroke-linejoin="round" stroke-linecap="butt" d="m435.88977 311.48294l227.93976 139.59125" fill-rule="evenodd"></path><path fill="#ffffff" stroke="#ffffff" stroke-width="2.0" stroke-linecap="butt" d="m662.10425 453.89133l9.465332 1.9229126l-6.0148315 -7.5572205z" fill-rule="evenodd"></path><path fill="#000000" fill-opacity="0.0" d="m480.0 158.44357l172.12598 169.6063" fill-rule="nonzero"></path><path stroke="#ffffff" stroke-width="2.0" stroke-linejoin="round" stroke-linecap="butt" d="m480.0 158.44357l163.57837 161.1838" fill-rule="evenodd"></path><path fill="#ffffff" stroke="#ffffff" stroke-width="2.0" stroke-linecap="butt" d="m641.25977 321.98044l8.783569 4.017273l-4.1463623 -8.723389z" fill-rule="evenodd"></path><path fill="#000000" fill-opacity="0.0" d="m480.0 158.44357l194.04724 298.89764" fill-rule="nonzero"></path><path stroke="#ffffff" stroke-width="2.0" stroke-linejoin="round" stroke-linecap="butt" d="m480.0 158.44357l187.51294 288.83267" fill-rule="evenodd"></path><path fill="#ffffff" stroke="#ffffff" stroke-width="2.0" stroke-linecap="butt" d="m664.7422 449.07507l7.7129517 5.8138123l-2.1713867 -9.411438z" fill-rule="evenodd"></path></g></svg>

