<?xml version="1.0" encoding="UTF-8" standalone="yes"?><svg xmlns="http://www.w3.org/2000/svg" xmlns:xlink="http://www.w3.org/1999/xlink" height="397px" style="width:583px;height:397px;" version="1.1" viewBox="0 0 583 397" width="583px"><defs><filter height="300%" id="f1" width="300%" x="-1" y="-1"><feGaussianBlur result="blurOut" stdDeviation="2.0"/><feColorMatrix in="blurOut" result="blurOut2" type="matrix" values="0 0 0 0 0 0 0 0 0 0 0 0 0 0 0 0 0 0 .4 0"/><feOffset dx="4.0" dy="4.0" in="blurOut2" result="blurOut3"/><feBlend in="SourceGraphic" in2="blurOut3" mode="normal"/></filter></defs><g><polygon fill="#FFEFD5" filter="url(#f1)" points="189.25,8.5,189.25,8.7636,199.5,8.3495,209.75,9.0042,220,9.1857,230.25,9.2319,240.5,8.0312,250.75,8.5993,261,8.5299,271.25,8.8703,281.5,8.024,291.75,8.8242,302,8.7817,312.25,9.0131,322.5,8.3954,332.75,7.926,343,9.2318,353.25,8.5,353.3064,8.5,353.242,18.7026,353.836,28.9053,352.8241,39.1079,353.5263,49.3105,352.5096,59.5132,353.7234,69.7158,352.6916,79.9185,352.8498,90.1211,353.6361,100.3237,352.7219,110.5264,352.9757,120.729,353.5526,130.9316,352.9504,141.1343,353.9882,151.3369,353.8957,161.5396,353.25,171.7422,353.25,171.8629,343,171.7419,332.75,171.609,322.5,171.6756,312.25,171.3493,302,172.4098,291.75,171.371,281.5,172.3463,271.25,171.9758,261,171.8277,250.75,171.2669,240.5,171.3324,230.25,171.4785,220,171.1822,209.75,171.984,199.5,172.2678,189.25,171.7422,189.7821,171.7422,189.8254,161.5396,189.2843,151.3369,189.432,141.1343,188.9345,130.9316,189.2946,120.729,189.3009,110.5264,189.2242,100.3237,189.6347,90.1211,189.2151,79.9185,189.4691,69.7158,189.3209,59.5132,189.9697,49.3105,188.9486,39.1079,189.7081,28.9053,188.7224,18.7026,189.25,8.5" style="stroke: #FF8C00; stroke-width: 1.5;"/><polygon fill="#A9DCDF" points="241.0955,27.7205,240.201,29.3913,239.7486,31.726,237.3439,32.896,234.4067,34.6186,231.3502,35.6733,227.5294,35.1522,224.4455,33.1255,221.7334,30.6636,220.768,27.5232,220.2979,25.4937,219.6533,23.4376,220.2428,19.9091,222.4624,17.2392,225.2018,14.7014,227.8428,13.7127,230.2099,13.6706,232.3834,13.3139,234.199,14.2048,236.2183,15.6717,238.6417,16.3433,240.2326,19.5933,241.659,22.1618,241.1357,25.3025" style="stroke: #FF8C00; stroke-width: 1.0;"/><path d="M230.9094,19.8438 L229.7531,24.9219 L232.0813,24.9219 L230.9094,19.8438 Z M229.425,17.6094 L232.4094,17.6094 L235.7688,30 L233.3156,30 L232.55,26.9375 L229.2688,26.9375 L228.5188,30 L226.0813,30 L229.425,17.6094 Z "/><text fill="#000000" font-family="sans-serif" font-size="12" font-style="italic" lengthAdjust="spacingAndGlyphs" textLength="73" x="250.7" y="28.6543">ObjectStore</text><path d="M190.25,40.5 L190.25,39.7184 L200.375,39.7849 L210.5,41.1403 L220.625,39.544 L230.75,40.0222 L240.875,40.6807 L251,40.4167 L261.125,39.5043 L271.25,39.6899 L281.375,40.8507 L291.5,40.3386 L301.625,39.5912 L311.75,41.3866 L321.875,40.8686 L332,40.3592 L342.125,40.4784 L352.25,40.5 " fill="#FFEFD5" style="stroke: #FF8C00; stroke-width: 1.5;"/><path d="M190.25,48.5 L190.25,47.8692 L200.375,48.9279 L210.5,47.6657 L220.625,49.143 L230.75,47.7307 L240.875,48.475 L251,49.2382 L261.125,47.7127 L271.25,48.486 L281.375,49.1075 L291.5,48.2981 L301.625,48.0219 L311.75,48.8686 L321.875,48.5348 L332,49.0541 L342.125,49.1724 L352.25,48.5 " fill="#FFEFD5" style="stroke: #FF8C00; stroke-width: 1.5;"/><text fill="#000000" font-family="sans-serif" font-size="11" lengthAdjust="spacingAndGlyphs" textLength="59" x="195.25" y="62.7104">exists(obj)</text><text fill="#000000" font-family="sans-serif" font-size="11" lengthAdjust="spacingAndGlyphs" textLength="80" x="195.25" y="75.5151">file_ready(obj)</text><text fill="#000000" font-family="sans-serif" font-size="11" lengthAdjust="spacingAndGlyphs" textLength="61" x="195.25" y="88.3198">create(obj)</text><text fill="#000000" font-family="sans-serif" font-size="11" lengthAdjust="spacingAndGlyphs" textLength="47" x="195.25" y="101.1245">size(obj)</text><text fill="#000000" font-family="sans-serif" font-size="11" lengthAdjust="spacingAndGlyphs" textLength="60" x="195.25" y="113.9292">delete(obj)</text><text fill="#000000" font-family="sans-serif" font-size="11" lengthAdjust="spacingAndGlyphs" textLength="74" x="195.25" y="126.7339">get_data(obj)</text><text fill="#000000" font-family="sans-serif" font-size="11" lengthAdjust="spacingAndGlyphs" textLength="98" x="195.25" y="139.5386">get_filename(obj)</text><text fill="#000000" font-family="sans-serif" font-size="11" lengthAdjust="spacingAndGlyphs" textLength="120" x="195.25" y="152.3433">update_from_file(obj)</text><text fill="#000000" font-family="sans-serif" font-size="11" lengthAdjust="spacingAndGlyphs" textLength="152" x="195.25" y="165.1479">get_store_usage_percent()</text><polygon fill="#FFEFD5" filter="url(#f1)" points="20.25,232,20.25,232.4823,30.4038,232.097,40.5577,231.6662,50.7115,232.258,60.8654,231.3315,71.0192,231.4492,81.1731,231.853,91.3269,232.7426,101.4808,232.588,111.6346,232.1904,121.7885,231.2991,131.9423,231.5341,142.0962,232.38,152.25,232,152.4135,232,152.634,241.6,152.4032,251.2,151.7778,260.8,152.0636,270.4,152.25,280,152.25,280.0136,142.0962,279.7713,131.9423,280.4075,121.7885,279.7022,111.6346,279.9943,101.4808,279.461,91.3269,280.0545,81.1731,280.0022,71.0192,280.5047,60.8654,280.348,50.7115,280.2095,40.5577,280.4029,30.4038,280.2094,20.25,280,20.2795,280,20.0843,270.4,19.6513,260.8,19.7345,251.2,20.0873,241.6,20.25,232" style="stroke: #FF8C00; stroke-width: 1.5;"/><polygon fill="#ADD1B2" points="45.6328,251.7335,43.7611,254.3084,41.6138,256.4176,39.2507,258.3278,36.1645,259.0324,33.5406,258.227,30.646,258.2568,27.1964,256.3422,25.5801,254.5524,25.5268,251.9991,24.9996,249.4454,24.8452,245.9324,25.2045,243.2558,26.2719,240.5684,28.7519,239.3656,31.5662,238.0326,34.4093,236.577,37.4453,236.6017,39.1934,238.4667,42.4032,239.7676,44.8888,241.6303,45.1003,243.8866,46.115,247.1749,46.0309,250.6962" style="stroke: #FF8C00; stroke-width: 1.0;"/><path d="M38.2188,253.6406 Q37.6406,253.9375 37,254.0859 Q36.3594,254.2344 35.6563,254.2344 Q33.1563,254.2344 31.8359,252.5859 Q30.5156,250.9375 30.5156,247.8125 Q30.5156,244.6875 31.8359,243.0313 Q33.1563,241.375 35.6563,241.375 Q36.3594,241.375 37.0078,241.5313 Q37.6563,241.6875 38.2188,241.9844 L38.2188,244.7031 Q37.5938,244.125 37,243.8516 Q36.4063,243.5781 35.7813,243.5781 Q34.4375,243.5781 33.75,244.6484 Q33.0625,245.7188 33.0625,247.8125 Q33.0625,249.9063 33.75,250.9766 Q34.4375,252.0469 35.7813,252.0469 Q36.4063,252.0469 37,251.7734 Q37.5938,251.5 38.2188,250.9219 L38.2188,253.6406 Z "/><text fill="#000000" font-family="sans-serif" font-size="12" lengthAdjust="spacingAndGlyphs" textLength="100" x="49.25" y="252.1543">DiskObjectStore</text><path d="M21.25,264 L21.25,264.1476 L31.25,264.2937 L41.25,263.7824 L51.25,263.0759 L61.25,264.6421 L71.25,264.2648 L81.25,263.6601 L91.25,263.2939 L101.25,263.3124 L111.25,263.0363 L121.25,264.4679 L131.25,264.6285 L141.25,263.2903 L151.25,264 " fill="#FFEFD5" style="stroke: #FF8C00; stroke-width: 1.5;"/><path d="M21.25,272 L21.25,272.0291 L31.25,272.3168 L41.25,271.5533 L51.25,272.6656 L61.25,272.7512 L71.25,272.913 L81.25,272.3923 L91.25,271.3564 L101.25,271.0918 L111.25,272.4043 L121.25,272.5938 L131.25,271.9668 L141.25,272.9489 L151.25,272 " fill="#FFEFD5" style="stroke: #FF8C00; stroke-width: 1.5;"/><polygon fill="#FFEFD5" filter="url(#f1)" points="197,232,197,232.5104,206.9333,232.0495,216.8667,231.4436,226.8,231.5138,236.7333,232.2874,246.6667,232.4322,256.6,232.3602,266.5333,232.4943,276.4667,232.7294,286.4,231.8939,296.3333,232.6542,306.2667,232.579,316.2,232.5477,326.1333,232.4852,336.0667,231.3523,346,232,345.6952,232,346.4057,241.6,345.5255,251.2,346.4719,260.8,345.402,270.4,346,280,346,279.776,336.0667,280.5032,326.1333,279.5374,316.2,280.2819,306.2667,279.8862,296.3333,280.2868,286.4,279.9137,276.4667,279.402,266.5333,280.2794,256.6,280.5704,246.6667,279.8361,236.7333,280.4348,226.8,279.5564,216.8667,280.1745,206.9333,279.5329,197,280,197.2674,280,197.478,270.4,197.7259,260.8,197.6737,251.2,197.6157,241.6,197,232" style="stroke: #FF8C00; stroke-width: 1.5;"/><polygon fill="#A9DCDF" points="222.6956,251.1309,221.9781,253.9858,219.6257,256.851,217.0414,257.2778,214.4575,258.8978,211.7395,259.4268,208.0632,258.7332,206.2617,257.8416,204.7921,256.0252,202.4533,253.9665,202.2292,251.8577,200.6154,250.2541,201.6487,246.827,201.7918,243.4744,203.7367,240.6297,206.827,239.0069,208.6643,237.3294,211.4576,237.6563,213.4601,237.394,215.9202,237.5356,217.7015,238.5244,220.0957,239.7142,221.309,243.4522,222.8622,245.5615,223.4936,248.048" style="stroke: #FF8C00; stroke-width: 1.0;"/><path d="M212.1094,243.3438 L210.9531,248.4219 L213.2813,248.4219 L212.1094,243.3438 Z M210.625,241.1094 L213.6094,241.1094 L216.9688,253.5 L214.5156,253.5 L213.75,250.4375 L210.4688,250.4375 L209.7188,253.5 L207.2813,253.5 L210.625,241.1094 Z "/><text fill="#000000" font-family="sans-serif" font-size="12" font-style="italic" lengthAdjust="spacingAndGlyphs" textLength="117" x="226" y="252.1543">NestedObjectStore</text><path d="M198,264 L198,264.367 L207.8,263.7899 L217.6,263.8292 L227.4,264.202 L237.2,263.1319 L247,263.7383 L256.8,264.5797 L266.6,264.6203 L276.4,264.0443 L286.2,263.6012 L296,264.572 L305.8,263.4463 L315.6,264.5754 L325.4,263.8738 L335.2,264.9954 L345,264 " fill="#FFEFD5" style="stroke: #FF8C00; stroke-width: 1.5;"/><path d="M198,272 L198,271.0806 L207.8,271.7446 L217.6,272.0989 L227.4,272.2845 L237.2,271.4525 L247,271.8586 L256.8,271.1912 L266.6,271.6522 L276.4,272.8939 L286.2,271.9298 L296,271.881 L305.8,271.4036 L315.6,272.1124 L325.4,272.0916 L335.2,271.2387 L345,272 " fill="#FFEFD5" style="stroke: #FF8C00; stroke-width: 1.5;"/><polygon fill="#FFEFD5" filter="url(#f1)" points="381.25,232,381.25,231.6792,391.4167,232.309,401.5833,232.4802,411.75,232.6398,421.9167,232.1533,432.0833,231.3548,442.25,232.0588,452.4167,231.8338,462.5833,231.8702,472.75,232.0725,482.9167,231.7919,493.0833,232.6377,503.25,232,502.7225,232,503.518,241.6,503.2955,251.2,503.5402,260.8,503.4849,270.4,503.25,280,503.25,279.68,493.0833,280.0772,482.9167,280.4899,472.75,279.56,462.5833,279.5668,452.4167,279.6039,442.25,279.818,432.0833,279.419,421.9167,279.5261,411.75,279.9323,401.5833,280.6637,391.4167,279.3794,381.25,280,381.5159,280,381.4411,270.4,381.2061,260.8,380.9884,251.2,381.5829,241.6,381.25,232" style="stroke: #FF8C00; stroke-width: 1.5;"/><polygon fill="#ADD1B2" points="407.1832,250.1741,406.6697,252.0605,405.3861,253.7753,403.0792,256.4882,401.3918,257.447,399.4001,257.8637,395.8392,259.5085,393.3959,258.1045,390.9526,256.9641,389.1898,256.1758,387.6329,254.8367,385.8467,251.7572,385.4319,249.243,385.6309,246.7761,386.866,243.3635,388.1551,241.4716,389.5284,240.1497,392.2312,237.7692,394.4216,236.461,396.6397,237.0059,399.0555,236.8804,401.4413,237.9266,404.4205,239.9289,405.2495,242.5283,406.2886,244.3787,407.2101,246.5395,407.9042,248.5232" style="stroke: #FF8C00; stroke-width: 1.0;"/><path d="M399.2188,253.6406 Q398.6406,253.9375 398,254.0859 Q397.3594,254.2344 396.6563,254.2344 Q394.1563,254.2344 392.8359,252.5859 Q391.5156,250.9375 391.5156,247.8125 Q391.5156,244.6875 392.8359,243.0313 Q394.1563,241.375 396.6563,241.375 Q397.3594,241.375 398.0078,241.5313 Q398.6563,241.6875 399.2188,241.9844 L399.2188,244.7031 Q398.5938,244.125 398,243.8516 Q397.4063,243.5781 396.7813,243.5781 Q395.4375,243.5781 394.75,244.6484 Q394.0625,245.7188 394.0625,247.8125 Q394.0625,249.9063 394.75,250.9766 Q395.4375,252.0469 396.7813,252.0469 Q397.4063,252.0469 398,251.7734 Q398.5938,251.5 399.2188,250.9219 L399.2188,253.6406 Z "/><text fill="#000000" font-family="sans-serif" font-size="12" lengthAdjust="spacingAndGlyphs" textLength="90" x="410.25" y="252.1543">S3ObjectStore</text><path d="M382.25,264 L382.25,264.8603 L392.25,264.7389 L402.25,264.9395 L412.25,264.6076 L422.25,263.8047 L432.25,264.7435 L442.25,263.4964 L452.25,264.8975 L462.25,264.8755 L472.25,264.5733 L482.25,263.7248 L492.25,263.2777 L502.25,264 " fill="#FFEFD5" style="stroke: #FF8C00; stroke-width: 1.5;"/><path d="M382.25,272 L382.25,271.4071 L392.25,272.8881 L402.25,272.9869 L412.25,272.9869 L422.25,271.147 L432.25,272.6675 L442.25,272.1995 L452.25,271.2639 L462.25,272.6456 L472.25,272.3647 L482.25,271.7157 L492.25,272.7918 L502.25,272 " fill="#FFEFD5" style="stroke: #FF8C00; stroke-width: 1.5;"/><polygon fill="#FFEFD5" filter="url(#f1)" points="6,340,6,340.1528,16.2143,340.4268,26.4286,339.8188,36.6429,339.7401,46.8571,340.1106,57.0714,340.683,67.2857,340.2642,77.5,340.597,87.7143,340.4964,97.9286,340.7177,108.1429,339.3526,118.3571,339.8032,128.5714,340.2457,138.7857,340.5988,149,340,148.4859,340,149.6867,349.6,149.6265,359.2,148.9353,368.8,149.227,378.4,149,388,149,388.5149,138.7857,387.3584,128.5714,388.5435,118.3571,388.2995,108.1429,388.398,97.9286,387.668,87.7143,388.0171,77.5,387.9739,67.2857,387.6237,57.0714,388.6333,46.8571,387.3572,36.6429,387.4328,26.4286,388.263,16.2143,387.7315,6,388,6.3031,388,5.2511,378.4,5.4112,368.8,6.6551,359.2,6.6813,349.6,6,340" style="stroke: #FF8C00; stroke-width: 1.5;"/><polygon fill="#ADD1B2" points="31.872,358.2413,31.6348,360.3107,29.0671,362.5374,26.9456,364.7599,25.1508,366.5253,21.5236,366.7208,18.2557,366.4049,14.725,365.539,13.6071,363.4193,10.8122,361.3664,10.2973,358.2777,9.9645,354.6633,10.0507,352.6072,11.9675,350.2701,14.0951,347.9155,16.8661,346.1049,19.7323,345.5276,21.8677,345.3269,25.3038,345.8618,27.675,346.6031,29.5227,348.78,31.4506,352.0164,31.6974,354.0782,32.0992,356.6246" style="stroke: #FF8C00; stroke-width: 1.0;"/><path d="M23.9688,361.6406 Q23.3906,361.9375 22.75,362.0859 Q22.1094,362.2344 21.4063,362.2344 Q18.9063,362.2344 17.5859,360.5859 Q16.2656,358.9375 16.2656,355.8125 Q16.2656,352.6875 17.5859,351.0313 Q18.9063,349.375 21.4063,349.375 Q22.1094,349.375 22.7578,349.5313 Q23.4063,349.6875 23.9688,349.9844 L23.9688,352.7031 Q23.3438,352.125 22.75,351.8516 Q22.1563,351.5781 21.5313,351.5781 Q20.1875,351.5781 19.5,352.6484 Q18.8125,353.7188 18.8125,355.8125 Q18.8125,357.9063 19.5,358.9766 Q20.1875,360.0469 21.5313,360.0469 Q22.1563,360.0469 22.75,359.7734 Q23.3438,359.5 23.9688,358.9219 L23.9688,361.6406 Z "/><text fill="#000000" font-family="sans-serif" font-size="12" lengthAdjust="spacingAndGlyphs" textLength="111" x="35" y="360.1543">IRODSObjectStore</text><path d="M7,372 L7,372.4136 L17.0714,372.6628 L27.1429,371.9061 L37.2143,372.8627 L47.2857,372.4527 L57.3571,372.3024 L67.4286,371.0389 L77.5,371.1645 L87.5714,372.277 L97.6429,371.7243 L107.7143,371.0004 L117.7857,372.0556 L127.8571,372.6308 L137.9286,372.8721 L148,372 " fill="#FFEFD5" style="stroke: #FF8C00; stroke-width: 1.5;"/><path d="M7,380 L7,380.0006 L17.0714,380.0429 L27.1429,380.6647 L37.2143,380.3285 L47.2857,380.7117 L57.3571,380.5671 L67.4286,380.1125 L77.5,379.6468 L87.5714,380.6315 L97.6429,379.0708 L107.7143,379.1458 L117.7857,380.4324 L127.8571,380.2088 L137.9286,380.5537 L148,380 " fill="#FFEFD5" style="stroke: #FF8C00; stroke-width: 1.5;"/><polygon fill="#FFEFD5" filter="url(#f1)" points="184,340,184,339.3814,193.7222,340.0088,203.4444,339.9568,213.1667,339.3307,222.8889,339.3364,232.6111,339.6774,242.3333,339.54,252.0556,340.1402,261.7778,339.486,271.5,340.4665,281.2222,340.1087,290.9444,340.4281,300.6667,339.6097,310.3889,339.7012,320.1111,339.6475,329.8333,340.0856,339.5556,339.6058,349.2778,340.1556,359,340,358.6955,340,358.5932,349.6,359.663,359.2,359.71,368.8,358.7775,378.4,359,388,359,388.6625,349.2778,388.494,339.5556,387.2806,329.8333,387.7995,320.1111,387.5891,310.3889,388.0254,300.6667,387.6525,290.9444,387.4729,281.2222,388.3363,271.5,388.1709,261.7778,388.0482,252.0556,388.1663,242.3333,388.7375,232.6111,387.3762,222.8889,387.4277,213.1667,388.4948,203.4444,388.2796,193.7222,388.5148,184,388,184.1236,388,183.949,378.4,183.7029,368.8,183.4276,359.2,183.9811,349.6,184,340" style="stroke: #FF8C00; stroke-width: 1.5;"/><polygon fill="#ADD1B2" points="208.8621,359.3527,207.9554,362.8603,206.6301,364.3442,205.0142,365.7659,202.3035,366.3848,199.6398,367.6671,197.179,366.9331,195.0498,365.7165,192.093,364.8883,189.966,363.2474,188.9965,360.6291,187.605,357.1054,188.7575,354.2493,188.4866,352.0666,190.6039,349.872,191.804,346.9851,194.2057,345.5146,197.1345,345.8445,200.7484,345.3712,202.9887,345.9396,206.0496,346.6939,207.7621,350.2997,208.7956,352.1512,210.1681,354.4923,209.7702,358.1068" style="stroke: #FF8C00; stroke-width: 1.0;"/><path d="M201.9688,361.6406 Q201.3906,361.9375 200.75,362.0859 Q200.1094,362.2344 199.4063,362.2344 Q196.9063,362.2344 195.5859,360.5859 Q194.2656,358.9375 194.2656,355.8125 Q194.2656,352.6875 195.5859,351.0313 Q196.9063,349.375 199.4063,349.375 Q200.1094,349.375 200.7578,349.5313 Q201.4063,349.6875 201.9688,349.9844 L201.9688,352.7031 Q201.3438,352.125 200.75,351.8516 Q200.1563,351.5781 199.5313,351.5781 Q198.1875,351.5781 197.5,352.6484 Q196.8125,353.7188 196.8125,355.8125 Q196.8125,357.9063 197.5,358.9766 Q198.1875,360.0469 199.5313,360.0469 Q200.1563,360.0469 200.75,359.7734 Q201.3438,359.5 201.9688,358.9219 L201.9688,361.6406 Z "/><text fill="#000000" font-family="sans-serif" font-size="12" lengthAdjust="spacingAndGlyphs" textLength="143" x="213" y="360.1543">DistributedObjectStore</text><path d="M185,372 L185,371.1497 L195.1765,372.2274 L205.3529,372.1329 L215.5294,372.879 L225.7059,372.6556 L235.8824,372.5475 L246.0588,372.1088 L256.2353,371.5061 L266.4118,372.8472 L276.5882,371.9745 L286.7647,371.5535 L296.9412,372.5158 L307.1176,372.4358 L317.2941,372.9885 L327.4706,371.7396 L337.6471,371.8384 L347.8235,372.0318 L358,372 " fill="#FFEFD5" style="stroke: #FF8C00; stroke-width: 1.5;"/><path d="M185,380 L185,380.587 L195.1765,380.7204 L205.3529,380.1982 L215.5294,380.3118 L225.7059,379.3762 L235.8824,380.4329 L246.0588,379.7723 L256.2353,380.1052 L266.4118,380.3061 L276.5882,379.049 L286.7647,379.2632 L296.9412,379.7976 L307.1176,379.2161 L317.2941,379.4444 L327.4706,379.9874 L337.6471,380.2574 L347.8235,379.4665 L358,380 " fill="#FFEFD5" style="stroke: #FF8C00; stroke-width: 1.5;"/><polygon fill="#FFEFD5" filter="url(#f1)" points="394.25,340,394.25,340.7039,404.25,339.9337,414.25,340.5538,424.25,340.7305,434.25,339.3784,444.25,339.8701,454.25,340.6759,464.25,339.9654,474.25,340.1036,484.25,340.0434,494.25,340.1601,504.25,339.6922,514.25,339.2506,524.25,339.43,534.25,340.4173,544.25,339.7824,554.25,340.2334,564.25,340.5785,574.25,340,574.8909,340,573.7595,349.6,574.0717,359.2,573.9241,368.8,574.2434,378.4,574.25,388,574.25,387.8331,564.25,388.3596,554.25,387.7585,544.25,388.1013,534.25,387.5043,524.25,387.4052,514.25,388.2013,504.25,388.6922,494.25,388.6587,484.25,387.6439,474.25,387.3919,464.25,387.7634,454.25,388.2142,444.25,388.3389,434.25,388.1887,424.25,388.0636,414.25,388.0107,404.25,387.5735,394.25,388,394.1934,388,393.6369,378.4,394.9371,368.8,394.8592,359.2,394.1429,349.6,394.25,340" style="stroke: #FF8C00; stroke-width: 1.5;"/><polygon fill="#ADD1B2" points="420.6951,358.0581,419.8848,360.5135,418.5937,362.1971,416.8723,364.7004,415.3011,365.9852,413.0757,366.3718,410.6756,367.539,407.5152,367.0171,404.5507,365.6502,401.9668,363.4661,399.5326,362.2545,399.1297,359.3514,397.6,356.3493,398.6966,353.8631,399.5878,352.0895,400.6307,348.4601,404.0619,346.8702,406.0896,345.4291,408.7005,345.0578,411.1455,344.6409,413.6985,346.0278,416.5848,348.3261,418.8477,349.4141,419.144,352.313,420.4859,354.1143,419.8913,356.5506" style="stroke: #FF8C00; stroke-width: 1.0;"/><path d="M412.2188,361.6406 Q411.6406,361.9375 411,362.0859 Q410.3594,362.2344 409.6563,362.2344 Q407.1563,362.2344 405.8359,360.5859 Q404.5156,358.9375 404.5156,355.8125 Q404.5156,352.6875 405.8359,351.0313 Q407.1563,349.375 409.6563,349.375 Q410.3594,349.375 411.0078,349.5313 Q411.6563,349.6875 412.2188,349.9844 L412.2188,352.7031 Q411.5938,352.125 411,351.8516 Q410.4063,351.5781 409.7813,351.5781 Q408.4375,351.5781 407.75,352.6484 Q407.0625,353.7188 407.0625,355.8125 Q407.0625,357.9063 407.75,358.9766 Q408.4375,360.0469 409.7813,360.0469 Q410.4063,360.0469 411,359.7734 Q411.5938,359.5 412.2188,358.9219 L412.2188,361.6406 Z "/><text fill="#000000" font-family="sans-serif" font-size="12" lengthAdjust="spacingAndGlyphs" textLength="148" x="423.25" y="360.1543">HierarchicalObjectStore</text><path d="M395.25,372 L395.25,371.3172 L405.1389,372.4778 L415.0278,372.2332 L424.9167,371.5718 L434.8056,371.9549 L444.6944,372.8974 L454.5833,371.0285 L464.4722,371.7614 L474.3611,371.2195 L484.25,371.1106 L494.1389,372.1902 L504.0278,371.4536 L513.9167,372.4163 L523.8056,371.2608 L533.6944,372.0909 L543.5833,372.1649 L553.4722,372.4805 L563.3611,371.0206 L573.25,372 " fill="#FFEFD5" style="stroke: #FF8C00; stroke-width: 1.5;"/><path d="M395.25,380 L395.25,379.2817 L405.1389,380.0538 L415.0278,379.4118 L424.9167,379.6683 L434.8056,379.2678 L444.6944,380.9353 L454.5833,380.6639 L464.4722,379.0351 L474.3611,379.76 L484.25,380.8403 L494.1389,379.6333 L504.0278,380.0365 L513.9167,379.4912 L523.8056,380.4898 L533.6944,380.6387 L543.5833,379.5434 L553.4722,379.4027 L563.3611,379.3114 L573.25,380 " fill="#FFEFD5" style="stroke: #FF8C00; stroke-width: 1.5;"/><path d="M173.764,177.42 L174.0749,177.7708 L166.3283,184.4556 L158.5578,191.1136 L151.3481,198.4043 L143.6034,205.0913 L135.997,211.9345 L128.1905,218.5518 L120.4509,225.2446 L112.515,231.716 " fill="none" style="stroke: #FFA500; stroke-width: 1.0;"/><polygon fill="none" points="169.419,171.917,169.3755,171.8108,173.4148,170.4915,177.1993,168.5499,181.2246,167.1963,185.1994,165.7195,189.029,163.888,189.0956,163.9251,187.0962,167.6625,185.0573,171.3779,182.9177,175.037,180.8752,178.7504,178.706,182.393,178.6397,182.3342,177.0065,180.4378,174.933,178.151,172.9547,175.9486,171.364,174.0898,169.419,171.917" style="stroke: #FFA500; stroke-width: 1.0;"/><path d="M271.25,191.809 L271.3591,191.809 L271.0895,199.7892 L271.0635,207.7694 L271.3286,215.7496 L271.3346,223.7298 L271.25,231.71 " fill="none" style="stroke: #FFA500; stroke-width: 1.0;"/><polygon fill="none" points="264.25,191.559,264.3226,191.5844,265.7497,187.5939,267.2341,183.6234,268.2943,179.5045,269.8162,175.5472,271.25,171.559,271.3694,171.6008,272.6928,175.574,274.0034,179.5427,275.4876,183.5722,276.6292,187.4817,278.25,191.559,278.25,191.4187,275.45,191.7664,272.65,191.6926,269.85,191.352,267.05,191.7607,264.25,191.559" style="stroke: #FFA500; stroke-width: 1.0;"/><path d="M368.14,183.924 L367.4899,183.2462 L375.6608,191.1688 L382.8516,198.0696 L389.0847,203.9717 L396.6963,211.3112 L403.2671,217.5654 L411.523,225.5767 L418.114,231.852 " fill="none" style="stroke: #FFA500; stroke-width: 1.0;"/><polygon fill="none" points="363.084,188.773,362.9573,188.7087,361.1043,184.9627,359.2379,181.2099,357.3534,177.4479,355.5458,173.7249,353.494,169.878,353.562,170.0272,357.3289,171.59,361.2219,173.4293,365.1426,175.3294,368.9685,177.0215,372.774,178.669,372.6493,178.5495,370.7129,180.5718,368.8401,182.6551,366.8854,184.6599,364.8651,186.6018,363.084,188.773" style="stroke: #FFA500; stroke-width: 1.0;"/><path d="M82.5971,300.0236 L82.573,300.0216 L81.8249,307.9462 L81.0733,315.8705 L80.5775,323.8165 L79.8406,331.7421 L79.2301,339.6784 " fill="none" style="stroke: #FFA500; stroke-width: 1.0;"/><polygon fill="none" points="75.6301,299.3365,75.6365,299.3394,77.5874,295.5695,79.0445,291.5784,80.8242,287.7319,82.6679,283.914,84.2971,280,84.3021,280.0013,85.4921,284.1398,86.6371,288.2668,87.4659,292.3124,88.6439,296.4478,89.5799,300.521,89.5765,300.4815,86.8111,300.533,83.9813,299.8274,81.196,299.6454,78.4137,299.4988,75.6301,299.3365" style="stroke: #FFA500; stroke-width: 1.0;"/><path d="M271.25,300.0236 L271.3656,300.0236 L271.2306,307.9546 L271.2834,315.8855 L271.4368,323.8165 L271.1053,331.7474 L271.25,339.6784 " fill="none" style="stroke: #FFA500; stroke-width: 1.0;"/><polygon fill="none" points="264.25,300.0005,264.1092,299.9512,265.8099,296.0563,267.177,292.0448,268.3623,287.9695,270.0012,284.053,271.25,280,271.3158,280.023,272.7612,284.039,274.2689,288.0768,275.3406,291.9619,276.7571,295.9678,278.25,300.0004,278.25,300.2315,275.45,299.8369,272.65,300.1002,269.85,299.9448,267.05,300.1664,264.25,300.0005" style="stroke: #FFA500; stroke-width: 1.0;"/><path d="M335.496,288.9724 L335.3633,288.7058 L344.4959,293.0031 L354.139,298.3264 L363.1856,302.451 L372.3316,306.7753 L381.886,311.9204 L391.4683,317.1215 L400.915,322.05 L409.8044,325.8587 L419.2585,330.8021 L428.4434,335.2046 L437.755,339.8617 " fill="none" style="stroke: #FFA500; stroke-width: 1.0;"/><polygon fill="none" points="332.254,295.178,332.1899,295.1155,329.4147,292.2573,326.4269,289.1918,323.4324,286.1199,320.2619,282.8765,317.468,280,317.4379,279.7609,321.6818,280.6001,325.8829,281.1,330.0562,281.3777,334.3022,282.2341,338.492,282.644,338.4948,282.6454,337.1194,285.0886,335.8905,287.6047,334.6653,290.1227,333.5489,292.6948,332.254,295.178" style="stroke: #FFA500; stroke-width: 1.0;"/></g></svg>