<?xml version="1.0" encoding="UTF-8" standalone="yes"?><svg xmlns="http://www.w3.org/2000/svg" xmlns:xlink="http://www.w3.org/1999/xlink" height="318px" style="width:647px;height:318px;" version="1.1" viewBox="0 0 647 318" width="647px"><defs><filter height="300%" id="f1" width="300%" x="-1" y="-1"><feGaussianBlur result="blurOut" stdDeviation="2.0"/><feColorMatrix in="blurOut" result="blurOut2" type="matrix" values="0 0 0 0 0 0 0 0 0 0 0 0 0 0 0 0 0 0 .4 0"/><feOffset dx="4.0" dy="4.0" in="blurOut2" result="blurOut3"/><feBlend in="SourceGraphic" in2="blurOut3" mode="normal"/></filter></defs><g><polygon fill="#FFEFD5" filter="url(#f1)" points="434.5,108.4297,434.5,108.4613,436.5,108.4309,438.5,108.4554,440.5,108.3844,442.5,108.3653,444.5,108.4297,444.1915,108.4297,444.4579,118.2828,444.7841,128.1359,444.2668,137.9891,443.8892,147.8422,443.8762,157.6953,444.5486,167.5484,443.7605,177.4016,444.9285,187.2547,443.892,197.1078,444.5,206.9609,444.5,206.9433,442.5,207.1519,440.5,206.9852,438.5,207.2088,436.5,206.9593,434.5,206.9609,434.2636,206.9609,434.9139,197.1078,435.0396,187.2547,434.2434,177.4016,435.2292,167.5484,434.6965,157.6953,434.7711,147.8422,434.2634,137.9891,435.0646,128.1359,433.853,118.2828,434.5,108.4297" style="stroke: #FF8C00; stroke-width: 1.0;"/><path d="M208,38.2969 L207.0128,38.2969 L207.3489,48.3411 L207.6957,58.3854 L207.6394,68.4297 L208.8901,78.474 L207.3472,88.5182 L207.3096,98.5625 L207.8475,108.6068 L207.3911,118.651 L207.9599,128.6953 L208.0662,138.7396 L207.9363,148.7839 L208.0552,158.8281 L208.8333,168.8724 L207.5281,178.9167 L208.4563,188.9609 L207.2766,199.0052 L207.5322,209.0495 L207.1205,219.0938 L208.8206,229.138 L208.0605,239.1823 L208.7544,249.2266 L208.0913,259.2708 L207.3548,269.3151 L208,279.3594 " fill="none" style="stroke: #FF8C00; stroke-width: 1.0; stroke-dasharray: 5.0,5.0;"/><path d="M439.5,38.2969 L440.4817,38.2969 L440.2615,48.3411 L440.0491,58.3854 L439.652,68.4297 L439.3193,78.474 L439.6929,88.5182 L439.7426,98.5625 L440.305,108.6068 L438.5872,118.651 L440.4723,128.6953 L439.4674,138.7396 L440.3488,148.7839 L440.3653,158.8281 L438.9993,168.8724 L439.636,178.9167 L438.9488,188.9609 L440.4622,199.0052 L440.2374,209.0495 L439.6405,219.0938 L440.0078,229.138 L438.9959,239.1823 L439.6697,249.2266 L440.1677,259.2708 L439.4424,269.3151 L439.5,279.3594 " fill="none" style="stroke: #FF8C00; stroke-width: 1.0; stroke-dasharray: 5.0,5.0;"/><polygon fill="#FFEFD5" filter="url(#f1)" points="171,3,171,3.3616,181.1429,3.6639,191.2857,2.3179,201.4286,2.5449,211.5714,3.7143,221.7143,2.4703,231.8571,2.6002,242,3,241.7701,3,242.1243,9.0594,241.7841,15.1188,241.8791,21.1781,241.9785,27.2375,242,33.2969,242,34.0036,231.8571,32.9711,221.7143,32.7165,211.5714,32.7566,201.4286,32.629,191.2857,32.6319,181.1429,32.888,171,33.2969,171.0511,33.2969,170.8268,27.2375,170.8378,21.1781,171.0131,15.1187,170.9466,9.0594,171,3" style="stroke: #FF8C00; stroke-width: 1.5;"/><text fill="#000000" font-family="sans-serif" font-size="14" lengthAdjust="spacingAndGlyphs" textLength="57" x="178" y="22.9951">Browser</text><polygon fill="#FFEFD5" filter="url(#f1)" points="171,278.3594,171,278.5905,181.1429,278.331,191.2857,278.0709,201.4286,278.3053,211.5714,278.4661,221.7143,278.9617,231.8571,277.6208,242,278.3594,241.8698,278.3594,241.756,284.4188,242.0833,290.4781,242.0784,296.5375,241.9791,302.5969,242,308.6563,242,308.7852,231.8571,308.2921,221.7143,308.3382,211.5714,309.1274,201.4286,308.7702,191.2857,308.6249,181.1429,308.9857,171,308.6563,171.1926,308.6563,171.171,302.5969,171.1765,296.5375,170.7683,290.4781,171.1211,284.4188,171,278.3594" style="stroke: #FF8C00; stroke-width: 1.5;"/><text fill="#000000" font-family="sans-serif" font-size="14" lengthAdjust="spacingAndGlyphs" textLength="57" x="178" y="298.3545">Browser</text><polygon fill="#FFEFD5" filter="url(#f1)" points="408.5,3,408.5,3.4504,418.1667,2.6765,427.8333,3.2853,437.5,2.2696,447.1667,2.8742,456.8333,3.3281,466.5,3,466.487,3,466.2653,9.0594,466.7299,15.1188,466.3495,21.1781,466.5859,27.2375,466.5,33.2969,466.5,32.5616,456.8333,33.0006,447.1667,33.1725,437.5,33.212,427.8333,34.0305,418.1667,33.7205,408.5,33.2969,408.5018,33.2969,408.7474,27.2375,408.5132,21.1781,408.3178,15.1187,408.4559,9.0594,408.5,3" style="stroke: #FF8C00; stroke-width: 1.5;"/><text fill="#000000" font-family="sans-serif" font-size="14" lengthAdjust="spacingAndGlyphs" textLength="44" x="415.5" y="22.9951">Server</text><polygon fill="#FFEFD5" filter="url(#f1)" points="408.5,278.3594,408.5,278.03,418.1667,278.9097,427.8333,278.6214,437.5,278.8691,447.1667,278.9755,456.8333,278.35,466.5,278.3594,466.6511,278.3594,466.3432,284.4188,466.5358,290.4781,466.5681,296.5375,466.2854,302.5969,466.5,308.6563,466.5,308.7485,456.8333,308.8453,447.1667,308.5659,437.5,308.4237,427.8333,308.4443,418.1667,308.8695,408.5,308.6563,408.3039,308.6563,408.3398,302.5969,408.4313,296.5375,408.4449,290.4781,408.4433,284.4188,408.5,278.3594" style="stroke: #FF8C00; stroke-width: 1.5;"/><text fill="#000000" font-family="sans-serif" font-size="14" lengthAdjust="spacingAndGlyphs" textLength="44" x="415.5" y="298.3545">Server</text><polygon fill="#FFEFD5" filter="url(#f1)" points="434.5,108.4297,434.5,108.3353,436.5,108.574,438.5,108.36,440.5,108.3358,442.5,108.2595,444.5,108.4297,443.8271,108.4297,443.9022,118.2828,443.9536,128.1359,444.4217,137.9891,444.3875,147.8422,444.6541,157.6953,444.9919,167.5484,444.4956,177.4016,443.8888,187.2547,444.7294,197.1078,444.5,206.9609,444.5,206.9606,442.5,206.9081,440.5,206.9038,438.5,206.9425,436.5,206.9578,434.5,206.9609,433.9241,206.9609,434.1833,197.1078,435.2043,187.2547,434.9316,177.4016,434.918,167.5484,434.5315,157.6953,433.8314,147.8422,434.778,137.9891,434.4953,128.1359,434.8344,118.2828,434.5,108.4297" style="stroke: #FF8C00; stroke-width: 1.0;"/><polygon fill="#FFEFD5" filter="url(#f1)" points="176,53.2969,175.9825,53.2969,176.0552,58.2969,176.1831,63.2969,175.9755,68.2969,175.992,73.2969,176,78.2969,176,77.6863,186.1379,78.7925,196.2759,78.7915,206.4138,78.1104,216.5517,78.7457,226.6897,78.5428,236.8276,78.7909,246.9655,78.0709,257.1034,78.5677,267.2414,79.0272,277.3793,77.8804,287.5172,77.8286,297.6552,77.5669,307.7931,77.7478,317.931,78.0316,328.069,78.806,338.2069,77.9405,348.3448,78.7827,358.4828,78.5074,368.6207,77.7329,378.7586,78.0468,388.8966,78.9226,399.0345,78.3876,409.1724,77.9723,419.3103,78.867,429.4483,77.7174,439.5862,77.7621,449.7241,78.1507,459.8621,78.9021,470,78.2969,470.11,78.2969,469.7689,75.2969,470.1191,72.2969,470.2063,69.2969,469.8078,66.2969,470,63.2969,469.9718,63.2687,468.0831,61.38,465.9758,59.2727,463.9175,57.2144,462.0831,55.38,460,53.2969,460,53.9708,449.8571,53.4542,439.7143,53.4031,429.5714,53.7986,419.4286,52.9637,409.2857,52.7026,399.1429,53.2517,389,53.9509,378.8571,53.7209,368.7143,53.2159,358.5714,53.5193,348.4286,53.4135,338.2857,54.0468,328.1429,52.8818,318,52.8754,307.8571,53.289,297.7143,53.9871,287.5714,53.4222,277.4286,52.7218,267.2857,52.6262,257.1429,52.8241,247,53.495,236.8571,53.9632,226.7143,53.3741,216.5714,53.5854,206.4286,52.854,196.2857,53.7054,186.1429,53.0812,176,53.2969" style="stroke: #BF5700; stroke-width: 1.0;"/><path d="M460,53.2969 L460.0198,53.2969 L460.1492,55.2969 L460.2352,57.2969 L459.9588,59.2969 L460.0317,61.2969 L460,63.2969 " fill="#FFEFD5" style="stroke: #BF5700; stroke-width: 1.0;"/><path d="M470,63.2969 L470,63.3439 L468,63.5632 L466,63.2845 L464,63.0015 L462,63.3679 L460,63.2969 " fill="#FFEFD5" style="stroke: #BF5700; stroke-width: 1.0;"/><text fill="#000000" font-family="sans-serif" font-size="13" lengthAdjust="spacingAndGlyphs" textLength="32" x="300.75" y="70.3638">HTTP</text><polygon fill="#FFA500" points="422.5,104.4297,422.4987,104.4265,424.4578,105.1243,426.5274,106.0981,428.4321,106.6599,430.4607,107.5316,432.5,108.4297,432.5214,108.4831,430.5562,109.3701,428.5415,110.1335,426.4163,110.6204,424.4976,111.6238,422.5,112.4297,422.3329,112.2625,423.4518,111.7815,423.9561,110.6858,424.9518,110.0815,425.8758,109.4055,426.5,108.4297,426.674,108.6037,425.7053,107.635,424.8242,106.7539,424.1898,106.1195,423.18,105.1096,422.5,104.4297" style="stroke: #FFA500; stroke-width: 1.0;"/><path d="M208.5,108.4297 L208.5,108.5284 L218.5,108.9523 L228.5,107.8391 L238.5,107.9632 L248.5,108.7389 L258.5,108.9863 L268.5,107.7047 L278.5,108.7892 L288.5,108.1072 L298.5,108.9093 L308.5,108.6912 L318.5,108.8036 L328.5,108.226 L338.5,108.0085 L348.5,107.6898 L358.5,108.9963 L368.5,107.6663 L378.5,108.0974 L388.5,108.5698 L398.5,107.8673 L408.5,107.5826 L418.5,107.5924 L428.5,108.4297 " fill="none" style="stroke: #FFA500; stroke-width: 1.0;"/><text fill="#FF8C00" font-family="sans-serif" font-size="13" lengthAdjust="spacingAndGlyphs" textLength="88" x="215.5" y="103.4966">Page Request</text><polygon fill="#FFEFD5" filter="url(#f1)" points="449,121.5625,449.3727,121.5625,449.0167,130.7292,448.9964,139.8958,449.5095,149.0625,449.3055,158.2292,448.92,167.3958,449,176.5625,449,176.7831,458.9474,176.5543,468.8947,175.9824,478.8421,176.3881,488.7895,176.5465,498.7368,176.9231,508.6842,176.8828,518.6316,176.4507,528.5789,177.0331,538.5263,176.1839,548.4737,176.4758,558.4211,176.2018,568.3684,176.1287,578.3158,175.8697,588.2632,176.4542,598.2105,176.0398,608.1579,176.8498,618.1053,176.4039,628.0526,175.9454,638,176.5625,638.3695,176.5625,637.795,167.5625,638.2204,158.5625,637.9432,149.5625,638.6906,140.5625,638,131.5625,637.9719,131.5344,635.8879,129.4504,633.9874,127.5499,631.9471,125.5096,630.0948,123.6573,628,121.5625,628,122.2646,618.0556,120.9207,608.1111,122.1789,598.1667,122.1314,588.2222,122.0352,578.2778,121.4697,568.3333,121.2575,558.3889,122.288,548.4444,121.5903,538.5,121.8344,528.5556,122.2571,518.6111,121.4165,508.6667,122.0864,498.7222,121.6324,488.7778,121.87,478.8333,121.9907,468.8889,121.1626,458.9444,121.2619,449,121.5625" style="stroke: #BF5700; stroke-width: 1.0;"/><path d="M628,121.5625 L628.0061,121.5625 L627.7686,123.5625 L628.1632,125.5625 L627.741,127.5625 L628.0355,129.5625 L628,131.5625 " fill="#FFEFD5" style="stroke: #BF5700; stroke-width: 1.0;"/><path d="M638,131.5625 L638,131.2498 L636,131.7717 L634,131.7609 L632,131.6068 L630,131.5955 L628,131.5625 " fill="#FFEFD5" style="stroke: #BF5700; stroke-width: 1.0;"/><text fill="#000000" font-family="sans-serif" font-size="13" lengthAdjust="spacingAndGlyphs" textLength="140" x="455" y="138.6294">Build HTML fragments</text><text fill="#000000" font-family="sans-serif" font-size="13" lengthAdjust="spacingAndGlyphs" textLength="163" x="455" y="153.7622">using Mako Python library</text><text fill="#000000" font-family="sans-serif" font-size="13" lengthAdjust="spacingAndGlyphs" textLength="168" x="455" y="168.895">in Galaxy "web" controllers</text><polygon fill="#FFA500" points="219.5,202.9609,219.5546,203.0974,217.4257,203.5751,215.5211,204.6137,213.4427,205.2177,211.452,206.0409,209.5,206.9609,209.5465,207.0772,211.5353,207.8492,213.576,208.751,215.4883,209.3317,217.4661,210.0763,219.5,210.9609,219.4274,210.8884,218.7267,210.1876,217.8401,209.3011,217.0354,208.4964,216.2698,207.7308,215.5,206.9609,215.3931,206.854,216.3727,206.2336,217.0219,205.2828,217.7486,204.4096,218.5308,203.5918,219.5,202.9609" style="stroke: #FFA500; stroke-width: 1.0;"/><path d="M213.5,206.9609 L213.5,207.8377 L223.2826,206.7036 L233.0652,207.5266 L242.8478,207.0497 L252.6304,206.5478 L262.413,207.6354 L272.1957,207.8441 L281.9783,207.1384 L291.7609,206.371 L301.5435,207.6455 L311.3261,206.5017 L321.1087,207.8178 L330.8913,206.9547 L340.6739,206.8004 L350.4565,206.1245 L360.2391,207.003 L370.0217,207.8516 L379.8043,207.9437 L389.587,206.2922 L399.3696,206.319 L409.1522,206.0086 L418.9348,206.8747 L428.7174,207.2658 L438.5,206.9609 " fill="none" style="stroke: #FFA500; stroke-width: 1.0; stroke-dasharray: 2.0,2.0;"/><text fill="#FF8C00" font-family="sans-serif" font-size="13" lengthAdjust="spacingAndGlyphs" textLength="202" x="225.5" y="202.0278">Static Content (HTML+JS+CSS)</text><polygon fill="#FFEFD5" filter="url(#f1)" points="8,220.0938,8.0068,220.0938,7.7807,228.0938,7.7896,236.0938,7.8559,244.0938,7.8504,252.0938,8,260.0938,8,259.9684,18.1053,259.8591,28.2105,259.9729,38.3158,259.4303,48.4211,260.2422,58.5263,260.3079,68.6316,259.4506,78.7368,259.4502,88.8421,260.2181,98.9474,259.3793,109.0526,260.2979,119.1579,259.9329,129.2632,260.5688,139.3684,259.8655,149.4737,260.7238,159.5789,259.9663,169.6842,260.3732,179.7895,259.3998,189.8947,259.8923,200,260.0938,199.9208,260.0938,199.9463,254.0938,199.8145,248.0938,199.8656,242.0938,199.8544,236.0938,200,230.0938,199.9591,230.0529,198.0429,228.1366,195.8861,225.9798,193.8431,223.9369,192.0477,222.1414,190,220.0938,190,219.47,179.8889,220.1775,169.7778,220.713,159.6667,219.5954,149.5556,219.6458,139.4444,220.6982,129.3333,220.0248,119.2222,219.8252,109.1111,219.8511,99,220.6339,88.8889,220.2288,78.7778,219.7829,68.6667,219.8946,58.5556,220.6633,48.4444,220.6441,38.3333,220.1469,28.2222,220.6025,18.1111,220.4337,8,220.0938" style="stroke: #BF5700; stroke-width: 1.0;"/><path d="M190,220.0938 L189.939,220.0938 L190.0359,222.0938 L189.78,224.0938 L190.2505,226.0938 L189.7906,228.0938 L190,230.0938 " fill="#FFEFD5" style="stroke: #BF5700; stroke-width: 1.0;"/><path d="M200,230.0938 L200,230.178 L198,230.2961 L196,230.0803 L194,230.2157 L192,230.3556 L190,230.0938 " fill="#FFEFD5" style="stroke: #BF5700; stroke-width: 1.0;"/><text fill="#000000" font-family="sans-serif" font-size="13" lengthAdjust="spacingAndGlyphs" textLength="167" x="14" y="237.1606">Render HTML fragraments</text><text fill="#000000" font-family="sans-serif" font-size="13" lengthAdjust="spacingAndGlyphs" textLength="92" x="14" y="252.2935">with JavaScript</text></g></svg>