<?xml version="1.0" encoding="UTF-8" standalone="yes"?><svg xmlns="http://www.w3.org/2000/svg" xmlns:xlink="http://www.w3.org/1999/xlink" height="430px" style="width:605px;height:430px;" version="1.1" viewBox="0 0 605 430" width="605px"><defs><filter height="300%" id="f1" width="300%" x="-1" y="-1"><feGaussianBlur result="blurOut" stdDeviation="2.0"/><feColorMatrix in="blurOut" result="blurOut2" type="matrix" values="0 0 0 0 0 0 0 0 0 0 0 0 0 0 0 0 0 0 .4 0"/><feOffset dx="4.0" dy="4.0" in="blurOut2" result="blurOut3"/><feBlend in="SourceGraphic" in2="blurOut3" mode="normal"/></filter></defs><g><polygon fill="#FFEFD5" filter="url(#f1)" points="397.5,108.4297,397.5,108.2938,399.5,108.378,401.5,108.5996,403.5,108.6048,405.5,108.347,407.5,108.4297,407.6144,108.4297,407.2624,114.2563,407.4045,120.0828,407.6273,125.9094,407.3132,131.7359,407.5,137.5625,407.5,137.3609,405.5,137.6717,403.5,137.7605,401.5,137.3917,399.5,137.7581,397.5,137.5625,397.3832,137.5625,397.4132,131.7359,397.5338,125.9094,397.6071,120.0828,397.7193,114.2563,397.5,108.4297" style="stroke: #FF8C00; stroke-width: 1.0;"/><polygon fill="#FFEFD5" filter="url(#f1)" points="397.5,220.9609,397.5,221.1904,399.5,220.7516,401.5,220.7719,403.5,220.9846,405.5,221.1008,407.5,220.9609,407.0974,220.9609,407.9047,231.3857,407.0753,241.8105,407.5755,252.2354,407.3543,262.6602,407.2594,273.085,407.8534,283.5098,408.103,293.9346,407.5,304.3594,407.5,304.3543,405.5,304.4022,403.5,304.2501,401.5,304.1464,399.5,304.2653,397.5,304.3594,398.1314,304.3594,397.0545,293.9346,397.0806,283.5098,397.1714,273.085,397.7738,262.6602,397.9772,252.2354,397.8438,241.8105,397.9095,231.3857,397.5,220.9609" style="stroke: #FF8C00; stroke-width: 1.0;"/><path d="M171,38.2969 L170.5729,38.2969 L171.1267,48.3996 L170.7195,58.5022 L170.3788,68.6049 L171.7692,78.7076 L170.5753,88.8103 L170.4203,98.9129 L171.6705,109.0156 L171.7898,119.1183 L170.089,129.221 L171.1546,139.3237 L170.9384,149.4263 L171.7398,159.529 L170.7741,169.6317 L171.3286,179.7344 L171.4031,189.8371 L171.2185,199.9397 L171.8309,210.0424 L171.6564,220.1451 L170.6726,230.2478 L170.4148,240.3504 L171.33,250.4531 L171.2837,260.5558 L170.525,270.6585 L171.7072,280.7612 L171.7124,290.8638 L170.9367,300.9665 L171.2096,311.0692 L171.35,321.1719 L171.1086,331.2746 L171.031,341.3772 L171.0831,351.4799 L171.4555,361.5826 L171.8115,371.6853 L170.8986,381.7879 L171,391.8906 " fill="none" style="stroke: #FF8C00; stroke-width: 1.0; stroke-dasharray: 5.0,5.0;"/><path d="M402.5,38.2969 L402.4819,38.2969 L402.3012,48.3996 L403.1656,58.5022 L402.7043,68.6049 L402.0017,78.7076 L403.4969,88.8103 L402.2521,98.9129 L402.7225,109.0156 L401.8169,119.1183 L401.7401,129.221 L402.0485,139.3237 L403.4317,149.4263 L402.3153,159.529 L402.7685,169.6317 L403.2362,179.7344 L402.3586,189.8371 L402.1615,199.9397 L402.6875,210.0424 L401.5025,220.1451 L402.7672,230.2478 L402.9205,240.3504 L402.1054,250.4531 L402.0535,260.5558 L402.1363,270.6585 L401.5852,280.7612 L403.453,290.8638 L403.1027,300.9665 L402.9067,311.0692 L401.7443,321.1719 L403.4957,331.2746 L402.3432,341.3772 L402.2034,351.4799 L402.2144,361.5826 L402.8634,371.6853 L402.3381,381.7879 L402.5,391.8906 " fill="none" style="stroke: #FF8C00; stroke-width: 1.0; stroke-dasharray: 5.0,5.0;"/><polygon fill="#FFEFD5" filter="url(#f1)" points="134,3,134,3.1137,144.1429,3.5473,154.2857,3.3228,164.4286,3.2847,174.5714,2.2525,184.7143,3.1819,194.8571,2.3018,205,3,205.0421,3,204.8947,9.0594,205.1335,15.1188,205.1716,21.1781,205.1642,27.2375,205,33.2969,205,32.9246,194.8571,33.4222,184.7143,33.681,174.5714,32.9807,164.4286,33.5818,154.2857,33.5522,144.1429,33.5794,134,33.2969,134.1362,33.2969,133.8464,27.2375,133.9752,21.1781,133.7858,15.1187,134.0387,9.0594,134,3" style="stroke: #FF8C00; stroke-width: 1.5;"/><text fill="#000000" font-family="sans-serif" font-size="14" lengthAdjust="spacingAndGlyphs" textLength="57" x="141" y="22.9951">Browser</text><polygon fill="#FFEFD5" filter="url(#f1)" points="134,390.8906,134,391.512,144.1429,390.6519,154.2857,390.5948,164.4286,390.358,174.5714,391.5702,184.7143,391.1949,194.8571,391.6196,205,390.8906,205.1762,390.8906,204.9598,396.95,204.7929,403.0094,205.0155,409.0688,205.1587,415.1281,205,421.1875,205,421.2939,194.8571,420.8108,184.7143,420.4674,174.5714,421.1459,164.4286,421.2453,154.2857,420.4712,144.1429,421.8545,134,421.1875,134.0827,421.1875,133.8324,415.1281,133.8681,409.0688,133.974,403.0094,133.8194,396.95,134,390.8906" style="stroke: #FF8C00; stroke-width: 1.5;"/><text fill="#000000" font-family="sans-serif" font-size="14" lengthAdjust="spacingAndGlyphs" textLength="57" x="141" y="410.8857">Browser</text><polygon fill="#FFEFD5" filter="url(#f1)" points="371.5,3,371.5,2.6835,381.1667,3.3042,390.8333,2.3765,400.5,2.8599,410.1667,3.0067,419.8333,3.1487,429.5,3,429.6671,3,429.4221,9.0594,429.7111,15.1188,429.5191,21.1781,429.3366,27.2375,429.5,33.2969,429.5,32.7856,419.8333,33.81,410.1667,32.7906,400.5,33.1548,390.8333,33.8775,381.1667,33.202,371.5,33.2969,371.364,33.2969,371.3618,27.2375,371.3029,21.1781,371.5524,15.1187,371.6899,9.0594,371.5,3" style="stroke: #FF8C00; stroke-width: 1.5;"/><text fill="#000000" font-family="sans-serif" font-size="14" lengthAdjust="spacingAndGlyphs" textLength="44" x="378.5" y="22.9951">Server</text><polygon fill="#FFEFD5" filter="url(#f1)" points="371.5,390.8906,371.5,390.9765,381.1667,390.469,390.8333,390.2007,400.5,390.3454,410.1667,390.447,419.8333,390.7411,429.5,390.8906,429.4037,390.8906,429.5134,396.95,429.5179,403.0094,429.3164,409.0688,429.394,415.1281,429.5,421.1875,429.5,420.9213,419.8333,421.4613,410.1667,420.7443,400.5,421.6225,390.8333,421.8279,381.1667,420.5662,371.5,421.1875,371.2784,421.1875,371.4417,415.1281,371.5832,409.0688,371.3078,403.0094,371.4954,396.95,371.5,390.8906" style="stroke: #FF8C00; stroke-width: 1.5;"/><text fill="#000000" font-family="sans-serif" font-size="14" lengthAdjust="spacingAndGlyphs" textLength="44" x="378.5" y="410.8857">Server</text><polygon fill="#FFEFD5" filter="url(#f1)" points="397.5,108.4297,397.5,108.4965,399.5,108.4453,401.5,108.4848,403.5,108.6611,405.5,108.6106,407.5,108.4297,407.3981,108.4297,407.6012,114.2563,407.7488,120.0828,407.4313,125.9094,407.7138,131.7359,407.5,137.5625,407.5,137.38,405.5,137.6395,403.5,137.637,401.5,137.4436,399.5,137.5474,397.5,137.5625,397.4878,137.5625,397.6441,131.7359,397.5524,125.9094,397.3092,120.0828,397.7199,114.2563,397.5,108.4297" style="stroke: #FF8C00; stroke-width: 1.0;"/><polygon fill="#FFEFD5" filter="url(#f1)" points="397.5,220.9609,397.5,220.8189,399.5,220.7897,401.5,220.7141,403.5,220.7656,405.5,221.0094,407.5,220.9609,406.8139,220.9609,408.1039,231.3857,408.1951,241.8105,407.2229,252.2354,406.9521,262.6602,406.7706,273.085,407.8787,283.5098,406.8121,293.9346,407.5,304.3594,407.5,304.5868,405.5,304.2822,403.5,304.4555,401.5,304.3735,399.5,304.3689,397.5,304.3594,397.644,304.3594,397.2938,293.9346,397.2586,283.5098,397.1395,273.085,398.1475,262.6602,397.2476,252.2354,397.6547,241.8105,398.1979,231.3857,397.5,220.9609" style="stroke: #FF8C00; stroke-width: 1.0;"/><polygon fill="#FFEFD5" filter="url(#f1)" points="139,53.2969,139.2246,53.2969,139.1365,58.2969,138.8163,63.2969,138.7989,68.2969,138.9488,73.2969,139,78.2969,139,77.8104,149.1379,78.019,159.2759,78.8344,169.4138,78.8587,179.5517,78.5789,189.6897,77.7254,199.8276,79.0142,209.9655,78.5569,220.1034,77.7802,230.2414,78.0366,240.3793,78.1587,250.5172,77.9676,260.6552,78.3531,270.7931,78.5998,280.931,78.8533,291.069,78.5597,301.2069,77.6941,311.3448,77.974,321.4828,78.4979,331.6207,78.4348,341.7586,78.4152,351.8966,77.9574,362.0345,78.7824,372.1724,77.9192,382.3103,78.23,392.4483,77.7371,402.5862,77.84,412.7241,78.6495,422.8621,78.1208,433,78.2969,432.9906,78.2969,432.9627,75.2969,432.899,72.2969,432.7584,69.2969,432.9159,66.2969,433,63.2969,433.0911,63.388,430.8641,61.161,429.0309,59.3277,427.029,57.3259,424.8912,55.1881,423,53.2969,423,53.9074,412.8571,53.8478,402.7143,53.4411,392.5714,53.0742,382.4286,53.6844,372.2857,53.3904,362.1429,53.6678,352,53.5943,341.8571,54.0123,331.7143,53.4478,321.5714,52.791,311.4286,53.9283,301.2857,53.3349,291.1429,53.0926,281,53.9155,270.8571,52.5871,260.7143,53.5831,250.5714,53.3755,240.4286,53.726,230.2857,52.5595,220.1429,52.671,210,52.7286,199.8571,53.3539,189.7143,53.8458,179.5714,53.8025,169.4286,53.3894,159.2857,52.6397,149.1429,52.9649,139,53.2969" style="stroke: #BF5700; stroke-width: 1.0;"/><path d="M423,53.2969 L422.6876,53.2969 L423.1601,55.2969 L422.92,57.2969 L422.8816,59.2969 L423.1934,61.2969 L423,63.2969 " fill="#FFEFD5" style="stroke: #BF5700; stroke-width: 1.0;"/><path d="M433,63.2969 L433,63.3137 L431,63.3658 L429,63.1831 L427,63.2112 L425,63.3375 L423,63.2969 " fill="#FFEFD5" style="stroke: #BF5700; stroke-width: 1.0;"/><text fill="#000000" font-family="sans-serif" font-size="13" lengthAdjust="spacingAndGlyphs" textLength="32" x="263.75" y="70.3638">HTTP</text><polygon fill="#FFA500" points="385.5,104.4297,385.431,104.2572,387.4588,105.1266,389.535,106.1171,391.5473,106.9479,393.4616,107.5337,395.5,108.4297,395.5904,108.6556,393.4476,109.0988,391.473,109.9623,389.5034,110.8381,387.5674,111.7983,385.5,112.4297,385.3598,112.2895,386.441,111.7707,387.1329,110.8626,387.7365,109.8662,388.6773,109.2069,389.5,108.4297,389.6062,108.5359,388.6184,107.5481,387.8544,106.7841,387.0101,105.9398,386.4568,105.3864,385.5,104.4297" style="stroke: #FFA500; stroke-width: 1.0;"/><path d="M171.5,108.4297 L171.5,108.7076 L181.5,107.6202 L191.5,108.6506 L201.5,108.0728 L211.5,109.3493 L221.5,108.8067 L231.5,108.4193 L241.5,108.5268 L251.5,108.6434 L261.5,107.5288 L271.5,108.483 L281.5,109.2852 L291.5,108.8063 L301.5,107.5575 L311.5,109.0313 L321.5,108.9036 L331.5,108.5775 L341.5,108.0275 L351.5,107.5631 L361.5,108.3112 L371.5,107.6924 L381.5,109.0125 L391.5,108.4297 " fill="none" style="stroke: #FFA500; stroke-width: 1.0;"/><text fill="#FFEFD5" font-family="sans-serif" font-size="13" lengthAdjust="spacingAndGlyphs" textLength="88" x="178.5" y="103.4966">Page Request</text><polygon fill="#FFA500" points="182.5,133.5625,182.4537,133.4467,180.536,134.4526,178.5669,135.3297,176.54,136.0624,174.4446,136.6241,172.5,137.5625,172.4528,137.4446,174.4723,138.2934,176.4316,138.9916,178.5628,140.1196,180.4428,140.6195,182.5,141.5625,182.5277,141.5902,181.5375,140.6,180.8974,139.9599,180.0839,139.1464,179.2851,138.3476,178.5,137.5625,178.5161,137.5786,179.2066,136.6691,180.2409,136.1034,181.0322,135.2947,181.5805,134.243,182.5,133.5625" style="stroke: #FFA500; stroke-width: 1.0;"/><path d="M176.5,137.5625 L176.5,137.0927 L186.2826,136.786 L196.0652,138.5337 L205.8478,136.6879 L215.6304,136.7747 L225.413,137.7308 L235.1957,136.7339 L244.9783,137.5037 L254.7609,137.3277 L264.5435,138.2482 L274.3261,137.7243 L284.1087,137.2895 L293.8913,137.0619 L303.6739,138.5354 L313.4565,138.1725 L323.2391,137.0525 L333.0217,137.1241 L342.8043,136.6947 L352.587,137.2976 L362.3696,138.3488 L372.1522,137.8263 L381.9348,138.2564 L391.7174,137.6996 L401.5,137.5625 " fill="none" style="stroke: #FFA500; stroke-width: 1.0; stroke-dasharray: 2.0,2.0;"/><text fill="#FFEFD5" font-family="sans-serif" font-size="13" lengthAdjust="spacingAndGlyphs" textLength="202" x="188.5" y="132.6294">Static Content (HTML+JS+CSS)</text><polygon fill="#FFEFD5" filter="url(#f1)" points="65,150.6953,65.1326,150.6953,65.0914,158.6953,65.083,166.6953,64.793,174.6953,64.7932,182.6953,65,190.6953,65,190.064,74.7,190.5135,84.4,190.9369,94.1,190.8511,103.8,190.1902,113.5,191.0848,123.2,191.2465,132.9,190.7323,142.6,190.2305,152.3,190.2139,162,190.6953,161.8801,190.6953,161.8971,184.6953,161.99,178.6953,162.2229,172.6953,161.8724,166.6953,162,160.6953,162.036,160.7313,160.0897,158.785,157.9459,156.6412,156.143,154.8384,153.9374,152.6327,152,150.6953,152,150.454,142.3333,150.1995,132.6667,151.0848,123,149.9761,113.3333,151.0217,103.6667,150.424,94,149.9658,84.3333,150.1691,74.6667,149.9665,65,150.6953" style="stroke: #BF5700; stroke-width: 1.0;"/><path d="M152,150.6953 L151.729,150.6953 L151.8442,152.6953 L151.7966,154.6953 L151.9988,156.6953 L152.1228,158.6953 L152,160.6953 " fill="#FFEFD5" style="stroke: #BF5700; stroke-width: 1.0;"/><path d="M162,160.6953 L162,160.9899 L160,160.8272 L158,161.0185 L156,160.7684 L154,160.8906 L152,160.6953 " fill="#FFEFD5" style="stroke: #BF5700; stroke-width: 1.0;"/><text fill="#000000" font-family="sans-serif" font-size="13" lengthAdjust="spacingAndGlyphs" textLength="58" x="71" y="167.7622">MVC with</text><text fill="#000000" font-family="sans-serif" font-size="13" lengthAdjust="spacingAndGlyphs" textLength="76" x="71" y="182.895">backbone.js</text><polygon fill="#FFA500" points="385.5,216.9609,385.4784,216.907,387.4404,217.6118,389.5908,218.7878,391.5551,219.4987,393.5047,220.1727,395.5,220.9609,395.5028,220.9679,393.5703,221.9367,391.5114,222.5893,389.4308,223.188,387.5714,224.3394,385.5,224.9609,385.4275,224.8884,386.4767,224.3376,387.1385,223.3995,388.0193,222.6802,388.5354,221.5963,389.5,220.9609,389.5081,220.969,388.6344,220.0953,387.8576,219.3185,386.9244,218.3854,386.238,217.6989,385.5,216.9609" style="stroke: #FFA500; stroke-width: 1.0;"/><path d="M171.5,220.9609 L171.5,220.8777 L181.5,220.6866 L191.5,220.8426 L201.5,220.996 L211.5,221.8594 L221.5,221.3266 L231.5,220.3646 L241.5,221.7372 L251.5,221.9561 L261.5,220.1233 L271.5,220.2305 L281.5,221.7734 L291.5,220.858 L301.5,220.4266 L311.5,221.0636 L321.5,220.6184 L331.5,220.7965 L341.5,220.1096 L351.5,221.6529 L361.5,220.5377 L371.5,220.0377 L381.5,221.7882 L391.5,220.9609 " fill="none" style="stroke: #FFA500; stroke-width: 1.0;"/><text fill="#FFEFD5" font-family="sans-serif" font-size="13" lengthAdjust="spacingAndGlyphs" textLength="122" x="178.5" y="216.0278">API Request (JSON)</text><polygon fill="#FFEFD5" filter="url(#f1)" points="412,234.0938,411.986,234.0938,411.825,242.0938,412.2249,250.0938,412.1532,258.0938,412.1137,266.0938,412,274.0938,412,274.3278,422.2222,274.2082,432.4444,274.7947,442.6667,273.5546,452.8889,274.7867,463.1111,273.7261,473.3333,274.2608,483.5556,274.3695,493.7778,273.4799,504,274.6544,514.2222,274.2377,524.4444,274.1835,534.6667,273.491,544.8889,274.6708,555.1111,274.1599,565.3333,274.7489,575.5556,274.6336,585.7778,273.8568,596,274.0938,596.1466,274.0938,596.1068,268.0938,596.1708,262.0938,595.7535,256.0938,596.0074,250.0938,596,244.0938,595.8972,243.991,594.0058,242.0996,592.0129,240.1067,590.0698,238.1635,588.0241,236.1178,586,234.0938,586,233.7004,575.7647,233.8672,565.5294,233.9042,555.2941,234.3502,545.0588,233.8819,534.8235,234.7291,524.5882,234.1113,514.3529,233.9892,504.1176,233.6849,493.8824,233.428,483.6471,233.8877,473.4118,234.1341,463.1765,233.8761,452.9412,234.7582,442.7059,234.5165,432.4706,234.7353,422.2353,234.209,412,234.0938" style="stroke: #BF5700; stroke-width: 1.0;"/><path d="M586,234.0938 L586.2772,234.0938 L585.7372,236.0938 L586.2595,238.0938 L585.9254,240.0938 L585.7951,242.0938 L586,244.0938 " fill="#FFEFD5" style="stroke: #BF5700; stroke-width: 1.0;"/><path d="M596,244.0938 L596,244.1442 L594,244.1727 L592,244.3196 L590,243.8567 L588,243.7948 L586,244.0938 " fill="#FFEFD5" style="stroke: #BF5700; stroke-width: 1.0;"/><text fill="#000000" font-family="sans-serif" font-size="13" lengthAdjust="spacingAndGlyphs" textLength="130" x="418" y="251.1606">Build JSON response</text><text fill="#000000" font-family="sans-serif" font-size="13" lengthAdjust="spacingAndGlyphs" textLength="163" x="418" y="266.2935">in Galaxy "API" controllers</text><polygon fill="#FFA500" points="182.5,300.3594,182.4661,300.2746,180.4865,301.1257,178.4641,301.8697,176.5664,302.9253,174.5919,303.7891,172.5,304.3594,172.4671,304.277,174.5353,305.2475,176.4144,305.7454,178.4375,306.6031,180.5892,307.7824,182.5,308.3594,182.6257,308.485,181.5583,307.4177,180.862,306.7214,180.2081,306.0675,179.3862,305.2456,178.5,304.3594,178.466,304.3254,179.3385,303.5978,180.253,302.9124,180.8413,301.9007,181.8496,301.309,182.5,300.3594" style="stroke: #FFA500; stroke-width: 1.0;"/><path d="M176.5,304.3594 L176.5,303.4913 L186.2826,304.2894 L196.0652,305.1964 L205.8478,304.9416 L215.6304,303.4227 L225.413,304.6192 L235.1957,303.5076 L244.9783,303.9929 L254.7609,304.242 L264.5435,303.8786 L274.3261,303.9236 L284.1087,304.5536 L293.8913,303.5356 L303.6739,304.9716 L313.4565,304.6485 L323.2391,304.7888 L333.0217,303.9822 L342.8043,304.8523 L352.587,303.7727 L362.3696,304.7648 L372.1522,304.6516 L381.9348,304.7958 L391.7174,303.4956 L401.5,304.3594 " fill="none" style="stroke: #FFA500; stroke-width: 1.0; stroke-dasharray: 2.0,2.0;"/><text fill="#FFEFD5" font-family="sans-serif" font-size="13" lengthAdjust="spacingAndGlyphs" textLength="132" x="188.5" y="299.4263">API Response (JSON)</text><polygon fill="#FFEFD5" filter="url(#f1)" points="8,317.4922,8.7356,317.4922,7.9715,326.6589,7.3361,335.8255,8.3354,344.9922,8.6299,354.1589,7.9381,363.3255,8,372.4922,8,372.6225,17.6875,373.1361,27.375,371.9662,37.0625,371.9314,46.75,372.5206,56.4375,373.0006,66.125,372.2199,75.8125,372.0609,85.5,372.0459,95.1875,372.0369,104.875,372.1441,114.5625,373.0605,124.25,371.9608,133.9375,371.7515,143.625,372.2674,153.3125,372.2501,163,372.4922,162.7017,372.4922,162.7494,363.4922,163.7064,354.4922,162.8485,345.4922,163.7311,336.4922,163,327.4922,163.0729,327.5651,160.9786,325.4708,159.0789,323.5711,156.8462,321.3384,154.8304,319.3226,153,317.4922,153,317.476,143.3333,318.1582,133.6667,316.8316,124,317.9923,114.3333,317.4296,104.6667,317.046,95,318.0235,85.3333,317.5976,75.6667,316.8818,66,317.0424,56.3333,317.2519,46.6667,317.2489,37,317.1196,27.3333,317.4666,17.6667,316.7786,8,317.4922" style="stroke: #BF5700; stroke-width: 1.0;"/><path d="M153,317.4922 L153.2308,317.4922 L152.961,319.4922 L152.9235,321.4922 L152.7056,323.4922 L152.8811,325.4922 L153,327.4922 " fill="#FFEFD5" style="stroke: #BF5700; stroke-width: 1.0;"/><path d="M163,327.4922 L163,327.2487 L161,327.737 L159,327.449 L157,327.34 L155,327.2536 L153,327.4922 " fill="#FFEFD5" style="stroke: #BF5700; stroke-width: 1.0;"/><text fill="#000000" font-family="sans-serif" font-size="13" lengthAdjust="spacingAndGlyphs" textLength="131" x="14" y="334.5591">HTML rendered from</text><text fill="#000000" font-family="sans-serif" font-size="13" lengthAdjust="spacingAndGlyphs" textLength="134" x="14" y="349.6919">client-side templates</text><text fill="#000000" font-family="sans-serif" font-size="13" lengthAdjust="spacingAndGlyphs" textLength="130" x="14" y="364.8247">(in Backbone views).</text></g></svg>