<?xml version="1.0" encoding="UTF-8" standalone="yes"?><svg xmlns="http://www.w3.org/2000/svg" xmlns:xlink="http://www.w3.org/1999/xlink" height="430px" style="width:605px;height:430px;" version="1.1" viewBox="0 0 605 430" width="605px"><defs><filter height="300%" id="f1" width="300%" x="-1" y="-1"><feGaussianBlur result="blurOut" stdDeviation="2.0"/><feColorMatrix in="blurOut" result="blurOut2" type="matrix" values="0 0 0 0 0 0 0 0 0 0 0 0 0 0 0 0 0 0 .4 0"/><feOffset dx="4.0" dy="4.0" in="blurOut2" result="blurOut3"/><feBlend in="SourceGraphic" in2="blurOut3" mode="normal"/></filter></defs><g><polygon fill="#FFEFD5" filter="url(#f1)" points="397.5,108.4297,397.5,108.6589,399.5,108.4684,401.5,108.4065,403.5,108.4311,405.5,108.2012,407.5,108.4297,407.4596,108.4297,407.6761,114.2563,407.2535,120.0828,407.4633,125.9094,407.3174,131.7359,407.5,137.5625,407.5,137.7479,405.5,137.7554,403.5,137.7865,401.5,137.7653,399.5,137.6182,397.5,137.5625,397.6312,137.5625,397.5205,131.7359,397.7379,125.9094,397.4623,120.0828,397.6597,114.2563,397.5,108.4297" style="stroke: #FF8C00; stroke-width: 1.0;"/><polygon fill="#FFEFD5" filter="url(#f1)" points="397.5,220.9609,397.5,221.0309,399.5,220.9029,401.5,221.0816,403.5,221.1174,405.5,221.143,407.5,220.9609,407.8436,220.9609,408.0634,231.3857,407.5159,241.8105,407.4216,252.2354,406.8981,262.6602,407.0455,273.085,408.2409,283.5098,407.8374,293.9346,407.5,304.3594,407.5,304.1548,405.5,304.4945,403.5,304.2654,401.5,304.2637,399.5,304.5593,397.5,304.3594,397.1208,304.3594,397.8558,293.9346,397.3228,283.5098,397.772,273.085,397.4085,262.6602,397.2876,252.2354,397.9206,241.8105,398.0651,231.3857,397.5,220.9609" style="stroke: #FF8C00; stroke-width: 1.0;"/><path d="M171,38.2969 L171.2281,38.2969 L171.8939,48.3996 L170.5475,58.5022 L171.7425,68.6049 L170.304,78.7076 L171.9089,88.8103 L171.2788,98.9129 L170.5146,109.0156 L171.4763,119.1183 L170.2782,129.221 L171.5887,139.3237 L170.2082,149.4263 L171.6089,159.529 L171.3519,169.6317 L170.7539,179.7344 L171.9492,189.8371 L170.8298,199.9397 L171.3689,210.0424 L171.5456,220.1451 L171.9877,230.2478 L170.5063,240.3504 L171.8033,250.4531 L171.2969,260.5558 L170.1037,270.6585 L171.5972,280.7612 L171.4896,290.8638 L171.1889,300.9665 L170.4478,311.0692 L170.3496,321.1719 L170.4786,331.2746 L170.9721,341.3772 L171.4188,351.4799 L171.0408,361.5826 L170.4848,371.6853 L171.2908,381.7879 L171,391.8906 " fill="none" style="stroke: #FF8C00; stroke-width: 1.0; stroke-dasharray: 5.0,5.0;"/><path d="M402.5,38.2969 L401.5501,38.2969 L401.6349,48.3996 L401.6214,58.5022 L403.1671,68.6049 L403.1917,78.7076 L402.3318,88.8103 L403.4048,98.9129 L402.5283,109.0156 L403.0197,119.1183 L403.0314,129.221 L401.7226,139.3237 L402.922,149.4263 L402.0904,159.529 L401.717,169.6317 L402.6159,179.7344 L401.7686,189.8371 L403.2822,199.9397 L402.683,210.0424 L403.3173,220.1451 L401.6366,230.2478 L401.5255,240.3504 L402.3899,250.4531 L402.0162,260.5558 L403.1027,270.6585 L402.2214,280.7612 L401.5219,290.8638 L402.289,300.9665 L401.7735,311.0692 L401.684,321.1719 L402.5584,331.2746 L402.0365,341.3772 L402.996,351.4799 L401.815,361.5826 L402.3374,371.6853 L401.6122,381.7879 L402.5,391.8906 " fill="none" style="stroke: #FF8C00; stroke-width: 1.0; stroke-dasharray: 5.0,5.0;"/><polygon fill="#FFEFD5" filter="url(#f1)" points="134,3,134,3.5043,144.1429,2.6473,154.2857,3.5245,164.4286,2.7044,174.5714,3.3161,184.7143,3.1511,194.8571,2.8807,205,3,204.9902,3,205.0234,9.0594,204.8939,15.1188,205.1239,21.1781,205.1904,27.2375,205,33.2969,205,33.5547,194.8571,33.4714,184.7143,33.6505,174.5714,32.6327,164.4286,33.0044,154.2857,33.0951,144.1429,32.8798,134,33.2969,133.7707,33.2969,134.105,27.2375,133.7671,21.1781,134.0452,15.1187,133.8975,9.0594,134,3" style="stroke: #FF8C00; stroke-width: 1.5;"/><text fill="#000000" font-family="sans-serif" font-size="14" lengthAdjust="spacingAndGlyphs" textLength="57" x="141" y="22.9951">Browser</text><polygon fill="#FFEFD5" filter="url(#f1)" points="134,390.8906,134,390.4852,144.1429,390.9132,154.2857,391.3628,164.4286,391.3621,174.5714,391.1065,184.7143,391.1646,194.8571,390.4734,205,390.8906,205.2327,390.8906,205.1204,396.95,205.0118,403.0094,204.7891,409.0688,205.015,415.1281,205,421.1875,205,421.7887,194.8571,421.6501,184.7143,421.7366,174.5714,420.4974,164.4286,421.7506,154.2857,421.7869,144.1429,421.733,134,421.1875,134.1558,421.1875,134.1479,415.1281,133.7995,409.0688,133.9248,403.0094,133.8176,396.95,134,390.8906" style="stroke: #FF8C00; stroke-width: 1.5;"/><text fill="#000000" font-family="sans-serif" font-size="14" lengthAdjust="spacingAndGlyphs" textLength="57" x="141" y="410.8857">Browser</text><polygon fill="#FFEFD5" filter="url(#f1)" points="371.5,3,371.5,3.3931,381.1667,3.7095,390.8333,2.8995,400.5,3.5082,410.1667,2.4809,419.8333,2.7527,429.5,3,429.3281,3,429.7151,9.0594,429.2808,15.1188,429.272,21.1781,429.3178,27.2375,429.5,33.2969,429.5,32.8808,419.8333,33.9845,410.1667,33.2211,400.5,33.4302,390.8333,33.7029,381.1667,33.946,371.5,33.2969,371.3674,33.2969,371.325,27.2375,371.5408,21.1781,371.4803,15.1187,371.5105,9.0594,371.5,3" style="stroke: #FF8C00; stroke-width: 1.5;"/><text fill="#000000" font-family="sans-serif" font-size="14" lengthAdjust="spacingAndGlyphs" textLength="44" x="378.5" y="22.9951">Server</text><polygon fill="#FFEFD5" filter="url(#f1)" points="371.5,390.8906,371.5,390.7417,381.1667,390.7817,390.8333,391.3859,400.5,390.8075,410.1667,390.9385,419.8333,391.1288,429.5,390.8906,429.7161,390.8906,429.7403,396.95,429.2562,403.0094,429.6096,409.0688,429.3482,415.1281,429.5,421.1875,429.5,421.2822,419.8333,421.2931,410.1667,421.2916,400.5,421.9333,390.8333,420.5214,381.1667,420.7229,371.5,421.1875,371.4851,421.1875,371.6764,415.1281,371.6707,409.0688,371.3465,403.0094,371.5096,396.95,371.5,390.8906" style="stroke: #FF8C00; stroke-width: 1.5;"/><text fill="#000000" font-family="sans-serif" font-size="14" lengthAdjust="spacingAndGlyphs" textLength="44" x="378.5" y="410.8857">Server</text><polygon fill="#FFEFD5" filter="url(#f1)" points="397.5,108.4297,397.5,108.291,399.5,108.2962,401.5,108.5819,403.5,108.1857,405.5,108.5046,407.5,108.4297,407.2875,108.4297,407.7094,114.2563,407.2918,120.0828,407.4531,125.9094,407.3806,131.7359,407.5,137.5625,407.5,137.3316,405.5,137.4121,403.5,137.6558,401.5,137.3134,399.5,137.6154,397.5,137.5625,397.6933,137.5625,397.6202,131.7359,397.74,125.9094,397.3354,120.0828,397.5751,114.2563,397.5,108.4297" style="stroke: #FF8C00; stroke-width: 1.0;"/><polygon fill="#FFEFD5" filter="url(#f1)" points="397.5,220.9609,397.5,220.7885,399.5,220.7428,401.5,221.2041,403.5,220.8463,405.5,221.1062,407.5,220.9609,408.2418,220.9609,407.9563,231.3857,407.7695,241.8105,407.6808,252.2354,407.4086,262.6602,407.8576,273.085,407.1938,283.5098,408.1993,293.9346,407.5,304.3594,407.5,304.5972,405.5,304.1858,403.5,304.1782,401.5,304.2566,399.5,304.6068,397.5,304.3594,397.6354,304.3594,396.9883,293.9346,398.136,283.5098,396.9232,273.085,397.9083,262.6602,396.9285,252.2354,397.6657,241.8105,397.5934,231.3857,397.5,220.9609" style="stroke: #FF8C00; stroke-width: 1.0;"/><polygon fill="#FFEFD5" filter="url(#f1)" points="139,53.2969,139.1002,53.2969,139.1862,58.2969,138.7905,63.2969,138.7555,68.2969,139.1709,73.2969,139,78.2969,139,77.9357,149.1379,77.789,159.2759,78.5782,169.4138,78.0166,179.5517,78.7375,189.6897,77.8108,199.8276,77.5588,209.9655,78.8641,220.1034,77.6682,230.2414,78.7535,240.3793,78.6891,250.5172,78.1966,260.6552,78.0604,270.7931,78.3871,280.931,78.7149,291.069,78.2915,301.2069,78.455,311.3448,78.2895,321.4828,77.814,331.6207,77.5721,341.7586,79.0428,351.8966,78.5232,362.0345,78.5407,372.1724,78.4347,382.3103,77.8403,392.4483,77.7837,402.5862,78.9364,412.7241,78.9345,422.8621,78.1671,433,78.2969,433.1167,78.2969,432.7736,75.2969,432.7818,72.2969,432.9216,69.2969,433.0759,66.2969,433,63.2969,433.0945,63.3914,431.0478,61.3447,428.9104,59.2073,426.8383,57.1352,425.1118,55.4087,423,53.2969,423,53.9728,412.8571,53.8462,402.7143,53.5055,392.5714,53.8929,382.4286,53.2308,372.2857,52.5883,362.1429,53.7611,352,53.5108,341.8571,53.4479,331.7143,53.6456,321.5714,53.9235,311.4286,53.6751,301.2857,53.6633,291.1429,52.8085,281,53.6036,270.8571,53.5252,260.7143,52.9148,250.5714,53.2534,240.4286,53.3321,230.2857,53.0745,220.1429,53.0981,210,54.0224,199.8571,53.8434,189.7143,53.6557,179.5714,52.6958,169.4286,53.8816,159.2857,53.5397,149.1429,53.0573,139,53.2969" style="stroke: #BF5700; stroke-width: 1.0;"/><path d="M423,53.2969 L422.9393,53.2969 L422.7932,55.2969 L422.9547,57.2969 L423.0375,59.2969 L423.2389,61.2969 L423,63.2969 " fill="#FFEFD5" style="stroke: #BF5700; stroke-width: 1.0;"/><path d="M433,63.2969 L433,63.3381 L431,63.1495 L429,63.3785 L427,63.538 L425,63.2517 L423,63.2969 " fill="#FFEFD5" style="stroke: #BF5700; stroke-width: 1.0;"/><text fill="#000000" font-family="sans-serif" font-size="13" lengthAdjust="spacingAndGlyphs" textLength="32" x="263.75" y="70.3638">HTTP</text><polygon fill="#FFA500" points="385.5,104.4297,385.4622,104.3351,387.5853,105.4429,389.4468,105.8966,391.4622,106.7352,393.5608,107.7817,395.5,108.4297,395.4533,108.3128,393.5571,109.3725,391.5411,110.1323,389.4932,110.8126,387.4877,111.599,385.5,112.4297,385.5901,112.5198,386.3208,111.6504,387.1141,110.8437,388.0593,110.189,388.6388,109.1684,389.5,108.4297,389.585,108.5147,388.6096,107.5393,387.9992,106.9289,387.0602,105.9899,386.3191,105.2488,385.5,104.4297" style="stroke: #FFA500; stroke-width: 1.0;"/><path d="M171.5,108.4297 L171.5,107.9575 L181.5,108.3974 L191.5,107.6981 L201.5,108.5884 L211.5,107.8142 L221.5,107.5992 L231.5,107.6806 L241.5,108.3106 L251.5,108.7733 L261.5,108.7733 L271.5,108.8092 L281.5,107.889 L291.5,108.3739 L301.5,108.9352 L311.5,109.2099 L321.5,109.2008 L331.5,108.2286 L341.5,109.0518 L351.5,107.9835 L361.5,109.3151 L371.5,107.6242 L381.5,107.701 L391.5,108.4297 " fill="none" style="stroke: #FFA500; stroke-width: 1.0;"/><text fill="#FF8C00" font-family="sans-serif" font-size="13" lengthAdjust="spacingAndGlyphs" textLength="88" x="178.5" y="103.4966">Page Request</text><polygon fill="#FFA500" points="182.5,133.5625,182.5338,133.6469,180.5801,134.5628,178.4863,135.1282,176.5625,136.1188,174.4623,136.6683,172.5,137.5625,172.4595,137.4612,174.4474,138.2309,176.4115,138.9412,178.4528,139.8445,180.5711,140.9402,182.5,141.5625,182.5892,141.6517,181.6646,140.7271,180.9972,140.0597,180.0867,139.1492,179.2593,138.3218,178.5,137.5625,178.3348,137.3973,179.16,136.6225,180.1652,136.0277,180.7881,135.0506,181.7929,134.4554,182.5,133.5625" style="stroke: #FFA500; stroke-width: 1.0;"/><path d="M176.5,137.5625 L176.5,138.2069 L186.2826,137.2001 L196.0652,137.5646 L205.8478,137.9032 L215.6304,137.7082 L225.413,138.562 L235.1957,138.1257 L244.9783,136.8797 L254.7609,137.6682 L264.5435,138.5399 L274.3261,138.258 L284.1087,137.7473 L293.8913,136.8439 L303.6739,138.4815 L313.4565,137.1384 L323.2391,136.6094 L333.0217,137.9638 L342.8043,136.8675 L352.587,137.3909 L362.3696,137.2532 L372.1522,137.2061 L381.9348,137.1456 L391.7174,137.7231 L401.5,137.5625 " fill="none" style="stroke: #FFA500; stroke-width: 1.0; stroke-dasharray: 2.0,2.0;"/><text fill="#FF8C00" font-family="sans-serif" font-size="13" lengthAdjust="spacingAndGlyphs" textLength="202" x="188.5" y="132.6294">Static Content (HTML+JS+CSS)</text><polygon fill="#FFEFD5" filter="url(#f1)" points="65,150.6953,64.8751,150.6953,65.2153,158.6953,64.9601,166.6953,64.9694,174.6953,65.0546,182.6953,65,190.6953,65,191.2386,74.7,190.3939,84.4,191.402,94.1,190.4957,103.8,190.834,113.5,190.253,123.2,191.224,132.9,191.0314,142.6,191.3195,152.3,191.2965,162,190.6953,162.2025,190.6953,161.8962,184.6953,161.9566,178.6953,161.8359,172.6953,161.779,166.6953,162,160.6953,161.8321,160.5274,160.0227,158.7181,158.0703,156.7656,155.9524,154.6477,153.8485,152.5438,152,150.6953,152,150.5029,142.3333,150.0979,132.6667,150.2879,123,150.3441,113.3333,151.1395,103.6667,151.1284,94,150.0166,84.3333,151.057,74.6667,151.0791,65,150.6953" style="stroke: #BF5700; stroke-width: 1.0;"/><path d="M152,150.6953 L152.1762,150.6953 L151.7044,152.6953 L151.7696,154.6953 L152.2172,156.6953 L152.1837,158.6953 L152,160.6953 " fill="#FFEFD5" style="stroke: #BF5700; stroke-width: 1.0;"/><path d="M162,160.6953 L162,160.4337 L160,160.517 L158,160.4578 L156,160.4506 L154,160.791 L152,160.6953 " fill="#FFEFD5" style="stroke: #BF5700; stroke-width: 1.0;"/><text fill="#000000" font-family="sans-serif" font-size="13" lengthAdjust="spacingAndGlyphs" textLength="58" x="71" y="167.7622">MVC with</text><text fill="#000000" font-family="sans-serif" font-size="13" lengthAdjust="spacingAndGlyphs" textLength="76" x="71" y="182.895">backbone.js</text><polygon fill="#FFA500" points="385.5,216.9609,385.5523,217.0918,387.4748,217.698,389.4467,218.4277,391.4157,219.1501,393.585,220.3733,395.5,220.9609,395.5572,221.1039,393.414,221.546,391.5842,222.7715,389.4943,223.3467,387.4476,224.03,385.5,224.9609,385.475,224.9359,386.1347,223.9957,387.0947,223.3557,388.0023,222.6632,388.5548,221.6158,389.5,220.9609,389.3323,220.7933,388.6334,220.0943,387.8414,219.3023,387.0831,218.544,386.3831,217.844,385.5,216.9609" style="stroke: #FFA500; stroke-width: 1.0;"/><path d="M171.5,220.9609 L171.5,220.8783 L181.5,221.227 L191.5,220.9184 L201.5,221.6995 L211.5,220.8479 L221.5,220.2938 L231.5,220.9687 L241.5,220.8722 L251.5,221.2758 L261.5,221.035 L271.5,221.8948 L281.5,221.4253 L291.5,221.5777 L301.5,221.9198 L311.5,220.5096 L321.5,220.2354 L331.5,221.6653 L341.5,220.7741 L351.5,220.3243 L361.5,220.3052 L371.5,221.8685 L381.5,220.8904 L391.5,220.9609 " fill="none" style="stroke: #FFA500; stroke-width: 1.0;"/><text fill="#FF8C00" font-family="sans-serif" font-size="13" lengthAdjust="spacingAndGlyphs" textLength="122" x="178.5" y="216.0278">API Request (JSON)</text><polygon fill="#FFEFD5" filter="url(#f1)" points="412,234.0938,412.221,234.0938,412.0233,242.0938,412.1804,250.0938,411.7807,258.0938,411.7716,266.0938,412,274.0938,412,273.5181,422.2222,273.5436,432.4444,274.5261,442.6667,274.3255,452.8889,274.383,463.1111,274.774,473.3333,274.2315,483.5556,274.7174,493.7778,274.6059,504,274.4552,514.2222,274.7561,524.4444,274.7483,534.6667,273.781,544.8889,274.1102,555.1111,274.2588,565.3333,274.5804,575.5556,274.1838,585.7778,274.6292,596,274.0938,595.7586,274.0938,595.868,268.0938,596.1651,262.0938,596.044,256.0938,596.196,250.0938,596,244.0938,596.1146,244.2084,593.8388,241.9325,591.975,240.0687,590.0987,238.1924,588.0277,236.1214,586,234.0938,586,234.1635,575.7647,234.5202,565.5294,234.3297,555.2941,233.8914,545.0588,234.0505,534.8235,233.9013,524.5882,234.3183,514.3529,233.4017,504.1176,233.9079,493.8824,234.2073,483.6471,234.0649,473.4118,233.7037,463.1765,233.9838,452.9412,234.2494,442.7059,234.8205,432.4706,234.0944,422.2353,234.3628,412,234.0938" style="stroke: #BF5700; stroke-width: 1.0;"/><path d="M586,234.0938 L585.6713,234.0938 L586.0568,236.0938 L585.9712,238.0938 L586.1632,240.0938 L586.2068,242.0938 L586,244.0938 " fill="#FFEFD5" style="stroke: #BF5700; stroke-width: 1.0;"/><path d="M596,244.0938 L596,243.9305 L594,244.3695 L592,243.9641 L590,244.0271 L588,243.7661 L586,244.0938 " fill="#FFEFD5" style="stroke: #BF5700; stroke-width: 1.0;"/><text fill="#000000" font-family="sans-serif" font-size="13" lengthAdjust="spacingAndGlyphs" textLength="130" x="418" y="251.1606">Build JSON response</text><text fill="#000000" font-family="sans-serif" font-size="13" lengthAdjust="spacingAndGlyphs" textLength="163" x="418" y="266.2935">in Galaxy "API" controllers</text><polygon fill="#FFA500" points="182.5,300.3594,182.4301,300.1847,180.5228,301.2163,178.4902,301.9349,176.5024,302.7653,174.4104,303.3353,172.5,304.3594,172.4633,304.2677,174.4959,305.1492,176.5728,306.1414,178.4422,306.615,180.4425,307.4157,182.5,308.3594,182.4201,308.2795,181.6121,307.4715,180.8092,306.6686,180.0405,305.8998,179.1444,305.0038,178.5,304.3594,178.6371,304.4965,179.3433,303.6026,180.0905,302.7499,180.877,301.9364,181.7154,301.1748,182.5,300.3594" style="stroke: #FFA500; stroke-width: 1.0;"/><path d="M176.5,304.3594 L176.5,303.8825 L186.2826,304.5494 L196.0652,303.8111 L205.8478,304.2158 L215.6304,304.122 L225.413,304.2065 L235.1957,305.1017 L244.9783,303.4981 L254.7609,304.1355 L264.5435,305.0298 L274.3261,304.5719 L284.1087,304.0708 L293.8913,303.8577 L303.6739,304.2883 L313.4565,304.5366 L323.2391,304.1766 L333.0217,304.9888 L342.8043,304.7888 L352.587,303.7563 L362.3696,303.6779 L372.1522,304.1321 L381.9348,304.802 L391.7174,303.4797 L401.5,304.3594 " fill="none" style="stroke: #FFA500; stroke-width: 1.0; stroke-dasharray: 2.0,2.0;"/><text fill="#FF8C00" font-family="sans-serif" font-size="13" lengthAdjust="spacingAndGlyphs" textLength="132" x="188.5" y="299.4263">API Response (JSON)</text><polygon fill="#FFEFD5" filter="url(#f1)" points="8,317.4922,8.3293,317.4922,7.8182,326.6589,8.2017,335.8255,8.5408,344.9922,8.4678,354.1589,7.527,363.3255,8,372.4922,8,373.06,17.6875,372.9243,27.375,372.7508,37.0625,372.2472,46.75,372.9424,56.4375,372.3229,66.125,373.1769,75.8125,372.8874,85.5,372.2594,95.1875,372.95,104.875,372.1346,114.5625,372.2756,124.25,371.8833,133.9375,372.9696,143.625,373.1465,153.3125,372.0404,163,372.4922,162.4894,372.4922,163.2137,363.4922,163.548,354.4922,163.2841,345.4922,162.3434,336.4922,163,327.4922,162.9589,327.4511,161.1466,325.6388,158.9378,323.43,157.1148,321.607,154.8368,319.329,153,317.4922,153,317.7557,143.3333,317.121,133.6667,316.854,124,317.096,114.3333,316.8661,104.6667,317.7832,95,318.2349,85.3333,317.3719,75.6667,317.2953,66,316.828,56.3333,317.4415,46.6667,318.0502,37,317.7882,27.3333,316.8146,17.6667,317.8103,8,317.4922" style="stroke: #BF5700; stroke-width: 1.0;"/><path d="M153,317.4922 L153.287,317.4922 L153.091,319.4922 L152.8191,321.4922 L152.8141,323.4922 L153.267,325.4922 L153,327.4922 " fill="#FFEFD5" style="stroke: #BF5700; stroke-width: 1.0;"/><path d="M163,327.4922 L163,327.459 L161,327.4052 L159,327.5667 L157,327.5152 L155,327.7938 L153,327.4922 " fill="#FFEFD5" style="stroke: #BF5700; stroke-width: 1.0;"/><text fill="#000000" font-family="sans-serif" font-size="13" lengthAdjust="spacingAndGlyphs" textLength="131" x="14" y="334.5591">HTML rendered from</text><text fill="#000000" font-family="sans-serif" font-size="13" lengthAdjust="spacingAndGlyphs" textLength="134" x="14" y="349.6919">client-side templates</text><text fill="#000000" font-family="sans-serif" font-size="13" lengthAdjust="spacingAndGlyphs" textLength="130" x="14" y="364.8247">(in Backbone views).</text></g></svg>