<?xml version="1.0" encoding="UTF-8" standalone="yes"?><svg xmlns="http://www.w3.org/2000/svg" xmlns:xlink="http://www.w3.org/1999/xlink" height="318px" style="width:647px;height:318px;" version="1.1" viewBox="0 0 647 318" width="647px"><defs><filter height="300%" id="f1" width="300%" x="-1" y="-1"><feGaussianBlur result="blurOut" stdDeviation="2.0"/><feColorMatrix in="blurOut" result="blurOut2" type="matrix" values="0 0 0 0 0 0 0 0 0 0 0 0 0 0 0 0 0 0 .4 0"/><feOffset dx="4.0" dy="4.0" in="blurOut2" result="blurOut3"/><feBlend in="SourceGraphic" in2="blurOut3" mode="normal"/></filter></defs><g><polygon fill="#FFEFD5" filter="url(#f1)" points="434.5,108.4297,434.5,108.3725,436.5,108.3119,438.5,108.4495,440.5,108.1931,442.5,108.6441,444.5,108.4297,443.7622,108.4297,444.1233,118.2828,444.5969,128.1359,444.4072,137.9891,444.3485,147.8422,443.7551,157.6953,444.7124,167.5484,443.778,177.4016,444.4002,187.2547,443.8394,197.1078,444.5,206.9609,444.5,207.0605,442.5,207.0212,440.5,206.8875,438.5,206.7795,436.5,207.1612,434.5,206.9609,434.111,206.9609,435.0826,197.1078,433.8646,187.2547,434.6577,177.4016,433.9893,167.5484,434.1176,157.6953,434.779,147.8422,434.4829,137.9891,434.1758,128.1359,434.2997,118.2828,434.5,108.4297" style="stroke: #FF8C00; stroke-width: 1.0;"/><path d="M208,38.2969 L208.7098,38.2969 L208.4821,48.3411 L207.6411,58.3854 L208.7843,68.4297 L207.6486,78.474 L207.441,88.5182 L207.4944,98.5625 L208.9545,108.6068 L207.8673,118.651 L207.4393,128.6953 L207.7795,138.7396 L208.4269,148.7839 L208.33,158.8281 L208.2655,168.8724 L207.6882,178.9167 L207.6395,188.9609 L208.8288,199.0052 L208.5625,209.0495 L207.0202,219.0938 L208.0772,229.138 L207.2348,239.1823 L208.9461,249.2266 L207.2462,259.2708 L208.5713,269.3151 L208,279.3594 " fill="none" style="stroke: #FF8C00; stroke-width: 1.0; stroke-dasharray: 5.0,5.0;"/><path d="M439.5,38.2969 L438.7956,38.2969 L438.5549,48.3411 L440.2668,58.3854 L439.6138,68.4297 L440.0881,78.474 L439.5055,88.5182 L439.6836,98.5625 L439.2969,108.6068 L438.6968,118.651 L438.9186,128.6953 L439.6999,138.7396 L439.2698,148.7839 L439.3303,158.8281 L440.0617,168.8724 L439.2603,178.9167 L439.5856,188.9609 L438.9269,199.0052 L439.7242,209.0495 L438.7151,219.0938 L440.4681,229.138 L440.3194,239.1823 L439.1955,249.2266 L440.1612,259.2708 L439.881,269.3151 L439.5,279.3594 " fill="none" style="stroke: #FF8C00; stroke-width: 1.0; stroke-dasharray: 5.0,5.0;"/><polygon fill="#FFEFD5" filter="url(#f1)" points="171,3,171,3.5535,181.1429,2.7448,191.2857,2.3726,201.4286,3.6134,211.5714,2.4953,221.7143,3.7147,231.8571,3.2265,242,3,242.239,3,242.1093,9.0594,242.2364,15.1188,241.8541,21.1781,241.8078,27.2375,242,33.2969,242,32.7144,231.8571,33.1613,221.7143,33.3237,211.5714,32.9092,201.4286,33.3244,191.2857,33.4478,181.1429,32.7583,171,33.2969,170.9057,33.2969,170.8132,27.2375,170.8748,21.1781,171.1329,15.1187,171.182,9.0594,171,3" style="stroke: #FF8C00; stroke-width: 1.5;"/><text fill="#000000" font-family="sans-serif" font-size="14" lengthAdjust="spacingAndGlyphs" textLength="57" x="178" y="22.9951">Browser</text><polygon fill="#FFEFD5" filter="url(#f1)" points="171,278.3594,171,278.7363,181.1429,278.9958,191.2857,278.5767,201.4286,278.475,211.5714,278.2074,221.7143,278.2397,231.8571,277.6853,242,278.3594,242.0208,278.3594,241.814,284.4188,242.0349,290.4781,241.844,296.5375,242.1199,302.5969,242,308.6563,242,309.0493,231.8571,308.4589,221.7143,308.8395,211.5714,309.1391,201.4286,309.0846,191.2857,309.3261,181.1429,309.3949,171,308.6563,171.1149,308.6563,170.83,302.5969,171.2112,296.5375,171.0471,290.4781,170.7617,284.4188,171,278.3594" style="stroke: #FF8C00; stroke-width: 1.5;"/><text fill="#000000" font-family="sans-serif" font-size="14" lengthAdjust="spacingAndGlyphs" textLength="57" x="178" y="298.3545">Browser</text><polygon fill="#FFEFD5" filter="url(#f1)" points="408.5,3,408.5,3.388,418.1667,2.2694,427.8333,2.7102,437.5,3.599,447.1667,3.3057,456.8333,2.9636,466.5,3,466.4237,3,466.6938,9.0594,466.2749,15.1188,466.7417,21.1781,466.456,27.2375,466.5,33.2969,466.5,32.601,456.8333,32.5795,447.1667,33.9195,437.5,33.9772,427.8333,32.6557,418.1667,33.1012,408.5,33.2969,408.6341,33.2969,408.5608,27.2375,408.5248,21.1781,408.4239,15.1187,408.4793,9.0594,408.5,3" style="stroke: #FF8C00; stroke-width: 1.5;"/><text fill="#000000" font-family="sans-serif" font-size="14" lengthAdjust="spacingAndGlyphs" textLength="44" x="415.5" y="22.9951">Server</text><polygon fill="#FFEFD5" filter="url(#f1)" points="408.5,278.3594,408.5,277.9917,418.1667,278.1208,427.8333,278.1698,437.5,278.6447,447.1667,278.0424,456.8333,277.7043,466.5,278.3594,466.5248,278.3594,466.4118,284.4188,466.7443,290.4781,466.2748,296.5375,466.7347,302.5969,466.5,308.6563,466.5,309.0635,456.8333,308.7785,447.1667,308.4909,437.5,307.9741,427.8333,309.2448,418.1667,308.0439,408.5,308.6563,408.3977,308.6563,408.2583,302.5969,408.5657,296.5375,408.5191,290.4781,408.5618,284.4188,408.5,278.3594" style="stroke: #FF8C00; stroke-width: 1.5;"/><text fill="#000000" font-family="sans-serif" font-size="14" lengthAdjust="spacingAndGlyphs" textLength="44" x="415.5" y="298.3545">Server</text><polygon fill="#FFEFD5" filter="url(#f1)" points="434.5,108.4297,434.5,108.3329,436.5,108.5759,438.5,108.2155,440.5,108.5912,442.5,108.4283,444.5,108.4297,444.9368,108.4297,444.746,118.2828,444.9926,128.1359,444.3503,137.9891,443.8396,147.8422,443.8722,157.6953,444.5748,167.5484,445.2154,177.4016,445.1397,187.2547,443.8717,197.1078,444.5,206.9609,444.5,206.9863,442.5,207.0935,440.5,206.863,438.5,206.7543,436.5,206.8683,434.5,206.9609,435.1512,206.9609,434.2916,197.1078,435.2421,187.2547,433.9624,177.4016,434.0101,167.5484,434.5641,157.6953,434.1365,147.8422,434.0544,137.9891,434.1703,128.1359,435.0183,118.2828,434.5,108.4297" style="stroke: #FF8C00; stroke-width: 1.0;"/><polygon fill="#FFEFD5" filter="url(#f1)" points="176,53.2969,176.2423,53.2969,176.0568,58.2969,176.0388,63.2969,175.8106,68.2969,175.9878,73.2969,176,78.2969,176,78.3829,186.1379,77.7635,196.2759,78.1662,206.4138,78.1268,216.5517,78.3229,226.6897,77.9826,236.8276,78.8814,246.9655,78.4348,257.1034,78.3379,267.2414,78.6707,277.3793,78.8283,287.5172,78.7066,297.6552,77.6454,307.7931,78.5948,317.931,78.3753,328.069,78.7798,338.2069,78.6908,348.3448,78.9697,358.4828,77.7099,368.6207,77.9917,378.7586,78.276,388.8966,78.2324,399.0345,78.8318,409.1724,78.1687,419.3103,78.4586,429.4483,78.6785,439.5862,78.4587,449.7241,78.156,459.8621,78.0463,470,78.2969,470.183,78.2969,469.7717,75.2969,469.991,72.2969,470.2009,69.2969,470.2129,66.2969,470,63.2969,469.9546,63.2515,467.8938,61.1907,465.9077,59.2046,464.1336,57.4305,462.0785,55.3754,460,53.2969,460,53.4881,449.8571,52.9058,439.7143,53.2128,429.5714,53.1382,419.4286,53.1831,409.2857,53.0518,399.1429,53.9487,389,52.6852,378.8571,53.6821,368.7143,52.9935,358.5714,53.2185,348.4286,53.4715,338.2857,53.8705,328.1429,53.044,318,53.4208,307.8571,52.8122,297.7143,52.8637,287.5714,53.4284,277.4286,53.9793,267.2857,53.336,257.1429,53.6919,247,53.9778,236.8571,53.3987,226.7143,53.2784,216.5714,52.7084,206.4286,53.6405,196.2857,53.2092,186.1429,52.8149,176,53.2969" style="stroke: #BF5700; stroke-width: 1.0;"/><path d="M460,53.2969 L459.7683,53.2969 L459.8504,55.2969 L460.2376,57.2969 L459.8586,59.2969 L460.016,61.2969 L460,63.2969 " fill="#FFEFD5" style="stroke: #BF5700; stroke-width: 1.0;"/><path d="M470,63.2969 L470,63.0383 L468,63.0335 L466,63.0857 L464,63.4549 L462,63.0401 L460,63.2969 " fill="#FFEFD5" style="stroke: #BF5700; stroke-width: 1.0;"/><text fill="#000000" font-family="sans-serif" font-size="13" lengthAdjust="spacingAndGlyphs" textLength="32" x="300.75" y="70.3638">HTTP</text><polygon fill="#FFA500" points="422.5,104.4297,422.5526,104.5612,424.4764,105.1707,426.577,106.2221,428.5084,106.8507,430.4786,107.5761,432.5,108.4297,432.5824,108.6357,430.494,109.2147,428.5032,110.0376,426.4584,110.7258,424.4138,111.4141,422.5,112.4297,422.6393,112.569,423.2111,111.5408,423.9459,110.6756,424.7949,109.9246,425.7657,109.2954,426.5,108.4297,426.3359,108.2656,425.8253,107.7549,424.9472,106.8769,424.0211,105.9508,423.2274,105.1571,422.5,104.4297" style="stroke: #FFA500; stroke-width: 1.0;"/><path d="M208.5,108.4297 L208.5,107.4881 L218.5,108.7799 L228.5,109.3948 L238.5,108.0294 L248.5,109.1339 L258.5,109.2837 L268.5,107.4408 L278.5,108.1418 L288.5,108.4436 L298.5,108.0695 L308.5,109.0213 L318.5,107.6112 L328.5,107.5621 L338.5,107.6451 L348.5,108.1481 L358.5,108.1545 L368.5,108.1447 L378.5,108.5109 L388.5,108.4548 L398.5,109.2659 L408.5,108.9795 L418.5,107.7915 L428.5,108.4297 " fill="none" style="stroke: #FFA500; stroke-width: 1.0;"/><text fill="#FFEFD5" font-family="sans-serif" font-size="13" lengthAdjust="spacingAndGlyphs" textLength="88" x="215.5" y="103.4966">Page Request</text><polygon fill="#FFEFD5" filter="url(#f1)" points="449,121.5625,449.114,121.5625,448.8849,130.7292,449.3693,139.8958,448.7848,149.0625,449.1258,158.2292,449.4759,167.3958,449,176.5625,449,177.0572,458.9474,175.9992,468.8947,176.978,478.8421,175.996,488.7895,176.2135,498.7368,176.3222,508.6842,177.1873,518.6316,177.0928,528.5789,176.2155,538.5263,177.2967,548.4737,177.0549,558.4211,175.8701,568.3684,176.3308,578.3158,177.1025,588.2632,176.641,598.2105,176.6546,608.1579,176.7853,618.1053,177.1054,628.0526,176.6043,638,176.5625,637.3979,176.5625,637.9824,167.5625,638.6437,158.5625,637.8456,149.5625,637.7007,140.5625,638,131.5625,637.8404,131.4029,635.9478,129.5103,633.9132,127.4757,631.8654,125.4279,630.0755,123.638,628,121.5625,628,121.8491,618.0556,121.5781,608.1111,121.1991,598.1667,121.4755,588.2222,120.8618,578.2778,122.2592,568.3333,121.7727,558.3889,121.1547,548.4444,121.3329,538.5,121.1409,528.5556,121.6784,518.6111,122.1401,508.6667,122.2926,498.7222,121.0728,488.7778,122.1723,478.8333,121.0799,468.8889,120.9036,458.9444,120.9086,449,121.5625" style="stroke: #BF5700; stroke-width: 1.0;"/><path d="M628,121.5625 L628.2314,121.5625 L628.1498,123.5625 L627.9285,125.5625 L627.8738,127.5625 L628.0711,129.5625 L628,131.5625 " fill="#FFEFD5" style="stroke: #BF5700; stroke-width: 1.0;"/><path d="M638,131.5625 L638,131.2626 L636,131.3207 L634,131.4595 L632,131.8455 L630,131.7438 L628,131.5625 " fill="#FFEFD5" style="stroke: #BF5700; stroke-width: 1.0;"/><text fill="#000000" font-family="sans-serif" font-size="13" lengthAdjust="spacingAndGlyphs" textLength="140" x="455" y="138.6294">Build HTML fragments</text><text fill="#000000" font-family="sans-serif" font-size="13" lengthAdjust="spacingAndGlyphs" textLength="163" x="455" y="153.7622">using Mako Python library</text><text fill="#000000" font-family="sans-serif" font-size="13" lengthAdjust="spacingAndGlyphs" textLength="168" x="455" y="168.895">in Galaxy "web" controllers</text><polygon fill="#FFA500" points="219.5,202.9609,219.5573,203.1043,217.515,203.7984,215.5404,204.6618,213.4149,205.1481,211.503,206.1685,209.5,206.9609,209.5509,207.0881,211.5613,207.9142,213.4333,208.3941,215.5136,209.3949,217.4482,210.0315,219.5,210.9609,219.5233,210.9842,218.6931,210.154,217.8554,209.3163,217.0974,208.5584,216.1904,207.6513,215.5,206.9609,215.3946,206.8555,216.2976,206.1585,217.2031,205.4641,218.0632,204.7241,218.5637,203.6247,219.5,202.9609" style="stroke: #FFA500; stroke-width: 1.0;"/><path d="M213.5,206.9609 L213.5,206.7143 L223.2826,206.9232 L233.0652,206.8777 L242.8478,207.6653 L252.6304,207.4369 L262.413,207.7262 L272.1957,205.9676 L281.9783,207.6525 L291.7609,207.723 L301.5435,206.1641 L311.3261,207.7609 L321.1087,206.0518 L330.8913,207.1672 L340.6739,206.7165 L350.4565,207.7998 L360.2391,206.4283 L370.0217,206.1959 L379.8043,206.5625 L389.587,206.0851 L399.3696,206.534 L409.1522,207.0923 L418.9348,206.281 L428.7174,206.047 L438.5,206.9609 " fill="none" style="stroke: #FFA500; stroke-width: 1.0; stroke-dasharray: 2.0,2.0;"/><text fill="#FFEFD5" font-family="sans-serif" font-size="13" lengthAdjust="spacingAndGlyphs" textLength="202" x="225.5" y="202.0278">Static Content (HTML+JS+CSS)</text><polygon fill="#FFEFD5" filter="url(#f1)" points="8,220.0938,8.1713,220.0938,7.8289,228.0938,8.1142,236.0938,7.8591,244.0938,8.0188,252.0938,8,260.0938,8,260.5398,18.1053,260.6872,28.2105,260.5153,38.3158,259.7282,48.4211,259.6503,58.5263,260.5195,68.6316,259.3641,78.7368,260.4467,88.8421,259.4251,98.9474,259.7696,109.0526,259.6142,119.1579,259.8463,129.2632,260.0888,139.3684,259.8732,149.4737,259.7796,159.5789,260.6453,169.6842,260.2584,179.7895,260.7074,189.8947,260.0146,200,260.0938,199.7689,260.0938,200.1882,254.0938,200.1235,248.0938,200.1644,242.0938,199.9056,236.0938,200,230.0938,200.0534,230.1471,198.0289,228.1226,196.0093,226.1031,194.1362,224.23,192.1078,222.2016,190,220.0938,190,219.5006,179.8889,220.0584,169.7778,220.6581,159.6667,219.7992,149.5556,220.5502,139.4444,220.2328,129.3333,220.6762,119.2222,219.9104,109.1111,219.7484,99,220.7012,88.8889,220.4835,78.7778,219.6536,68.6667,220.471,58.5556,219.4404,48.4444,220.1132,38.3333,220.2797,28.2222,220.7032,18.1111,220.7959,8,220.0938" style="stroke: #BF5700; stroke-width: 1.0;"/><path d="M190,220.0938 L189.9045,220.0938 L189.8671,222.0938 L190.265,224.0938 L189.9935,226.0938 L189.6739,228.0938 L190,230.0938 " fill="#FFEFD5" style="stroke: #BF5700; stroke-width: 1.0;"/><path d="M200,230.0938 L200,229.8539 L198,230.001 L196,230.0234 L194,230.1778 L192,229.9292 L190,230.0938 " fill="#FFEFD5" style="stroke: #BF5700; stroke-width: 1.0;"/><text fill="#000000" font-family="sans-serif" font-size="13" lengthAdjust="spacingAndGlyphs" textLength="167" x="14" y="237.1606">Render HTML fragraments</text><text fill="#000000" font-family="sans-serif" font-size="13" lengthAdjust="spacingAndGlyphs" textLength="92" x="14" y="252.2935">with JavaScript</text></g></svg>