<?xml version="1.0" encoding="UTF-8" standalone="yes"?><svg xmlns="http://www.w3.org/2000/svg" xmlns:xlink="http://www.w3.org/1999/xlink" height="195px" style="width:372px;height:195px;" version="1.1" viewBox="0 0 372 195" width="372px"><defs><filter height="300%" id="f1" width="300%" x="-1" y="-1"><feGaussianBlur result="blurOut" stdDeviation="2.0"/><feColorMatrix in="blurOut" result="blurOut2" type="matrix" values="0 0 0 0 0 0 0 0 0 0 0 0 0 0 0 0 0 0 .4 0"/><feOffset dx="4.0" dy="4.0" in="blurOut2" result="blurOut3"/><feBlend in="SourceGraphic" in2="blurOut3" mode="normal"/></filter></defs><g><polygon fill="#FFEFD5" filter="url(#f1)" points="6,8,6,7.7461,16.1429,8.1772,26.2857,8.0374,36.4286,7.4804,46.5714,7.6614,56.7143,7.314,66.8571,7.7835,77,8.135,87.1429,8.3038,97.2857,8.1753,107.4286,7.5245,117.5714,7.9216,127.7143,7.2619,137.8571,7.3756,148,8.1072,158.1429,8.0525,168.2857,7.3586,178.4286,8.3199,188.5714,7.8965,198.7143,7.4791,208.8571,8.2294,219,8.3958,229.1429,8.3695,239.2857,8.4814,249.4286,7.4692,259.5714,8.0578,269.7143,7.8521,279.8571,8.5577,290,8,290.6559,8,289.4603,18.5215,289.6767,29.043,290.2402,39.5645,289.7061,50.0859,290.4734,60.6074,289.4116,71.1289,290.4337,81.6504,290,92.1719,290,91.9138,279.8571,91.476,269.7143,92.6885,259.5714,91.9713,249.4286,92.1245,239.2857,91.703,229.1429,91.978,219,92.7521,208.8571,91.9886,198.7143,92.8268,188.5714,92.6335,178.4286,92.7716,168.2857,91.6783,158.1429,91.431,148,91.6918,137.8571,91.6165,127.7143,92.5097,117.5714,91.7474,107.4286,91.95,97.2857,91.7551,87.1429,92.4158,77,91.8201,66.8571,92.5709,56.7143,92.5294,46.5714,92.1124,36.4286,92.5664,26.2857,91.8424,16.1429,92.1044,6,92.1719,6.2301,92.1719,6.1677,81.6504,5.8701,71.1289,5.8817,60.6074,5.7353,50.0859,6.4385,39.5645,6.0153,29.043,6.1366,18.5215,6,8" style="stroke: #FF8C00; stroke-width: 1.5;"/><text fill="#000000" font-family="sans-serif" font-size="12" lengthAdjust="spacingAndGlyphs" textLength="49" x="123.5" y="21.1387">webapp</text><path d="M7,25.9688 L7,25.0145 L17.0714,25.1992 L27.1429,26.5456 L37.2143,25.3436 L47.2857,26.8701 L57.3571,25.8389 L67.4286,26.7166 L77.5,25.4723 L87.5714,26.1513 L97.6429,25.441 L107.7143,25.5932 L117.7857,25.1926 L127.8571,25.2289 L137.9286,25.7321 L148,26.2338 L158.0714,26.4462 L168.1429,26.5509 L178.2143,25.3085 L188.2857,26.6773 L198.3571,25.312 L208.4286,26.5404 L218.5,26.2843 L228.5714,26.6809 L238.6429,25.7175 L248.7143,26.6254 L258.7857,25.976 L268.8571,26.5185 L278.9286,25.0227 L289,25.9688 " fill="#FFEFD5" style="stroke: #FF8C00; stroke-width: 1.5;"/><text fill="#000000" font-family="sans-serif" font-size="10" lengthAdjust="spacingAndGlyphs" textLength="76" x="12" y="39.251">controllers : dict</text><text fill="#000000" font-family="sans-serif" font-size="10" lengthAdjust="spacingAndGlyphs" textLength="95" x="12" y="50.8916">api_controllers : dict</text><text fill="#000000" font-family="sans-serif" font-size="10" lengthAdjust="spacingAndGlyphs" textLength="118" x="12" y="62.5322">mapper : routes.Mapper</text><text fill="#000000" font-family="sans-serif" font-size="10" lengthAdjust="spacingAndGlyphs" textLength="228" x="12" y="74.1729">handle_request: (environ, start_response) -&gt; ()</text><text fill="#000000" font-family="sans-serif" font-size="10" lengthAdjust="spacingAndGlyphs" textLength="272" x="12" y="85.8135">transaction_factory: (environ) -&gt; GalaxyWebTransaction</text><polygon fill="#FFEFD5" filter="url(#f1)" points="325,33,325,32.8263,332.6,32.917,340.2,33.0363,347.8,33.1892,355.4,33.0872,363,33,363.1842,33,362.7966,39.7938,362.9337,46.5875,362.9283,53.3813,363.1142,60.175,363,66.9688,363,66.8874,355.4,66.8565,347.8,67.2077,340.2,66.7289,332.6,66.8731,325,66.9688,324.8469,66.9688,324.9336,60.175,324.9565,53.3813,325.0627,46.5875,325.0411,39.7938,325,33" style="stroke: #FF8C00; stroke-width: 1.5;"/><text fill="#000000" font-family="sans-serif" font-size="12" lengthAdjust="spacingAndGlyphs" textLength="24" x="332" y="46.1387">app</text><path d="M326,50.9688 L326,51.1253 L333.2,50.9921 L340.4,50.7379 L347.6,50.7395 L354.8,50.6593 L362,50.9688 " fill="#FFEFD5" style="stroke: #FF8C00; stroke-width: 1.5;"/><polygon fill="#FFEFD5" filter="url(#f1)" points="222.75,152,222.75,151.3689,232.15,151.5513,241.55,151.6469,250.95,151.7156,260.35,151.3221,269.75,152,269.6515,152,269.9108,158.7938,269.8414,165.5875,269.5367,172.3813,269.6809,179.175,269.75,185.9688,269.75,185.5491,260.35,185.4412,250.95,186.306,241.55,186.4478,232.15,185.9548,222.75,185.9688,222.7267,185.9688,222.5804,179.175,222.8588,172.3813,222.886,165.5875,222.6303,158.7938,222.75,152" style="stroke: #FF8C00; stroke-width: 1.5;"/><text fill="#000000" font-family="sans-serif" font-size="12" lengthAdjust="spacingAndGlyphs" textLength="33" x="229.75" y="165.1387">trans</text><path d="M223.75,169.9688 L223.75,169.7582 L232.75,170.6912 L241.75,170.8351 L250.75,169.77 L259.75,170.6187 L268.75,169.9688 " fill="#FFEFD5" style="stroke: #FF8C00; stroke-width: 1.5;"/><path d="M290.023,50 L290.023,50.2646 L295.9122,50.2847 L301.8014,49.8908 L307.6906,50.0214 L313.5798,50.2874 L319.469,50 " fill="none" style="stroke: #FFA500; stroke-width: 1.0;"/><polygon fill="#FFA500" points="324.602,50,324.5343,49.8477,322.7038,48.9791,320.9337,48.2464,319.17,47.528,317.4817,46.9793,315.602,46,315.4456,45.8436,316.2316,46.6296,317.2694,47.6674,317.8774,48.2754,318.8625,49.2605,319.602,50,319.4917,49.8897,318.6576,50.6556,318.0356,51.6336,317.3673,52.5653,316.3545,53.1525,315.602,54,315.5249,53.8264,317.5023,53.4257,319.1364,52.2525,320.9172,51.4093,322.7404,50.6615,324.602,50" style="stroke: #FFA500; stroke-width: 1.0;"/><text fill="#FF8C00" font-family="sans-serif" font-size="13" lengthAdjust="spacingAndGlyphs" textLength="24" x="292.9199" y="44.3307">app</text><path d="M326.936,71.372 L327.2485,71.6337 L321.533,79.2986 L315.2059,86.451 L308.6263,93.3921 L301.8297,100.1513 L296.2051,107.8923 L290.5247,115.5865 L283.5519,122.1981 L277.7393,129.7816 L271.513,137.0185 L265.9281,144.7927 L259.511,151.8698 " fill="none" style="stroke: #FFA500; stroke-width: 1.0;"/><polygon fill="#FFA500" points="330.374,67.268,330.4506,67.4245,328.5767,68.0766,326.9337,69.2002,325.0925,69.9192,323.3489,70.8376,321.5288,71.5996,321.5449,71.7816,322.6645,71.5986,323.7742,71.304,324.9214,71.4327,326.0197,71.0083,327.1637,71.1012,327.127,71.098,327.3844,72.2389,327.3039,73.35,327.3762,74.4745,327.605,75.6129,327.662,76.7361,327.5262,76.6972,328.0882,74.8092,328.8738,72.9852,329.1179,71.0062,329.7893,69.1495,330.374,67.268" style="stroke: #FFA500; stroke-width: 1.0;"/><text fill="#FF8C00" font-family="sans-serif" font-size="13" lengthAdjust="spacingAndGlyphs" textLength="24" x="297.2198" y="86.9452">app</text><path d="M191.182,102.5537 L190.5375,102.0139 L198.8036,111.3844 L204.6514,118.7295 L211.1522,126.6214 L218.3162,135.0688 L225.1734,143.2594 L232.39,151.7509 " fill="none" style="stroke: #FFA500; stroke-width: 1.0;"/><polygon fill="#FFA500" points="182.551,92.2498,182.5553,92.2503,182.8982,93.7043,183.0226,95.1343,182.918,96.5392,183.1121,97.9768,183.3374,99.4179,183.2812,99.2266,184.6972,99.7424,186.1167,100.2701,187.5482,100.8387,188.8228,100.8729,190.2565,101.449,190.2965,101.4534,190.0016,100.0047,189.9298,98.5804,189.8266,97.1527,189.7736,95.7306,189.4702,94.2809,189.5384,94.5133,188.0474,93.742,186.7118,93.5003,185.3227,93.0759,183.8912,92.5075,182.551,92.2498" style="stroke: #FFA500; stroke-width: 1.0;"/></g></svg>