<?xml version="1.0" standalone="yes"?>

<svg version="1.1" viewBox="0.0 0.0 960.0 540.0" fill="none" stroke="none" stroke-linecap="square" stroke-miterlimit="10" xmlns="http://www.w3.org/2000/svg" xmlns:xlink="http://www.w3.org/1999/xlink"><clipPath id="ga2f5d01c8_1_66.0"><path d="m0 0l960.0 0l0 540.0l-960.0 0l0 -540.0z" clip-rule="nonzero"></path></clipPath><g clip-path="url(#ga2f5d01c8_1_66.0)"><path fill="#000000" d="m0 0l960.0 0l0 540.0l-960.0 0z" fill-rule="nonzero"></path><path fill="#000000" fill-opacity="0.0" d="m372.0 260.09796l0 0c0 -7.456314 6.044525 -13.5008545 13.500824 -13.5008545l188.99832 0c3.5806885 0 7.0146484 1.422409 9.54657 3.9543152c2.5318604 2.5318909 3.9542847 5.9658813 3.9542847 9.546539l0 19.801453l0 0c0 7.4563293 -6.0445557 13.5008545 -13.5008545 13.5008545l-188.99832 0l0 0c-7.456299 0 -13.500824 -6.044525 -13.500824 -13.5008545z" fill-rule="nonzero"></path><path stroke="#ffffff" stroke-width="2.6666666666666665" stroke-miterlimit="8.0" stroke-linecap="butt" d="m372.0 260.09796l0 0c0 -7.456314 6.044525 -13.5008545 13.500824 -13.5008545l188.99832 0c3.5806885 0 7.0146484 1.422409 9.54657 3.9543152c2.5318604 2.5318909 3.9542847 5.9658813 3.9542847 9.546539l0 19.801453l0 0c0 7.4563293 -6.0445557 13.5008545 -13.5008545 13.5008545l-188.99832 0l0 0c-7.456299 0 -13.500824 -6.044525 -13.500824 -13.5008545z" fill-rule="nonzero"></path><path fill="#ffffff" d="m406.38373 273.53745l0.40625 2.90625l0.015625 0l0.4375 -2.953125l3.59375 -11.671875l1.0 0l3.625 11.71875l0.421875 2.90625l0.03125 0l0.453125 -2.953125l2.9375 -11.671875l2.03125 0l-4.875 17.78125l-1.15625 0l-3.546875 -11.734375l-0.453125 -2.640625l-0.125 0l-0.4375 2.671875l-3.5625 11.703125l-1.140625 0l-5.0 -17.78125l2.203125 0l3.140625 11.71875zm16.643585 -0.46875q0 -3.171875 1.40625 -4.859375q1.421875 -1.6875 4.078125 -1.6875q1.390625 0 2.421875 0.46875q1.046875 0.453125 1.71875 1.3125q0.6875 0.859375 1.0 2.078125q0.328125 1.21875 0.328125 2.6875q0 3.171875 -1.421875 4.859375q-1.40625 1.6875 -4.046875 1.6875q-1.40625 0 -2.453125 -0.453125q-1.03125 -0.46875 -1.703125 -1.328125q-0.671875 -0.859375 -1.0 -2.078125q-0.328125 -1.21875 -0.328125 -2.6875zm2.078125 0q0 0.953125 0.1875 1.828125q0.1875 0.875 0.578125 1.53125q0.40625 0.640625 1.0625 1.046875q0.65625 0.390625 1.578125 0.390625q3.390625 0.03125 3.390625 -4.796875q0 -0.96875 -0.1875 -1.84375q-0.1875 -0.875 -0.59375 -1.53125q-0.390625 -0.65625 -1.046875 -1.03125q-0.640625 -0.390625 -1.5625 -0.390625q-3.40625 -0.03125 -3.40625 4.796875zm18.107147 -4.328125q-0.75 -0.25 -1.421875 -0.25q-1.078125 0 -1.703125 0.59375q-0.625 0.578125 -0.78125 1.484375l0 8.75l-2.0 0l0 -12.5l1.40625 0l0.375 1.53125l0.09375 0q0.484375 -0.859375 1.140625 -1.3125q0.65625 -0.46875 1.6875 -0.46875q0.71875 0 1.625 0.25l-0.421875 1.921875zm5.8615723 4.953125l-1.15625 0l0 5.625l-2.0 0l0 -17.5l2.0 0l0 10.65625l1.03125 -0.359375l3.875 -5.296875l2.328125 0l-3.828125 5.03125l-1.03125 0.8125l1.25 1.0l4.171875 5.65625l-2.46875 0l-4.171875 -5.625zm7.6009216 -6.875l1.953125 0l0 -0.703125q0 -1.140625 0.1875 -1.984375q0.1875 -0.859375 0.609375 -1.390625q0.421875 -0.546875 1.09375 -0.8125q0.6875 -0.265625 1.6875 -0.265625q0.796875 0 1.40625 0.109375q0.609375 0.09375 1.296875 0.375l-0.453125 1.671875q-0.578125 -0.25 -1.09375 -0.328125q-0.515625 -0.078125 -0.953125 -0.078125q-0.65625 0 -1.015625 0.203125q-0.359375 0.203125 -0.53125 0.59375q-0.15625 0.390625 -0.203125 0.953125q-0.03125 0.5625 -0.03125 1.3125l0 0.34375l3.328125 0l0 1.75l-3.328125 0l0 10.75l-2.0 0l0 -10.75l-1.953125 0l0 -1.75zm11.689056 9.421875q0 0.875 0.296875 1.25q0.296875 0.375 0.84375 0.375q0.328125 0 0.703125 -0.046875q0.375 -0.046875 0.84375 -0.21875l0.234375 1.5625q-0.40625 0.203125 -1.125 0.328125q-0.703125 0.125 -1.234375 0.125q-1.125 0 -1.84375 -0.625q-0.71875 -0.640625 -0.71875 -2.171875l0 -15.0l2.0 0l0 14.421875zm4.4583435 -3.171875q0 -3.171875 1.40625 -4.859375q1.421875 -1.6875 4.078125 -1.6875q1.390625 0 2.421875 0.46875q1.046875 0.453125 1.71875 1.3125q0.6875 0.859375 1.0 2.078125q0.328125 1.21875 0.328125 2.6875q0 3.171875 -1.421875 4.859375q-1.40625 1.6875 -4.046875 1.6875q-1.40625 0 -2.453125 -0.453125q-1.03125 -0.46875 -1.703125 -1.328125q-0.671875 -0.859375 -1.0 -2.078125q-0.328125 -1.21875 -0.328125 -2.6875zm2.078125 0q0 0.953125 0.1875 1.828125q0.1875 0.875 0.578125 1.53125q0.40625 0.640625 1.0625 1.046875q0.65625 0.390625 1.578125 0.390625q3.390625 0.03125 3.390625 -4.796875q0 -0.96875 -0.1875 -1.84375q-0.1875 -0.875 -0.59375 -1.53125q-0.390625 -0.65625 -1.046875 -1.03125q-0.640625 -0.390625 -1.5625 -0.390625q-3.40625 -0.03125 -3.40625 4.796875zm20.310272 -6.25l2.875 7.296875l0.625 2.40625l0.046875 0l0.46875 -2.453125l2.234375 -7.25l1.890625 0l-4.203125 12.78125l-0.96875 0l-3.28125 -8.25l-0.46875 -2.0625l-0.078125 0l-0.5 2.078125l-3.140625 8.234375l-0.984375 0l-4.34375 -12.78125l2.171875 0l2.46875 7.28125l0.4375 2.421875l0.015625 0l0.609375 -2.484375l2.671875 -7.21875l1.453125 0zm25.378845 8.046875q0 -1.046875 -0.625 -1.703125q-0.625 -0.671875 -1.5625 -1.171875q-0.9375 -0.515625 -2.046875 -0.96875q-1.09375 -0.453125 -2.03125 -1.09375q-0.9375 -0.640625 -1.5625 -1.578125q-0.625 -0.9375 -0.625 -2.375q0 -2.0625 1.421875 -3.25q1.421875 -1.203125 4.046875 -1.203125q1.53125 0 2.78125 0.234375q1.25 0.21875 1.953125 0.5625l-0.625 1.828125q-0.578125 -0.28125 -1.703125 -0.53125q-1.109375 -0.25 -2.5 -0.25q-1.65625 0 -2.484375 0.75q-0.8125 0.734375 -0.8125 1.734375q0 0.96875 0.625 1.625q0.625 0.640625 1.5625 1.15625q0.9375 0.515625 2.03125 1.015625q1.09375 0.5 2.03125 1.171875q0.9375 0.65625 1.5625 1.578125q0.625 0.921875 0.625 2.296875q0 1.125 -0.40625 2.03125q-0.390625 0.890625 -1.171875 1.546875q-0.765625 0.640625 -1.875 1.0q-1.09375 0.34375 -2.484375 0.34375q-1.875 0 -3.109375 -0.296875q-1.21875 -0.28125 -1.8906555 -0.625l0.6875305 -1.875q0.578125 0.328125 1.703125 0.640625q1.125 0.3125 2.53125 0.3125q0.828125 0 1.546875 -0.15625q0.71875 -0.171875 1.25 -0.53125q0.53125 -0.359375 0.84375 -0.90625q0.3125 -0.5625 0.3125 -1.3125zm3.6992188 -8.046875l1.9375 0l0 -2.46875l2.0 -0.578125l0 3.046875l3.40625 0l0 1.75l-3.40625 0l0 6.921875q0 1.296875 0.328125 1.84375q0.328125 0.53125 1.109375 0.53125q0.640625 0 1.09375 -0.125q0.453125 -0.140625 1.0 -0.375l0.453125 1.53125q-0.671875 0.328125 -1.484375 0.515625q-0.796875 0.203125 -1.71875 0.203125q-1.53125 0 -2.15625 -0.859375q-0.625 -0.859375 -0.625 -2.890625l0 -7.296875l-1.9375 0l0 -1.75zm19.351868 11.5q-0.75 0.59375 -1.890625 0.953125q-1.125 0.34375 -2.40625 0.34375q-1.421875 0 -2.484375 -0.453125q-1.046875 -0.46875 -1.71875 -1.328125q-0.671875 -0.859375 -1.0 -2.0625q-0.328125 -1.203125 -0.328125 -2.703125q0 -3.203125 1.421875 -4.875q1.4375 -1.671875 4.078125 -1.671875q0.859375 0 1.703125 0.1875q0.859375 0.1875 1.53125 0.71875q0.671875 0.515625 1.09375 1.484375q0.421875 0.953125 0.421875 2.53125q0 0.828125 -0.140625 1.828125l-8.03125 0q0 1.09375 0.21875 1.953125q0.234375 0.84375 0.703125 1.4375q0.484375 0.578125 1.234375 0.890625q0.765625 0.3125 1.875 0.3125q0.84375 0 1.6875 -0.296875q0.859375 -0.296875 1.28125 -0.703125l0.75 1.453125zm-4.296875 -10.046875q-1.46875 0 -2.359375 0.78125q-0.890625 0.765625 -1.0625 2.640625l6.203125 0q0 -1.90625 -0.734375 -2.65625q-0.71875 -0.765625 -2.046875 -0.765625zm8.038574 -1.453125l1.375 0l0.375 1.5l0.109375 0q0.5625 -0.875 1.46875 -1.328125q0.921875 -0.46875 2.09375 -0.46875q2.5 0 3.71875 1.484375q1.234375 1.46875 1.234375 4.8125q0 1.578125 -0.421875 2.84375q-0.40625 1.25 -1.15625 2.125q-0.75 0.875 -1.8125 1.359375q-1.0625 0.46875 -2.359375 0.46875q-0.921875 0 -1.46875 -0.109375q-0.53125 -0.109375 -1.15625 -0.390625l0 5.203125l-2.0 0l0 -17.5zm5.046875 1.453125q-1.265625 0 -2.015625 0.671875q-0.734375 0.65625 -1.03125 2.0l0 6.203125q0.453125 0.34375 1.03125 0.53125q0.578125 0.1875 1.515625 0.1875q1.734375 0 2.734375 -1.28125q1.015625 -1.296875 1.015625 -3.796875q0 -1.015625 -0.171875 -1.84375q-0.171875 -0.84375 -0.5625 -1.4375q-0.390625 -0.59375 -1.0 -0.90625q-0.609375 -0.328125 -1.515625 -0.328125z" fill-rule="nonzero"></path><path fill="#000000" fill-opacity="0.0" d="m44.0 260.09796l0 0c0 -7.456314 6.044529 -13.5008545 13.500835 -13.5008545l188.99834 0c3.5806427 0 7.014633 1.422409 9.546539 3.9543152c2.5318909 2.5318909 3.9542847 5.9658813 3.9542847 9.546539l0 19.801453l0 0c0 7.4563293 -6.044525 13.5008545 -13.500824 13.5008545l-188.99834 0l0 0c-7.4563065 0 -13.500835 -6.044525 -13.500835 -13.5008545z" fill-rule="nonzero"></path><path stroke="#ffffff" stroke-width="2.6666666666666665" stroke-miterlimit="8.0" stroke-linecap="butt" d="m44.0 260.09796l0 0c0 -7.456314 6.044529 -13.5008545 13.500835 -13.5008545l188.99834 0c3.5806427 0 7.014633 1.422409 9.546539 3.9543152c2.5318909 2.5318909 3.9542847 5.9658813 3.9542847 9.546539l0 19.801453l0 0c0 7.4563293 -6.044525 13.5008545 -13.500824 13.5008545l-188.99834 0l0 0c-7.4563065 0 -13.500835 -6.044525 -13.500835 -13.5008545z" fill-rule="nonzero"></path><path fill="#ffffff" d="m106.0674 273.53745l0.40625 2.90625l0.015625 0l0.4375 -2.953125l3.59375 -11.671875l1.0 0l3.625 11.71875l0.421875 2.90625l0.03125 0l0.453125 -2.953125l2.9375 -11.671875l2.03125 0l-4.875 17.78125l-1.15625 0l-3.546875 -11.734375l-0.453125 -2.640625l-0.125 0l-0.4375 2.671875l-3.5625 11.703125l-1.140625 0l-5.0 -17.78125l2.203125 0l3.140625 11.71875zm16.643585 -0.46875q0 -3.171875 1.40625 -4.859375q1.421875 -1.6875 4.078125 -1.6875q1.390625 0 2.421875 0.46875q1.046875 0.453125 1.71875 1.3125q0.6875 0.859375 1.0 2.078125q0.328125 1.21875 0.328125 2.6875q0 3.171875 -1.421875 4.859375q-1.40625 1.6875 -4.046875 1.6875q-1.40625 0 -2.453125 -0.453125q-1.03125 -0.46875 -1.703125 -1.328125q-0.671875 -0.859375 -1.0 -2.078125q-0.328125 -1.21875 -0.328125 -2.6875zm2.078125 0q0 0.953125 0.1875 1.828125q0.1875 0.875 0.578125 1.53125q0.40625 0.640625 1.0625 1.046875q0.65625 0.390625 1.578125 0.390625q3.390625 0.03125 3.390625 -4.796875q0 -0.96875 -0.1875 -1.84375q-0.1875 -0.875 -0.59375 -1.53125q-0.390625 -0.65625 -1.046875 -1.03125q-0.640625 -0.390625 -1.5625 -0.390625q-3.40625 -0.03125 -3.40625 4.796875zm18.107147 -4.328125q-0.75 -0.25 -1.421875 -0.25q-1.078125 0 -1.703125 0.59375q-0.625 0.578125 -0.78125 1.484375l0 8.75l-2.0 0l0 -12.5l1.40625 0l0.375 1.53125l0.09375 0q0.484375 -0.859375 1.140625 -1.3125q0.65625 -0.46875 1.6875 -0.46875q0.71875 0 1.625 0.25l-0.421875 1.921875zm5.8615723 4.953125l-1.15625 0l0 5.625l-2.0 0l0 -17.5l2.0 0l0 10.65625l1.03125 -0.359375l3.875 -5.296875l2.328125 0l-3.828125 5.03125l-1.03125 0.8125l1.25 1.0l4.171875 5.65625l-2.46875 0l-4.171875 -5.625zm7.600937 -6.875l1.953125 0l0 -0.703125q0 -1.140625 0.1875 -1.984375q0.1875 -0.859375 0.609375 -1.390625q0.421875 -0.546875 1.09375 -0.8125q0.6875 -0.265625 1.6875 -0.265625q0.796875 0 1.40625 0.109375q0.609375 0.09375 1.296875 0.375l-0.453125 1.671875q-0.578125 -0.25 -1.09375 -0.328125q-0.515625 -0.078125 -0.953125 -0.078125q-0.65625 0 -1.015625 0.203125q-0.359375 0.203125 -0.53125 0.59375q-0.15625 0.390625 -0.203125 0.953125q-0.03125 0.5625 -0.03125 1.3125l0 0.34375l3.328125 0l0 1.75l-3.328125 0l0 10.75l-2.0 0l0 -10.75l-1.953125 0l0 -1.75zm11.689056 9.421875q0 0.875 0.296875 1.25q0.296875 0.375 0.84375 0.375q0.328125 0 0.703125 -0.046875q0.375 -0.046875 0.84375 -0.21875l0.234375 1.5625q-0.40625 0.203125 -1.125 0.328125q-0.703125 0.125 -1.234375 0.125q-1.125 0 -1.84375 -0.625q-0.71875 -0.640625 -0.71875 -2.171875l0 -15.0l2.0 0l0 14.421875zm4.4583282 -3.171875q0 -3.171875 1.40625 -4.859375q1.421875 -1.6875 4.0781097 -1.6875q1.390625 0 2.421875 0.46875q1.046875 0.453125 1.71875 1.3125q0.6875 0.859375 1.0 2.078125q0.328125 1.21875 0.328125 2.6875q0 3.171875 -1.421875 4.859375q-1.40625 1.6875 -4.046875 1.6875q-1.40625 0 -2.4531097 -0.453125q-1.03125 -0.46875 -1.703125 -1.328125q-0.671875 -0.859375 -1.0 -2.078125q-0.328125 -1.21875 -0.328125 -2.6875zm2.078125 0q0 0.953125 0.1875 1.828125q0.1875 0.875 0.578125 1.53125q0.40625 0.640625 1.0624847 1.046875q0.65625 0.390625 1.578125 0.390625q3.390625 0.03125 3.390625 -4.796875q0 -0.96875 -0.1875 -1.84375q-0.1875 -0.875 -0.59375 -1.53125q-0.390625 -0.65625 -1.046875 -1.03125q-0.640625 -0.390625 -1.5625 -0.390625q-3.4062347 -0.03125 -3.4062347 4.796875zm20.310257 -6.25l2.875 7.296875l0.625 2.40625l0.046875 0l0.46875 -2.453125l2.234375 -7.25l1.890625 0l-4.203125 12.78125l-0.96875 0l-3.28125 -8.25l-0.46875 -2.0625l-0.078125 0l-0.5 2.078125l-3.140625 8.234375l-0.984375 0l-4.34375 -12.78125l2.171875 0l2.46875 7.28125l0.4375 2.421875l0.015625 0l0.609375 -2.484375l2.671875 -7.21875l1.453125 0z" fill-rule="nonzero"></path><path fill="#000000" fill-opacity="0.0" d="m260.0 269.9987l0 0" fill-rule="nonzero"></path><path stroke="#4c4c4c" stroke-width="2.0" stroke-linejoin="round" stroke-linecap="butt" d="m260.0 269.9987l0 0" fill-rule="nonzero"></path><path fill="#000000" fill-opacity="0.0" d="m260.0 269.9987l112.0 0" fill-rule="nonzero"></path><path stroke="#ffffff" stroke-width="3.0" stroke-linejoin="round" stroke-linecap="butt" d="m276.88483 269.9987l77.11517 0" fill-rule="evenodd"></path><path fill="#ffffff" stroke="#ffffff" stroke-width="3.0" stroke-linecap="butt" d="m276.88483 269.9987l-7.1348267 -4.9958496l-7.1348267 4.9958496l7.1348267 4.9958496z" fill-rule="evenodd"></path><path fill="#ffffff" stroke="#ffffff" stroke-width="3.0" stroke-linecap="butt" d="m354.0 274.9539l13.614288 -4.9552l-13.614288 -4.9552z" fill-rule="evenodd"></path><path fill="#000000" fill-opacity="0.0" d="m152.0 189.40027l0 57.19684" fill-rule="nonzero"></path><path stroke="#ffffff" stroke-width="3.0" stroke-linejoin="round" stroke-linecap="butt" d="m152.0 189.40027l0 39.19684" fill-rule="evenodd"></path><path fill="#ffffff" stroke="#ffffff" stroke-width="3.0" stroke-linecap="butt" d="m147.0448 228.5971l4.9552 13.614304l4.9552 -13.614304z" fill-rule="evenodd"></path><path fill="#000000" fill-opacity="0.0" d="m588.0 269.9987l112.0 0" fill-rule="nonzero"></path><path stroke="#ffffff" stroke-width="3.0" stroke-linejoin="round" stroke-linecap="butt" stroke-dasharray="3.0,9.0" d="m588.0 269.9987l94.0 0" fill-rule="evenodd"></path><path fill="#ffffff" stroke="#ffffff" stroke-width="3.0" stroke-linecap="butt" d="m682.0 274.9539l13.614319 -4.9552l-13.614319 -4.9552z" fill-rule="evenodd"></path><path fill="#000000" fill-opacity="0.0" d="m44.0 156.09795l0 0c0 -7.456299 6.044529 -13.500839 13.500835 -13.500839l188.99834 0c3.5806427 0 7.014633 1.422409 9.546539 3.9543152c2.5318909 2.5318909 3.9542847 5.9658813 3.9542847 9.546524l0 19.801483l0 0c0 7.456299 -6.044525 13.500839 -13.500824 13.500839l-188.99834 0l0 0c-7.4563065 0 -13.500835 -6.0445404 -13.500835 -13.500839z" fill-rule="nonzero"></path><path stroke="#ffffff" stroke-width="2.6666666666666665" stroke-miterlimit="8.0" stroke-linecap="butt" d="m44.0 156.09795l0 0c0 -7.456299 6.044529 -13.500839 13.500835 -13.500839l188.99834 0c3.5806427 0 7.014633 1.422409 9.546539 3.9543152c2.5318909 2.5318909 3.9542847 5.9658813 3.9542847 9.546524l0 19.801483l0 0c0 7.456299 -6.044525 13.500839 -13.500824 13.500839l-188.99834 0l0 0c-7.4563065 0 -13.500835 -6.0445404 -13.500835 -13.500839z" fill-rule="nonzero"></path><path fill="#ffffff" d="m71.812355 170.86557q0 -1.046875 -0.625 -1.703125q-0.625 -0.671875 -1.5625 -1.171875q-0.9375 -0.515625 -2.046875 -0.96875q-1.09375 -0.453125 -2.03125 -1.09375q-0.9375 -0.640625 -1.5625 -1.578125q-0.625 -0.9375 -0.625 -2.375q0 -2.0625 1.421875 -3.25q1.421875 -1.203125 4.046875 -1.203125q1.53125 0 2.78125 0.234375q1.25 0.21875 1.953125 0.5625l-0.625 1.828125q-0.578125 -0.28125 -1.703125 -0.53125q-1.109375 -0.25 -2.5 -0.25q-1.65625 0 -2.484375 0.75q-0.8125 0.734375 -0.8125 1.734375q0 0.96875 0.625 1.625q0.625 0.640625 1.5625 1.15625q0.9375 0.515625 2.03125 1.015625q1.09375 0.5 2.03125 1.171875q0.9375 0.65625 1.5625 1.578125q0.625 0.921875 0.625 2.296875q0 1.125 -0.40625 2.03125q-0.390625 0.890625 -1.171875 1.546875q-0.765625 0.640625 -1.875 1.0q-1.09375 0.34375 -2.484375 0.34375q-1.875 0 -3.109375 -0.296875q-1.21875 -0.28125 -1.890625 -0.625l0.6875 -1.875q0.578125 0.328125 1.703125 0.640625q1.125 0.3125 2.53125 0.3125q0.828125 0 1.546875 -0.15625q0.71875 -0.171875 1.25 -0.53125q0.53125 -0.359375 0.84375 -0.90625q0.3125 -0.5625 0.3125 -1.3125zm3.6992493 -8.046875l1.9375 0l0 -2.46875l2.0 -0.578125l0 3.046875l3.40625 0l0 1.75l-3.40625 0l0 6.921875q0 1.296875 0.328125 1.84375q0.328125 0.53125 1.109375 0.53125q0.640625 0 1.09375 -0.125q0.453125 -0.140625 1.0 -0.375l0.453125 1.53125q-0.671875 0.328125 -1.484375 0.515625q-0.796875 0.203125 -1.71875 0.203125q-1.53125 0 -2.15625 -0.859375q-0.625 -0.859375 -0.625 -2.890625l0 -7.296875l-1.9375 0l0 -1.75zm9.523743 6.25q0 -3.171875 1.40625 -4.859375q1.421875 -1.6875 4.078125 -1.6875q1.390625 0 2.421875 0.46875q1.046875 0.453125 1.71875 1.3125q0.6875 0.859375 1.0 2.078125q0.328125 1.21875 0.328125 2.6875q0 3.171875 -1.421875 4.859375q-1.40625 1.6875 -4.046875 1.6875q-1.40625 0 -2.453125 -0.453125q-1.03125 -0.46875 -1.703125 -1.328125q-0.671875 -0.859375 -1.0 -2.078125q-0.328125 -1.21875 -0.328125 -2.6875zm2.078125 0q0 0.953125 0.1875 1.828125q0.1875 0.875 0.578125 1.53125q0.40625 0.640625 1.0625 1.046875q0.65625 0.390625 1.578125 0.390625q3.390625 0.03125 3.390625 -4.796875q0 -0.96875 -0.1875 -1.84375q-0.1875 -0.875 -0.59375 -1.53125q-0.390625 -0.65625 -1.046875 -1.03125q-0.640625 -0.390625 -1.5625 -0.390625q-3.40625 -0.03125 -3.40625 4.796875zm18.107147 -4.328125q-0.75 -0.25 -1.421875 -0.25q-1.078125 0 -1.703125 0.59375q-0.625 0.578125 -0.78125 1.484375l0 8.75l-2.0 0l0 -12.5l1.40625 0l0.375 1.53125l0.09375 0q0.484375 -0.859375 1.140625 -1.3125q0.65625 -0.46875 1.6875 -0.46875q0.71875 0 1.625 0.25l-0.421875 1.921875zm11.830322 9.578125q-0.75 0.59375 -1.890625 0.953125q-1.125 0.34375 -2.40625 0.34375q-1.421875 0 -2.484375 -0.453125q-1.046875 -0.46875 -1.71875 -1.328125q-0.671875 -0.859375 -1.0 -2.0625q-0.328125 -1.203125 -0.328125 -2.703125q0 -3.203125 1.421875 -4.875q1.4375 -1.671875 4.078125 -1.671875q0.859375 0 1.703125 0.1875q0.859375 0.1875 1.53125 0.71875q0.671875 0.515625 1.09375 1.484375q0.421875 0.953125 0.421875 2.53125q0 0.828125 -0.140625 1.828125l-8.03125 0q0 1.09375 0.21875 1.953125q0.234375 0.84375 0.703125 1.4375q0.484375 0.578125 1.234375 0.890625q0.765625 0.3125 1.875 0.3125q0.84375 0 1.6875 -0.296875q0.859375 -0.296875 1.28125 -0.703125l0.75 1.453125zm-4.296875 -10.046875q-1.46875 0 -2.359375 0.78125q-0.890625 0.765625 -1.0625 2.640625l6.203125 0q0 -1.90625 -0.734375 -2.65625q-0.71875 -0.765625 -2.046875 -0.765625zm17.647942 6.75q0 1.265625 0.015625 2.3125q0.03125 1.03125 0.234375 2.03125l-1.359375 0l-0.5 -1.765625l-0.09375 0q-0.5 0.875 -1.4531174 1.453125q-0.953125 0.5625 -2.21875 0.5625q-2.5 0 -3.71875 -1.5625q-1.21875 -1.578125 -1.21875 -4.9375q0 -3.203125 1.515625 -4.859375q1.515625 -1.65625 4.171875 -1.65625q0.921875 0 1.453125 0.09375q0.546875 0.09375 1.1718674 0.328125l0 -5.203125l2.0 0l0 13.203125zm-5.0624924 2.84375q1.28125 0 2.03125 -0.65625q0.7499924 -0.671875 1.0312424 -2.015625l0 -6.203125q-0.45311737 -0.34375 -1.0312424 -0.484375q-0.578125 -0.15625 -1.53125 -0.15625q-1.71875 0 -2.703125 1.140625q-0.96875 1.125 -0.96875 3.625q0 1.03125 0.15625 1.90625q0.171875 0.875 0.546875 1.5q0.375 0.625 0.984375 0.984375q0.609375 0.359375 1.484375 0.359375zm19.467293 -4.328125l0.40625 2.90625l0.015625 0l0.4375 -2.953125l3.59375 -11.671875l1.0 0l3.625 11.71875l0.421875 2.90625l0.03125 0l0.453125 -2.953125l2.9375 -11.671875l2.03125 0l-4.875 17.78125l-1.15625 0l-3.546875 -11.734375l-0.453125 -2.640625l-0.125 0l-0.4375 2.671875l-3.5625 11.703125l-1.140625 0l-5.0 -17.78125l2.203125 0l3.140625 11.71875zm16.643585 -0.46875q0 -3.171875 1.40625 -4.859375q1.421875 -1.6875 4.078125 -1.6875q1.390625 0 2.421875 0.46875q1.046875 0.453125 1.71875 1.3125q0.6875 0.859375 1.0 2.078125q0.328125 1.21875 0.328125 2.6875q0 3.171875 -1.421875 4.859375q-1.40625 1.6875 -4.046875 1.6875q-1.40625 0 -2.453125 -0.453125q-1.03125 -0.46875 -1.703125 -1.328125q-0.671875 -0.859375 -1.0 -2.078125q-0.328125 -1.21875 -0.328125 -2.6875zm2.078125 0q0 0.953125 0.1875 1.828125q0.1875 0.875 0.578125 1.53125q0.40625 0.640625 1.0625 1.046875q0.65625 0.390625 1.578125 0.390625q3.390625 0.03125 3.390625 -4.796875q0 -0.96875 -0.1875 -1.84375q-0.1875 -0.875 -0.59375 -1.53125q-0.390625 -0.65625 -1.046875 -1.03125q-0.640625 -0.390625 -1.5625 -0.390625q-3.40625 -0.03125 -3.40625 4.796875zm18.107147 -4.328125q-0.75 -0.25 -1.421875 -0.25q-1.078125 0 -1.703125 0.59375q-0.625 0.578125 -0.78125 1.484375l0 8.75l-2.0 0l0 -12.5l1.40625 0l0.375 1.53125l0.09375 0q0.484375 -0.859375 1.140625 -1.3125q0.65625 -0.46875 1.6875 -0.46875q0.71875 0 1.625 0.25l-0.421875 1.921875zm5.8615723 4.953125l-1.15625 0l0 5.625l-2.0 0l0 -17.5l2.0 0l0 10.65625l1.03125 -0.359375l3.875 -5.296875l2.328125 0l-3.828125 5.03125l-1.03125 0.8125l1.25 1.0l4.171875 5.65625l-2.46875 0l-4.171875 -5.625zm7.600937 -6.875l1.953125 0l0 -0.703125q0 -1.140625 0.1875 -1.984375q0.1875 -0.859375 0.609375 -1.390625q0.421875 -0.546875 1.09375 -0.8125q0.6875 -0.265625 1.6875 -0.265625q0.796875 0 1.40625 0.109375q0.609375 0.09375 1.296875 0.375l-0.453125 1.671875q-0.578125 -0.25 -1.09375 -0.328125q-0.515625 -0.078125 -0.953125 -0.078125q-0.65625 0 -1.015625 0.203125q-0.359375 0.203125 -0.53125 0.59375q-0.15625 0.390625 -0.203125 0.953125q-0.03125 0.5625 -0.03125 1.3125l0 0.34375l3.328125 0l0 1.75l-3.328125 0l0 10.75l-2.0 0l0 -10.75l-1.953125 0l0 -1.75zm11.689056 9.421875q0 0.875 0.296875 1.25q0.296875 0.375 0.84375 0.375q0.328125 0 0.703125 -0.046875q0.375 -0.046875 0.84375 -0.21875l0.234375 1.5625q-0.40625 0.203125 -1.125 0.328125q-0.703125 0.125 -1.234375 0.125q-1.125 0 -1.84375 -0.625q-0.71875 -0.640625 -0.71875 -2.171875l0 -15.0l2.0 0l0 14.421875zm4.4583282 -3.171875q0 -3.171875 1.40625 -4.859375q1.421875 -1.6875 4.078125 -1.6875q1.390625 0 2.421875 0.46875q1.046875 0.453125 1.71875 1.3125q0.6875 0.859375 1.0 2.078125q0.328125 1.21875 0.328125 2.6875q0 3.171875 -1.421875 4.859375q-1.40625 1.6875 -4.046875 1.6875q-1.40625 0 -2.453125 -0.453125q-1.03125 -0.46875 -1.703125 -1.328125q-0.671875 -0.859375 -1.0 -2.078125q-0.328125 -1.21875 -0.328125 -2.6875zm2.078125 0q0 0.953125 0.1875 1.828125q0.1875 0.875 0.578125 1.53125q0.40625 0.640625 1.0625 1.046875q0.65625 0.390625 1.578125 0.390625q3.390625 0.03125 3.390625 -4.796875q0 -0.96875 -0.1875 -1.84375q-0.1875 -0.875 -0.59375 -1.53125q-0.390625 -0.65625 -1.046875 -1.03125q-0.640625 -0.390625 -1.5625 -0.390625q-3.40625 -0.03125 -3.40625 4.796875zm20.310272 -6.25l2.875 7.296875l0.625 2.40625l0.046875 0l0.46875 -2.453125l2.234375 -7.25l1.890625 0l-4.203125 12.78125l-0.96875 0l-3.28125 -8.25l-0.46875 -2.0625l-0.078125 0l-0.5 2.078125l-3.140625 8.234375l-0.984375 0l-4.34375 -12.78125l2.171875 0l2.46875 7.28125l0.4375 2.421875l0.015625 0l0.609375 -2.484375l2.671875 -7.21875l1.453125 0z" fill-rule="nonzero"></path><path fill="#000000" fill-opacity="0.0" d="m700.0 246.5971l0 0c0 -9.918213E-4 7.9345703E-4 -0.0018005371 0.0017700195 -0.0018005371l215.99823 0.0018005371c4.8828125E-4 0 9.1552734E-4 1.9836426E-4 0.0012817383 5.340576E-4c3.0517578E-4 3.3569336E-4 5.493164E-4 7.9345703E-4 5.493164E-4 0.0012664795l-0.0018310547 46.80136c0 9.765625E-4 -7.9345703E-4 0.0018005371 -0.0017700195 0.0018005371l-215.99823 -0.0018005371l0 0c-9.765625E-4 0 -0.0017700195 -8.239746E-4 -0.0017700195 -0.0018005371z" fill-rule="nonzero"></path><path stroke="#ffffff" stroke-width="2.6666666666666665" stroke-miterlimit="8.0" stroke-linecap="butt" d="m700.0 246.5971l0 0c0 -9.918213E-4 7.9345703E-4 -0.0018005371 0.0017700195 -0.0018005371l215.99823 0.0018005371c4.8828125E-4 0 9.1552734E-4 1.9836426E-4 0.0012817383 5.340576E-4c3.0517578E-4 3.3569336E-4 5.493164E-4 7.9345703E-4 5.493164E-4 0.0012664795l-0.0018310547 46.80136c0 9.765625E-4 -7.9345703E-4 0.0018005371 -0.0017700195 0.0018005371l-215.99823 -0.0018005371l0 0c-9.765625E-4 0 -0.0017700195 -8.239746E-4 -0.0017700195 -0.0018005371z" fill-rule="nonzero"></path><path fill="#ffffff" d="m718.11035 273.53745l0.40625 2.90625l0.015625 0l0.4375 -2.953125l3.59375 -11.671875l1.0 0l3.625 11.71875l0.421875 2.90625l0.03125 0l0.453125 -2.953125l2.9375 -11.671875l2.03125 0l-4.875 17.78125l-1.15625 0l-3.546875 -11.734375l-0.453125 -2.640625l-0.125 0l-0.4375 2.671875l-3.5625 11.703125l-1.140625 0l-5.0 -17.78125l2.203125 0l3.140625 11.71875zm16.643616 -0.46875q0 -3.171875 1.40625 -4.859375q1.421875 -1.6875 4.078125 -1.6875q1.390625 0 2.421875 0.46875q1.046875 0.453125 1.71875 1.3125q0.6875 0.859375 1.0 2.078125q0.328125 1.21875 0.328125 2.6875q0 3.171875 -1.421875 4.859375q-1.40625 1.6875 -4.046875 1.6875q-1.40625 0 -2.453125 -0.453125q-1.03125 -0.46875 -1.703125 -1.328125q-0.671875 -0.859375 -1.0 -2.078125q-0.328125 -1.21875 -0.328125 -2.6875zm2.078125 0q0 0.953125 0.1875 1.828125q0.1875 0.875 0.578125 1.53125q0.40625 0.640625 1.0625 1.046875q0.65625 0.390625 1.578125 0.390625q3.390625 0.03125 3.390625 -4.796875q0 -0.96875 -0.1875 -1.84375q-0.1875 -0.875 -0.59375 -1.53125q-0.390625 -0.65625 -1.046875 -1.03125q-0.640625 -0.390625 -1.5625 -0.390625q-3.40625 -0.03125 -3.40625 4.796875zm18.107117 -4.328125q-0.75 -0.25 -1.421875 -0.25q-1.078125 0 -1.703125 0.59375q-0.625 0.578125 -0.78125 1.484375l0 8.75l-2.0 0l0 -12.5l1.40625 0l0.375 1.53125l0.09375 0q0.484375 -0.859375 1.140625 -1.3125q0.65625 -0.46875 1.6875 -0.46875q0.71875 0 1.625 0.25l-0.421875 1.921875zm5.8615723 4.953125l-1.15625 0l0 5.625l-2.0 0l0 -17.5l2.0 0l0 10.65625l1.03125 -0.359375l3.875 -5.296875l2.328125 0l-3.828125 5.03125l-1.03125 0.8125l1.25 1.0l4.171875 5.65625l-2.46875 0l-4.171875 -5.625zm7.600952 -6.875l1.953125 0l0 -0.703125q0 -1.140625 0.1875 -1.984375q0.1875 -0.859375 0.609375 -1.390625q0.421875 -0.546875 1.09375 -0.8125q0.6875 -0.265625 1.6875 -0.265625q0.796875 0 1.40625 0.109375q0.609375 0.09375 1.296875 0.375l-0.453125 1.671875q-0.578125 -0.25 -1.09375 -0.328125q-0.515625 -0.078125 -0.953125 -0.078125q-0.65625 0 -1.015625 0.203125q-0.359375 0.203125 -0.53125 0.59375q-0.15625 0.390625 -0.203125 0.953125q-0.03125 0.5625 -0.03125 1.3125l0 0.34375l3.328125 0l0 1.75l-3.328125 0l0 10.75l-2.0 0l0 -10.75l-1.953125 0l0 -1.75zm11.689087 9.421875q0 0.875 0.296875 1.25q0.296875 0.375 0.84375 0.375q0.328125 0 0.703125 -0.046875q0.375 -0.046875 0.84375 -0.21875l0.234375 1.5625q-0.40625 0.203125 -1.125 0.328125q-0.703125 0.125 -1.234375 0.125q-1.125 0 -1.84375 -0.625q-0.71875 -0.640625 -0.71875 -2.171875l0 -15.0l2.0 0l0 14.421875zm4.458313 -3.171875q0 -3.171875 1.40625 -4.859375q1.421875 -1.6875 4.078125 -1.6875q1.390625 0 2.421875 0.46875q1.046875 0.453125 1.71875 1.3125q0.6875 0.859375 1.0 2.078125q0.328125 1.21875 0.328125 2.6875q0 3.171875 -1.421875 4.859375q-1.40625 1.6875 -4.046875 1.6875q-1.40625 0 -2.453125 -0.453125q-1.03125 -0.46875 -1.703125 -1.328125q-0.671875 -0.859375 -1.0 -2.078125q-0.328125 -1.21875 -0.328125 -2.6875zm2.078125 0q0 0.953125 0.1875 1.828125q0.1875 0.875 0.578125 1.53125q0.40625 0.640625 1.0625 1.046875q0.65625 0.390625 1.578125 0.390625q3.390625 0.03125 3.390625 -4.796875q0 -0.96875 -0.1875 -1.84375q-0.1875 -0.875 -0.59375 -1.53125q-0.390625 -0.65625 -1.046875 -1.03125q-0.640625 -0.390625 -1.5625 -0.390625q-3.40625 -0.03125 -3.40625 4.796875zm20.310242 -6.25l2.875 7.296875l0.625 2.40625l0.046875 0l0.46875 -2.453125l2.234375 -7.25l1.890625 0l-4.203125 12.78125l-0.96875 0l-3.28125 -8.25l-0.46875 -2.0625l-0.078125 0l-0.5 2.078125l-3.140625 8.234375l-0.984375 0l-4.34375 -12.78125l2.171875 0l2.46875 7.28125l0.4375 2.421875l0.015625 0l0.609375 -2.484375l2.671875 -7.21875l1.453125 0zm30.92572 0.75l0.25 -2.625l-0.125 0l-0.953125 2.40625l-4.546875 7.890625l-0.625 0l-4.828125 -7.921875l-0.90625 -2.375l-0.125 0l0.359375 2.59375l0 11.78125l-1.953125 0l0 -17.5l1.546875 0l5.484375 8.953125l0.8125 1.953125l0.0625 0l0.765625 -2.0l5.234375 -8.90625l1.625 0l0 17.5l-2.078125 0l0 -11.75zm5.675171 5.5q0 -3.171875 1.40625 -4.859375q1.421875 -1.6875 4.078125 -1.6875q1.390625 0 2.421875 0.46875q1.046875 0.453125 1.71875 1.3125q0.6875 0.859375 1.0 2.078125q0.328125 1.21875 0.328125 2.6875q0 3.171875 -1.421875 4.859375q-1.40625 1.6875 -4.046875 1.6875q-1.40625 0 -2.453125 -0.453125q-1.03125 -0.46875 -1.703125 -1.328125q-0.671875 -0.859375 -1.0 -2.078125q-0.328125 -1.21875 -0.328125 -2.6875zm2.078125 0q0 0.953125 0.1875 1.828125q0.1875 0.875 0.578125 1.53125q0.40625 0.640625 1.0625 1.046875q0.65625 0.390625 1.578125 0.390625q3.390625 0.03125 3.390625 -4.796875q0 -0.96875 -0.1875 -1.84375q-0.1875 -0.875 -0.59375 -1.53125q-0.390625 -0.65625 -1.046875 -1.03125q-0.640625 -0.390625 -1.5625 -0.390625q-3.40625 -0.03125 -3.40625 4.796875zm21.810303 1.953125q0 1.265625 0.015625 2.3125q0.03125 1.03125 0.234375 2.03125l-1.359375 0l-0.5 -1.765625l-0.09375 0q-0.5 0.875 -1.453125 1.453125q-0.953125 0.5625 -2.21875 0.5625q-2.5 0 -3.71875 -1.5625q-1.21875 -1.578125 -1.21875 -4.9375q0 -3.203125 1.515625 -4.859375q1.515625 -1.65625 4.171875 -1.65625q0.921875 0 1.453125 0.09375q0.546875 0.09375 1.171875 0.328125l0 -5.203125l2.0 0l0 13.203125zm-5.0625 2.84375q1.28125 0 2.03125 -0.65625q0.75 -0.671875 1.03125 -2.015625l0 -6.203125q-0.453125 -0.34375 -1.03125 -0.484375q-0.578125 -0.15625 -1.53125 -0.15625q-1.71875 0 -2.703125 1.140625q-0.96875 1.125 -0.96875 3.625q0 1.03125 0.15625 1.90625q0.171875 0.875 0.546875 1.5q0.375 0.625 0.984375 0.984375q0.609375 0.359375 1.484375 0.359375zm10.876526 -11.046875l0 7.125q0 0.96875 0.109375 1.71875q0.125 0.734375 0.390625 1.21875q0.28125 0.484375 0.75 0.734375q0.484375 0.25 1.203125 0.25q0.671875 0 1.203125 -0.203125q0.53125 -0.21875 0.9375 -0.59375q0.40625 -0.375 0.71875 -0.859375q0.3125 -0.484375 0.515625 -1.046875l0 -8.34375l2.0 0l0 8.953125q0 0.890625 0.0625 1.859375q0.0625 0.96875 0.21875 1.6875l-1.375 0l-0.5 -1.96875l-0.125 0q-0.578125 0.96875 -1.5625 1.625q-0.96875 0.640625 -2.46875 0.640625q-1.0 0 -1.765625 -0.234375q-0.75 -0.234375 -1.265625 -0.828125q-0.515625 -0.609375 -0.78125 -1.625q-0.265625 -1.015625 -0.265625 -2.5625l0 -7.546875l2.0 0zm14.089355 9.421875q0 0.875 0.296875 1.25q0.296875 0.375 0.84375 0.375q0.328125 0 0.703125 -0.046875q0.375 -0.046875 0.84375 -0.21875l0.234375 1.5625q-0.40625 0.203125 -1.125 0.328125q-0.703125 0.125 -1.234375 0.125q-1.125 0 -1.84375 -0.625q-0.71875 -0.640625 -0.71875 -2.171875l0 -15.0l2.0 0l0 14.421875zm14.286499 2.078125q-0.75 0.59375 -1.890625 0.953125q-1.125 0.34375 -2.40625 0.34375q-1.421875 0 -2.484375 -0.453125q-1.046875 -0.46875 -1.71875 -1.328125q-0.671875 -0.859375 -1.0 -2.0625q-0.328125 -1.203125 -0.328125 -2.703125q0 -3.203125 1.421875 -4.875q1.4375 -1.671875 4.078125 -1.671875q0.859375 0 1.703125 0.1875q0.859375 0.1875 1.53125 0.71875q0.671875 0.515625 1.09375 1.484375q0.421875 0.953125 0.421875 2.53125q0 0.828125 -0.140625 1.828125l-8.03125 0q0 1.09375 0.21875 1.953125q0.234375 0.84375 0.703125 1.4375q0.484375 0.578125 1.234375 0.890625q0.765625 0.3125 1.875 0.3125q0.84375 0 1.6875 -0.296875q0.859375 -0.296875 1.28125 -0.703125l0.75 1.453125zm-4.296875 -10.046875q-1.46875 0 -2.359375 0.78125q-0.890625 0.765625 -1.0625 2.640625l6.203125 0q0 -1.90625 -0.734375 -2.65625q-0.71875 -0.765625 -2.046875 -0.765625z" fill-rule="nonzero"></path><path fill="#000000" fill-opacity="0.0" d="m700.0 301.93176l216.0 0l0 46.80313l-216.0 0z" fill-rule="nonzero"></path><path fill="#ffffff" d="m711.1719 328.27737q-0.8125 -1.1875 -1.09375 -2.296875q-0.265625 -1.09375 -0.265625 -2.09375q0 -1.515625 0.34375 -2.90625q0.34375 -1.40625 0.921875 -2.609375q0.59375 -1.21875 1.359375 -2.234375q0.765625 -1.015625 1.609375 -1.8125l0.546875 0.53125q-0.84375 0.96875 -1.515625 2.015625q-0.65625 1.03125 -1.140625 2.15625q-0.484375 1.125 -0.71875 2.328125q-0.234375 1.1875 -0.234375 2.34375q0 1.0 0.203125 2.015625q0.203125 1.015625 0.671875 2.046875l-0.6875 0.515625zm10.757935 -12.65625l-3.109375 0l-1.984375 9.390625l-1.1875 0l1.96875 -9.390625l-3.0625 0l0.21875 -1.109375l7.375 0l-0.21875 1.109375zm-0.5427246 7.046875q0 -1.1875 0.296875 -2.15625q0.3125 -0.984375 0.84375 -1.6875q0.546875 -0.71875 1.265625 -1.109375q0.71875 -0.390625 1.53125 -0.390625q0.625 0 1.0625 0.203125q0.4375 0.203125 0.71875 0.5625q0.28125 0.359375 0.390625 0.8125q0.125 0.453125 0.125 0.953125q0 1.125 -0.296875 2.109375q-0.28125 0.96875 -0.796875 1.6875q-0.515625 0.71875 -1.21875 1.140625q-0.6875 0.40625 -1.484375 0.40625q-0.6875 0 -1.140625 -0.21875q-0.453125 -0.21875 -0.75 -0.578125q-0.296875 -0.359375 -0.421875 -0.8125q-0.125 -0.453125 -0.125 -0.921875zm1.203125 -0.265625q0 0.890625 0.328125 1.359375q0.328125 0.46875 1.046875 0.46875q0.5 0 0.9375 -0.34375q0.4375 -0.359375 0.78125 -0.953125q0.34375 -0.609375 0.546875 -1.375q0.203125 -0.78125 0.203125 -1.609375q0 -0.765625 -0.28125 -1.203125q-0.28125 -0.453125 -1.0625 -0.453125q-0.5 0 -0.953125 0.34375q-0.4375 0.328125 -0.796875 0.90625q-0.34375 0.5625 -0.546875 1.3125q-0.203125 0.734375 -0.203125 1.546875zm6.095703 0.265625q0 -1.1875 0.296875 -2.15625q0.3125 -0.984375 0.84375 -1.6875q0.546875 -0.71875 1.265625 -1.109375q0.71875 -0.390625 1.53125 -0.390625q0.625 0 1.0625 0.203125q0.4375 0.203125 0.71875 0.5625q0.28125 0.359375 0.390625 0.8125q0.125 0.453125 0.125 0.953125q0 1.125 -0.296875 2.109375q-0.28125 0.96875 -0.796875 1.6875q-0.515625 0.71875 -1.21875 1.140625q-0.6875 0.40625 -1.484375 0.40625q-0.6875 0 -1.140625 -0.21875q-0.453125 -0.21875 -0.75 -0.578125q-0.296875 -0.359375 -0.421875 -0.8125q-0.125 -0.453125 -0.125 -0.921875zm1.203125 -0.265625q0 0.890625 0.328125 1.359375q0.328125 0.46875 1.046875 0.46875q0.5 0 0.9375 -0.34375q0.4375 -0.359375 0.78125 -0.953125q0.34375 -0.609375 0.546875 -1.375q0.203125 -0.78125 0.203125 -1.609375q0 -0.765625 -0.28125 -1.203125q-0.28125 -0.453125 -1.0625 -0.453125q-0.5 0 -0.953125 0.34375q-0.4375 0.328125 -0.796875 0.90625q-0.34375 0.5625 -0.546875 1.3125q-0.203125 0.734375 -0.203125 1.546875zm7.345764 0.828125q-0.046875 0.25 -0.046875 0.421875q0 0.28125 0.09375 0.40625q0.09375 0.125 0.265625 0.125q0.296875 0 0.5 -0.03125q0.203125 -0.046875 0.484375 -0.140625l0 0.84375q-0.125 0.078125 -0.3125 0.140625q-0.171875 0.046875 -0.359375 0.078125q-0.1875 0.03125 -0.375 0.046875q-0.1875 0.03125 -0.34375 0.03125q-0.53125 0 -0.84375 -0.234375q-0.3125 -0.25 -0.3125 -0.890625q0 -0.3125 0.09375 -0.734375l1.859375 -8.78125l1.125 0l-1.828125 8.71875zm15.636047 -5.265625l0.46875 -1.578125l-0.0625 0l-0.84375 1.4375l-3.59375 4.75l-0.359375 0l-1.734375 -4.75l-0.21875 -1.4375l-0.0625 0l-0.125 1.5625l-1.5 7.0625l-1.140625 0l2.234375 -10.5l0.828125 0l1.953125 5.375l0.21875 1.171875l0.015625 0l0.703125 -1.203125l4.09375 -5.34375l1.0625 0l-2.234375 10.5l-1.203125 0l1.5 -7.046875zm2.0352173 4.703125q0 -1.1875 0.296875 -2.15625q0.3125 -0.984375 0.84375 -1.6875q0.546875 -0.71875 1.265625 -1.109375q0.71875 -0.390625 1.53125 -0.390625q0.625 0 1.0625 0.203125q0.4375 0.203125 0.71875 0.5625q0.28125 0.359375 0.390625 0.8125q0.125 0.453125 0.125 0.953125q0 1.125 -0.296875 2.109375q-0.28125 0.96875 -0.796875 1.6875q-0.515625 0.71875 -1.21875 1.140625q-0.6875 0.40625 -1.484375 0.40625q-0.6875 0 -1.140625 -0.21875q-0.453125 -0.21875 -0.75 -0.578125q-0.296875 -0.359375 -0.421875 -0.8125q-0.125 -0.453125 -0.125 -0.921875zm1.203125 -0.265625q0 0.890625 0.328125 1.359375q0.328125 0.46875 1.046875 0.46875q0.5 0 0.9375 -0.34375q0.4375 -0.359375 0.78125 -0.953125q0.34375 -0.609375 0.546875 -1.375q0.203125 -0.78125 0.203125 -1.609375q0 -0.765625 -0.28125 -1.203125q-0.28125 -0.453125 -1.0625 -0.453125q-0.5 0 -0.953125 0.34375q-0.4375 0.328125 -0.796875 0.90625q-0.34375 0.5625 -0.546875 1.3125q-0.203125 0.734375 -0.203125 1.546875zm11.627014 0.03125q-0.109375 0.578125 -0.171875 1.09375q-0.0625 0.515625 -0.0625 0.9375q0 0.171875 0 0.3125q0.015625 0.125 0.03125 0.265625l-0.75 0l-0.21875 -1.3125l-0.046875 0q-0.1875 0.265625 -0.46875 0.53125q-0.265625 0.25 -0.59375 0.46875q-0.328125 0.203125 -0.703125 0.328125q-0.359375 0.140625 -0.75 0.140625q-0.828125 0 -1.3125 -0.609375q-0.484375 -0.609375 -0.484375 -1.9375q0 -0.875 0.25 -1.8125q0.265625 -0.9375 0.75 -1.703125q0.5 -0.765625 1.234375 -1.265625q0.75 -0.5 1.71875 -0.5q0.28125 0 0.46875 0.015625q0.203125 0.015625 0.375 0.046875q0.171875 0.03125 0.3125 0.09375q0.15625 0.046875 0.328125 0.109375l0.65625 -3.125l1.125 0l-1.6875 7.921875zm-3.3125 1.796875q0.3125 0 0.640625 -0.171875q0.328125 -0.171875 0.625 -0.421875q0.296875 -0.265625 0.53125 -0.546875q0.234375 -0.296875 0.359375 -0.546875l0.84375 -3.90625q-0.25 -0.171875 -0.578125 -0.234375q-0.328125 -0.0625 -0.84375 -0.0625q-0.609375 0 -1.09375 0.375q-0.46875 0.359375 -0.8125 0.984375q-0.328125 0.609375 -0.515625 1.40625q-0.171875 0.78125 -0.171875 1.625q0 0.609375 0.234375 1.0625q0.25 0.4375 0.78125 0.4375zm7.678772 -6.71875l-1.046875 5.0q-0.078125 0.40625 -0.078125 0.75q0 0.421875 0.15625 0.703125q0.171875 0.265625 0.59375 0.265625q0.375 0 0.734375 -0.171875q0.375 -0.1875 0.703125 -0.46875q0.34375 -0.28125 0.609375 -0.625q0.28125 -0.359375 0.46875 -0.6875l1.0 -4.765625l1.125 0l-0.9375 4.453125q-0.0625 0.25 -0.125 0.625q-0.0625 0.359375 -0.125 0.765625q-0.046875 0.40625 -0.078125 0.796875q-0.015625 0.375 -0.015625 0.671875l0 0.1875l-0.890625 0l0 -1.421875l-0.0625 0q-0.21875 0.296875 -0.515625 0.578125q-0.296875 0.28125 -0.65625 0.515625q-0.34375 0.21875 -0.75 0.359375q-0.40625 0.15625 -0.859375 0.15625q-0.328125 0 -0.609375 -0.078125q-0.265625 -0.078125 -0.484375 -0.265625q-0.203125 -0.1875 -0.328125 -0.484375q-0.109375 -0.3125 -0.109375 -0.796875q0 -0.53125 0.140625 -1.1875l1.015625 -4.875l1.125 0zm6.30188 5.71875q-0.046875 0.25 -0.046875 0.421875q0 0.28125 0.09375 0.40625q0.09375 0.125 0.265625 0.125q0.296875 0 0.5 -0.03125q0.203125 -0.046875 0.484375 -0.140625l0 0.84375q-0.125 0.078125 -0.3125 0.140625q-0.171875 0.046875 -0.359375 0.078125q-0.1875 0.03125 -0.375 0.046875q-0.1875 0.03125 -0.34375 0.03125q-0.53125 0 -0.84375 -0.234375q-0.3125 -0.25 -0.3125 -0.890625q0 -0.3125 0.09375 -0.734375l1.859375 -8.78125l1.125 0l-1.828125 8.71875zm7.7853394 1.046875q-0.515625 0.453125 -1.234375 0.6875q-0.703125 0.234375 -1.421875 0.234375q-1.203125 0 -1.8125 -0.6875q-0.609375 -0.703125 -0.609375 -1.9375q0 -1.21875 0.34375 -2.1875q0.34375 -0.984375 0.90625 -1.65625q0.5625 -0.671875 1.265625 -1.03125q0.71875 -0.375 1.46875 -0.375q0.546875 0 0.9375 0.15625q0.40625 0.15625 0.65625 0.40625q0.25 0.234375 0.375 0.5625q0.125 0.328125 0.125 0.6875q0 1.0625 -1.046875 1.671875q-1.03125 0.609375 -3.0 0.609375q-0.1875 0 -0.390625 0q-0.1875 -0.015625 -0.390625 -0.03125q-0.0625 0.28125 -0.09375 0.546875q-0.03125 0.25 -0.03125 0.4375q0 0.828125 0.375 1.34375q0.375 0.515625 1.171875 0.515625q0.65625 0 1.203125 -0.21875q0.546875 -0.21875 0.84375 -0.453125l0.359375 0.71875zm-1.265625 -5.984375q-0.828125 0 -1.4375 0.5625q-0.609375 0.5625 -0.921875 1.6875q0.578125 0 1.1875 -0.03125q0.609375 -0.03125 1.109375 -0.15625q0.515625 -0.125 0.84375 -0.40625q0.328125 -0.28125 0.328125 -0.765625q0 -0.15625 -0.0625 -0.3125q-0.046875 -0.15625 -0.171875 -0.28125q-0.109375 -0.140625 -0.328125 -0.21875q-0.21875 -0.078125 -0.546875 -0.078125zm2.4733276 6.1875q0 -0.390625 0.25 -0.65625q0.265625 -0.265625 0.75 -0.265625q0.375 0 0.578125 0.265625q0.203125 0.25 0.203125 0.578125q0 0.453125 -0.171875 0.890625q-0.15625 0.453125 -0.4375 0.828125q-0.28125 0.375 -0.671875 0.65625q-0.375 0.296875 -0.828125 0.46875l-0.234375 -0.578125q0.5625 -0.21875 0.90625 -0.671875q0.34375 -0.4375 0.421875 -0.875q-0.0625 0.03125 -0.140625 0.03125q-0.21875 0 -0.421875 -0.171875q-0.203125 -0.1875 -0.203125 -0.5zm9.67749 -9.96875l1.1875 0l-2.21875 10.5l-1.1875 0l2.21875 -10.5zm5.8723145 10.5l1.0 -4.734375q0.0625 -0.28125 0.109375 -0.53125q0.046875 -0.265625 0.046875 -0.484375q0 -0.4375 -0.203125 -0.703125q-0.203125 -0.265625 -0.765625 -0.265625q-0.390625 0 -0.765625 0.1875q-0.375 0.171875 -0.703125 0.453125q-0.328125 0.265625 -0.59375 0.609375q-0.265625 0.34375 -0.4375 0.671875l-0.984375 4.796875l-1.125 0l1.578125 -7.5l0.78125 0l-0.0625 1.296875l0.0625 0q0.203125 -0.25 0.46875 -0.5q0.265625 -0.265625 0.59375 -0.46875q0.34375 -0.21875 0.765625 -0.359375q0.421875 -0.15625 0.9375 -0.15625q0.75 0 1.1875 0.375q0.4375 0.359375 0.4375 1.25q0 0.453125 -0.140625 1.078125l-1.0625 4.984375l-1.125 0zm4.8380737 -7.5l0.78125 0l-0.078125 1.296875l0.0625 0q0.21875 -0.28125 0.46875 -0.53125q0.265625 -0.265625 0.578125 -0.46875q0.328125 -0.21875 0.703125 -0.34375q0.375 -0.140625 0.796875 -0.140625q0.359375 0 0.671875 0.125q0.328125 0.109375 0.5625 0.375q0.234375 0.25 0.375 0.6875q0.15625 0.4375 0.15625 1.0625q0 1.328125 -0.359375 2.375q-0.359375 1.03125 -0.953125 1.765625q-0.578125 0.71875 -1.3125 1.109375q-0.71875 0.375 -1.4375 0.375q-0.53125 0 -0.9375 -0.109375q-0.390625 -0.09375 -0.53125 -0.203125l-0.65625 3.125l-1.125 0l2.234375 -10.5zm2.90625 0.78125q-0.40625 0 -0.78125 0.21875q-0.359375 0.203125 -0.671875 0.515625q-0.3125 0.296875 -0.5625 0.65625q-0.234375 0.34375 -0.375 0.640625l-0.734375 3.5625q0.25 0.1875 0.515625 0.265625q0.28125 0.078125 0.59375 0.078125q0.578125 0 1.109375 -0.3125q0.53125 -0.328125 0.953125 -0.921875q0.421875 -0.609375 0.671875 -1.453125q0.25 -0.84375 0.25 -1.875q0 -0.59375 -0.25 -0.984375q-0.25 -0.390625 -0.71875 -0.390625zm5.5704346 -0.78125l-1.046875 5.0q-0.078125 0.40625 -0.078125 0.75q0 0.421875 0.15625 0.703125q0.171875 0.265625 0.59375 0.265625q0.375 0 0.734375 -0.171875q0.375 -0.1875 0.703125 -0.46875q0.34375 -0.28125 0.609375 -0.625q0.28125 -0.359375 0.46875 -0.6875l1.0 -4.765625l1.125 0l-0.9375 4.453125q-0.0625 0.25 -0.125 0.625q-0.0625 0.359375 -0.125 0.765625q-0.046875 0.40625 -0.078125 0.796875q-0.015625 0.375 -0.015625 0.671875l0 0.1875l-0.890625 0l0 -1.421875l-0.0625 0q-0.21875 0.296875 -0.515625 0.578125q-0.296875 0.28125 -0.65625 0.515625q-0.34375 0.21875 -0.75 0.359375q-0.40625 0.15625 -0.859375 0.15625q-0.328125 0 -0.609375 -0.078125q-0.265625 -0.078125 -0.484375 -0.265625q-0.203125 -0.1875 -0.328125 -0.484375q-0.109375 -0.3125 -0.109375 -0.796875q0 -0.53125 0.140625 -1.1875l1.015625 -4.875l1.125 0zm5.364319 0l1.109375 0l0.3125 -1.484375l1.203125 -0.34375l-0.390625 1.828125l1.96875 0l-0.21875 0.953125l-1.953125 0l-0.953125 4.53125q-0.03125 0.1875 -0.0625 0.34375q-0.015625 0.140625 -0.015625 0.265625q0 0.359375 0.171875 0.5q0.171875 0.125 0.5 0.125q0.359375 0 0.65625 -0.078125q0.296875 -0.09375 0.59375 -0.28125l0 0.921875q-0.3125 0.171875 -0.8125 0.28125q-0.484375 0.125 -0.9375 0.125q-1.359375 0 -1.359375 -1.25q0 -0.25 0.0625 -0.625l1.03125 -4.859375l-1.125 0l0.21875 -0.953125zm10.266296 -3.0q0.578125 -0.078125 1.296875 -0.09375q0.71875 -0.03125 1.3125 -0.03125q0.875 0 1.59375 0.234375q0.71875 0.234375 1.21875 0.71875q0.515625 0.484375 0.78125 1.21875q0.265625 0.734375 0.265625 1.71875q0 0.65625 -0.125 1.4375q-0.109375 0.765625 -0.390625 1.53125q-0.28125 0.75 -0.75 1.453125q-0.453125 0.703125 -1.15625 1.25q-0.6875 0.546875 -1.625 0.875q-0.921875 0.328125 -2.125 0.328125q-0.234375 0 -0.609375 -0.015625q-0.359375 0 -0.71875 -0.015625q-1.046875 -0.0625 -1.203125 -0.09375l2.234375 -10.515625zm2.515625 0.984375q-0.1875 0 -0.421875 0.015625q-0.21875 0 -0.421875 0.015625q-0.203125 0 -0.40625 0.015625q-0.1875 0.015625 -0.296875 0.03125l-1.765625 8.40625q0.046875 0.015625 0.21875 0.03125q0.1875 0 0.390625 0.015625q0.203125 0 0.390625 0.015625q0.1875 0 0.265625 0q1.3125 0 2.203125 -0.546875q0.90625 -0.546875 1.46875 -1.359375q0.5625 -0.828125 0.8125 -1.8125q0.265625 -1.0 0.265625 -1.875q0 -0.6875 -0.15625 -1.21875q-0.15625 -0.546875 -0.484375 -0.921875q-0.3125 -0.390625 -0.828125 -0.59375q-0.5 -0.21875 -1.234375 -0.21875zm9.975586 6.5625q-0.109375 0.546875 -0.15625 1.125q-0.046875 0.5625 -0.046875 1.0625q0 0.21875 0 0.421875q0 0.203125 0.03125 0.375l-0.84375 0l-0.203125 -1.3125l-0.0625 0q-0.1875 0.265625 -0.453125 0.53125q-0.25 0.25 -0.578125 0.46875q-0.3125 0.203125 -0.671875 0.328125q-0.359375 0.140625 -0.765625 0.140625q-1.78125 0 -1.78125 -2.328125q0 -0.96875 0.25 -1.953125q0.25 -0.984375 0.765625 -1.78125q0.515625 -0.796875 1.328125 -1.296875q0.828125 -0.515625 1.984375 -0.515625q0.421875 0 1.015625 0.09375q0.609375 0.09375 1.140625 0.265625l-0.953125 4.375zm-3.390625 2.171875q0.359375 0 0.6875 -0.171875q0.328125 -0.171875 0.609375 -0.421875q0.296875 -0.265625 0.515625 -0.546875q0.234375 -0.296875 0.375 -0.546875l0.828125 -4.0625q-0.4375 -0.203125 -1.140625 -0.203125q-0.6875 0 -1.21875 0.40625q-0.515625 0.40625 -0.875 1.0625q-0.359375 0.640625 -0.546875 1.46875q-0.171875 0.828125 -0.171875 1.65625q0 0.5625 0.21875 0.96875q0.234375 0.390625 0.71875 0.390625zm5.3876343 -6.71875l1.109375 0l0.3125 -1.484375l1.203125 -0.34375l-0.390625 1.828125l1.96875 0l-0.21875 0.953125l-1.953125 0l-0.953125 4.53125q-0.03125 0.1875 -0.0625 0.34375q-0.015625 0.140625 -0.015625 0.265625q0 0.359375 0.171875 0.5q0.171875 0.125 0.5 0.125q0.359375 0 0.65625 -0.078125q0.296875 -0.09375 0.59375 -0.28125l0 0.921875q-0.3125 0.171875 -0.8125 0.28125q-0.484375 0.125 -0.9375 0.125q-1.359375 0 -1.359375 -1.25q0 -0.25 0.0625 -0.625l1.03125 -4.859375l-1.125 0l0.21875 -0.953125zm9.728027 4.546875q-0.109375 0.546875 -0.15625 1.125q-0.046875 0.5625 -0.046875 1.0625q0 0.21875 0 0.421875q0 0.203125 0.03125 0.375l-0.84375 0l-0.203125 -1.3125l-0.0625 0q-0.1875 0.265625 -0.453125 0.53125q-0.25 0.25 -0.578125 0.46875q-0.3125 0.203125 -0.671875 0.328125q-0.359375 0.140625 -0.765625 0.140625q-1.78125 0 -1.78125 -2.328125q0 -0.96875 0.25 -1.953125q0.25 -0.984375 0.765625 -1.78125q0.515625 -0.796875 1.328125 -1.296875q0.828125 -0.515625 1.984375 -0.515625q0.421875 0 1.015625 0.09375q0.609375 0.09375 1.140625 0.265625l-0.953125 4.375zm-3.390625 2.171875q0.359375 0 0.6875 -0.171875q0.328125 -0.171875 0.609375 -0.421875q0.296875 -0.265625 0.515625 -0.546875q0.234375 -0.296875 0.375 -0.546875l0.828125 -4.0625q-0.4375 -0.203125 -1.140625 -0.203125q-0.6875 0 -1.21875 0.40625q-0.515625 0.40625 -0.875 1.0625q-0.359375 0.640625 -0.546875 1.46875q-0.171875 0.828125 -0.171875 1.65625q0 0.5625 0.21875 0.96875q0.234375 0.390625 0.71875 0.390625zm8.215759 -1.328125q0 -0.390625 -0.203125 -0.65625q-0.1875 -0.28125 -0.5 -0.5q-0.296875 -0.21875 -0.640625 -0.421875q-0.34375 -0.21875 -0.640625 -0.46875q-0.296875 -0.265625 -0.5 -0.609375q-0.1875 -0.359375 -0.1875 -0.890625q0 -0.421875 0.203125 -0.78125q0.203125 -0.375 0.546875 -0.640625q0.359375 -0.28125 0.84375 -0.4375q0.484375 -0.171875 1.0625 -0.171875q0.796875 0 1.21875 0.109375q0.4375 0.109375 0.78125 0.296875l-0.375 0.90625q-0.59375 -0.34375 -1.625 -0.34375q-0.640625 0 -1.046875 0.265625q-0.40625 0.265625 -0.40625 0.796875q0 0.3125 0.1875 0.546875q0.203125 0.234375 0.5 0.453125q0.296875 0.203125 0.640625 0.421875q0.34375 0.21875 0.640625 0.5q0.296875 0.265625 0.484375 0.640625q0.203125 0.375 0.203125 0.890625q0 1.171875 -0.78125 1.78125q-0.78125 0.609375 -2.109375 0.609375q-0.671875 0 -1.234375 -0.140625q-0.5625 -0.140625 -0.90625 -0.34375l0.421875 -0.953125q0.296875 0.203125 0.78125 0.34375q0.484375 0.125 1.015625 0.125q0.734375 0 1.171875 -0.3125q0.453125 -0.328125 0.453125 -1.015625zm7.770691 1.375q-0.515625 0.453125 -1.234375 0.6875q-0.703125 0.234375 -1.421875 0.234375q-1.203125 0 -1.8125 -0.6875q-0.609375 -0.703125 -0.609375 -1.9375q0 -1.21875 0.34375 -2.1875q0.34375 -0.984375 0.90625 -1.65625q0.5625 -0.671875 1.265625 -1.03125q0.71875 -0.375 1.46875 -0.375q0.546875 0 0.9375 0.15625q0.40625 0.15625 0.65625 0.40625q0.25 0.234375 0.375 0.5625q0.125 0.328125 0.125 0.6875q0 1.0625 -1.046875 1.671875q-1.03125 0.609375 -3.0 0.609375q-0.1875 0 -0.390625 0q-0.1875 -0.015625 -0.390625 -0.03125q-0.0625 0.28125 -0.09375 0.546875q-0.03125 0.25 -0.03125 0.4375q0 0.828125 0.375 1.34375q0.375 0.515625 1.171875 0.515625q0.65625 0 1.203125 -0.21875q0.546875 -0.21875 0.84375 -0.453125l0.359375 0.71875zm-1.265625 -5.984375q-0.828125 0 -1.4375 0.5625q-0.609375 0.5625 -0.921875 1.6875q0.578125 0 1.1875 -0.03125q0.609375 -0.03125 1.109375 -0.15625q0.515625 -0.125 0.84375 -0.40625q0.328125 -0.28125 0.328125 -0.765625q0 -0.15625 -0.0625 -0.3125q-0.046875 -0.15625 -0.171875 -0.28125q-0.109375 -0.140625 -0.328125 -0.21875q-0.21875 -0.078125 -0.546875 -0.078125zm3.2858887 -0.78125l1.109375 0l0.3125 -1.484375l1.203125 -0.34375l-0.390625 1.828125l1.96875 0l-0.21875 0.953125l-1.953125 0l-0.953125 4.53125q-0.03125 0.1875 -0.0625 0.34375q-0.015625 0.140625 -0.015625 0.265625q0 0.359375 0.171875 0.5q0.171875 0.125 0.5 0.125q0.359375 0 0.65625 -0.078125q0.296875 -0.09375 0.59375 -0.28125l0 0.921875q-0.3125 0.171875 -0.8125 0.28125q-0.484375 0.125 -0.9375 0.125q-1.359375 0 -1.359375 -1.25q0 -0.25 0.0625 -0.625l1.03125 -4.859375l-1.125 0l0.21875 -0.953125zm3.7749023 6.96875q0 -0.390625 0.25 -0.65625q0.265625 -0.265625 0.75 -0.265625q0.375 0 0.578125 0.265625q0.203125 0.25 0.203125 0.578125q0 0.453125 -0.171875 0.890625q-0.15625 0.453125 -0.4375 0.828125q-0.28125 0.375 -0.671875 0.65625q-0.375 0.296875 -0.828125 0.46875l-0.234375 -0.578125q0.5625 -0.21875 0.90625 -0.671875q0.34375 -0.4375 0.421875 -0.875q-0.0625 0.03125 -0.140625 0.03125q-0.21875 0 -0.421875 -0.171875q-0.203125 -0.1875 -0.203125 -0.5zm12.349365 -0.203125q-0.515625 0.453125 -1.234375 0.6875q-0.703125 0.234375 -1.421875 0.234375q-1.203125 0 -1.8125 -0.6875q-0.609375 -0.703125 -0.609375 -1.9375q0 -1.21875 0.34375 -2.1875q0.34375 -0.984375 0.90625 -1.65625q0.5625 -0.671875 1.265625 -1.03125q0.71875 -0.375 1.46875 -0.375q0.546875 0 0.9375 0.15625q0.40625 0.15625 0.65625 0.40625q0.25 0.234375 0.375 0.5625q0.125 0.328125 0.125 0.6875q0 1.0625 -1.046875 1.671875q-1.03125 0.609375 -3.0 0.609375q-0.1875 0 -0.390625 0q-0.1875 -0.015625 -0.390625 -0.03125q-0.0625 0.28125 -0.09375 0.546875q-0.03125 0.25 -0.03125 0.4375q0 0.828125 0.375 1.34375q0.375 0.515625 1.171875 0.515625q0.65625 0 1.203125 -0.21875q0.546875 -0.21875 0.84375 -0.453125l0.359375 0.71875zm-1.265625 -5.984375q-0.828125 0 -1.4375 0.5625q-0.609375 0.5625 -0.921875 1.6875q0.578125 0 1.1875 -0.03125q0.609375 -0.03125 1.109375 -0.15625q0.515625 -0.125 0.84375 -0.40625q0.328125 -0.28125 0.328125 -0.765625q0 -0.15625 -0.0625 -0.3125q-0.046875 -0.15625 -0.171875 -0.28125q-0.109375 -0.140625 -0.328125 -0.21875q-0.21875 -0.078125 -0.546875 -0.078125zm3.2858887 -0.78125l1.109375 0l0.3125 -1.484375l1.203125 -0.34375l-0.390625 1.828125l1.96875 0l-0.21875 0.953125l-1.953125 0l-0.953125 4.53125q-0.03125 0.1875 -0.0625 0.34375q-0.015625 0.140625 -0.015625 0.265625q0 0.359375 0.171875 0.5q0.171875 0.125 0.5 0.125q0.359375 0 0.65625 -0.078125q0.296875 -0.09375 0.59375 -0.28125l0 0.921875q-0.3125 0.171875 -0.8125 0.28125q-0.484375 0.125 -0.9375 0.125q-1.359375 0 -1.359375 -1.25q0 -0.25 0.0625 -0.625l1.03125 -4.859375l-1.125 0l0.21875 -0.953125zm8.993652 6.859375q-0.21875 0.1875 -0.515625 0.34375q-0.28125 0.140625 -0.59375 0.25q-0.3125 0.109375 -0.609375 0.171875q-0.296875 0.0625 -0.5625 0.0625q-0.75 0 -1.21875 -0.234375q-0.46875 -0.234375 -0.75 -0.59375q-0.265625 -0.359375 -0.375 -0.78125q-0.09375 -0.421875 -0.09375 -0.796875q0 -1.28125 0.34375 -2.28125q0.34375 -1.015625 0.921875 -1.71875q0.578125 -0.71875 1.328125 -1.09375q0.75 -0.375 1.546875 -0.375q0.5625 0 0.921875 0.109375q0.375 0.109375 0.6875 0.25l-0.421875 0.921875q-0.265625 -0.15625 -0.640625 -0.234375q-0.375 -0.078125 -0.796875 -0.078125q-0.515625 0 -1.0 0.34375q-0.484375 0.34375 -0.859375 0.90625q-0.375 0.5625 -0.609375 1.296875q-0.21875 0.71875 -0.21875 1.484375q0 0.984375 0.40625 1.453125q0.40625 0.453125 1.09375 0.453125q0.453125 0 0.9375 -0.203125q0.5 -0.203125 0.796875 -0.40625l0.28125 0.75zm2.7493896 -9.984375q0.34375 0.453125 0.578125 1.015625q0.234375 0.546875 0.390625 1.125q0.15625 0.5625 0.21875 1.125q0.0625 0.5625 0.0625 1.078125q0 1.5 -0.34375 2.90625q-0.328125 1.390625 -0.90625 2.625q-0.578125 1.21875 -1.34375 2.234375q-0.75 1.015625 -1.578125 1.8125l-0.5625 -0.515625q0.734375 -0.796875 1.375 -1.828125q0.625 -1.015625 1.125 -2.140625q0.5 -1.140625 0.78125 -2.34375q0.28125 -1.203125 0.28125 -2.328125q0 -1.46875 -0.1875 -2.46875q-0.1875 -1.015625 -0.640625 -1.796875l0.75 -0.5z" fill-rule="nonzero"></path><path fill="#000000" fill-opacity="0.0" d="m363.36618 364.09927l0 0c0 -7.4563293 6.044525 -13.5008545 13.500824 -13.5008545l206.28967 0c3.5806274 0 7.0146484 1.4224243 9.54657 3.9543152c2.5318604 2.5318909 3.9542847 5.9658813 3.9542847 9.546539l0 19.801453c0 7.4563293 -6.0445557 13.5008545 -13.5008545 13.5008545l-206.28967 0l0 0c-7.456299 0 -13.500824 -6.044525 -13.500824 -13.5008545z" fill-rule="nonzero"></path><path stroke="#ffffff" stroke-width="2.6666666666666665" stroke-miterlimit="8.0" stroke-linecap="butt" d="m363.36618 364.09927l0 0c0 -7.4563293 6.044525 -13.5008545 13.500824 -13.5008545l206.28967 0c3.5806274 0 7.0146484 1.4224243 9.54657 3.9543152c2.5318604 2.5318909 3.9542847 5.9658813 3.9542847 9.546539l0 19.801453c0 7.4563293 -6.0445557 13.5008545 -13.5008545 13.5008545l-206.28967 0l0 0c-7.456299 0 -13.500824 -6.044525 -13.500824 -13.5008545z" fill-rule="nonzero"></path><path fill="#ffffff" d="m380.56085 377.53876l0.40625 2.90625l0.015625 0l0.4375 -2.953125l3.59375 -11.671875l1.0 0l3.625 11.71875l0.421875 2.90625l0.03125 0l0.453125 -2.953125l2.9375 -11.671875l2.03125 0l-4.875 17.78125l-1.15625 0l-3.546875 -11.734375l-0.453125 -2.640625l-0.125 0l-0.4375 2.671875l-3.5625 11.703125l-1.140625 0l-5.0 -17.78125l2.203125 0l3.140625 11.71875zm17.549835 -11.71875l9.53125 0l0 1.84375l-7.453125 0l0 5.984375l6.953125 0l0 1.84375l-6.953125 0l0 7.828125l-2.078125 0l0 -17.5zm27.76352 13.046875q0 -1.046875 -0.625 -1.703125q-0.625 -0.671875 -1.5625 -1.171875q-0.9375 -0.515625 -2.046875 -0.96875q-1.09375 -0.453125 -2.03125 -1.09375q-0.9375 -0.640625 -1.5625 -1.578125q-0.625 -0.9375 -0.625 -2.375q0 -2.0625 1.421875 -3.25q1.421875 -1.203125 4.046875 -1.203125q1.53125 0 2.78125 0.234375q1.25 0.21875 1.953125 0.5625l-0.625 1.828125q-0.578125 -0.28125 -1.703125 -0.53125q-1.109375 -0.25 -2.5 -0.25q-1.65625 0 -2.484375 0.75q-0.8125 0.734375 -0.8125 1.734375q0 0.96875 0.625 1.625q0.625 0.640625 1.5625 1.15625q0.9375 0.515625 2.03125 1.015625q1.09375 0.5 2.03125 1.171875q0.9375 0.65625 1.5625 1.578125q0.625 0.921875 0.625 2.296875q0 1.125 -0.40625 2.03125q-0.390625 0.890625 -1.171875 1.546875q-0.765625 0.640625 -1.875 1.0q-1.09375 0.34375 -2.484375 0.34375q-1.875 0 -3.109375 -0.296875q-1.21875 -0.28125 -1.890625 -0.625l0.6875 -1.875q0.578125 0.328125 1.703125 0.640625q1.125 0.3125 2.53125 0.3125q0.828125 0 1.546875 -0.15625q0.71875 -0.171875 1.25 -0.53125q0.53125 -0.359375 0.84375 -0.90625q0.3125 -0.5625 0.3125 -1.3125zm3.6992493 -8.046875l1.9375 0l0 -2.46875l2.0 -0.578125l0 3.046875l3.40625 0l0 1.75l-3.40625 0l0 6.921875q0 1.296875 0.328125 1.84375q0.328125 0.53125 1.109375 0.53125q0.640625 0 1.09375 -0.125q0.453125 -0.140625 1.0 -0.375l0.453125 1.53125q-0.671875 0.328125 -1.484375 0.515625q-0.796875 0.203125 -1.71875 0.203125q-1.53125 0 -2.15625 -0.859375q-0.625 -0.859375 -0.625 -2.890625l0 -7.296875l-1.9375 0l0 -1.75zm19.351868 11.5q-0.75 0.59375 -1.890625 0.953125q-1.125 0.34375 -2.40625 0.34375q-1.421875 0 -2.484375 -0.453125q-1.046875 -0.46875 -1.71875 -1.328125q-0.671875 -0.859375 -1.0 -2.0625q-0.328125 -1.203125 -0.328125 -2.703125q0 -3.203125 1.421875 -4.875q1.4375 -1.671875 4.078125 -1.671875q0.859375 0 1.703125 0.1875q0.859375 0.1875 1.53125 0.71875q0.671875 0.515625 1.09375 1.484375q0.421875 0.953125 0.421875 2.53125q0 0.828125 -0.140625 1.828125l-8.03125 0q0 1.09375 0.21875 1.953125q0.234375 0.84375 0.703125 1.4375q0.484375 0.578125 1.234375 0.890625q0.765625 0.3125 1.875 0.3125q0.84375 0 1.6875 -0.296875q0.859375 -0.296875 1.28125 -0.703125l0.75 1.453125zm-4.296875 -10.046875q-1.46875 0 -2.359375 0.78125q-0.890625 0.765625 -1.0625 2.640625l6.203125 0q0 -1.90625 -0.734375 -2.65625q-0.71875 -0.765625 -2.046875 -0.765625zm8.038574 -1.453125l1.375 0l0.375 1.5l0.109375 0q0.5625 -0.875 1.46875 -1.328125q0.921875 -0.46875 2.09375 -0.46875q2.5 0 3.71875 1.484375q1.234375 1.46875 1.234375 4.8125q0 1.578125 -0.421875 2.84375q-0.40625 1.25 -1.15625 2.125q-0.75 0.875 -1.8125 1.359375q-1.0625 0.46875 -2.359375 0.46875q-0.921875 0 -1.46875 -0.109375q-0.53125 -0.109375 -1.15625 -0.390625l0 5.203125l-2.0 0l0 -17.5zm5.046875 1.453125q-1.265625 0 -2.015625 0.671875q-0.734375 0.65625 -1.03125 2.0l0 6.203125q0.453125 0.34375 1.03125 0.53125q0.578125 0.1875 1.515625 0.1875q1.734375 0 2.734375 -1.28125q1.015625 -1.296875 1.015625 -3.796875q0 -1.015625 -0.171875 -1.84375q-0.171875 -0.84375 -0.5625 -1.4375q-0.390625 -0.59375 -1.0 -0.90625q-0.609375 -0.328125 -1.515625 -0.328125zm16.090149 -6.453125l2.078125 0l0 17.5l-2.078125 0l0 -17.5zm14.729889 17.5l0 -7.125q0 -1.953125 -0.5625 -2.9375q-0.5625 -0.984375 -2.0625 -0.984375q-1.328125 0 -2.1875 0.71875q-0.859375 0.703125 -1.21875 1.78125l0 8.546875l-2.0 0l0 -12.5l1.40625 0l0.375 1.53125l0.09375 0q0.609375 -0.8125 1.609375 -1.3125q1.015625 -0.515625 2.421875 -0.515625q1.015625 0 1.796875 0.234375q0.78125 0.234375 1.28125 0.84375q0.515625 0.59375 0.78125 1.609375q0.265625 1.015625 0.265625 2.5625l0 7.546875l-2.0 0zm9.432617 -5.171875l0.6875 2.375l0.03125 0l0.625 -2.421875l2.796875 -7.28125l2.15625 0l-5.328125 12.78125l-0.84375 0l-5.4375 -12.78125l2.3125 0l3.0 7.328125zm7.8956604 -1.078125q0 -3.171875 1.40625 -4.859375q1.421875 -1.6875 4.078125 -1.6875q1.3906555 0 2.4219055 0.46875q1.046875 0.453125 1.71875 1.3125q0.6875 0.859375 1.0 2.078125q0.328125 1.21875 0.328125 2.6875q0 3.171875 -1.421875 4.859375q-1.40625 1.6875 -4.0469055 1.6875q-1.40625 0 -2.453125 -0.453125q-1.03125 -0.46875 -1.703125 -1.328125q-0.671875 -0.859375 -1.0 -2.078125q-0.328125 -1.21875 -0.328125 -2.6875zm2.078125 0q0 0.953125 0.1875 1.828125q0.1875 0.875 0.578125 1.53125q0.40625 0.640625 1.0625 1.046875q0.65625 0.390625 1.578125 0.390625q3.3906555 0.03125 3.3906555 -4.796875q0 -0.96875 -0.1875 -1.84375q-0.1875 -0.875 -0.59375 -1.53125q-0.390625 -0.65625 -1.046875 -1.03125q-0.640625 -0.390625 -1.5625305 -0.390625q-3.40625 -0.03125 -3.40625 4.796875zm20.732147 5.421875q-0.75 0.546875 -1.78125 0.828125q-1.015625 0.296875 -2.140625 0.296875q-1.453125 0 -2.453125 -0.453125q-1.0 -0.46875 -1.640625 -1.328125q-0.640625 -0.859375 -0.9375 -2.078125q-0.28125 -1.21875 -0.28125 -2.6875q0 -3.171875 1.40625 -4.859375q1.40625 -1.6875 4.03125 -1.6875q1.1875 0 2.03125 0.1875q0.84375 0.1875 1.515625 0.53125l-0.578125 1.734375q-0.578125 -0.328125 -1.28125 -0.515625q-0.6875 -0.1875 -1.5 -0.1875q-3.546875 0 -3.546875 4.796875q0 0.953125 0.1875 1.8125q0.1875 0.859375 0.625 1.53125q0.4375 0.65625 1.140625 1.0625q0.71875 0.390625 1.78125 0.390625q0.890625 0 1.59375 -0.265625q0.71875 -0.28125 1.171875 -0.625l0.65625 1.515625zm2.6886597 -10.75q0.953125 -0.578125 2.21875 -0.84375q1.265625 -0.28125 2.640625 -0.28125q1.296875 0 2.078125 0.359375q0.796875 0.34375 1.203125 0.90625q0.421875 0.5625 0.546875 1.234375q0.140625 0.671875 0.140625 1.359375q0 1.5 -0.078125 2.921875q-0.0625 1.421875 -0.0625 2.703125q0 0.921875 0.0625 1.75q0.078125 0.8125 0.28125 1.515625l-1.46875 0l-0.53125 -1.75l-0.125 0q-0.21875 0.359375 -0.5625 0.703125q-0.34375 0.328125 -0.8125 0.59375q-0.46875 0.25 -1.09375 0.421875q-0.625 0.1875 -1.4375 0.1875q-0.796875 0 -1.484375 -0.25q-0.6875 -0.25 -1.1875 -0.703125q-0.5 -0.46875 -0.796875 -1.125q-0.28125 -0.65625 -0.28125 -1.46875q0 -1.109375 0.453125 -1.84375q0.453125 -0.734375 1.265625 -1.171875q0.8125 -0.4375 1.953125 -0.625q1.140625 -0.1875 2.515625 -0.1875q0.34375 0 0.671875 0q0.34375 0 0.703125 0.046875q0.0625 -0.75 0.0625 -1.34375q0 -1.375 -0.546875 -1.921875q-0.546875 -0.5625 -2.0 -0.5625q-0.421875 0 -0.90625 0.0625q-0.484375 0.0625 -1.0 0.1875q-0.515625 0.109375 -0.984375 0.265625q-0.453125 0.15625 -0.8125 0.359375l-0.625 -1.5zm3.5625 10.03125q0.6875 0 1.234375 -0.1875q0.5625 -0.1875 0.953125 -0.46875q0.40625 -0.296875 0.671875 -0.640625q0.265625 -0.359375 0.390625 -0.6875l0 -2.0625q-0.359375 -0.03125 -0.71875 -0.046875q-0.359375 -0.015625 -0.71875 -0.015625q-0.765625 0 -1.515625 0.09375q-0.734375 0.09375 -1.296875 0.328125q-0.5625 0.234375 -0.90625 0.65625q-0.328125 0.40625 -0.328125 1.03125q0 0.875 0.625 1.4375q0.625 0.5625 1.609375 0.5625zm7.562744 -10.953125l1.9375 0l0 -2.46875l2.0 -0.578125l0 3.046875l3.40625 0l0 1.75l-3.40625 0l0 6.921875q0 1.296875 0.328125 1.84375q0.328125 0.53125 1.109375 0.53125q0.640625 0 1.09375 -0.125q0.453125 -0.140625 1.0 -0.375l0.453125 1.53125q-0.671875 0.328125 -1.484375 0.515625q-0.796875 0.203125 -1.71875 0.203125q-1.53125 0 -2.15625 -0.859375q-0.625 -0.859375 -0.625 -2.890625l0 -7.296875l-1.9375 0l0 -1.75zm10.648743 0l2.0 0l0 12.5l-2.0 0l0 -12.5zm-0.421875 -3.796875q0 -0.578125 0.390625 -0.984375q0.390625 -0.421875 0.984375 -0.421875q0.609375 0 1.03125 0.421875q0.421875 0.40625 0.421875 0.984375q0 0.578125 -0.421875 0.953125q-0.421875 0.375 -1.03125 0.375q-0.59375 0 -0.984375 -0.375q-0.390625 -0.375 -0.390625 -0.953125zm6.084839 10.046875q0 -3.171875 1.40625 -4.859375q1.421875 -1.6875 4.078125 -1.6875q1.390625 0 2.421875 0.46875q1.046875 0.453125 1.71875 1.3125q0.6875 0.859375 1.0 2.078125q0.328125 1.21875 0.328125 2.6875q0 3.171875 -1.421875 4.859375q-1.40625 1.6875 -4.046875 1.6875q-1.40625 0 -2.453125 -0.453125q-1.03125 -0.46875 -1.703125 -1.328125q-0.671875 -0.859375 -1.0 -2.078125q-0.328125 -1.21875 -0.328125 -2.6875zm2.078125 0q0 0.953125 0.1875 1.828125q0.1875 0.875 0.578125 1.53125q0.40625 0.640625 1.0625 1.046875q0.65625 0.390625 1.578125 0.390625q3.390625 0.03125 3.390625 -4.796875q0 -0.96875 -0.1875 -1.84375q-0.1875 -0.875 -0.59375 -1.53125q-0.390625 -0.65625 -1.046875 -1.03125q-0.640625 -0.390625 -1.5625 -0.390625q-3.40625 -0.03125 -3.40625 4.796875zm20.232178 6.25l0 -7.125q0 -1.953125 -0.5625 -2.9375q-0.5625 -0.984375 -2.0625 -0.984375q-1.328125 0 -2.1875 0.71875q-0.859375 0.703125 -1.21875 1.78125l0 8.546875l-2.0 0l0 -12.5l1.40625 0l0.375 1.53125l0.09375 0q0.609375 -0.8125 1.609375 -1.3125q1.015625 -0.515625 2.421875 -0.515625q1.015625 0 1.796875 0.234375q0.78125 0.234375 1.28125 0.84375q0.515625 0.59375 0.78125 1.609375q0.265625 1.015625 0.265625 2.5625l0 7.546875l-2.0 0z" fill-rule="nonzero"></path><path fill="#000000" fill-opacity="0.0" d="m44.0 364.09796l0 0c0 -7.4563293 6.044529 -13.5008545 13.500835 -13.5008545l188.99834 0c3.5806427 0 7.014633 1.4224243 9.546539 3.9543152c2.5318909 2.5318909 3.9542847 5.9658813 3.9542847 9.546539l0 19.801453l0 0c0 7.4563293 -6.044525 13.5008545 -13.500824 13.5008545l-188.99834 0l0 0c-7.4563065 0 -13.500835 -6.044525 -13.500835 -13.5008545z" fill-rule="nonzero"></path><path stroke="#ffffff" stroke-width="2.6666666666666665" stroke-miterlimit="8.0" stroke-linecap="butt" d="m44.0 364.09796l0 0c0 -7.4563293 6.044529 -13.5008545 13.500835 -13.5008545l188.99834 0c3.5806427 0 7.014633 1.4224243 9.546539 3.9543152c2.5318909 2.5318909 3.9542847 5.9658813 3.9542847 9.546539l0 19.801453l0 0c0 7.4563293 -6.044525 13.5008545 -13.500824 13.5008545l-188.99834 0l0 0c-7.4563065 0 -13.500835 -6.044525 -13.500835 -13.5008545z" fill-rule="nonzero"></path><path fill="#ffffff" d="m80.23266 377.53745l0.40625 2.90625l0.015625 0l0.4375 -2.953125l3.59375 -11.671875l1.0 0l3.625 11.71875l0.421875 2.90625l0.03125 0l0.453125 -2.953125l2.9375 -11.671875l2.03125 0l-4.875 17.78125l-1.15625 0l-3.546875 -11.734375l-0.453125 -2.640625l-0.125 0l-0.4375 2.671875l-3.5625 11.703125l-1.140625 0l-5.0 -17.78125l2.203125 0l3.140625 11.71875zm17.549835 -11.71875l9.53125 0l0 1.84375l-7.453125 0l0 5.984375l6.953125 0l0 1.84375l-6.953125 0l0 7.828125l-2.078125 0l0 -17.5zm20.326035 0l2.078125 0l0 17.5l-2.078125 0l0 -17.5zm14.729866 17.5l0 -7.125q0 -1.953125 -0.5625 -2.9375q-0.5625 -0.984375 -2.0625 -0.984375q-1.328125 0 -2.1875 0.71875q-0.8593674 0.703125 -1.2187424 1.78125l0 8.546875l-2.0 0l0 -12.5l1.40625 0l0.375 1.53125l0.09375 0q0.609375 -0.8125 1.6093674 -1.3125q1.015625 -0.515625 2.421875 -0.515625q1.015625 0 1.796875 0.234375q0.78125 0.234375 1.28125 0.84375q0.515625 0.59375 0.78125 1.609375q0.265625 1.015625 0.265625 2.5625l0 7.546875l-2.0 0zm9.432632 -5.171875l0.6875 2.375l0.03125 0l0.625 -2.421875l2.796875 -7.28125l2.15625 0l-5.328125 12.78125l-0.84375 0l-5.4375 -12.78125l2.3125 0l3.0 7.328125zm7.8956757 -1.078125q0 -3.171875 1.40625 -4.859375q1.421875 -1.6875 4.078125 -1.6875q1.390625 0 2.421875 0.46875q1.046875 0.453125 1.71875 1.3125q0.6875 0.859375 1.0 2.078125q0.328125 1.21875 0.328125 2.6875q0 3.171875 -1.421875 4.859375q-1.40625 1.6875 -4.046875 1.6875q-1.40625 0 -2.453125 -0.453125q-1.03125 -0.46875 -1.703125 -1.328125q-0.671875 -0.859375 -1.0 -2.078125q-0.328125 -1.21875 -0.328125 -2.6875zm2.078125 0q0 0.953125 0.1875 1.828125q0.1875 0.875 0.578125 1.53125q0.40625 0.640625 1.0625 1.046875q0.65625 0.390625 1.578125 0.390625q3.390625 0.03125 3.390625 -4.796875q0 -0.96875 -0.1875 -1.84375q-0.1875 -0.875 -0.59375 -1.53125q-0.390625 -0.65625 -1.046875 -1.03125q-0.640625 -0.390625 -1.5625 -0.390625q-3.40625 -0.03125 -3.40625 4.796875zm20.732147 5.421875q-0.75 0.546875 -1.78125 0.828125q-1.015625 0.296875 -2.140625 0.296875q-1.453125 0 -2.453125 -0.453125q-1.0 -0.46875 -1.640625 -1.328125q-0.640625 -0.859375 -0.9375 -2.078125q-0.28125 -1.21875 -0.28125 -2.6875q0 -3.171875 1.40625 -4.859375q1.40625 -1.6875 4.03125 -1.6875q1.1875 0 2.03125 0.1875q0.84375 0.1875 1.515625 0.53125l-0.578125 1.734375q-0.578125 -0.328125 -1.28125 -0.515625q-0.6875 -0.1875 -1.5 -0.1875q-3.546875 0 -3.546875 4.796875q0 0.953125 0.1875 1.8125q0.1875 0.859375 0.625 1.53125q0.4375 0.65625 1.140625 1.0625q0.71875 0.390625 1.78125 0.390625q0.890625 0 1.59375 -0.265625q0.71875 -0.28125 1.171875 -0.625l0.65625 1.515625zm2.6886292 -10.75q0.953125 -0.578125 2.21875 -0.84375q1.265625 -0.28125 2.640625 -0.28125q1.296875 0 2.078125 0.359375q0.796875 0.34375 1.203125 0.90625q0.421875 0.5625 0.546875 1.234375q0.140625 0.671875 0.140625 1.359375q0 1.5 -0.078125 2.921875q-0.0625 1.421875 -0.0625 2.703125q0 0.921875 0.0625 1.75q0.078125 0.8125 0.28125 1.515625l-1.46875 0l-0.53125 -1.75l-0.125 0q-0.21875 0.359375 -0.5625 0.703125q-0.34375 0.328125 -0.8125 0.59375q-0.46875 0.25 -1.09375 0.421875q-0.625 0.1875 -1.4375 0.1875q-0.796875 0 -1.484375 -0.25q-0.6875 -0.25 -1.1875 -0.703125q-0.5 -0.46875 -0.796875 -1.125q-0.28125 -0.65625 -0.28125 -1.46875q0 -1.109375 0.453125 -1.84375q0.453125 -0.734375 1.265625 -1.171875q0.8125 -0.4375 1.953125 -0.625q1.140625 -0.1875 2.515625 -0.1875q0.34375 0 0.671875 0q0.34375 0 0.703125 0.046875q0.0625 -0.75 0.0625 -1.34375q0 -1.375 -0.546875 -1.921875q-0.546875 -0.5625 -2.0 -0.5625q-0.421875 0 -0.90625 0.0625q-0.484375 0.0625 -1.0 0.1875q-0.515625 0.109375 -0.984375 0.265625q-0.453125 0.15625 -0.8125 0.359375l-0.625 -1.5zm3.5625 10.03125q0.6875 0 1.234375 -0.1875q0.5625 -0.1875 0.953125 -0.46875q0.40625 -0.296875 0.671875 -0.640625q0.265625 -0.359375 0.390625 -0.6875l0 -2.0625q-0.359375 -0.03125 -0.71875 -0.046875q-0.359375 -0.015625 -0.71875 -0.015625q-0.765625 0 -1.515625 0.09375q-0.734375 0.09375 -1.296875 0.328125q-0.5625 0.234375 -0.90625 0.65625q-0.328125 0.40625 -0.328125 1.03125q0 0.875 0.625 1.4375q0.625 0.5625 1.609375 0.5625zm7.5627747 -10.953125l1.9375 0l0 -2.46875l2.0 -0.578125l0 3.046875l3.40625 0l0 1.75l-3.40625 0l0 6.921875q0 1.296875 0.328125 1.84375q0.328125 0.53125 1.109375 0.53125q0.640625 0 1.09375 -0.125q0.453125 -0.140625 1.0 -0.375l0.453125 1.53125q-0.671875 0.328125 -1.484375 0.515625q-0.796875 0.203125 -1.71875 0.203125q-1.53125 0 -2.15625 -0.859375q-0.625 -0.859375 -0.625 -2.890625l0 -7.296875l-1.9375 0l0 -1.75zm10.648743 0l2.0 0l0 12.5l-2.0 0l0 -12.5zm-0.421875 -3.796875q0 -0.578125 0.390625 -0.984375q0.390625 -0.421875 0.984375 -0.421875q0.609375 0 1.03125 0.421875q0.421875 0.40625 0.421875 0.984375q0 0.578125 -0.421875 0.953125q-0.421875 0.375 -1.03125 0.375q-0.59375 0 -0.984375 -0.375q-0.390625 -0.375 -0.390625 -0.953125zm6.0848236 10.046875q0 -3.171875 1.40625 -4.859375q1.421875 -1.6875 4.078125 -1.6875q1.390625 0 2.421875 0.46875q1.046875 0.453125 1.71875 1.3125q0.6875 0.859375 1.0 2.078125q0.328125 1.21875 0.328125 2.6875q0 3.171875 -1.421875 4.859375q-1.40625 1.6875 -4.046875 1.6875q-1.40625 0 -2.453125 -0.453125q-1.03125 -0.46875 -1.703125 -1.328125q-0.671875 -0.859375 -1.0 -2.078125q-0.328125 -1.21875 -0.328125 -2.6875zm2.078125 0q0 0.953125 0.1875 1.828125q0.1875 0.875 0.578125 1.53125q0.40625 0.640625 1.0625 1.046875q0.65625 0.390625 1.578125 0.390625q3.390625 0.03125 3.390625 -4.796875q0 -0.96875 -0.1875 -1.84375q-0.1875 -0.875 -0.59375 -1.53125q-0.390625 -0.65625 -1.046875 -1.03125q-0.640625 -0.390625 -1.5625 -0.390625q-3.40625 -0.03125 -3.40625 4.796875zm20.232147 6.25l0 -7.125q0 -1.953125 -0.5625 -2.9375q-0.5625 -0.984375 -2.0625 -0.984375q-1.328125 0 -2.1875 0.71875q-0.859375 0.703125 -1.21875 1.78125l0 8.546875l-2.0 0l0 -12.5l1.40625 0l0.375 1.53125l0.09375 0q0.609375 -0.8125 1.609375 -1.3125q1.015625 -0.515625 2.421875 -0.515625q1.015625 0 1.796875 0.234375q0.78125 0.234375 1.28125 0.84375q0.515625 0.59375 0.78125 1.609375q0.265625 1.015625 0.265625 2.5625l0 7.546875l-2.0 0z" fill-rule="nonzero"></path><path fill="#000000" fill-opacity="0.0" d="m152.0 293.40027l0 57.19684" fill-rule="nonzero"></path><path stroke="#ffffff" stroke-width="3.0" stroke-linejoin="round" stroke-linecap="butt" d="m152.0 293.40027l0 39.19684" fill-rule="evenodd"></path><path fill="#ffffff" stroke="#ffffff" stroke-width="3.0" stroke-linecap="butt" d="m147.0448 332.5971l4.9552 13.614288l4.9552 -13.614288z" fill-rule="evenodd"></path><path fill="#000000" fill-opacity="0.0" d="m260.0 373.9987l103.37009 0" fill-rule="nonzero"></path><path stroke="#ffffff" stroke-width="3.0" stroke-linejoin="round" stroke-linecap="butt" d="m276.88483 373.9987l68.48526 0" fill-rule="evenodd"></path><path fill="#ffffff" stroke="#ffffff" stroke-width="3.0" stroke-linecap="butt" d="m276.88483 373.9987l-7.1348267 -4.9958496l-7.1348267 4.9958496l7.1348267 4.9958496z" fill-rule="evenodd"></path><path fill="#ffffff" stroke="#ffffff" stroke-width="3.0" stroke-linecap="butt" d="m345.3701 378.9539l13.614288 -4.9552l-13.614288 -4.9552z" fill-rule="evenodd"></path><path fill="#000000" fill-opacity="0.0" d="m480.0 293.40027l0 57.19684" fill-rule="nonzero"></path><path stroke="#ffffff" stroke-width="3.0" stroke-linejoin="round" stroke-linecap="butt" d="m480.0 293.40027l0 39.19684" fill-rule="evenodd"></path><path fill="#ffffff" stroke="#ffffff" stroke-width="3.0" stroke-linecap="butt" d="m475.0448 332.5971l4.9552 13.614288l4.9552 -13.614288z" fill-rule="evenodd"></path><path fill="#000000" fill-opacity="0.0" d="m700.0 454.5971l0 0c0 -9.765625E-4 7.9345703E-4 -0.0018005371 0.0017700195 -0.0018005371l215.99823 0.0018005371c4.8828125E-4 0 9.1552734E-4 1.8310547E-4 0.0012817383 5.187988E-4c3.0517578E-4 3.6621094E-4 5.493164E-4 8.239746E-4 5.493164E-4 0.0012817383l-0.0018310547 46.80136c0 9.765625E-4 -7.9345703E-4 0.0018005371 -0.0017700195 0.0018005371l-215.99823 -0.0018005371l0 0c-9.765625E-4 0 -0.0017700195 -8.239746E-4 -0.0017700195 -0.0018005371z" fill-rule="nonzero"></path><path stroke="#ffffff" stroke-width="2.6666666666666665" stroke-miterlimit="8.0" stroke-linecap="butt" d="m700.0 454.5971l0 0c0 -9.765625E-4 7.9345703E-4 -0.0018005371 0.0017700195 -0.0018005371l215.99823 0.0018005371c4.8828125E-4 0 9.1552734E-4 1.8310547E-4 0.0012817383 5.187988E-4c3.0517578E-4 3.6621094E-4 5.493164E-4 8.239746E-4 5.493164E-4 0.0012817383l-0.0018310547 46.80136c0 9.765625E-4 -7.9345703E-4 0.0018005371 -0.0017700195 0.0018005371l-215.99823 -0.0018005371l0 0c-9.765625E-4 0 -0.0017700195 -8.239746E-4 -0.0017700195 -0.0018005371z" fill-rule="nonzero"></path><path fill="#ffffff" d="m797.1195 471.66245l-5.453125 0l0 15.65625l-2.0625 0l0 -15.65625l-5.453125 0l0 -1.84375l12.96875 0l0 1.84375zm1.8540039 9.40625q0 -3.171875 1.40625 -4.859375q1.421875 -1.6875 4.078125 -1.6875q1.390625 0 2.421875 0.46875q1.046875 0.453125 1.71875 1.3125q0.6875 0.859375 1.0 2.078125q0.328125 1.21875 0.328125 2.6875q0 3.171875 -1.421875 4.859375q-1.40625 1.6875 -4.046875 1.6875q-1.40625 0 -2.453125 -0.453125q-1.03125 -0.46875 -1.703125 -1.328125q-0.671875 -0.859375 -1.0 -2.078125q-0.328125 -1.21875 -0.328125 -2.6875zm2.078125 0q0 0.953125 0.1875 1.828125q0.1875 0.875 0.578125 1.53125q0.40625 0.640625 1.0625 1.046875q0.65625 0.390625 1.578125 0.390625q3.390625 0.03125 3.390625 -4.796875q0 -0.96875 -0.1875 -1.84375q-0.1875 -0.875 -0.59375 -1.53125q-0.390625 -0.65625 -1.046875 -1.03125q-0.640625 -0.390625 -1.5625 -0.390625q-3.40625 -0.03125 -3.40625 4.796875zm11.497742 0q0 -3.171875 1.40625 -4.859375q1.421875 -1.6875 4.078125 -1.6875q1.390625 0 2.421875 0.46875q1.046875 0.453125 1.71875 1.3125q0.6875 0.859375 1.0 2.078125q0.328125 1.21875 0.328125 2.6875q0 3.171875 -1.421875 4.859375q-1.40625 1.6875 -4.046875 1.6875q-1.40625 0 -2.453125 -0.453125q-1.03125 -0.46875 -1.703125 -1.328125q-0.671875 -0.859375 -1.0 -2.078125q-0.328125 -1.21875 -0.328125 -2.6875zm2.078125 0q0 0.953125 0.1875 1.828125q0.1875 0.875 0.578125 1.53125q0.40625 0.640625 1.0625 1.046875q0.65625 0.390625 1.578125 0.390625q3.390625 0.03125 3.390625 -4.796875q0 -0.96875 -0.1875 -1.84375q-0.1875 -0.875 -0.59375 -1.53125q-0.390625 -0.65625 -1.046875 -1.03125q-0.640625 -0.390625 -1.5625 -0.390625q-3.40625 -0.03125 -3.40625 4.796875zm14.435303 3.171875q0 0.875 0.296875 1.25q0.296875 0.375 0.84375 0.375q0.328125 0 0.703125 -0.046875q0.375 -0.046875 0.84375 -0.21875l0.234375 1.5625q-0.40625 0.203125 -1.125 0.328125q-0.703125 0.125 -1.234375 0.125q-1.125 0 -1.84375 -0.625q-0.71875 -0.640625 -0.71875 -2.171875l0 -15.0l2.0 0l0 14.421875z" fill-rule="nonzero"></path><path fill="#000000" fill-opacity="0.0" d="m700.0 364.09796l0 0c0 -7.4563293 6.0445557 -13.5008545 13.5008545 -13.5008545l188.99829 0c3.5806885 0 7.0146484 1.4224243 9.54657 3.9543152c2.5318604 2.5318909 3.9542847 5.9658813 3.9542847 9.546539l0 19.801453l0 0c0 7.4563293 -6.0445557 13.5008545 -13.5008545 13.5008545l-188.99829 0l0 0c-7.456299 0 -13.5008545 -6.044525 -13.5008545 -13.5008545z" fill-rule="nonzero"></path><path stroke="#ffffff" stroke-width="2.6666666666666665" stroke-miterlimit="8.0" stroke-linecap="butt" d="m700.0 364.09796l0 0c0 -7.4563293 6.0445557 -13.5008545 13.5008545 -13.5008545l188.99829 0c3.5806885 0 7.0146484 1.4224243 9.54657 3.9543152c2.5318604 2.5318909 3.9542847 5.9658813 3.9542847 9.546539l0 19.801453l0 0c0 7.4563293 -6.0445557 13.5008545 -13.5008545 13.5008545l-188.99829 0l0 0c-7.456299 0 -13.5008545 -6.044525 -13.5008545 -13.5008545z" fill-rule="nonzero"></path><path fill="#ffffff" d="m793.4851 365.8187l2.078125 0l0 13.65625q0 2.0 -0.890625 3.046875q-0.890625 1.046875 -2.6875 1.046875q-0.203125 0 -0.5 -0.03125q-0.296875 -0.015625 -0.59375 -0.078125q-0.296875 -0.046875 -0.578125 -0.125q-0.296875 -0.0625 -0.46875 -0.171875l0.390625 -1.765625q0.703125 0.328125 1.53125 0.328125q1.046875 0 1.375 -0.734375q0.34375 -0.75 0.34375 -2.015625l0 -13.15625zm5.7923584 11.25q0 -3.171875 1.40625 -4.859375q1.421875 -1.6875 4.078125 -1.6875q1.390625 0 2.421875 0.46875q1.046875 0.453125 1.71875 1.3125q0.6875 0.859375 1.0 2.078125q0.328125 1.21875 0.328125 2.6875q0 3.171875 -1.421875 4.859375q-1.40625 1.6875 -4.046875 1.6875q-1.40625 0 -2.453125 -0.453125q-1.03125 -0.46875 -1.703125 -1.328125q-0.671875 -0.859375 -1.0 -2.078125q-0.328125 -1.21875 -0.328125 -2.6875zm2.078125 0q0 0.953125 0.1875 1.828125q0.1875 0.875 0.578125 1.53125q0.40625 0.640625 1.0625 1.046875q0.65625 0.390625 1.578125 0.390625q3.390625 0.03125 3.390625 -4.796875q0 -0.96875 -0.1875 -1.84375q-0.1875 -0.875 -0.59375 -1.53125q-0.390625 -0.65625 -1.046875 -1.03125q-0.640625 -0.390625 -1.5625 -0.390625q-3.40625 -0.03125 -3.40625 4.796875zm12.200867 -11.25l2.0 0l0 6.21875l0.109375 0q0.5625 -0.71875 1.453125 -1.109375q0.890625 -0.40625 1.9375 -0.40625q2.421875 0 3.640625 1.546875q1.21875 1.546875 1.21875 4.796875q0 3.28125 -1.609375 4.984375q-1.59375 1.6875 -4.5 1.6875q-1.390625 0 -2.53125 -0.296875q-1.140625 -0.296875 -1.71875 -0.640625l0 -16.78125zm5.15625 6.453125q-1.25 0 -2.03125 0.703125q-0.765625 0.6875 -1.125 1.96875l0 6.296875q0.484375 0.28125 1.15625 0.421875q0.671875 0.125 1.390625 0.125q1.703125 0 2.71875 -1.1875q1.015625 -1.203125 1.015625 -3.75q0 -0.984375 -0.1875 -1.828125q-0.171875 -0.859375 -0.546875 -1.453125q-0.375 -0.59375 -0.96875 -0.9375q-0.578125 -0.359375 -1.421875 -0.359375z" fill-rule="nonzero"></path><path fill="#000000" fill-opacity="0.0" d="m596.65753 374.0l103.33856 0" fill-rule="nonzero"></path><path stroke="#ffffff" stroke-width="3.0" stroke-linejoin="round" stroke-linecap="butt" d="m596.65753 374.0l85.33862 0" fill-rule="evenodd"></path><path fill="#ffffff" stroke="#ffffff" stroke-width="3.0" stroke-linecap="butt" d="m681.99615 378.9552l13.614258 -4.9552l-13.614258 -4.9552z" fill-rule="evenodd"></path><path fill="#000000" fill-opacity="0.0" d="m808.0 397.40027l0 57.19684" fill-rule="nonzero"></path><path stroke="#ffffff" stroke-width="3.0" stroke-linejoin="round" stroke-linecap="butt" stroke-dasharray="3.0,9.0" d="m808.0 397.40027l0 39.19684" fill-rule="evenodd"></path><path fill="#ffffff" stroke="#ffffff" stroke-width="3.0" stroke-linecap="butt" d="m803.0448 436.5971l4.9552 13.614288l4.9552 -13.614288z" fill-rule="evenodd"></path><path fill="#000000" fill-opacity="0.0" d="m372.0 476.09796l0 0c0 -7.4563293 6.044525 -13.5008545 13.500824 -13.5008545l188.99832 0c3.5806885 0 7.0146484 1.4224243 9.54657 3.9543152c2.5318604 2.5318909 3.9542847 5.9658813 3.9542847 9.546539l0 19.801453l0 0c0 7.4563293 -6.0445557 13.5008545 -13.5008545 13.5008545l-188.99832 0l0 0c-7.456299 0 -13.500824 -6.044525 -13.500824 -13.5008545z" fill-rule="nonzero"></path><path stroke="#ffffff" stroke-width="2.6666666666666665" stroke-miterlimit="8.0" stroke-linecap="butt" d="m372.0 476.09796l0 0c0 -7.4563293 6.044525 -13.5008545 13.500824 -13.5008545l188.99832 0c3.5806885 0 7.0146484 1.4224243 9.54657 3.9543152c2.5318604 2.5318909 3.9542847 5.9658813 3.9542847 9.546539l0 19.801453l0 0c0 7.4563293 -6.0445557 13.5008545 -13.5008545 13.5008545l-188.99832 0l0 0c-7.456299 0 -13.500824 -6.044525 -13.500824 -13.5008545z" fill-rule="nonzero"></path><path fill="#ffffff" d="m440.92874 477.8187q0.46875 -0.078125 1.0625 -0.109375q0.59375 -0.046875 1.21875 -0.046875q0.640625 -0.015625 1.25 -0.03125q0.625 -0.015625 1.140625 -0.015625q2.109375 0 3.640625 0.65625q1.53125 0.640625 2.53125 1.8125q1.0 1.15625 1.484375 2.78125q0.5 1.625 0.5 3.578125q0 1.78125 -0.46875 3.421875q-0.453125 1.625 -1.453125 2.890625q-1.0 1.265625 -2.609375 2.03125q-1.59375 0.75 -3.875 0.75q-0.390625 0 -1.03125 -0.015625q-0.640625 0 -1.3125 -0.046875q-0.671875 -0.03125 -1.25 -0.0625q-0.578125 -0.015625 -0.828125 -0.0625l0 -17.53125zm4.71875 1.65625q-0.3125 0 -0.703125 0q-0.390625 0 -0.765625 0.03125q-0.375 0.015625 -0.6875 0.046875q-0.3125 0.015625 -0.484375 0.046875l0 14.0q0.125 0.015625 0.46875 0.03125q0.359375 0.015625 0.734375 0.03125q0.375 0 0.71875 0.015625q0.34375 0.015625 0.46875 0.015625q1.75 0 2.9375 -0.59375q1.1875 -0.609375 1.90625 -1.609375q0.71875 -1.015625 1.015625 -2.328125q0.296875 -1.3125 0.296875 -2.71875q0 -1.21875 -0.28125 -2.453125q-0.265625 -1.25 -0.953125 -2.25q-0.671875 -1.0 -1.8125 -1.625q-1.125 -0.640625 -2.859375 -0.640625zm11.439636 4.265625q0.953125 -0.578125 2.21875 -0.84375q1.265625 -0.28125 2.640625 -0.28125q1.296875 0 2.078125 0.359375q0.796875 0.34375 1.203125 0.90625q0.421875 0.5625 0.546875 1.234375q0.140625 0.671875 0.140625 1.359375q0 1.5 -0.078125 2.921875q-0.0625 1.421875 -0.0625 2.703125q0 0.921875 0.0625 1.75q0.078125 0.8125 0.28125 1.515625l-1.46875 0l-0.53125 -1.75l-0.125 0q-0.21875 0.359375 -0.5625 0.703125q-0.34375 0.328125 -0.8125 0.59375q-0.46875 0.25 -1.09375 0.421875q-0.625 0.1875 -1.4375 0.1875q-0.796875 0 -1.484375 -0.25q-0.6875 -0.25 -1.1875 -0.703125q-0.5 -0.46875 -0.796875 -1.125q-0.28125 -0.65625 -0.28125 -1.46875q0 -1.109375 0.453125 -1.84375q0.453125 -0.734375 1.265625 -1.171875q0.8125 -0.4375 1.953125 -0.625q1.140625 -0.1875 2.515625 -0.1875q0.34375 0 0.671875 0q0.34375 0 0.703125 0.046875q0.0625 -0.75 0.0625 -1.34375q0 -1.375 -0.546875 -1.921875q-0.546875 -0.5625 -2.0 -0.5625q-0.421875 0 -0.90625 0.0625q-0.484375 0.0625 -1.0 0.1875q-0.515625 0.109375 -0.984375 0.265625q-0.453125 0.15625 -0.8125 0.359375l-0.625 -1.5zm3.5625 10.03125q0.6875 0 1.234375 -0.1875q0.5625 -0.1875 0.953125 -0.46875q0.40625 -0.296875 0.671875 -0.640625q0.265625 -0.359375 0.390625 -0.6875l0 -2.0625q-0.359375 -0.03125 -0.71875 -0.046875q-0.359375 -0.015625 -0.71875 -0.015625q-0.765625 0 -1.515625 0.09375q-0.734375 0.09375 -1.296875 0.328125q-0.5625 0.234375 -0.90625 0.65625q-0.328125 0.40625 -0.328125 1.03125q0 0.875 0.625 1.4375q0.625 0.5625 1.609375 0.5625zm7.5627747 -10.953125l1.9375 0l0 -2.46875l2.0 -0.578125l0 3.046875l3.40625 0l0 1.75l-3.40625 0l0 6.921875q0 1.296875 0.328125 1.84375q0.328125 0.53125 1.109375 0.53125q0.640625 0 1.09375 -0.125q0.453125 -0.140625 1.0 -0.375l0.453125 1.53125q-0.671875 0.328125 -1.484375 0.515625q-0.796875 0.203125 -1.71875 0.203125q-1.53125 0 -2.15625 -0.859375q-0.625 -0.859375 -0.625 -2.890625l0 -7.296875l-1.9375 0l0 -1.75zm10.023743 0.921875q0.953125 -0.578125 2.21875 -0.84375q1.265625 -0.28125 2.640625 -0.28125q1.296875 0 2.078125 0.359375q0.796875 0.34375 1.203125 0.90625q0.421875 0.5625 0.546875 1.234375q0.140625 0.671875 0.140625 1.359375q0 1.5 -0.078125 2.921875q-0.0625 1.421875 -0.0625 2.703125q0 0.921875 0.0625 1.75q0.078125 0.8125 0.28125 1.515625l-1.46875 0l-0.53125 -1.75l-0.125 0q-0.21875 0.359375 -0.5625 0.703125q-0.34375 0.328125 -0.8125 0.59375q-0.46875 0.25 -1.09375 0.421875q-0.625 0.1875 -1.4375 0.1875q-0.796875 0 -1.484375 -0.25q-0.6875 -0.25 -1.1875 -0.703125q-0.5 -0.46875 -0.796875 -1.125q-0.28125 -0.65625 -0.28125 -1.46875q0 -1.109375 0.453125 -1.84375q0.453125 -0.734375 1.265625 -1.171875q0.8125 -0.4375 1.953125 -0.625q1.140625 -0.1875 2.515625 -0.1875q0.34375 0 0.671875 0q0.34375 0 0.703125 0.046875q0.0625 -0.75 0.0625 -1.34375q0 -1.375 -0.546875 -1.921875q-0.546875 -0.5625 -2.0 -0.5625q-0.421875 0 -0.90625 0.0625q-0.484375 0.0625 -1.0 0.1875q-0.515625 0.109375 -0.984375 0.265625q-0.453125 0.15625 -0.8125 0.359375l-0.625 -1.5zm3.5625 10.03125q0.6875 0 1.234375 -0.1875q0.5625 -0.1875 0.953125 -0.46875q0.40625 -0.296875 0.671875 -0.640625q0.265625 -0.359375 0.390625 -0.6875l0 -2.0625q-0.359375 -0.03125 -0.71875 -0.046875q-0.359375 -0.015625 -0.71875 -0.015625q-0.765625 0 -1.515625 0.09375q-0.734375 0.09375 -1.296875 0.328125q-0.5625 0.234375 -0.90625 0.65625q-0.328125 0.40625 -0.328125 1.03125q0 0.875 0.625 1.4375q0.625 0.5625 1.609375 0.5625zm14.7034 -1.859375q0 -0.75 -0.453125 -1.171875q-0.4375 -0.421875 -1.109375 -0.703125q-0.65625 -0.296875 -1.453125 -0.546875q-0.78125 -0.265625 -1.453125 -0.671875q-0.65625 -0.421875 -1.109375 -1.0625q-0.4375 -0.65625 -0.4375 -1.765625q0 -1.796875 1.015625 -2.625q1.03125 -0.84375 2.859375 -0.84375q1.34375 0 2.25 0.234375q0.921875 0.234375 1.59375 0.5625l-0.46875 1.65625q-0.578125 -0.28125 -1.390625 -0.484375q-0.8125 -0.21875 -1.734375 -0.21875q-1.109375 0 -1.625 0.375q-0.5 0.375 -0.5 1.296875q0 0.65625 0.4375 1.015625q0.453125 0.359375 1.109375 0.65625q0.671875 0.28125 1.453125 0.5625q0.796875 0.265625 1.453125 0.71875q0.671875 0.453125 1.109375 1.140625q0.453125 0.6875 0.453125 1.8125q0 0.796875 -0.265625 1.5q-0.25 0.6875 -0.8125 1.1875q-0.546875 0.5 -1.359375 0.78125q-0.8125 0.296875 -1.90625 0.296875q-1.421875 0 -2.421875 -0.28125q-1.0 -0.265625 -1.6875 -0.640625l0.609375 -1.703125q0.578125 0.328125 1.5 0.609375q0.921875 0.265625 1.875 0.265625q1.078125 0 1.765625 -0.421875q0.703125 -0.421875 0.703125 -1.53125zm14.288147 2.40625q-0.75 0.59375 -1.890625 0.953125q-1.125 0.34375 -2.40625 0.34375q-1.421875 0 -2.484375 -0.453125q-1.046875 -0.46875 -1.71875 -1.328125q-0.671875 -0.859375 -1.0 -2.0625q-0.328125 -1.203125 -0.328125 -2.703125q0 -3.203125 1.421875 -4.875q1.4375 -1.671875 4.078125 -1.671875q0.859375 0 1.703125 0.1875q0.859375 0.1875 1.53125 0.71875q0.671875 0.515625 1.09375 1.484375q0.421875 0.953125 0.421875 2.53125q0 0.828125 -0.140625 1.828125l-8.03125 0q0 1.09375 0.21875 1.953125q0.234375 0.84375 0.703125 1.4375q0.484375 0.578125 1.234375 0.890625q0.765625 0.3125 1.875 0.3125q0.84375 0 1.6875 -0.296875q0.859375 -0.296875 1.28125 -0.703125l0.75 1.453125zm-4.296875 -10.046875q-1.46875 0 -2.359375 0.78125q-0.890625 0.765625 -1.0625 2.640625l6.203125 0q0 -1.90625 -0.734375 -2.65625q-0.71875 -0.765625 -2.046875 -0.765625zm6.3979797 -1.453125l1.9375 0l0 -2.46875l2.0 -0.578125l0 3.046875l3.40625 0l0 1.75l-3.40625 0l0 6.921875q0 1.296875 0.328125 1.84375q0.328125 0.53125 1.109375 0.53125q0.640625 0 1.09375 -0.125q0.453125 -0.140625 1.0 -0.375l0.453125 1.53125q-0.671875 0.328125 -1.484375 0.515625q-0.796875 0.203125 -1.71875 0.203125q-1.53125 0 -2.15625 -0.859375q-0.625 -0.859375 -0.625 -2.890625l0 -7.296875l-1.9375 0l0 -1.75z" fill-rule="nonzero"></path><path fill="#000000" fill-opacity="0.0" d="m700.9869 392.958l-116.0 73.51181" fill-rule="nonzero"></path><path stroke="#ffffff" stroke-width="3.0" stroke-linejoin="round" stroke-linecap="butt" d="m686.7248 401.99622l-101.737915 64.4736" fill-rule="evenodd"></path><path fill="#ffffff" stroke="#ffffff" stroke-width="3.0" stroke-linecap="butt" d="m686.72473 401.99622l8.700806 0.4006958l3.352356 -8.039032l-8.700745 -0.4006958z" fill-rule="evenodd"></path></g></svg>

