<?xml version="1.0" encoding="utf-8"?>
<svg width="800px" height="800px" viewBox="0 0 1024 1024" class="icon"  version="1.1" xmlns="http://www.w3.org/2000/svg"><path d="M432 768h208v32H432v104c0 9.6-6.4 16-16 16s-16-6.4-16-16V672c0-9.6 6.4-16 16-16s16 6.4 16 16v96z m96-416c9.6 0 16 6.4 16 16s-6.4 16-16 16H336c-9.6 0-16-6.4-16-16s6.4-16 16-16h192z m352 0c9.6 0 16 6.4 16 16s-6.4 16-16 16h-96c-9.6 0-16-6.4-16-16s6.4-16 16-16h96zM624 160c0-9.6 6.4-16 16-16s16 6.4 16 16v112c0 9.6-6.4 16-16 16s-16-6.4-16-16v-112z m-67.2 102.4c6.4 6.4 6.4 16 0 22.4-6.4 6.4-16 6.4-22.4 0l-67.2-67.2c-6.4-6.4-6.4-16 0-22.4 6.4-6.4 16-6.4 22.4 0l67.2 67.2z m24 182.4c6.4-6.4 16-4.8 22.4 1.6 6.4 6.4 4.8 16-1.6 22.4l-432 392c-6.4 6.4-16 4.8-22.4-1.6s-4.8-16 1.6-22.4l432-392z m-169.6 136l-22.4 22.4-96-96 22.4-22.4 96 96zM640 112c9.6 0 16 6.4 16 16s-6.4 16-16 16h-96c-9.6 0-16-6.4-16-16s6.4-16 16-16h96z" fill="#E30A17" /><path d="M640 528c-88 0-160-72-160-160s72-160 160-160 160 72 160 160-72 160-160 160zM160 880c-17.6 0-32-14.4-32-32s14.4-32 32-32 32 14.4 32 32-14.4 32-32 32z m400-64c-17.6 0-32-14.4-32-32s14.4-32 32-32 32 14.4 32 32-14.4 32-32 32z m80 0c-17.6 0-32-14.4-32-32s14.4-32 32-32 32 14.4 32 32-14.4 32-32 32z m-224 0c-17.6 0-32-14.4-32-32s14.4-32 32-32 32 14.4 32 32-14.4 32-32 32z m0 112c-17.6 0-32-14.4-32-32s14.4-32 32-32 32 14.4 32 32-14.4 32-32 32z m83.2-745.6c12.8 12.8 12.8 32 0 44.8-12.8 12.8-32 12.8-44.8 0-12.8-12.8-12.8-32 0-44.8 12.8-12.8 33.6-12.8 44.8 0zM416 704c-44.8 0-80-35.2-80-80s35.2-80 80-80 80 35.2 80 80-35.2 80-80 80z m224-544c-17.6 0-32-14.4-32-32s14.4-32 32-32 32 14.4 32 32-14.4 32-32 32zM320 400c-17.6 0-32-14.4-32-32s14.4-32 32-32 32 14.4 32 32-14.4 32-32 32z m-16 128c-17.6 0-32-14.4-32-32s14.4-32 32-32 32 14.4 32 32-14.4 32-32 32z m-24 240c-17.6 0-32-14.4-32-32s14.4-32 32-32 32 14.4 32 32-14.4 32-32 32z" fill="#E30A17" /></svg>