<svg version="1.1" viewBox="-5.0 -10.0 110.0 135.0" xmlns="http://www.w3.org/2000/svg" fill="#E30A17">
  <path d="m 49.118643,30.307021 c -0.985012,0.008 -2.008701,0.477187 -2.794567,1.263055 l -9.443717,9.443715 c 10.25521,-2.233156 29.812386,16.692701 41.010632,16.606302 0.985013,-0.008 2.008701,-0.477188 2.794569,-1.263057 l 9.443715,-9.443714 C 79.877348,49.143194 60.316889,30.220622 49.118643,30.307021 z" />
  <path d="m 20.183115,59.24255 c -0.985013,0.008 -2.008699,0.477186 -2.794568,1.263055 L 7.9448329,69.949319 C 18.20004,67.716164 37.757217,86.64202 48.955463,86.555621 c 0.985013,-0.008 2.008701,-0.477189 2.794569,-1.263055 L 61.193747,75.84885 C 50.94182,78.078724 31.381361,59.15615 20.183115,59.24255 z" />
  <path d="m 66.932417,12.366161 c -0.274465,6.696326 5.377875,17.077005 9.635142,26.588207 5.225173,2.897199 10.500923,5.332005 13.55779,4.666775 l 1.527333,-0.3338 C 91.493807,32.862857 78.805579,14.361259 77.752423,3.430546 77.629371,2.1434909 76.067889,1.8249251 75.015666,2.8771479 l -6.826175,6.8261752 c -0.749689,0.7496889 -1.218302,1.7147309 -1.257289,2.6621179 z" />
  <path d="m 61.19033,72.557515 1.488429,-0.326574 C 62.390584,66.234616 57.097808,58.028507 52.533889,50.15024 46.666048,46.781416 40.358149,43.551163 36.892505,44.307458 l -1.488423,0.32658 c 0.288176,5.996324 5.580952,14.202435 10.144871,22.080703 5.867841,3.36882 12.175739,6.599074 15.641383,5.842781 z" />
  <path d="M 31.141719,104.49618 C 31.416186,97.799851 25.763847,87.419172 21.506581,77.907969 16.281408,75.010772 11.005657,72.575964 7.9487892,73.241196 l -1.5273295,0.333799 c 0.1555925,10.42777 12.8471023,28.926085 13.8941923,39.857455 0.123036,1.28707 1.684534,1.60562 2.736748,0.55341 l 6.826173,-6.82618 c 0.749689,-0.74969 1.218303,-1.71473 1.257288,-2.66212 z" />
</svg>
