<svg xmlns="http://www.w3.org/2000/svg" width="127.35" height="84.37" viewBox="0 0 127.35 84.37">
  <title>Asset 8</title>
  <g id="Layer_2" data-name="Layer 2">
    <g id="content">
      <path d="M8.17,63.2c2.77,0,4.85.71,6.25,2.15a6.68,6.68,0,0,1,0,9c-1.4,1.44-3.48,2.15-6.25,2.15H2.72v6.4a1.28,1.28,0,0,1-.4,1,1.36,1.36,0,0,1-1,.39,1.3,1.3,0,0,1-1-.39,1.3,1.3,0,0,1-.39-1V64.57a1.34,1.34,0,0,1,.39-1,1.28,1.28,0,0,1,1-.4ZM7.9,73.9a6.33,6.33,0,0,0,4.45-1.31,3.93,3.93,0,0,0-1.7-6.46,8.86,8.86,0,0,0-2.75-.36H2.72V73.9Z" style="fill:#333333" />
      <path d="M38.4,63.05a1.3,1.3,0,0,1,1,.4,1.32,1.32,0,0,1,.41,1V82.87a1.28,1.28,0,0,1-.41,1,1.33,1.33,0,0,1-1,.39,1.28,1.28,0,0,1-.95-.39,1.3,1.3,0,0,1-.39-1v-8H25.72v8a1.28,1.28,0,0,1-.4,1,1.36,1.36,0,0,1-1,.39A1.33,1.33,0,0,1,23,82.87V64.42a1.34,1.34,0,0,1,.39-1,1.28,1.28,0,0,1,1-.4,1.33,1.33,0,0,1,1,.4,1.31,1.31,0,0,1,.4,1v8H37.06v-8a1.34,1.34,0,0,1,.39-1A1.25,1.25,0,0,1,38.4,63.05Z" style="fill:#333333" />
      <path d="M49.89,63.05a1.37,1.37,0,0,1,1.37,1.37V82.87a1.28,1.28,0,0,1-.4,1,1.34,1.34,0,0,1-1,.39,1.33,1.33,0,0,1-1.35-1.35V64.42a1.34,1.34,0,0,1,.39-1A1.28,1.28,0,0,1,49.89,63.05Z" style="fill:#333333" />
      <path d="M76.84,63.05a1.33,1.33,0,0,1,1,.4,1.31,1.31,0,0,1,.4,1V82.28a1.83,1.83,0,0,1-.58,1.37,1.92,1.92,0,0,1-1.39.57h-.36a1.88,1.88,0,0,1-1.59-.81L62.72,66.69V82.87a1.28,1.28,0,0,1-.41,1,1.33,1.33,0,0,1-1,.39,1.28,1.28,0,0,1-1-.39,1.3,1.3,0,0,1-.39-1V65a1.92,1.92,0,0,1,.57-1.39,1.81,1.81,0,0,1,1.37-.58h.39a2.07,2.07,0,0,1,1.65.89L75.49,80.57V64.42a1.34,1.34,0,0,1,.39-1A1.28,1.28,0,0,1,76.84,63.05Z" style="fill:#333333" />
      <path d="M101.69,80.36a1.51,1.51,0,0,1,.67-.12,1,1,0,0,1,.75.35,1.13,1.13,0,0,1,.31.79,1.16,1.16,0,0,1-.65,1.14,18.12,18.12,0,0,1-3,1.31,12,12,0,0,1-3.83.54,11.48,11.48,0,0,1-4.14-.73,9.44,9.44,0,0,1-3.32-2.14,10.53,10.53,0,0,1-3-7.87,10.51,10.51,0,0,1,3-7.86A10.17,10.17,0,0,1,96,62.9a12.25,12.25,0,0,1,3.81.53,15.52,15.52,0,0,1,2.45,1,3.15,3.15,0,0,1,1,.74,1.33,1.33,0,0,1,.17.72,1.12,1.12,0,0,1-.31.78,1,1,0,0,1-.75.34,1.51,1.51,0,0,1-.67-.12,15.24,15.24,0,0,0-2.45-1,10.72,10.72,0,0,0-3.13-.39,8.74,8.74,0,0,0-3.38.63,7,7,0,0,0-2.52,1.73,8.19,8.19,0,0,0-2,5.77,8.2,8.2,0,0,0,2,5.78,7.79,7.79,0,0,0,6,2.36,10.3,10.3,0,0,0,3-.39A14.43,14.43,0,0,0,101.69,80.36Z" style="fill:#333333" />
      <path d="M126,63.05a1.37,1.37,0,0,1,1.37,1.37V82.87a1.28,1.28,0,0,1-.4,1,1.34,1.34,0,0,1-1,.39,1.33,1.33,0,0,1-1.35-1.35v-8H113.3v8a1.28,1.28,0,0,1-.41,1,1.34,1.34,0,0,1-1,.39,1.33,1.33,0,0,1-1.35-1.35V64.42a1.34,1.34,0,0,1,.39-1,1.28,1.28,0,0,1,1-.4,1.38,1.38,0,0,1,1.38,1.37v8h11.33v-8a1.34,1.34,0,0,1,.39-1A1.28,1.28,0,0,1,126,63.05Z" style="fill:#333333" />
      <rect x="97.65" y="9.84" width="5.99" height="33.11" rx="2.35" ry="2.35" style="fill:#ababab" />
      <rect x="67.92" y="22.77" width="5.99" height="20.18" rx="1.87" ry="1.87" style="fill:#ababab" />
      <rect x="53.05" y="18.5" width="5.99" height="24.45" rx="2.28" ry="2.28" style="fill:#ababab" />
      <rect x="38.19" y="17.06" width="5.99" height="25.89" rx="1.88" ry="1.88" style="fill:#ababab" />
      <rect x="23.33" y="9.84" width="5.99" height="33.11" rx="2.69" ry="2.69" style="fill:#ababab" />
      <rect x="82.78" width="5.99" height="42.95" rx="2.43" ry="2.43" style="fill:#ababab" />
      <path d="M75.79,13.71c-.52-2-5.88-2.14-6.54-2.22a1.63,1.63,0,0,1-.87-.27A25.57,25.57,0,0,0,53.9,4.77c-3.49-.43-4-3.36-8.13-4.21S38.19,4,38.19,4a5.42,5.42,0,0,1,4.19,2.1c.8,1.08,1.25,3.62,2.27,5.57s3.39,3.79,5.53,5.72A7.24,7.24,0,0,0,53,18.84l-.22.48.31,2.3.25-2.18v0l1.25-.23a15.86,15.86,0,0,0,3.65.16l.23.19L53.44,22l-.64,1.42.31,2.31.25-2.19v0l4.46-.81-3.31-.23a58.19,58.19,0,0,1,5.92-2.92l-1-.47c2-.66,4.48-2.28,5.76-2.71,1.55-.52,3.51,0,5.16.72s3.44,1.37,4.35,1.14S76.31,15.74,75.79,13.71Z" style="fill:#333333" />
    </g>
  </g>
</svg>
