<?xml version="1.0" encoding="iso-8859-1"?>
<!DOCTYPE svg PUBLIC "-//W3C//DTD SVG 1.1//EN" "http://www.w3.org/Graphics/SVG/1.1/DTD/svg11.dtd">
<svg fill="#E30A17" height="800px" width="800px" version="1.1" id="Capa_1" xmlns="http://www.w3.org/2000/svg" xmlns:xlink="http://www.w3.org/1999/xlink" viewBox="0 0 339.555 339.555" xml:space="preserve">
<path id="XMLID_35_" d="M253.895,231.663c4.295,4.297,4.294,11.262-0.002,15.557c-2.147,2.147-4.963,3.221-7.777,3.221
	c-2.815,0-5.631-1.074-7.779-3.223l-11.31-11.313c-4.295-4.297-4.294-11.262,0.002-15.557c4.296-4.294,11.261-4.294,15.557,0.002
	L253.895,231.663z M115.248,166.167c35.635,0,57.691-35.185,57.691-67.784V18.412c0-2.917-1.159-5.716-3.222-7.778
	c-2.063-2.063-4.861-3.222-7.778-3.222l-46.695,0.001c-6.075,0-11,4.925-11,11v79.569c0,6.075,4.925,11,11,11s11-4.925,11-11V29.413
	l24.695-0.001v68.972c0,19.194-12.403,45.784-35.691,45.784c-19.35,0-35.697-20.967-35.697-45.784V18.76c0-6.075-4.925-11-11-11
	s-11,4.925-11,11v79.623C57.551,135.759,83.434,166.167,115.248,166.167z M339.555,60.208v260.936c0,6.075-4.925,11-11,11H11
	c-6.075,0-11-4.925-11-11V60.208c0-6.075,4.925-11,11-11h15.157c6.075,0,11,4.925,11,11s-4.925,11-11,11H22v238.936h117.729
	c3.231-16.422,13.629-31.799,29.802-43.967c-14.507-35.259-11.274-68.853,9.094-89.222c19.424-19.424,51.306-23.251,84.965-10.754
	c13.081-25.322,32.372-41.662,53.965-45.821V71.208H206.718c-6.075,0-11-4.925-11-11s4.925-11,11-11h121.837
	C334.63,49.208,339.555,54.132,339.555,60.208z M317.555,262.275c-21.113,4.972-37.694,23.962-41.645,47.868h41.645V262.275z
	 M317.555,143.048c-15.331,4.831-29.156,19.629-38.293,41.597c-1.15,2.766-3.379,4.943-6.172,6.028s-5.906,0.983-8.624-0.279
	c-28.695-13.35-55.628-12.539-70.285,2.116c-15.177,15.179-15.546,43.032-0.965,72.69c2.498,5.081,0.731,11.228-4.082,14.207
	c-13.971,8.646-23.167,19.292-26.769,30.735h33.848c-0.191-0.813-0.293-1.661-0.293-2.533c0-6.075,4.925-11,11-11h15.995
	c6.075,0,11,4.925,11,11c0,0.872-0.102,1.72-0.293,2.533h20.065c4.474-36.193,30.704-64.993,63.867-70.276v-25.661
	c-0.272,0.021-0.548,0.03-0.825,0.03c-6.075,0-11-4.925-11-11v-15.997c0-6.075,4.925-11,11-11c0.277,0,0.553,0.01,0.825,0.03
	V143.048z"/>
</svg>