<?xml version="1.0" encoding="UTF-8" standalone="yes"?><svg xmlns="http://www.w3.org/2000/svg" xmlns:xlink="http://www.w3.org/1999/xlink" height="142px" style="width:401px;height:142px;" version="1.1" viewBox="0 0 401 142" width="401px"><defs><filter height="300%" id="f1" width="300%" x="-1" y="-1"><feGaussianBlur result="blurOut" stdDeviation="2.0"/><feColorMatrix in="blurOut" result="blurOut2" type="matrix" values="0 0 0 0 0 0 0 0 0 0 0 0 0 0 0 0 0 0 .4 0"/><feOffset dx="4.0" dy="4.0" in="blurOut2" result="blurOut3"/><feBlend in="SourceGraphic" in2="blurOut3" mode="normal"/></filter></defs><g><polygon fill="#FFFFFF" filter="url(#f1)" points="6,8.5,6,9.1241,15.85,8.4615,25.7,8.7555,35.55,7.9126,45.4,9.1476,55.25,8.6983,65.1,7.7703,74.95,7.9001,84.8,9.2193,94.65,8.28,104.5,8.4978,114.35,8.1,124.2,9.1628,134.05,8.8734,143.9,8.3082,153.75,7.8776,163.6,8.6072,173.45,9.1201,183.3,8.893,193.15,8.1606,203,8.5,203.6333,8.5,202.9838,18.9023,203.1258,29.3047,203.6099,39.707,203.265,50.1094,203.5118,60.5117,202.3532,70.9141,202.5078,81.3164,202.4365,91.7188,203.247,102.1211,202.6622,112.5234,203.7446,122.9258,203,133.3281,203,133.6245,193.15,133.5653,183.3,133.8369,173.45,133.4773,163.6,133.0991,153.75,133.5702,143.9,133.8291,134.05,132.8143,124.2,133.5291,114.35,133.1812,104.5,133.9522,94.65,133.5436,84.8,132.9061,74.95,133.6351,65.1,132.5894,55.25,132.9179,45.4,133.2866,35.55,133.6164,25.7,133.3414,15.85,133.1763,6,133.3281,5.5015,133.3281,5.4914,122.9258,6.0417,112.5234,5.6487,102.1211,6.2813,91.7188,6.6347,81.3164,6.4682,70.9141,5.4711,60.5117,6.5535,50.1094,5.997,39.707,6.7397,29.3047,6.5129,18.9023,6,8.5" style="stroke: #FF8C00; stroke-width: 1.5;"/><polygon fill="#ADD1B2" points="32.1815,27.4763,30.3498,30.1256,29.1058,32.3853,27.2128,33.2411,24.5955,34.9633,21.0863,36.0134,17.9067,35.3616,16.3913,33.8843,13.5753,33.256,12.1783,30.6856,10.7179,27.4547,9.6242,25.6502,9.9009,22.6427,11.5016,19.6241,13.2428,17.6322,15.009,14.8439,18.6152,13.6028,21.5147,13.1745,24.0486,13.8394,26.3876,15.6743,29.038,17.4885,30.3497,18.8905,31.7331,22.2374,32.4899,24.7917" style="stroke: #FF8C00; stroke-width: 1.0;"/><path d="M23.9688,30.1406 Q23.3906,30.4375 22.75,30.5859 Q22.1094,30.7344 21.4063,30.7344 Q18.9063,30.7344 17.5859,29.0859 Q16.2656,27.4375 16.2656,24.3125 Q16.2656,21.1875 17.5859,19.5313 Q18.9063,17.875 21.4063,17.875 Q22.1094,17.875 22.7578,18.0313 Q23.4063,18.1875 23.9688,18.4844 L23.9688,21.2031 Q23.3438,20.625 22.75,20.3516 Q22.1563,20.0781 21.5313,20.0781 Q20.1875,20.0781 19.5,21.1484 Q18.8125,22.2188 18.8125,24.3125 Q18.8125,26.4063 19.5,27.4766 Q20.1875,28.5469 21.5313,28.5469 Q22.1563,28.5469 22.75,28.2734 Q23.3438,28 23.9688,27.4219 L23.9688,30.1406 Z "/><text fill="#000000" font-family="sans-serif" font-size="12" lengthAdjust="spacingAndGlyphs" textLength="165" x="35" y="28.6543">HistoryDatasetAssociation</text><path d="M7,40.5 L7,40.3581 L16.75,40.8755 L26.5,40.5692 L36.25,41.3114 L46,41.1939 L55.75,40.6075 L65.5,41.1984 L75.25,41.0333 L85,40.0578 L94.75,40.5892 L104.5,40.45 L114.25,41.2353 L124,40.2886 L133.75,40.2735 L143.5,39.6595 L153.25,40.1307 L163,40.8616 L172.75,40.1691 L182.5,40.1482 L192.25,40.383 L202,40.5 " fill="#FFFFFF" style="stroke: #FF8C00; stroke-width: 1.5;"/><text fill="#000000" font-family="sans-serif" font-size="11" lengthAdjust="spacingAndGlyphs" textLength="65" x="12" y="54.7104">hid: integer</text><text fill="#000000" font-family="sans-serif" font-size="11" lengthAdjust="spacingAndGlyphs" textLength="103" x="12" y="67.5151">history_id: integer</text><text fill="#000000" font-family="sans-serif" font-size="11" lengthAdjust="spacingAndGlyphs" textLength="107" x="12" y="80.3198">dataset_id: integer</text><text fill="#000000" font-family="sans-serif" font-size="11" lengthAdjust="spacingAndGlyphs" textLength="70" x="12" y="93.1245">state: string</text><text fill="#000000" font-family="sans-serif" font-size="11" lengthAdjust="spacingAndGlyphs" textLength="73" x="12" y="105.9292">name: string</text><text fill="#000000" font-family="sans-serif" font-size="11" lengthAdjust="spacingAndGlyphs" textLength="62" x="12" y="118.7339">info: string</text><path d="M7,125.3281 L7,124.5038 L16.75,126.3161 L26.5,124.6291 L36.25,125.5454 L46,126.25 L55.75,124.9296 L65.5,126.0018 L75.25,125.6537 L85,124.4339 L94.75,124.6692 L104.5,125.8819 L114.25,125.7395 L124,125.6919 L133.75,124.8624 L143.5,126.2601 L153.25,126.124 L163,125.5331 L172.75,124.7908 L182.5,126.1348 L192.25,125.3487 L202,125.3281 " fill="#FFFFFF" style="stroke: #FF8C00; stroke-width: 1.5;"/><polygon fill="#FFFFFF" filter="url(#f1)" points="238.25,15,238.25,15.5611,248.5167,15.1202,258.7833,14.3597,269.05,14.8754,279.3167,15.6744,289.5833,14.7315,299.85,14.7598,310.1167,15.2521,320.3833,14.7896,330.65,14.443,340.9167,14.972,351.1833,15.2887,361.45,15.3661,371.7167,15.3088,381.9833,15.2865,392.25,15,391.5946,15,392.3587,25.1839,392.5334,35.3679,391.8148,45.5518,392.4122,55.7358,392.568,65.9197,391.7557,76.1037,391.9395,86.2876,392.957,96.4716,391.5357,106.6555,392.3847,116.8395,392.25,127.0234,392.25,126.9934,381.9833,127.0388,371.7167,126.9115,361.45,126.8561,351.1833,127.2088,340.9167,127.296,330.65,126.7527,320.3833,126.9414,310.1167,126.771,299.85,127.4531,289.5833,127.7412,279.3167,127.6089,269.05,126.8714,258.7833,126.4843,248.5167,126.8407,238.25,127.0234,238.1745,127.0234,238.1637,116.8395,238.1066,106.6555,237.6483,96.4716,238.9965,86.2876,237.9829,76.1037,238.8959,65.9197,237.8814,55.7358,238.2226,45.5518,238.9789,35.3679,238.3922,25.1839,238.25,15" style="stroke: #FF8C00; stroke-width: 1.5;"/><polygon fill="#ADD1B2" points="296.354,32.8807,295.516,36.1201,294.7917,38.6712,291.4422,40.3823,289.4677,41.6278,287.3585,41.9997,284.4766,41.7907,281.4877,41.4014,280.0155,39.6359,277.2797,37.9251,275.8527,36.0649,275.3603,33.3044,274.9727,30.8922,275.9824,28.0705,276.4461,25.5488,277.8222,22.6763,280.7896,21.8776,282.1862,20.2098,284.2369,19.7623,287.5474,20.424,289.5566,20.7612,292.1326,22.2152,294.1368,24.4896,296.6663,26.4468,296.8053,28.6573,297.2989,31.9717" style="stroke: #FF8C00; stroke-width: 1.0;"/><path d="M288.9688,36.6406 Q288.3906,36.9375 287.75,37.0859 Q287.1094,37.2344 286.4063,37.2344 Q283.9063,37.2344 282.5859,35.5859 Q281.2656,33.9375 281.2656,30.8125 Q281.2656,27.6875 282.5859,26.0313 Q283.9063,24.375 286.4063,24.375 Q287.1094,24.375 287.7578,24.5313 Q288.4063,24.6875 288.9688,24.9844 L288.9688,27.7031 Q288.3438,27.125 287.75,26.8516 Q287.1563,26.5781 286.5313,26.5781 Q285.1875,26.5781 284.5,27.6484 Q283.8125,28.7188 283.8125,30.8125 Q283.8125,32.9063 284.5,33.9766 Q285.1875,35.0469 286.5313,35.0469 Q287.1563,35.0469 287.75,34.7734 Q288.3438,34.5 288.9688,33.9219 L288.9688,36.6406 Z "/><text fill="#000000" font-family="sans-serif" font-size="12" lengthAdjust="spacingAndGlyphs" textLength="50" x="306.5" y="35.1543">Dataset</text><path d="M239.25,47 L239.25,47.42 L249.3833,46.6201 L259.5167,47.8811 L269.65,46.7426 L279.7833,46.9303 L289.9167,46.4226 L300.05,47.6227 L310.1833,47.1136 L320.3167,46.1426 L330.45,47.5915 L340.5833,47.7992 L350.7167,46.8503 L360.85,47.9625 L370.9833,47.8172 L381.1167,47.5794 L391.25,47 " fill="#FFFFFF" style="stroke: #FF8C00; stroke-width: 1.5;"/><text fill="#000000" font-family="sans-serif" font-size="11" lengthAdjust="spacingAndGlyphs" textLength="127" x="244.25" y="61.2104">object_store_id: string</text><text fill="#000000" font-family="sans-serif" font-size="11" lengthAdjust="spacingAndGlyphs" textLength="142" x="244.25" y="74.0151">external_filename: string</text><text fill="#000000" font-family="sans-serif" font-size="11" lengthAdjust="spacingAndGlyphs" textLength="137" x="244.25" y="86.8198">_extra_files_path: string</text><text fill="#000000" font-family="sans-serif" font-size="11" lengthAdjust="spacingAndGlyphs" textLength="93" x="244.25" y="99.6245">file_size: integer</text><text fill="#000000" font-family="sans-serif" font-size="11" lengthAdjust="spacingAndGlyphs" textLength="101" x="244.25" y="112.4292">total_size: integer</text><path d="M239.25,119.0234 L239.25,119.9944 L249.3833,119.806 L259.5167,119.3531 L269.65,118.7362 L279.7833,118.9012 L289.9167,119.5662 L300.05,119.6452 L310.1833,119.7832 L320.3167,119.6299 L330.45,120.0107 L340.5833,119.6589 L350.7167,119.4253 L360.85,118.575 L370.9833,118.5231 L381.1167,119.9629 L391.25,119.0234 " fill="#FFFFFF" style="stroke: #FF8C00; stroke-width: 1.5;"/><path d="M202.744,71 L202.744,71.1452 L208.7318,71.1264 L214.7196,70.7351 L220.7074,71.0097 L226.6952,71.2793 L232.683,71 " fill="none" style="stroke: #FFA500; stroke-width: 1.0;"/><polygon fill="#FFA500" points="237.902,71,237.8683,70.9242,236.08,70.1504,234.3457,69.4983,232.5529,68.7145,230.7607,67.9321,228.902,67,228.8322,66.9302,229.6606,67.7586,230.4843,68.5823,231.2235,69.3215,232.1833,70.2813,232.902,71,232.7901,70.8881,232.1075,71.8055,231.2511,72.5491,230.5304,73.4284,229.767,74.265,228.902,75,228.8522,74.888,230.712,74.2225,232.5879,73.5932,234.3543,72.7178,236.1692,71.9513,237.902,71" style="stroke: #FFA500; stroke-width: 1.0;"/><text fill="#FFFFFF" font-family="sans-serif" font-size="13" lengthAdjust="spacingAndGlyphs" textLength="7" x="210.8517" y="66.4017">*</text><text fill="#FFFFFF" font-family="sans-serif" font-size="13" lengthAdjust="spacingAndGlyphs" textLength="8" x="222.3399" y="66.3939">1</text></g></svg>