<?xml version="1.0" encoding="UTF-8" standalone="yes"?><svg xmlns="http://www.w3.org/2000/svg" xmlns:xlink="http://www.w3.org/1999/xlink" height="143px" style="width:401px;height:143px;" version="1.1" viewBox="0 0 401 143" width="401px"><defs><filter height="300%" id="f1" width="300%" x="-1" y="-1"><feGaussianBlur result="blurOut" stdDeviation="2.0"/><feColorMatrix in="blurOut" result="blurOut2" type="matrix" values="0 0 0 0 0 0 0 0 0 0 0 0 0 0 0 0 0 0 .4 0"/><feOffset dx="4.0" dy="4.0" in="blurOut2" result="blurOut3"/><feBlend in="SourceGraphic" in2="blurOut3" mode="normal"/></filter></defs><g><polygon fill="#FFFFFF" filter="url(#f1)" points="6,8.5,6,8.2608,15.85,8.9105,25.7,8.1072,35.55,8.2849,45.4,8.0846,55.25,8.6047,65.1,8.4467,74.95,7.7689,84.8,7.7521,94.65,8.7958,104.5,8.779,114.35,9.1751,124.2,9.0922,134.05,8.0314,143.9,7.7861,153.75,9.1323,163.6,8.4287,173.45,8.0089,183.3,8.2845,193.15,8.7683,203,8.5,202.3277,8.5,202.4109,18.9023,202.2721,29.3047,202.3463,39.707,203.415,50.1094,203.5655,60.5117,202.9509,70.9141,202.4394,81.3164,202.3931,91.7188,202.5081,102.1211,202.2882,112.5234,203.3952,122.9258,203,133.3281,203,133.4603,193.15,132.9878,183.3,134.0742,173.45,133.449,163.6,133.5519,153.75,133.7008,143.9,133.2199,134.05,133.9572,124.2,133.49,114.35,133.3414,104.5,133.5258,94.65,133.1704,84.8,132.689,74.95,132.8939,65.1,132.7853,55.25,133.6781,45.4,133.3568,35.55,132.774,25.7,133.1965,15.85,132.9755,6,133.3281,5.4869,133.3281,5.8047,122.9258,6.4845,112.5234,5.362,102.1211,5.3725,91.7188,6.0906,81.3164,6.3904,70.9141,6.0947,60.5117,5.7588,50.1094,5.5112,39.707,6.1404,29.3047,5.2544,18.9023,6,8.5" style="stroke: #FF8C00; stroke-width: 1.5;"/><polygon fill="#ADD1B2" points="32.0928,28.0231,29.9118,30.6761,27.9798,32.5519,26.4731,33.7131,24.3439,35.0387,21.6446,35.4117,19.0757,35.172,16.9053,34.1603,13.6239,32.9121,11.7933,31.4063,11.0776,28.8528,9.8265,26.6208,10.6343,23.5859,10.5979,21.6714,12.5414,18.5642,14.9628,15.8599,17.3171,14.5474,20.8806,14.0644,23.4786,13.6982,25.5635,14.1447,27.8446,16.7025,30.33,19.0588,31.9768,22.2981,31.4942,25.1639" style="stroke: #FF8C00; stroke-width: 1.0;"/><path d="M23.9688,30.1406 Q23.3906,30.4375 22.75,30.5859 Q22.1094,30.7344 21.4063,30.7344 Q18.9063,30.7344 17.5859,29.0859 Q16.2656,27.4375 16.2656,24.3125 Q16.2656,21.1875 17.5859,19.5313 Q18.9063,17.875 21.4063,17.875 Q22.1094,17.875 22.7578,18.0313 Q23.4063,18.1875 23.9688,18.4844 L23.9688,21.2031 Q23.3438,20.625 22.75,20.3516 Q22.1563,20.0781 21.5313,20.0781 Q20.1875,20.0781 19.5,21.1484 Q18.8125,22.2188 18.8125,24.3125 Q18.8125,26.4063 19.5,27.4766 Q20.1875,28.5469 21.5313,28.5469 Q22.1563,28.5469 22.75,28.2734 Q23.3438,28 23.9688,27.4219 L23.9688,30.1406 Z "/><text fill="#000000" font-family="sans-serif" font-size="12" lengthAdjust="spacingAndGlyphs" textLength="165" x="35" y="28.6543">HistoryDatasetAssociation</text><path d="M7,40.5 L7,40.1339 L16.75,40.1248 L26.5,39.6816 L36.25,39.8548 L46,40.3159 L55.75,40.3244 L65.5,41.2678 L75.25,40.6331 L85,41.4992 L94.75,40.0973 L104.5,39.9436 L114.25,39.6295 L124,39.9864 L133.75,39.7065 L143.5,40.2369 L153.25,39.9943 L163,40.2995 L172.75,40.9913 L182.5,40.9357 L192.25,41.1877 L202,40.5 " fill="#FFFFFF" style="stroke: #FF8C00; stroke-width: 1.5;"/><text fill="#000000" font-family="sans-serif" font-size="11" lengthAdjust="spacingAndGlyphs" textLength="65" x="12" y="54.7104">hid: integer</text><text fill="#000000" font-family="sans-serif" font-size="11" lengthAdjust="spacingAndGlyphs" textLength="103" x="12" y="67.5151">history_id: integer</text><text fill="#000000" font-family="sans-serif" font-size="11" lengthAdjust="spacingAndGlyphs" textLength="107" x="12" y="80.3198">dataset_id: integer</text><text fill="#000000" font-family="sans-serif" font-size="11" lengthAdjust="spacingAndGlyphs" textLength="70" x="12" y="93.1245">state: string</text><text fill="#000000" font-family="sans-serif" font-size="11" lengthAdjust="spacingAndGlyphs" textLength="73" x="12" y="105.9292">name: string</text><text fill="#000000" font-family="sans-serif" font-size="11" lengthAdjust="spacingAndGlyphs" textLength="62" x="12" y="118.7339">info: string</text><path d="M7,125.3281 L7,125.8973 L16.75,124.7668 L26.5,124.798 L36.25,124.8785 L46,124.52 L55.75,124.7168 L65.5,124.3961 L75.25,125.2033 L85,125.8353 L94.75,124.4485 L104.5,125.641 L114.25,125.9134 L124,124.9868 L133.75,126.1603 L143.5,125.5516 L153.25,125.5702 L163,125.2328 L172.75,126.3199 L182.5,124.5148 L192.25,124.7343 L202,125.3281 " fill="#FFFFFF" style="stroke: #FF8C00; stroke-width: 1.5;"/><polygon fill="#FFFFFF" filter="url(#f1)" points="238.25,15,238.25,15.3219,248.5167,15.1339,258.7833,14.955,269.05,15.2753,279.3167,14.3841,289.5833,15.2781,299.85,14.533,310.1167,14.9508,320.3833,14.5607,330.65,14.7433,340.9167,14.4037,351.1833,14.5101,361.45,15.0117,371.7167,14.2942,381.9833,15.6883,392.25,15,392.1836,15,392.7095,25.1839,392.2775,35.3679,392.7726,45.5518,392.0428,55.7358,391.7578,65.9197,392.5227,76.1037,392.7365,86.2876,392.0577,96.4716,391.8392,106.6555,392.4654,116.8395,392.25,127.0234,392.25,127.2564,381.9833,127.4941,371.7167,126.2982,361.45,127.3121,351.1833,127.4303,340.9167,126.2782,330.65,127.043,320.3833,126.3893,310.1167,127.6254,299.85,126.5741,289.5833,127.0476,279.3167,127.1858,269.05,127.307,258.7833,126.7504,248.5167,126.7862,238.25,127.0234,238.2702,127.0234,238.5433,116.8395,237.8639,106.6555,237.6166,96.4716,237.6562,86.2876,238.5131,76.1037,238.4957,65.9197,238.2049,55.7358,238.2525,45.5518,238.7356,35.3679,238.1288,25.1839,238.25,15" style="stroke: #FF8C00; stroke-width: 1.5;"/><polygon fill="#ADD1B2" points="296.0532,33.4803,295.8388,35.6581,294.7182,38.1945,291.7517,39.8404,290.378,41.8016,288.414,42.4267,285.4264,41.5006,283.2588,41.8723,279.7898,40.4339,278.2276,39.1038,276.0084,37.0107,276.2698,34.6636,274.9975,31.8837,275.3104,29.712,276.4278,26.4844,278.3245,23.7528,281.0654,21.3933,284.0153,19.7855,287.5535,20.0503,289.6351,21.0485,291.8262,21.8142,294.459,24.1871,296.4101,25.8078,296.0882,28.3424,297.3614,31.2908" style="stroke: #FF8C00; stroke-width: 1.0;"/><path d="M288.9688,36.6406 Q288.3906,36.9375 287.75,37.0859 Q287.1094,37.2344 286.4063,37.2344 Q283.9063,37.2344 282.5859,35.5859 Q281.2656,33.9375 281.2656,30.8125 Q281.2656,27.6875 282.5859,26.0313 Q283.9063,24.375 286.4063,24.375 Q287.1094,24.375 287.7578,24.5313 Q288.4063,24.6875 288.9688,24.9844 L288.9688,27.7031 Q288.3438,27.125 287.75,26.8516 Q287.1563,26.5781 286.5313,26.5781 Q285.1875,26.5781 284.5,27.6484 Q283.8125,28.7188 283.8125,30.8125 Q283.8125,32.9063 284.5,33.9766 Q285.1875,35.0469 286.5313,35.0469 Q287.1563,35.0469 287.75,34.7734 Q288.3438,34.5 288.9688,33.9219 L288.9688,36.6406 Z "/><text fill="#000000" font-family="sans-serif" font-size="12" lengthAdjust="spacingAndGlyphs" textLength="50" x="306.5" y="35.1543">Dataset</text><path d="M239.25,47 L239.25,47.6016 L249.3833,47.2423 L259.5167,47.2997 L269.65,46.432 L279.7833,46.5613 L289.9167,46.7936 L300.05,47.2703 L310.1833,46.4238 L320.3167,47.8017 L330.45,47.4225 L340.5833,46.3436 L350.7167,47.5185 L360.85,46.6618 L370.9833,46.7808 L381.1167,46.0288 L391.25,47 " fill="#FFFFFF" style="stroke: #FF8C00; stroke-width: 1.5;"/><text fill="#000000" font-family="sans-serif" font-size="11" lengthAdjust="spacingAndGlyphs" textLength="127" x="244.25" y="61.2104">object_store_id: string</text><text fill="#000000" font-family="sans-serif" font-size="11" lengthAdjust="spacingAndGlyphs" textLength="142" x="244.25" y="74.0151">external_filename: string</text><text fill="#000000" font-family="sans-serif" font-size="11" lengthAdjust="spacingAndGlyphs" textLength="137" x="244.25" y="86.8198">_extra_files_path: string</text><text fill="#000000" font-family="sans-serif" font-size="11" lengthAdjust="spacingAndGlyphs" textLength="93" x="244.25" y="99.6245">file_size: integer</text><text fill="#000000" font-family="sans-serif" font-size="11" lengthAdjust="spacingAndGlyphs" textLength="101" x="244.25" y="112.4292">total_size: integer</text><path d="M239.25,119.0234 L239.25,118.7217 L249.3833,119.2424 L259.5167,118.224 L269.65,119.001 L279.7833,119.9099 L289.9167,118.7217 L300.05,119.9611 L310.1833,118.3188 L320.3167,119.413 L330.45,118.6497 L340.5833,118.923 L350.7167,118.1175 L360.85,119.5763 L370.9833,119.144 L381.1167,119.0842 L391.25,119.0234 " fill="#FFFFFF" style="stroke: #FF8C00; stroke-width: 1.5;"/><path d="M202.744,71 L202.744,70.8325 L208.7318,70.9255 L214.7196,70.9248 L220.7074,70.9815 L226.6952,71.3263 L232.683,71 " fill="none" style="stroke: #FFA500; stroke-width: 1.0;"/><polygon fill="#FFA500" points="237.902,71,237.9582,71.1264,236.1375,70.2799,234.2935,69.3809,232.5274,68.6572,230.6921,67.7778,228.902,67,229.0677,67.1657,229.8063,67.9043,230.6742,68.7722,231.3853,69.4833,232.1676,70.2656,232.902,71,232.9688,71.0668,231.9735,71.6715,231.2404,72.5384,230.415,73.313,229.5537,74.0517,228.902,75,228.9477,75.1027,230.7372,74.2792,232.5508,73.5098,234.3173,72.6343,236.0416,71.6641,237.902,71" style="stroke: #FFA500; stroke-width: 1.0;"/><text fill="#FFFFFF" font-family="sans-serif" font-size="13" lengthAdjust="spacingAndGlyphs" textLength="7" x="210.8517" y="66.4017">*</text><text fill="#FFFFFF" font-family="sans-serif" font-size="13" lengthAdjust="spacingAndGlyphs" textLength="8" x="222.3399" y="66.3939">1</text></g></svg>