<?xml version="1.0" encoding="UTF-8" standalone="yes"?><svg xmlns="http://www.w3.org/2000/svg" xmlns:xlink="http://www.w3.org/1999/xlink" height="455px" style="width:502px;height:455px;" version="1.1" viewBox="0 0 502 455" width="502px"><defs><filter height="300%" id="f1" width="300%" x="-1" y="-1"><feGaussianBlur result="blurOut" stdDeviation="2.0"/><feColorMatrix in="blurOut" result="blurOut2" type="matrix" values="0 0 0 0 0 0 0 0 0 0 0 0 0 0 0 0 0 0 .4 0"/><feOffset dx="4.0" dy="4.0" in="blurOut2" result="blurOut3"/><feBlend in="SourceGraphic" in2="blurOut3" mode="normal"/></filter></defs><g><polygon fill="#FFFFFF" filter="url(#f1)" points="195.75,8,195.75,8.3463,205.125,8.1765,214.5,7.4974,223.875,7.2845,233.25,8.6436,242.625,8.4008,252,7.516,261.375,8.3302,270.75,8,270.2466,8,270.891,17.6,271.0893,27.2,270.484,36.8,270.1387,46.4,270.75,56,270.75,55.6397,261.375,56.562,252,56.7333,242.625,55.4359,233.25,56.0176,223.875,56.3669,214.5,55.2775,205.125,55.5786,195.75,56,195.5982,56,196.3914,46.4,195.7601,36.8,196.3028,27.2,195.4941,17.6,195.75,8" style="stroke: #FF8C00; stroke-width: 1.5;"/><polygon fill="#ADD1B2" points="221.0037,26.2426,220.6446,29.042,219.0354,31.7737,215.9039,32.9932,214.0108,34.5765,211.2596,34.406,208.4003,34.4568,205.0234,33.9691,203.4661,32.3626,201.5082,30.0566,199.5449,27.1887,199.8815,24.1107,199.8324,20.154,201.757,18.2172,203.4263,16.2188,205.285,13.8676,209.0848,12.8134,211.2709,12.3902,214.6684,14.3994,217.7226,16.0598,220.2443,17.2132,221.7794,20.5453,221.7951,23.3528,221.5154,26.59" style="stroke: #FF8C00; stroke-width: 1.0;"/><path d="M213.7188,29.6406 Q213.1406,29.9375 212.5,30.0859 Q211.8594,30.2344 211.1563,30.2344 Q208.6563,30.2344 207.3359,28.5859 Q206.0156,26.9375 206.0156,23.8125 Q206.0156,20.6875 207.3359,19.0313 Q208.6563,17.375 211.1563,17.375 Q211.8594,17.375 212.5078,17.5313 Q213.1563,17.6875 213.7188,17.9844 L213.7188,20.7031 Q213.0938,20.125 212.5,19.8516 Q211.9063,19.5781 211.2813,19.5781 Q209.9375,19.5781 209.25,20.6484 Q208.5625,21.7188 208.5625,23.8125 Q208.5625,25.9063 209.25,26.9766 Q209.9375,28.0469 211.2813,28.0469 Q211.9063,28.0469 212.5,27.7734 Q213.0938,27.5 213.7188,26.9219 L213.7188,29.6406 Z "/><text fill="#000000" font-family="sans-serif" font-size="12" lengthAdjust="spacingAndGlyphs" textLength="43" x="224.75" y="28.1543">History</text><path d="M196.75,40 L196.75,40.9202 L207.1786,39.2324 L217.6071,40.6758 L228.0357,40.9843 L238.4643,40.6404 L248.8929,39.7119 L259.3214,39.579 L269.75,40 " fill="#FFFFFF" style="stroke: #FF8C00; stroke-width: 1.5;"/><path d="M196.75,48 L196.75,48.9046 L207.1786,47.3453 L217.6071,48.2531 L228.0357,47.2013 L238.4643,47.3473 L248.8929,48.765 L259.3214,48.4917 L269.75,48 " fill="#FFFFFF" style="stroke: #FF8C00; stroke-width: 1.5;"/><polygon fill="#FFFFFF" filter="url(#f1)" points="31.75,116,31.75,116.677,41.6,115.7955,51.45,115.4885,61.3,115.4281,71.15,116.6073,81,116.4537,90.85,115.4593,100.7,115.9804,110.55,116.0262,120.4,116.188,130.25,115.296,140.1,116.6299,149.95,116.252,159.8,115.9466,169.65,115.6277,179.5,116.3692,189.35,115.2839,199.2,115.6608,209.05,115.424,218.9,116.6857,228.75,116,229.2172,116,228.8084,126.5156,229.1434,137.0313,228.4355,147.5469,229.4193,158.0625,229.1872,168.5781,228.5022,179.0938,228.75,189.6094,228.75,189.9338,218.9,189.5465,209.05,189.4896,199.2,190.0137,189.35,189.4833,179.5,190.0244,169.65,189.1193,159.8,188.8845,149.95,189.675,140.1,189.6182,130.25,189.6147,120.4,188.983,110.55,189.0348,100.7,188.9832,90.85,188.8622,81,190.2479,71.15,189.2646,61.3,188.901,51.45,189.7721,41.6,190.347,31.75,189.6094,32.2709,189.6094,31.6233,179.0938,31.107,168.5781,31.0017,158.0625,32.3306,147.5469,32.0451,137.0313,31.3792,126.5156,31.75,116" style="stroke: #FF8C00; stroke-width: 1.5;"/><polygon fill="#ADD1B2" points="56.7569,134.5933,56.1073,138.1546,53.2257,140.4509,51.0243,141.4631,49.3112,142.226,47.2553,142.4975,44.6397,142.6734,41.4019,141.7149,39.6131,139.768,37.6508,137.8151,35.5872,134.6933,35.7866,132.4127,35.5881,129.622,36.4248,126.858,38.0133,125.2445,39.9654,124.142,41.2805,122.1453,44.3641,120.8741,47.6042,121.6915,50.3351,121.5367,52.8444,122.6811,54.9269,124.385,55.9191,126.8346,56.7017,128.9757,57.6866,132.1508" style="stroke: #FF8C00; stroke-width: 1.0;"/><path d="M49.7188,137.6406 Q49.1406,137.9375 48.5,138.0859 Q47.8594,138.2344 47.1563,138.2344 Q44.6563,138.2344 43.3359,136.5859 Q42.0156,134.9375 42.0156,131.8125 Q42.0156,128.6875 43.3359,127.0313 Q44.6563,125.375 47.1563,125.375 Q47.8594,125.375 48.5078,125.5313 Q49.1563,125.6875 49.7188,125.9844 L49.7188,128.7031 Q49.0938,128.125 48.5,127.8516 Q47.9063,127.5781 47.2813,127.5781 Q45.9375,127.5781 45.25,128.6484 Q44.5625,129.7188 44.5625,131.8125 Q44.5625,133.9063 45.25,134.9766 Q45.9375,136.0469 47.2813,136.0469 Q47.9063,136.0469 48.5,135.7734 Q49.0938,135.5 49.7188,134.9219 L49.7188,137.6406 Z "/><text fill="#000000" font-family="sans-serif" font-size="12" lengthAdjust="spacingAndGlyphs" textLength="165" x="60.75" y="136.1543">HistoryDatasetAssociation</text><path d="M32.75,148 L32.75,148.2953 L42.5,147.0735 L52.25,147.0499 L62,147.9686 L71.75,148.1384 L81.5,147.7824 L91.25,147.0015 L101,148.752 L110.75,147.2651 L120.5,147.7064 L130.25,147.9453 L140,148.873 L149.75,148.1134 L159.5,147.1542 L169.25,147.2652 L179,147.9684 L188.75,147.1598 L198.5,147.7643 L208.25,148.638 L218,148.3153 L227.75,148 " fill="#FFFFFF" style="stroke: #FF8C00; stroke-width: 1.5;"/><text fill="#000000" font-family="sans-serif" font-size="11" lengthAdjust="spacingAndGlyphs" textLength="183" x="37.75" y="162.2104">history_content_type = 'dataset'</text><text fill="#000000" font-family="sans-serif" font-size="11" lengthAdjust="spacingAndGlyphs" textLength="17" x="37.75" y="175.0151">hid</text><path d="M32.75,181.6094 L32.75,181.4226 L42.5,180.6214 L52.25,181.3877 L62,181.9297 L71.75,182.2835 L81.5,181.7889 L91.25,182.1662 L101,182.398 L110.75,180.8467 L120.5,182.0891 L130.25,180.8884 L140,180.9098 L149.75,180.6864 L159.5,182.3279 L169.25,182.3186 L179,181.9179 L188.75,181.3054 L198.5,180.87 L208.25,181.0279 L218,182.1545 L227.75,181.6094 " fill="#FFFFFF" style="stroke: #FF8C00; stroke-width: 1.5;"/><polygon fill="#FFFFFF" filter="url(#f1)" points="235,250,235,250.4183,244.9231,249.3499,254.8462,250.1588,264.7692,250.7422,274.6923,250.2557,284.6154,249.8917,294.5385,249.8142,304.4615,249.9973,314.3846,249.3731,324.3077,249.2723,334.2308,250.0454,344.1538,249.4154,354.0769,249.5686,364,250.6401,373.9231,249.4717,383.8462,250.5283,393.7692,249.9875,403.6923,249.6551,413.6154,250.1237,423.5385,249.9228,433.4615,250.5169,443.3846,249.348,453.3077,249.5618,463.2308,249.6118,473.1538,249.784,483.0769,249.5371,493,250,492.3755,250,493.5067,260.5156,493.5846,271.0313,493.2209,281.5469,493.2517,292.0625,493.0928,302.5781,492.449,313.0938,493,323.6094,493,323.1583,483.0769,323.6644,473.1538,323.3902,463.2308,322.9231,453.3077,323.7652,443.3846,322.8754,433.4615,323.1546,423.5385,324.0388,413.6154,322.9696,403.6923,323.7702,393.7692,323.4714,383.8462,324.286,373.9231,323.5557,364,323.4043,354.0769,323.238,344.1538,323.0154,334.2308,324.0971,324.3077,323.286,314.3846,323.289,304.4615,323.85,294.5385,323.5373,284.6154,323.5862,274.6923,323.8265,264.7692,323.614,254.8462,323.5109,244.9231,324.3306,235,323.6094,234.4321,323.6094,235.547,313.0938,235.5631,302.5781,235.1584,292.0625,234.8332,281.5469,235.2314,271.0313,234.9973,260.5156,235,250" style="stroke: #FF8C00; stroke-width: 1.5;"/><polygon fill="#ADD1B2" points="261.008,269.8245,259.5948,272.1019,256.9723,275.0415,255.0439,275.651,251.7917,276.3451,248.6058,277.3503,246.6483,276.8544,245.1063,275.3794,242.6281,273.3812,239.8956,270.8428,239.4408,268.0602,239.7067,265.2807,239.2523,262.8404,241.0413,259.7328,243.4812,256.8326,246.6736,255.3414,249.5686,254.8168,252.1127,255.7931,254.8193,256.132,257.6055,258.4114,260.1708,261.015,261.3647,264.086,261.5205,266.517" style="stroke: #FF8C00; stroke-width: 1.0;"/><path d="M252.9688,271.6406 Q252.3906,271.9375 251.75,272.0859 Q251.1094,272.2344 250.4063,272.2344 Q247.9063,272.2344 246.5859,270.5859 Q245.2656,268.9375 245.2656,265.8125 Q245.2656,262.6875 246.5859,261.0313 Q247.9063,259.375 250.4063,259.375 Q251.1094,259.375 251.7578,259.5313 Q252.4063,259.6875 252.9688,259.9844 L252.9688,262.7031 Q252.3438,262.125 251.75,261.8516 Q251.1563,261.5781 250.5313,261.5781 Q249.1875,261.5781 248.5,262.6484 Q247.8125,263.7188 247.8125,265.8125 Q247.8125,267.9063 248.5,268.9766 Q249.1875,270.0469 250.5313,270.0469 Q251.1563,270.0469 251.75,269.7734 Q252.3438,269.5 252.9688,268.9219 L252.9688,271.6406 Z "/><text fill="#000000" font-family="sans-serif" font-size="12" lengthAdjust="spacingAndGlyphs" textLength="226" x="264" y="270.1543">HistoryDatasetCollectionAssociation</text><path d="M236,282 L236,281.0996 L245.8462,281.2983 L255.6923,281.5266 L265.5385,282.9561 L275.3846,282.1388 L285.2308,281.9272 L295.0769,282.1277 L304.9231,281.2975 L314.7692,281.186 L324.6154,282.4441 L334.4615,282.0264 L344.3077,282.4912 L354.1538,282.51 L364,282.4555 L373.8462,282.081 L383.6923,282.0752 L393.5385,281.5912 L403.3846,282.0979 L413.2308,281.0388 L423.0769,282.6986 L432.9231,282.2654 L442.7692,282.9679 L452.6154,282.1092 L462.4615,282.8994 L472.3077,281.1251 L482.1538,281.9584 L492,282 " fill="#FFFFFF" style="stroke: #FF8C00; stroke-width: 1.5;"/><text fill="#000000" font-family="sans-serif" font-size="11" lengthAdjust="spacingAndGlyphs" textLength="242" x="241" y="296.2104">history_content_type = 'dataset_collection'</text><text fill="#000000" font-family="sans-serif" font-size="11" lengthAdjust="spacingAndGlyphs" textLength="17" x="241" y="309.0151">hid</text><path d="M236,315.6094 L236,316.3978 L245.8462,316.2794 L255.6923,316.1192 L265.5385,315.9615 L275.3846,315.6482 L285.2308,315.9706 L295.0769,316.1118 L304.9231,314.9527 L314.7692,315.4593 L324.6154,315.4939 L334.4615,316.2288 L344.3077,316.2701 L354.1538,314.9343 L364,314.8853 L373.8462,314.9498 L383.6923,314.7723 L393.5385,316.3493 L403.3846,315.0774 L413.2308,315.8812 L423.0769,314.7642 L432.9231,316.1219 L442.7692,315.2034 L452.6154,315.1799 L462.4615,315.352 L472.3077,315.3024 L482.1538,315.9179 L492,315.6094 " fill="#FFFFFF" style="stroke: #FF8C00; stroke-width: 1.5;"/><polygon fill="#FFFFFF" filter="url(#f1)" points="31.75,384.5,31.75,384.7072,41.9643,385.1022,52.1786,384.8444,62.3929,384.0952,72.6071,384.0587,82.8214,384.5611,93.0357,383.86,103.25,385.2407,113.4643,383.8266,123.6786,384.1781,133.8929,384.9407,144.1071,384.6003,154.3214,384.1659,164.5357,384.2246,174.75,384.5,175.4683,384.5,174.7429,394.6341,174.3789,404.7682,175.0042,414.9023,175.4603,425.0365,174.7332,435.1706,174.75,445.3047,174.75,445.8324,164.5357,444.6993,154.3214,445.2105,144.1071,445.4203,133.8929,444.6664,123.6786,445.8923,113.4643,445.5685,103.25,445.4777,93.0357,444.65,82.8214,446.0415,72.6071,445.5197,62.3929,445.9159,52.1786,445.7694,41.9643,445.3468,31.75,445.3047,32.0304,445.3047,32.329,435.1706,32.0219,425.0365,31.3818,414.9023,32.3344,404.7682,32.2131,394.6341,31.75,384.5" style="stroke: #FF8C00; stroke-width: 1.5;"/><polygon fill="#ADD1B2" points="56.9108,403.4772,56.6166,405.9735,54.974,407.4969,53.6245,409.5719,51.1019,409.9011,49.6777,411.704,46.4473,412.1479,44.4153,411.6527,42.7588,410.201,40.4868,409.1642,38.1351,407.9795,37.1337,405.0877,35.3525,402.6672,36.3092,399.8517,36.6649,397.5769,36.6948,395.2128,39.4018,392.5895,41.6109,390.1622,44.0525,389.2601,47.2322,388.8495,49.1793,390.2092,51.5933,391.1235,53.4926,392.3349,55.5293,394.7424,56.8904,396.7936,58.0621,400.1693,58.0993,402.8565" style="stroke: #FF8C00; stroke-width: 1.0;"/><path d="M49.7188,406.1406 Q49.1406,406.4375 48.5,406.5859 Q47.8594,406.7344 47.1563,406.7344 Q44.6563,406.7344 43.3359,405.0859 Q42.0156,403.4375 42.0156,400.3125 Q42.0156,397.1875 43.3359,395.5313 Q44.6563,393.875 47.1563,393.875 Q47.8594,393.875 48.5078,394.0313 Q49.1563,394.1875 49.7188,394.4844 L49.7188,397.2031 Q49.0938,396.625 48.5,396.3516 Q47.9063,396.0781 47.2813,396.0781 Q45.9375,396.0781 45.25,397.1484 Q44.5625,398.2188 44.5625,400.3125 Q44.5625,402.4063 45.25,403.4766 Q45.9375,404.5469 47.2813,404.5469 Q47.9063,404.5469 48.5,404.2734 Q49.0938,404 49.7188,403.4219 L49.7188,406.1406 Z "/><text fill="#000000" font-family="sans-serif" font-size="12" lengthAdjust="spacingAndGlyphs" textLength="111" x="60.75" y="404.6543">DatasetCollection</text><path d="M32.75,416.5 L32.75,416.1088 L42.8214,415.7595 L52.8929,415.5383 L62.9643,417.0183 L73.0357,416.5323 L83.1071,415.604 L93.1786,416.9543 L103.25,416.0553 L113.3214,417.4942 L123.3929,415.7124 L133.4643,415.6427 L143.5357,416.9711 L153.6071,416.9634 L163.6786,416.5601 L173.75,416.5 " fill="#FFFFFF" style="stroke: #FF8C00; stroke-width: 1.5;"/><text fill="#000000" font-family="sans-serif" font-size="11" lengthAdjust="spacingAndGlyphs" textLength="83" x="37.75" y="430.7104">collection_type</text><path d="M32.75,437.3047 L32.75,437.6232 L42.8214,437.1971 L52.8929,437.1781 L62.9643,437.8353 L73.0357,438.1816 L83.1071,437.2792 L93.1786,437.2971 L103.25,437.2069 L113.3214,436.6149 L123.3929,436.6958 L133.4643,438.2009 L143.5357,438.0882 L153.6071,438.2881 L163.6786,436.4335 L173.75,437.3047 " fill="#FFFFFF" style="stroke: #FF8C00; stroke-width: 1.5;"/><polygon fill="#FFFFFF" filter="url(#f1)" points="6.5,250,6.5,249.7512,16.7105,249.6313,26.9211,249.3113,37.1316,249.695,47.3421,249.3471,57.5526,249.7474,67.7632,250.4258,77.9737,249.8401,88.1842,250.5732,98.3947,249.4512,108.6053,250.5179,118.8158,250.1973,129.0263,249.2973,139.2368,250.5043,149.4474,250.7444,159.6579,249.3956,169.8684,250.5561,180.0789,250.3341,190.2895,250.2514,200.5,250,199.9036,250,201.0425,260.5156,200.8481,271.0313,200.6829,281.5469,200.2236,292.0625,200.0443,302.5781,201.2397,313.0938,200.5,323.6094,200.5,324.229,190.2895,324.0319,180.0789,323.9214,169.8684,323.4572,159.6579,323.3599,149.4474,323.1552,139.2368,323.189,129.0263,323.9728,118.8158,323.188,108.6053,323.3796,98.3947,322.9519,88.1842,323.2818,77.9737,323.9651,67.7632,323.5705,57.5526,323.1309,47.3421,323.9953,37.1316,323.8294,26.9211,323.7473,16.7105,322.9182,6.5,323.6094,7.1393,323.6094,7.1855,313.0938,6.1944,302.5781,6.2923,292.0625,6.5311,281.5469,7.1924,271.0313,6.5905,260.5156,6.5,250" style="stroke: #FF8C00; stroke-width: 1.5;"/><polygon fill="#ADD1B2" points="32.5743,268.4148,31.82,270.7552,30.2733,273.5936,27.7253,274.9188,25.7148,276.7746,22.0503,277.4888,19.6846,277.1222,16.8693,276.2584,15.2733,274.93,12.3215,272.7634,10.8862,270.8063,10.4735,267.4088,10.3087,263.6323,12.0744,260.54,13.1461,258.3773,14.9289,257.4626,17.0497,255.4257,20.0255,254.6139,23.7794,255.7333,26.6389,256.3558,29.176,258.8204,30.9387,260.3619,32.308,262.3994,32.4295,265.526,32.3944,268.8643" style="stroke: #FF8C00; stroke-width: 1.0;"/><path d="M24.4688,271.6406 Q23.8906,271.9375 23.25,272.0859 Q22.6094,272.2344 21.9063,272.2344 Q19.4063,272.2344 18.0859,270.5859 Q16.7656,268.9375 16.7656,265.8125 Q16.7656,262.6875 18.0859,261.0313 Q19.4063,259.375 21.9063,259.375 Q22.6094,259.375 23.2578,259.5313 Q23.9063,259.6875 24.4688,259.9844 L24.4688,262.7031 Q23.8438,262.125 23.25,261.8516 Q22.6563,261.5781 22.0313,261.5781 Q20.6875,261.5781 20,262.6484 Q19.3125,263.7188 19.3125,265.8125 Q19.3125,267.9063 20,268.9766 Q20.6875,270.0469 22.0313,270.0469 Q22.6563,270.0469 23.25,269.7734 Q23.8438,269.5 24.4688,268.9219 L24.4688,271.6406 Z "/><text fill="#000000" font-family="sans-serif" font-size="12" lengthAdjust="spacingAndGlyphs" textLength="162" x="35.5" y="270.1543">DatasetCollectionElement</text><path d="M7.5,282 L7.5,281.3857 L17.6053,281.4284 L27.7105,281.8864 L37.8158,282.8363 L47.9211,282.1021 L58.0263,282.513 L68.1316,281.934 L78.2368,282.3789 L88.3421,281.7539 L98.4474,282.5387 L108.5526,282.5661 L118.6579,281.8461 L128.7632,281.2854 L138.8684,282.2043 L148.9737,282.5103 L159.0789,282.7906 L169.1842,281.3699 L179.2895,281.0182 L189.3947,281.1959 L199.5,282 " fill="#FFFFFF" style="stroke: #FF8C00; stroke-width: 1.5;"/><text fill="#000000" font-family="sans-serif" font-size="11" lengthAdjust="spacingAndGlyphs" textLength="82" x="12.5" y="296.2104">element_index</text><text fill="#000000" font-family="sans-serif" font-size="11" lengthAdjust="spacingAndGlyphs" textLength="102" x="12.5" y="309.0151">element_identifier</text><path d="M7.5,315.6094 L7.5,316.4201 L17.6053,316.5117 L27.7105,315.9791 L37.8158,315.4379 L47.9211,314.9468 L58.0263,315.1832 L68.1316,316.1002 L78.2368,314.6187 L88.3421,315.4166 L98.4474,316.1403 L108.5526,316.6087 L118.6579,316.5001 L128.7632,315.6929 L138.8684,315.7533 L148.9737,316.5824 L159.0789,315.3303 L169.1842,315.4437 L179.2895,315.7242 L189.3947,315.0575 L199.5,315.6094 " fill="#FFFFFF" style="stroke: #FF8C00; stroke-width: 1.5;"/><path d="M212.896,56.227 L213.4149,56.6761 L206.546,63.7374 L200.4444,71.4628 L194.2401,79.0994 L186.5452,85.4458 L181.1835,93.8116 L173.7145,100.3534 L168.063,108.4685 L161.407,115.714 " fill="none" style="stroke: #FFA500; stroke-width: 1.0;"/><text fill="#FFFFFF" font-family="sans-serif" font-size="13" lengthAdjust="spacingAndGlyphs" textLength="8" x="197.716" y="76.0435">1</text><text fill="#FFFFFF" font-family="sans-serif" font-size="13" lengthAdjust="spacingAndGlyphs" textLength="7" x="157.4889" y="104.81">*</text><path d="M245.089,56.348 L244.3794,55.9806 L249.6473,65.1446 L254.2769,73.9782 L259.0224,82.8717 L263.0274,91.3818 L268.0724,100.4305 L272.941,109.3878 L276.106,117.4629 L281.0131,126.4402 L285.4374,135.1674 L291.2316,144.604 L294.5393,152.753 L300.5143,162.2832 L303.664,170.3505 L308.847,179.4706 L313.191,188.1562 L317.4422,196.7938 L322.8086,206.0089 L326.9837,214.6071 L330.9108,223.0769 L335.7696,232.0291 L340.5372,240.9341 L345.266,249.819 " fill="none" style="stroke: #FFA500; stroke-width: 1.0;"/><text fill="#FFFFFF" font-family="sans-serif" font-size="13" lengthAdjust="spacingAndGlyphs" textLength="8" x="237.756" y="76.194">1</text><text fill="#FFFFFF" font-family="sans-serif" font-size="13" lengthAdjust="spacingAndGlyphs" textLength="7" x="333.7083" y="238.9311">*</text><path d="M289.208,324.107 L289.0427,323.7645 L280.4425,328.7609 L271.741,333.5474 L262.313,336.829 L253.0867,340.5285 L244.7803,346.1334 L235.2529,349.2091 L226.92,354.7592 L217.5181,358.0948 L208.9602,363.1787 L200.0648,367.5636 L190.7414,371.062 L182.3051,376.3979 L173.0215,379.9785 L164.176,384.4667 " fill="none" style="stroke: #FFA500; stroke-width: 1.0;"/><text fill="#FFFFFF" font-family="sans-serif" font-size="13" lengthAdjust="spacingAndGlyphs" textLength="8" x="266.9925" y="343.6053">1</text><text fill="#FFFFFF" font-family="sans-serif" font-size="13" lengthAdjust="spacingAndGlyphs" textLength="8" x="165.4874" y="373.3671">1</text><path d="M114.665,384.2607 L114.6278,384.2574 L114.9311,381.3982 L115.4048,378.5542 L115.2834,375.6571 L115.8421,372.8207 L115.942,369.9434 L115.8859,369.9414 L116.365,366.8807 L116.2163,363.7981 L116.2496,360.7218 L116.397,357.6495 L116.4805,354.575 L116.2979,354.5727 L116.1217,351.4581 L116.4917,348.3506 L116.3214,345.2362 L116.3379,342.1241 L116.2802,339.0111 L116.0928,338.9993 L115.8458,336.0147 L115.7564,333.0401 L116.0001,330.0865 L115.427,327.0814 L115.341,324.107 " fill="none" style="stroke: #FFA500; stroke-width: 1.0;"/><text fill="#FFFFFF" font-family="sans-serif" font-size="13" lengthAdjust="spacingAndGlyphs" textLength="8" x="106.8078" y="373.3673">1</text><text fill="#FFFFFF" font-family="sans-serif" font-size="13" lengthAdjust="spacingAndGlyphs" textLength="24" x="90.1494" y="343.6053">0..1</text><path d="M91.3443,324.107 L91.1521,324.0956 L91.1588,327.0873 L91.204,330.0814 L90.9715,333.0589 L90.3791,336.015 L90.4574,339.0111 L90.7333,339.0144 L90.2086,342.1213 L90.2457,345.235 L90.2672,348.3485 L89.981,351.4583 L90.2683,354.575 L90.0652,354.5683 L90.2955,357.6462 L90.2499,360.715 L90.3957,363.7901 L90.8216,366.8745 L90.7768,369.9434 L90.6599,369.9335 L91.1188,372.8153 L91.419,375.6838 L91.5274,378.536 L91.4963,381.3766 L91.9829,384.2607 " fill="none" style="stroke: #FFA500; stroke-width: 1.0;"/><text fill="#FFFFFF" font-family="sans-serif" font-size="13" lengthAdjust="spacingAndGlyphs" textLength="7" x="80.5857" y="343.6053">*</text><text fill="#FFFFFF" font-family="sans-serif" font-size="13" lengthAdjust="spacingAndGlyphs" textLength="8" x="80.0853" y="373.3673">1</text><path d="M122.622,190.07 L123.2106,190.1904 L120.8525,200.1098 L118.5724,210.0451 L116.3985,220.0022 L114.708,230.0581 L112.8352,240.0767 L110.369,249.974 " fill="none" style="stroke: #FFA500; stroke-width: 1.0;"/><text fill="#FFFFFF" font-family="sans-serif" font-size="13" lengthAdjust="spacingAndGlyphs" textLength="8" x="111.5305" y="209.5621">1</text><text fill="#FFFFFF" font-family="sans-serif" font-size="13" lengthAdjust="spacingAndGlyphs" textLength="24" x="84.3918" y="238.8269">0..1</text></g></svg>