<?xml version="1.0" encoding="UTF-8" standalone="yes"?><svg xmlns="http://www.w3.org/2000/svg" xmlns:xlink="http://www.w3.org/1999/xlink" height="142px" style="width:401px;height:142px;" version="1.1" viewBox="0 0 401 142" width="401px"><defs><filter height="300%" id="f1" width="300%" x="-1" y="-1"><feGaussianBlur result="blurOut" stdDeviation="2.0"/><feColorMatrix in="blurOut" result="blurOut2" type="matrix" values="0 0 0 0 0 0 0 0 0 0 0 0 0 0 0 0 0 0 .4 0"/><feOffset dx="4.0" dy="4.0" in="blurOut2" result="blurOut3"/><feBlend in="SourceGraphic" in2="blurOut3" mode="normal"/></filter></defs><g><rect fill="#FEFECE" filter="url(#f1)" height="124.8281" style="stroke: #A80036; stroke-width: 1.5;" width="197" x="6" y="8.5"/><ellipse cx="21" cy="24.5" fill="#ADD1B2" rx="11" ry="11" style="stroke: #A80036; stroke-width: 1.0;"/><path d="M23.9688,30.1406 Q23.3906,30.4375 22.75,30.5859 Q22.1094,30.7344 21.4063,30.7344 Q18.9063,30.7344 17.5859,29.0859 Q16.2656,27.4375 16.2656,24.3125 Q16.2656,21.1875 17.5859,19.5313 Q18.9063,17.875 21.4063,17.875 Q22.1094,17.875 22.7578,18.0313 Q23.4063,18.1875 23.9688,18.4844 L23.9688,21.2031 Q23.3438,20.625 22.75,20.3516 Q22.1563,20.0781 21.5313,20.0781 Q20.1875,20.0781 19.5,21.1484 Q18.8125,22.2188 18.8125,24.3125 Q18.8125,26.4063 19.5,27.4766 Q20.1875,28.5469 21.5313,28.5469 Q22.1563,28.5469 22.75,28.2734 Q23.3438,28 23.9688,27.4219 L23.9688,30.1406 Z "/><text fill="#000000" font-family="sans-serif" font-size="12" lengthAdjust="spacingAndGlyphs" textLength="165" x="35" y="28.6543">HistoryDatasetAssociation</text><line style="stroke: #A80036; stroke-width: 1.5;" x1="7" x2="202" y1="40.5" y2="40.5"/><text fill="#000000" font-family="sans-serif" font-size="11" lengthAdjust="spacingAndGlyphs" textLength="65" x="12" y="54.7104">hid: integer</text><text fill="#000000" font-family="sans-serif" font-size="11" lengthAdjust="spacingAndGlyphs" textLength="103" x="12" y="67.5151">history_id: integer</text><text fill="#000000" font-family="sans-serif" font-size="11" lengthAdjust="spacingAndGlyphs" textLength="107" x="12" y="80.3198">dataset_id: integer</text><text fill="#000000" font-family="sans-serif" font-size="11" lengthAdjust="spacingAndGlyphs" textLength="70" x="12" y="93.1245">state: string</text><text fill="#000000" font-family="sans-serif" font-size="11" lengthAdjust="spacingAndGlyphs" textLength="73" x="12" y="105.9292">name: string</text><text fill="#000000" font-family="sans-serif" font-size="11" lengthAdjust="spacingAndGlyphs" textLength="62" x="12" y="118.7339">info; string</text><line style="stroke: #A80036; stroke-width: 1.5;" x1="7" x2="202" y1="125.3281" y2="125.3281"/><rect fill="#FEFECE" filter="url(#f1)" height="112.0234" style="stroke: #A80036; stroke-width: 1.5;" width="154" x="238.25" y="15"/><ellipse cx="286" cy="31" fill="#ADD1B2" rx="11" ry="11" style="stroke: #A80036; stroke-width: 1.0;"/><path d="M288.9688,36.6406 Q288.3906,36.9375 287.75,37.0859 Q287.1094,37.2344 286.4063,37.2344 Q283.9063,37.2344 282.5859,35.5859 Q281.2656,33.9375 281.2656,30.8125 Q281.2656,27.6875 282.5859,26.0313 Q283.9063,24.375 286.4063,24.375 Q287.1094,24.375 287.7578,24.5313 Q288.4063,24.6875 288.9688,24.9844 L288.9688,27.7031 Q288.3438,27.125 287.75,26.8516 Q287.1563,26.5781 286.5313,26.5781 Q285.1875,26.5781 284.5,27.6484 Q283.8125,28.7188 283.8125,30.8125 Q283.8125,32.9063 284.5,33.9766 Q285.1875,35.0469 286.5313,35.0469 Q287.1563,35.0469 287.75,34.7734 Q288.3438,34.5 288.9688,33.9219 L288.9688,36.6406 Z "/><text fill="#000000" font-family="sans-serif" font-size="12" lengthAdjust="spacingAndGlyphs" textLength="50" x="306.5" y="35.1543">Dataset</text><line style="stroke: #A80036; stroke-width: 1.5;" x1="239.25" x2="391.25" y1="47" y2="47"/><text fill="#000000" font-family="sans-serif" font-size="11" lengthAdjust="spacingAndGlyphs" textLength="127" x="244.25" y="61.2104">object_store_id: string</text><text fill="#000000" font-family="sans-serif" font-size="11" lengthAdjust="spacingAndGlyphs" textLength="142" x="244.25" y="74.0151">external_filename: string</text><text fill="#000000" font-family="sans-serif" font-size="11" lengthAdjust="spacingAndGlyphs" textLength="137" x="244.25" y="86.8198">_extra_files_path: string</text><text fill="#000000" font-family="sans-serif" font-size="11" lengthAdjust="spacingAndGlyphs" textLength="93" x="244.25" y="99.6245">file_size: integer</text><text fill="#000000" font-family="sans-serif" font-size="11" lengthAdjust="spacingAndGlyphs" textLength="101" x="244.25" y="112.4292">total_size: integer</text><line style="stroke: #A80036; stroke-width: 1.5;" x1="239.25" x2="391.25" y1="119.0234" y2="119.0234"/><path d="M202.744,71 C212.724,71 222.704,71 232.683,71 " fill="none" style="stroke: #A80036; stroke-width: 1.0;"/><polygon fill="#A80036" points="237.902,71,228.902,67,232.902,71,228.902,75,237.902,71" style="stroke: #A80036; stroke-width: 1.0;"/><text fill="#000000" font-family="sans-serif" font-size="13" lengthAdjust="spacingAndGlyphs" textLength="7" x="210.8517" y="66.4017">*</text><text fill="#000000" font-family="sans-serif" font-size="13" lengthAdjust="spacingAndGlyphs" textLength="8" x="222.3399" y="66.3939">1</text></g></svg>