<?xml version="1.0" encoding="UTF-8" standalone="yes"?><svg xmlns="http://www.w3.org/2000/svg" xmlns:xlink="http://www.w3.org/1999/xlink" height="455px" style="width:502px;height:455px;" version="1.1" viewBox="0 0 502 455" width="502px"><defs><filter height="300%" id="f1" width="300%" x="-1" y="-1"><feGaussianBlur result="blurOut" stdDeviation="2.0"/><feColorMatrix in="blurOut" result="blurOut2" type="matrix" values="0 0 0 0 0 0 0 0 0 0 0 0 0 0 0 0 0 0 .4 0"/><feOffset dx="4.0" dy="4.0" in="blurOut2" result="blurOut3"/><feBlend in="SourceGraphic" in2="blurOut3" mode="normal"/></filter></defs><g><polygon fill="#FFFFFF" filter="url(#f1)" points="195.75,8,195.75,7.5182,205.125,7.6063,214.5,7.54,223.875,8.6059,233.25,7.7178,242.625,7.257,252,8.2919,261.375,7.7566,270.75,8,271.0065,8,270.9816,17.6,270.6748,27.2,271.2543,36.8,270.0734,46.4,270.75,56,270.75,55.5769,261.375,55.8489,252,55.3928,242.625,56.733,233.25,56.6447,223.875,56.1623,214.5,56.3636,205.125,55.5445,195.75,56,196.48,56,195.1543,46.4,196.1712,36.8,196.4678,27.2,195.0513,17.6,195.75,8" style="stroke: #FF8C00; stroke-width: 1.5;"/><polygon fill="#ADD1B2" points="221.7305,27.3092,219.4155,29.643,218.6484,32.6042,215.6303,33.5255,212.8631,35.2791,209.8359,35.2192,205.9766,34.4012,203.414,32.8447,201.5417,30.8501,200.0496,27.477,200.3706,24.6904,200.33,21.3886,201.0889,19.1072,202.5058,16.6445,205.0524,14.4942,207.3026,13.3453,210.0038,12.4031,211.9639,13.56,215.3956,14.5255,218.2852,15.2469,219.8568,17.5066,220.9,19.302,221.1632,22.6924,222.1239,26.5736" style="stroke: #FF8C00; stroke-width: 1.0;"/><path d="M213.7188,29.6406 Q213.1406,29.9375 212.5,30.0859 Q211.8594,30.2344 211.1563,30.2344 Q208.6563,30.2344 207.3359,28.5859 Q206.0156,26.9375 206.0156,23.8125 Q206.0156,20.6875 207.3359,19.0313 Q208.6563,17.375 211.1563,17.375 Q211.8594,17.375 212.5078,17.5313 Q213.1563,17.6875 213.7188,17.9844 L213.7188,20.7031 Q213.0938,20.125 212.5,19.8516 Q211.9063,19.5781 211.2813,19.5781 Q209.9375,19.5781 209.25,20.6484 Q208.5625,21.7188 208.5625,23.8125 Q208.5625,25.9063 209.25,26.9766 Q209.9375,28.0469 211.2813,28.0469 Q211.9063,28.0469 212.5,27.7734 Q213.0938,27.5 213.7188,26.9219 L213.7188,29.6406 Z "/><text fill="#000000" font-family="sans-serif" font-size="12" lengthAdjust="spacingAndGlyphs" textLength="43" x="224.75" y="28.1543">History</text><path d="M196.75,40 L196.75,40.2873 L207.1786,40.6443 L217.6071,40.8924 L228.0357,39.6532 L238.4643,39.496 L248.8929,40.3639 L259.3214,40.7997 L269.75,40 " fill="#FFFFFF" style="stroke: #FF8C00; stroke-width: 1.5;"/><path d="M196.75,48 L196.75,47.3635 L207.1786,48.6935 L217.6071,48.8202 L228.0357,48.3187 L238.4643,47.7465 L248.8929,47.4974 L259.3214,47.0305 L269.75,48 " fill="#FFFFFF" style="stroke: #FF8C00; stroke-width: 1.5;"/><polygon fill="#FFFFFF" filter="url(#f1)" points="31.75,116,31.75,116.1581,41.6,116.1239,51.45,115.5245,61.3,116.4942,71.15,115.7915,81,116.4731,90.85,115.8267,100.7,115.886,110.55,116.5646,120.4,115.9463,130.25,116.4242,140.1,116.2344,149.95,115.6303,159.8,116.2426,169.65,116.0385,179.5,115.8699,189.35,115.8384,199.2,115.2638,209.05,115.3672,218.9,115.4758,228.75,116,228.8122,116,228.2482,126.5156,229.3138,137.0313,228.5053,147.5469,228.0842,158.0625,228.2181,168.5781,229.44,179.0938,228.75,189.6094,228.75,190.1919,218.9,189.0043,209.05,189.6297,199.2,189.9018,189.35,189.7881,179.5,189.8539,169.65,190.3014,159.8,188.9458,149.95,189.0865,140.1,189.205,130.25,188.9033,120.4,189.0032,110.55,189.7704,100.7,189.3767,90.85,190.3244,81,190.3321,71.15,189.9944,61.3,190.1337,51.45,188.8753,41.6,189.8052,31.75,189.6094,31.1696,189.6094,32.4156,179.0938,31.3988,168.5781,31.1798,158.0625,32.1416,147.5469,31.0336,137.0313,31.1117,126.5156,31.75,116" style="stroke: #FF8C00; stroke-width: 1.5;"/><polygon fill="#ADD1B2" points="57.2334,135.5488,55.9429,138.8122,53.1393,140.5727,51.1596,141.8843,47.5448,142.9266,44.6345,143.2767,42.3987,141.4068,39.8093,139.9194,36.9225,137.4492,36.5442,134.3463,36.4131,131.6354,36.1238,127.9635,38.5185,125.2227,41.1168,123.0169,44.1704,122.0113,46.6892,121.3496,50.2836,121.9469,52.9265,123.0766,55.8074,125.2922,56.0602,127.4996,57.8858,129.954,57.6511,132.9247" style="stroke: #FF8C00; stroke-width: 1.0;"/><path d="M49.7188,137.6406 Q49.1406,137.9375 48.5,138.0859 Q47.8594,138.2344 47.1563,138.2344 Q44.6563,138.2344 43.3359,136.5859 Q42.0156,134.9375 42.0156,131.8125 Q42.0156,128.6875 43.3359,127.0313 Q44.6563,125.375 47.1563,125.375 Q47.8594,125.375 48.5078,125.5313 Q49.1563,125.6875 49.7188,125.9844 L49.7188,128.7031 Q49.0938,128.125 48.5,127.8516 Q47.9063,127.5781 47.2813,127.5781 Q45.9375,127.5781 45.25,128.6484 Q44.5625,129.7188 44.5625,131.8125 Q44.5625,133.9063 45.25,134.9766 Q45.9375,136.0469 47.2813,136.0469 Q47.9063,136.0469 48.5,135.7734 Q49.0938,135.5 49.7188,134.9219 L49.7188,137.6406 Z "/><text fill="#000000" font-family="sans-serif" font-size="12" lengthAdjust="spacingAndGlyphs" textLength="165" x="60.75" y="136.1543">HistoryDatasetAssociation</text><path d="M32.75,148 L32.75,147.3419 L42.5,148.5784 L52.25,148.1142 L62,148.5638 L71.75,147.7003 L81.5,147.3593 L91.25,148.8849 L101,147.4867 L110.75,147.549 L120.5,148.855 L130.25,147.6317 L140,148.2257 L149.75,147.8686 L159.5,148.0115 L169.25,148.1008 L179,148.1891 L188.75,148.2716 L198.5,147.1555 L208.25,147.6433 L218,147.51 L227.75,148 " fill="#FFFFFF" style="stroke: #FF8C00; stroke-width: 1.5;"/><text fill="#000000" font-family="sans-serif" font-size="11" lengthAdjust="spacingAndGlyphs" textLength="183" x="37.75" y="162.2104">history_content_type = 'dataset'</text><text fill="#000000" font-family="sans-serif" font-size="11" lengthAdjust="spacingAndGlyphs" textLength="17" x="37.75" y="175.0151">hid</text><path d="M32.75,181.6094 L32.75,182.3444 L42.5,181.6323 L52.25,181.0539 L62,180.7918 L71.75,182.2862 L81.5,182.2566 L91.25,181.0393 L101,181.9555 L110.75,180.6349 L120.5,181.3514 L130.25,180.9452 L140,181.1332 L149.75,181.8275 L159.5,182.1481 L169.25,181.2892 L179,181.2722 L188.75,181.383 L198.5,181.9132 L208.25,180.6618 L218,181.4231 L227.75,181.6094 " fill="#FFFFFF" style="stroke: #FF8C00; stroke-width: 1.5;"/><polygon fill="#FFFFFF" filter="url(#f1)" points="235,250,235,249.4334,244.9231,250.7211,254.8462,249.4565,264.7692,249.3991,274.6923,249.9582,284.6154,250.2897,294.5385,249.6472,304.4615,250.2101,314.3846,249.903,324.3077,249.2543,334.2308,250.4183,344.1538,250.1752,354.0769,250.5407,364,250.2763,373.9231,250.3589,383.8462,250.7241,393.7692,249.8418,403.6923,249.4601,413.6154,250.4686,423.5385,250.3592,433.4615,250.6653,443.3846,249.2551,453.3077,249.3458,463.2308,249.2557,473.1538,249.4021,483.0769,249.8946,493,250,492.7876,250,492.9045,260.5156,492.4228,271.0313,492.436,281.5469,492.5437,292.0625,492.6315,302.5781,493.4193,313.0938,493,323.6094,493,323.6017,483.0769,323.0427,473.1538,323.2489,463.2308,323.1596,453.3077,323.0789,443.3846,323.4382,433.4615,323.5959,423.5385,323.8063,413.6154,323.1728,403.6923,323.245,393.7692,323.2475,383.8462,323.7203,373.9231,324.0077,364,323.4556,354.0769,323.5119,344.1538,322.8971,334.2308,324.1425,324.3077,324.1385,314.3846,324.2967,304.4615,323.1435,294.5385,323.2079,284.6154,323.8289,274.6923,323.7044,264.7692,323.0125,254.8462,323.1853,244.9231,323.7248,235,323.6094,235.4098,323.6094,234.9607,313.0938,235.1749,302.5781,235.2459,292.0625,234.5155,281.5469,235.2132,271.0313,235.4182,260.5156,235,250" style="stroke: #FF8C00; stroke-width: 1.5;"/><polygon fill="#ADD1B2" points="260.0936,268.2408,260.1042,270.5831,257.6663,273.4139,255.7516,274.603,254.3972,276.6529,250.6254,277.0865,248.1119,277.1707,245.9935,276.7392,243.376,274.8914,240.8732,273.0712,239.3022,270.2362,239.5596,267.9201,239.4547,264.6011,239.655,261.4813,242.0897,258.9849,244.5242,256.9551,247.4356,255.8986,249.7392,255.3814,253.2491,255.0548,255.7857,256.7617,258.2279,258.7867,259.0851,260.7659,260.733,263.8547,261.0625,266.5753" style="stroke: #FF8C00; stroke-width: 1.0;"/><path d="M252.9688,271.6406 Q252.3906,271.9375 251.75,272.0859 Q251.1094,272.2344 250.4063,272.2344 Q247.9063,272.2344 246.5859,270.5859 Q245.2656,268.9375 245.2656,265.8125 Q245.2656,262.6875 246.5859,261.0313 Q247.9063,259.375 250.4063,259.375 Q251.1094,259.375 251.7578,259.5313 Q252.4063,259.6875 252.9688,259.9844 L252.9688,262.7031 Q252.3438,262.125 251.75,261.8516 Q251.1563,261.5781 250.5313,261.5781 Q249.1875,261.5781 248.5,262.6484 Q247.8125,263.7188 247.8125,265.8125 Q247.8125,267.9063 248.5,268.9766 Q249.1875,270.0469 250.5313,270.0469 Q251.1563,270.0469 251.75,269.7734 Q252.3438,269.5 252.9688,268.9219 L252.9688,271.6406 Z "/><text fill="#000000" font-family="sans-serif" font-size="12" lengthAdjust="spacingAndGlyphs" textLength="226" x="264" y="270.1543">HistoryDatasetCollectionAssociation</text><path d="M236,282 L236,281.1551 L245.8462,282.8695 L255.6923,281.0316 L265.5385,281.8979 L275.3846,281.8741 L285.2308,281.6892 L295.0769,282.6945 L304.9231,282.9904 L314.7692,281.7239 L324.6154,281.6762 L334.4615,282.1981 L344.3077,282.3866 L354.1538,282.5831 L364,282.0388 L373.8462,282.3466 L383.6923,282.408 L393.5385,282.0185 L403.3846,282.4251 L413.2308,281.527 L423.0769,282.5135 L432.9231,281.6867 L442.7692,282.539 L452.6154,281.7971 L462.4615,281.3629 L472.3077,282.0736 L482.1538,282.8481 L492,282 " fill="#FFFFFF" style="stroke: #FF8C00; stroke-width: 1.5;"/><text fill="#000000" font-family="sans-serif" font-size="11" lengthAdjust="spacingAndGlyphs" textLength="242" x="241" y="296.2104">history_content_type = 'dataset_collection'</text><text fill="#000000" font-family="sans-serif" font-size="11" lengthAdjust="spacingAndGlyphs" textLength="17" x="241" y="309.0151">hid</text><path d="M236,315.6094 L236,315.6536 L245.8462,314.6101 L255.6923,315.6562 L265.5385,316.5664 L275.3846,316.559 L285.2308,315.8098 L295.0769,316.1803 L304.9231,316.5016 L314.7692,315.4408 L324.6154,315.5124 L334.4615,314.8539 L344.3077,314.7591 L354.1538,315.83 L364,316.1158 L373.8462,315.6764 L383.6923,315.5132 L393.5385,314.8509 L403.3846,316.1367 L413.2308,314.6375 L423.0769,315.8668 L432.9231,315.1301 L442.7692,316.4672 L452.6154,316.3468 L462.4615,316.4409 L472.3077,315.051 L482.1538,316.0891 L492,315.6094 " fill="#FFFFFF" style="stroke: #FF8C00; stroke-width: 1.5;"/><polygon fill="#FFFFFF" filter="url(#f1)" points="31.75,384.5,31.75,384.7763,41.9643,384.0147,52.1786,384.5687,62.3929,384.5531,72.6071,385.021,82.8214,383.8942,93.0357,383.91,103.25,384.0936,113.4643,384.4446,123.6786,383.7765,133.8929,384.4087,144.1071,383.9874,154.3214,384.8233,164.5357,384.5323,174.75,384.5,175.081,384.5,175.4301,394.6341,174.1769,404.7682,175.4724,414.9023,175.2112,425.0365,174.7265,435.1706,174.75,445.3047,174.75,445.6387,164.5357,445.078,154.3214,445.468,144.1071,445.417,133.8929,444.8637,123.6786,445.1683,113.4643,445.5348,103.25,444.9693,93.0357,445.7572,82.8214,445.6309,72.6071,446.051,62.3929,444.646,52.1786,445.0644,41.9643,445.0727,31.75,445.3047,31.9636,445.3047,31.4969,435.1706,31.218,425.0365,31.7017,414.9023,31.5351,404.7682,31.2337,394.6341,31.75,384.5" style="stroke: #FF8C00; stroke-width: 1.5;"/><polygon fill="#ADD1B2" points="57.0012,403.696,56.2349,407.0784,53.4869,408.5823,51.6447,410.3215,48.7244,410.8954,46.2563,411.5705,43.2698,410.8245,40.7,409.1268,38.472,407.0805,36.5235,404.2511,35.6379,401.5025,36.5072,398.9448,37.0861,395.5069,38.2093,393.3172,40.5669,392.1016,42.8217,390.8422,44.8325,389.295,48.5707,389.6287,50.9075,390.4266,53.6367,391.4808,56.0291,394.3656,56.9792,397.3998,57.4027,400.8198" style="stroke: #FF8C00; stroke-width: 1.0;"/><path d="M49.7188,406.1406 Q49.1406,406.4375 48.5,406.5859 Q47.8594,406.7344 47.1563,406.7344 Q44.6563,406.7344 43.3359,405.0859 Q42.0156,403.4375 42.0156,400.3125 Q42.0156,397.1875 43.3359,395.5313 Q44.6563,393.875 47.1563,393.875 Q47.8594,393.875 48.5078,394.0313 Q49.1563,394.1875 49.7188,394.4844 L49.7188,397.2031 Q49.0938,396.625 48.5,396.3516 Q47.9063,396.0781 47.2813,396.0781 Q45.9375,396.0781 45.25,397.1484 Q44.5625,398.2188 44.5625,400.3125 Q44.5625,402.4063 45.25,403.4766 Q45.9375,404.5469 47.2813,404.5469 Q47.9063,404.5469 48.5,404.2734 Q49.0938,404 49.7188,403.4219 L49.7188,406.1406 Z "/><text fill="#000000" font-family="sans-serif" font-size="12" lengthAdjust="spacingAndGlyphs" textLength="111" x="60.75" y="404.6543">DatasetCollection</text><path d="M32.75,416.5 L32.75,415.7012 L42.8214,415.7884 L52.8929,416.9707 L62.9643,417.3789 L73.0357,415.632 L83.1071,415.8458 L93.1786,416.6035 L103.25,416.442 L113.3214,416.4252 L123.3929,416.0888 L133.4643,415.8464 L143.5357,416.5533 L153.6071,416.1273 L163.6786,416.563 L173.75,416.5 " fill="#FFFFFF" style="stroke: #FF8C00; stroke-width: 1.5;"/><text fill="#000000" font-family="sans-serif" font-size="11" lengthAdjust="spacingAndGlyphs" textLength="83" x="37.75" y="430.7104">collection_type</text><path d="M32.75,437.3047 L32.75,437.1691 L42.8214,437.1478 L52.8929,436.9231 L62.9643,436.9366 L73.0357,437.8567 L83.1071,437.1793 L93.1786,436.3842 L103.25,437.7718 L113.3214,437.8671 L123.3929,438.0874 L133.4643,437.5004 L143.5357,436.9653 L153.6071,437.5402 L163.6786,437.4802 L173.75,437.3047 " fill="#FFFFFF" style="stroke: #FF8C00; stroke-width: 1.5;"/><polygon fill="#FFFFFF" filter="url(#f1)" points="6.5,250,6.5,250.6656,16.7105,249.3663,26.9211,249.4515,37.1316,249.3487,47.3421,250.059,57.5526,250.7134,67.7632,249.7466,77.9737,249.7083,88.1842,250.1223,98.3947,249.4391,108.6053,249.6936,118.8158,250.3884,129.0263,250.3181,139.2368,250.6322,149.4474,249.5677,159.6579,250.381,169.8684,249.7686,180.0789,249.686,190.2895,250.4389,200.5,250,200.449,250,200.8638,260.5156,200.7909,271.0313,200.4516,281.5469,200.9018,292.0625,200.7256,302.5781,200.9302,313.0938,200.5,323.6094,200.5,324.1049,190.2895,323.3921,180.0789,324.0105,169.8684,323.4126,159.6579,323.2529,149.4474,323.7519,139.2368,323.476,129.0263,323.4481,118.8158,323.2739,108.6053,323.7167,98.3947,323.8209,88.1842,323.5233,77.9737,324.2958,67.7632,324.0465,57.5526,323.8479,47.3421,323.1529,37.1316,324.2833,26.9211,324.3173,16.7105,323.7659,6.5,323.6094,7.1575,323.6094,6.8098,313.0938,6.1472,302.5781,7.071,292.0625,6.1429,281.5469,6.1115,271.0313,5.9955,260.5156,6.5,250" style="stroke: #FF8C00; stroke-width: 1.5;"/><polygon fill="#ADD1B2" points="32.2134,268.1227,31.5404,271.3875,29.0082,273.2528,27.7531,275.1047,25.0239,276.5207,22.9721,276.9645,19.0843,277.4175,15.6932,275.8664,14.1665,273.6578,11.6545,271.2269,10.8359,268.3943,10.1295,265.4719,11.2015,262.5118,12.3175,260.2521,13.7466,257.7849,16.3418,255.7513,19.4865,255.8142,21.5941,255.5459,24.9998,255.2643,27.2599,257.4455,29.643,259.3718,30.6471,261.2325,31.7536,263.1072,32.6172,265.5136,32.2132,267.437" style="stroke: #FF8C00; stroke-width: 1.0;"/><path d="M24.4688,271.6406 Q23.8906,271.9375 23.25,272.0859 Q22.6094,272.2344 21.9063,272.2344 Q19.4063,272.2344 18.0859,270.5859 Q16.7656,268.9375 16.7656,265.8125 Q16.7656,262.6875 18.0859,261.0313 Q19.4063,259.375 21.9063,259.375 Q22.6094,259.375 23.2578,259.5313 Q23.9063,259.6875 24.4688,259.9844 L24.4688,262.7031 Q23.8438,262.125 23.25,261.8516 Q22.6563,261.5781 22.0313,261.5781 Q20.6875,261.5781 20,262.6484 Q19.3125,263.7188 19.3125,265.8125 Q19.3125,267.9063 20,268.9766 Q20.6875,270.0469 22.0313,270.0469 Q22.6563,270.0469 23.25,269.7734 Q23.8438,269.5 24.4688,268.9219 L24.4688,271.6406 Z "/><text fill="#000000" font-family="sans-serif" font-size="12" lengthAdjust="spacingAndGlyphs" textLength="162" x="35.5" y="270.1543">DatasetCollectionElement</text><path d="M7.5,282 L7.5,282.839 L17.6053,282.404 L27.7105,282.3278 L37.8158,281.4821 L47.9211,281.3329 L58.0263,281.4215 L68.1316,281.1686 L78.2368,282.944 L88.3421,281.4723 L98.4474,282.7514 L108.5526,282.395 L118.6579,281.6852 L128.7632,281.4749 L138.8684,281.4954 L148.9737,282.1197 L159.0789,282.1492 L169.1842,281.4771 L179.2895,281.8719 L189.3947,282.0737 L199.5,282 " fill="#FFFFFF" style="stroke: #FF8C00; stroke-width: 1.5;"/><text fill="#000000" font-family="sans-serif" font-size="11" lengthAdjust="spacingAndGlyphs" textLength="82" x="12.5" y="296.2104">element_index</text><text fill="#000000" font-family="sans-serif" font-size="11" lengthAdjust="spacingAndGlyphs" textLength="102" x="12.5" y="309.0151">element_identifier</text><path d="M7.5,315.6094 L7.5,315.3831 L17.6053,314.9249 L27.7105,314.7576 L37.8158,315.2166 L47.9211,316.3239 L58.0263,314.8921 L68.1316,315.9408 L78.2368,315.6236 L88.3421,315.9641 L98.4474,315.749 L108.5526,316.5018 L118.6579,315.7342 L128.7632,316.604 L138.8684,316.4636 L148.9737,314.8851 L159.0789,315.3769 L169.1842,315.43 L179.2895,314.7649 L189.3947,314.9807 L199.5,315.6094 " fill="#FFFFFF" style="stroke: #FF8C00; stroke-width: 1.5;"/><path d="M212.896,56.227 L213.4942,56.7447 L206.3762,63.5904 L199.3104,70.4813 L193.1948,78.1946 L187.0522,85.8846 L180.2907,93.0388 L175.0321,101.4939 L168.2983,108.6721 L161.407,115.714 " fill="none" style="stroke: #FFA500; stroke-width: 1.0;"/><text fill="#FFFFFF" font-family="sans-serif" font-size="13" lengthAdjust="spacingAndGlyphs" textLength="8" x="197.716" y="76.0435">1</text><text fill="#FFFFFF" font-family="sans-serif" font-size="13" lengthAdjust="spacingAndGlyphs" textLength="7" x="157.4889" y="104.81">*</text><path d="M245.089,56.348 L244.4422,56.0131 L249.9545,65.3037 L254.3562,74.0192 L257.9493,82.3161 L262.5967,91.1588 L267.0162,99.8836 L271.6057,108.6964 L277.8289,118.355 L281.6393,126.7644 L286.519,135.7275 L291.4538,144.719 L294.3749,152.6679 L299.5949,161.8072 L304.5334,170.8006 L308.8348,179.4643 L314.054,188.6031 L317.5837,196.8671 L323.3827,206.3061 L327.6828,214.9691 L332.3743,223.8347 L335.296,231.7839 L340.3013,240.812 L345.266,249.819 " fill="none" style="stroke: #FFA500; stroke-width: 1.0;"/><text fill="#FFFFFF" font-family="sans-serif" font-size="13" lengthAdjust="spacingAndGlyphs" textLength="8" x="237.756" y="76.194">1</text><text fill="#FFFFFF" font-family="sans-serif" font-size="13" lengthAdjust="spacingAndGlyphs" textLength="7" x="333.7083" y="238.9311">*</text><path d="M289.208,324.107 L288.8397,323.3441 L280.3973,328.6672 L271.3448,332.7267 L262.7128,337.6572 L253.2332,340.8319 L244.5614,345.68 L235.3817,349.4759 L227.042,355.0119 L217.8727,358.8293 L209.153,363.5781 L199.513,366.4206 L191.1015,371.8079 L182.3533,376.4977 L173.0338,380.0039 L164.176,384.4667 " fill="none" style="stroke: #FFA500; stroke-width: 1.0;"/><text fill="#FFFFFF" font-family="sans-serif" font-size="13" lengthAdjust="spacingAndGlyphs" textLength="8" x="266.9925" y="343.6053">1</text><text fill="#FFFFFF" font-family="sans-serif" font-size="13" lengthAdjust="spacingAndGlyphs" textLength="8" x="165.4874" y="373.3671">1</text><path d="M114.665,384.2607 L114.8516,384.2773 L114.7441,381.3815 L115.0676,378.5241 L115.6231,375.6874 L115.8561,372.8219 L115.942,369.9434 L115.6794,369.9342 L116.0263,366.8689 L115.9472,363.7887 L115.9649,360.7118 L116.4092,357.65 L116.4805,354.575 L116.1565,354.5708 L116.5668,351.4639 L116.09,348.3454 L116.2952,345.2358 L116.1154,342.1212 L116.2802,339.0111 L116.5228,339.0264 L116.2202,336.0383 L116.1091,333.0623 L115.8773,330.0787 L115.7004,327.0986 L115.341,324.107 " fill="none" style="stroke: #FFA500; stroke-width: 1.0;"/><text fill="#FFFFFF" font-family="sans-serif" font-size="13" lengthAdjust="spacingAndGlyphs" textLength="8" x="106.8078" y="373.3673">1</text><text fill="#FFFFFF" font-family="sans-serif" font-size="13" lengthAdjust="spacingAndGlyphs" textLength="24" x="90.1494" y="343.6053">0..1</text><path d="M91.3443,324.107 L91.6669,324.1262 L91.0985,327.0837 L90.8838,330.0623 L90.6309,333.0387 L90.5516,336.0253 L90.4574,339.0111 L90.6182,339.013 L90.6837,342.1271 L90.1136,345.2334 L90.0625,348.346 L90.2669,351.4617 L90.2683,354.575 L90.4142,354.5798 L90.2252,357.6439 L90.6869,360.7295 L90.7957,363.8034 L90.5622,366.866 L90.7768,369.9434 L90.8492,369.9495 L91.2365,372.8252 L91.2584,375.6702 L91.4978,378.5335 L91.8134,381.4033 L91.9829,384.2607 " fill="none" style="stroke: #FFA500; stroke-width: 1.0;"/><text fill="#FFFFFF" font-family="sans-serif" font-size="13" lengthAdjust="spacingAndGlyphs" textLength="7" x="80.5857" y="343.6053">*</text><text fill="#FFFFFF" font-family="sans-serif" font-size="13" lengthAdjust="spacingAndGlyphs" textLength="8" x="80.0853" y="373.3673">1</text><path d="M122.622,190.07 L122.291,190.0023 L120.4412,200.0256 L118.0211,209.9323 L115.6781,219.8548 L114.184,229.9509 L113.0958,240.13 L110.369,249.974 " fill="none" style="stroke: #FFA500; stroke-width: 1.0;"/><text fill="#FFFFFF" font-family="sans-serif" font-size="13" lengthAdjust="spacingAndGlyphs" textLength="8" x="111.5305" y="209.5621">1</text><text fill="#FFFFFF" font-family="sans-serif" font-size="13" lengthAdjust="spacingAndGlyphs" textLength="24" x="84.3918" y="238.8269">0..1</text></g></svg>