<?xml version="1.0" encoding="UTF-8" standalone="yes"?><svg xmlns="http://www.w3.org/2000/svg" xmlns:xlink="http://www.w3.org/1999/xlink" height="142px" style="width:401px;height:142px;" version="1.1" viewBox="0 0 401 142" width="401px"><defs><filter height="300%" id="f1" width="300%" x="-1" y="-1"><feGaussianBlur result="blurOut" stdDeviation="2.0"/><feColorMatrix in="blurOut" result="blurOut2" type="matrix" values="0 0 0 0 0 0 0 0 0 0 0 0 0 0 0 0 0 0 .4 0"/><feOffset dx="4.0" dy="4.0" in="blurOut2" result="blurOut3"/><feBlend in="SourceGraphic" in2="blurOut3" mode="normal"/></filter></defs><g><polygon fill="#FFFFFF" filter="url(#f1)" points="6,8.5,6,9.2106,15.85,9.0893,25.7,8.8828,35.55,9.0499,45.4,9.1758,55.25,8.5957,65.1,8.9645,74.95,8.3154,84.8,8.6038,94.65,8.9479,104.5,7.8575,114.35,8.8592,124.2,7.7571,134.05,7.8442,143.9,8.0971,153.75,9.2147,163.6,8.8629,173.45,8.8494,183.3,8.0661,193.15,8.4368,203,8.5,203.2946,8.5,203.6162,18.9023,202.2616,29.3047,203.1593,39.707,202.7599,50.1094,203.3706,60.5117,203.3945,70.9141,202.4169,81.3164,203.2357,91.7188,203.5175,102.1211,202.999,112.5234,203.0723,122.9258,203,133.3281,203,132.769,193.15,132.9776,183.3,133.2726,173.45,133.674,163.6,132.9693,153.75,133.0783,143.9,133.9864,134.05,133.7533,124.2,133.3613,114.35,133.7942,104.5,133.813,94.65,133.7744,84.8,133.6939,74.95,132.8132,65.1,132.7626,55.25,132.6035,45.4,133.1469,35.55,133.1269,25.7,133.9239,15.85,133.815,6,133.3281,5.4714,133.3281,5.9476,122.9258,6.719,112.5234,5.7304,102.1211,6.4652,91.7188,6.7398,81.3164,5.4056,70.9141,5.3021,60.5117,6.682,50.1094,6.4165,39.707,6.4792,29.3047,5.6877,18.9023,6,8.5" style="stroke: #FF8C00; stroke-width: 1.5;"/><polygon fill="#ADD1B2" points="32.3995,26.9413,30.5183,28.7602,29.3115,32.4452,27.3401,33.6768,23.7289,34.5777,20.0693,35.9034,16.9,34.8721,14.2034,32.5679,12.0807,30.6912,10.5851,28.4545,9.7143,24.9366,9.9196,21.9024,11.1409,18.3118,13.2462,16.4178,15.9481,15.3691,19.0901,14.1359,22.2895,14.2666,24.7478,14.7039,27.5003,15.7911,30.2829,17.6644,31.101,20.551,31.6584,22.8787,32.2152,24.8346" style="stroke: #FF8C00; stroke-width: 1.0;"/><path d="M23.9688,30.1406 Q23.3906,30.4375 22.75,30.5859 Q22.1094,30.7344 21.4063,30.7344 Q18.9063,30.7344 17.5859,29.0859 Q16.2656,27.4375 16.2656,24.3125 Q16.2656,21.1875 17.5859,19.5313 Q18.9063,17.875 21.4063,17.875 Q22.1094,17.875 22.7578,18.0313 Q23.4063,18.1875 23.9688,18.4844 L23.9688,21.2031 Q23.3438,20.625 22.75,20.3516 Q22.1563,20.0781 21.5313,20.0781 Q20.1875,20.0781 19.5,21.1484 Q18.8125,22.2188 18.8125,24.3125 Q18.8125,26.4063 19.5,27.4766 Q20.1875,28.5469 21.5313,28.5469 Q22.1563,28.5469 22.75,28.2734 Q23.3438,28 23.9688,27.4219 L23.9688,30.1406 Z "/><text fill="#000000" font-family="sans-serif" font-size="12" lengthAdjust="spacingAndGlyphs" textLength="165" x="35" y="28.6543">HistoryDatasetAssociation</text><path d="M7,40.5 L7,39.7118 L16.75,41.3477 L26.5,41.0918 L36.25,39.7294 L46,40.9681 L55.75,40.391 L65.5,39.9925 L75.25,40.3064 L85,40.401 L94.75,40.6674 L104.5,40.1297 L114.25,40.7703 L124,39.8758 L133.75,40.3641 L143.5,41.3106 L153.25,40.6583 L163,41.2104 L172.75,40.8548 L182.5,40.0439 L192.25,40.0173 L202,40.5 " fill="#FFFFFF" style="stroke: #FF8C00; stroke-width: 1.5;"/><text fill="#000000" font-family="sans-serif" font-size="11" lengthAdjust="spacingAndGlyphs" textLength="65" x="12" y="54.7104">hid: integer</text><text fill="#000000" font-family="sans-serif" font-size="11" lengthAdjust="spacingAndGlyphs" textLength="103" x="12" y="67.5151">history_id: integer</text><text fill="#000000" font-family="sans-serif" font-size="11" lengthAdjust="spacingAndGlyphs" textLength="107" x="12" y="80.3198">dataset_id: integer</text><text fill="#000000" font-family="sans-serif" font-size="11" lengthAdjust="spacingAndGlyphs" textLength="70" x="12" y="93.1245">state: string</text><text fill="#000000" font-family="sans-serif" font-size="11" lengthAdjust="spacingAndGlyphs" textLength="73" x="12" y="105.9292">name: string</text><text fill="#000000" font-family="sans-serif" font-size="11" lengthAdjust="spacingAndGlyphs" textLength="62" x="12" y="118.7339">info: string</text><path d="M7,125.3281 L7,125.347 L16.75,126.0065 L26.5,126.2284 L36.25,124.9877 L46,126.2903 L55.75,124.7812 L65.5,126.1599 L75.25,125.2876 L85,125.8815 L94.75,124.4779 L104.5,124.8162 L114.25,125.8586 L124,124.7573 L133.75,125.6619 L143.5,124.3795 L153.25,126.0977 L163,125.0301 L172.75,125.9335 L182.5,125.8571 L192.25,124.6828 L202,125.3281 " fill="#FFFFFF" style="stroke: #FF8C00; stroke-width: 1.5;"/><polygon fill="#FFFFFF" filter="url(#f1)" points="238.25,15,238.25,14.7329,248.5167,15.4004,258.7833,15.6014,269.05,15.229,279.3167,14.6475,289.5833,15.6547,299.85,15.0163,310.1167,15.1386,320.3833,15.7384,330.65,14.8395,340.9167,15.1365,351.1833,14.5708,361.45,14.3401,371.7167,14.7587,381.9833,15.2685,392.25,15,392.3377,15,392.7409,25.1839,392.6602,35.3679,392.7883,45.5518,391.7355,55.7358,392.258,65.9197,392.6294,76.1037,392.2139,86.2876,391.6977,96.4716,391.629,106.6555,392.4964,116.8395,392.25,127.0234,392.25,126.4627,381.9833,126.609,371.7167,126.8479,361.45,126.6304,351.1833,127.3147,340.9167,127.4391,330.65,126.6387,320.3833,127.125,310.1167,126.8656,299.85,127.7448,289.5833,126.6826,279.3167,126.4949,269.05,127.6494,258.7833,127.2441,248.5167,126.5322,238.25,127.0234,238.8621,127.0234,238.8379,116.8395,238.266,106.6555,237.5296,96.4716,238.1247,86.2876,238.9675,76.1037,238.1826,65.9197,238.2583,55.7358,238.7219,45.5518,238.9014,35.3679,237.8111,25.1839,238.25,15" style="stroke: #FF8C00; stroke-width: 1.5;"/><polygon fill="#ADD1B2" points="296.2802,34.1068,294.4034,37.1967,292.4867,39.1653,289.9371,41.2384,287.3307,41.8226,284.3111,42.0032,281.2348,41.2237,279.1782,40.0721,276.3726,37.602,275.3609,33.8472,275.0448,30.4067,275.6286,28.0659,277.103,24.8393,279.2453,21.8763,282.0651,20.5392,285.7062,20.25,287.7015,20.1027,290.5904,21.1468,292.3884,22.4047,294.3185,24.3604,296.1742,26.9357,297.2946,30.2578,296.7295,32.563" style="stroke: #FF8C00; stroke-width: 1.0;"/><path d="M288.9688,36.6406 Q288.3906,36.9375 287.75,37.0859 Q287.1094,37.2344 286.4063,37.2344 Q283.9063,37.2344 282.5859,35.5859 Q281.2656,33.9375 281.2656,30.8125 Q281.2656,27.6875 282.5859,26.0313 Q283.9063,24.375 286.4063,24.375 Q287.1094,24.375 287.7578,24.5313 Q288.4063,24.6875 288.9688,24.9844 L288.9688,27.7031 Q288.3438,27.125 287.75,26.8516 Q287.1563,26.5781 286.5313,26.5781 Q285.1875,26.5781 284.5,27.6484 Q283.8125,28.7188 283.8125,30.8125 Q283.8125,32.9063 284.5,33.9766 Q285.1875,35.0469 286.5313,35.0469 Q287.1563,35.0469 287.75,34.7734 Q288.3438,34.5 288.9688,33.9219 L288.9688,36.6406 Z "/><text fill="#000000" font-family="sans-serif" font-size="12" lengthAdjust="spacingAndGlyphs" textLength="50" x="306.5" y="35.1543">Dataset</text><path d="M239.25,47 L239.25,47.581 L249.3833,46.4903 L259.5167,46.8439 L269.65,47.8736 L279.7833,46.1667 L289.9167,47.6641 L300.05,46.8063 L310.1833,47.3496 L320.3167,46.2574 L330.45,46.8496 L340.5833,47.2437 L350.7167,47.5851 L360.85,47.2204 L370.9833,46.1048 L381.1167,46.9684 L391.25,47 " fill="#FFFFFF" style="stroke: #FF8C00; stroke-width: 1.5;"/><text fill="#000000" font-family="sans-serif" font-size="11" lengthAdjust="spacingAndGlyphs" textLength="127" x="244.25" y="61.2104">object_store_id: string</text><text fill="#000000" font-family="sans-serif" font-size="11" lengthAdjust="spacingAndGlyphs" textLength="142" x="244.25" y="74.0151">external_filename: string</text><text fill="#000000" font-family="sans-serif" font-size="11" lengthAdjust="spacingAndGlyphs" textLength="137" x="244.25" y="86.8198">_extra_files_path: string</text><text fill="#000000" font-family="sans-serif" font-size="11" lengthAdjust="spacingAndGlyphs" textLength="93" x="244.25" y="99.6245">file_size: integer</text><text fill="#000000" font-family="sans-serif" font-size="11" lengthAdjust="spacingAndGlyphs" textLength="101" x="244.25" y="112.4292">total_size: integer</text><path d="M239.25,119.0234 L239.25,118.3049 L249.3833,119.3977 L259.5167,118.8699 L269.65,119.0745 L279.7833,120.0049 L289.9167,119.6335 L300.05,119.0781 L310.1833,118.9264 L320.3167,118.5799 L330.45,118.9262 L340.5833,119.5396 L350.7167,119.8049 L360.85,118.8059 L370.9833,118.6152 L381.1167,118.6505 L391.25,119.0234 " fill="#FFFFFF" style="stroke: #FF8C00; stroke-width: 1.5;"/><path d="M202.744,71 L202.744,70.8017 L208.7318,70.7447 L214.7196,71.055 L220.7074,70.768 L226.6952,70.8156 L232.683,71 " fill="none" style="stroke: #FFA500; stroke-width: 1.0;"/><polygon fill="#FFA500" points="237.902,71,237.8741,70.9373,236.0084,69.9894,234.2024,69.1759,232.5713,68.7558,230.698,67.7911,228.902,67,229.0557,67.1537,229.8577,67.9557,230.5947,68.6927,231.2898,69.3878,232.0143,70.1123,232.902,71,232.9058,71.0038,232.2018,71.8998,231.4617,72.7597,230.4115,73.3095,229.5837,74.0817,228.902,75,228.8578,74.9005,230.7632,74.3377,232.5873,73.5919,234.2818,72.5546,236.1126,71.824,237.902,71" style="stroke: #FFA500; stroke-width: 1.0;"/><text fill="#FFFFFF" font-family="sans-serif" font-size="13" lengthAdjust="spacingAndGlyphs" textLength="7" x="210.8517" y="66.4017">*</text><text fill="#FFFFFF" font-family="sans-serif" font-size="13" lengthAdjust="spacingAndGlyphs" textLength="8" x="222.3399" y="66.3939">1</text></g></svg>