<?xml version="1.0" encoding="UTF-8" standalone="yes"?><svg xmlns="http://www.w3.org/2000/svg" xmlns:xlink="http://www.w3.org/1999/xlink" height="454px" style="width:502px;height:454px;" version="1.1" viewBox="0 0 502 454" width="502px"><defs><filter height="300%" id="f1" width="300%" x="-1" y="-1"><feGaussianBlur result="blurOut" stdDeviation="2.0"/><feColorMatrix in="blurOut" result="blurOut2" type="matrix" values="0 0 0 0 0 0 0 0 0 0 0 0 0 0 0 0 0 0 .4 0"/><feOffset dx="4.0" dy="4.0" in="blurOut2" result="blurOut3"/><feBlend in="SourceGraphic" in2="blurOut3" mode="normal"/></filter></defs><g><polygon fill="#FFFFFF" filter="url(#f1)" points="195.75,8,195.75,8.4557,205.125,7.7873,214.5,8.1234,223.875,7.8985,233.25,7.7652,242.625,8.2425,252,7.3139,261.375,7.4159,270.75,8,271.0745,8,270.9951,17.6,271.3772,27.2,270.7091,36.8,270.7255,46.4,270.75,56,270.75,55.9305,261.375,56.3637,252,56.4018,242.625,55.4448,233.25,55.761,223.875,56.3349,214.5,56.7383,205.125,55.8134,195.75,56,195.83,56,195.8502,46.4,195.6386,36.8,195.218,27.2,195.6893,17.6,195.75,8" style="stroke: #FF8C00; stroke-width: 1.5;"/><polygon fill="#ADD1B2" points="221.3214,26.869,221.2203,28.9723,218.6185,31.8922,216.2992,32.9885,214.4638,33.9495,211.8038,35.5971,209.4297,34.7303,207.2226,34.8644,204.6211,33.5553,202.535,30.4075,200.4497,28.9848,200.3597,26.3834,199.554,24.4898,200.8592,21.0629,201.5028,18.5149,203.6783,16.0008,205.3031,14.2369,208.1561,13.1004,211.3118,13.2272,214.813,13.6524,216.6406,15.0078,218.5947,16.4718,220.3307,18.5991,220.8764,21.02,221.8875,23.0112,221.3244,26.6715" style="stroke: #FF8C00; stroke-width: 1.0;"/><path d="M213.7188,29.6406 Q213.1406,29.9375 212.5,30.0859 Q211.8594,30.2344 211.1563,30.2344 Q208.6563,30.2344 207.3359,28.5859 Q206.0156,26.9375 206.0156,23.8125 Q206.0156,20.6875 207.3359,19.0313 Q208.6563,17.375 211.1563,17.375 Q211.8594,17.375 212.5078,17.5313 Q213.1563,17.6875 213.7188,17.9844 L213.7188,20.7031 Q213.0938,20.125 212.5,19.8516 Q211.9063,19.5781 211.2813,19.5781 Q209.9375,19.5781 209.25,20.6484 Q208.5625,21.7188 208.5625,23.8125 Q208.5625,25.9063 209.25,26.9766 Q209.9375,28.0469 211.2813,28.0469 Q211.9063,28.0469 212.5,27.7734 Q213.0938,27.5 213.7188,26.9219 L213.7188,29.6406 Z "/><text fill="#000000" font-family="sans-serif" font-size="12" lengthAdjust="spacingAndGlyphs" textLength="43" x="224.75" y="28.1543">History</text><path d="M196.75,40 L196.75,39.7013 L207.1786,39.7456 L217.6071,39.0274 L228.0357,40.6074 L238.4643,40.7888 L248.8929,39.0099 L259.3214,39.712 L269.75,40 " fill="#FFFFFF" style="stroke: #FF8C00; stroke-width: 1.5;"/><path d="M196.75,48 L196.75,47.9624 L207.1786,47.2341 L217.6071,48.1041 L228.0357,48.2383 L238.4643,47.9126 L248.8929,47.3708 L259.3214,47.4965 L269.75,48 " fill="#FFFFFF" style="stroke: #FF8C00; stroke-width: 1.5;"/><polygon fill="#FFFFFF" filter="url(#f1)" points="31.75,116,31.75,116.393,41.6,115.8469,51.45,116.4165,61.3,116.4827,71.15,115.7775,81,116.5933,90.85,116.5092,100.7,116.0627,110.55,116.3967,120.4,116.6354,130.25,116.173,140.1,115.3046,149.95,115.9923,159.8,116.7198,169.65,115.6121,179.5,115.3148,189.35,116.0931,199.2,116.124,209.05,116.6851,218.9,116.5429,228.75,116,228.5747,116,228.6156,126.5156,229.0998,137.0313,228.9095,147.5469,228.5007,158.0625,228.2623,168.5781,229.2491,179.0938,228.75,189.6094,228.75,189.4567,218.9,189.666,209.05,189.3864,199.2,189.5802,189.35,189.4748,179.5,189.1752,169.65,189.0644,159.8,189.5919,149.95,189.0838,140.1,189.0772,130.25,189.5736,120.4,189.2813,110.55,189.7208,100.7,189.8324,90.85,189.8856,81,189.4043,71.15,189.6949,61.3,189.5107,51.45,188.9946,41.6,190.0773,31.75,189.6094,32.274,189.6094,31.9578,179.0938,31.3993,168.5781,32.3737,158.0625,31.0875,147.5469,31.3928,137.0313,32.0992,126.5156,31.75,116" style="stroke: #FF8C00; stroke-width: 1.5;"/><polygon fill="#ADD1B2" points="57.7695,134.8335,56.5822,136.6043,55.1658,139.3163,53.6982,140.6841,51.2763,142.7112,47.7598,143.1671,44.9543,142.7188,41.7547,142.0002,40.2475,140.0833,38.0297,139.5543,37.4045,136.4917,35.5399,135.0891,36.1882,131.8537,36.2305,128.5603,37.5751,126.7653,39.4445,123.9606,41.511,122.1125,45.143,120.4542,48.0671,121.752,51.7022,121.7588,54.2081,123.4101,55.6737,126.7105,57.8528,129.5835,58.3214,132.9031" style="stroke: #FF8C00; stroke-width: 1.0;"/><path d="M49.7188,137.6406 Q49.1406,137.9375 48.5,138.0859 Q47.8594,138.2344 47.1563,138.2344 Q44.6563,138.2344 43.3359,136.5859 Q42.0156,134.9375 42.0156,131.8125 Q42.0156,128.6875 43.3359,127.0313 Q44.6563,125.375 47.1563,125.375 Q47.8594,125.375 48.5078,125.5313 Q49.1563,125.6875 49.7188,125.9844 L49.7188,128.7031 Q49.0938,128.125 48.5,127.8516 Q47.9063,127.5781 47.2813,127.5781 Q45.9375,127.5781 45.25,128.6484 Q44.5625,129.7188 44.5625,131.8125 Q44.5625,133.9063 45.25,134.9766 Q45.9375,136.0469 47.2813,136.0469 Q47.9063,136.0469 48.5,135.7734 Q49.0938,135.5 49.7188,134.9219 L49.7188,137.6406 Z "/><text fill="#000000" font-family="sans-serif" font-size="12" lengthAdjust="spacingAndGlyphs" textLength="165" x="60.75" y="136.1543">HistoryDatasetAssociation</text><path d="M32.75,148 L32.75,147.6546 L42.5,148.3991 L52.25,147.1141 L62,147.4988 L71.75,148.4318 L81.5,147.1399 L91.25,147.3904 L101,147.8017 L110.75,148.8674 L120.5,147.5025 L130.25,148.5964 L140,148.3616 L149.75,148.8146 L159.5,148.4526 L169.25,148.1734 L179,148.3006 L188.75,147.1002 L198.5,148.4088 L208.25,147.5954 L218,148.0497 L227.75,148 " fill="#FFFFFF" style="stroke: #FF8C00; stroke-width: 1.5;"/><text fill="#000000" font-family="sans-serif" font-size="11" lengthAdjust="spacingAndGlyphs" textLength="183" x="37.75" y="162.2104">history_content_type = 'dataset'</text><text fill="#000000" font-family="sans-serif" font-size="11" lengthAdjust="spacingAndGlyphs" textLength="17" x="37.75" y="175.0151">hid</text><path d="M32.75,181.6094 L32.75,181.2412 L42.5,180.9241 L52.25,182.1631 L62,180.7496 L71.75,181.0949 L81.5,181.8647 L91.25,181.9629 L101,180.8224 L110.75,182.5801 L120.5,181.4632 L130.25,180.879 L140,181.237 L149.75,181.0155 L159.5,181.1965 L169.25,182.1712 L179,182.5343 L188.75,181.6159 L198.5,182.1098 L208.25,182.3458 L218,181.3219 L227.75,181.6094 " fill="#FFFFFF" style="stroke: #FF8C00; stroke-width: 1.5;"/><polygon fill="#FFFFFF" filter="url(#f1)" points="235,250,235,250.6667,244.9231,249.6869,254.8462,249.6011,264.7692,249.4617,274.6923,250.565,284.6154,249.4583,294.5385,249.521,304.4615,249.5979,314.3846,249.4545,324.3077,250.1992,334.2308,249.5708,344.1538,250.6257,354.0769,249.7358,364,249.7995,373.9231,250.5993,383.8462,250.3495,393.7692,250.1071,403.6923,250.6653,413.6154,250.576,423.5385,250.6732,433.4615,250.53,443.3846,250.3275,453.3077,249.8235,463.2308,250.7046,473.1538,250.0181,483.0769,249.3646,493,250,492.4964,250,493.2316,260.5156,492.628,271.0313,493.3648,281.5469,492.6402,292.0625,492.9177,302.5781,492.8691,313.0938,493,323.6094,493,323.2188,483.0769,323.2719,473.1538,323.3638,463.2308,324.138,453.3077,324.3099,443.3846,323.3512,433.4615,322.9303,423.5385,323.254,413.6154,323.5763,403.6923,323.2148,393.7692,323.3525,383.8462,323.1621,373.9231,323.2919,364,323.8161,354.0769,323.0247,344.1538,323.683,334.2308,323.0052,324.3077,323.252,314.3846,323.1562,304.4615,323.6123,294.5385,323.636,284.6154,323.7707,274.6923,323.5295,264.7692,323.7269,254.8462,323.4175,244.9231,323.9331,235,323.6094,235.4056,323.6094,234.9138,313.0938,234.6639,302.5781,235.298,292.0625,234.2576,281.5469,235.2463,271.0313,235.1898,260.5156,235,250" style="stroke: #FF8C00; stroke-width: 1.5;"/><polygon fill="#ADD1B2" points="260.3709,269.5878,259.7529,271.8818,258.2061,273.2174,255.9436,275.211,252.7325,276.5404,250.7246,277.2663,248.0504,276.7774,244.4702,276.013,242.0467,273.7214,240.8359,272.0783,238.7204,268.9379,238.8643,265.0378,239.043,262.0796,240.9089,259.5895,242.3003,257.9254,243.727,256.1877,246.212,256.2145,248.1896,254.8404,251.3219,254.529,254.5573,256.4175,257.8924,257.9518,259.3951,260.6896,260.325,264.0824,261.4562,266.7252" style="stroke: #FF8C00; stroke-width: 1.0;"/><path d="M252.9688,271.6406 Q252.3906,271.9375 251.75,272.0859 Q251.1094,272.2344 250.4063,272.2344 Q247.9063,272.2344 246.5859,270.5859 Q245.2656,268.9375 245.2656,265.8125 Q245.2656,262.6875 246.5859,261.0313 Q247.9063,259.375 250.4063,259.375 Q251.1094,259.375 251.7578,259.5313 Q252.4063,259.6875 252.9688,259.9844 L252.9688,262.7031 Q252.3438,262.125 251.75,261.8516 Q251.1563,261.5781 250.5313,261.5781 Q249.1875,261.5781 248.5,262.6484 Q247.8125,263.7188 247.8125,265.8125 Q247.8125,267.9063 248.5,268.9766 Q249.1875,270.0469 250.5313,270.0469 Q251.1563,270.0469 251.75,269.7734 Q252.3438,269.5 252.9688,268.9219 L252.9688,271.6406 Z "/><text fill="#000000" font-family="sans-serif" font-size="12" lengthAdjust="spacingAndGlyphs" textLength="226" x="264" y="270.1543">HistoryDatasetCollectionAssociation</text><path d="M236,282 L236,282.8743 L245.8462,281.3534 L255.6923,282.1822 L265.5385,282.5659 L275.3846,282.09 L285.2308,282.7134 L295.0769,282.4779 L304.9231,282.5251 L314.7692,281.2099 L324.6154,281.9013 L334.4615,281.2407 L344.3077,281.2822 L354.1538,282.889 L364,282.8165 L373.8462,281.9385 L383.6923,282.2923 L393.5385,281.0531 L403.3846,281.841 L413.2308,281.2001 L423.0769,282.9198 L432.9231,282.6109 L442.7692,282.7035 L452.6154,281.2729 L462.4615,281.9327 L472.3077,281.2255 L482.1538,282.5893 L492,282 " fill="#FFFFFF" style="stroke: #FF8C00; stroke-width: 1.5;"/><text fill="#000000" font-family="sans-serif" font-size="11" lengthAdjust="spacingAndGlyphs" textLength="242" x="241" y="296.2104">history_content_type = 'dataset_collection'</text><text fill="#000000" font-family="sans-serif" font-size="11" lengthAdjust="spacingAndGlyphs" textLength="17" x="241" y="309.0151">hid</text><path d="M236,315.6094 L236,316.5662 L245.8462,315.704 L255.6923,314.7091 L265.5385,315.2254 L275.3846,315.8747 L285.2308,315.1558 L295.0769,315.9156 L304.9231,315.902 L314.7692,314.969 L324.6154,316.2415 L334.4615,315.3182 L344.3077,316.128 L354.1538,315.1431 L364,314.8411 L373.8462,316.5777 L383.6923,314.6565 L393.5385,314.8084 L403.3846,315.1123 L413.2308,315.1303 L423.0769,315.7621 L432.9231,316.5339 L442.7692,315.823 L452.6154,315.3458 L462.4615,316.0972 L472.3077,316.2406 L482.1538,315.1739 L492,315.6094 " fill="#FFFFFF" style="stroke: #FF8C00; stroke-width: 1.5;"/><polygon fill="#FFFFFF" filter="url(#f1)" points="31.75,384.5,31.75,384.301,41.9643,384.3497,52.1786,383.7699,62.3929,384.166,72.6071,384.899,82.8214,384.7264,93.0357,384.709,103.25,384.9017,113.4643,384.7517,123.6786,383.7928,133.8929,384.3453,144.1071,384.2201,154.3214,384.4054,164.5357,384.2901,174.75,384.5,174.562,384.5,174.1017,394.6341,175.2511,404.7682,175.0759,414.9023,174.5789,425.0365,174.0187,435.1706,174.75,445.3047,174.75,444.6307,164.5357,444.9603,154.3214,445.9177,144.1071,445.9176,133.8929,444.5745,123.6786,445.3572,113.4643,445.9932,103.25,444.6305,93.0357,445.6697,82.8214,445.1116,72.6071,445.3095,62.3929,444.5715,52.1786,445.2147,41.9643,444.8372,31.75,445.3047,31.3814,445.3047,31.5998,435.1706,31.4528,425.0365,31.1789,414.9023,32.3641,404.7682,31.2933,394.6341,31.75,384.5" style="stroke: #FF8C00; stroke-width: 1.5;"/><polygon fill="#ADD1B2" points="57.612,402.5595,56.2819,406.0276,54.4726,408.4977,51.5738,410.4978,47.9717,411.8956,44.4398,410.6521,41.8331,410.4139,39.4637,409.6084,37.651,407.2017,37.1379,404.454,36.5252,402.069,36.4505,399.1801,36.9908,395.8875,38.3231,392.9242,40.3478,391.0862,42.7321,389.5712,45.3117,389.4554,48.6652,389.1765,51.7482,390.7682,54.8787,392.8201,57.1324,395.1525,56.9914,398.1828,57.6427,401.1223" style="stroke: #FF8C00; stroke-width: 1.0;"/><path d="M49.7188,406.1406 Q49.1406,406.4375 48.5,406.5859 Q47.8594,406.7344 47.1563,406.7344 Q44.6563,406.7344 43.3359,405.0859 Q42.0156,403.4375 42.0156,400.3125 Q42.0156,397.1875 43.3359,395.5313 Q44.6563,393.875 47.1563,393.875 Q47.8594,393.875 48.5078,394.0313 Q49.1563,394.1875 49.7188,394.4844 L49.7188,397.2031 Q49.0938,396.625 48.5,396.3516 Q47.9063,396.0781 47.2813,396.0781 Q45.9375,396.0781 45.25,397.1484 Q44.5625,398.2188 44.5625,400.3125 Q44.5625,402.4063 45.25,403.4766 Q45.9375,404.5469 47.2813,404.5469 Q47.9063,404.5469 48.5,404.2734 Q49.0938,404 49.7188,403.4219 L49.7188,406.1406 Z "/><text fill="#000000" font-family="sans-serif" font-size="12" lengthAdjust="spacingAndGlyphs" textLength="111" x="60.75" y="404.6543">DatasetCollection</text><path d="M32.75,416.5 L32.75,415.8891 L42.8214,416.1362 L52.8929,415.9188 L62.9643,416.748 L73.0357,417.2421 L83.1071,416.7733 L93.1786,416.3712 L103.25,416.1097 L113.3214,416.3607 L123.3929,417.4363 L133.4643,415.8384 L143.5357,415.7069 L153.6071,416.3501 L163.6786,415.5548 L173.75,416.5 " fill="#FFFFFF" style="stroke: #FF8C00; stroke-width: 1.5;"/><text fill="#000000" font-family="sans-serif" font-size="11" lengthAdjust="spacingAndGlyphs" textLength="83" x="37.75" y="430.7104">collection_type</text><path d="M32.75,437.3047 L32.75,438.2685 L42.8214,437.5313 L52.8929,436.7731 L62.9643,437.8462 L73.0357,437.95 L83.1071,437.9955 L93.1786,437.1562 L103.25,436.7818 L113.3214,436.897 L123.3929,438.1483 L133.4643,438.0014 L143.5357,438.0268 L153.6071,436.4326 L163.6786,437.0836 L173.75,437.3047 " fill="#FFFFFF" style="stroke: #FF8C00; stroke-width: 1.5;"/><polygon fill="#FFFFFF" filter="url(#f1)" points="6.5,250,6.5,250.0903,16.7105,250.3422,26.9211,250.5014,37.1316,249.3784,47.3421,249.682,57.5526,249.6121,67.7632,250.153,77.9737,249.8402,88.1842,250.243,98.3947,249.565,108.6053,249.9443,118.8158,250.524,129.0263,250.7461,139.2368,250.4607,149.4474,249.9366,159.6579,249.8574,169.8684,250.571,180.0789,250.575,190.2895,250.0064,200.5,250,200.0684,250,200.1733,260.5156,201.1407,271.0313,200.5609,281.5469,200.614,292.0625,200.2661,302.5781,200.4699,313.0938,200.5,323.6094,200.5,323.6795,190.2895,323.9385,180.0789,323.4418,169.8684,322.9242,159.6579,323.0292,149.4474,323.1983,139.2368,322.9488,129.0263,323.5648,118.8158,323.9149,108.6053,323.5456,98.3947,324.1328,88.1842,323.6163,77.9737,323.914,67.7632,324.2124,57.5526,323.6841,47.3421,323.6347,37.1316,323.9908,26.9211,323.2821,16.7105,323.5655,6.5,323.6094,6.6514,323.6094,6.9038,313.0938,6.2626,302.5781,6.4537,292.0625,5.7742,281.5469,6.2766,271.0313,6.5782,260.5156,6.5,250" style="stroke: #FF8C00; stroke-width: 1.5;"/><polygon fill="#ADD1B2" points="31.8756,269.6125,30.2543,272.6855,27.8901,275.2602,24.7301,276.6527,22.6104,276.7744,19.4279,276.8507,16.4368,275.0475,13.1013,273.4492,11.362,270.3929,10.1192,267.4804,9.9806,264.1588,11.5525,261.7414,12.5428,258.8676,15.7297,257.0929,18.3298,255.3001,20.8355,255.5781,23.6365,254.8569,26.6354,256.5603,28.5502,257.7634,30.5058,260.4244,32.8168,263.3444,33.0163,265.5938,31.8131,269.325" style="stroke: #FF8C00; stroke-width: 1.0;"/><path d="M24.4688,271.6406 Q23.8906,271.9375 23.25,272.0859 Q22.6094,272.2344 21.9063,272.2344 Q19.4063,272.2344 18.0859,270.5859 Q16.7656,268.9375 16.7656,265.8125 Q16.7656,262.6875 18.0859,261.0313 Q19.4063,259.375 21.9063,259.375 Q22.6094,259.375 23.2578,259.5313 Q23.9063,259.6875 24.4688,259.9844 L24.4688,262.7031 Q23.8438,262.125 23.25,261.8516 Q22.6563,261.5781 22.0313,261.5781 Q20.6875,261.5781 20,262.6484 Q19.3125,263.7188 19.3125,265.8125 Q19.3125,267.9063 20,268.9766 Q20.6875,270.0469 22.0313,270.0469 Q22.6563,270.0469 23.25,269.7734 Q23.8438,269.5 24.4688,268.9219 L24.4688,271.6406 Z "/><text fill="#000000" font-family="sans-serif" font-size="12" lengthAdjust="spacingAndGlyphs" textLength="162" x="35.5" y="270.1543">DatasetCollectionElement</text><path d="M7.5,282 L7.5,281.4078 L17.6053,282.1514 L27.7105,282.3903 L37.8158,281.4347 L47.9211,281.9979 L58.0263,282.6059 L68.1316,281.8305 L78.2368,281.6753 L88.3421,282.5532 L98.4474,281.4167 L108.5526,282.6999 L118.6579,281.1427 L128.7632,281.9435 L138.8684,282.1394 L148.9737,282.6822 L159.0789,281.4395 L169.1842,282.0595 L179.2895,281.2932 L189.3947,282.2905 L199.5,282 " fill="#FFFFFF" style="stroke: #FF8C00; stroke-width: 1.5;"/><text fill="#000000" font-family="sans-serif" font-size="11" lengthAdjust="spacingAndGlyphs" textLength="82" x="12.5" y="296.2104">element_index</text><text fill="#000000" font-family="sans-serif" font-size="11" lengthAdjust="spacingAndGlyphs" textLength="102" x="12.5" y="309.0151">element_identifier</text><path d="M7.5,315.6094 L7.5,315.7461 L17.6053,315.1647 L27.7105,315.2111 L37.8158,316.2029 L47.9211,314.8089 L58.0263,315.1804 L68.1316,316.3552 L78.2368,315.1959 L88.3421,315.4322 L98.4474,315.9623 L108.5526,314.6666 L118.6579,315.468 L128.7632,316.2237 L138.8684,314.7537 L148.9737,316.5638 L159.0789,314.9906 L169.1842,315.5087 L179.2895,315.7142 L189.3947,316.3449 L199.5,315.6094 " fill="#FFFFFF" style="stroke: #FF8C00; stroke-width: 1.5;"/><path d="M212.896,56.227 L213.1585,56.4542 L206.6175,63.7993 L200.2851,71.325 L193.2749,78.264 L187.1796,85.9948 L180.5027,93.2223 L174.6041,101.1234 L167.3538,107.8546 L161.407,115.714 " fill="none" style="stroke: #FFA500; stroke-width: 1.0;"/><text fill="#FFFFFF" font-family="sans-serif" font-size="13" lengthAdjust="spacingAndGlyphs" textLength="8" x="197.716" y="76.0435">1</text><text fill="#FFFFFF" font-family="sans-serif" font-size="13" lengthAdjust="spacingAndGlyphs" textLength="7" x="157.4889" y="104.81">*</text><path d="M245.089,56.348 L245.6837,56.6559 L249.2683,64.9484 L254.9829,74.3437 L258.5219,82.6126 L263.4049,91.5773 L267.5321,100.1507 L272.7937,109.3115 L276.2507,117.5379 L281.6979,126.7948 L286.17,135.5467 L291.2121,144.5939 L294.8554,152.9167 L299.8809,161.9553 L303.6285,170.3321 L308.8291,179.4613 L313.1982,188.1599 L317.4758,196.8113 L323.2938,206.2601 L327.5567,214.9038 L332.09,223.6875 L337.0081,232.6704 L339.893,240.6005 L345.266,249.819 " fill="none" style="stroke: #FFA500; stroke-width: 1.0;"/><text fill="#FFFFFF" font-family="sans-serif" font-size="13" lengthAdjust="spacingAndGlyphs" textLength="8" x="237.756" y="76.194">1</text><text fill="#FFFFFF" font-family="sans-serif" font-size="13" lengthAdjust="spacingAndGlyphs" textLength="7" x="333.7083" y="238.9311">*</text><path d="M289.208,324.107 L289.1251,323.9353 L280.0044,327.8534 L271.287,332.6071 L262.414,337.0382 L253.8972,342.2074 L244.6016,345.7632 L235.9692,350.6929 L226.3888,353.6588 L218.1374,359.3777 L208.4777,362.1792 L199.5505,366.4983 L191.3138,372.2475 L182.0633,375.8969 L172.8998,379.7263 L164.176,384.4667 " fill="none" style="stroke: #FFA500; stroke-width: 1.0;"/><text fill="#FFFFFF" font-family="sans-serif" font-size="13" lengthAdjust="spacingAndGlyphs" textLength="8" x="266.9925" y="343.6053">1</text><text fill="#FFFFFF" font-family="sans-serif" font-size="13" lengthAdjust="spacingAndGlyphs" textLength="8" x="165.4874" y="373.3671">1</text><path d="M114.665,384.2607 L114.7744,384.2705 L114.7477,381.3818 L114.9589,378.5144 L115.6282,375.6879 L115.3899,372.7804 L115.942,369.9434 L116.1218,369.9497 L116.1808,366.8743 L116.3793,363.8038 L116.4006,360.7271 L116.2679,357.645 L116.4805,354.575 L116.7199,354.5781 L116.1284,351.4582 L116.317,348.3484 L116.3035,345.2359 L116.4088,342.125 L116.2802,339.0111 L116.5268,339.0266 L116.2149,336.038 L115.8397,333.0454 L115.7244,330.0691 L115.6144,327.0932 L115.341,324.107 " fill="none" style="stroke: #FFA500; stroke-width: 1.0;"/><text fill="#FFFFFF" font-family="sans-serif" font-size="13" lengthAdjust="spacingAndGlyphs" textLength="8" x="106.8078" y="373.3673">1</text><text fill="#FFFFFF" font-family="sans-serif" font-size="13" lengthAdjust="spacingAndGlyphs" textLength="24" x="90.1494" y="343.6053">0..1</text><path d="M91.3443,324.107 L91.6224,324.1235 L90.8893,327.0713 L90.8184,330.0584 L90.636,333.039 L90.4469,336.0191 L90.4574,339.0111 L90.725,339.0143 L90.0988,342.12 L90.706,345.2406 L90.1606,348.3472 L90.4015,351.4634 L90.2683,354.575 L90.1086,354.5697 L90.1697,357.6421 L90.2957,360.7165 L90.3758,363.7895 L90.8075,366.8741 L90.7768,369.9434 L90.5485,369.9241 L91.2444,372.8259 L91.0752,375.6548 L91.4984,378.5336 L91.5305,381.3794 L91.9829,384.2607 " fill="none" style="stroke: #FFA500; stroke-width: 1.0;"/><text fill="#FFFFFF" font-family="sans-serif" font-size="13" lengthAdjust="spacingAndGlyphs" textLength="7" x="80.5857" y="343.6053">*</text><text fill="#FFFFFF" font-family="sans-serif" font-size="13" lengthAdjust="spacingAndGlyphs" textLength="8" x="80.0853" y="373.3673">1</text><path d="M122.622,190.07 L123.4548,190.2404 L119.7501,199.8843 L118.8467,210.1012 L116.3496,219.9922 L114.9828,230.1143 L111.7484,239.8544 L110.369,249.974 " fill="none" style="stroke: #FFA500; stroke-width: 1.0;"/><text fill="#FFFFFF" font-family="sans-serif" font-size="13" lengthAdjust="spacingAndGlyphs" textLength="8" x="111.5305" y="209.5621">1</text><text fill="#FFFFFF" font-family="sans-serif" font-size="13" lengthAdjust="spacingAndGlyphs" textLength="24" x="84.3918" y="238.8269">0..1</text></g></svg>