<?xml version="1.0" encoding="UTF-8" standalone="yes"?><svg xmlns="http://www.w3.org/2000/svg" xmlns:xlink="http://www.w3.org/1999/xlink" height="455px" style="width:502px;height:455px;" version="1.1" viewBox="0 0 502 455" width="502px"><defs><filter height="300%" id="f1" width="300%" x="-1" y="-1"><feGaussianBlur result="blurOut" stdDeviation="2.0"/><feColorMatrix in="blurOut" result="blurOut2" type="matrix" values="0 0 0 0 0 0 0 0 0 0 0 0 0 0 0 0 0 0 .4 0"/><feOffset dx="4.0" dy="4.0" in="blurOut2" result="blurOut3"/><feBlend in="SourceGraphic" in2="blurOut3" mode="normal"/></filter></defs><g><polygon fill="#FFEFD5" filter="url(#f1)" points="195.75,8,195.75,7.7431,205.125,8.7025,214.5,8.4237,223.875,8.4832,233.25,7.5325,242.625,7.4253,252,7.7812,261.375,8.5772,270.75,8,270.9301,8,271.3778,17.6,271.24,27.2,271.4965,36.8,270.56,46.4,270.75,56,270.75,56.3858,261.375,56.5963,252,56.2294,242.625,56.1803,233.25,55.2694,223.875,55.4172,214.5,56.7477,205.125,56.1526,195.75,56,195.9468,56,195.1906,46.4,195.9556,36.8,195.4772,27.2,196.1296,17.6,195.75,8" style="stroke: #FF8C00; stroke-width: 1.5;"/><polygon fill="#ADD1B2" points="221.3094,27.3457,219.4351,30.5864,217.1689,32.2525,216.0184,34.316,212.7569,34.2034,210.0959,34.7839,206.9946,34.6559,203.9287,32.3134,201.4576,30.3919,200.5215,28.2429,199.3708,25.7934,199.2806,23.2154,200.3387,21.2439,201.4143,19.4571,201.899,17.0474,204.4276,14.8631,206.5069,14.2692,208.5081,13.6104,211.9108,13.1041,215.5578,13.5458,217.146,14.9357,219.544,17.8257,220.5762,20.5057,221.5225,23.3721,220.7911,26.5785" style="stroke: #FF8C00; stroke-width: 1.0;"/><path d="M213.7188,29.6406 Q213.1406,29.9375 212.5,30.0859 Q211.8594,30.2344 211.1563,30.2344 Q208.6563,30.2344 207.3359,28.5859 Q206.0156,26.9375 206.0156,23.8125 Q206.0156,20.6875 207.3359,19.0313 Q208.6563,17.375 211.1563,17.375 Q211.8594,17.375 212.5078,17.5313 Q213.1563,17.6875 213.7188,17.9844 L213.7188,20.7031 Q213.0938,20.125 212.5,19.8516 Q211.9063,19.5781 211.2813,19.5781 Q209.9375,19.5781 209.25,20.6484 Q208.5625,21.7188 208.5625,23.8125 Q208.5625,25.9063 209.25,26.9766 Q209.9375,28.0469 211.2813,28.0469 Q211.9063,28.0469 212.5,27.7734 Q213.0938,27.5 213.7188,26.9219 L213.7188,29.6406 Z "/><text fill="#000000" font-family="sans-serif" font-size="12" lengthAdjust="spacingAndGlyphs" textLength="43" x="224.75" y="28.1543">History</text><path d="M196.75,40 L196.75,39.1522 L207.1786,40.645 L217.6071,40.7094 L228.0357,39.9288 L238.4643,39.6104 L248.8929,40.8998 L259.3214,39.6259 L269.75,40 " fill="#FFEFD5" style="stroke: #FF8C00; stroke-width: 1.5;"/><path d="M196.75,48 L196.75,47.5115 L207.1786,47.2265 L217.6071,48.5434 L228.0357,48.3807 L238.4643,47.0052 L248.8929,47.8374 L259.3214,48.4585 L269.75,48 " fill="#FFEFD5" style="stroke: #FF8C00; stroke-width: 1.5;"/><polygon fill="#FFEFD5" filter="url(#f1)" points="31.75,116,31.75,116.6308,41.6,116.1702,51.45,115.7873,61.3,116.1511,71.15,116.4207,81,115.8798,90.85,116.6535,100.7,115.6199,110.55,116.1077,120.4,115.9453,130.25,115.2576,140.1,115.9989,149.95,116.2401,159.8,116.135,169.65,116.4534,179.5,116.6059,189.35,115.8545,199.2,116.4052,209.05,116.0298,218.9,116.0525,228.75,116,229.4176,116,228.2077,126.5156,229.1803,137.0313,228.7131,147.5469,229.3501,158.0625,228.9689,168.5781,228.5711,179.0938,228.75,189.6094,228.75,189.9877,218.9,188.9764,209.05,190.3236,199.2,188.9432,189.35,189.7174,179.5,189.0714,169.65,189.5694,159.8,188.8956,149.95,189.7474,140.1,189.4595,130.25,189.2621,120.4,189.4117,110.55,189.911,100.7,190.1684,90.85,189.7228,81,189.6219,71.15,189.4088,61.3,189.2306,51.45,189.2452,41.6,190.0196,31.75,189.6094,31.036,189.6094,31.7325,179.0938,31.3463,168.5781,31.2347,158.0625,31.3966,147.5469,31.7837,137.0313,31.1536,126.5156,31.75,116" style="stroke: #FF8C00; stroke-width: 1.5;"/><polygon fill="#ADD1B2" points="57.1258,134.8735,56.3693,137.1274,54.7268,140.3068,52.6532,141.0137,49.5177,143.059,47.0646,142.7654,43.682,141.9215,41.7844,141.2133,39.869,140.3302,38.3589,138.417,36.987,135.7714,35.4614,133.459,35.2938,129.7626,37.7146,126.6827,38.7278,123.8846,41.5669,121.8556,45.1237,121.1009,47.8619,120.5271,49.8881,121.2686,52.5219,122.2149,54.8601,124.6397,56.1321,127.6104,57.5891,129.4453,57.0457,133.0536" style="stroke: #FF8C00; stroke-width: 1.0;"/><path d="M49.7188,137.6406 Q49.1406,137.9375 48.5,138.0859 Q47.8594,138.2344 47.1563,138.2344 Q44.6563,138.2344 43.3359,136.5859 Q42.0156,134.9375 42.0156,131.8125 Q42.0156,128.6875 43.3359,127.0313 Q44.6563,125.375 47.1563,125.375 Q47.8594,125.375 48.5078,125.5313 Q49.1563,125.6875 49.7188,125.9844 L49.7188,128.7031 Q49.0938,128.125 48.5,127.8516 Q47.9063,127.5781 47.2813,127.5781 Q45.9375,127.5781 45.25,128.6484 Q44.5625,129.7188 44.5625,131.8125 Q44.5625,133.9063 45.25,134.9766 Q45.9375,136.0469 47.2813,136.0469 Q47.9063,136.0469 48.5,135.7734 Q49.0938,135.5 49.7188,134.9219 L49.7188,137.6406 Z "/><text fill="#000000" font-family="sans-serif" font-size="12" lengthAdjust="spacingAndGlyphs" textLength="165" x="60.75" y="136.1543">HistoryDatasetAssociation</text><path d="M32.75,148 L32.75,147.603 L42.5,148.0646 L52.25,148.4021 L62,148.2296 L71.75,147.1732 L81.5,147.0579 L91.25,147.622 L101,147.2158 L110.75,148.8222 L120.5,148.8153 L130.25,148.8891 L140,147.6441 L149.75,147.3537 L159.5,147.5488 L169.25,147.7784 L179,147.7748 L188.75,148.2803 L198.5,148.3907 L208.25,148.7065 L218,148.9086 L227.75,148 " fill="#FFEFD5" style="stroke: #FF8C00; stroke-width: 1.5;"/><text fill="#000000" font-family="sans-serif" font-size="11" lengthAdjust="spacingAndGlyphs" textLength="183" x="37.75" y="162.2104">history_content_type = 'dataset'</text><text fill="#000000" font-family="sans-serif" font-size="11" lengthAdjust="spacingAndGlyphs" textLength="17" x="37.75" y="175.0151">hid</text><path d="M32.75,181.6094 L32.75,180.7821 L42.5,181.8685 L52.25,182.3951 L62,182.5139 L71.75,181.3703 L81.5,180.785 L91.25,180.8638 L101,180.6882 L110.75,180.9849 L120.5,182.2555 L130.25,182.2737 L140,181.862 L149.75,181.9157 L159.5,181.3059 L169.25,181.956 L179,181.3888 L188.75,181.443 L198.5,182.4205 L208.25,181.8007 L218,181.7538 L227.75,181.6094 " fill="#FFEFD5" style="stroke: #FF8C00; stroke-width: 1.5;"/><polygon fill="#FFEFD5" filter="url(#f1)" points="235,250,235,250.0389,244.9231,249.5324,254.8462,249.6199,264.7692,249.3749,274.6923,249.3693,284.6154,249.4502,294.5385,249.628,304.4615,249.9758,314.3846,250.4691,324.3077,249.9493,334.2308,249.5684,344.1538,249.7697,354.0769,249.6862,364,250.5744,373.9231,249.8739,383.8462,249.599,393.7692,250.6626,403.6923,250.4665,413.6154,249.2541,423.5385,250.1971,433.4615,250.4592,443.3846,250.1101,453.3077,250.191,463.2308,250.2047,473.1538,250.1938,483.0769,250.0425,493,250,493.141,250,493.646,260.5156,493.388,271.0313,492.7469,281.5469,493.6651,292.0625,493.4026,302.5781,492.6168,313.0938,493,323.6094,493,324.1984,483.0769,322.9724,473.1538,323.0427,463.2308,323.7033,453.3077,324.1722,443.3846,323.1475,433.4615,324.3202,423.5385,323.6173,413.6154,323.8832,403.6923,323.0643,393.7692,324.1918,383.8462,324.3522,373.9231,324.1379,364,322.9897,354.0769,323.6308,344.1538,324.1892,334.2308,323.7036,324.3077,322.9308,314.3846,323.6096,304.4615,323.1874,294.5385,323.7686,284.6154,323.087,274.6923,323.6155,264.7692,324.1843,254.8462,323.8662,244.9231,323.5398,235,323.6094,235.0191,323.6094,234.6312,313.0938,234.4103,302.5781,234.483,292.0625,235.0907,281.5469,234.2672,271.0313,235.0193,260.5156,235,250" style="stroke: #FF8C00; stroke-width: 1.5;"/><polygon fill="#ADD1B2" points="260.8155,269.807,258.6767,272.7058,256.812,274.9277,253.8334,277.0127,249.9101,277.6836,248.0338,276.5763,245.9494,275.7359,243.7464,275.2531,241.5411,273.8707,239.7293,270.5691,238.7415,267.7141,239.8522,264.0452,240.1937,261.8924,240.638,259.1492,243.4336,257.1528,246.5861,255.7292,249.1762,255.3599,252.6651,254.9943,256.3043,256.4774,258.1672,259.1886,260.6043,261.7271,261.121,264.3693,261.4299,267.0176" style="stroke: #FF8C00; stroke-width: 1.0;"/><path d="M252.9688,271.6406 Q252.3906,271.9375 251.75,272.0859 Q251.1094,272.2344 250.4063,272.2344 Q247.9063,272.2344 246.5859,270.5859 Q245.2656,268.9375 245.2656,265.8125 Q245.2656,262.6875 246.5859,261.0313 Q247.9063,259.375 250.4063,259.375 Q251.1094,259.375 251.7578,259.5313 Q252.4063,259.6875 252.9688,259.9844 L252.9688,262.7031 Q252.3438,262.125 251.75,261.8516 Q251.1563,261.5781 250.5313,261.5781 Q249.1875,261.5781 248.5,262.6484 Q247.8125,263.7188 247.8125,265.8125 Q247.8125,267.9063 248.5,268.9766 Q249.1875,270.0469 250.5313,270.0469 Q251.1563,270.0469 251.75,269.7734 Q252.3438,269.5 252.9688,268.9219 L252.9688,271.6406 Z "/><text fill="#000000" font-family="sans-serif" font-size="12" lengthAdjust="spacingAndGlyphs" textLength="226" x="264" y="270.1543">HistoryDatasetCollectionAssociation</text><path d="M236,282 L236,281.5513 L245.8462,281.9541 L255.6923,281.6448 L265.5385,282.9989 L275.3846,281.4047 L285.2308,281.3707 L295.0769,282.9865 L304.9231,282.5606 L314.7692,281.9661 L324.6154,281.9614 L334.4615,281.2835 L344.3077,281.6086 L354.1538,282.8518 L364,282.7039 L373.8462,281.5239 L383.6923,281.9502 L393.5385,282.9394 L403.3846,281.5853 L413.2308,282.7603 L423.0769,281.0341 L432.9231,282.9842 L442.7692,281.8277 L452.6154,281.8145 L462.4615,281.5002 L472.3077,282.1842 L482.1538,281.7942 L492,282 " fill="#FFEFD5" style="stroke: #FF8C00; stroke-width: 1.5;"/><text fill="#000000" font-family="sans-serif" font-size="11" lengthAdjust="spacingAndGlyphs" textLength="242" x="241" y="296.2104">history_content_type = 'dataset_collection'</text><text fill="#000000" font-family="sans-serif" font-size="11" lengthAdjust="spacingAndGlyphs" textLength="17" x="241" y="309.0151">hid</text><path d="M236,315.6094 L236,315.6909 L245.8462,314.6097 L255.6923,316.3299 L265.5385,316.1481 L275.3846,314.7301 L285.2308,315.5751 L295.0769,315.0271 L304.9231,314.6688 L314.7692,315.7904 L324.6154,314.7985 L334.4615,316.5788 L344.3077,314.7152 L354.1538,315.0624 L364,315.5815 L373.8462,316.2774 L383.6923,316.4694 L393.5385,316.2849 L403.3846,314.7652 L413.2308,315.8593 L423.0769,315.5889 L432.9231,315.3536 L442.7692,315.2167 L452.6154,315.9485 L462.4615,314.945 L472.3077,315.7911 L482.1538,315.2912 L492,315.6094 " fill="#FFEFD5" style="stroke: #FF8C00; stroke-width: 1.5;"/><polygon fill="#FFEFD5" filter="url(#f1)" points="31.75,384.5,31.75,383.7645,41.9643,383.988,52.1786,384.2911,62.3929,385.1043,72.6071,384.7313,82.8214,385.1002,93.0357,385.133,103.25,384.9868,113.4643,385.0508,123.6786,385.0902,133.8929,384.4072,144.1071,384.7695,154.3214,385.1231,164.5357,384.7445,174.75,384.5,174.9155,384.5,174.7663,394.6341,174.1248,404.7682,174.4564,414.9023,174.3224,425.0365,175.4195,435.1706,174.75,445.3047,174.75,444.946,164.5357,445.3855,154.3214,444.6876,144.1071,445.3214,133.8929,446.0512,123.6786,445.527,113.4643,445.0732,103.25,445.7815,93.0357,445.4499,82.8214,445.1715,72.6071,445.2567,62.3929,445.3701,52.1786,445.4598,41.9643,444.6005,31.75,445.3047,31.5325,445.3047,32.0001,435.1706,32.3634,425.0365,32.2668,414.9023,31.6965,404.7682,31.5158,394.6341,31.75,384.5" style="stroke: #FF8C00; stroke-width: 1.5;"/><polygon fill="#ADD1B2" points="57.8954,403.162,57.2343,405.467,54.518,407.8488,53.152,409.7792,50.2906,410.6482,48.0315,410.9183,45.1721,411.4198,42.1851,410.7135,40.5049,409.2247,38.4433,406.8569,36.582,405.3376,35.2734,402.6692,35.2717,399.7994,36.2213,396.5399,37.1076,394.413,39.6616,392.6303,41.9435,389.9313,45.8165,389.8745,48.7845,389.3907,51.2035,391.0092,53.6914,392.6974,55.8814,394.541,56.65,397.2372,57.8403,398.9218,57.5774,402.4836" style="stroke: #FF8C00; stroke-width: 1.0;"/><path d="M49.7188,406.1406 Q49.1406,406.4375 48.5,406.5859 Q47.8594,406.7344 47.1563,406.7344 Q44.6563,406.7344 43.3359,405.0859 Q42.0156,403.4375 42.0156,400.3125 Q42.0156,397.1875 43.3359,395.5313 Q44.6563,393.875 47.1563,393.875 Q47.8594,393.875 48.5078,394.0313 Q49.1563,394.1875 49.7188,394.4844 L49.7188,397.2031 Q49.0938,396.625 48.5,396.3516 Q47.9063,396.0781 47.2813,396.0781 Q45.9375,396.0781 45.25,397.1484 Q44.5625,398.2188 44.5625,400.3125 Q44.5625,402.4063 45.25,403.4766 Q45.9375,404.5469 47.2813,404.5469 Q47.9063,404.5469 48.5,404.2734 Q49.0938,404 49.7188,403.4219 L49.7188,406.1406 Z "/><text fill="#000000" font-family="sans-serif" font-size="12" lengthAdjust="spacingAndGlyphs" textLength="111" x="60.75" y="404.6543">DatasetCollection</text><path d="M32.75,416.5 L32.75,416.3036 L42.8214,415.7945 L52.8929,416.5481 L62.9643,416.8421 L73.0357,415.6301 L83.1071,416.4235 L93.1786,416.4997 L103.25,415.7777 L113.3214,417.1368 L123.3929,417.1031 L133.4643,415.788 L143.5357,417.388 L153.6071,417.3226 L163.6786,417.4442 L173.75,416.5 " fill="#FFEFD5" style="stroke: #FF8C00; stroke-width: 1.5;"/><text fill="#000000" font-family="sans-serif" font-size="11" lengthAdjust="spacingAndGlyphs" textLength="83" x="37.75" y="430.7104">collection_type</text><path d="M32.75,437.3047 L32.75,437.6116 L42.8214,436.7018 L52.8929,438.2457 L62.9643,437.7293 L73.0357,437.4627 L83.1071,438.1424 L93.1786,437.2175 L103.25,436.6706 L113.3214,438.0955 L123.3929,436.3256 L133.4643,436.9948 L143.5357,436.864 L153.6071,436.7679 L163.6786,436.6136 L173.75,437.3047 " fill="#FFEFD5" style="stroke: #FF8C00; stroke-width: 1.5;"/><polygon fill="#FFEFD5" filter="url(#f1)" points="6.5,250,6.5,250.2901,16.7105,250.0348,26.9211,249.8696,37.1316,250.6484,47.3421,249.6336,57.5526,249.8616,67.7632,249.8479,77.9737,250.6728,88.1842,249.8859,98.3947,250.0886,108.6053,250.3346,118.8158,250.7253,129.0263,249.9431,139.2368,250.5575,149.4474,250.2615,159.6579,249.7236,169.8684,249.6978,180.0789,250.6749,190.2895,250.2252,200.5,250,200.2192,250,199.7862,260.5156,200.7782,271.0313,200.4172,281.5469,200.0338,292.0625,200.8353,302.5781,200.7179,313.0938,200.5,323.6094,200.5,323.7899,190.2895,323.5664,180.0789,323.3735,169.8684,323.068,159.6579,323.7722,149.4474,323.1585,139.2368,324.2981,129.0263,323.4087,118.8158,324.032,108.6053,323.1963,98.3947,322.9859,88.1842,324.2427,77.9737,323.4771,67.7632,323.0659,57.5526,323.5839,47.3421,323.106,37.1316,323.1788,26.9211,323.4307,16.7105,323.5179,6.5,323.6094,6.5063,323.6094,5.8015,313.0938,7.188,302.5781,6.4147,292.0625,6.6514,281.5469,6.0991,271.0313,7.0536,260.5156,6.5,250" style="stroke: #FF8C00; stroke-width: 1.5;"/><polygon fill="#ADD1B2" points="32.0517,268.0288,30.7144,270.8499,29.5678,272.7733,28.2842,275.4427,25.3092,275.596,23.2737,277.1828,20.0154,276.6331,18.1538,275.8247,15.4532,275.4769,13.4327,273.6651,12.1535,272.0018,10.1839,268.7268,9.8956,265.2386,11.0963,263.446,12.1595,261.1005,12.9568,259.0828,14.4285,257.3673,16.1458,255.9764,20.0124,255.6945,23.2963,254.9718,26.0248,256.5885,28.1215,258.0168,30.5683,259.1786,31.1953,261.9251,32.5128,263.8996,32.499,266.7248" style="stroke: #FF8C00; stroke-width: 1.0;"/><path d="M24.4688,271.6406 Q23.8906,271.9375 23.25,272.0859 Q22.6094,272.2344 21.9063,272.2344 Q19.4063,272.2344 18.0859,270.5859 Q16.7656,268.9375 16.7656,265.8125 Q16.7656,262.6875 18.0859,261.0313 Q19.4063,259.375 21.9063,259.375 Q22.6094,259.375 23.2578,259.5313 Q23.9063,259.6875 24.4688,259.9844 L24.4688,262.7031 Q23.8438,262.125 23.25,261.8516 Q22.6563,261.5781 22.0313,261.5781 Q20.6875,261.5781 20,262.6484 Q19.3125,263.7188 19.3125,265.8125 Q19.3125,267.9063 20,268.9766 Q20.6875,270.0469 22.0313,270.0469 Q22.6563,270.0469 23.25,269.7734 Q23.8438,269.5 24.4688,268.9219 L24.4688,271.6406 Z "/><text fill="#000000" font-family="sans-serif" font-size="12" lengthAdjust="spacingAndGlyphs" textLength="162" x="35.5" y="270.1543">DatasetCollectionElement</text><path d="M7.5,282 L7.5,281.3967 L17.6053,282.1207 L27.7105,282.8055 L37.8158,282.2416 L47.9211,281.2452 L58.0263,281.1984 L68.1316,282.2777 L78.2368,281.3525 L88.3421,281.3455 L98.4474,282.1351 L108.5526,281.9594 L118.6579,281.3904 L128.7632,282.0449 L138.8684,281.3817 L148.9737,281.226 L159.0789,281.5002 L169.1842,281.3257 L179.2895,282.6895 L189.3947,281.6125 L199.5,282 " fill="#FFEFD5" style="stroke: #FF8C00; stroke-width: 1.5;"/><text fill="#000000" font-family="sans-serif" font-size="11" lengthAdjust="spacingAndGlyphs" textLength="82" x="12.5" y="296.2104">element_index</text><text fill="#000000" font-family="sans-serif" font-size="11" lengthAdjust="spacingAndGlyphs" textLength="102" x="12.5" y="309.0151">element_identifier</text><path d="M7.5,315.6094 L7.5,315.3105 L17.6053,316.0786 L27.7105,315.5119 L37.8158,315.8039 L47.9211,315.047 L58.0263,315.5067 L68.1316,314.7852 L78.2368,314.7072 L88.3421,315.3319 L98.4474,314.8264 L108.5526,315.1779 L118.6579,315.6008 L128.7632,316.1895 L138.8684,315.308 L148.9737,315.513 L159.0789,316.0811 L169.1842,315.6464 L179.2895,316.4282 L189.3947,315.0279 L199.5,315.6094 " fill="#FFEFD5" style="stroke: #FF8C00; stroke-width: 1.5;"/><path d="M212.896,56.227 L212.5069,55.8902 L205.8033,63.0945 L199.3277,70.4962 L193.6236,78.5657 L186.6726,85.556 L180.2059,92.9654 L173.5894,100.2452 L167.2251,107.7432 L161.407,115.714 " fill="none" style="stroke: #FFA500; stroke-width: 1.0;"/><text fill="#FFEFD5" font-family="sans-serif" font-size="13" lengthAdjust="spacingAndGlyphs" textLength="8" x="197.716" y="76.0435">1</text><text fill="#FFEFD5" font-family="sans-serif" font-size="13" lengthAdjust="spacingAndGlyphs" textLength="7" x="157.4889" y="104.81">*</text><path d="M245.089,56.348 L245.691,56.6597 L249.9127,65.282 L254.056,73.8638 L258.2652,82.4797 L264.0579,91.9154 L267.345,100.0538 L271.8006,108.7973 L277.3684,118.1166 L282.053,126.9786 L285.2457,135.0682 L290.3954,144.171 L295.5273,153.2646 L299.12,161.5613 L305.0134,171.0492 L309.3748,179.7438 L312.878,187.9942 L317.7989,196.9785 L322.1974,205.6924 L326.9559,214.5927 L332.3478,223.821 L336.9612,232.6461 L340.3363,240.8301 L345.266,249.819 " fill="none" style="stroke: #FFA500; stroke-width: 1.0;"/><text fill="#FFEFD5" font-family="sans-serif" font-size="13" lengthAdjust="spacingAndGlyphs" textLength="8" x="237.756" y="76.194">1</text><text fill="#FFEFD5" font-family="sans-serif" font-size="13" lengthAdjust="spacingAndGlyphs" textLength="7" x="333.7083" y="238.9311">*</text><path d="M289.208,324.107 L288.889,323.4463 L280.042,327.9314 L271.722,333.5081 L262.2005,336.5961 L253.7962,341.9982 L244.7053,345.978 L235.8628,350.4725 L226.7381,354.3824 L217.5991,358.2625 L208.601,362.4347 L199.521,366.4372 L191.3397,372.3013 L181.8732,375.5031 L172.7564,379.4293 L164.176,384.4667 " fill="none" style="stroke: #FFA500; stroke-width: 1.0;"/><text fill="#FFEFD5" font-family="sans-serif" font-size="13" lengthAdjust="spacingAndGlyphs" textLength="8" x="266.9925" y="343.6053">1</text><text fill="#FFEFD5" font-family="sans-serif" font-size="13" lengthAdjust="spacingAndGlyphs" textLength="8" x="165.4874" y="373.3671">1</text><path d="M114.665,384.2607 L114.3582,384.2333 L114.8532,381.3912 L115.2417,378.5396 L115.1913,375.6489 L116.0096,372.8356 L115.942,369.9434 L116.1945,369.9522 L116.3823,366.8813 L116.3944,363.8043 L116.072,360.7156 L116.6804,357.6595 L116.4805,354.575 L116.672,354.5775 L116.7336,351.466 L116.4961,348.3507 L116.2436,345.2351 L116.5669,342.127 L116.2802,339.0111 L116.4723,339.0232 L116.2715,336.0416 L116.1719,333.0663 L115.7061,330.068 L115.5231,327.0875 L115.341,324.107 " fill="none" style="stroke: #FFA500; stroke-width: 1.0;"/><text fill="#FFEFD5" font-family="sans-serif" font-size="13" lengthAdjust="spacingAndGlyphs" textLength="8" x="106.8078" y="373.3673">1</text><text fill="#FFEFD5" font-family="sans-serif" font-size="13" lengthAdjust="spacingAndGlyphs" textLength="24" x="90.1494" y="343.6053">0..1</text><path d="M91.3443,324.107 L91.0577,324.0899 L91.2369,327.092 L91.2886,330.0864 L90.8191,333.0499 L90.9494,336.049 L90.4574,339.0111 L90.6873,339.0139 L90.3467,342.123 L90.2356,345.2349 L90.0538,348.3459 L90.2232,351.4612 L90.2683,354.575 L90.149,354.5711 L90.2321,357.6441 L90.2918,360.7164 L90.3462,363.7885 L90.7109,366.8709 L90.7768,369.9434 L91.0543,369.9667 L90.9442,372.8006 L91.5291,375.693 L91.2193,378.5101 L91.5847,381.384 L91.9829,384.2607 " fill="none" style="stroke: #FFA500; stroke-width: 1.0;"/><text fill="#FFEFD5" font-family="sans-serif" font-size="13" lengthAdjust="spacingAndGlyphs" textLength="7" x="80.5857" y="343.6053">*</text><text fill="#FFEFD5" font-family="sans-serif" font-size="13" lengthAdjust="spacingAndGlyphs" textLength="8" x="80.0853" y="373.3673">1</text><path d="M122.622,190.07 L122.7857,190.1035 L121.1743,200.1756 L118.1142,209.9514 L116.9643,220.1179 L114.1502,229.944 L112.5988,240.0284 L110.369,249.974 " fill="none" style="stroke: #FFA500; stroke-width: 1.0;"/><text fill="#FFEFD5" font-family="sans-serif" font-size="13" lengthAdjust="spacingAndGlyphs" textLength="8" x="111.5305" y="209.5621">1</text><text fill="#FFEFD5" font-family="sans-serif" font-size="13" lengthAdjust="spacingAndGlyphs" textLength="24" x="84.3918" y="238.8269">0..1</text></g></svg>