<?xml version="1.0" encoding="UTF-8" standalone="yes"?><svg xmlns="http://www.w3.org/2000/svg" xmlns:xlink="http://www.w3.org/1999/xlink" height="397px" style="width:583px;height:397px;" version="1.1" viewBox="0 0 583 397" width="583px"><defs><filter height="300%" id="f1" width="300%" x="-1" y="-1"><feGaussianBlur result="blurOut" stdDeviation="2.0"/><feColorMatrix in="blurOut" result="blurOut2" type="matrix" values="0 0 0 0 0 0 0 0 0 0 0 0 0 0 0 0 0 0 .4 0"/><feOffset dx="4.0" dy="4.0" in="blurOut2" result="blurOut3"/><feBlend in="SourceGraphic" in2="blurOut3" mode="normal"/></filter></defs><g><polygon fill="#FFFFFF" filter="url(#f1)" points="189.25,8.5,189.25,8.5882,199.5,8.8288,209.75,8.473,220,8.3011,230.25,8.7176,240.5,8.5223,250.75,9.2344,261,9.1001,271.25,7.9247,281.5,7.8075,291.75,8.9851,302,8.9135,312.25,9.1777,322.5,7.8827,332.75,8.8944,343,8.5708,353.25,8.5,353.8807,8.5,353.4793,18.7026,352.7931,28.9053,352.96,39.1079,352.8147,49.3105,352.9928,59.5132,353.6959,69.7158,353.0211,79.9185,353.1839,90.1211,352.844,100.3237,353.8466,110.5264,353.2258,120.729,352.5346,130.9316,353.7305,141.1343,353.794,151.3369,352.5791,161.5396,353.25,171.7422,353.25,172.3222,343,171.3626,332.75,172.148,322.5,171.0578,312.25,171.8635,302,171.2914,291.75,172.0074,281.5,171.1087,271.25,171.5436,261,171.2432,250.75,172.3202,240.5,171.083,230.25,171.1106,220,171.1396,209.75,172.2791,199.5,171.4423,189.25,171.7422,189.9516,171.7422,189.9701,161.5396,189.5508,151.3369,189.5035,141.1343,189.0733,130.9316,189.5617,120.729,189.3517,110.5264,188.5666,100.3237,188.7309,90.1211,189.6889,79.9185,189.7297,69.7158,189.6099,59.5132,188.8808,49.3105,189.9994,39.1079,189.0355,28.9053,189.9647,18.7026,189.25,8.5" style="stroke: #FF8C00; stroke-width: 1.5;"/><polygon fill="#A9DCDF" points="240.9338,27.1511,239.9673,30.288,237.9561,33.0347,235.4608,34.6277,232.3138,35.5664,229.8713,35.1068,227.8005,35.1425,225.1683,34.5419,223.2846,32.5564,222.1268,30.2949,220.763,27.8389,219.2136,24.3876,220.663,22.2678,220.4528,19.587,222.8134,16.8318,225.0307,14.3795,228.6045,13.1794,231.2546,14.1462,233.8692,13.4587,235.7293,14.4446,237.6757,16.4654,238.9616,18.0835,240.695,20.0503,241.4454,23.1879,241.1203,25.4331" style="stroke: #FF8C00; stroke-width: 1.0;"/><path d="M230.9094,19.8438 L229.7531,24.9219 L232.0813,24.9219 L230.9094,19.8438 Z M229.425,17.6094 L232.4094,17.6094 L235.7688,30 L233.3156,30 L232.55,26.9375 L229.2688,26.9375 L228.5188,30 L226.0813,30 L229.425,17.6094 Z "/><text fill="#000000" font-family="sans-serif" font-size="12" font-style="italic" lengthAdjust="spacingAndGlyphs" textLength="73" x="250.7" y="28.6543">ObjectStore</text><path d="M190.25,40.5 L190.25,39.5349 L200.375,40.1118 L210.5,40.4494 L220.625,40.1651 L230.75,39.9339 L240.875,40.9257 L251,40.1611 L261.125,40.6682 L271.25,40.5642 L281.375,41.1522 L291.5,40.3535 L301.625,41.1704 L311.75,41.333 L321.875,40.6048 L332,40.628 L342.125,40.6065 L352.25,40.5 " fill="#FFFFFF" style="stroke: #FF8C00; stroke-width: 1.5;"/><path d="M190.25,48.5 L190.25,48.9855 L200.375,49.3499 L210.5,49.012 L220.625,48.3096 L230.75,48.1163 L240.875,48.7064 L251,49.4284 L261.125,48.3 L271.25,47.808 L281.375,48.2949 L291.5,48.8203 L301.625,48.089 L311.75,47.6758 L321.875,48.8466 L332,49.3664 L342.125,49.42 L352.25,48.5 " fill="#FFFFFF" style="stroke: #FF8C00; stroke-width: 1.5;"/><text fill="#000000" font-family="sans-serif" font-size="11" lengthAdjust="spacingAndGlyphs" textLength="59" x="195.25" y="62.7104">exists(obj)</text><text fill="#000000" font-family="sans-serif" font-size="11" lengthAdjust="spacingAndGlyphs" textLength="80" x="195.25" y="75.5151">file_ready(obj)</text><text fill="#000000" font-family="sans-serif" font-size="11" lengthAdjust="spacingAndGlyphs" textLength="61" x="195.25" y="88.3198">create(obj)</text><text fill="#000000" font-family="sans-serif" font-size="11" lengthAdjust="spacingAndGlyphs" textLength="47" x="195.25" y="101.1245">size(obj)</text><text fill="#000000" font-family="sans-serif" font-size="11" lengthAdjust="spacingAndGlyphs" textLength="60" x="195.25" y="113.9292">delete(obj)</text><text fill="#000000" font-family="sans-serif" font-size="11" lengthAdjust="spacingAndGlyphs" textLength="74" x="195.25" y="126.7339">get_data(obj)</text><text fill="#000000" font-family="sans-serif" font-size="11" lengthAdjust="spacingAndGlyphs" textLength="98" x="195.25" y="139.5386">get_filename(obj)</text><text fill="#000000" font-family="sans-serif" font-size="11" lengthAdjust="spacingAndGlyphs" textLength="120" x="195.25" y="152.3433">update_from_file(obj)</text><text fill="#000000" font-family="sans-serif" font-size="11" lengthAdjust="spacingAndGlyphs" textLength="152" x="195.25" y="165.1479">get_store_usage_percent()</text><polygon fill="#FFFFFF" filter="url(#f1)" points="20.25,232,20.25,231.7827,30.4038,232.0629,40.5577,232.1396,50.7115,232.0507,60.8654,231.3378,71.0192,232.2028,81.1731,231.3065,91.3269,232.1451,101.4808,232.2539,111.6346,231.2533,121.7885,232.114,131.9423,231.8709,142.0962,231.7164,152.25,232,151.8673,232,152.1065,241.6,152.0999,251.2,152.1484,260.8,152.1514,270.4,152.25,280,152.25,280.06,142.0962,279.9127,131.9423,280.0137,121.7885,280.1795,111.6346,280.3224,101.4808,280.045,91.3269,280.0561,81.1731,280.5286,71.0192,280.0343,60.8654,279.7063,50.7115,279.6876,40.5577,280.157,30.4038,280.7494,20.25,280,20.4391,280,20.4502,270.4,19.8919,260.8,19.9445,251.2,19.7046,241.6,20.25,232" style="stroke: #FF8C00; stroke-width: 1.5;"/><polygon fill="#ADD1B2" points="46.5543,250.9217,43.9903,253.6137,41.7187,256.1577,40.2681,258.3461,36.5769,259.0037,32.8869,258.5287,30.56,258.0984,27.4259,256.0718,26.0207,254.6654,24.662,251.3396,23.8012,249.1076,24.9895,246.6346,25.2329,243.8576,25.9134,241.6806,27.9579,239.4127,30.7597,237.2464,33.643,236.913,37.2754,237.0682,40.1172,237.708,42.6618,239.9277,45.4224,242.683,46.4965,245.2136,46.4478,247.8907,45.4168,250.5239" style="stroke: #FF8C00; stroke-width: 1.0;"/><path d="M38.2188,253.6406 Q37.6406,253.9375 37,254.0859 Q36.3594,254.2344 35.6563,254.2344 Q33.1563,254.2344 31.8359,252.5859 Q30.5156,250.9375 30.5156,247.8125 Q30.5156,244.6875 31.8359,243.0313 Q33.1563,241.375 35.6563,241.375 Q36.3594,241.375 37.0078,241.5313 Q37.6563,241.6875 38.2188,241.9844 L38.2188,244.7031 Q37.5938,244.125 37,243.8516 Q36.4063,243.5781 35.7813,243.5781 Q34.4375,243.5781 33.75,244.6484 Q33.0625,245.7188 33.0625,247.8125 Q33.0625,249.9063 33.75,250.9766 Q34.4375,252.0469 35.7813,252.0469 Q36.4063,252.0469 37,251.7734 Q37.5938,251.5 38.2188,250.9219 L38.2188,253.6406 Z "/><text fill="#000000" font-family="sans-serif" font-size="12" lengthAdjust="spacingAndGlyphs" textLength="100" x="49.25" y="252.1543">DiskObjectStore</text><path d="M21.25,264 L21.25,263.55 L31.25,264.5606 L41.25,263.905 L51.25,263.6218 L61.25,264.8505 L71.25,264.9117 L81.25,264.3346 L91.25,263.8384 L101.25,264.9878 L111.25,264.6327 L121.25,264.0633 L131.25,264.6994 L141.25,263.2016 L151.25,264 " fill="#FFFFFF" style="stroke: #FF8C00; stroke-width: 1.5;"/><path d="M21.25,272 L21.25,272.4708 L31.25,272.6998 L41.25,272.3493 L51.25,272.6275 L61.25,271.285 L71.25,271.7151 L81.25,271.2851 L91.25,272.944 L101.25,271.1562 L111.25,271.0254 L121.25,271.6171 L131.25,272.1329 L141.25,272.7478 L151.25,272 " fill="#FFFFFF" style="stroke: #FF8C00; stroke-width: 1.5;"/><polygon fill="#FFFFFF" filter="url(#f1)" points="197,232,197,232.2963,206.9333,232.6073,216.8667,231.6992,226.8,232.4831,236.7333,231.6492,246.6667,232.0469,256.6,231.5853,266.5333,231.5708,276.4667,232.4858,286.4,231.7129,296.3333,231.5911,306.2667,231.9873,316.2,232.2467,326.1333,232.075,336.0667,232.1542,346,232,345.9447,232,345.8925,241.6,346.3839,251.2,345.9737,260.8,346.1187,270.4,346,280,346,280.4106,336.0667,279.7534,326.1333,280.1383,316.2,279.4963,306.2667,279.5132,296.3333,280.5996,286.4,280.0029,276.4667,279.6017,266.5333,279.8274,256.6,280.377,246.6667,279.857,236.7333,279.4163,226.8,280.1397,216.8667,279.7448,206.9333,279.819,197,280,196.948,280,196.9173,270.4,197.507,260.8,196.4362,251.2,197.3063,241.6,197,232" style="stroke: #FF8C00; stroke-width: 1.5;"/><polygon fill="#A9DCDF" points="223.2874,250.5022,221.2951,253.3353,218.8705,256.0612,216.589,257.413,214.7165,258.0097,212.236,259.1962,210.3011,258.2221,206.8998,257.5627,203.6625,255.968,202.4043,252.9356,201.5775,249.7121,201.3099,246.8149,201.9032,244.3335,203.9905,241.4431,205.5395,239.6474,207.6345,237.4294,210.0239,236.8783,213.0084,236.9386,215.8461,237.8635,218.0391,238.2212,219.4113,239.7501,220.9123,241.158,221.682,244.0846,222.1811,246.1437,222.7668,248.9179" style="stroke: #FF8C00; stroke-width: 1.0;"/><path d="M212.1094,243.3438 L210.9531,248.4219 L213.2813,248.4219 L212.1094,243.3438 Z M210.625,241.1094 L213.6094,241.1094 L216.9688,253.5 L214.5156,253.5 L213.75,250.4375 L210.4688,250.4375 L209.7188,253.5 L207.2813,253.5 L210.625,241.1094 Z "/><text fill="#000000" font-family="sans-serif" font-size="12" font-style="italic" lengthAdjust="spacingAndGlyphs" textLength="117" x="226" y="252.1543">NestedObjectStore</text><path d="M198,264 L198,264.9951 L207.8,264.9465 L217.6,263.5343 L227.4,263.0442 L237.2,264.3524 L247,264.4781 L256.8,263.0495 L266.6,263.8747 L276.4,264.3703 L286.2,264.3723 L296,263.6196 L305.8,263.0171 L315.6,264.046 L325.4,264.116 L335.2,263.1132 L345,264 " fill="#FFFFFF" style="stroke: #FF8C00; stroke-width: 1.5;"/><path d="M198,272 L198,272.2306 L207.8,272.1153 L217.6,271.2995 L227.4,272.7134 L237.2,272.4577 L247,272.5956 L256.8,271.8996 L266.6,271.8694 L276.4,272.1069 L286.2,272.0908 L296,272.0389 L305.8,271.4901 L315.6,271.6502 L325.4,271.2591 L335.2,272.1481 L345,272 " fill="#FFFFFF" style="stroke: #FF8C00; stroke-width: 1.5;"/><polygon fill="#FFFFFF" filter="url(#f1)" points="381.25,232,381.25,232.2805,391.4167,231.7086,401.5833,232.6243,411.75,232.3242,421.9167,232.1554,432.0833,231.32,442.25,232.567,452.4167,232.1523,462.5833,231.9855,472.75,232.5573,482.9167,231.5349,493.0833,232.7442,503.25,232,502.7906,232,502.8783,241.6,503.3915,251.2,503.5453,260.8,503.743,270.4,503.25,280,503.25,280.4725,493.0833,280.2215,482.9167,280.2321,472.75,279.527,462.5833,279.4379,452.4167,279.8884,442.25,279.7654,432.0833,279.2921,421.9167,279.4754,411.75,280.4828,401.5833,279.9509,391.4167,279.9031,381.25,280,381.0953,280,380.8371,270.4,381.987,260.8,381.4258,251.2,380.7436,241.6,381.25,232" style="stroke: #FF8C00; stroke-width: 1.5;"/><polygon fill="#ADD1B2" points="407.0112,251.6961,405.9295,254.2545,404.3926,255.8867,402.1884,257.1277,399.4122,258.5793,396.951,259.2835,393.2191,259.0709,390.3403,257.6486,387.6313,255.3044,386.8778,252.9245,385.7821,250.937,385.0857,247.4922,386.2918,244.1668,387.108,241.2343,389.1206,238.9648,391.4501,238.1484,394.4147,236.9691,396.7124,236.4964,399.0583,237.6043,401.6889,238.7013,403.492,240.1629,405.3773,243.1915,406.8186,245.7607,407.3437,247.6772,407.5892,250.6157" style="stroke: #FF8C00; stroke-width: 1.0;"/><path d="M399.2188,253.6406 Q398.6406,253.9375 398,254.0859 Q397.3594,254.2344 396.6563,254.2344 Q394.1563,254.2344 392.8359,252.5859 Q391.5156,250.9375 391.5156,247.8125 Q391.5156,244.6875 392.8359,243.0313 Q394.1563,241.375 396.6563,241.375 Q397.3594,241.375 398.0078,241.5313 Q398.6563,241.6875 399.2188,241.9844 L399.2188,244.7031 Q398.5938,244.125 398,243.8516 Q397.4063,243.5781 396.7813,243.5781 Q395.4375,243.5781 394.75,244.6484 Q394.0625,245.7188 394.0625,247.8125 Q394.0625,249.9063 394.75,250.9766 Q395.4375,252.0469 396.7813,252.0469 Q397.4063,252.0469 398,251.7734 Q398.5938,251.5 399.2188,250.9219 L399.2188,253.6406 Z "/><text fill="#000000" font-family="sans-serif" font-size="12" lengthAdjust="spacingAndGlyphs" textLength="90" x="410.25" y="252.1543">S3ObjectStore</text><path d="M382.25,264 L382.25,263.8876 L392.25,263.5065 L402.25,263.4019 L412.25,264.7432 L422.25,263.9996 L432.25,263.5317 L442.25,263.441 L452.25,263.3874 L462.25,264.8653 L472.25,264.0966 L482.25,264.1831 L492.25,263.1608 L502.25,264 " fill="#FFFFFF" style="stroke: #FF8C00; stroke-width: 1.5;"/><path d="M382.25,272 L382.25,272.1005 L392.25,272.5331 L402.25,271.4711 L412.25,272.9648 L422.25,272.0302 L432.25,271.9863 L442.25,272.0089 L452.25,272.6487 L462.25,272.1771 L472.25,272.4068 L482.25,271.8858 L492.25,271.279 L502.25,272 " fill="#FFFFFF" style="stroke: #FF8C00; stroke-width: 1.5;"/><polygon fill="#FFFFFF" filter="url(#f1)" points="6,340,6,340.287,16.2143,340.0943,26.4286,339.7098,36.6429,339.6768,46.8571,339.8385,57.0714,340.6591,67.2857,339.9346,77.5,339.8379,87.7143,340.3423,97.9286,340.3491,108.1429,339.9456,118.3571,339.5098,128.5714,339.4654,138.7857,339.4249,149,340,148.3528,340,149.73,349.6,148.7309,359.2,148.4548,368.8,149.0512,378.4,149,388,149,388.3403,138.7857,387.6083,128.5714,388.4425,118.3571,388.6555,108.1429,387.3695,97.9286,388.7135,87.7143,388.4366,77.5,387.2794,67.2857,388.0273,57.0714,388.023,46.8571,387.9402,36.6429,387.8739,26.4286,387.3858,16.2143,387.5389,6,388,5.5178,388,5.755,378.4,6.1001,368.8,5.762,359.2,6.1001,349.6,6,340" style="stroke: #FF8C00; stroke-width: 1.5;"/><polygon fill="#ADD1B2" points="30.9513,359.291,30.2382,362.6283,28.1234,363.4969,26.6805,365.3605,24.9888,366.4922,21.7205,367.6533,18.1455,367.1939,15.9046,365.9342,14.1776,364.1206,11.6764,362.7761,10.9957,359.0349,9.8432,356.9853,9.7122,354.6909,11.3049,351.2701,11.7881,348.9972,14.5448,347.6671,17.0726,345.5692,20.1151,344.6616,23.7646,344.8907,26.6798,346.2685,28.636,347.2117,29.986,349.2986,30.9315,351.192,32.0776,353.0085,32.6064,356.6187" style="stroke: #FF8C00; stroke-width: 1.0;"/><path d="M23.9688,361.6406 Q23.3906,361.9375 22.75,362.0859 Q22.1094,362.2344 21.4063,362.2344 Q18.9063,362.2344 17.5859,360.5859 Q16.2656,358.9375 16.2656,355.8125 Q16.2656,352.6875 17.5859,351.0313 Q18.9063,349.375 21.4063,349.375 Q22.1094,349.375 22.7578,349.5313 Q23.4063,349.6875 23.9688,349.9844 L23.9688,352.7031 Q23.3438,352.125 22.75,351.8516 Q22.1563,351.5781 21.5313,351.5781 Q20.1875,351.5781 19.5,352.6484 Q18.8125,353.7188 18.8125,355.8125 Q18.8125,357.9063 19.5,358.9766 Q20.1875,360.0469 21.5313,360.0469 Q22.1563,360.0469 22.75,359.7734 Q23.3438,359.5 23.9688,358.9219 L23.9688,361.6406 Z "/><text fill="#000000" font-family="sans-serif" font-size="12" lengthAdjust="spacingAndGlyphs" textLength="111" x="35" y="360.1543">IRODSObjectStore</text><path d="M7,372 L7,372.4287 L17.0714,371.4243 L27.1429,372.3609 L37.2143,372.5011 L47.2857,371.5876 L57.3571,372.3438 L67.4286,372.9237 L77.5,371.6524 L87.5714,371.4517 L97.6429,372.4339 L107.7143,372.8063 L117.7857,371.033 L127.8571,371.78 L137.9286,371.8549 L148,372 " fill="#FFFFFF" style="stroke: #FF8C00; stroke-width: 1.5;"/><path d="M7,380 L7,379.8924 L17.0714,379.582 L27.1429,379.5432 L37.2143,379.3844 L47.2857,380.002 L57.3571,380.4307 L67.4286,380.5609 L77.5,380.9108 L87.5714,379.2949 L97.6429,380.3958 L107.7143,379.0074 L117.7857,379.3719 L127.8571,379.8785 L137.9286,379.4848 L148,380 " fill="#FFFFFF" style="stroke: #FF8C00; stroke-width: 1.5;"/><polygon fill="#FFFFFF" filter="url(#f1)" points="184,340,184,339.4265,193.7222,339.8451,203.4444,339.7842,213.1667,339.3548,222.8889,339.4005,232.6111,339.741,242.3333,340.4346,252.0556,340.0848,261.7778,340.5949,271.5,340.0434,281.2222,340.5714,290.9444,340.5363,300.6667,339.691,310.3889,339.3458,320.1111,340.0806,329.8333,339.7836,339.5556,340.6949,349.2778,339.7706,359,340,359.3136,340,358.5299,349.6,359.6168,359.2,359.4732,368.8,358.636,378.4,359,388,359,387.3212,349.2778,388.7184,339.5556,387.4222,329.8333,388.7144,320.1111,388.4449,310.3889,388.7465,300.6667,388.5095,290.9444,387.3701,281.2222,387.9924,271.5,388.4315,261.7778,388.0802,252.0556,387.8246,242.3333,388.0401,232.6111,387.7802,222.8889,388.5231,213.1667,387.2946,203.4444,387.6539,193.7222,387.8314,184,388,184.1296,388,184.6647,378.4,183.9321,368.8,184.0786,359.2,183.5108,349.6,184,340" style="stroke: #FF8C00; stroke-width: 1.5;"/><polygon fill="#ADD1B2" points="209.0734,358.8423,208.4885,360.6722,207.4784,362.9156,206.2585,365.1291,203.8564,366.2205,200.2427,366.7998,197.9601,367.0917,195.9172,367.1456,192.9452,365.3611,190.7657,363.2512,188.8183,360.1611,188.4434,358.1478,188.6138,354.4561,188.746,352.0707,189.0113,349.9536,191.444,348.7091,193.4438,347.1844,195.0894,346.2978,197.7362,345.7485,200.9734,345.4409,203.5039,345.2997,206.2988,347.2699,207.6289,349.5969,209.6782,351.6525,210.0922,353.6989,209.7676,355.718,209.9772,359.2024" style="stroke: #FF8C00; stroke-width: 1.0;"/><path d="M201.9688,361.6406 Q201.3906,361.9375 200.75,362.0859 Q200.1094,362.2344 199.4063,362.2344 Q196.9063,362.2344 195.5859,360.5859 Q194.2656,358.9375 194.2656,355.8125 Q194.2656,352.6875 195.5859,351.0313 Q196.9063,349.375 199.4063,349.375 Q200.1094,349.375 200.7578,349.5313 Q201.4063,349.6875 201.9688,349.9844 L201.9688,352.7031 Q201.3438,352.125 200.75,351.8516 Q200.1563,351.5781 199.5313,351.5781 Q198.1875,351.5781 197.5,352.6484 Q196.8125,353.7188 196.8125,355.8125 Q196.8125,357.9063 197.5,358.9766 Q198.1875,360.0469 199.5313,360.0469 Q200.1563,360.0469 200.75,359.7734 Q201.3438,359.5 201.9688,358.9219 L201.9688,361.6406 Z "/><text fill="#000000" font-family="sans-serif" font-size="12" lengthAdjust="spacingAndGlyphs" textLength="143" x="213" y="360.1543">DistributedObjectStore</text><path d="M185,372 L185,372.9042 L195.1765,371.5771 L205.3529,371.8381 L215.5294,372.2511 L225.7059,371.6824 L235.8824,371.405 L246.0588,371.4965 L256.2353,372.1195 L266.4118,371.9123 L276.5882,372.1904 L286.7647,372.1088 L296.9412,372.5341 L307.1176,371.7088 L317.2941,372.8989 L327.4706,371.629 L337.6471,371.7808 L347.8235,372.6589 L358,372 " fill="#FFFFFF" style="stroke: #FF8C00; stroke-width: 1.5;"/><path d="M185,380 L185,379.3565 L195.1765,380.3277 L205.3529,379.6352 L215.5294,379.2159 L225.7059,379.8967 L235.8824,379.8843 L246.0588,379.4355 L256.2353,379.9982 L266.4118,379.3504 L276.5882,380.8157 L286.7647,379.9068 L296.9412,379.1317 L307.1176,380.2197 L317.2941,380.0181 L327.4706,379.6526 L337.6471,380.6044 L347.8235,380.4491 L358,380 " fill="#FFFFFF" style="stroke: #FF8C00; stroke-width: 1.5;"/><polygon fill="#FFFFFF" filter="url(#f1)" points="394.25,340,394.25,340.6629,404.25,339.5444,414.25,340.4711,424.25,340.3458,434.25,339.4849,444.25,340.657,454.25,340.1544,464.25,340.0505,474.25,340.0005,484.25,340.7004,494.25,340.3787,504.25,340.3731,514.25,340.4569,524.25,340.2722,534.25,339.4126,544.25,340.0785,554.25,340.6591,564.25,340.1812,574.25,340,574.8926,340,574.4871,349.6,573.7453,359.2,574.91,368.8,574.187,378.4,574.25,388,574.25,387.3144,564.25,388.0036,554.25,388.6709,544.25,388.6935,534.25,388.3689,524.25,387.8195,514.25,387.9011,504.25,387.8646,494.25,387.3881,484.25,388.4756,474.25,387.7933,464.25,388.3961,454.25,387.3635,444.25,388.3014,434.25,387.4663,424.25,387.5477,414.25,387.7826,404.25,388.5829,394.25,388,393.9117,388,394.2329,378.4,394.0699,368.8,393.9493,359.2,394.1433,349.6,394.25,340" style="stroke: #FF8C00; stroke-width: 1.5;"/><polygon fill="#ADD1B2" points="419.7156,359.0218,418.9347,361.6184,417.8018,363.3834,415.2939,364.4511,412.8956,366.8337,409.8712,366.7025,406.6778,366.6639,404.1583,365.4123,401.9386,363.2846,399.5825,360.9602,398.4822,357.6298,398.2689,355.1197,399.4617,351.9782,400.5468,349.0145,402.86,347.7397,404.5377,345.545,408.0947,345.0222,410.399,345.2783,412.4595,345.6669,415.3272,347.6314,417.8606,349.6148,419.2582,352.4166,420.2437,354.9003,419.5716,358.4276" style="stroke: #FF8C00; stroke-width: 1.0;"/><path d="M412.2188,361.6406 Q411.6406,361.9375 411,362.0859 Q410.3594,362.2344 409.6563,362.2344 Q407.1563,362.2344 405.8359,360.5859 Q404.5156,358.9375 404.5156,355.8125 Q404.5156,352.6875 405.8359,351.0313 Q407.1563,349.375 409.6563,349.375 Q410.3594,349.375 411.0078,349.5313 Q411.6563,349.6875 412.2188,349.9844 L412.2188,352.7031 Q411.5938,352.125 411,351.8516 Q410.4063,351.5781 409.7813,351.5781 Q408.4375,351.5781 407.75,352.6484 Q407.0625,353.7188 407.0625,355.8125 Q407.0625,357.9063 407.75,358.9766 Q408.4375,360.0469 409.7813,360.0469 Q410.4063,360.0469 411,359.7734 Q411.5938,359.5 412.2188,358.9219 L412.2188,361.6406 Z "/><text fill="#000000" font-family="sans-serif" font-size="12" lengthAdjust="spacingAndGlyphs" textLength="148" x="423.25" y="360.1543">HierarchicalObjectStore</text><path d="M395.25,372 L395.25,372.1205 L405.1389,372.2727 L415.0278,371.806 L424.9167,371.7141 L434.8056,371.8492 L444.6944,371.324 L454.5833,372.3079 L464.4722,371.9473 L474.3611,371.2227 L484.25,372.9998 L494.1389,372.1142 L504.0278,371.8177 L513.9167,372.8499 L523.8056,372.5174 L533.6944,372.7962 L543.5833,371.868 L553.4722,371.6875 L563.3611,371.7962 L573.25,372 " fill="#FFFFFF" style="stroke: #FF8C00; stroke-width: 1.5;"/><path d="M395.25,380 L395.25,379.5807 L405.1389,379.1216 L415.0278,380.3779 L424.9167,379.948 L434.8056,380.3199 L444.6944,380.422 L454.5833,380.53 L464.4722,379.0038 L474.3611,379.9261 L484.25,379.2644 L494.1389,379.7665 L504.0278,380.9114 L513.9167,380.7408 L523.8056,379.2219 L533.6944,379.197 L543.5833,380.3998 L553.4722,379.9819 L563.3611,379.2334 L573.25,380 " fill="#FFFFFF" style="stroke: #FF8C00; stroke-width: 1.5;"/><path d="M173.764,177.42 L173.7617,177.4174 L165.8212,183.8836 L158.6387,191.2049 L150.7089,197.6832 L143.7884,205.2999 L135.4801,211.3513 L128.0787,218.4257 L119.6583,224.3505 L112.515,231.716 " fill="none" style="stroke: #FFA500; stroke-width: 1.0;"/><polygon fill="none" points="169.419,171.917,169.3664,171.7886,173.4171,170.497,177.2883,168.7672,181.2168,167.1772,185.0304,165.3067,189.029,163.888,189.1202,163.9389,187.0805,167.6538,185.087,171.3944,182.8992,175.0267,180.7227,178.6653,178.706,182.393,178.5616,182.265,176.9379,180.3769,174.8581,178.0846,173.0339,176.0188,171.1712,173.919,169.419,171.917" style="stroke: #FFA500; stroke-width: 1.0;"/><path d="M271.25,191.809 L271.135,191.809 L271.0809,199.7892 L271.4225,207.7694 L271.4687,215.7496 L271.0478,223.7298 L271.25,231.71 " fill="none" style="stroke: #FFA500; stroke-width: 1.0;"/><polygon fill="none" points="264.25,191.559,264.1393,191.5203,265.8665,187.6348,266.8897,183.5029,268.2928,179.504,269.7763,175.5332,271.25,171.559,271.3265,171.5858,272.6891,175.5727,274.2484,179.6285,275.5406,183.5907,276.6573,187.4916,278.25,191.559,278.25,191.7183,275.45,191.7543,272.65,191.807,269.85,191.6689,267.05,191.396,264.25,191.559" style="stroke: #FFA500; stroke-width: 1.0;"/><path d="M368.14,183.924 L368.4256,184.2218 L375.4705,190.9703 L383.0308,198.2564 L389.8834,204.8044 L396.8557,211.4774 L403.8509,218.1741 L411.4615,225.5126 L418.114,231.852 " fill="none" style="stroke: #FFA500; stroke-width: 1.0;"/><polygon fill="none" points="363.084,188.773,362.8813,188.6701,361.0979,184.9594,359.4436,181.3143,357.3187,177.4303,355.3763,173.6389,353.494,169.878,353.5539,170.0093,357.3578,171.6532,361.1636,173.3014,365.1268,175.2948,368.9294,176.9359,372.774,178.669,372.8703,178.7613,370.8907,180.7423,369.067,182.8726,366.835,184.6115,364.9977,186.7289,363.084,188.773" style="stroke: #FFA500; stroke-width: 1.0;"/><path d="M82.5971,300.0236 L82.7515,300.0367 L81.9543,307.9572 L81.4709,315.9043 L80.584,323.8171 L79.8215,331.7405 L79.2301,339.6784 " fill="none" style="stroke: #FFA500; stroke-width: 1.0;"/><polygon fill="none" points="75.6301,299.3365,75.8191,299.4212,77.3596,295.4675,79.0293,291.5716,80.9111,287.7708,82.5369,283.8553,84.2971,280,84.1264,279.956,85.4159,284.1202,86.443,288.2168,87.3795,292.2901,88.4659,296.402,89.5799,300.521,89.5699,300.4029,86.7714,300.0656,83.9902,299.9325,81.1899,299.5731,78.4014,299.3537,75.6301,299.3365" style="stroke: #FFA500; stroke-width: 1.0;"/><path d="M271.25,300.0236 L271.3594,300.0236 L271.4953,307.9546 L271.5529,315.8855 L271.4724,323.8165 L271.3648,331.7474 L271.25,339.6784 " fill="none" style="stroke: #FFA500; stroke-width: 1.0;"/><polygon fill="none" points="264.25,300.0005,264.3647,300.0407,265.5984,295.9823,267.0542,292.0018,268.4977,288.0169,269.8363,283.9953,271.25,280,271.1892,279.9787,272.8335,284.0643,274.2219,288.0603,275.5346,292.0299,276.7591,295.9685,278.25,300.0004,278.25,300.0981,275.45,299.7766,272.65,300.0775,269.85,300.0033,267.05,300.1968,264.25,300.0005" style="stroke: #FFA500; stroke-width: 1.0;"/><path d="M335.496,288.9724 L335.6885,289.3593 L344.8876,293.7903 L354.0124,298.0721 L363.2637,302.6079 L372.6623,307.4399 L382.1793,312.5096 L390.8858,315.9508 L400.701,321.62 L409.9069,326.0647 L418.8907,330.0631 L428.6516,335.623 L437.755,339.8617 " fill="none" style="stroke: #FFA500; stroke-width: 1.0;"/><polygon fill="none" points="332.254,295.178,332.3107,295.2332,329.2179,292.0655,326.3408,289.108,323.2472,285.9395,320.3045,282.918,317.468,280,317.4652,279.9781,321.6817,280.5996,325.8496,280.8352,330.0615,281.4202,334.2613,281.9089,338.492,282.644,338.3071,282.552,337.3801,285.2183,335.9513,287.6349,334.6705,290.1252,333.6892,292.7645,332.254,295.178" style="stroke: #FFA500; stroke-width: 1.0;"/></g></svg>