<?xml version="1.0" encoding="UTF-8" standalone="yes"?><svg xmlns="http://www.w3.org/2000/svg" xmlns:xlink="http://www.w3.org/1999/xlink" height="397px" style="width:583px;height:397px;" version="1.1" viewBox="0 0 583 397" width="583px"><defs><filter height="300%" id="f1" width="300%" x="-1" y="-1"><feGaussianBlur result="blurOut" stdDeviation="2.0"/><feColorMatrix in="blurOut" result="blurOut2" type="matrix" values="0 0 0 0 0 0 0 0 0 0 0 0 0 0 0 0 0 0 .4 0"/><feOffset dx="4.0" dy="4.0" in="blurOut2" result="blurOut3"/><feBlend in="SourceGraphic" in2="blurOut3" mode="normal"/></filter></defs><g><polygon fill="#FFEFD5" filter="url(#f1)" points="189.25,8.5,189.25,8.2192,199.5,8.8134,209.75,8.5874,220,8.8331,230.25,8.0297,240.5,8.8012,250.75,8.3475,261,8.585,271.25,9.2459,281.5,7.7985,291.75,8.3404,302,7.7815,312.25,8.5139,322.5,8.4587,332.75,8.0655,343,9.0643,353.25,8.5,352.9246,8.5,353.4839,18.7026,353.1269,28.9053,353.854,39.1079,353.6272,49.3105,353.11,59.5132,352.8488,69.7158,353.8627,79.9185,353.3843,90.1211,353.8633,100.3237,352.618,110.5264,352.6376,120.729,352.8547,130.9316,353.6944,141.1343,353.6081,151.3369,353.5557,161.5396,353.25,171.7422,353.25,171.7834,343,172.0377,332.75,172.3253,322.5,171.3402,312.25,171.1355,302,171.8791,291.75,172.3987,281.5,171.6377,271.25,171.7303,261,171.7356,250.75,171.4442,240.5,171.7184,230.25,172.2873,220,171.7285,209.75,171.8184,199.5,171.5826,189.25,171.7422,189.2468,171.7422,189.9381,161.5396,188.9124,151.3369,188.9583,141.1343,189.45,130.9316,188.6208,120.729,189.9891,110.5264,188.5135,100.3237,189.369,90.1211,188.7815,79.9185,188.5605,69.7158,188.7136,59.5132,189.2083,49.3105,189.1454,39.1079,188.5595,28.9053,189.7504,18.7026,189.25,8.5" style="stroke: #FF8C00; stroke-width: 1.5;"/><polygon fill="#A9DCDF" points="241.6371,26.7399,240.4614,29.717,239.0312,32.1568,236.8332,33.6785,234.7977,34.1474,231.4329,35.1738,227.7492,35.7305,224.4908,33.9425,222.7676,31.8322,220.5386,29.6047,219.8117,26.8706,219.2892,23.7642,220.6185,21.4728,222.2575,18.656,223.0731,15.8358,226.3885,14.3173,229.434,13.4613,233.2601,13.7529,235.1114,14.5898,237.027,16.0604,239.4052,17.1317,240.422,19.8649,241.9255,21.7684,242.3239,25.4666" style="stroke: #FF8C00; stroke-width: 1.0;"/><path d="M230.9094,19.8438 L229.7531,24.9219 L232.0813,24.9219 L230.9094,19.8438 Z M229.425,17.6094 L232.4094,17.6094 L235.7688,30 L233.3156,30 L232.55,26.9375 L229.2688,26.9375 L228.5188,30 L226.0813,30 L229.425,17.6094 Z "/><text fill="#000000" font-family="sans-serif" font-size="12" font-style="italic" lengthAdjust="spacingAndGlyphs" textLength="73" x="250.7" y="28.6543">ObjectStore</text><path d="M190.25,40.5 L190.25,40.0116 L200.375,41.4766 L210.5,40.0429 L220.625,39.5051 L230.75,41.1922 L240.875,41.4215 L251,40.0846 L261.125,39.6959 L271.25,40.6646 L281.375,39.9887 L291.5,40.2578 L301.625,39.6866 L311.75,40.9437 L321.875,41.3043 L332,39.9247 L342.125,40.6605 L352.25,40.5 " fill="#FFEFD5" style="stroke: #FF8C00; stroke-width: 1.5;"/><path d="M190.25,48.5 L190.25,47.6539 L200.375,48.6126 L210.5,49.2633 L220.625,49.2092 L230.75,47.7122 L240.875,49.0215 L251,49.2912 L261.125,49.3837 L271.25,49.2604 L281.375,48.6054 L291.5,48.8894 L301.625,47.8504 L311.75,47.7819 L321.875,48.2906 L332,48.7189 L342.125,48.9619 L352.25,48.5 " fill="#FFEFD5" style="stroke: #FF8C00; stroke-width: 1.5;"/><text fill="#000000" font-family="sans-serif" font-size="11" lengthAdjust="spacingAndGlyphs" textLength="59" x="195.25" y="62.7104">exists(obj)</text><text fill="#000000" font-family="sans-serif" font-size="11" lengthAdjust="spacingAndGlyphs" textLength="80" x="195.25" y="75.5151">file_ready(obj)</text><text fill="#000000" font-family="sans-serif" font-size="11" lengthAdjust="spacingAndGlyphs" textLength="61" x="195.25" y="88.3198">create(obj)</text><text fill="#000000" font-family="sans-serif" font-size="11" lengthAdjust="spacingAndGlyphs" textLength="47" x="195.25" y="101.1245">size(obj)</text><text fill="#000000" font-family="sans-serif" font-size="11" lengthAdjust="spacingAndGlyphs" textLength="60" x="195.25" y="113.9292">delete(obj)</text><text fill="#000000" font-family="sans-serif" font-size="11" lengthAdjust="spacingAndGlyphs" textLength="74" x="195.25" y="126.7339">get_data(obj)</text><text fill="#000000" font-family="sans-serif" font-size="11" lengthAdjust="spacingAndGlyphs" textLength="98" x="195.25" y="139.5386">get_filename(obj)</text><text fill="#000000" font-family="sans-serif" font-size="11" lengthAdjust="spacingAndGlyphs" textLength="120" x="195.25" y="152.3433">update_from_file(obj)</text><text fill="#000000" font-family="sans-serif" font-size="11" lengthAdjust="spacingAndGlyphs" textLength="152" x="195.25" y="165.1479">get_store_usage_percent()</text><polygon fill="#FFEFD5" filter="url(#f1)" points="20.25,232,20.25,231.8515,30.4038,232.4809,40.5577,232.5455,50.7115,231.8814,60.8654,231.7846,71.0192,232.0348,81.1731,232.6981,91.3269,232.4165,101.4808,232.4504,111.6346,231.9075,121.7885,232.2528,131.9423,231.3264,142.0962,232.3567,152.25,232,152.1989,232,152.4291,241.6,151.7356,251.2,152.2569,260.8,152.9635,270.4,152.25,280,152.25,280.4952,142.0962,280.5884,131.9423,279.8389,121.7885,279.3101,111.6346,279.6083,101.4808,280.4996,91.3269,280.1136,81.1731,280.0084,71.0192,280.5008,60.8654,279.7049,50.7115,279.2738,40.5577,280.0184,30.4038,279.4336,20.25,280,20.3796,280,20.2635,270.4,20.8789,260.8,19.6953,251.2,19.8092,241.6,20.25,232" style="stroke: #FF8C00; stroke-width: 1.5;"/><polygon fill="#ADD1B2" points="45.9311,251.672,44.3905,253.9082,42.9398,255.695,40.9552,257.0497,38.6054,258.1343,35.247,258.7289,31.8078,258.9295,29.4939,256.7681,26.91,255.4531,25.5868,253.4995,23.8867,250.2533,24.4242,247.6959,24.3381,244.6139,26.9128,241.8566,28.9264,239.7884,31.5098,237.1935,34.6155,236.3811,38.1548,236.7163,41.1375,238.1986,43.2631,240.1524,45.5168,242.8683,46.5768,245.3533,46.7751,248.8553" style="stroke: #FF8C00; stroke-width: 1.0;"/><path d="M38.2188,253.6406 Q37.6406,253.9375 37,254.0859 Q36.3594,254.2344 35.6563,254.2344 Q33.1563,254.2344 31.8359,252.5859 Q30.5156,250.9375 30.5156,247.8125 Q30.5156,244.6875 31.8359,243.0313 Q33.1563,241.375 35.6563,241.375 Q36.3594,241.375 37.0078,241.5313 Q37.6563,241.6875 38.2188,241.9844 L38.2188,244.7031 Q37.5938,244.125 37,243.8516 Q36.4063,243.5781 35.7813,243.5781 Q34.4375,243.5781 33.75,244.6484 Q33.0625,245.7188 33.0625,247.8125 Q33.0625,249.9063 33.75,250.9766 Q34.4375,252.0469 35.7813,252.0469 Q36.4063,252.0469 37,251.7734 Q37.5938,251.5 38.2188,250.9219 L38.2188,253.6406 Z "/><text fill="#000000" font-family="sans-serif" font-size="12" lengthAdjust="spacingAndGlyphs" textLength="100" x="49.25" y="252.1543">DiskObjectStore</text><path d="M21.25,264 L21.25,263.9382 L31.25,263.635 L41.25,263.2386 L51.25,263.6184 L61.25,264.9405 L71.25,263.261 L81.25,263.386 L91.25,264.3821 L101.25,264.8941 L111.25,263.6296 L121.25,264.6474 L131.25,263.6343 L141.25,264.6375 L151.25,264 " fill="#FFEFD5" style="stroke: #FF8C00; stroke-width: 1.5;"/><path d="M21.25,272 L21.25,271.1807 L31.25,272.7509 L41.25,272.8134 L51.25,271.1087 L61.25,272.6413 L71.25,272.7343 L81.25,272.2181 L91.25,272.0037 L101.25,272.7626 L111.25,272.9611 L121.25,272.1935 L131.25,271.1412 L141.25,271.6527 L151.25,272 " fill="#FFEFD5" style="stroke: #FF8C00; stroke-width: 1.5;"/><polygon fill="#FFEFD5" filter="url(#f1)" points="197,232,197,231.2875,206.9333,231.7305,216.8667,231.8355,226.8,232.3226,236.7333,232.4427,246.6667,231.2567,256.6,231.7685,266.5333,232.7204,276.4667,231.5608,286.4,231.2952,296.3333,232.3827,306.2667,232.1226,316.2,231.4602,326.1333,231.633,336.0667,232.6416,346,232,345.8412,232,345.317,241.6,345.3727,251.2,345.8316,260.8,346.4938,270.4,346,280,346,279.417,336.0667,279.506,326.1333,280.3143,316.2,280.1266,306.2667,279.4218,296.3333,279.4752,286.4,279.4753,276.4667,279.4734,266.5333,280.695,256.6,279.9157,246.6667,280.1571,236.7333,280.4176,226.8,280.0039,216.8667,279.9617,206.9333,279.765,197,280,196.3601,280,196.569,270.4,197.7074,260.8,196.2738,251.2,197.1011,241.6,197,232" style="stroke: #FF8C00; stroke-width: 1.5;"/><polygon fill="#A9DCDF" points="221.8794,251.3009,220.8119,253.7666,219.3574,255.4515,217.52,257.2996,214.3233,258.3047,210.9205,259.3138,208.6755,258.3895,205.0981,257.359,202.7277,254.7604,201.9598,251.5879,201.296,248.2016,201.5855,246.1211,202.4812,243.0387,204.0532,239.7657,206.5557,237.9932,208.673,237.1147,211.4159,236.3656,213.8494,237.1993,216.7813,237.949,218.6634,238.7909,220.8295,241.6469,222.0647,244.6675,222.2534,246.7025,222.6371,249.1246" style="stroke: #FF8C00; stroke-width: 1.0;"/><path d="M212.1094,243.3438 L210.9531,248.4219 L213.2813,248.4219 L212.1094,243.3438 Z M210.625,241.1094 L213.6094,241.1094 L216.9688,253.5 L214.5156,253.5 L213.75,250.4375 L210.4688,250.4375 L209.7188,253.5 L207.2813,253.5 L210.625,241.1094 Z "/><text fill="#000000" font-family="sans-serif" font-size="12" font-style="italic" lengthAdjust="spacingAndGlyphs" textLength="117" x="226" y="252.1543">NestedObjectStore</text><path d="M198,264 L198,263.1689 L207.8,263.4735 L217.6,264.4195 L227.4,264.9099 L237.2,264.0185 L247,264.2697 L256.8,264.7908 L266.6,264.0872 L276.4,263.0273 L286.2,264.7246 L296,264.6011 L305.8,263.8696 L315.6,263.6236 L325.4,263.3046 L335.2,263.2914 L345,264 " fill="#FFEFD5" style="stroke: #FF8C00; stroke-width: 1.5;"/><path d="M198,272 L198,272.5041 L207.8,272.9876 L217.6,271.3322 L227.4,271.6198 L237.2,272.288 L247,272.6702 L256.8,272.2031 L266.6,271.4331 L276.4,271.449 L286.2,272.6963 L296,272.0624 L305.8,271.7962 L315.6,271.8448 L325.4,272.003 L335.2,272.6398 L345,272 " fill="#FFEFD5" style="stroke: #FF8C00; stroke-width: 1.5;"/><polygon fill="#FFEFD5" filter="url(#f1)" points="381.25,232,381.25,232.6567,391.4167,232.3072,401.5833,231.4064,411.75,232.239,421.9167,232.7282,432.0833,232.1861,442.25,232.0323,452.4167,231.691,462.5833,232.1932,472.75,232.7052,482.9167,231.4692,493.0833,231.8322,503.25,232,502.6334,232,503.9766,241.6,503.1109,251.2,502.8122,260.8,503.221,270.4,503.25,280,503.25,280.1661,493.0833,279.3171,482.9167,280.5351,472.75,280.3792,462.5833,279.4299,452.4167,280.6286,442.25,279.5608,432.0833,280.5739,421.9167,280.2275,411.75,279.6466,401.5833,280.6576,391.4167,280.6918,381.25,280,380.9003,280,380.5292,270.4,380.7488,260.8,381.181,251.2,381.9953,241.6,381.25,232" style="stroke: #FF8C00; stroke-width: 1.5;"/><polygon fill="#ADD1B2" points="406.5677,251.3609,406.0962,254.002,403.7906,256.9143,400.6174,258.2066,397.2446,258.7306,395.074,258.4776,393.0365,258.7046,390.8993,257.4134,389.2393,255.6368,386.1598,253.4343,385.6279,249.8981,385.2747,246.9426,385.5936,243.5564,387.2357,240.9394,390.0468,239.3121,393.148,237.6172,396.6891,236.6221,399.7882,238.3059,402.2166,238.6695,403.9431,240.9637,406.6609,243.5854,406.7257,245.9485,407.1909,249.0866" style="stroke: #FF8C00; stroke-width: 1.0;"/><path d="M399.2188,253.6406 Q398.6406,253.9375 398,254.0859 Q397.3594,254.2344 396.6563,254.2344 Q394.1563,254.2344 392.8359,252.5859 Q391.5156,250.9375 391.5156,247.8125 Q391.5156,244.6875 392.8359,243.0313 Q394.1563,241.375 396.6563,241.375 Q397.3594,241.375 398.0078,241.5313 Q398.6563,241.6875 399.2188,241.9844 L399.2188,244.7031 Q398.5938,244.125 398,243.8516 Q397.4063,243.5781 396.7813,243.5781 Q395.4375,243.5781 394.75,244.6484 Q394.0625,245.7188 394.0625,247.8125 Q394.0625,249.9063 394.75,250.9766 Q395.4375,252.0469 396.7813,252.0469 Q397.4063,252.0469 398,251.7734 Q398.5938,251.5 399.2188,250.9219 L399.2188,253.6406 Z "/><text fill="#000000" font-family="sans-serif" font-size="12" lengthAdjust="spacingAndGlyphs" textLength="90" x="410.25" y="252.1543">S3ObjectStore</text><path d="M382.25,264 L382.25,264.5798 L392.25,263.9526 L402.25,263.1627 L412.25,263.1656 L422.25,263.9324 L432.25,263.6552 L442.25,264.8185 L452.25,264.1173 L462.25,264.6783 L472.25,263.5391 L482.25,263.3896 L492.25,264.8095 L502.25,264 " fill="#FFEFD5" style="stroke: #FF8C00; stroke-width: 1.5;"/><path d="M382.25,272 L382.25,272.7487 L392.25,272.9318 L402.25,272.6438 L412.25,272.1057 L422.25,271.6479 L432.25,271.937 L442.25,272.425 L452.25,271.7091 L462.25,271.1672 L472.25,271.9969 L482.25,272.0186 L492.25,271.9833 L502.25,272 " fill="#FFEFD5" style="stroke: #FF8C00; stroke-width: 1.5;"/><polygon fill="#FFEFD5" filter="url(#f1)" points="6,340,6,339.4411,16.2143,339.4861,26.4286,340.312,36.6429,340.7222,46.8571,339.9914,57.0714,340.5174,67.2857,339.4793,77.5,339.8434,87.7143,339.741,97.9286,340.6422,108.1429,339.2614,118.3571,340.3372,128.5714,340.1291,138.7857,339.7303,149,340,148.4056,340,149.7252,349.6,149.3987,359.2,149.1234,368.8,149.6844,378.4,149,388,149,387.4734,138.7857,388.4022,128.5714,387.9418,118.3571,388.3242,108.1429,387.8162,97.9286,388.6955,87.7143,388.6318,77.5,388.5989,67.2857,387.4449,57.0714,387.9811,46.8571,388.319,36.6429,388.6049,26.4286,388.5615,16.2143,388.5908,6,388,5.7816,388,5.3702,378.4,5.8639,368.8,5.9726,359.2,5.3678,349.6,6,340" style="stroke: #FF8C00; stroke-width: 1.5;"/><polygon fill="#ADD1B2" points="31.5201,358.8401,30.4774,360.6965,29.4528,363.6987,27.3641,364.8139,24.3704,366.5923,21.7189,367.4466,18.4284,366.4746,14.8094,365.5533,13.5372,363.3266,10.6199,360.7862,9.6987,357.6881,10.0516,355.5688,10.4452,353.0566,11.5971,351.0089,13.1871,348.3146,14.9025,346.4651,17.864,345.9818,19.6607,345.4051,22.8124,344.7465,26.0898,346.4963,28.6278,348.1157,30.3655,351.1528,32.3601,353.9094,32.5879,356.4252" style="stroke: #FF8C00; stroke-width: 1.0;"/><path d="M23.9688,361.6406 Q23.3906,361.9375 22.75,362.0859 Q22.1094,362.2344 21.4063,362.2344 Q18.9063,362.2344 17.5859,360.5859 Q16.2656,358.9375 16.2656,355.8125 Q16.2656,352.6875 17.5859,351.0313 Q18.9063,349.375 21.4063,349.375 Q22.1094,349.375 22.7578,349.5313 Q23.4063,349.6875 23.9688,349.9844 L23.9688,352.7031 Q23.3438,352.125 22.75,351.8516 Q22.1563,351.5781 21.5313,351.5781 Q20.1875,351.5781 19.5,352.6484 Q18.8125,353.7188 18.8125,355.8125 Q18.8125,357.9063 19.5,358.9766 Q20.1875,360.0469 21.5313,360.0469 Q22.1563,360.0469 22.75,359.7734 Q23.3438,359.5 23.9688,358.9219 L23.9688,361.6406 Z "/><text fill="#000000" font-family="sans-serif" font-size="12" lengthAdjust="spacingAndGlyphs" textLength="111" x="35" y="360.1543">IRODSObjectStore</text><path d="M7,372 L7,371.2277 L17.0714,372.2834 L27.1429,371.1389 L37.2143,371.8277 L47.2857,371.1852 L57.3571,372.4674 L67.4286,371.8879 L77.5,371.7046 L87.5714,372.2895 L97.6429,372.4575 L107.7143,371.0604 L117.7857,372.8965 L127.8571,371.2002 L137.9286,372.7339 L148,372 " fill="#FFEFD5" style="stroke: #FF8C00; stroke-width: 1.5;"/><path d="M7,380 L7,379.8485 L17.0714,379.0858 L27.1429,380.753 L37.2143,380.3843 L47.2857,380.9946 L57.3571,380.1926 L67.4286,379.0236 L77.5,379.7955 L87.5714,380.1793 L97.6429,379.3274 L107.7143,379.2073 L117.7857,380.2757 L127.8571,379.3035 L137.9286,379.3752 L148,380 " fill="#FFEFD5" style="stroke: #FF8C00; stroke-width: 1.5;"/><polygon fill="#FFEFD5" filter="url(#f1)" points="184,340,184,339.7431,193.7222,340.1437,203.4444,340.724,213.1667,339.7603,222.8889,339.9148,232.6111,340.2955,242.3333,339.8016,252.0556,340.0637,261.7778,339.9836,271.5,339.691,281.2222,340.241,290.9444,340.0385,300.6667,339.7715,310.3889,340.6543,320.1111,339.5456,329.8333,340.5694,339.5556,339.6903,349.2778,339.9465,359,340,359.5338,340,358.9389,349.6,358.7074,359.2,358.4617,368.8,359.1711,378.4,359,388,359,388.4324,349.2778,387.3795,339.5556,387.7689,329.8333,387.3373,320.1111,388.3153,310.3889,388.0752,300.6667,387.2777,290.9444,388.0486,281.2222,388.7438,271.5,388.586,261.7778,387.3146,252.0556,387.8603,242.3333,388.6199,232.6111,387.7936,222.8889,387.4103,213.1667,388.5342,203.4444,388.6161,193.7222,387.9229,184,388,183.6411,388,184.0423,378.4,184.078,368.8,183.6584,359.2,183.9126,349.6,184,340" style="stroke: #FF8C00; stroke-width: 1.5;"/><polygon fill="#ADD1B2" points="209.4337,358.6478,208.8004,360.6957,207.7183,362.9444,204.9444,364.8177,202.0989,367.0098,198.7507,366.9204,195.0105,366.3493,193.1162,364.7533,190.3703,363.119,188.996,361.4664,189.0814,359.0672,187.4785,357.2576,188.2044,354.9012,188.6506,351.0575,189.6963,348.9957,191.754,348.1394,193.3925,345.982,196.865,344.8374,200.0845,345.2956,202.4543,345.0444,204.3118,346.9357,207.3523,347.9881,208.7096,350.3277,208.9943,352.9178,209.7701,355.5392,209.6254,358.4414" style="stroke: #FF8C00; stroke-width: 1.0;"/><path d="M201.9688,361.6406 Q201.3906,361.9375 200.75,362.0859 Q200.1094,362.2344 199.4063,362.2344 Q196.9063,362.2344 195.5859,360.5859 Q194.2656,358.9375 194.2656,355.8125 Q194.2656,352.6875 195.5859,351.0313 Q196.9063,349.375 199.4063,349.375 Q200.1094,349.375 200.7578,349.5313 Q201.4063,349.6875 201.9688,349.9844 L201.9688,352.7031 Q201.3438,352.125 200.75,351.8516 Q200.1563,351.5781 199.5313,351.5781 Q198.1875,351.5781 197.5,352.6484 Q196.8125,353.7188 196.8125,355.8125 Q196.8125,357.9063 197.5,358.9766 Q198.1875,360.0469 199.5313,360.0469 Q200.1563,360.0469 200.75,359.7734 Q201.3438,359.5 201.9688,358.9219 L201.9688,361.6406 Z "/><text fill="#000000" font-family="sans-serif" font-size="12" lengthAdjust="spacingAndGlyphs" textLength="143" x="213" y="360.1543">DistributedObjectStore</text><path d="M185,372 L185,372.9075 L195.1765,371.8283 L205.3529,372.2627 L215.5294,372.749 L225.7059,371.4012 L235.8824,372.1606 L246.0588,372.86 L256.2353,372.3484 L266.4118,372.1498 L276.5882,371.7149 L286.7647,372.6702 L296.9412,372.1512 L307.1176,371.4343 L317.2941,371.2867 L327.4706,371.1869 L337.6471,371.518 L347.8235,372.4754 L358,372 " fill="#FFEFD5" style="stroke: #FF8C00; stroke-width: 1.5;"/><path d="M185,380 L185,380.9416 L195.1765,379.5323 L205.3529,379.3842 L215.5294,380.5325 L225.7059,380.1863 L235.8824,379.2661 L246.0588,380.8745 L256.2353,379.7813 L266.4118,379.5827 L276.5882,380.6717 L286.7647,379.3718 L296.9412,379.8414 L307.1176,379.3586 L317.2941,379.5513 L327.4706,380.8082 L337.6471,379.9435 L347.8235,379.6715 L358,380 " fill="#FFEFD5" style="stroke: #FF8C00; stroke-width: 1.5;"/><polygon fill="#FFEFD5" filter="url(#f1)" points="394.25,340,394.25,340.0156,404.25,340.1061,414.25,339.2674,424.25,339.9753,434.25,340.3301,444.25,339.8951,454.25,340.3937,464.25,339.5113,474.25,340.3384,484.25,340.6976,494.25,339.5293,504.25,340.0268,514.25,339.3362,524.25,339.8863,534.25,339.5719,544.25,339.8839,554.25,339.5126,564.25,339.562,574.25,340,574.8701,340,573.6123,349.6,574.4522,359.2,573.8553,368.8,574.0809,378.4,574.25,388,574.25,387.2628,564.25,388.4482,554.25,387.3679,544.25,388.6735,534.25,388.0905,524.25,387.3411,514.25,388.1804,504.25,387.8216,494.25,388.4741,484.25,388.066,474.25,387.8703,464.25,387.2835,454.25,387.6839,444.25,388.4545,434.25,388.0202,424.25,387.8573,414.25,388.0983,404.25,387.5846,394.25,388,394.4981,388,393.884,378.4,394.9631,368.8,394.3642,359.2,393.6079,349.6,394.25,340" style="stroke: #FF8C00; stroke-width: 1.5;"/><polygon fill="#ADD1B2" points="420.6646,358.2936,418.9031,360.6915,416.6292,363.41,415.7993,365.5014,413.1403,366.3427,409.6375,367.2186,407.1835,366.1698,404.5885,365.4185,402.5292,364.1962,399.3972,362.183,398.9491,359.2765,398.5974,355.8259,397.8182,353.6223,399.3894,351.5088,401.1759,348.7181,402.9941,347.1124,405.1411,346.2404,407.8368,345.6568,410.4998,344.7533,413.9924,345.8221,416.1561,347.0765,417.2811,349.2295,418.7377,351.7299,420.4512,354.9374,419.8683,358.6387" style="stroke: #FF8C00; stroke-width: 1.0;"/><path d="M412.2188,361.6406 Q411.6406,361.9375 411,362.0859 Q410.3594,362.2344 409.6563,362.2344 Q407.1563,362.2344 405.8359,360.5859 Q404.5156,358.9375 404.5156,355.8125 Q404.5156,352.6875 405.8359,351.0313 Q407.1563,349.375 409.6563,349.375 Q410.3594,349.375 411.0078,349.5313 Q411.6563,349.6875 412.2188,349.9844 L412.2188,352.7031 Q411.5938,352.125 411,351.8516 Q410.4063,351.5781 409.7813,351.5781 Q408.4375,351.5781 407.75,352.6484 Q407.0625,353.7188 407.0625,355.8125 Q407.0625,357.9063 407.75,358.9766 Q408.4375,360.0469 409.7813,360.0469 Q410.4063,360.0469 411,359.7734 Q411.5938,359.5 412.2188,358.9219 L412.2188,361.6406 Z "/><text fill="#000000" font-family="sans-serif" font-size="12" lengthAdjust="spacingAndGlyphs" textLength="148" x="423.25" y="360.1543">HierarchicalObjectStore</text><path d="M395.25,372 L395.25,371.5425 L405.1389,371.8079 L415.0278,372.7548 L424.9167,372.8933 L434.8056,372.4617 L444.6944,372.4762 L454.5833,371.8376 L464.4722,371.136 L474.3611,371.5204 L484.25,371.1258 L494.1389,371.4116 L504.0278,371.2273 L513.9167,371.5161 L523.8056,372.3072 L533.6944,372.9177 L543.5833,372.2013 L553.4722,372.5677 L563.3611,371.3373 L573.25,372 " fill="#FFEFD5" style="stroke: #FF8C00; stroke-width: 1.5;"/><path d="M395.25,380 L395.25,380.9078 L405.1389,380.0556 L415.0278,380.8568 L424.9167,380.5249 L434.8056,380.5994 L444.6944,380.7132 L454.5833,379.5079 L464.4722,379.373 L474.3611,380.8376 L484.25,379.3478 L494.1389,380.3283 L504.0278,380.7117 L513.9167,379.1375 L523.8056,380.9145 L533.6944,379.5831 L543.5833,379.913 L553.4722,379.7866 L563.3611,379.5145 L573.25,380 " fill="#FFEFD5" style="stroke: #FF8C00; stroke-width: 1.5;"/><path d="M173.764,177.42 L174.1833,177.893 L166.2531,184.3708 L158.7663,191.3488 L151.2602,198.305 L142.5327,203.8835 L135.3381,211.1911 L127.5574,217.8376 L120.8241,225.6656 L112.515,231.716 " fill="none" style="stroke: #FFA500; stroke-width: 1.0;"/><polygon fill="none" points="169.419,171.917,169.4339,171.9535,173.2716,170.1417,177.1897,168.5265,181.2485,167.2548,185.0229,165.2884,189.029,163.888,189.2116,163.9899,186.9384,167.5745,184.8256,171.2486,182.8516,175.0001,180.7495,178.6802,178.706,182.393,178.7567,182.4379,176.6815,180.1497,175.009,178.2184,173.2184,176.1824,171.4423,174.1593,169.419,171.917" style="stroke: #FFA500; stroke-width: 1.0;"/><path d="M271.25,191.809 L271.4887,191.809 L271.2787,199.7892 L271.4643,207.7694 L271.1476,215.7496 L271.2756,223.7298 L271.25,231.71 " fill="none" style="stroke: #FFA500; stroke-width: 1.0;"/><polygon fill="none" points="264.25,191.559,264.3091,191.5797,265.6881,187.5723,267.0745,183.5676,268.6139,179.6164,270.0236,175.6198,271.25,171.559,271.2837,171.5708,272.5041,175.5079,273.9062,179.5087,275.5909,183.6083,276.9822,187.6053,278.25,191.559,278.25,191.5011,275.45,191.4006,272.65,191.4779,269.85,191.7423,267.05,191.3189,264.25,191.559" style="stroke: #FFA500; stroke-width: 1.0;"/><path d="M368.14,183.924 L368.5598,184.3617 L375.7601,191.2723 L382.4553,197.6563 L389.3573,204.2559 L396.9136,211.5378 L404.3814,218.7273 L411.077,225.1117 L418.114,231.852 " fill="none" style="stroke: #FFA500; stroke-width: 1.0;"/><polygon fill="none" points="363.084,188.773,363.28,188.8725,361.3452,185.0849,359.415,181.2997,357.448,177.4959,355.3213,173.611,353.494,169.878,353.5662,170.0363,357.408,171.7635,361.132,173.2321,365.0395,175.1033,368.8489,176.7593,372.774,178.669,372.6349,178.5356,370.9346,180.7844,368.9088,182.721,366.9894,184.7596,364.9506,186.6838,363.084,188.773" style="stroke: #FFA500; stroke-width: 1.0;"/><path d="M82.5971,300.0236 L82.3814,300.0053 L81.6588,307.9321 L81.3362,315.8928 L80.7936,323.8349 L79.9438,331.7509 L79.2301,339.6784 " fill="none" style="stroke: #FFA500; stroke-width: 1.0;"/><polygon fill="none" points="75.6301,299.3365,75.5896,299.3183,77.448,295.5071,79.2669,291.6781,80.6431,287.6507,82.6908,283.9243,84.2971,280,84.4633,280.0428,85.2753,284.084,86.5799,288.2521,87.2736,292.2629,88.5395,296.421,89.5799,300.521,89.5912,300.6543,86.7716,300.0678,83.9879,299.9047,81.2253,299.9897,78.4022,299.3632,75.6301,299.3365" style="stroke: #FFA500; stroke-width: 1.0;"/><path d="M271.25,300.0236 L271.0535,300.0236 L271.3025,307.9546 L271.3174,315.8855 L271.4598,323.8165 L271.0303,331.7474 L271.25,339.6784 " fill="none" style="stroke: #FFA500; stroke-width: 1.0;"/><polygon fill="none" points="264.25,300.0005,264.0842,299.9425,265.7027,296.0189,266.8864,291.9431,268.4865,288.013,269.9235,284.0258,271.25,280,271.0215,279.92,272.8637,284.0749,273.9766,287.9745,275.2434,291.9279,276.6425,295.9277,278.25,300.0004,278.25,300.1564,275.45,299.9169,272.65,300.0039,269.85,300.1664,267.05,299.9308,264.25,300.0005" style="stroke: #FFA500; stroke-width: 1.0;"/><path d="M335.496,288.9724 L335.64,289.2617 L345.0238,294.064 L353.8381,297.7217 L363.7016,303.4878 L372.7166,307.5489 L382.4004,312.9541 L391.2834,316.7499 L400.6685,321.5546 L409.4484,325.1433 L419.0724,330.4281 L428.8143,335.9498 L437.755,339.8617 " fill="none" style="stroke: #FFA500; stroke-width: 1.0;"/><polygon fill="none" points="332.254,295.178,332.372,295.293,329.1405,291.9901,326.3983,289.164,323.5035,286.1892,320.2603,282.875,317.468,280,317.4531,279.8816,321.6628,280.4493,325.8957,281.2016,330.0865,281.6188,334.3037,282.2467,338.492,282.644,338.5292,282.6625,337.1344,285.096,335.9036,287.6112,334.5927,290.0865,333.707,292.7734,332.254,295.178" style="stroke: #FFA500; stroke-width: 1.0;"/></g></svg>