<?xml version="1.0" encoding="UTF-8" standalone="yes"?><svg xmlns="http://www.w3.org/2000/svg" xmlns:xlink="http://www.w3.org/1999/xlink" height="397px" style="width:583px;height:397px;" version="1.1" viewBox="0 0 583 397" width="583px"><defs><filter height="300%" id="f1" width="300%" x="-1" y="-1"><feGaussianBlur result="blurOut" stdDeviation="2.0"/><feColorMatrix in="blurOut" result="blurOut2" type="matrix" values="0 0 0 0 0 0 0 0 0 0 0 0 0 0 0 0 0 0 .4 0"/><feOffset dx="4.0" dy="4.0" in="blurOut2" result="blurOut3"/><feBlend in="SourceGraphic" in2="blurOut3" mode="normal"/></filter></defs><g><polygon fill="#FFFFFF" filter="url(#f1)" points="189.25,8.5,189.25,9.1713,199.5,9.0174,209.75,8.9988,220,8.6532,230.25,9.2499,240.5,7.8342,250.75,8.6156,261,8.3047,271.25,8.0263,281.5,7.8634,291.75,8.5299,302,8.4128,312.25,8.0516,322.5,8.6234,332.75,8.3067,343,9.146,353.25,8.5,352.8322,8.5,352.7038,18.7026,353.8228,28.9053,352.7611,39.1079,353.5501,49.3105,353.7249,59.5132,353.5155,69.7158,353.3069,79.9185,353.682,90.1211,352.504,100.3237,352.5041,110.5264,352.7473,120.729,353.281,130.9316,353.2039,141.1343,353.9006,151.3369,352.6579,161.5396,353.25,171.7422,353.25,172.0232,343,172.0091,332.75,171.2499,322.5,171.2773,312.25,171.7118,302,171.0399,291.75,171.1699,281.5,171.9527,271.25,172.0143,261,172.4867,250.75,171.635,240.5,172.1491,230.25,171.4304,220,171.4827,209.75,172.1066,199.5,171.3254,189.25,171.7422,188.621,171.7422,188.8103,161.5396,189.6368,151.3369,189.9124,141.1343,189.4443,130.9316,189.8187,120.729,188.8248,110.5264,189.5075,100.3237,189.9612,90.1211,189.034,79.9185,189.7123,69.7158,189.8596,59.5132,189.914,49.3105,188.5076,39.1079,188.9854,28.9053,188.8835,18.7026,189.25,8.5" style="stroke: #FF8C00; stroke-width: 1.5;"/><polygon fill="#A9DCDF" points="241.8885,26.8906,240.4076,28.9077,239.6342,31.5507,237.0216,33.5491,234.5945,34.7873,232.0986,35.2957,229.6411,35.0548,227.2111,35.556,224.186,33.9711,222.5025,31.5194,220.4643,29.1972,220.5139,26.6336,219.1589,24.7718,219.9911,22.3111,220.7754,18.7415,223.165,16.7721,225.8629,14.7982,228.0665,13.9284,231.0999,14.0483,233.7988,14.2966,236.6606,15.9771,239.31,17.7466,240.8382,20.9288,241.4306,23.8721,241.8551,27.5253" style="stroke: #FF8C00; stroke-width: 1.0;"/><path d="M230.9094,19.8438 L229.7531,24.9219 L232.0813,24.9219 L230.9094,19.8438 Z M229.425,17.6094 L232.4094,17.6094 L235.7688,30 L233.3156,30 L232.55,26.9375 L229.2688,26.9375 L228.5188,30 L226.0813,30 L229.425,17.6094 Z "/><text fill="#000000" font-family="sans-serif" font-size="12" font-style="italic" lengthAdjust="spacingAndGlyphs" textLength="73" x="250.7" y="28.6543">ObjectStore</text><path d="M190.25,40.5 L190.25,39.5124 L200.375,41.0026 L210.5,40.8521 L220.625,40.8817 L230.75,40.5275 L240.875,40.1244 L251,40.6323 L261.125,40.7005 L271.25,41.0398 L281.375,39.7093 L291.5,41.0227 L301.625,39.5588 L311.75,40.995 L321.875,40.9611 L332,41.3723 L342.125,41.1563 L352.25,40.5 " fill="#FFFFFF" style="stroke: #FF8C00; stroke-width: 1.5;"/><path d="M190.25,48.5 L190.25,47.6166 L200.375,47.6258 L210.5,47.9994 L220.625,48.1125 L230.75,47.5837 L240.875,49.2993 L251,48.7248 L261.125,48.2626 L271.25,49.06 L281.375,48.5338 L291.5,47.7664 L301.625,47.9437 L311.75,47.7979 L321.875,47.5616 L332,48.058 L342.125,48.0806 L352.25,48.5 " fill="#FFFFFF" style="stroke: #FF8C00; stroke-width: 1.5;"/><text fill="#000000" font-family="sans-serif" font-size="11" lengthAdjust="spacingAndGlyphs" textLength="59" x="195.25" y="62.7104">exists(obj)</text><text fill="#000000" font-family="sans-serif" font-size="11" lengthAdjust="spacingAndGlyphs" textLength="80" x="195.25" y="75.5151">file_ready(obj)</text><text fill="#000000" font-family="sans-serif" font-size="11" lengthAdjust="spacingAndGlyphs" textLength="61" x="195.25" y="88.3198">create(obj)</text><text fill="#000000" font-family="sans-serif" font-size="11" lengthAdjust="spacingAndGlyphs" textLength="47" x="195.25" y="101.1245">size(obj)</text><text fill="#000000" font-family="sans-serif" font-size="11" lengthAdjust="spacingAndGlyphs" textLength="60" x="195.25" y="113.9292">delete(obj)</text><text fill="#000000" font-family="sans-serif" font-size="11" lengthAdjust="spacingAndGlyphs" textLength="74" x="195.25" y="126.7339">get_data(obj)</text><text fill="#000000" font-family="sans-serif" font-size="11" lengthAdjust="spacingAndGlyphs" textLength="98" x="195.25" y="139.5386">get_filename(obj)</text><text fill="#000000" font-family="sans-serif" font-size="11" lengthAdjust="spacingAndGlyphs" textLength="120" x="195.25" y="152.3433">update_from_file(obj)</text><text fill="#000000" font-family="sans-serif" font-size="11" lengthAdjust="spacingAndGlyphs" textLength="152" x="195.25" y="165.1479">get_store_usage_percent()</text><polygon fill="#FFFFFF" filter="url(#f1)" points="20.25,232,20.25,232.3457,30.4038,232.0357,40.5577,232.1511,50.7115,232.3319,60.8654,231.374,71.0192,232.2328,81.1731,232.2471,91.3269,231.5789,101.4808,232.0276,111.6346,232.688,121.7885,231.3822,131.9423,231.4421,142.0962,231.4831,152.25,232,151.8499,232,151.9517,241.6,151.515,251.2,152.3811,260.8,152.0305,270.4,152.25,280,152.25,280.5291,142.0962,280.7197,131.9423,279.3673,121.7885,279.9478,111.6346,280.3619,101.4808,279.4898,91.3269,280.3084,81.1731,280.5846,71.0192,279.8224,60.8654,280.7025,50.7115,279.8042,40.5577,279.463,30.4038,279.8829,20.25,280,20.268,280,19.5645,270.4,19.8829,260.8,20.5381,251.2,19.7046,241.6,20.25,232" style="stroke: #FF8C00; stroke-width: 1.5;"/><polygon fill="#ADD1B2" points="46.1142,251.8062,44.2271,255.081,41.8558,256.2097,39.5343,258.5273,36.5724,258.4865,33.899,258.8934,30.8595,258.1531,28.9539,256.3651,26.3076,255.2517,24.9529,251.6343,24.4223,248.4873,25.1113,245.9119,25.6085,244.1565,26.4147,241.175,29.5732,239.3735,32.3415,237.2142,34.4575,237.0638,37.6724,236.8972,40.0012,238.1783,43.0064,239.2576,44.6773,241.5159,45.5048,243.4529,45.8301,246.5904,45.7808,250.0006" style="stroke: #FF8C00; stroke-width: 1.0;"/><path d="M38.2188,253.6406 Q37.6406,253.9375 37,254.0859 Q36.3594,254.2344 35.6563,254.2344 Q33.1563,254.2344 31.8359,252.5859 Q30.5156,250.9375 30.5156,247.8125 Q30.5156,244.6875 31.8359,243.0313 Q33.1563,241.375 35.6563,241.375 Q36.3594,241.375 37.0078,241.5313 Q37.6563,241.6875 38.2188,241.9844 L38.2188,244.7031 Q37.5938,244.125 37,243.8516 Q36.4063,243.5781 35.7813,243.5781 Q34.4375,243.5781 33.75,244.6484 Q33.0625,245.7188 33.0625,247.8125 Q33.0625,249.9063 33.75,250.9766 Q34.4375,252.0469 35.7813,252.0469 Q36.4063,252.0469 37,251.7734 Q37.5938,251.5 38.2188,250.9219 L38.2188,253.6406 Z "/><text fill="#000000" font-family="sans-serif" font-size="12" lengthAdjust="spacingAndGlyphs" textLength="100" x="49.25" y="252.1543">DiskObjectStore</text><path d="M21.25,264 L21.25,264.7266 L31.25,263.9676 L41.25,263.1672 L51.25,264.6466 L61.25,264.528 L71.25,263.4887 L81.25,263.5415 L91.25,264.1247 L101.25,264.3183 L111.25,264.3438 L121.25,263.4229 L131.25,263.157 L141.25,264.1562 L151.25,264 " fill="#FFFFFF" style="stroke: #FF8C00; stroke-width: 1.5;"/><path d="M21.25,272 L21.25,272.3964 L31.25,271.3722 L41.25,272.2009 L51.25,271.4817 L61.25,272.7881 L71.25,272.8317 L81.25,272.2144 L91.25,271.7096 L101.25,271.3325 L111.25,272.3001 L121.25,272.8183 L131.25,271.2712 L141.25,272.348 L151.25,272 " fill="#FFFFFF" style="stroke: #FF8C00; stroke-width: 1.5;"/><polygon fill="#FFFFFF" filter="url(#f1)" points="197,232,197,231.7881,206.9333,231.3601,216.8667,231.348,226.8,231.2758,236.7333,231.4541,246.6667,232.431,256.6,232.307,266.5333,232.2096,276.4667,232.502,286.4,231.446,296.3333,231.4729,306.2667,232.7471,316.2,231.7482,326.1333,231.7273,336.0667,231.934,346,232,345.8112,232,346.272,241.6,345.68,251.2,345.3907,260.8,345.6337,270.4,346,280,346,280.3241,336.0667,280.0453,326.1333,279.4222,316.2,280.7115,306.2667,279.9568,296.3333,280.5046,286.4,279.9037,276.4667,280.4047,266.5333,279.3007,256.6,279.3182,246.6667,279.5484,236.7333,280.2404,226.8,279.5001,216.8667,280.2078,206.9333,280.4262,197,280,196.8628,280,196.611,270.4,197.5514,260.8,197.1413,251.2,197.0323,241.6,197,232" style="stroke: #FF8C00; stroke-width: 1.5;"/><polygon fill="#A9DCDF" points="223.0212,250.5967,221.3687,253.5611,219.0877,256.0287,216.8346,258.2732,214.7384,258.2274,211.8742,259.459,208.4522,259.0982,206.6037,257.7482,204.611,256.4923,202.8941,254.7035,201.8753,251.865,201.3133,249.5419,201.4961,246.5852,202.2109,244.4336,202.7952,242.0251,205.1483,240.1988,207.4388,237.3121,211.2515,237.2825,213.2661,237.0809,215.8947,237.8345,217.6759,239.2147,220.6134,240.1726,221.9477,243.0749,222.4651,245.2189,222.8799,248.2067" style="stroke: #FF8C00; stroke-width: 1.0;"/><path d="M212.1094,243.3438 L210.9531,248.4219 L213.2813,248.4219 L212.1094,243.3438 Z M210.625,241.1094 L213.6094,241.1094 L216.9688,253.5 L214.5156,253.5 L213.75,250.4375 L210.4688,250.4375 L209.7188,253.5 L207.2813,253.5 L210.625,241.1094 Z "/><text fill="#000000" font-family="sans-serif" font-size="12" font-style="italic" lengthAdjust="spacingAndGlyphs" textLength="117" x="226" y="252.1543">NestedObjectStore</text><path d="M198,264 L198,264.4685 L207.8,264.5429 L217.6,264.0375 L227.4,263.4675 L237.2,264.1745 L247,263.3517 L256.8,264.8994 L266.6,263.7154 L276.4,264.9927 L286.2,264.6407 L296,264.1897 L305.8,263.7322 L315.6,263.1491 L325.4,263.9068 L335.2,264.3317 L345,264 " fill="#FFFFFF" style="stroke: #FF8C00; stroke-width: 1.5;"/><path d="M198,272 L198,272.0382 L207.8,271.2425 L217.6,271.664 L227.4,272.7206 L237.2,272.8101 L247,271.598 L256.8,272.1574 L266.6,271.7809 L276.4,271.8767 L286.2,271.0702 L296,272.6055 L305.8,272.4567 L315.6,272.2681 L325.4,272.5615 L335.2,272.3019 L345,272 " fill="#FFFFFF" style="stroke: #FF8C00; stroke-width: 1.5;"/><polygon fill="#FFFFFF" filter="url(#f1)" points="381.25,232,381.25,232.699,391.4167,231.8712,401.5833,232.2389,411.75,232.2801,421.9167,231.5421,432.0833,232.6258,442.25,231.8493,452.4167,231.9232,462.5833,231.679,472.75,231.5825,482.9167,232.4315,493.0833,232.3148,503.25,232,503.8462,232,502.5675,241.6,503.5061,251.2,503.7726,260.8,503.1653,270.4,503.25,280,503.25,280.5383,493.0833,279.7344,482.9167,280.5276,472.75,279.4752,462.5833,279.925,452.4167,280.3316,442.25,280.4471,432.0833,279.4962,421.9167,280.4046,411.75,280.736,401.5833,280.3156,391.4167,279.262,381.25,280,381.9176,280,381.9393,270.4,381.1588,260.8,381.1858,251.2,381.3591,241.6,381.25,232" style="stroke: #FF8C00; stroke-width: 1.5;"/><polygon fill="#ADD1B2" points="406.5419,250.943,404.9084,253.8849,402.7984,256.4697,400.0996,258.9315,396.3283,259.1373,393.2932,258.0052,390.8186,257.4897,388.6386,256.735,387.8186,254.6114,386.0428,251.4441,385.1883,248.3625,385.3823,245.0014,385.8832,242.7009,387.8772,241.1676,390.0313,238.3007,393.694,237.1678,397.2472,237.0065,401.1656,237.5062,403.0775,239.1911,404.0837,241.0575,405.9839,242.8736,406.8134,244.9611,407.0543,247.5618,406.9048,251.1383" style="stroke: #FF8C00; stroke-width: 1.0;"/><path d="M399.2188,253.6406 Q398.6406,253.9375 398,254.0859 Q397.3594,254.2344 396.6563,254.2344 Q394.1563,254.2344 392.8359,252.5859 Q391.5156,250.9375 391.5156,247.8125 Q391.5156,244.6875 392.8359,243.0313 Q394.1563,241.375 396.6563,241.375 Q397.3594,241.375 398.0078,241.5313 Q398.6563,241.6875 399.2188,241.9844 L399.2188,244.7031 Q398.5938,244.125 398,243.8516 Q397.4063,243.5781 396.7813,243.5781 Q395.4375,243.5781 394.75,244.6484 Q394.0625,245.7188 394.0625,247.8125 Q394.0625,249.9063 394.75,250.9766 Q395.4375,252.0469 396.7813,252.0469 Q397.4063,252.0469 398,251.7734 Q398.5938,251.5 399.2188,250.9219 L399.2188,253.6406 Z "/><text fill="#000000" font-family="sans-serif" font-size="12" lengthAdjust="spacingAndGlyphs" textLength="90" x="410.25" y="252.1543">S3ObjectStore</text><path d="M382.25,264 L382.25,264.7939 L392.25,263.0462 L402.25,264.7806 L412.25,263.9158 L422.25,263.3603 L432.25,263.7902 L442.25,264.5186 L452.25,264.7807 L462.25,263.8928 L472.25,264.1 L482.25,264.6416 L492.25,263.6361 L502.25,264 " fill="#FFFFFF" style="stroke: #FF8C00; stroke-width: 1.5;"/><path d="M382.25,272 L382.25,271.8564 L392.25,272.8742 L402.25,272.6568 L412.25,271.2593 L422.25,272.5548 L432.25,272.8201 L442.25,272.9354 L452.25,271.7886 L462.25,272.2952 L472.25,272.9455 L482.25,272.1777 L492.25,271.3708 L502.25,272 " fill="#FFFFFF" style="stroke: #FF8C00; stroke-width: 1.5;"/><polygon fill="#FFFFFF" filter="url(#f1)" points="6,340,6,340.1465,16.2143,340.3997,26.4286,339.2788,36.6429,340.3812,46.8571,340.3999,57.0714,340.2787,67.2857,340.3514,77.5,340.1377,87.7143,339.6873,97.9286,340.5553,108.1429,340.4434,118.3571,339.6454,128.5714,340.6488,138.7857,340.5913,149,340,149.0982,340,149.6872,349.6,149.4907,359.2,149.4134,368.8,148.6665,378.4,149,388,149,388.7155,138.7857,387.5906,128.5714,388.6541,118.3571,387.3712,108.1429,388.5813,97.9286,388.6997,87.7143,387.972,77.5,388.269,67.2857,388.4198,57.0714,387.6653,46.8571,388.1801,36.6429,388.256,26.4286,387.2598,16.2143,387.8508,6,388,5.5692,388,5.4347,378.4,6.6547,368.8,5.6329,359.2,5.745,349.6,6,340" style="stroke: #FF8C00; stroke-width: 1.5;"/><polygon fill="#ADD1B2" points="31.6022,358.1547,30.7832,361.5801,28.028,363.6495,26.3681,366.1902,22.9415,367.0341,20.1909,366.3772,17.7833,366.0087,15.6208,365.7295,13.5098,363.9571,10.7413,361.4537,10.8671,358.3277,10.1396,355.1938,10.6358,353.0291,11.7793,351.2315,12.3287,348.9951,14.961,346.9359,17.9049,345.6279,20.7748,344.5545,24.1951,345.3877,26.5649,346.3957,28.5648,348.9169,30.0285,350.1292,32.0918,352.3523,32.5235,355.5738,31.9548,358.7752" style="stroke: #FF8C00; stroke-width: 1.0;"/><path d="M23.9688,361.6406 Q23.3906,361.9375 22.75,362.0859 Q22.1094,362.2344 21.4063,362.2344 Q18.9063,362.2344 17.5859,360.5859 Q16.2656,358.9375 16.2656,355.8125 Q16.2656,352.6875 17.5859,351.0313 Q18.9063,349.375 21.4063,349.375 Q22.1094,349.375 22.7578,349.5313 Q23.4063,349.6875 23.9688,349.9844 L23.9688,352.7031 Q23.3438,352.125 22.75,351.8516 Q22.1563,351.5781 21.5313,351.5781 Q20.1875,351.5781 19.5,352.6484 Q18.8125,353.7188 18.8125,355.8125 Q18.8125,357.9063 19.5,358.9766 Q20.1875,360.0469 21.5313,360.0469 Q22.1563,360.0469 22.75,359.7734 Q23.3438,359.5 23.9688,358.9219 L23.9688,361.6406 Z "/><text fill="#000000" font-family="sans-serif" font-size="12" lengthAdjust="spacingAndGlyphs" textLength="111" x="35" y="360.1543">IRODSObjectStore</text><path d="M7,372 L7,371.0307 L17.0714,372.115 L27.1429,372.225 L37.2143,372.7688 L47.2857,371.009 L57.3571,371.5977 L67.4286,371.3107 L77.5,371.4174 L87.5714,371.7217 L97.6429,372.588 L107.7143,372.8095 L117.7857,372.9692 L127.8571,372.4877 L137.9286,372.7803 L148,372 " fill="#FFFFFF" style="stroke: #FF8C00; stroke-width: 1.5;"/><path d="M7,380 L7,379.6413 L17.0714,379.2678 L27.1429,379.6591 L37.2143,380.2309 L47.2857,379.6829 L57.3571,379.3116 L67.4286,379.2209 L77.5,379.6509 L87.5714,380.4987 L97.6429,379.1864 L107.7143,379.4448 L117.7857,380.1032 L127.8571,380.6779 L137.9286,380.3095 L148,380 " fill="#FFFFFF" style="stroke: #FF8C00; stroke-width: 1.5;"/><polygon fill="#FFFFFF" filter="url(#f1)" points="184,340,184,339.3486,193.7222,339.4937,203.4444,340.0712,213.1667,340.4775,222.8889,339.4503,232.6111,339.8978,242.3333,340.6867,252.0556,339.5613,261.7778,340.1152,271.5,339.7143,281.2222,339.7216,290.9444,340.3327,300.6667,340.1822,310.3889,340.1676,320.1111,339.8263,329.8333,339.7044,339.5556,339.2588,349.2778,340.7328,359,340,358.4885,340,358.7727,349.6,359.1929,359.2,358.8236,368.8,359.0399,378.4,359,388,359,387.4319,349.2778,388.1354,339.5556,387.6559,329.8333,388.2109,320.1111,388.1048,310.3889,388.4051,300.6667,387.6693,290.9444,387.6769,281.2222,387.627,271.5,387.2624,261.7778,388.4103,252.0556,388.1035,242.3333,388.074,232.6111,388.5451,222.8889,388.382,213.1667,388.4513,203.4444,387.3964,193.7222,388.4165,184,388,184.5419,388,183.7706,378.4,183.6316,368.8,183.7306,359.2,183.8874,349.6,184,340" style="stroke: #FF8C00; stroke-width: 1.5;"/><polygon fill="#ADD1B2" points="209.5654,358.3374,209.2351,360.2695,207.9379,363.4345,205.4568,364.2772,203.0737,365.6524,200.728,367.3441,197.0502,366.6674,193.6193,365.3421,190.529,363.3732,189.154,360.301,187.8409,357.5649,187.6725,354.3222,188.7359,350.7508,190.4501,348.6554,193.2127,346.7988,195.8471,345.1166,198.4137,345.2216,201.5044,345.918,204.5402,346.1005,206.2381,348.4285,209.2776,350.8577,209.5767,353.3248,210.0642,355.8404,209.9005,358.6879" style="stroke: #FF8C00; stroke-width: 1.0;"/><path d="M201.9688,361.6406 Q201.3906,361.9375 200.75,362.0859 Q200.1094,362.2344 199.4063,362.2344 Q196.9063,362.2344 195.5859,360.5859 Q194.2656,358.9375 194.2656,355.8125 Q194.2656,352.6875 195.5859,351.0313 Q196.9063,349.375 199.4063,349.375 Q200.1094,349.375 200.7578,349.5313 Q201.4063,349.6875 201.9688,349.9844 L201.9688,352.7031 Q201.3438,352.125 200.75,351.8516 Q200.1563,351.5781 199.5313,351.5781 Q198.1875,351.5781 197.5,352.6484 Q196.8125,353.7188 196.8125,355.8125 Q196.8125,357.9063 197.5,358.9766 Q198.1875,360.0469 199.5313,360.0469 Q200.1563,360.0469 200.75,359.7734 Q201.3438,359.5 201.9688,358.9219 L201.9688,361.6406 Z "/><text fill="#000000" font-family="sans-serif" font-size="12" lengthAdjust="spacingAndGlyphs" textLength="143" x="213" y="360.1543">DistributedObjectStore</text><path d="M185,372 L185,372.5939 L195.1765,371.1888 L205.3529,372.414 L215.5294,371.7199 L225.7059,372.2327 L235.8824,372.8283 L246.0588,371.3725 L256.2353,372.1157 L266.4118,372.589 L276.5882,372.4339 L286.7647,372.6399 L296.9412,371.426 L307.1176,371.9604 L317.2941,372.5071 L327.4706,371.2848 L337.6471,372.4909 L347.8235,372.3492 L358,372 " fill="#FFFFFF" style="stroke: #FF8C00; stroke-width: 1.5;"/><path d="M185,380 L185,380.8087 L195.1765,379.0652 L205.3529,379.9196 L215.5294,380.0605 L225.7059,380.3411 L235.8824,380.3104 L246.0588,379.4331 L256.2353,380.9801 L266.4118,379.3513 L276.5882,379.557 L286.7647,380.5897 L296.9412,380.0655 L307.1176,380.3817 L317.2941,380.5501 L327.4706,379.5219 L337.6471,380.2263 L347.8235,380.4608 L358,380 " fill="#FFFFFF" style="stroke: #FF8C00; stroke-width: 1.5;"/><polygon fill="#FFFFFF" filter="url(#f1)" points="394.25,340,394.25,340.4354,404.25,340.6331,414.25,340.2561,424.25,340.0132,434.25,340.3166,444.25,339.8916,454.25,339.7594,464.25,340.0346,474.25,340.2743,484.25,339.677,494.25,340.324,504.25,339.5599,514.25,339.2634,524.25,339.9539,534.25,339.6045,544.25,339.2628,554.25,339.728,564.25,340.6973,574.25,340,574.8196,340,574.8146,349.6,574.8722,359.2,574.8595,368.8,573.5624,378.4,574.25,388,574.25,388.6907,564.25,388.3006,554.25,388.14,544.25,388.0396,534.25,387.8851,524.25,387.3192,514.25,388.6444,504.25,388.2629,494.25,388.023,484.25,388.5818,474.25,388.5377,464.25,388.2753,454.25,388.1147,444.25,387.6111,434.25,387.4019,424.25,388.2542,414.25,387.767,404.25,387.5265,394.25,388,394.9314,388,393.5474,378.4,394.8267,368.8,393.8075,359.2,393.6087,349.6,394.25,340" style="stroke: #FF8C00; stroke-width: 1.5;"/><polygon fill="#ADD1B2" points="419.4969,359.5764,418.9465,362.38,417.2579,364.0835,414.5656,365.9727,411.1952,367.4104,408.7474,366.7421,406.3333,367.1727,404.25,366.0364,402.7454,364.6292,400.543,362.8124,399.3948,360.0003,398.6158,358.1094,398.9098,355.1387,399.2872,352.3561,400.9038,349.7453,402.9137,346.3491,404.9589,345.2533,407.6266,344.8035,410.5296,345.1319,412.5947,345.8838,414.7328,346.2724,415.9969,348.1884,418.9243,349.8239,419.1285,352.0045,419.6362,353.9499,420.8312,357.4069" style="stroke: #FF8C00; stroke-width: 1.0;"/><path d="M412.2188,361.6406 Q411.6406,361.9375 411,362.0859 Q410.3594,362.2344 409.6563,362.2344 Q407.1563,362.2344 405.8359,360.5859 Q404.5156,358.9375 404.5156,355.8125 Q404.5156,352.6875 405.8359,351.0313 Q407.1563,349.375 409.6563,349.375 Q410.3594,349.375 411.0078,349.5313 Q411.6563,349.6875 412.2188,349.9844 L412.2188,352.7031 Q411.5938,352.125 411,351.8516 Q410.4063,351.5781 409.7813,351.5781 Q408.4375,351.5781 407.75,352.6484 Q407.0625,353.7188 407.0625,355.8125 Q407.0625,357.9063 407.75,358.9766 Q408.4375,360.0469 409.7813,360.0469 Q410.4063,360.0469 411,359.7734 Q411.5938,359.5 412.2188,358.9219 L412.2188,361.6406 Z "/><text fill="#000000" font-family="sans-serif" font-size="12" lengthAdjust="spacingAndGlyphs" textLength="148" x="423.25" y="360.1543">HierarchicalObjectStore</text><path d="M395.25,372 L395.25,371.3212 L405.1389,371.8685 L415.0278,371.6684 L424.9167,371.7746 L434.8056,372.9922 L444.6944,372.2127 L454.5833,371.4443 L464.4722,372.1961 L474.3611,372.379 L484.25,371.225 L494.1389,372.7409 L504.0278,372.2363 L513.9167,372.4551 L523.8056,371.0523 L533.6944,371.9172 L543.5833,371.2777 L553.4722,372.6816 L563.3611,372.0966 L573.25,372 " fill="#FFFFFF" style="stroke: #FF8C00; stroke-width: 1.5;"/><path d="M395.25,380 L395.25,380.6431 L405.1389,379.6881 L415.0278,379.643 L424.9167,379.6855 L434.8056,379.5086 L444.6944,380.4153 L454.5833,379.2383 L464.4722,379.6804 L474.3611,380.3102 L484.25,379.202 L494.1389,379.0398 L504.0278,380.049 L513.9167,379.4207 L523.8056,380.5155 L533.6944,380.0065 L543.5833,380.9269 L553.4722,380.9444 L563.3611,380.2561 L573.25,380 " fill="#FFFFFF" style="stroke: #FF8C00; stroke-width: 1.5;"/><path d="M173.764,177.42 L173.9323,177.6098 L165.8619,183.9295 L158.845,191.4376 L150.6034,197.5641 L143.1594,204.5905 L135.115,210.9394 L127.419,217.6815 L120.2101,224.9729 L112.515,231.716 " fill="none" style="stroke: #FFA500; stroke-width: 1.0;"/><polygon fill="none" points="169.419,171.917,169.4611,172.0199,173.3275,170.2781,177.2992,168.7939,181.0929,166.8748,185.1838,165.6814,189.029,163.888,188.8295,163.7767,186.9038,167.5552,185.1158,171.4105,182.9954,175.0803,180.6669,178.6341,178.706,182.393,178.552,182.2565,177.0287,180.4575,174.8567,178.0834,173.2783,176.2355,171.1656,173.914,169.419,171.917" style="stroke: #FFA500; stroke-width: 1.0;"/><path d="M271.25,191.809 L271.1119,191.809 L271.4842,199.7892 L271.0928,207.7694 L271.5595,215.7496 L271.2878,223.7298 L271.25,231.71 " fill="none" style="stroke: #FFA500; stroke-width: 1.0;"/><polygon fill="none" points="264.25,191.559,264.3074,191.5791,265.7922,187.6088,266.9522,183.5248,268.4524,179.5598,269.9955,175.6099,271.25,171.559,271.4244,171.6201,272.4385,175.485,274.1865,179.6068,275.3662,183.5297,277.0429,187.6265,278.25,191.559,278.25,191.7856,275.45,191.6634,272.65,191.6762,269.85,191.6378,267.05,191.3188,264.25,191.559" style="stroke: #FFA500; stroke-width: 1.0;"/><path d="M368.14,183.924 L368.3385,184.1309 L374.9702,190.4487 L382.8719,198.0907 L389.2472,204.1411 L396.8094,211.429 L404.1672,218.5039 L410.4543,224.4624 L418.114,231.852 " fill="none" style="stroke: #FFA500; stroke-width: 1.0;"/><polygon fill="none" points="363.084,188.773,362.9054,188.6824,361.1516,184.9867,359.0711,181.1252,357.2559,177.3984,355.3492,173.6251,353.494,169.878,353.4186,169.7125,357.2623,171.4439,361.1495,173.2706,364.9915,174.998,368.8897,176.8488,372.774,178.669,372.7719,178.667,370.7536,180.6108,368.9525,182.7629,366.7997,184.5776,365.1188,186.845,363.084,188.773" style="stroke: #FFA500; stroke-width: 1.0;"/><path d="M82.5971,300.0236 L82.6727,300.03 L82.2381,307.9813 L81.4416,315.9018 L80.4841,323.8086 L79.9022,331.7473 L79.2301,339.6784 " fill="none" style="stroke: #FFA500; stroke-width: 1.0;"/><polygon fill="none" points="75.6301,299.3365,75.4075,299.2367,77.5173,295.5381,79.0378,291.5754,80.6752,287.6651,82.4113,283.799,84.2971,280,84.2887,279.9978,85.1398,284.0491,86.355,288.1942,87.6463,292.3588,88.628,296.4437,89.5799,300.521,89.5677,300.3771,86.7796,300.1629,83.9834,299.8523,81.213,299.8454,78.4365,299.7669,75.6301,299.3365" style="stroke: #FFA500; stroke-width: 1.0;"/><path d="M271.25,300.0236 L271.0267,300.0236 L271.3113,307.9546 L270.9713,315.8855 L271.006,323.8165 L271.5603,331.7474 L271.25,339.6784 " fill="none" style="stroke: #FFA500; stroke-width: 1.0;"/><polygon fill="none" points="264.25,300.0005,264.3603,300.0391,265.6058,295.9849,267.1886,292.0488,268.2737,287.9385,270.0532,284.0712,271.25,280,271.415,280.0577,272.6839,284.012,274.2685,288.0766,275.2269,291.9222,276.8611,296.0042,278.25,300.0004,278.25,300.2241,275.45,299.9849,272.65,299.8452,269.85,299.7524,267.05,300.0029,264.25,300.0005" style="stroke: #FFA500; stroke-width: 1.0;"/><path d="M335.496,288.9724 L335.8725,289.7289 L344.9677,293.9512 L354.3267,298.7035 L363.5247,303.1324 L372.515,307.1439 L381.9372,312.0232 L391.0778,316.3366 L400.6674,321.5525 L410.0725,326.3974 L418.9443,330.1707 L428.4155,335.1486 L437.755,339.8617 " fill="none" style="stroke: #FFA500; stroke-width: 1.0;"/><polygon fill="none" points="332.254,295.178,332.3525,295.274,329.1771,292.0258,326.171,288.9426,323.4528,286.1398,320.483,283.0919,317.468,280,317.4807,280.1008,321.674,280.5384,325.8547,280.8753,330.0852,281.6084,334.309,282.2887,338.492,282.644,338.6858,282.7404,337.2009,285.1291,336.2189,287.7682,334.8297,290.2045,333.3989,292.6201,332.254,295.178" style="stroke: #FFA500; stroke-width: 1.0;"/></g></svg>