<?xml version="1.0" encoding="UTF-8" standalone="yes"?><svg xmlns="http://www.w3.org/2000/svg" xmlns:xlink="http://www.w3.org/1999/xlink" height="397px" style="width:583px;height:397px;" version="1.1" viewBox="0 0 583 397" width="583px"><defs><filter height="300%" id="f1" width="300%" x="-1" y="-1"><feGaussianBlur result="blurOut" stdDeviation="2.0"/><feColorMatrix in="blurOut" result="blurOut2" type="matrix" values="0 0 0 0 0 0 0 0 0 0 0 0 0 0 0 0 0 0 .4 0"/><feOffset dx="4.0" dy="4.0" in="blurOut2" result="blurOut3"/><feBlend in="SourceGraphic" in2="blurOut3" mode="normal"/></filter></defs><g><polygon fill="#FFFFFF" filter="url(#f1)" points="189.25,8.5,189.25,9.1074,199.5,8.8593,209.75,8.596,220,8.1534,230.25,9.2086,240.5,8.7011,250.75,8.6433,261,8.3964,271.25,9.1758,281.5,8.6737,291.75,8.1066,302,8.273,312.25,9.07,322.5,8.2664,332.75,8.5026,343,8.6995,353.25,8.5,352.5398,8.5,353.7358,18.7026,352.5328,28.9053,353.6828,39.1079,353.7991,49.3105,353.6019,59.5132,353.5106,69.7158,352.6507,79.9185,352.6434,90.1211,352.713,100.3237,353.6274,110.5264,352.7204,120.729,352.9187,130.9316,353.1606,141.1343,352.7191,151.3369,353.7814,161.5396,353.25,171.7422,353.25,172.2399,343,171.9317,332.75,172.1788,322.5,171.5362,312.25,171.5276,302,171.3047,291.75,171.2849,281.5,172.175,271.25,172.3121,261,171.3475,250.75,171.196,240.5,171.3816,230.25,171.4019,220,171.1241,209.75,171.8626,199.5,171.5218,189.25,171.7422,188.6999,171.7422,189.6229,161.5396,189.3947,151.3369,188.9443,141.1343,189.3384,130.9316,189.1555,120.729,189.1619,110.5264,189.9685,100.3237,189.5227,90.1211,189.1678,79.9185,188.7263,69.7158,189.9925,59.5132,189.143,49.3105,188.6708,39.1079,189.7248,28.9053,189.3355,18.7026,189.25,8.5" style="stroke: #FF8C00; stroke-width: 1.5;"/><polygon fill="#A9DCDF" points="241.1157,26.6285,240.7806,29.9381,238.0219,31.907,236.4929,34.6662,233.2794,35.331,229.5404,35.657,226.6979,34.6192,224.7565,33.0558,222.5016,32.4147,221.6094,30.2139,220.5133,28.2018,219.4053,25.7594,219.8492,21.8634,221.8585,19.2139,223.6502,16.022,226.1266,14.1212,228.7168,13.9412,231.9118,13.1155,234.1097,13.9231,237.5413,15.5428,239.0854,17.1124,240.3897,20.3979,241.576,23.5132,242.163,27.0549" style="stroke: #FF8C00; stroke-width: 1.0;"/><path d="M230.9094,19.8438 L229.7531,24.9219 L232.0813,24.9219 L230.9094,19.8438 Z M229.425,17.6094 L232.4094,17.6094 L235.7688,30 L233.3156,30 L232.55,26.9375 L229.2688,26.9375 L228.5188,30 L226.0813,30 L229.425,17.6094 Z "/><text fill="#000000" font-family="sans-serif" font-size="12" font-style="italic" lengthAdjust="spacingAndGlyphs" textLength="73" x="250.7" y="28.6543">ObjectStore</text><path d="M190.25,40.5 L190.25,40.3274 L200.375,39.8257 L210.5,40.3298 L220.625,40.9591 L230.75,40.4166 L240.875,41.0848 L251,39.5871 L261.125,40.4024 L271.25,41.3217 L281.375,40.8983 L291.5,39.8878 L301.625,40.8727 L311.75,40.2635 L321.875,40.453 L332,40.2099 L342.125,40.4726 L352.25,40.5 " fill="#FFFFFF" style="stroke: #FF8C00; stroke-width: 1.5;"/><path d="M190.25,48.5 L190.25,49.0034 L200.375,49.264 L210.5,48.6931 L220.625,47.7476 L230.75,48.1126 L240.875,48.1187 L251,49.3312 L261.125,48.0764 L271.25,48.8422 L281.375,48.262 L291.5,49.0861 L301.625,48.956 L311.75,48.3856 L321.875,48.414 L332,48.0046 L342.125,48.0218 L352.25,48.5 " fill="#FFFFFF" style="stroke: #FF8C00; stroke-width: 1.5;"/><text fill="#000000" font-family="sans-serif" font-size="11" lengthAdjust="spacingAndGlyphs" textLength="59" x="195.25" y="62.7104">exists(obj)</text><text fill="#000000" font-family="sans-serif" font-size="11" lengthAdjust="spacingAndGlyphs" textLength="80" x="195.25" y="75.5151">file_ready(obj)</text><text fill="#000000" font-family="sans-serif" font-size="11" lengthAdjust="spacingAndGlyphs" textLength="61" x="195.25" y="88.3198">create(obj)</text><text fill="#000000" font-family="sans-serif" font-size="11" lengthAdjust="spacingAndGlyphs" textLength="47" x="195.25" y="101.1245">size(obj)</text><text fill="#000000" font-family="sans-serif" font-size="11" lengthAdjust="spacingAndGlyphs" textLength="60" x="195.25" y="113.9292">delete(obj)</text><text fill="#000000" font-family="sans-serif" font-size="11" lengthAdjust="spacingAndGlyphs" textLength="74" x="195.25" y="126.7339">get_data(obj)</text><text fill="#000000" font-family="sans-serif" font-size="11" lengthAdjust="spacingAndGlyphs" textLength="98" x="195.25" y="139.5386">get_filename(obj)</text><text fill="#000000" font-family="sans-serif" font-size="11" lengthAdjust="spacingAndGlyphs" textLength="120" x="195.25" y="152.3433">update_from_file(obj)</text><text fill="#000000" font-family="sans-serif" font-size="11" lengthAdjust="spacingAndGlyphs" textLength="152" x="195.25" y="165.1479">get_store_usage_percent()</text><polygon fill="#FFFFFF" filter="url(#f1)" points="20.25,232,20.25,232.1944,30.4038,231.5842,40.5577,232.2385,50.7115,232.0735,60.8654,231.9248,71.0192,232.5314,81.1731,231.5141,91.3269,232.7179,101.4808,232.292,111.6346,232.0895,121.7885,231.5117,131.9423,231.8496,142.0962,232.3474,152.25,232,152.361,232,151.5166,241.6,152.0403,251.2,151.9853,260.8,152.8787,270.4,152.25,280,152.25,279.8663,142.0962,280.4813,131.9423,280.365,121.7885,279.9338,111.6346,279.6051,101.4808,279.4868,91.3269,279.5491,81.1731,280.6456,71.0192,280.2929,60.8654,280.0676,50.7115,279.7509,40.5577,280.5505,30.4038,279.2643,20.25,280,20.3519,280,20.2856,270.4,19.9111,260.8,19.9393,251.2,19.7166,241.6,20.25,232" style="stroke: #FF8C00; stroke-width: 1.5;"/><polygon fill="#ADD1B2" points="46.4332,250.1713,45.3306,252.322,43.9533,255.0576,42.1842,256.9007,40.1591,257.7159,38.1665,257.9282,36.0975,258.3944,33.108,258.3161,31.0573,258.0013,28.0815,256.8442,26.1351,253.7243,24.8359,251.1723,24.253,248.2845,23.8364,246.1865,25.5682,243.0087,27.6108,240.1217,30.5781,238.3835,32.5376,237.4389,34.7605,236.8026,36.7585,237.6373,38.6421,238.1136,42.4845,238.9614,43.9733,241.1078,45.3625,242.9,45.6808,246.4403,46.0569,248.4416" style="stroke: #FF8C00; stroke-width: 1.0;"/><path d="M38.2188,253.6406 Q37.6406,253.9375 37,254.0859 Q36.3594,254.2344 35.6563,254.2344 Q33.1563,254.2344 31.8359,252.5859 Q30.5156,250.9375 30.5156,247.8125 Q30.5156,244.6875 31.8359,243.0313 Q33.1563,241.375 35.6563,241.375 Q36.3594,241.375 37.0078,241.5313 Q37.6563,241.6875 38.2188,241.9844 L38.2188,244.7031 Q37.5938,244.125 37,243.8516 Q36.4063,243.5781 35.7813,243.5781 Q34.4375,243.5781 33.75,244.6484 Q33.0625,245.7188 33.0625,247.8125 Q33.0625,249.9063 33.75,250.9766 Q34.4375,252.0469 35.7813,252.0469 Q36.4063,252.0469 37,251.7734 Q37.5938,251.5 38.2188,250.9219 L38.2188,253.6406 Z "/><text fill="#000000" font-family="sans-serif" font-size="12" lengthAdjust="spacingAndGlyphs" textLength="100" x="49.25" y="252.1543">DiskObjectStore</text><path d="M21.25,264 L21.25,263.301 L31.25,263.6463 L41.25,263.3518 L51.25,264.3192 L61.25,264.1271 L71.25,264.39 L81.25,264.4405 L91.25,264.0254 L101.25,264.0565 L111.25,263.6641 L121.25,263.9722 L131.25,263.4319 L141.25,264.2509 L151.25,264 " fill="#FFFFFF" style="stroke: #FF8C00; stroke-width: 1.5;"/><path d="M21.25,272 L21.25,272.8617 L31.25,272.0215 L41.25,271.2434 L51.25,272.9991 L61.25,272.3818 L71.25,271.073 L81.25,271.0397 L91.25,272.8938 L101.25,271.4332 L111.25,271.2015 L121.25,271.5959 L131.25,271.0375 L141.25,272.7138 L151.25,272 " fill="#FFFFFF" style="stroke: #FF8C00; stroke-width: 1.5;"/><polygon fill="#FFFFFF" filter="url(#f1)" points="197,232,197,231.7381,206.9333,231.5197,216.8667,231.5843,226.8,232.257,236.7333,231.8736,246.6667,231.4547,256.6,232.2839,266.5333,232.2107,276.4667,231.8393,286.4,231.4048,296.3333,231.4958,306.2667,231.4527,316.2,232.4776,326.1333,231.4619,336.0667,232.6167,346,232,345.2907,232,345.5813,241.6,346.2405,251.2,345.3184,260.8,345.4835,270.4,346,280,346,280.1586,336.0667,279.6413,326.1333,280.6961,316.2,279.5078,306.2667,279.7281,296.3333,280.2529,286.4,279.8905,276.4667,279.3273,266.5333,280.2142,256.6,279.425,246.6667,280.6448,236.7333,280.4674,226.8,279.751,216.8667,280.5692,206.9333,279.722,197,280,196.5096,280,197.5227,270.4,196.9741,260.8,196.409,251.2,196.3886,241.6,197,232" style="stroke: #FF8C00; stroke-width: 1.5;"/><polygon fill="#A9DCDF" points="222.6346,251.2947,221.9229,253.5469,220.1735,254.6751,218.0894,257.0666,216.0616,258.5877,214.0516,259.0552,210.273,258.9181,208.1065,257.8616,206.1342,257.3963,204.4338,255.0093,202.9063,253.8338,202.2852,251.6157,201.4679,248.4993,201.3267,245.5832,202.1391,243.5441,202.8361,241.3831,205.5927,239.2574,208.6113,237.2018,211.6713,237.0835,214.8539,236.7739,217.6884,238.1242,219.6607,240.1705,220.8505,241.8158,223.001,244.215,222.4248,247.0521,222.5656,249.3782" style="stroke: #FF8C00; stroke-width: 1.0;"/><path d="M212.1094,243.3438 L210.9531,248.4219 L213.2813,248.4219 L212.1094,243.3438 Z M210.625,241.1094 L213.6094,241.1094 L216.9688,253.5 L214.5156,253.5 L213.75,250.4375 L210.4688,250.4375 L209.7188,253.5 L207.2813,253.5 L210.625,241.1094 Z "/><text fill="#000000" font-family="sans-serif" font-size="12" font-style="italic" lengthAdjust="spacingAndGlyphs" textLength="117" x="226" y="252.1543">NestedObjectStore</text><path d="M198,264 L198,263.753 L207.8,263.1958 L217.6,264.9787 L227.4,264.6685 L237.2,264.4132 L247,263.8033 L256.8,263.4797 L266.6,264.2104 L276.4,264.3254 L286.2,264.3524 L296,263.5478 L305.8,263.2112 L315.6,263.4457 L325.4,264.0528 L335.2,264.3265 L345,264 " fill="#FFFFFF" style="stroke: #FF8C00; stroke-width: 1.5;"/><path d="M198,272 L198,271.5764 L207.8,272.2557 L217.6,272.7035 L227.4,271.6008 L237.2,272.2153 L247,271.7183 L256.8,271.3303 L266.6,272.0138 L276.4,271.7933 L286.2,271.7292 L296,271.0223 L305.8,272.4802 L315.6,272.9252 L325.4,272.5601 L335.2,271.9914 L345,272 " fill="#FFFFFF" style="stroke: #FF8C00; stroke-width: 1.5;"/><polygon fill="#FFFFFF" filter="url(#f1)" points="381.25,232,381.25,231.3222,391.4167,232.5405,401.5833,232.3789,411.75,231.3562,421.9167,232.3961,432.0833,231.6835,442.25,231.3215,452.4167,231.7268,462.5833,231.9915,472.75,231.2812,482.9167,232.6293,493.0833,232.0658,503.25,232,502.8495,232,503.5471,241.6,502.8565,251.2,503.3118,260.8,503.1549,270.4,503.25,280,503.25,280.3478,493.0833,279.3952,482.9167,280.5549,472.75,279.4133,462.5833,279.8553,452.4167,279.3827,442.25,279.9949,432.0833,279.8238,421.9167,279.4041,411.75,279.3771,401.5833,280.1006,391.4167,280.3614,381.25,280,381.9125,280,381.6599,270.4,381.2585,260.8,381.843,251.2,380.8844,241.6,381.25,232" style="stroke: #FF8C00; stroke-width: 1.5;"/><polygon fill="#ADD1B2" points="406.7466,251.2265,405.2094,253.7771,402.7686,256.1854,401.0063,258.3421,397.2771,259.0637,394.1118,259.3792,392.2523,258.4612,389.6264,256.2041,387.4345,255.0454,385.3591,252.0445,385.2578,249.471,384.9262,247.3993,385.5822,245.1427,386.137,242.8448,387.8314,240.7511,389.9349,239.0064,392.1248,237.7908,394.6575,236.6656,398.0404,237.8108,400.7376,237.3864,402.513,239.698,404.9597,241.4807,406.5354,243.5581,406.7887,246.4004,406.4657,249.8822" style="stroke: #FF8C00; stroke-width: 1.0;"/><path d="M399.2188,253.6406 Q398.6406,253.9375 398,254.0859 Q397.3594,254.2344 396.6563,254.2344 Q394.1563,254.2344 392.8359,252.5859 Q391.5156,250.9375 391.5156,247.8125 Q391.5156,244.6875 392.8359,243.0313 Q394.1563,241.375 396.6563,241.375 Q397.3594,241.375 398.0078,241.5313 Q398.6563,241.6875 399.2188,241.9844 L399.2188,244.7031 Q398.5938,244.125 398,243.8516 Q397.4063,243.5781 396.7813,243.5781 Q395.4375,243.5781 394.75,244.6484 Q394.0625,245.7188 394.0625,247.8125 Q394.0625,249.9063 394.75,250.9766 Q395.4375,252.0469 396.7813,252.0469 Q397.4063,252.0469 398,251.7734 Q398.5938,251.5 399.2188,250.9219 L399.2188,253.6406 Z "/><text fill="#000000" font-family="sans-serif" font-size="12" lengthAdjust="spacingAndGlyphs" textLength="90" x="410.25" y="252.1543">S3ObjectStore</text><path d="M382.25,264 L382.25,263.2291 L392.25,263.6626 L402.25,264.0244 L412.25,264.7923 L422.25,263.1489 L432.25,263.8711 L442.25,263.6206 L452.25,263.1312 L462.25,264.333 L472.25,263.6444 L482.25,264.2598 L492.25,263.5834 L502.25,264 " fill="#FFFFFF" style="stroke: #FF8C00; stroke-width: 1.5;"/><path d="M382.25,272 L382.25,271.3036 L392.25,272.678 L402.25,271.4355 L412.25,272.368 L422.25,271.1808 L432.25,272.6468 L442.25,271.7031 L452.25,272.4033 L462.25,271.8434 L472.25,272.1217 L482.25,271.0774 L492.25,271.235 L502.25,272 " fill="#FFFFFF" style="stroke: #FF8C00; stroke-width: 1.5;"/><polygon fill="#FFFFFF" filter="url(#f1)" points="6,340,6,340.0195,16.2143,339.3222,26.4286,339.9352,36.6429,340.3881,46.8571,340.165,57.0714,339.9391,67.2857,339.3849,77.5,339.5069,87.7143,340.1381,97.9286,340.4943,108.1429,339.5727,118.3571,339.3719,128.5714,340.1802,138.7857,340.0799,149,340,148.7246,340,149.3316,349.6,148.508,359.2,149.5304,368.8,149.2126,378.4,149,388,149,388.3742,138.7857,387.3726,128.5714,388.5906,118.3571,387.9666,108.1429,388.1943,97.9286,388.0671,87.7143,388.3011,77.5,388.4408,67.2857,388.6388,57.0714,388.1662,46.8571,388.0374,36.6429,388.3037,26.4286,387.3313,16.2143,387.9498,6,388,6.2892,388,6.298,378.4,6.0799,368.8,6.4645,359.2,5.8557,349.6,6,340" style="stroke: #FF8C00; stroke-width: 1.5;"/><polygon fill="#ADD1B2" points="31.1732,358.0257,31.3961,360.3953,29.0478,362.8505,27.3499,364.2987,24.4643,366.6318,21.9134,366.9039,18.526,366.3192,15.936,366.1505,14.5991,364.5562,13.1001,363.017,11.4575,361.5804,9.9217,359.3742,9.7982,355.6081,10.8713,353.0756,10.8473,350.545,12.7998,349.4475,15.2765,347.0957,17.0316,346.0834,19.5816,345.2785,22.5024,345.7838,24.9043,346.191,27.7774,347.6196,30.4894,349.8308,31.2985,352.9327,31.3244,355.9425,31.9558,359.4097" style="stroke: #FF8C00; stroke-width: 1.0;"/><path d="M23.9688,361.6406 Q23.3906,361.9375 22.75,362.0859 Q22.1094,362.2344 21.4063,362.2344 Q18.9063,362.2344 17.5859,360.5859 Q16.2656,358.9375 16.2656,355.8125 Q16.2656,352.6875 17.5859,351.0313 Q18.9063,349.375 21.4063,349.375 Q22.1094,349.375 22.7578,349.5313 Q23.4063,349.6875 23.9688,349.9844 L23.9688,352.7031 Q23.3438,352.125 22.75,351.8516 Q22.1563,351.5781 21.5313,351.5781 Q20.1875,351.5781 19.5,352.6484 Q18.8125,353.7188 18.8125,355.8125 Q18.8125,357.9063 19.5,358.9766 Q20.1875,360.0469 21.5313,360.0469 Q22.1563,360.0469 22.75,359.7734 Q23.3438,359.5 23.9688,358.9219 L23.9688,361.6406 Z "/><text fill="#000000" font-family="sans-serif" font-size="12" lengthAdjust="spacingAndGlyphs" textLength="111" x="35" y="360.1543">IRODSObjectStore</text><path d="M7,372 L7,372.6079 L17.0714,371.0739 L27.1429,372.2567 L37.2143,371.1465 L47.2857,371.4653 L57.3571,371.5927 L67.4286,372.963 L77.5,371.5565 L87.5714,372.8101 L97.6429,372.2913 L107.7143,371.8627 L117.7857,371.2377 L127.8571,371.5875 L137.9286,371.701 L148,372 " fill="#FFFFFF" style="stroke: #FF8C00; stroke-width: 1.5;"/><path d="M7,380 L7,380.4785 L17.0714,379.5897 L27.1429,379.5955 L37.2143,380.2909 L47.2857,380.9526 L57.3571,379.2624 L67.4286,379.4447 L77.5,380.6893 L87.5714,380.5522 L97.6429,379.7026 L107.7143,380.4623 L117.7857,379.5081 L127.8571,379.7569 L137.9286,379.3785 L148,380 " fill="#FFFFFF" style="stroke: #FF8C00; stroke-width: 1.5;"/><polygon fill="#FFFFFF" filter="url(#f1)" points="184,340,184,340.1081,193.7222,340.053,203.4444,339.6651,213.1667,339.882,222.8889,339.5565,232.6111,339.287,242.3333,339.3879,252.0556,340.1606,261.7778,340.003,271.5,340.4905,281.2222,339.7424,290.9444,340.0145,300.6667,339.9567,310.3889,339.6923,320.1111,340.619,329.8333,339.7177,339.5556,339.8559,349.2778,340.3883,359,340,359.5836,340,359.54,349.6,358.3903,359.2,358.4005,368.8,358.7384,378.4,359,388,359,388.3832,349.2778,388.232,339.5556,388.6803,329.8333,387.8445,320.1111,388.2446,310.3889,387.4517,300.6667,388.7288,290.9444,388.3367,281.2222,388.3473,271.5,387.9373,261.7778,388.5052,252.0556,387.8753,242.3333,388.0177,232.6111,387.7418,222.8889,388.5976,213.1667,388.4204,203.4444,387.5755,193.7222,387.9886,184,388,183.5302,388,183.9863,378.4,184.1481,368.8,183.7272,359.2,183.3925,349.6,184,340" style="stroke: #FF8C00; stroke-width: 1.5;"/><polygon fill="#ADD1B2" points="210.3543,358.0287,208.7974,359.9338,207.3853,363.3261,204.6359,365.0453,201.5761,366.701,198.4037,366.3178,194.9738,366.4488,192.2291,364.3354,190.3116,362.1135,188.9425,359.612,188.3795,356.7837,188.3142,353.1465,189.4984,351.4423,190.6281,348.6075,192.7027,347.6246,194.6877,346.0322,197.4634,344.5405,200.1069,345.5345,203.2667,345.2648,204.7005,347.2912,207.9879,348.5494,209.2503,351.6418,209.9868,354.5893,210.5297,356.6283" style="stroke: #FF8C00; stroke-width: 1.0;"/><path d="M201.9688,361.6406 Q201.3906,361.9375 200.75,362.0859 Q200.1094,362.2344 199.4063,362.2344 Q196.9063,362.2344 195.5859,360.5859 Q194.2656,358.9375 194.2656,355.8125 Q194.2656,352.6875 195.5859,351.0313 Q196.9063,349.375 199.4063,349.375 Q200.1094,349.375 200.7578,349.5313 Q201.4063,349.6875 201.9688,349.9844 L201.9688,352.7031 Q201.3438,352.125 200.75,351.8516 Q200.1563,351.5781 199.5313,351.5781 Q198.1875,351.5781 197.5,352.6484 Q196.8125,353.7188 196.8125,355.8125 Q196.8125,357.9063 197.5,358.9766 Q198.1875,360.0469 199.5313,360.0469 Q200.1563,360.0469 200.75,359.7734 Q201.3438,359.5 201.9688,358.9219 L201.9688,361.6406 Z "/><text fill="#000000" font-family="sans-serif" font-size="12" lengthAdjust="spacingAndGlyphs" textLength="143" x="213" y="360.1543">DistributedObjectStore</text><path d="M185,372 L185,372.4919 L195.1765,372.0697 L205.3529,372.6865 L215.5294,371.2944 L225.7059,372.2464 L235.8824,372.7859 L246.0588,372.5733 L256.2353,372.5743 L266.4118,371.8313 L276.5882,371.988 L286.7647,371.7087 L296.9412,371.6827 L307.1176,371.6667 L317.2941,371.7348 L327.4706,372.4241 L337.6471,371.602 L347.8235,371.4747 L358,372 " fill="#FFFFFF" style="stroke: #FF8C00; stroke-width: 1.5;"/><path d="M185,380 L185,380.7397 L195.1765,380.5563 L205.3529,379.5523 L215.5294,380.1458 L225.7059,379.3787 L235.8824,380.6316 L246.0588,379.8253 L256.2353,380.1967 L266.4118,380.1246 L276.5882,380.4661 L286.7647,379.7122 L296.9412,379.4478 L307.1176,379.9785 L317.2941,379.5069 L327.4706,380.4993 L337.6471,379.2957 L347.8235,379.0131 L358,380 " fill="#FFFFFF" style="stroke: #FF8C00; stroke-width: 1.5;"/><polygon fill="#FFFFFF" filter="url(#f1)" points="394.25,340,394.25,340.3392,404.25,340.2053,414.25,340.1086,424.25,340.4719,434.25,340.2591,444.25,340.7339,454.25,340.1358,464.25,340.4058,474.25,339.57,484.25,340.5992,494.25,339.8003,504.25,340.6513,514.25,339.6697,524.25,340.4012,534.25,339.978,544.25,339.2537,554.25,339.26,564.25,339.3479,574.25,340,573.952,340,574.3757,349.6,574.8383,359.2,574.9852,368.8,574.7396,378.4,574.25,388,574.25,387.7737,564.25,387.6173,554.25,388.017,544.25,388.1135,534.25,388.2254,524.25,387.3509,514.25,388.7184,504.25,388.65,494.25,388.3257,484.25,388.5857,474.25,388.14,464.25,388.6532,454.25,387.3094,444.25,387.4707,434.25,388.2054,424.25,388.6425,414.25,388.7446,404.25,387.9539,394.25,388,394.155,388,394.0153,378.4,393.837,368.8,394.7137,359.2,394.3495,349.6,394.25,340" style="stroke: #FF8C00; stroke-width: 1.5;"/><polygon fill="#ADD1B2" points="419.86,358.2016,418.7182,360.7313,417.3428,364.0083,414.5152,365.1496,411.1735,366.7269,409.1822,366.8807,406.6283,366.7157,404.2428,365.4252,401.7947,364.5566,399.6498,362.0024,399.4767,359.4958,399.0277,357.371,397.9737,354.2959,398.8638,351.7515,400.9127,348.4703,403.7297,347.144,405.5987,346.0851,408.4947,345.1413,410.8351,344.6591,413.5252,345.9091,415.7068,346.719,417.3474,348.9229,419.5085,351.8664,420.5494,353.6471,420.2434,356.673" style="stroke: #FF8C00; stroke-width: 1.0;"/><path d="M412.2188,361.6406 Q411.6406,361.9375 411,362.0859 Q410.3594,362.2344 409.6563,362.2344 Q407.1563,362.2344 405.8359,360.5859 Q404.5156,358.9375 404.5156,355.8125 Q404.5156,352.6875 405.8359,351.0313 Q407.1563,349.375 409.6563,349.375 Q410.3594,349.375 411.0078,349.5313 Q411.6563,349.6875 412.2188,349.9844 L412.2188,352.7031 Q411.5938,352.125 411,351.8516 Q410.4063,351.5781 409.7813,351.5781 Q408.4375,351.5781 407.75,352.6484 Q407.0625,353.7188 407.0625,355.8125 Q407.0625,357.9063 407.75,358.9766 Q408.4375,360.0469 409.7813,360.0469 Q410.4063,360.0469 411,359.7734 Q411.5938,359.5 412.2188,358.9219 L412.2188,361.6406 Z "/><text fill="#000000" font-family="sans-serif" font-size="12" lengthAdjust="spacingAndGlyphs" textLength="148" x="423.25" y="360.1543">HierarchicalObjectStore</text><path d="M395.25,372 L395.25,371.8626 L405.1389,372.0093 L415.0278,372.3614 L424.9167,372.56 L434.8056,371.2816 L444.6944,371.0134 L454.5833,371.952 L464.4722,372.6784 L474.3611,371.97 L484.25,371.3587 L494.1389,372.1417 L504.0278,371.4133 L513.9167,371.9973 L523.8056,371.1302 L533.6944,371.0142 L543.5833,372.5837 L553.4722,372.3632 L563.3611,372.2782 L573.25,372 " fill="#FFFFFF" style="stroke: #FF8C00; stroke-width: 1.5;"/><path d="M395.25,380 L395.25,380.5743 L405.1389,380.0204 L415.0278,379.4034 L424.9167,379.0666 L434.8056,379.7393 L444.6944,380.8241 L454.5833,380.4693 L464.4722,379.6434 L474.3611,380.6249 L484.25,379.618 L494.1389,379.1427 L504.0278,380.1467 L513.9167,380.442 L523.8056,380.3492 L533.6944,379.4627 L543.5833,379.5234 L553.4722,380.5013 L563.3611,379.6748 L573.25,380 " fill="#FFFFFF" style="stroke: #FF8C00; stroke-width: 1.5;"/><path d="M173.764,177.42 L173.2967,176.8928 L166.7324,184.9115 L158.0871,190.5827 L150.3899,197.3234 L142.5231,203.8726 L135.6894,211.5874 L127.7773,218.0857 L120.6362,225.4536 L112.515,231.716 " fill="none" style="stroke: #FFA500; stroke-width: 1.0;"/><polygon fill="none" points="169.419,171.917,169.3845,171.8328,173.3417,170.3128,177.2909,168.7736,181.2309,167.2116,185.1022,165.4821,189.029,163.888,189.1182,163.9378,186.9918,167.6043,185.078,171.3894,182.7773,174.9587,180.6179,178.6068,178.706,182.393,178.5819,182.283,176.9127,180.3547,175.0024,178.2125,173.0581,176.0403,171.4388,174.1562,169.419,171.917" style="stroke: #FFA500; stroke-width: 1.0;"/><path d="M271.25,191.809 L270.9396,191.809 L271.28,199.7892 L270.9647,207.7694 L271.547,215.7496 L270.9984,223.7298 L271.25,231.71 " fill="none" style="stroke: #FFA500; stroke-width: 1.0;"/><polygon fill="none" points="264.25,191.559,264.4793,191.6392,265.8095,187.6148,266.887,183.502,268.4494,179.5588,269.8417,175.5561,271.25,171.559,271.0375,171.4846,272.7437,175.5918,274.1109,179.5803,275.3392,183.5202,276.7435,187.5217,278.25,191.559,278.25,191.8082,275.45,191.4162,272.65,191.3368,269.85,191.7148,267.05,191.4822,264.25,191.559" style="stroke: #FFA500; stroke-width: 1.0;"/><path d="M368.14,183.924 L368.1329,183.9166 L375.1465,190.6325 L381.9278,197.1063 L390.1166,205.0476 L396.0061,210.5914 L403.8777,218.2021 L411.5775,225.6336 L418.114,231.852 " fill="none" style="stroke: #FFA500; stroke-width: 1.0;"/><polygon fill="none" points="363.084,188.773,363.0726,188.7672,361.1955,185.009,359.1987,181.19,357.1956,177.3678,355.2201,173.5596,353.494,169.878,353.537,169.9722,357.2629,171.4452,361.2592,173.5111,364.9908,174.9964,368.9732,177.0318,372.774,178.669,372.8885,178.7788,370.9745,180.8226,368.9248,182.7363,366.9371,184.7095,365.0282,186.7582,363.084,188.773" style="stroke: #FFA500; stroke-width: 1.0;"/><path d="M82.5971,300.0236 L82.5757,300.0218 L81.8648,307.9496 L81.2594,315.8863 L80.6394,323.8218 L80.0969,331.7639 L79.2301,339.6784 " fill="none" style="stroke: #FFA500; stroke-width: 1.0;"/><polygon fill="none" points="75.6301,299.3365,75.7099,299.3723,77.5373,295.5471,79.2458,291.6687,80.7592,287.7027,82.4817,283.8306,84.2971,280,84.4919,280.0501,85.1786,284.0591,86.572,288.2501,87.3163,292.2739,88.5211,296.4162,89.5799,300.521,89.5943,300.6911,86.8015,300.4206,84.0035,300.0887,81.1995,299.6866,78.4117,299.4754,75.6301,299.3365" style="stroke: #FFA500; stroke-width: 1.0;"/><path d="M271.25,300.0236 L271.409,300.0236 L271.3214,307.9546 L270.9318,315.8855 L271.0184,323.8165 L271.2717,331.7474 L271.25,339.6784 " fill="none" style="stroke: #FFA500; stroke-width: 1.0;"/><polygon fill="none" points="264.25,300.0005,264.0331,299.9246,265.6083,295.9858,267.277,292.0798,268.2832,287.9418,269.7748,283.9738,271.25,280,271.2995,280.0173,272.4559,283.9322,274.0416,287.9972,275.4202,291.9898,277.0542,296.0718,278.25,300.0004,278.25,299.8043,275.45,299.9473,272.65,299.8811,269.85,299.9916,267.05,299.9302,264.25,300.0005" style="stroke: #FFA500; stroke-width: 1.0;"/><path d="M335.496,288.9724 L335.6113,289.204 L344.7546,293.523 L354.5158,299.0836 L363.4108,302.9036 L372.9209,307.9595 L381.913,311.9746 L390.8506,315.8801 L400.7475,321.7134 L409.6208,325.4897 L419.4403,331.1674 L428.552,335.4227 L437.755,339.8617 " fill="none" style="stroke: #FFA500; stroke-width: 1.0;"/><polygon fill="none" points="332.254,295.178,332.4139,295.3338,329.4093,292.252,326.3954,289.1611,323.4159,286.1038,320.4629,283.0723,317.468,280,317.458,279.9203,321.6971,280.7218,325.8936,281.1845,330.1076,281.7866,334.3166,282.3489,338.492,282.644,338.4175,282.6069,337.2315,285.1444,335.7748,287.5471,334.5707,290.0756,333.3993,292.6203,332.254,295.178" style="stroke: #FFA500; stroke-width: 1.0;"/></g></svg>