<svg id="mermaidChart0" width="1200" height="740.2692778457772" viewBox="-150 -10 550 336" style="width: 1192; height: 740.2692778457772;" version="1.1" xmlns="http://www.w3.org/2000/svg" xmlns:xlink="http://www.w3.org/1999/xlink"><style type="text/css" title="mermaid-svg-internal-css">/*  */
.actor { stroke: #13540c; fill: #cde498;}
text.actor { fill: #000000; stroke: none;}
.actor-line { stroke: #808080;}
.messageline0 { stroke-width: 1.5px; stroke: #333333;}
#arrowhead { fill: #333333;}
#crosshead path { fill: #333333 !important; stroke: #333333 !important;}
.messagetext { fill: #333333; stroke: none;}
.note { stroke: #6eaa49; fill: #fff5ad;}
.notetext { fill: #000000; stroke: none; font-family: 'trebuchet ms', verdana, arial; font-size: 14px;}
/*  */
</style><g/><g><line id="actor0" x1="75" y1="5" x2="75" y2="316" class="actor-line" stroke-width="0.5px" stroke="#999"/><rect x="0" y="0" fill="#eaeaea" stroke="#666" width="150" height="65" rx="3" ry="3" class="actor"/><text x="75" y="37.5" class="actor" style="text-anchor: middle;">Browser</text></g><g><line id="actor1" x1="275" y1="5" x2="275" y2="316" class="actor-line" stroke-width="0.5px" stroke="#999"/><rect x="200" y="0" fill="#eaeaea" stroke="#666" width="150" height="65" rx="3" ry="3" class="actor"/><text x="275" y="37.5" class="actor" style="text-anchor: middle;">Server</text></g><defs><marker id="arrowhead" refX="5" refY="2" markerWidth="6" markerHeight="4" orient="auto"><path d="M 0,0 V 4 L6,2 Z"/></marker></defs><defs><marker id="crosshead" markerWidth="15" markerHeight="8" orient="auto" refX="16" refY="4"><path fill="black" stroke="#000000" stroke-width="1px" d="M 9,2 V 6 L16,4 Z" style="stroke-dasharray: 0px, 0px;"/><path fill="none" stroke="#000000" stroke-width="1px" d="M 0,1 L 6,7 M 6,1 L 0,7" style="stroke-dasharray: 0px, 0px;"/></marker></defs><g><rect x="50" y="75" fill="#EDF2AE" stroke="#666" width="250" height="37" rx="0" ry="0" class="note"/><text x="66" y="99" fill="black" class="noteText"><tspan x="66">HTTP</tspan></text></g><g><text x="175" y="140" class="messageText" style="text-anchor: middle;">Page Request</text><line x1="75" y1="147" x2="275" y2="147" class="messageLine0" stroke-width="2" stroke="black" marker-end="url(#arrowhead)" style="fill: none;"/></g><g><rect x="270" y="149" fill="#f4f4f4" stroke="#666" width="10" height="33" rx="0" ry="0"/></g><g><text x="172.5" y="175" class="messageText" style="text-anchor: middle;">Static Content (HTML+JS+CSS)</text><line x1="270" y1="182" x2="75" y2="182" class="messageLine0" stroke-width="2" stroke="black" marker-end="url(#arrowhead)" style="fill: none;"/></g><g><rect x="-100" y="192" fill="#EDF2AE" stroke="#666" width="150" height="54" rx="0" ry="0" class="note"/><text x="-84" y="216" fill="black" class="noteText"><tspan x="-84">MVC with</tspan><tspan dy="17" x="-84">Backbone.js</tspan></text></g><g><text x="175" y="274" class="messageText" style="text-anchor: middle;">API Request (JSON)</text><line x1="75" y1="281" x2="275" y2="281" class="messageLine0" stroke-width="2" stroke="black" marker-end="url(#arrowhead)" style="fill: none;"/></g><g><rect x="270" y="283" fill="#f4f4f4" stroke="#666" width="10" height="33" rx="0" ry="0"/></g><g><text x="172.5" y="309" class="messageText" style="text-anchor: middle;">API Response (JSON)</text><line x1="270" y1="316" x2="75" y2="316" class="messageLine0" stroke-width="2" stroke="black" marker-end="url(#arrowhead)" style="fill: none;"/></g></svg>