<?xml version="1.0" encoding="UTF-8" standalone="yes"?><svg xmlns="http://www.w3.org/2000/svg" xmlns:xlink="http://www.w3.org/1999/xlink" height="195px" style="width:372px;height:195px;" version="1.1" viewBox="0 0 372 195" width="372px"><defs><filter height="300%" id="f1" width="300%" x="-1" y="-1"><feGaussianBlur result="blurOut" stdDeviation="2.0"/><feColorMatrix in="blurOut" result="blurOut2" type="matrix" values="0 0 0 0 0 0 0 0 0 0 0 0 0 0 0 0 0 0 .4 0"/><feOffset dx="4.0" dy="4.0" in="blurOut2" result="blurOut3"/><feBlend in="SourceGraphic" in2="blurOut3" mode="normal"/></filter></defs><g><polygon fill="#FFFFFF" filter="url(#f1)" points="6,8,6,7.4558,16.1429,8.0497,26.2857,8.2106,36.4286,8.2022,46.5714,8.5587,56.7143,7.9122,66.8571,8.0361,77,7.4355,87.1429,8.4427,97.2857,8.0367,107.4286,7.9291,117.5714,7.297,127.7143,8.3941,137.8571,7.4504,148,8.1684,158.1429,7.6105,168.2857,7.326,178.4286,8.0442,188.5714,7.7244,198.7143,8.3856,208.8571,8.7418,219,8.7023,229.1429,7.5173,239.2857,7.668,249.4286,7.4732,259.5714,8.7052,269.7143,8.0718,279.8571,8.1915,290,8,289.2521,8,289.6965,18.5215,290.0781,29.043,289.9278,39.5645,290.3699,50.0859,290.6963,60.6074,289.4688,71.1289,289.799,81.6504,290,92.1719,290,91.4922,279.8571,91.5906,269.7143,91.6011,259.5714,92.491,249.4286,91.5867,239.2857,92.6692,229.1429,91.4424,219,91.9274,208.8571,92.585,198.7143,92.8254,188.5714,91.9778,178.4286,91.727,168.2857,92.3839,158.1429,92.0198,148,92.4608,137.8571,91.9386,127.7143,92.2614,117.5714,92.2123,107.4286,92.7628,97.2857,92.1697,87.1429,91.5862,77,91.5168,66.8571,92.7903,56.7143,92.758,46.5714,92.7595,36.4286,91.7795,26.2857,92.169,16.1429,92.803,6,92.1719,6.302,92.1719,5.7563,81.6504,5.2766,71.1289,5.33,60.6074,6.4709,50.0859,6.1638,39.5645,5.8443,29.043,6.6803,18.5215,6,8" style="stroke: #FF8C00; stroke-width: 1.5;"/><text fill="#000000" font-family="sans-serif" font-size="12" lengthAdjust="spacingAndGlyphs" textLength="49" x="123.5" y="21.1387">webapp</text><path d="M7,25.9688 L7,26.5027 L17.0714,25.6292 L27.1429,25.1311 L37.2143,26.7281 L47.2857,25.2383 L57.3571,26.0507 L67.4286,25.239 L77.5,26.0305 L87.5714,26.7314 L97.6429,25.7428 L107.7143,25.4845 L117.7857,26.8745 L127.8571,26.8229 L137.9286,25.2545 L148,26.3775 L158.0714,26.4281 L168.1429,26.1494 L178.2143,26.6702 L188.2857,26.3561 L198.3571,26.0295 L208.4286,26.0755 L218.5,25.1415 L228.5714,24.9836 L238.6429,25.255 L248.7143,26.898 L258.7857,26.2844 L268.8571,25.0557 L278.9286,25.7856 L289,25.9688 " fill="#FFFFFF" style="stroke: #FF8C00; stroke-width: 1.5;"/><text fill="#000000" font-family="sans-serif" font-size="10" lengthAdjust="spacingAndGlyphs" textLength="76" x="12" y="39.251">controllers : dict</text><text fill="#000000" font-family="sans-serif" font-size="10" lengthAdjust="spacingAndGlyphs" textLength="95" x="12" y="50.8916">api_controllers : dict</text><text fill="#000000" font-family="sans-serif" font-size="10" lengthAdjust="spacingAndGlyphs" textLength="118" x="12" y="62.5322">mapper : routes.Mapper</text><text fill="#000000" font-family="sans-serif" font-size="10" lengthAdjust="spacingAndGlyphs" textLength="228" x="12" y="74.1729">handle_request: (environ, start_response) -&gt; ()</text><text fill="#000000" font-family="sans-serif" font-size="10" lengthAdjust="spacingAndGlyphs" textLength="272" x="12" y="85.8135">transaction_factory: (environ) -&gt; GalaxyWebTransaction</text><polygon fill="#FFFFFF" filter="url(#f1)" points="325,33,325,32.8578,332.6,32.7798,340.2,33.0648,347.8,33.2308,355.4,33.1657,363,33,362.8678,33,362.9546,39.7938,362.9572,46.5875,363.1373,53.3813,363.0804,60.175,363,66.9688,363,67.0116,355.4,66.9885,347.8,66.8715,340.2,67.1763,332.6,66.8468,325,66.9688,324.8396,66.9688,324.9177,60.175,325.1609,53.3813,324.9905,46.5875,325.2367,39.7938,325,33" style="stroke: #FF8C00; stroke-width: 1.5;"/><text fill="#000000" font-family="sans-serif" font-size="12" lengthAdjust="spacingAndGlyphs" textLength="24" x="332" y="46.1387">app</text><path d="M326,50.9688 L326,51.2963 L333.2,51.1844 L340.4,51.0448 L347.6,51.0302 L354.8,51.1989 L362,50.9688 " fill="#FFFFFF" style="stroke: #FF8C00; stroke-width: 1.5;"/><polygon fill="#FFFFFF" filter="url(#f1)" points="222.75,152,222.75,152.1492,232.15,151.655,241.55,152.7089,250.95,152.7122,260.35,152.7105,269.75,152,269.8132,152,269.5455,158.7938,269.8494,165.5875,269.9636,172.3813,269.7725,179.175,269.75,185.9688,269.75,185.2846,260.35,185.9383,250.95,185.2363,241.55,185.5947,232.15,186.2523,222.75,185.9688,222.5499,185.9688,222.832,179.175,222.5197,172.3813,222.8868,165.5875,222.9032,158.7938,222.75,152" style="stroke: #FF8C00; stroke-width: 1.5;"/><text fill="#000000" font-family="sans-serif" font-size="12" lengthAdjust="spacingAndGlyphs" textLength="33" x="229.75" y="165.1387">trans</text><path d="M223.75,169.9688 L223.75,170.6501 L232.75,170.3124 L241.75,169.7528 L250.75,170.3084 L259.75,169.036 L268.75,169.9688 " fill="#FFFFFF" style="stroke: #FF8C00; stroke-width: 1.5;"/><path d="M290.023,50 L290.023,50.1862 L295.9122,50.1536 L301.8014,50.2836 L307.6906,49.7227 L313.5798,50.1585 L319.469,50 " fill="none" style="stroke: #FFA500; stroke-width: 1.0;"/><polygon fill="#FFA500" points="324.602,50,324.583,49.9573,322.8136,49.2262,320.9595,48.3043,319.1138,47.4016,317.3548,46.6938,315.602,46,315.7248,46.1228,316.2616,46.6596,317.1924,47.5904,317.9289,48.3269,318.6379,49.0359,319.602,50,319.4979,49.8959,318.704,50.702,317.9142,51.5122,317.2514,52.4494,316.2372,53.0352,315.602,54,315.5981,53.9911,317.4967,53.413,319.1703,52.3287,321.0445,51.6955,322.8616,50.9341,324.602,50" style="stroke: #FFA500; stroke-width: 1.0;"/><text fill="#FFFFFF" font-family="sans-serif" font-size="13" lengthAdjust="spacingAndGlyphs" textLength="24" x="292.9199" y="44.3307">app</text><path d="M326.936,71.372 L326.9317,71.3684 L321.1291,78.9602 L314.0031,85.4436 L308.9948,93.7007 L301.9449,100.2478 L295.9164,107.6504 L290.5907,115.6417 L284.2112,122.7503 L277.7908,129.8247 L272.1266,137.5325 L266.2294,145.045 L259.511,151.8698 " fill="none" style="stroke: #FFA500; stroke-width: 1.0;"/><polygon fill="#FFA500" points="330.374,67.268,330.3674,67.2544,328.7121,68.353,326.8676,69.0654,325.0524,69.8373,323.4039,70.9499,321.5288,71.5996,321.5181,71.4786,322.6482,71.4139,323.7655,71.2051,324.8889,71.0656,326.018,70.9898,327.1637,71.1012,327.4103,71.1231,327.195,72.2222,327.4896,73.3664,327.555,74.4903,327.5026,75.6039,327.662,76.7361,327.4228,76.6676,328.1906,74.8385,328.6491,72.9209,329.3751,71.0798,329.892,69.1789,330.374,67.268" style="stroke: #FFA500; stroke-width: 1.0;"/><text fill="#FFFFFF" font-family="sans-serif" font-size="13" lengthAdjust="spacingAndGlyphs" textLength="24" x="297.2198" y="86.9452">app</text><path d="M191.182,102.5537 L190.749,102.191 L198.7155,111.3107 L205.0812,119.0894 L212.3379,127.6145 L218.6793,135.373 L225.7055,143.7051 L232.39,151.7509 " fill="none" style="stroke: #FFA500; stroke-width: 1.0;"/><polygon fill="#FFA500" points="182.551,92.2498,182.5081,92.2451,182.6696,93.6792,182.6236,95.0905,183.0746,96.5563,183.3018,97.9976,183.3374,99.4179,183.3955,99.6161,184.6938,99.7307,186.0595,100.0753,187.4479,100.4969,188.9182,101.1977,190.2565,101.449,190.1981,101.4426,190.1777,100.024,189.9375,98.5813,189.796,97.1494,189.7084,95.7234,189.4702,94.2809,189.4635,94.2581,188.1234,94.0009,186.6371,93.2456,185.3392,93.1323,183.9414,92.6783,182.551,92.2498" style="stroke: #FFA500; stroke-width: 1.0;"/></g></svg>