<?xml version="1.0" encoding="UTF-8" standalone="yes"?><svg xmlns="http://www.w3.org/2000/svg" xmlns:xlink="http://www.w3.org/1999/xlink" height="195px" style="width:372px;height:195px;" version="1.1" viewBox="0 0 372 195" width="372px"><defs><filter height="300%" id="f1" width="300%" x="-1" y="-1"><feGaussianBlur result="blurOut" stdDeviation="2.0"/><feColorMatrix in="blurOut" result="blurOut2" type="matrix" values="0 0 0 0 0 0 0 0 0 0 0 0 0 0 0 0 0 0 .4 0"/><feOffset dx="4.0" dy="4.0" in="blurOut2" result="blurOut3"/><feBlend in="SourceGraphic" in2="blurOut3" mode="normal"/></filter></defs><g><polygon fill="#FFFFFF" filter="url(#f1)" points="6,8,6,7.786,16.1429,8.3136,26.2857,8.7253,36.4286,8.7087,46.5714,8.1358,56.7143,7.7232,66.8571,7.8644,77,7.9809,87.1429,8.1206,97.2857,8.3333,107.4286,7.6114,117.5714,7.9818,127.7143,7.991,137.8571,7.9329,148,7.985,158.1429,8.6009,168.2857,8.5177,178.4286,8.3895,188.5714,8.4107,198.7143,7.7448,208.8571,7.3312,219,8.7163,229.1429,7.5504,239.2857,7.8594,249.4286,7.5927,259.5714,7.9847,269.7143,7.9285,279.8571,8.3127,290,8,290.6233,8,290.5513,18.5215,290.7337,29.043,289.9186,39.5645,289.6269,50.0859,289.5945,60.6074,289.2597,71.1289,289.7912,81.6504,290,92.1719,290,92.0967,279.8571,92.5578,269.7143,92.7152,259.5714,92.4507,249.4286,92.8314,239.2857,92.699,229.1429,91.5486,219,92.0923,208.8571,92.4079,198.7143,92.2633,188.5714,92.6658,178.4286,92.8758,168.2857,91.516,158.1429,92.3734,148,92.5556,137.8571,91.5553,127.7143,91.9152,117.5714,92.7325,107.4286,92.5072,97.2857,91.9015,87.1429,92.7735,77,92,66.8571,92.1747,56.7143,91.5184,46.5714,91.7189,36.4286,92.6715,26.2857,92.6393,16.1429,92.7568,6,92.1719,6.2297,92.1719,6.6052,81.6504,5.9799,71.1289,6.6256,60.6074,6.097,50.0859,6.5882,39.5645,5.7923,29.043,5.9817,18.5215,6,8" style="stroke: #FF8C00; stroke-width: 1.5;"/><text fill="#000000" font-family="sans-serif" font-size="12" lengthAdjust="spacingAndGlyphs" textLength="49" x="123.5" y="21.1387">webapp</text><path d="M7,25.9688 L7,25.6341 L17.0714,26.1914 L27.1429,26.2709 L37.2143,25.961 L47.2857,26.2069 L57.3571,26.3762 L67.4286,25.1416 L77.5,25.1055 L87.5714,26.4997 L97.6429,26.828 L107.7143,26.8175 L117.7857,26.3386 L127.8571,25.8659 L137.9286,25.0986 L148,25.2351 L158.0714,25.6252 L168.1429,25.0452 L178.2143,26.4018 L188.2857,26.1559 L198.3571,26.6328 L208.4286,25.881 L218.5,26.2107 L228.5714,25.0337 L238.6429,25.5454 L248.7143,25.9823 L258.7857,26.665 L268.8571,26.2214 L278.9286,25.2602 L289,25.9688 " fill="#FFFFFF" style="stroke: #FF8C00; stroke-width: 1.5;"/><text fill="#000000" font-family="sans-serif" font-size="10" lengthAdjust="spacingAndGlyphs" textLength="76" x="12" y="39.251">controllers : dict</text><text fill="#000000" font-family="sans-serif" font-size="10" lengthAdjust="spacingAndGlyphs" textLength="95" x="12" y="50.8916">api_controllers : dict</text><text fill="#000000" font-family="sans-serif" font-size="10" lengthAdjust="spacingAndGlyphs" textLength="118" x="12" y="62.5322">mapper : routes.Mapper</text><text fill="#000000" font-family="sans-serif" font-size="10" lengthAdjust="spacingAndGlyphs" textLength="228" x="12" y="74.1729">handle_request: (environ, start_response) -&gt; ()</text><text fill="#000000" font-family="sans-serif" font-size="10" lengthAdjust="spacingAndGlyphs" textLength="272" x="12" y="85.8135">transaction_factory: (environ) -&gt; GalaxyWebTransaction</text><polygon fill="#FFFFFF" filter="url(#f1)" points="325,33,325,33.0858,332.6,33.139,340.2,33.1396,347.8,33.0014,355.4,32.8592,363,33,363.1316,33,362.9942,39.7938,362.7818,46.5875,362.8432,53.3813,362.7616,60.175,363,66.9688,363,67.1994,355.4,66.859,347.8,66.8957,340.2,66.9921,332.6,67.0938,325,66.9688,324.93,66.9688,325.0961,60.175,325.0513,53.3813,325.0516,46.5875,324.7773,39.7938,325,33" style="stroke: #FF8C00; stroke-width: 1.5;"/><text fill="#000000" font-family="sans-serif" font-size="12" lengthAdjust="spacingAndGlyphs" textLength="24" x="332" y="46.1387">app</text><path d="M326,50.9688 L326,50.6654 L333.2,51.2194 L340.4,50.9842 L347.6,50.9688 L354.8,51.2042 L362,50.9688 " fill="#FFFFFF" style="stroke: #FF8C00; stroke-width: 1.5;"/><polygon fill="#FFFFFF" filter="url(#f1)" points="222.75,152,222.75,151.6332,232.15,151.4677,241.55,152.4345,250.95,152.258,260.35,152.6081,269.75,152,269.7613,152,269.7538,158.7938,269.9964,165.5875,269.7265,172.3813,269.8616,179.175,269.75,185.9688,269.75,185.3076,260.35,185.9654,250.95,186.5842,241.55,185.6615,232.15,185.7459,222.75,185.9688,222.6634,185.9688,222.6715,179.175,222.8347,172.3813,222.5923,165.5875,222.6218,158.7938,222.75,152" style="stroke: #FF8C00; stroke-width: 1.5;"/><text fill="#000000" font-family="sans-serif" font-size="12" lengthAdjust="spacingAndGlyphs" textLength="33" x="229.75" y="165.1387">trans</text><path d="M223.75,169.9688 L223.75,169.5056 L232.75,170.7849 L241.75,170.2055 L250.75,170.4098 L259.75,169.6655 L268.75,169.9688 " fill="#FFFFFF" style="stroke: #FF8C00; stroke-width: 1.5;"/><path d="M290.023,50 L290.023,50.2668 L295.9122,50.0456 L301.8014,50.3077 L307.6906,49.7336 L313.5798,49.7608 L319.469,50 " fill="none" style="stroke: #FFA500; stroke-width: 1.0;"/><polygon fill="#FFA500" points="324.602,50,324.6995,50.2195,322.8431,49.2926,320.9245,48.2256,319.2242,47.65,317.323,46.6223,315.602,46,315.5349,45.9329,316.453,46.851,317.3698,47.7678,318.0796,48.4776,318.7016,49.0996,319.602,50,319.525,49.923,318.7801,50.7781,317.9479,51.5459,317.056,52.254,316.2919,53.0899,315.602,54,315.6866,54.1903,317.3658,53.1186,319.1685,52.3246,320.9422,51.4654,322.7068,50.5858,324.602,50" style="stroke: #FFA500; stroke-width: 1.0;"/><text fill="#FFFFFF" font-family="sans-serif" font-size="13" lengthAdjust="spacingAndGlyphs" textLength="24" x="292.9199" y="44.3307">app</text><path d="M326.936,71.372 L327.2231,71.6125 L320.9989,78.8512 L314.1218,85.543 L308.4875,93.2758 L303.0341,101.1601 L296.9473,108.5139 L290.4583,115.5308 L284.2741,122.803 L278.5183,130.4341 L271.6337,137.1196 L265.6941,144.5967 L259.511,151.8698 " fill="none" style="stroke: #FFA500; stroke-width: 1.0;"/><polygon fill="#FFA500" points="330.374,67.268,330.4231,67.3683,328.7084,68.3455,326.728,68.7804,325.0357,69.8033,323.2574,70.6506,321.5288,71.5996,321.5395,71.7209,322.6346,71.2609,323.7657,71.2077,324.8895,71.0721,326.0501,71.3524,327.1637,71.1012,327.0257,71.089,327.0417,72.2086,327.3415,73.3533,327.369,74.4739,327.4332,75.5977,327.662,76.7361,327.7614,76.7646,328.0066,74.7858,328.7157,72.94,329.4092,71.0896,329.9063,69.183,330.374,67.268" style="stroke: #FFA500; stroke-width: 1.0;"/><text fill="#FFFFFF" font-family="sans-serif" font-size="13" lengthAdjust="spacingAndGlyphs" textLength="24" x="297.2198" y="86.9452">app</text><path d="M191.182,102.5537 L190.8909,102.3099 L198.2088,110.8862 L205.6501,119.566 L211.9176,127.2625 L219.1,135.7254 L224.7774,142.9277 L232.39,151.7509 " fill="none" style="stroke: #FFA500; stroke-width: 1.0;"/><polygon fill="#FFA500" points="182.551,92.2498,182.5795,92.2529,182.4797,93.6583,182.8223,95.1123,182.9373,96.5413,183.0796,97.9733,183.3374,99.4179,183.2739,99.2018,184.6635,99.6276,186.0438,100.0217,187.5258,100.7625,188.8093,100.8268,190.2565,101.449,190.405,101.4653,190.3026,100.0377,190.053,98.5939,189.7076,97.1397,189.5523,95.7063,189.4702,94.2809,189.5251,94.468,188.0961,93.9081,186.7491,93.6271,185.2486,92.8236,183.9064,92.5593,182.551,92.2498" style="stroke: #FFA500; stroke-width: 1.0;"/></g></svg>