<?xml version="1.0" encoding="UTF-8" standalone="yes"?><svg xmlns="http://www.w3.org/2000/svg" xmlns:xlink="http://www.w3.org/1999/xlink" height="195px" style="width:372px;height:195px;" version="1.1" viewBox="0 0 372 195" width="372px"><defs><filter height="300%" id="f1" width="300%" x="-1" y="-1"><feGaussianBlur result="blurOut" stdDeviation="2.0"/><feColorMatrix in="blurOut" result="blurOut2" type="matrix" values="0 0 0 0 0 0 0 0 0 0 0 0 0 0 0 0 0 0 .4 0"/><feOffset dx="4.0" dy="4.0" in="blurOut2" result="blurOut3"/><feBlend in="SourceGraphic" in2="blurOut3" mode="normal"/></filter></defs><g><polygon fill="#FFEFD5" filter="url(#f1)" points="6,8,6,7.5196,16.1429,7.8767,26.2857,7.5277,36.4286,8.5206,46.5714,8.0557,56.7143,7.6928,66.8571,7.9446,77,8.2748,87.1429,7.7543,97.2857,7.3962,107.4286,7.8781,117.5714,7.8695,127.7143,8.4368,137.8571,8.3246,148,7.6656,158.1429,7.4105,168.2857,8.4504,178.4286,8.1936,188.5714,8.0566,198.7143,8.2075,208.8571,8.1678,219,7.5758,229.1429,8.333,239.2857,7.6575,249.4286,7.6897,259.5714,8.6063,269.7143,8.5021,279.8571,8.5144,290,8,290.1434,8,289.5562,18.5215,289.671,29.043,289.6916,39.5645,290.7466,50.0859,289.928,60.6074,289.7397,71.1289,289.3236,81.6504,290,92.1719,290,92.8909,279.8571,92.1744,269.7143,91.6495,259.5714,92.5852,249.4286,92.8514,239.2857,91.4859,229.1429,91.5262,219,92.1777,208.8571,92.5354,198.7143,92.0069,188.5714,92.3789,178.4286,92.627,168.2857,91.5022,158.1429,92.4033,148,91.5849,137.8571,92.6728,127.7143,91.4795,117.5714,91.5568,107.4286,92.9002,97.2857,92.2003,87.1429,92.6108,77,91.6601,66.8571,91.9943,56.7143,92.7338,46.5714,92.1282,36.4286,92.0613,26.2857,91.9816,16.1429,92.4091,6,92.1719,6.2017,92.1719,6.4985,81.6504,6.233,71.1289,6.7005,60.6074,5.9576,50.0859,5.4733,39.5645,6.0014,29.043,5.61,18.5215,6,8" style="stroke: #FF8C00; stroke-width: 1.5;"/><text fill="#000000" font-family="sans-serif" font-size="12" lengthAdjust="spacingAndGlyphs" textLength="49" x="123.5" y="21.1387">webapp</text><path d="M7,25.9688 L7,26.2753 L17.0714,26.0594 L27.1429,25.6024 L37.2143,25.5023 L47.2857,26.5623 L57.3571,25.2553 L67.4286,26.9234 L77.5,25.6056 L87.5714,26.618 L97.6429,25.4447 L107.7143,26.1566 L117.7857,25.6805 L127.8571,26.7647 L137.9286,25.9888 L148,25.8773 L158.0714,25.8991 L168.1429,25.183 L178.2143,25.0421 L188.2857,26.0271 L198.3571,25.372 L208.4286,26.3402 L218.5,25.4571 L228.5714,25.3862 L238.6429,25.7752 L248.7143,25.3694 L258.7857,25.2017 L268.8571,26.5321 L278.9286,25.4803 L289,25.9688 " fill="#FFEFD5" style="stroke: #FF8C00; stroke-width: 1.5;"/><text fill="#000000" font-family="sans-serif" font-size="10" lengthAdjust="spacingAndGlyphs" textLength="76" x="12" y="39.251">controllers : dict</text><text fill="#000000" font-family="sans-serif" font-size="10" lengthAdjust="spacingAndGlyphs" textLength="95" x="12" y="50.8916">api_controllers : dict</text><text fill="#000000" font-family="sans-serif" font-size="10" lengthAdjust="spacingAndGlyphs" textLength="118" x="12" y="62.5322">mapper : routes.Mapper</text><text fill="#000000" font-family="sans-serif" font-size="10" lengthAdjust="spacingAndGlyphs" textLength="228" x="12" y="74.1729">handle_request: (environ, start_response) -&gt; ()</text><text fill="#000000" font-family="sans-serif" font-size="10" lengthAdjust="spacingAndGlyphs" textLength="272" x="12" y="85.8135">transaction_factory: (environ) -&gt; GalaxyWebTransaction</text><polygon fill="#FFEFD5" filter="url(#f1)" points="325,33,325,33.2208,332.6,33.2475,340.2,33.0605,347.8,33.2285,355.4,33.0578,363,33,362.8327,33,362.7907,39.7938,362.8679,46.5875,362.9473,53.3813,362.818,60.175,363,66.9688,363,67.0927,355.4,66.8379,347.8,66.9426,340.2,66.747,332.6,67.1731,325,66.9688,325.1914,66.9688,324.8604,60.175,324.8137,53.3813,325.2206,46.5875,325.1181,39.7938,325,33" style="stroke: #FF8C00; stroke-width: 1.5;"/><text fill="#000000" font-family="sans-serif" font-size="12" lengthAdjust="spacingAndGlyphs" textLength="24" x="332" y="46.1387">app</text><path d="M326,50.9688 L326,51.2896 L333.2,50.6895 L340.4,51.1196 L347.6,51.1268 L354.8,50.9559 L362,50.9688 " fill="#FFEFD5" style="stroke: #FF8C00; stroke-width: 1.5;"/><polygon fill="#FFEFD5" filter="url(#f1)" points="222.75,152,222.75,152.5975,232.15,151.5634,241.55,152.3419,250.95,151.285,260.35,152.528,269.75,152,269.9164,152,269.8631,158.7938,269.8766,165.5875,269.8664,172.3813,269.8854,179.175,269.75,185.9688,269.75,185.4874,260.35,186.1077,250.95,186.3127,241.55,186.2219,232.15,185.3808,222.75,185.9688,222.9898,185.9688,222.9437,179.175,222.5025,172.3813,222.5258,165.5875,222.6793,158.7938,222.75,152" style="stroke: #FF8C00; stroke-width: 1.5;"/><text fill="#000000" font-family="sans-serif" font-size="12" lengthAdjust="spacingAndGlyphs" textLength="33" x="229.75" y="165.1387">trans</text><path d="M223.75,169.9688 L223.75,169.7194 L232.75,169.255 L241.75,169.0887 L250.75,169.5285 L259.75,170.8148 L268.75,169.9688 " fill="#FFEFD5" style="stroke: #FF8C00; stroke-width: 1.5;"/><path d="M290.023,50 L290.023,50.1583 L295.9122,50.1248 L301.8014,50.3077 L307.6906,50.1963 L313.5798,49.8721 L319.469,50 " fill="none" style="stroke: #FFA500; stroke-width: 1.0;"/><polygon fill="#FFA500" points="324.602,50,324.6955,50.2104,322.7513,49.0858,320.9976,48.3901,319.2164,47.6323,317.4393,46.884,315.602,46,315.4624,45.8604,316.5655,46.9635,317.1864,47.5844,317.8795,48.2775,318.6277,49.0257,319.602,50,319.7681,50.1661,318.874,50.872,317.9784,51.5764,317.0444,52.2424,316.5443,53.3423,315.602,54,315.594,53.982,317.4504,53.3089,319.301,52.6227,320.9904,51.5739,322.7898,50.7725,324.602,50" style="stroke: #FFA500; stroke-width: 1.0;"/><text fill="#FFEFD5" font-family="sans-serif" font-size="13" lengthAdjust="spacingAndGlyphs" textLength="24" x="292.9199" y="44.3307">app</text><path d="M326.936,71.372 L326.5352,71.0363 L321.4601,79.2375 L315.152,86.4059 L309.2217,93.8907 L302.6959,100.8769 L295.9294,107.6614 L290.2549,115.3604 L283.774,122.3842 L278.1742,130.1458 L272.406,137.7665 L265.7729,144.6626 L259.511,151.8698 " fill="none" style="stroke: #FFA500; stroke-width: 1.0;"/><polygon fill="#FFA500" points="330.374,67.268,330.3877,67.2959,328.5585,68.0394,326.9248,69.1822,325.0592,69.8512,323.3366,70.8124,321.5288,71.5996,321.5349,71.6688,322.6482,71.4141,323.7996,71.591,324.9129,71.3361,326.0514,71.3671,327.1637,71.1012,327.2087,71.1052,327.4907,72.2483,327.4953,73.3669,327.2987,74.4677,327.3539,75.5907,327.662,76.7361,327.6683,76.7379,328.1341,74.8223,328.9316,73.0018,329.3283,71.0664,329.7313,69.1329,330.374,67.268" style="stroke: #FFA500; stroke-width: 1.0;"/><text fill="#FFEFD5" font-family="sans-serif" font-size="13" lengthAdjust="spacingAndGlyphs" textLength="24" x="297.2198" y="86.9452">app</text><path d="M191.182,102.5537 L190.6673,102.1225 L197.4511,110.2516 L204.2036,118.3544 L212.3016,127.5842 L218.8415,135.5088 L225.7101,143.7089 L232.39,151.7509 " fill="none" style="stroke: #FFA500; stroke-width: 1.0;"/><polygon fill="#FFA500" points="182.551,92.2498,182.6565,92.2614,182.7094,93.6835,183.0602,95.1384,182.8264,96.5291,183.079,97.9732,183.3374,99.4179,183.3334,99.4045,184.7273,99.8448,186.062,100.0838,187.5568,100.8679,188.8053,100.8132,190.2565,101.449,190.1327,101.4354,190.0958,100.015,189.8961,98.5767,189.7577,97.1452,189.814,95.735,189.4702,94.2809,189.5254,94.4691,188.1534,94.1031,186.6416,93.261,185.3525,93.1775,183.8884,92.498,182.551,92.2498" style="stroke: #FFA500; stroke-width: 1.0;"/></g></svg>