<?xml version="1.0" encoding="UTF-8" standalone="yes"?><svg xmlns="http://www.w3.org/2000/svg" xmlns:xlink="http://www.w3.org/1999/xlink" height="195px" style="width:372px;height:195px;" version="1.1" viewBox="0 0 372 195" width="372px"><defs><filter height="300%" id="f1" width="300%" x="-1" y="-1"><feGaussianBlur result="blurOut" stdDeviation="2.0"/><feColorMatrix in="blurOut" result="blurOut2" type="matrix" values="0 0 0 0 0 0 0 0 0 0 0 0 0 0 0 0 0 0 .4 0"/><feOffset dx="4.0" dy="4.0" in="blurOut2" result="blurOut3"/><feBlend in="SourceGraphic" in2="blurOut3" mode="normal"/></filter></defs><g><polygon fill="#FFFFFF" filter="url(#f1)" points="6,8,6,7.6485,16.1429,7.9399,26.2857,8.6791,36.4286,8.6897,46.5714,8.4116,56.7143,7.3653,66.8571,8.0703,77,8.171,87.1429,7.9685,97.2857,7.6532,107.4286,7.665,117.5714,8.643,127.7143,8.3311,137.8571,8.1937,148,8.0311,158.1429,7.8006,168.2857,8.0253,178.4286,8.2447,188.5714,8.6771,198.7143,7.9474,208.8571,8.553,219,8.5065,229.1429,8.6417,239.2857,8.5359,249.4286,8.6349,259.5714,8.3022,269.7143,7.8511,279.8571,8.653,290,8,289.8834,8,289.6174,18.5215,289.494,29.043,289.3104,39.5645,290.2903,50.0859,290.162,60.6074,290.0317,71.1289,289.761,81.6504,290,92.1719,290,92.7084,279.8571,92.2164,269.7143,92.6376,259.5714,92.3519,249.4286,92.8247,239.2857,92.2635,229.1429,92.3116,219,91.6114,208.8571,91.6316,198.7143,91.473,188.5714,92.8083,178.4286,92.0282,168.2857,92.6921,158.1429,91.5645,148,92.4374,137.8571,92.3839,127.7143,92.1914,117.5714,92.5779,107.4286,92.3766,97.2857,92.1996,87.1429,91.7426,77,91.4755,66.8571,92.743,56.7143,92.6995,46.5714,92.0816,36.4286,91.7252,26.2857,92.7224,16.1429,92.1088,6,92.1719,5.8067,92.1719,6.2023,81.6504,6.2045,71.1289,6.2455,60.6074,5.268,50.0859,6.5052,39.5645,6.2096,29.043,6.3113,18.5215,6,8" style="stroke: #FF8C00; stroke-width: 1.5;"/><text fill="#000000" font-family="sans-serif" font-size="12" lengthAdjust="spacingAndGlyphs" textLength="49" x="123.5" y="21.1387">webapp</text><path d="M7,25.9688 L7,25.6316 L17.0714,25.6171 L27.1429,26.711 L37.2143,26.8905 L47.2857,26.7852 L57.3571,25.8319 L67.4286,25.5048 L77.5,25.7912 L87.5714,26.0252 L97.6429,25.4788 L107.7143,26.3919 L117.7857,25.3955 L127.8571,26.4142 L137.9286,25.6655 L148,25.814 L158.0714,25.6111 L168.1429,25.7155 L178.2143,26.054 L188.2857,25.1787 L198.3571,25.4919 L208.4286,25.4457 L218.5,25.6753 L228.5714,26.6533 L238.6429,24.9809 L248.7143,26.1238 L258.7857,26.7334 L268.8571,25.9626 L278.9286,26.2335 L289,25.9688 " fill="#FFFFFF" style="stroke: #FF8C00; stroke-width: 1.5;"/><text fill="#000000" font-family="sans-serif" font-size="10" lengthAdjust="spacingAndGlyphs" textLength="76" x="12" y="39.251">controllers : dict</text><text fill="#000000" font-family="sans-serif" font-size="10" lengthAdjust="spacingAndGlyphs" textLength="95" x="12" y="50.8916">api_controllers : dict</text><text fill="#000000" font-family="sans-serif" font-size="10" lengthAdjust="spacingAndGlyphs" textLength="118" x="12" y="62.5322">mapper : routes.Mapper</text><text fill="#000000" font-family="sans-serif" font-size="10" lengthAdjust="spacingAndGlyphs" textLength="228" x="12" y="74.1729">handle_request: (environ, start_response) -&gt; ()</text><text fill="#000000" font-family="sans-serif" font-size="10" lengthAdjust="spacingAndGlyphs" textLength="272" x="12" y="85.8135">transaction_factory: (environ) -&gt; GalaxyWebTransaction</text><polygon fill="#FFFFFF" filter="url(#f1)" points="325,33,325,33.235,332.6,33.2022,340.2,32.8498,347.8,32.7753,355.4,33.2167,363,33,363.2281,33,362.9755,39.7938,362.9957,46.5875,362.775,53.3813,363.1096,60.175,363,66.9688,363,66.9103,355.4,67.0813,347.8,66.7244,340.2,67.1179,332.6,67.1421,325,66.9688,324.7942,66.9688,324.8909,60.175,324.8331,53.3813,324.8543,46.5875,324.9288,39.7938,325,33" style="stroke: #FF8C00; stroke-width: 1.5;"/><text fill="#000000" font-family="sans-serif" font-size="12" lengthAdjust="spacingAndGlyphs" textLength="24" x="332" y="46.1387">app</text><path d="M326,50.9688 L326,51.2784 L333.2,50.6586 L340.4,50.6648 L347.6,50.8355 L354.8,51.26 L362,50.9688 " fill="#FFFFFF" style="stroke: #FF8C00; stroke-width: 1.5;"/><polygon fill="#FFFFFF" filter="url(#f1)" points="222.5,152,222.5,152.4088,231.9,151.7297,241.3,151.8298,250.7,151.8437,260.1,152.2545,269.5,152,269.3242,152,269.5631,158.7938,269.5575,165.5875,269.6954,172.3813,269.6456,179.175,269.5,185.9688,269.5,186.4583,260.1,186.6948,250.7,186.4666,241.3,185.6184,231.9,186.3355,222.5,185.9688,222.3739,185.9688,222.4093,179.175,222.5973,172.3813,222.5631,165.5875,222.4087,158.7938,222.5,152" style="stroke: #FF8C00; stroke-width: 1.5;"/><text fill="#000000" font-family="sans-serif" font-size="12" lengthAdjust="spacingAndGlyphs" textLength="33" x="229.5" y="165.1387">trans</text><path d="M223.5,169.9688 L223.5,170.2735 L232.5,169.7418 L241.5,169.929 L250.5,169.0961 L259.5,169.7951 L268.5,169.9688 " fill="#FFFFFF" style="stroke: #FF8C00; stroke-width: 1.5;"/><path d="M290.023,50 L290.023,50.0935 L295.9122,49.7671 L301.8014,49.758 L307.6906,49.793 L313.5798,49.8477 L319.469,50 " fill="none" style="stroke: #FFA500; stroke-width: 1.0;"/><polygon fill="#FFA500" points="324.602,50,324.6618,50.1345,322.7198,49.015,321.1023,48.6257,319.1118,47.3971,317.456,46.9214,315.602,46,315.7558,46.1538,316.25,46.648,317.2026,47.6006,317.8779,48.2759,318.8181,49.2161,319.602,50,319.4525,49.8505,318.8779,50.8759,317.9164,51.5144,317.2415,52.4395,316.3191,53.1171,315.602,54,315.6124,54.0234,317.3716,53.1316,319.12,52.2154,320.948,51.4785,322.8571,50.9241,324.602,50" style="stroke: #FFA500; stroke-width: 1.0;"/><text fill="#FFFFFF" font-family="sans-serif" font-size="13" lengthAdjust="spacingAndGlyphs" textLength="24" x="292.9487" y="45.2588">app</text><path d="M326.936,71.372 L327.0404,71.4595 L321.0152,78.8648 L314.1673,85.5811 L308.6095,93.378 L302.773,100.9414 L297.0108,108.5671 L289.5712,114.7878 L283.7598,122.3722 L277.2417,129.3648 L272.403,137.764 L266.2337,145.0487 L259.511,151.8698 " fill="none" style="stroke: #FFA500; stroke-width: 1.0;"/><polygon fill="#FFA500" points="330.374,67.268,330.274,67.0637,328.5552,68.0328,326.8014,68.93,325.0544,69.8414,323.2445,70.6243,321.5288,71.5996,321.5235,71.5394,322.647,71.401,323.78,71.3689,324.8922,71.1019,326.0158,70.965,327.1637,71.1012,327.1097,71.0965,327.2565,72.2276,327.5525,73.3719,327.4154,74.478,327.5573,75.6087,327.662,76.7361,327.5301,76.6983,328.1055,74.8142,328.9526,73.0078,329.0989,71.0007,330.0042,69.2111,330.374,67.268" style="stroke: #FFA500; stroke-width: 1.0;"/><text fill="#FFFFFF" font-family="sans-serif" font-size="13" lengthAdjust="spacingAndGlyphs" textLength="24" x="298.526" y="86.9452">app</text><path d="M191.182,102.5537 L191.3757,102.7159 L197.524,110.3126 L205.1804,119.1725 L211.0489,126.5349 L218.7584,135.4393 L226.118,144.0506 L232.39,151.7509 " fill="none" style="stroke: #FFA500; stroke-width: 1.0;"/><polygon fill="#FFA500" points="182.551,92.2498,182.6143,92.2567,182.5286,93.6637,183.0225,95.1343,183.0246,96.5509,183.0408,97.969,183.3374,99.4179,183.3091,99.3218,184.6701,99.65,186.1376,100.3413,187.525,100.7597,188.8897,101.1009,190.2565,101.449,190.1346,101.4356,190.2911,100.0364,189.8527,98.572,189.8741,97.1579,189.699,95.7224,189.4702,94.2809,189.4497,94.2112,188.1397,94.0565,186.6679,93.3505,185.2725,92.905,183.9641,92.7556,182.551,92.2498" style="stroke: #FFA500; stroke-width: 1.0;"/></g></svg>