<?xml version="1.0" encoding="UTF-8"?>
<svg width="690px" height="324px" viewBox="0 0 690 324" version="1.1" xmlns="http://www.w3.org/2000/svg" xmlns:xlink="http://www.w3.org/1999/xlink">
    <!-- Generator: Sketch 40.3 (33839) - http://www.bohemiancoding.com/sketch -->
    <title>IGV</title>
    <desc>Created with Sketch.</desc>
    <defs></defs>
    <g id="Page-1" stroke="none" stroke-width="1" fill="none" fill-rule="evenodd">
        <g id="IGV" fill="#666666">
            <polygon id="Path" points="379.54574 8.00169252 455.581247 8.00169252 515.564813 188.87244 532.884012 253.529506 537.108207 253.529506 554.849825 188.87244 614.833392 8.00169252 689.60164 8.00169252 582.729511 320.722144 486.840288 320.722144"></polygon>
            <path d="M261.482414,323.793286 C207.975678,323.793286 168.339046,310.552102 142.571329,284.069337 C116.803612,257.586572 103.919946,217.158702 103.919946,162.784513 C103.919946,108.410325 117.437235,67.8415913 144.472217,41.0770945 C171.507199,14.3125977 212.903894,0.930550071 268.663545,0.930550071 C283.025879,0.930550071 298.232828,1.84616386 314.284849,3.6774189 C330.33687,5.50867394 344.839793,7.97378798 357.794056,11.072835 L357.794056,68.968378 C339.48912,65.869331 323.578145,63.5450806 310.060654,61.9955571 C296.543163,60.4460336 284.574731,59.6712835 274.154998,59.6712835 C255.850062,59.6712835 240.502308,61.4320792 228.111274,64.9537236 C215.720241,68.4753679 205.793482,74.2507779 198.330701,82.2801269 C190.867919,90.309476 185.587729,100.87425 182.48997,113.974767 C179.392212,127.075284 177.843356,143.345037 177.843356,162.784513 C177.843356,181.942258 179.251407,198.000716 182.067551,210.960367 C184.883695,223.920018 189.671068,234.41436 196.429813,242.443709 C203.188559,250.473058 212.059279,256.178037 223.042241,259.558815 C234.025202,262.939594 247.683295,264.629958 264.01693,264.629958 C268.241146,264.629958 273.098922,264.489094 278.590403,264.207362 C284.081883,263.925631 289.643684,263.50304 295.275972,262.939577 L295.275972,159.826347 L361.595831,159.826347 L361.595831,308.579859 C344.698967,313.087564 327.239137,316.750019 309.215815,319.567334 C291.192494,322.38465 275.281519,323.793286 261.482414,323.793286 L261.482414,323.793286 L261.482414,323.793286 Z" id="Path"></path>
            <polygon id="Path" points="0.81355666 5.00169252 73.0472883 5.00169252 73.0472883 317.722144 0.81355666 317.722144"></polygon>
        </g>
    </g>
</svg>