<svg xmlns:svg="http://www.w3.org/2000/svg" xmlns="http://www.w3.org/2000/svg" width="4in" height="4in" version="1"><svg:g><svg:path d="M 144,41 C 86.938,41 41,86.938 41,144 l 0,72 c 0,57.062 45.938,103 103,103 l 71,0 c 57.062,0 103,-45.938 103,-103 l 0,-72 C 318,86.938 272.062,41 215,41 Z m 33.36328,38.224609 c 15.39938,0 28.34375,11.481114 28.34375,25.138671 0,13.65755 -12.94437,25.13867 -28.34375,25.13867 -15.39937,0 -28.34375,-11.48112 -28.34375,-25.13867 0,-13.657557 12.94438,-25.138671 28.34375,-25.138671 z M 138.78711,150 l 62.79883,0 0,126.00586 -40,0 0,-86.00586 -22.79883,0 z" fill="#5050ff" fill-opacity="1" stroke="none" stroke-width="40" stroke-linecap="square" stroke-linejoin="miter" stroke-miterlimit="4" stroke-dasharray="none" stroke-opacity="1"/></svg:g></svg>