<svg width="200" height="200" viewBox="0 0 5 5" xmlns="http://www.w3.org/2000/svg">
  <rect x="0.0" y="0.0" width="0.8" height="0.8" rx="0.2" ry="0.2" fill="#E30A17" stroke="transparent" stroke-width="0.05" />
  <rect x="1.0" y="0.0" width="0.8" height="0.8" rx="0.2" ry="0.2" fill="#E30A17" stroke="transparent" stroke-width="0.05" />
  <rect x="2.0" y="0.0" width="0.8" height="0.8" rx="0.2" ry="0.2" fill="#E30A17" stroke="transparent" stroke-width="0.05" />
  <rect x="3.0" y="0.0" width="0.8" height="0.8" rx="0.2" ry="0.2" fill="#E30A17" stroke="transparent" stroke-width="0.05" />
  <rect x="0.0" y="1.0" width="0.8" height="0.8" rx="0.2" ry="0.2" fill="#E30A17" stroke="transparent" stroke-width="0.05" />
  <rect x="1.0" y="1.0" width="0.8" height="0.8" rx="0.2" ry="0.2" fill="#E30A17" stroke="transparent" stroke-width="0.05" />
  <rect x="2.0" y="1.0" width="0.8" height="0.8" rx="0.2" ry="0.2" fill="#E30A17" stroke="transparent" stroke-width="0.05" />
  <rect x="3.0" y="1.0" width="0.8" height="0.8" rx="0.2" ry="0.2" fill="#E30A17" stroke="transparent" stroke-width="0.05" />
  <rect x="0.0" y="2.0" width="0.8" height="0.8" rx="0.2" ry="0.2" fill="#E30A17" stroke="transparent" stroke-width="0.05" />
  <rect x="1.0" y="2.0" width="0.8" height="0.8" rx="0.2" ry="0.2" fill="#E30A17" stroke="transparent" stroke-width="0.05" />
  <rect x="2.0" y="2.0" width="0.8" height="0.8" rx="0.2" ry="0.2" fill="#E30A17" stroke="transparent" stroke-width="0.05" />
  <rect x="3.0" y="2.0" width="0.8" height="0.8" rx="0.2" ry="0.2" fill="#E30A17" stroke="transparent" stroke-width="0.05" />
  <rect x="0.0" y="3.0" width="0.8" height="0.8" rx="0.2" ry="0.2" fill="#E30A17" stroke="transparent" stroke-width="0.05" />
  <rect x="1.0" y="3.0" width="0.8" height="0.8" rx="0.2" ry="0.2" fill="#E30A17" stroke="transparent" stroke-width="0.05" />
  <rect x="2.0" y="3.0" width="0.8" height="0.8" rx="0.2" ry="0.2" fill="#E30A17" stroke="transparent" stroke-width="0.05" />
  <rect x="3.0" y="3.0" width="0.8" height="0.8" rx="0.2" ry="0.2" fill="#E30A17" stroke="transparent" stroke-width="0.05" />
</svg>
