<?xml version="1.0" encoding="iso-8859-1"?>
<svg fill="#E30A17" height="800px" width="800px" version="1.1" id="Layer_1" xmlns="http://www.w3.org/2000/svg" xmlns:xlink="http://www.w3.org/1999/xlink" 
	 viewBox="0 0 511.989 511.989" xml:space="preserve">
<g>
	<g>
		<g>
			<path d="M388.839,352.921l-122.133-61.013v-142.4c0-5.333-3.84-10.133-9.067-10.88c-6.613-0.96-12.267,4.16-12.267,10.56v142.72
				l-122.133,61.013c-5.227,2.667-7.36,9.067-4.8,14.293c2.56,5.227,9.067,7.36,14.293,4.8l123.307-61.653l123.2,61.653
				c5.227,2.667,11.627,0.533,14.293-4.8S394.065,355.588,388.839,352.921z"/>
			<path d="M245.372,56.601v39.147c0,5.333,3.84,10.133,9.067,10.88c6.613,0.96,12.267-4.16,12.267-10.56V56.601l39.467-38.187
				c4.267-4.16,4.267-10.88,0.213-15.147c-4.053-4.267-10.88-4.373-15.147-0.213l-35.2,34.133l-35.2-34.133
				c-4.267-4.16-10.987-4.053-15.147,0.213c-4.16,4.267-4.053,10.987,0.213,15.147L245.372,56.601z"/>
			<path d="M85.265,480.068H34.172l59.2-67.627c3.84-4.48,3.413-11.2-0.96-15.04c-1.92-1.707-4.373-2.667-6.933-2.667H11.025
				c-5.333,0-10.133,3.84-10.88,9.067c-0.96,6.613,4.16,12.267,10.56,12.267h51.2l-59.2,67.627c-3.84,4.48-3.413,11.2,1.067,15.04
				c1.92,1.707,4.48,2.667,7.04,2.667h74.24c5.333,0,10.133-3.84,10.88-9.067C96.785,485.721,91.772,480.068,85.265,480.068z"/>
			<path d="M508.839,493.828l-31.147-35.627l31.147-35.627c4.16-4.16,4.16-10.88,0-15.04c-4.16-4.16-10.88-4.16-15.04,0
				c-0.32,0.32-0.64,0.747-0.96,1.067l-29.333,33.493l-29.227-33.493c-3.627-4.693-10.24-5.547-14.933-2.027
				c-4.693,3.627-5.547,10.24-2.027,14.933c0.32,0.427,0.64,0.747,0.96,1.067l31.147,35.627l-31.147,35.627
				c-4.16,4.16-4.16,10.88,0,15.04c4.16,4.16,10.88,4.16,15.04,0c0.32-0.32,0.64-0.747,0.96-1.067l29.333-33.493l29.227,33.493
				c3.627,4.693,10.24,5.547,14.933,2.027c4.693-3.627,5.547-10.24,2.027-14.933C509.479,494.468,509.159,494.148,508.839,493.828z"
				/>
		</g>
	</g>
</g>
</svg>