<svg xmlns="http://www.w3.org/2000/svg" viewBox="0 0 20 20" width="20" height="20">
  <g transform="translate(10,10) scale(1.3) translate(-10,-10)">
    <circle cx="10" cy="10" r="6.5" fill="#f7dc1e" />
    <g style="display:inline;fill:#1a1a1a" transform="translate(-75,-77)">
        <g
           style="font-style:normal;font-variant:normal;font-weight:normal;font-stretch:normal;font-size:8.46666718px;line-height:1.25;font-family:Vibur;-inkscape-font-specification:'Vibur, Normal';font-variant-ligatures:normal;font-variant-caps:normal;font-variant-numeric:normal;font-feature-settings:normal;text-align:start;letter-spacing:0px;word-spacing:0px;writing-mode:lr-tb;text-anchor:start;fill:#1a1a1a;stroke-width:0.26458335"
           aria-label="l">
            <path
                style="font-style:normal;font-variant:normal;font-weight:normal;font-stretch:normal;font-size:8.46666718px;font-family:Vibur;-inkscape-font-specification:'Vibur, Normal';font-variant-ligatures:normal;font-variant-caps:normal;font-variant-numeric:normal;font-feature-settings:normal;text-align:start;writing-mode:lr-tb;text-anchor:start;fill:#1a1a1a;stroke-width:0.26458335"
                d="m 87.065449,90.288925 q -0.996322,-0.04134 -1.475879,-1.21543 -0.355534,-0.8847 -0.355534,-2.166276 0,-0.06615 0.0083,-0.169498 0.05788,-0.872299 0.322461,-1.599903 0.429948,-1.174089 1.21543,-1.174089 0.04134,0 0.08682,0.0041 0.715202,0.04547 0.715202,0.830957 0,0.855761 -0.735872,1.901692 -0.467155,0.665593 -0.979786,1.079004 0.14056,0.785482 0.310059,1.178223 0.314193,0.727604 0.93431,0.727604 0.04134,0 0.08682,-0.0083 0.136426,-0.02481 0.380339,-0.198437 0.235644,-0.161231 0.367936,-0.161231 0.05788,0 0.111621,0.03721 0.11989,0.08268 0.11989,0.223242 -0.0083,0.214974 -0.305925,0.442351 -0.37207,0.268717 -0.806152,0.268717 z m -0.28112,-5.700944 q -0.243913,0.0041 -0.429948,0.21084 -0.471289,0.5333 -0.516764,2.228288 0.248046,-0.252181 0.496093,-0.595313 0.686263,-0.938444 0.686263,-1.583366 0,-0.03307 -0.01654,-0.07855 -0.06615,-0.181901 -0.219108,-0.181901 z" />
        </g>
        <g
            style="font-style:normal;font-variant:normal;font-weight:normal;font-stretch:normal;font-size:8.46666718px;line-height:1.25;font-family:Vibur;-inkscape-font-specification:'Vibur, Normal';font-variant-ligatures:normal;font-variant-caps:normal;font-variant-numeric:normal;font-feature-settings:normal;text-align:start;letter-spacing:0px;word-spacing:0px;writing-mode:lr-tb;text-anchor:start;fill:#1a1a1a;stroke-width:0.26458335"
            aria-label="j">
            <path
                style="font-style:normal;font-variant:normal;font-weight:normal;font-stretch:normal;font-size:8.46666718px;font-family:Vibur;-inkscape-font-specification:'Vibur, Normal';font-variant-ligatures:normal;font-variant-caps:normal;font-variant-numeric:normal;font-feature-settings:normal;text-align:start;writing-mode:lr-tb;text-anchor:start;fill:#1a1a1a;stroke-width:0.26458335"
                d="m 84.15503,84.666527 q 0.268717,0.0041 0.276986,0.3514 l -0.458887,3.282487 q 1.033529,-0.789616 1.161686,-0.892969 0.152962,-0.132291 0.314193,-0.136426 0.05788,0 0.111621,0.03721 0.119889,0.08268 0.119889,0.21084 -0.0041,0.198438 -0.223242,0.384473 -0.607715,0.51263 -1.608171,1.260905 l -0.190169,1.368392 q -0.0124,0.09508 -0.03721,0.186035 -0.190169,0.727604 -0.95498,0.727604 -0.380339,0 -0.669727,-0.285254 -0.285254,-0.285253 -0.285254,-0.640787 0,-0.372071 0.177767,-0.611849 0.09922,-0.124024 0.388607,-0.338998 l 0.992187,-0.74414 q 0.525033,-3.468523 0.537435,-3.64629 0,-0.0248 0.0041,-0.04548 0.04548,-0.467155 0.343132,-0.467155 z m -1.087272,5.53558 q 0,0 0.07028,-0.504362 l -0.458887,0.3514 q -0.297656,0.223242 -0.30179,0.421679 0,0.07028 0.0248,0.132292 0.07028,0.181901 0.264584,0.181901 0.07855,0 0.140559,-0.02481 0.198438,-0.08682 0.26045,-0.558105 z m 0.897103,-6.325196 q 0,-0.07441 0.03721,-0.14056 0.08682,-0.16123 0.268717,-0.16123 0.07441,0 0.144694,0.03721 0.157096,0.08682 0.157096,0.264583 0,0.07441 -0.03721,0.144694 -0.08682,0.157097 -0.264583,0.157097 -0.07441,0 -0.144694,-0.03721 -0.16123,-0.08268 -0.16123,-0.264584 z" />
        </g>
    </g>
  </g>
</svg>
